<?xml version="1.0" encoding="UTF-8"?>
<svg xmlns="http://www.w3.org/2000/svg" xmlns:xlink="http://www.w3.org/1999/xlink" width="100%" height="100%" viewBox="0 0 720 720" version="1.1">
  <g id="spiro_11_4_9_29443">
    <path style=" stroke:none;fill-rule:evenodd;fill:rgb(25.490196%,41.176471%,88.235294%);fill-opacity:1;" d="M 693.332031 360 L 693.320313 361.144531 L 693.277344 362.292969 L 693.207031 363.4375 L 693.105469 364.582031 L 692.976563 365.722656 L 692.820313 366.867188 L 692.636719 368.007813 L 692.421875 369.148438 L 692.183594 370.285156 L 691.914063 371.421875 L 691.613281 372.554688 L 691.289063 373.6875 L 690.933594 374.816406 L 690.550781 375.941406 L 690.140625 377.066406 L 689.699219 378.183594 L 689.234375 379.300781 L 688.738281 380.414063 L 688.214844 381.523438 L 687.664063 382.628906 L 687.085938 383.730469 L 686.480469 384.828125 L 685.84375 385.917969 L 685.183594 387.007813 L 684.492188 388.089844 L 683.777344 389.164063 L 683.03125 390.238281 L 682.261719 391.300781 L 681.460938 392.363281 L 680.636719 393.414063 L 679.78125 394.464844 L 678.902344 395.503906 L 677.992188 396.539063 L 677.058594 397.566406 L 676.097656 398.585938 L 675.109375 399.601563 L 674.097656 400.605469 L 673.054688 401.605469 L 671.988281 402.59375 L 670.894531 403.574219 L 669.777344 404.550781 L 668.632813 405.515625 L 667.460938 406.472656 L 666.261719 407.421875 L 665.039063 408.359375 L 663.792969 409.289063 L 662.519531 410.210938 L 661.222656 411.121094 L 659.898438 412.023438 L 658.546875 412.914063 L 657.175781 413.796875 L 655.777344 414.667969 L 654.355469 415.527344 L 652.90625 416.378906 L 651.4375 417.21875 L 649.941406 418.046875 L 648.421875 418.863281 L 646.878906 419.667969 L 645.3125 420.464844 L 643.722656 421.246094 L 642.109375 422.019531 L 640.472656 422.777344 L 638.8125 423.523438 L 637.132813 424.257813 L 635.425781 424.980469 L 633.699219 425.691406 L 631.949219 426.390625 L 630.179688 427.074219 L 628.386719 427.746094 L 626.570313 428.402344 L 624.734375 429.046875 L 622.875 429.679688 L 620.996094 430.296875 L 619.097656 430.898438 L 617.175781 431.488281 L 615.238281 432.066406 L 613.273438 432.628906 L 611.292969 433.175781 L 609.292969 433.707031 L 607.269531 434.226563 L 605.230469 434.730469 L 603.171875 435.21875 L 601.089844 435.691406 L 598.992188 436.152344 L 596.878906 436.59375 L 594.742188 437.023438 L 592.589844 437.4375 L 590.417969 437.832031 L 588.230469 438.214844 L 586.023438 438.582031 L 583.800781 438.929688 L 581.558594 439.265625 L 579.300781 439.582031 L 577.027344 439.882813 L 574.734375 440.167969 L 572.429688 440.4375 L 570.105469 440.691406 L 567.769531 440.929688 L 565.414063 441.148438 L 563.046875 441.351563 L 560.660156 441.535156 L 558.261719 441.703125 L 555.851563 441.855469 L 553.421875 441.992188 L 550.980469 442.109375 L 548.527344 442.210938 L 546.058594 442.292969 L 543.574219 442.359375 L 541.082031 442.40625 L 538.574219 442.4375 L 536.054688 442.453125 L 533.523438 442.449219 L 530.976563 442.425781 L 528.421875 442.386719 L 525.855469 442.328125 L 523.277344 442.253906 L 520.6875 442.160156 L 518.089844 442.050781 L 515.480469 441.921875 L 512.859375 441.773438 L 510.230469 441.609375 L 507.589844 441.425781 L 504.941406 441.226563 L 502.28125 441.007813 L 499.617188 440.769531 L 496.941406 440.515625 L 494.257813 440.242188 L 491.566406 439.949219 L 488.867188 439.640625 L 486.160156 439.3125 L 483.445313 438.964844 L 480.726563 438.597656 L 478 438.214844 L 475.265625 437.816406 L 472.527344 437.394531 L 469.78125 436.957031 L 467.03125 436.5 L 464.277344 436.027344 L 461.515625 435.535156 L 458.75 435.023438 L 455.980469 434.492188 L 453.207031 433.945313 L 450.429688 433.378906 L 447.648438 432.796875 L 444.863281 432.195313 L 442.078125 431.574219 L 439.285156 430.9375 L 436.492188 430.28125 L 433.699219 429.605469 L 430.902344 428.914063 L 428.105469 428.203125 L 425.304688 427.476563 L 422.503906 426.730469 L 419.703125 425.964844 L 416.902344 425.183594 L 414.101563 424.386719 L 411.296875 423.570313 L 408.496094 422.734375 L 405.695313 421.882813 L 402.894531 421.011719 L 400.097656 420.125 L 397.300781 419.222656 L 394.503906 418.300781 L 391.710938 417.359375 L 388.917969 416.40625 L 386.128906 415.433594 L 383.34375 414.441406 L 380.5625 413.4375 L 377.78125 412.414063 L 375.003906 411.371094 L 372.234375 410.316406 L 369.464844 409.242188 L 366.703125 408.152344 L 363.941406 407.046875 L 361.191406 405.921875 L 358.441406 404.785156 L 355.699219 403.628906 L 352.960938 402.460938 L 350.230469 401.273438 L 347.503906 400.070313 L 344.785156 398.851563 L 342.074219 397.621094 L 339.371094 396.371094 L 336.675781 395.105469 L 333.984375 393.828125 L 331.304688 392.535156 L 328.628906 391.226563 L 325.964844 389.902344 L 323.308594 388.5625 L 320.660156 387.210938 L 318.023438 385.84375 L 315.394531 384.464844 L 312.773438 383.066406 L 310.164063 381.660156 L 307.566406 380.234375 L 304.976563 378.800781 L 302.398438 377.347656 L 299.828125 375.886719 L 297.273438 374.410156 L 294.726563 372.921875 L 292.195313 371.417969 L 289.671875 369.902344 L 287.164063 368.375 L 284.664063 366.835938 L 282.179688 365.28125 L 279.707031 363.71875 L 277.25 362.140625 L 274.800781 360.554688 L 272.371094 358.953125 L 269.949219 357.34375 L 267.546875 355.722656 L 265.152344 354.089844 L 262.777344 352.445313 L 260.414063 350.792969 L 258.066406 349.125 L 255.734375 347.449219 L 253.417969 345.765625 L 251.113281 344.070313 L 248.828125 342.367188 L 246.554688 340.652344 L 244.300781 338.925781 L 242.0625 337.195313 L 239.839844 335.453125 L 237.632813 333.703125 L 235.445313 331.941406 L 233.269531 330.175781 L 231.117188 328.398438 L 228.976563 326.617188 L 226.855469 324.824219 L 224.753906 323.027344 L 222.667969 321.21875 L 220.601563 319.40625 L 218.554688 317.585938 L 216.523438 315.761719 L 214.511719 313.925781 L 212.515625 312.085938 L 210.542969 310.242188 L 208.585938 308.390625 L 206.652344 306.535156 L 204.734375 304.671875 L 202.835938 302.804688 L 200.960938 300.929688 L 199.101563 299.054688 L 197.265625 297.171875 L 195.445313 295.285156 L 193.648438 293.398438 L 191.871094 291.503906 L 190.117188 289.605469 L 188.382813 287.703125 L 186.667969 285.800781 L 184.972656 283.894531 L 183.300781 281.984375 L 181.648438 280.074219 L 180.015625 278.160156 L 178.410156 276.242188 L 176.820313 274.324219 L 175.257813 272.40625 L 173.710938 270.484375 L 172.191406 268.5625 L 170.691406 266.640625 L 169.214844 264.71875 L 167.757813 262.792969 L 166.324219 260.871094 L 164.914063 258.945313 L 163.527344 257.023438 L 162.160156 255.101563 L 160.820313 253.179688 L 159.5 251.261719 L 158.203125 249.339844 L 156.929688 247.425781 L 155.679688 245.507813 L 154.449219 243.59375 L 153.246094 241.683594 L 152.066406 239.773438 L 150.90625 237.871094 L 149.773438 235.964844 L 148.664063 234.066406 L 147.574219 232.171875 L 146.511719 230.277344 L 145.472656 228.390625 L 144.457031 226.507813 L 143.460938 224.628906 L 142.492188 222.753906 L 141.550781 220.882813 L 140.628906 219.019531 L 139.730469 217.160156 L 138.859375 215.304688 L 138.007813 213.460938 L 137.183594 211.617188 L 136.382813 209.78125 L 135.605469 207.953125 L 134.855469 206.132813 L 134.125 204.320313 L 133.421875 202.511719 L 132.742188 200.714844 L 132.085938 198.921875 L 131.453125 197.140625 L 130.84375 195.363281 L 130.261719 193.597656 L 129.703125 191.839844 L 129.167969 190.09375 L 128.65625 188.355469 L 128.167969 186.625 L 127.707031 184.90625 L 127.269531 183.195313 L 126.855469 181.496094 L 126.464844 179.804688 L 126.097656 178.128906 L 125.753906 176.460938 L 125.4375 174.804688 L 125.144531 173.160156 L 124.871094 171.523438 L 124.625 169.902344 L 124.402344 168.292969 L 124.207031 166.695313 L 124.03125 165.109375 L 123.878906 163.539063 L 123.753906 161.980469 L 123.648438 160.433594 L 123.570313 158.902344 L 123.511719 157.382813 L 123.480469 155.875 L 123.46875 154.382813 L 123.484375 152.90625 L 123.519531 151.445313 L 123.582031 149.996094 L 123.664063 148.5625 L 123.769531 147.144531 L 123.898438 145.742188 L 124.050781 144.355469 L 124.226563 142.984375 L 124.425781 141.625 L 124.644531 140.285156 L 124.886719 138.964844 L 125.152344 137.65625 L 125.441406 136.367188 L 125.75 135.09375 L 126.082031 133.835938 L 126.4375 132.597656 L 126.8125 131.375 L 127.210938 130.171875 L 127.632813 128.984375 L 128.074219 127.816406 L 128.535156 126.667969 L 129.019531 125.535156 L 129.527344 124.421875 L 130.050781 123.328125 L 130.601563 122.25 L 131.167969 121.195313 L 131.757813 120.15625 L 132.367188 119.140625 L 132.996094 118.140625 L 133.648438 117.160156 L 134.320313 116.203125 L 135.011719 115.265625 L 135.722656 114.347656 L 136.453125 113.449219 L 137.203125 112.570313 L 137.972656 111.714844 L 138.761719 110.878906 L 139.570313 110.0625 L 140.398438 109.269531 L 141.242188 108.496094 L 142.109375 107.746094 L 142.992188 107.015625 L 143.894531 106.308594 L 144.8125 105.621094 L 145.753906 104.957031 L 146.707031 104.316406 L 147.683594 103.695313 L 148.671875 103.097656 L 149.683594 102.523438 L 150.707031 101.96875 L 151.75 101.441406 L 152.8125 100.933594 L 153.886719 100.449219 L 154.980469 99.988281 L 156.089844 99.550781 L 157.214844 99.136719 L 158.355469 98.746094 L 159.511719 98.378906 L 160.683594 98.035156 L 161.875 97.710938 L 163.074219 97.417969 L 164.292969 97.144531 L 165.527344 96.894531 L 166.773438 96.667969 L 168.035156 96.46875 L 169.3125 96.292969 L 170.601563 96.140625 L 171.90625 96.011719 L 173.222656 95.910156 L 174.550781 95.832031 L 175.894531 95.777344 L 177.25 95.746094 L 178.621094 95.742188 L 180.003906 95.761719 L 181.394531 95.804688 L 182.800781 95.875 L 184.21875 95.96875 L 185.648438 96.089844 L 187.089844 96.230469 L 188.542969 96.402344 L 190.003906 96.597656 L 191.480469 96.816406 L 192.964844 97.058594 L 194.457031 97.328125 L 195.964844 97.625 L 197.476563 97.945313 L 199.003906 98.289063 L 200.535156 98.660156 L 202.078125 99.058594 L 203.632813 99.480469 L 205.191406 99.925781 L 206.761719 100.398438 L 208.339844 100.894531 L 209.925781 101.417969 L 211.519531 101.96875 L 213.121094 102.542969 L 214.730469 103.140625 L 216.34375 103.765625 L 217.96875 104.414063 L 219.597656 105.089844 L 221.234375 105.789063 L 222.875 106.515625 L 224.523438 107.265625 L 226.175781 108.042969 L 227.835938 108.84375 L 229.5 109.671875 L 231.171875 110.523438 L 232.84375 111.398438 L 234.523438 112.300781 L 236.207031 113.230469 L 237.894531 114.179688 L 239.585938 115.160156 L 241.28125 116.160156 L 242.980469 117.1875 L 244.683594 118.238281 L 246.386719 119.316406 L 248.09375 120.414063 L 249.804688 121.542969 L 251.519531 122.691406 L 253.230469 123.867188 L 254.949219 125.066406 L 256.664063 126.289063 L 258.382813 127.535156 L 260.105469 128.808594 L 261.824219 130.105469 L 263.546875 131.425781 L 265.269531 132.769531 L 266.992188 134.136719 L 268.714844 135.527344 L 270.433594 136.941406 L 272.15625 138.378906 L 273.875 139.84375 L 275.59375 141.328125 L 277.3125 142.835938 L 279.03125 144.367188 L 280.746094 145.921875 L 282.457031 147.5 L 284.167969 149.101563 L 285.878906 150.722656 L 287.585938 152.367188 L 289.289063 154.035156 L 290.988281 155.726563 L 292.683594 157.4375 L 294.378906 159.171875 L 296.066406 160.929688 L 297.753906 162.707031 L 299.4375 164.507813 L 301.113281 166.328125 L 302.785156 168.167969 L 304.453125 170.03125 L 306.117188 171.914063 L 307.773438 173.820313 L 309.425781 175.746094 L 311.074219 177.691406 L 312.714844 179.660156 L 314.351563 181.644531 L 315.980469 183.652344 L 317.601563 185.679688 L 319.21875 187.726563 L 320.824219 189.792969 L 322.425781 191.875 L 324.023438 193.980469 L 325.609375 196.105469 L 327.1875 198.246094 L 328.757813 200.40625 L 330.324219 202.585938 L 331.878906 204.78125 L 333.425781 206.996094 L 334.960938 209.230469 L 336.492188 211.480469 L 338.011719 213.75 L 339.523438 216.035156 L 341.023438 218.339844 L 342.515625 220.65625 L 343.996094 222.992188 L 345.46875 225.347656 L 346.929688 227.714844 L 348.382813 230.097656 L 349.824219 232.5 L 351.253906 234.914063 L 352.675781 237.347656 L 354.082031 239.792969 L 355.480469 242.253906 L 356.867188 244.730469 L 358.242188 247.222656 L 359.605469 249.726563 L 360.957031 252.246094 L 362.296875 254.777344 L 363.625 257.324219 L 364.9375 259.882813 L 366.242188 262.457031 L 367.53125 265.042969 L 368.808594 267.640625 L 370.074219 270.25 L 371.324219 272.875 L 372.5625 275.507813 L 373.785156 278.15625 L 374.996094 280.8125 L 376.195313 283.480469 L 377.378906 286.160156 L 378.550781 288.851563 L 379.707031 291.550781 L 380.847656 294.261719 L 381.976563 296.984375 L 383.089844 299.714844 L 384.1875 302.453125 L 385.273438 305.203125 L 386.34375 307.960938 L 387.398438 310.726563 L 388.4375 313.5 L 389.460938 316.285156 L 390.472656 319.074219 L 391.464844 321.871094 L 392.445313 324.679688 L 393.410156 327.492188 L 394.355469 330.308594 L 395.289063 333.136719 L 396.203125 335.96875 L 397.105469 338.804688 L 397.988281 341.648438 L 398.859375 344.496094 L 399.710938 347.351563 L 400.546875 350.210938 L 401.367188 353.074219 L 402.171875 355.941406 L 402.957031 358.8125 L 403.730469 361.691406 L 404.484375 364.570313 L 405.21875 367.449219 L 405.941406 370.335938 L 406.644531 373.222656 L 407.332031 376.113281 L 408 379.007813 L 408.65625 381.898438 L 409.292969 384.796875 L 409.910156 387.691406 L 410.511719 390.589844 L 411.097656 393.488281 L 411.664063 396.386719 L 412.214844 399.285156 L 412.75 402.1875 L 413.265625 405.085938 L 413.761719 407.980469 L 414.242188 410.878906 L 414.707031 413.773438 L 415.152344 416.667969 L 415.582031 419.558594 L 415.996094 422.449219 L 416.386719 425.335938 L 416.765625 428.222656 L 417.125 431.101563 L 417.464844 433.980469 L 417.789063 436.855469 L 418.09375 439.726563 L 418.382813 442.59375 L 418.65625 445.457031 L 418.910156 448.316406 L 419.144531 451.167969 L 419.363281 454.015625 L 419.566406 456.859375 L 419.75 459.695313 L 419.914063 462.523438 L 420.0625 465.347656 L 420.195313 468.167969 L 420.308594 470.976563 L 420.40625 473.78125 L 420.484375 476.574219 L 420.546875 479.363281 L 420.589844 482.144531 L 420.617188 484.917969 L 420.625 487.679688 L 420.621094 490.433594 L 420.59375 493.179688 L 420.554688 495.914063 L 420.496094 498.640625 L 420.417969 501.359375 L 420.328125 504.066406 L 420.21875 506.761719 L 420.089844 509.445313 L 419.949219 512.121094 L 419.789063 514.78125 L 419.609375 517.433594 L 419.417969 520.074219 L 419.207031 522.703125 L 418.980469 525.316406 L 418.738281 527.921875 L 418.480469 530.511719 L 418.207031 533.089844 L 417.914063 535.652344 L 417.609375 538.203125 L 417.285156 540.738281 L 416.945313 543.261719 L 416.589844 545.769531 L 416.21875 548.261719 L 415.835938 550.742188 L 415.433594 553.207031 L 415.015625 555.652344 L 414.582031 558.085938 L 414.136719 560.503906 L 413.671875 562.90625 L 413.195313 565.289063 L 412.703125 567.65625 L 412.195313 570.011719 L 411.671875 572.34375 L 411.136719 574.664063 L 410.585938 576.960938 L 410.019531 579.246094 L 409.441406 581.511719 L 408.847656 583.757813 L 408.242188 585.984375 L 407.621094 588.195313 L 406.984375 590.386719 L 406.335938 592.558594 L 405.675781 594.710938 L 405 596.84375 L 404.3125 598.957031 L 403.609375 601.054688 L 402.898438 603.128906 L 402.171875 605.179688 L 401.429688 607.214844 L 400.679688 609.226563 L 399.914063 611.21875 L 399.140625 613.191406 L 398.351563 615.140625 L 397.550781 617.070313 L 396.742188 618.976563 L 395.917969 620.863281 L 395.085938 622.726563 L 394.238281 624.566406 L 393.382813 626.386719 L 392.515625 628.183594 L 391.636719 629.957031 L 390.75 631.707031 L 389.851563 633.4375 L 388.941406 635.140625 L 388.023438 636.824219 L 387.09375 638.480469 L 386.15625 640.113281 L 385.210938 641.726563 L 384.253906 643.3125 L 383.285156 644.875 L 382.3125 646.414063 L 381.328125 647.925781 L 380.335938 649.417969 L 379.335938 650.882813 L 378.328125 652.320313 L 377.308594 653.734375 L 376.285156 655.125 L 375.253906 656.488281 L 374.214844 657.828125 L 373.167969 659.144531 L 372.113281 660.429688 L 371.054688 661.691406 L 369.984375 662.929688 L 368.910156 664.140625 L 367.832031 665.324219 L 366.746094 666.480469 L 365.652344 667.613281 L 364.554688 668.71875 L 363.453125 669.796875 L 362.34375 670.851563 L 361.230469 671.875 L 360.113281 672.875 L 358.988281 673.847656 L 357.863281 674.789063 L 356.730469 675.707031 L 355.59375 676.597656 L 354.457031 677.460938 L 353.3125 678.296875 L 352.167969 679.105469 L 351.015625 679.886719 L 349.863281 680.640625 L 348.707031 681.367188 L 347.550781 682.066406 L 346.390625 682.734375 L 345.226563 683.378906 L 344.0625 683.992188 L 342.894531 684.578125 L 341.726563 685.140625 L 340.558594 685.671875 L 339.390625 686.171875 L 338.21875 686.648438 L 337.046875 687.09375 L 335.875 687.511719 L 334.703125 687.902344 L 333.53125 688.265625 L 332.355469 688.601563 L 331.183594 688.90625 L 330.015625 689.183594 L 328.84375 689.433594 L 327.675781 689.65625 L 326.507813 689.847656 L 325.339844 690.011719 L 324.175781 690.148438 L 323.011719 690.257813 L 321.851563 690.335938 L 320.691406 690.386719 L 319.535156 690.410156 L 318.382813 690.40625 L 317.230469 690.371094 L 316.085938 690.308594 L 314.941406 690.21875 L 313.800781 690.101563 L 312.664063 689.957031 L 311.53125 689.78125 L 310.40625 689.578125 L 309.28125 689.347656 L 308.160156 689.089844 L 307.046875 688.800781 L 305.9375 688.488281 L 304.835938 688.144531 L 303.738281 687.773438 L 302.644531 687.375 L 301.558594 686.949219 L 300.476563 686.496094 L 299.402344 686.011719 L 298.335938 685.503906 L 297.273438 684.96875 L 296.21875 684.402344 L 295.171875 683.8125 L 294.132813 683.195313 L 293.101563 682.546875 L 292.078125 681.875 L 291.0625 681.175781 L 290.054688 680.445313 L 289.054688 679.691406 L 288.0625 678.914063 L 287.078125 678.105469 L 286.105469 677.269531 L 285.140625 676.410156 L 284.183594 675.523438 L 283.238281 674.609375 L 282.304688 673.671875 L 281.375 672.703125 L 280.460938 671.714844 L 279.554688 670.695313 L 278.660156 669.652344 L 277.773438 668.585938 L 276.898438 667.488281 L 276.035156 666.371094 L 275.183594 665.226563 L 274.34375 664.054688 L 273.515625 662.863281 L 272.695313 661.640625 L 271.890625 660.398438 L 271.097656 659.128906 L 270.316406 657.835938 L 269.546875 656.519531 L 268.789063 655.175781 L 268.042969 653.8125 L 267.3125 652.421875 L 266.59375 651.007813 L 265.890625 649.574219 L 265.199219 648.113281 L 264.519531 646.628906 L 263.855469 645.125 L 263.203125 643.597656 L 262.566406 642.046875 L 261.945313 640.472656 L 261.335938 638.875 L 260.742188 637.257813 L 260.164063 635.617188 L 259.597656 633.957031 L 259.046875 632.273438 L 258.511719 630.566406 L 257.992188 628.839844 L 257.488281 627.09375 L 257 625.328125 L 256.523438 623.539063 L 256.066406 621.730469 L 255.625 619.902344 L 255.195313 618.050781 L 254.785156 616.183594 L 254.390625 614.296875 L 254.015625 612.386719 L 253.652344 610.460938 L 253.304688 608.515625 L 252.976563 606.550781 L 252.664063 604.566406 L 252.371094 602.566406 L 252.09375 600.546875 L 251.832031 598.507813 L 251.585938 596.453125 L 251.359375 594.378906 L 251.148438 592.289063 L 250.957031 590.183594 L 250.78125 588.058594 L 250.625 585.917969 L 250.484375 583.761719 L 250.363281 581.589844 L 250.261719 579.402344 L 250.175781 577.199219 L 250.105469 574.976563 L 250.054688 572.742188 L 250.023438 570.492188 L 250.011719 568.230469 L 250.015625 565.949219 L 250.039063 563.65625 L 250.082031 561.351563 L 250.140625 559.03125 L 250.21875 556.695313 L 250.316406 554.351563 L 250.433594 551.992188 L 250.570313 549.617188 L 250.722656 547.234375 L 250.894531 544.835938 L 251.085938 542.425781 L 251.296875 540.003906 L 251.523438 537.574219 L 251.773438 535.128906 L 252.039063 532.675781 L 252.328125 530.210938 L 252.632813 527.734375 L 252.957031 525.25 L 253.300781 522.753906 L 253.664063 520.25 L 254.042969 517.738281 L 254.445313 515.214844 L 254.867188 512.679688 L 255.304688 510.140625 L 255.765625 507.59375 L 256.242188 505.035156 L 256.738281 502.472656 L 257.253906 499.898438 L 257.792969 497.320313 L 258.347656 494.734375 L 258.921875 492.140625 L 259.515625 489.542969 L 260.125 486.9375 L 260.757813 484.324219 L 261.410156 481.710938 L 262.078125 479.085938 L 262.769531 476.460938 L 263.476563 473.828125 L 264.203125 471.191406 L 264.949219 468.550781 L 265.714844 465.90625 L 266.5 463.261719 L 267.304688 460.609375 L 268.125 457.953125 L 268.96875 455.296875 L 269.828125 452.636719 L 270.707031 449.976563 L 271.605469 447.3125 L 272.519531 444.644531 L 273.457031 441.976563 L 274.410156 439.308594 L 275.382813 436.640625 L 276.371094 433.96875 L 277.378906 431.296875 L 278.40625 428.625 L 279.453125 425.957031 L 280.515625 423.285156 L 281.597656 420.617188 L 282.695313 417.949219 L 283.816406 415.28125 L 284.949219 412.613281 L 286.101563 409.949219 L 287.273438 407.289063 L 288.460938 404.628906 L 289.667969 401.96875 L 290.890625 399.316406 L 292.132813 396.664063 L 293.386719 394.015625 L 294.664063 391.371094 L 295.953125 388.730469 L 297.261719 386.09375 L 298.589844 383.460938 L 299.929688 380.835938 L 301.289063 378.214844 L 302.664063 375.597656 L 304.054688 372.984375 L 305.460938 370.378906 L 306.886719 367.777344 L 308.324219 365.183594 L 309.78125 362.597656 L 311.25 360.015625 L 312.738281 357.441406 L 314.238281 354.875 L 315.753906 352.316406 L 317.285156 349.765625 L 318.832031 347.222656 L 320.394531 344.6875 L 321.972656 342.160156 L 323.5625 339.640625 L 325.167969 337.132813 L 326.785156 334.632813 L 328.421875 332.140625 L 330.066406 329.660156 L 331.730469 327.1875 L 333.402344 324.726563 L 335.089844 322.277344 L 336.792969 319.839844 L 338.507813 317.410156 L 340.234375 314.992188 L 341.976563 312.585938 L 343.726563 310.1875 L 345.492188 307.804688 L 347.269531 305.433594 L 349.058594 303.074219 L 350.859375 300.726563 L 352.671875 298.394531 L 354.496094 296.070313 L 356.332031 293.761719 L 358.179688 291.46875 L 360.039063 289.1875 L 361.90625 286.917969 L 363.785156 284.664063 L 365.671875 282.421875 L 367.574219 280.199219 L 369.480469 277.988281 L 371.402344 275.789063 L 373.328125 273.609375 L 375.265625 271.441406 L 377.214844 269.289063 L 379.171875 267.152344 L 381.136719 265.035156 L 383.109375 262.929688 L 385.089844 260.839844 L 387.078125 258.769531 L 389.074219 256.714844 L 391.082031 254.675781 L 393.09375 252.652344 L 395.113281 250.644531 L 397.140625 248.65625 L 399.171875 246.6875 L 401.210938 244.734375 L 403.257813 242.796875 L 405.3125 240.878906 L 407.367188 238.976563 L 409.433594 237.09375 L 411.5 235.230469 L 413.574219 233.386719 L 415.65625 231.558594 L 417.738281 229.75 L 419.828125 227.960938 L 421.921875 226.1875 L 424.015625 224.4375 L 426.117188 222.703125 L 428.222656 220.992188 L 430.328125 219.296875 L 432.441406 217.625 L 434.554688 215.972656 L 436.667969 214.335938 L 438.789063 212.722656 L 440.910156 211.128906 L 443.03125 209.554688 L 445.15625 208.003906 L 447.28125 206.46875 L 449.40625 204.957031 L 451.535156 203.46875 L 453.660156 201.996094 L 455.789063 200.546875 L 457.917969 199.117188 L 460.046875 197.710938 L 462.175781 196.324219 L 464.300781 194.960938 L 466.429688 193.617188 L 468.554688 192.296875 L 470.679688 190.996094 L 472.800781 189.71875 L 474.921875 188.460938 L 477.042969 187.226563 L 479.160156 186.015625 L 481.273438 184.824219 L 483.382813 183.652344 L 485.492188 182.507813 L 487.597656 181.382813 L 489.699219 180.28125 L 491.796875 179.199219 L 493.886719 178.144531 L 495.976563 177.109375 L 498.0625 176.097656 L 500.140625 175.105469 L 502.214844 174.136719 L 504.285156 173.195313 L 506.347656 172.273438 L 508.40625 171.371094 L 510.457031 170.496094 L 512.503906 169.640625 L 514.542969 168.808594 L 516.574219 168 L 518.597656 167.214844 L 520.617188 166.453125 L 522.628906 165.714844 L 524.628906 164.996094 L 526.625 164.300781 L 528.609375 163.632813 L 530.585938 162.984375 L 532.554688 162.359375 L 534.515625 161.753906 L 536.464844 161.175781 L 538.40625 160.617188 L 540.335938 160.085938 L 542.257813 159.574219 L 544.167969 159.085938 L 546.070313 158.621094 L 547.957031 158.179688 L 549.835938 157.761719 L 551.703125 157.363281 L 553.558594 156.988281 L 555.40625 156.636719 L 557.238281 156.308594 L 559.058594 156.003906 L 560.863281 155.722656 L 562.660156 155.460938 L 564.441406 155.222656 L 566.210938 155.007813 L 567.96875 154.816406 L 569.710938 154.644531 L 571.4375 154.496094 L 573.152344 154.371094 L 574.855469 154.269531 L 576.539063 154.1875 L 578.210938 154.128906 L 579.867188 154.089844 L 581.511719 154.074219 L 583.136719 154.082031 L 584.746094 154.113281 L 586.34375 154.164063 L 587.921875 154.234375 L 589.484375 154.328125 L 591.03125 154.445313 L 592.5625 154.582031 L 594.074219 154.738281 L 595.570313 154.917969 L 597.050781 155.121094 L 598.511719 155.339844 L 599.957031 155.585938 L 601.382813 155.847656 L 602.792969 156.132813 L 604.183594 156.4375 L 605.554688 156.765625 L 606.90625 157.109375 L 608.242188 157.476563 L 609.558594 157.863281 L 610.855469 158.269531 L 612.132813 158.699219 L 613.390625 159.144531 L 614.628906 159.613281 L 615.84375 160.097656 L 617.042969 160.605469 L 618.222656 161.128906 L 619.378906 161.671875 L 620.515625 162.238281 L 621.632813 162.820313 L 622.730469 163.421875 L 623.804688 164.042969 L 624.855469 164.679688 L 625.886719 165.335938 L 626.898438 166.011719 L 627.886719 166.707031 L 628.855469 167.417969 L 629.800781 168.148438 L 630.722656 168.894531 L 631.621094 169.660156 L 632.5 170.441406 L 633.355469 171.238281 L 634.1875 172.054688 L 635 172.886719 L 635.785156 173.738281 L 636.550781 174.605469 L 637.289063 175.484375 L 638.007813 176.386719 L 638.703125 177.300781 L 639.371094 178.230469 L 640.019531 179.175781 L 640.640625 180.136719 L 641.238281 181.113281 L 641.816406 182.105469 L 642.363281 183.113281 L 642.890625 184.136719 L 643.394531 185.171875 L 643.871094 186.222656 L 644.324219 187.289063 L 644.75 188.367188 L 645.152344 189.460938 L 645.53125 190.566406 L 645.886719 191.6875 L 646.214844 192.820313 L 646.515625 193.964844 L 646.792969 195.125 L 647.046875 196.296875 L 647.273438 197.480469 L 647.476563 198.675781 L 647.652344 199.886719 L 647.800781 201.105469 L 647.925781 202.335938 L 648.023438 203.582031 L 648.097656 204.835938 L 648.144531 206.101563 L 648.167969 207.378906 L 648.164063 208.664063 L 648.132813 209.960938 L 648.074219 211.269531 L 647.992188 212.585938 L 647.882813 213.914063 L 647.75 215.25 L 647.589844 216.597656 L 647.402344 217.953125 L 647.1875 219.316406 L 646.945313 220.6875 L 646.679688 222.070313 L 646.386719 223.457031 L 646.070313 224.855469 L 645.722656 226.261719 L 645.351563 227.671875 L 644.953125 229.09375 L 644.527344 230.519531 L 644.078125 231.953125 L 643.601563 233.394531 L 643.097656 234.839844 L 642.566406 236.292969 L 642.007813 237.753906 L 641.425781 239.21875 L 640.816406 240.6875 L 640.179688 242.164063 L 639.519531 243.644531 L 638.832031 245.132813 L 638.117188 246.621094 L 637.375 248.117188 L 636.609375 249.617188 L 635.816406 251.117188 L 634.996094 252.625 L 634.148438 254.136719 L 633.277344 255.648438 L 632.378906 257.164063 L 631.457031 258.683594 L 630.507813 260.207031 L 629.53125 261.730469 L 628.53125 263.257813 L 627.503906 264.785156 L 626.449219 266.316406 L 625.371094 267.847656 L 624.265625 269.378906 L 623.136719 270.914063 L 621.984375 272.449219 L 620.800781 273.984375 L 619.597656 275.519531 L 618.367188 277.054688 L 617.109375 278.589844 L 615.828125 280.125 L 614.523438 281.65625 L 613.191406 283.191406 L 611.839844 284.722656 L 610.457031 286.253906 L 609.054688 287.785156 L 607.625 289.3125 L 606.171875 290.839844 L 604.695313 292.363281 L 603.191406 293.886719 L 601.667969 295.40625 L 600.117188 296.921875 L 598.542969 298.433594 L 596.949219 299.945313 L 595.328125 301.453125 L 593.683594 302.953125 L 592.019531 304.453125 L 590.328125 305.949219 L 588.613281 307.441406 L 586.878906 308.925781 L 585.121094 310.40625 L 583.339844 311.882813 L 581.539063 313.355469 L 579.710938 314.824219 L 577.863281 316.285156 L 575.996094 317.738281 L 574.105469 319.1875 L 572.191406 320.628906 L 570.257813 322.066406 L 568.300781 323.496094 L 566.324219 324.921875 L 564.328125 326.335938 L 562.308594 327.746094 L 560.269531 329.148438 L 558.210938 330.542969 L 556.128906 331.929688 L 554.03125 333.308594 L 551.910156 334.679688 L 549.769531 336.039063 L 547.613281 337.394531 L 545.433594 338.738281 L 543.234375 340.078125 L 541.019531 341.402344 L 538.785156 342.722656 L 536.53125 344.03125 L 534.257813 345.332031 L 531.96875 346.621094 L 529.660156 347.898438 L 527.335938 349.167969 L 524.992188 350.429688 L 522.628906 351.675781 L 520.253906 352.914063 L 517.859375 354.140625 L 515.445313 355.359375 L 513.019531 356.5625 L 510.574219 357.757813 L 508.117188 358.941406 L 505.640625 360.113281 L 503.148438 361.273438 L 500.640625 362.417969 L 498.121094 363.554688 L 495.582031 364.679688 L 493.03125 365.789063 L 490.464844 366.890625 L 487.886719 367.976563 L 485.292969 369.046875 L 482.683594 370.109375 L 480.0625 371.15625 L 477.429688 372.191406 L 474.78125 373.210938 L 472.121094 374.21875 L 469.449219 375.214844 L 466.765625 376.195313 L 464.070313 377.160156 L 461.359375 378.113281 L 458.640625 379.050781 L 455.910156 379.976563 L 453.167969 380.886719 L 450.417969 381.78125 L 447.652344 382.664063 L 444.878906 383.53125 L 442.097656 384.382813 L 439.304688 385.21875 L 436.503906 386.039063 L 433.691406 386.847656 L 430.871094 387.640625 L 428.042969 388.417969 L 425.207031 389.179688 L 422.359375 389.925781 L 419.507813 390.65625 L 416.648438 391.371094 L 413.777344 392.070313 L 410.90625 392.753906 L 408.023438 393.421875 L 405.136719 394.070313 L 402.242188 394.707031 L 399.34375 395.328125 L 396.4375 395.929688 L 393.527344 396.519531 L 390.609375 397.089844 L 387.691406 397.644531 L 384.765625 398.183594 L 381.835938 398.707031 L 378.902344 399.210938 L 375.964844 399.699219 L 373.023438 400.171875 L 370.082031 400.628906 L 367.136719 401.066406 L 364.1875 401.488281 L 361.234375 401.894531 L 358.285156 402.285156 L 355.328125 402.65625 L 352.375 403.011719 L 349.417969 403.351563 L 346.457031 403.671875 L 343.5 403.976563 L 340.542969 404.261719 L 337.582031 404.53125 L 334.625 404.785156 L 331.667969 405.023438 L 328.710938 405.242188 L 325.753906 405.445313 L 322.800781 405.628906 L 319.847656 405.796875 L 316.898438 405.949219 L 313.949219 406.082031 L 311.003906 406.199219 L 308.0625 406.296875 L 305.121094 406.378906 L 302.1875 406.445313 L 299.253906 406.496094 L 296.324219 406.527344 L 293.402344 406.539063 L 290.484375 406.539063 L 287.566406 406.519531 L 284.660156 406.480469 L 281.753906 406.429688 L 278.855469 406.359375 L 275.964844 406.273438 L 273.078125 406.167969 L 270.199219 406.046875 L 267.324219 405.910156 L 264.460938 405.753906 L 261.601563 405.585938 L 258.75 405.398438 L 255.910156 405.195313 L 253.074219 404.972656 L 250.25 404.734375 L 247.429688 404.484375 L 244.621094 404.214844 L 241.824219 403.925781 L 239.035156 403.625 L 236.253906 403.308594 L 233.484375 402.972656 L 230.726563 402.621094 L 227.976563 402.257813 L 225.242188 401.875 L 222.515625 401.476563 L 219.800781 401.0625 L 217.09375 400.632813 L 214.402344 400.1875 L 211.726563 399.730469 L 209.058594 399.253906 L 206.402344 398.761719 L 203.761719 398.257813 L 201.136719 397.738281 L 198.519531 397.199219 L 195.921875 396.648438 L 193.332031 396.085938 L 190.761719 395.503906 L 188.203125 394.910156 L 185.660156 394.300781 L 183.132813 393.675781 L 180.617188 393.039063 L 178.121094 392.386719 L 175.636719 391.722656 L 173.171875 391.042969 L 170.722656 390.347656 L 168.289063 389.640625 L 165.871094 388.921875 L 163.472656 388.1875 L 161.089844 387.441406 L 158.722656 386.679688 L 156.375 385.90625 L 154.042969 385.121094 L 151.730469 384.324219 L 149.4375 383.511719 L 147.160156 382.6875 L 144.902344 381.851563 L 142.664063 381.003906 L 140.445313 380.144531 L 138.246094 379.273438 L 136.066406 378.390625 L 133.902344 377.496094 L 131.761719 376.589844 L 129.640625 375.671875 L 127.539063 374.746094 L 125.460938 373.804688 L 123.402344 372.855469 L 121.363281 371.894531 L 119.34375 370.925781 L 117.347656 369.941406 L 115.371094 368.953125 L 113.417969 367.953125 L 111.488281 366.941406 L 109.578125 365.921875 L 107.691406 364.890625 L 105.824219 363.851563 L 103.980469 362.804688 L 102.160156 361.746094 L 100.363281 360.683594 L 98.589844 359.609375 L 96.839844 358.527344 L 95.109375 357.4375 L 93.40625 356.339844 L 91.726563 355.234375 L 90.070313 354.121094 L 88.4375 353 L 86.828125 351.871094 L 85.242188 350.738281 L 83.679688 349.59375 L 82.144531 348.449219 L 80.632813 347.292969 L 79.148438 346.132813 L 77.6875 344.964844 L 76.25 343.792969 L 74.835938 342.613281 L 73.453125 341.433594 L 72.089844 340.242188 L 70.753906 339.050781 L 69.445313 337.851563 L 68.160156 336.648438 L 66.902344 335.441406 L 65.671875 334.230469 L 64.464844 333.015625 L 63.285156 331.792969 L 62.132813 330.570313 L 61.003906 329.347656 L 59.902344 328.117188 L 58.828125 326.882813 L 57.78125 325.648438 L 56.761719 324.414063 L 55.765625 323.171875 L 54.800781 321.929688 L 53.859375 320.6875 L 52.945313 319.441406 L 52.058594 318.195313 L 51.199219 316.949219 L 50.367188 315.699219 L 49.5625 314.449219 L 48.789063 313.199219 L 48.039063 311.949219 L 47.316406 310.695313 L 46.621094 309.445313 L 45.953125 308.195313 L 45.3125 306.945313 L 44.703125 305.695313 L 44.117188 304.449219 L 43.5625 303.203125 L 43.03125 301.957031 L 42.53125 300.710938 L 42.058594 299.46875 L 41.613281 298.226563 L 41.195313 296.992188 L 40.804688 295.753906 L 40.441406 294.523438 L 40.109375 293.292969 L 39.804688 292.0625 L 39.523438 290.839844 L 39.273438 289.621094 L 39.050781 288.402344 L 38.859375 287.191406 L 38.691406 285.984375 L 38.554688 284.78125 L 38.441406 283.582031 L 38.359375 282.386719 L 38.304688 281.195313 L 38.277344 280.011719 L 38.277344 278.832031 L 38.304688 277.660156 L 38.363281 276.492188 L 38.445313 275.332031 L 38.558594 274.175781 L 38.699219 273.03125 L 38.863281 271.886719 L 39.058594 270.753906 L 39.28125 269.625 L 39.53125 268.507813 L 39.804688 267.394531 L 40.109375 266.289063 L 40.441406 265.191406 L 40.800781 264.105469 L 41.1875 263.023438 L 41.601563 261.953125 L 42.039063 260.890625 L 42.507813 259.835938 L 43 258.792969 L 43.519531 257.757813 L 44.070313 256.730469 L 44.644531 255.714844 L 45.242188 254.707031 L 45.871094 253.714844 L 46.523438 252.726563 L 47.203125 251.753906 L 47.910156 250.789063 L 48.640625 249.835938 L 49.398438 248.894531 L 50.183594 247.964844 L 50.992188 247.042969 L 51.828125 246.136719 L 52.691406 245.242188 L 53.574219 244.359375 L 54.488281 243.488281 L 55.425781 242.628906 L 56.386719 241.78125 L 57.375 240.949219 L 58.386719 240.128906 L 59.421875 239.320313 L 60.480469 238.527344 L 61.566406 237.746094 L 62.675781 236.976563 L 63.8125 236.222656 L 64.96875 235.484375 L 66.148438 234.761719 L 67.355469 234.046875 L 68.585938 233.351563 L 69.835938 232.671875 L 71.113281 232.003906 L 72.410156 231.351563 L 73.730469 230.714844 L 75.074219 230.09375 L 76.441406 229.484375 L 77.832031 228.894531 L 79.242188 228.320313 L 80.675781 227.757813 L 82.132813 227.214844 L 83.609375 226.6875 L 85.109375 226.175781 L 86.628906 225.679688 L 88.167969 225.203125 L 89.730469 224.742188 L 91.316406 224.296875 L 92.917969 223.867188 L 94.542969 223.457031 L 96.1875 223.0625 L 97.851563 222.6875 L 99.535156 222.328125 L 101.242188 221.984375 L 102.964844 221.660156 L 104.707031 221.355469 L 106.46875 221.066406 L 108.25 220.792969 L 110.046875 220.542969 L 111.867188 220.308594 L 113.703125 220.089844 L 115.554688 219.894531 L 117.425781 219.714844 L 119.316406 219.554688 L 121.222656 219.410156 L 123.148438 219.289063 L 125.085938 219.183594 L 127.042969 219.097656 L 129.019531 219.03125 L 131.007813 218.984375 L 133.015625 218.953125 L 135.035156 218.945313 L 137.074219 218.957031 L 139.125 218.984375 L 141.195313 219.035156 L 143.277344 219.101563 L 145.375 219.191406 L 147.484375 219.296875 L 149.609375 219.425781 L 151.75 219.574219 L 153.902344 219.738281 L 156.070313 219.925781 L 158.25 220.132813 L 160.441406 220.359375 L 162.648438 220.605469 L 164.867188 220.875 L 167.097656 221.160156 L 169.339844 221.46875 L 171.59375 221.796875 L 173.855469 222.144531 L 176.132813 222.511719 L 178.421875 222.898438 L 180.71875 223.304688 L 183.027344 223.734375 L 185.34375 224.183594 L 187.675781 224.652344 L 190.011719 225.144531 L 192.359375 225.652344 L 194.714844 226.183594 L 197.082031 226.734375 L 199.457031 227.304688 L 201.835938 227.894531 L 204.226563 228.507813 L 206.625 229.140625 L 209.03125 229.792969 L 211.445313 230.464844 L 213.867188 231.160156 L 216.292969 231.871094 L 218.726563 232.605469 L 221.167969 233.359375 L 223.613281 234.136719 L 226.0625 234.929688 L 228.519531 235.746094 L 230.984375 236.582031 L 233.449219 237.4375 L 235.921875 238.3125 L 238.398438 239.207031 L 240.878906 240.121094 L 243.363281 241.058594 L 245.851563 242.011719 L 248.34375 242.988281 L 250.835938 243.984375 L 253.332031 245 L 255.832031 246.03125 L 258.335938 247.085938 L 260.839844 248.160156 L 263.34375 249.253906 L 265.851563 250.367188 L 268.359375 251.5 L 270.867188 252.652344 L 273.378906 253.824219 L 275.890625 255.011719 L 278.398438 256.222656 L 280.910156 257.449219 L 283.421875 258.695313 L 285.929688 259.960938 L 288.4375 261.246094 L 290.945313 262.550781 L 293.453125 263.871094 L 295.957031 265.214844 L 298.457031 266.570313 L 300.957031 267.949219 L 303.457031 269.34375 L 305.953125 270.757813 L 308.445313 272.1875 L 310.933594 273.636719 L 313.417969 275.101563 L 315.898438 276.585938 L 318.378906 278.089844 L 320.851563 279.609375 L 323.320313 281.144531 L 325.785156 282.695313 L 328.242188 284.265625 L 330.695313 285.855469 L 333.144531 287.457031 L 335.585938 289.078125 L 338.023438 290.714844 L 340.453125 292.367188 L 342.878906 294.035156 L 345.296875 295.71875 L 347.707031 297.421875 L 350.109375 299.136719 L 352.503906 300.871094 L 354.894531 302.617188 L 357.273438 304.378906 L 359.644531 306.15625 L 362.007813 307.949219 L 364.363281 309.757813 L 366.710938 311.578125 L 369.046875 313.414063 L 371.375 315.265625 L 373.691406 317.128906 L 376 319.007813 L 378.300781 320.898438 L 380.585938 322.804688 L 382.863281 324.722656 L 385.132813 326.65625 L 387.386719 328.597656 L 389.632813 330.558594 L 391.867188 332.527344 L 394.089844 334.507813 L 396.300781 336.503906 L 398.5 338.511719 L 400.683594 340.53125 L 402.859375 342.558594 L 405.019531 344.601563 L 407.167969 346.65625 L 409.304688 348.71875 L 411.425781 350.792969 L 413.535156 352.878906 L 415.632813 354.972656 L 417.714844 357.078125 L 419.78125 359.195313 L 421.835938 361.320313 L 423.875 363.457031 L 425.902344 365.601563 L 427.910156 367.753906 L 429.90625 369.917969 L 431.886719 372.089844 L 433.851563 374.269531 L 435.804688 376.457031 L 437.738281 378.652344 L 439.65625 380.855469 L 441.558594 383.066406 L 443.445313 385.285156 L 445.316406 387.511719 L 447.167969 389.746094 L 449.007813 391.984375 L 450.828125 394.230469 L 452.628906 396.480469 L 454.417969 398.738281 L 456.1875 401.003906 L 457.9375 403.273438 L 459.675781 405.546875 L 461.390625 407.824219 L 463.089844 410.109375 L 464.773438 412.398438 L 466.433594 414.691406 L 468.082031 416.988281 L 469.707031 419.289063 L 471.316406 421.59375 L 472.90625 423.898438 L 474.476563 426.210938 L 476.03125 428.523438 L 477.5625 430.839844 L 479.078125 433.15625 L 480.574219 435.476563 L 482.046875 437.800781 L 483.503906 440.121094 L 484.941406 442.445313 L 486.359375 444.773438 L 487.757813 447.097656 L 489.136719 449.425781 L 490.492188 451.753906 L 491.832031 454.082031 L 493.148438 456.40625 L 494.449219 458.734375 L 495.726563 461.058594 L 496.984375 463.382813 L 498.21875 465.707031 L 499.4375 468.03125 L 500.632813 470.351563 L 501.808594 472.667969 L 502.960938 474.984375 L 504.09375 477.296875 L 505.207031 479.609375 L 506.300781 481.914063 L 507.371094 484.21875 L 508.421875 486.519531 L 509.449219 488.816406 L 510.457031 491.109375 L 511.445313 493.398438 L 512.410156 495.679688 L 513.351563 497.960938 L 514.273438 500.234375 L 515.175781 502.5 L 516.054688 504.761719 L 516.914063 507.019531 L 517.75 509.269531 L 518.566406 511.515625 L 519.359375 513.75 L 520.132813 515.980469 L 520.882813 518.203125 L 521.613281 520.421875 L 522.320313 522.628906 L 523.007813 524.828125 L 523.671875 527.019531 L 524.3125 529.203125 L 524.933594 531.378906 L 525.535156 533.542969 L 526.113281 535.699219 L 526.667969 537.847656 L 527.203125 539.984375 L 527.714844 542.113281 L 528.207031 544.230469 L 528.675781 546.335938 L 529.125 548.429688 L 529.550781 550.515625 L 529.957031 552.589844 L 530.339844 554.652344 L 530.703125 556.703125 L 531.042969 558.742188 L 531.363281 560.769531 L 531.660156 562.78125 L 531.9375 564.785156 L 532.191406 566.773438 L 532.425781 568.746094 L 532.640625 570.710938 L 532.832031 572.65625 L 533.003906 574.59375 L 533.152344 576.511719 L 533.28125 578.417969 L 533.390625 580.308594 L 533.476563 582.1875 L 533.542969 584.046875 L 533.585938 585.894531 L 533.613281 587.726563 L 533.617188 589.542969 L 533.597656 591.339844 L 533.5625 593.125 L 533.503906 594.890625 L 533.429688 596.640625 L 533.332031 598.375 L 533.210938 600.09375 L 533.074219 601.792969 L 532.917969 603.476563 L 532.738281 605.140625 L 532.542969 606.785156 L 532.324219 608.414063 L 532.089844 610.023438 L 531.832031 611.617188 L 531.554688 613.191406 L 531.261719 614.746094 L 530.949219 616.28125 L 530.617188 617.796875 L 530.265625 619.292969 L 529.894531 620.769531 L 529.503906 622.226563 L 529.097656 623.664063 L 528.671875 625.082031 L 528.226563 626.480469 L 527.765625 627.855469 L 527.285156 629.210938 L 526.785156 630.546875 L 526.269531 631.859375 L 525.734375 633.152344 L 525.183594 634.421875 L 524.617188 635.671875 L 524.03125 636.898438 L 523.425781 638.105469 L 522.808594 639.289063 L 522.171875 640.449219 L 521.515625 641.589844 L 520.847656 642.703125 L 520.160156 643.796875 L 519.457031 644.867188 L 518.742188 645.914063 L 518.007813 646.941406 L 517.257813 647.941406 L 516.492188 648.917969 L 515.710938 649.871094 L 514.914063 650.800781 L 514.105469 651.707031 L 513.277344 652.589844 L 512.4375 653.449219 L 511.582031 654.28125 L 510.714844 655.089844 L 509.828125 655.875 L 508.933594 656.636719 L 508.019531 657.371094 L 507.09375 658.082031 L 506.15625 658.769531 L 505.207031 659.429688 L 504.242188 660.0625 L 503.261719 660.671875 L 502.273438 661.257813 L 501.269531 661.816406 L 500.253906 662.351563 L 499.226563 662.859375 L 498.1875 663.339844 L 497.136719 663.796875 L 496.074219 664.226563 L 495 664.628906 L 493.914063 665.007813 L 492.816406 665.359375 L 491.710938 665.683594 L 490.59375 665.980469 L 489.464844 666.253906 L 488.328125 666.5 L 487.179688 666.71875 L 486.019531 666.914063 L 484.851563 667.078125 L 483.675781 667.21875 L 482.492188 667.332031 L 481.296875 667.414063 L 480.089844 667.472656 L 478.878906 667.507813 L 477.660156 667.511719 L 476.429688 667.488281 L 475.195313 667.4375 L 473.949219 667.363281 L 472.699219 667.257813 L 471.441406 667.128906 L 470.175781 666.96875 L 468.902344 666.785156 L 467.621094 666.574219 L 466.335938 666.332031 L 465.046875 666.066406 L 463.746094 665.773438 L 462.445313 665.449219 L 461.136719 665.101563 L 459.820313 664.726563 L 458.503906 664.324219 L 457.179688 663.894531 L 455.847656 663.433594 L 454.515625 662.949219 L 453.179688 662.4375 L 451.835938 661.898438 L 450.492188 661.332031 L 449.144531 660.738281 L 447.792969 660.117188 L 446.4375 659.46875 L 445.078125 658.792969 L 443.71875 658.09375 L 442.355469 657.363281 L 440.992188 656.605469 L 439.625 655.824219 L 438.257813 655.011719 L 436.886719 654.175781 L 435.515625 653.3125 L 434.140625 652.421875 L 432.769531 651.503906 L 431.394531 650.5625 L 430.019531 649.589844 L 428.644531 648.59375 L 427.269531 647.570313 L 425.894531 646.523438 L 424.523438 645.445313 L 423.148438 644.34375 L 421.777344 643.214844 L 420.40625 642.0625 L 419.035156 640.882813 L 417.667969 639.675781 L 416.300781 638.441406 L 414.933594 637.1875 L 413.574219 635.902344 L 412.210938 634.59375 L 410.855469 633.261719 L 409.5 631.902344 L 408.148438 630.515625 L 406.800781 629.105469 L 405.453125 627.671875 L 404.113281 626.214844 L 402.777344 624.730469 L 401.441406 623.222656 L 400.113281 621.6875 L 398.789063 620.128906 L 397.46875 618.546875 L 396.15625 616.941406 L 394.84375 615.3125 L 393.542969 613.660156 L 392.242188 611.984375 L 390.949219 610.28125 L 389.660156 608.558594 L 388.382813 606.8125 L 387.105469 605.039063 L 385.839844 603.246094 L 384.578125 601.429688 L 383.320313 599.59375 L 382.074219 597.730469 L 380.835938 595.847656 L 379.601563 593.941406 L 378.375 592.015625 L 377.160156 590.066406 L 375.949219 588.09375 L 374.75 586.101563 L 373.558594 584.089844 L 372.375 582.054688 L 371.199219 580 L 370.03125 577.921875 L 368.875 575.824219 L 367.726563 573.707031 L 366.589844 571.570313 L 365.460938 569.414063 L 364.34375 567.234375 L 363.234375 565.039063 L 362.136719 562.824219 L 361.046875 560.589844 L 359.96875 558.335938 L 358.902344 556.0625 L 357.847656 553.769531 L 356.800781 551.460938 L 355.769531 549.132813 L 354.746094 546.785156 L 353.734375 544.421875 L 352.734375 542.039063 L 351.746094 539.640625 L 350.773438 537.226563 L 349.808594 534.792969 L 348.855469 532.347656 L 347.917969 529.878906 L 346.992188 527.398438 L 346.078125 524.902344 L 345.175781 522.390625 L 344.285156 519.859375 L 343.410156 517.316406 L 342.550781 514.757813 L 341.699219 512.183594 L 340.863281 509.597656 L 340.042969 506.996094 L 339.234375 504.378906 L 338.441406 501.75 L 337.660156 499.105469 L 336.894531 496.449219 L 336.140625 493.78125 L 335.402344 491.097656 L 334.679688 488.402344 L 333.96875 485.695313 L 333.273438 482.976563 L 332.59375 480.246094 L 331.929688 477.503906 L 331.28125 474.75 L 330.644531 471.984375 L 330.023438 469.210938 L 329.417969 466.425781 L 328.828125 463.628906 L 328.253906 460.824219 L 327.695313 458.007813 L 327.152344 455.183594 L 326.625 452.347656 L 326.113281 449.507813 L 325.617188 446.65625 L 325.136719 443.796875 L 324.671875 440.929688 L 324.222656 438.054688 L 323.789063 435.171875 L 323.375 432.28125 L 322.972656 429.382813 L 322.589844 426.480469 L 322.222656 423.570313 L 321.871094 420.65625 L 321.535156 417.734375 L 321.214844 414.804688 L 320.914063 411.871094 L 320.628906 408.933594 L 320.359375 405.992188 L 320.109375 403.046875 L 319.871094 400.09375 L 319.652344 397.140625 L 319.449219 394.183594 L 319.265625 391.222656 L 319.097656 388.257813 L 318.945313 385.289063 L 318.808594 382.320313 L 318.691406 379.347656 L 318.589844 376.375 L 318.503906 373.398438 L 318.4375 370.421875 L 318.386719 367.445313 L 318.351563 364.46875 L 318.335938 361.488281 L 318.335938 358.511719 L 318.351563 355.53125 L 318.386719 352.554688 L 318.4375 349.578125 L 318.503906 346.601563 L 318.589844 343.625 L 318.691406 340.652344 L 318.808594 337.679688 L 318.945313 334.710938 L 319.097656 331.742188 L 319.265625 328.777344 L 319.449219 325.816406 L 319.652344 322.859375 L 319.871094 319.90625 L 320.109375 316.953125 L 320.359375 314.007813 L 320.628906 311.066406 L 320.914063 308.128906 L 321.214844 305.195313 L 321.535156 302.265625 L 321.871094 299.34375 L 322.222656 296.429688 L 322.589844 293.519531 L 322.972656 290.617188 L 323.375 287.71875 L 323.789063 284.828125 L 324.222656 281.945313 L 324.671875 279.070313 L 325.136719 276.203125 L 325.617188 273.34375 L 326.113281 270.492188 L 326.625 267.652344 L 327.152344 264.816406 L 327.695313 261.992188 L 328.253906 259.175781 L 328.828125 256.371094 L 329.417969 253.574219 L 330.023438 250.789063 L 330.644531 248.015625 L 331.28125 245.25 L 331.929688 242.496094 L 332.59375 239.753906 L 333.273438 237.023438 L 333.96875 234.304688 L 334.679688 231.597656 L 335.402344 228.902344 L 336.140625 226.21875 L 336.894531 223.550781 L 337.660156 220.894531 L 338.441406 218.25 L 339.234375 215.621094 L 340.042969 213.003906 L 340.863281 210.402344 L 341.699219 207.816406 L 342.550781 205.242188 L 343.410156 202.683594 L 344.285156 200.140625 L 345.175781 197.609375 L 346.078125 195.097656 L 346.992188 192.601563 L 347.917969 190.121094 L 348.855469 187.652344 L 349.808594 185.207031 L 350.773438 182.773438 L 351.746094 180.359375 L 352.734375 177.960938 L 353.734375 175.578125 L 354.746094 173.214844 L 355.769531 170.867188 L 356.800781 168.539063 L 357.847656 166.230469 L 358.902344 163.9375 L 359.96875 161.664063 L 361.046875 159.410156 L 362.136719 157.175781 L 363.234375 154.960938 L 364.34375 152.765625 L 365.460938 150.585938 L 366.589844 148.429688 L 367.726563 146.292969 L 368.875 144.175781 L 370.03125 142.078125 L 371.199219 140 L 372.375 137.945313 L 373.558594 135.910156 L 374.75 133.898438 L 375.949219 131.90625 L 377.160156 129.933594 L 378.375 127.984375 L 379.601563 126.058594 L 380.835938 124.152344 L 382.074219 122.269531 L 383.320313 120.40625 L 384.578125 118.570313 L 385.839844 116.753906 L 387.105469 114.960938 L 388.382813 113.1875 L 389.660156 111.441406 L 390.949219 109.71875 L 392.242188 108.015625 L 393.542969 106.339844 L 394.84375 104.6875 L 396.15625 103.058594 L 397.46875 101.453125 L 398.789063 99.871094 L 400.113281 98.3125 L 401.441406 96.777344 L 402.777344 95.269531 L 404.113281 93.785156 L 405.453125 92.328125 L 406.800781 90.894531 L 408.148438 89.484375 L 409.5 88.097656 L 410.855469 86.738281 L 412.210938 85.40625 L 413.574219 84.097656 L 414.933594 82.8125 L 416.300781 81.558594 L 417.667969 80.324219 L 419.035156 79.117188 L 420.40625 77.9375 L 421.777344 76.785156 L 423.148438 75.65625 L 424.523438 74.554688 L 425.894531 73.476563 L 427.269531 72.429688 L 428.644531 71.40625 L 430.019531 70.410156 L 431.394531 69.4375 L 432.769531 68.496094 L 434.140625 67.578125 L 435.515625 66.6875 L 436.886719 65.824219 L 438.257813 64.988281 L 439.625 64.175781 L 440.992188 63.394531 L 442.355469 62.636719 L 443.71875 61.90625 L 445.078125 61.207031 L 446.4375 60.53125 L 447.792969 59.882813 L 449.144531 59.261719 L 450.492188 58.667969 L 451.835938 58.101563 L 453.179688 57.5625 L 454.515625 57.050781 L 455.847656 56.566406 L 457.179688 56.105469 L 458.503906 55.675781 L 459.820313 55.273438 L 461.136719 54.898438 L 462.445313 54.550781 L 463.746094 54.226563 L 465.046875 53.933594 L 466.335938 53.667969 L 467.621094 53.425781 L 468.902344 53.214844 L 470.175781 53.03125 L 471.441406 52.871094 L 472.699219 52.742188 L 473.949219 52.636719 L 475.195313 52.5625 L 476.429688 52.511719 L 477.660156 52.488281 L 478.878906 52.492188 L 480.089844 52.527344 L 481.296875 52.585938 L 482.492188 52.667969 L 483.675781 52.78125 L 484.851563 52.921875 L 486.019531 53.085938 L 487.179688 53.28125 L 488.328125 53.5 L 489.464844 53.746094 L 490.59375 54.019531 L 491.710938 54.316406 L 492.816406 54.640625 L 493.914063 54.992188 L 495 55.371094 L 496.074219 55.773438 L 497.136719 56.203125 L 498.1875 56.660156 L 499.226563 57.140625 L 500.253906 57.648438 L 501.269531 58.183594 L 502.273438 58.742188 L 503.261719 59.328125 L 504.242188 59.9375 L 505.207031 60.570313 L 506.15625 61.230469 L 507.09375 61.917969 L 508.019531 62.628906 L 508.933594 63.363281 L 509.828125 64.125 L 510.714844 64.910156 L 511.582031 65.71875 L 512.4375 66.550781 L 513.277344 67.410156 L 514.105469 68.292969 L 514.914063 69.199219 L 515.710938 70.128906 L 516.492188 71.082031 L 517.257813 72.058594 L 518.007813 73.058594 L 518.742188 74.085938 L 519.457031 75.132813 L 520.160156 76.203125 L 520.847656 77.296875 L 521.515625 78.410156 L 522.171875 79.550781 L 522.808594 80.710938 L 523.425781 81.894531 L 524.03125 83.101563 L 524.617188 84.328125 L 525.183594 85.578125 L 525.734375 86.847656 L 526.269531 88.140625 L 526.785156 89.453125 L 527.285156 90.789063 L 527.765625 92.144531 L 528.226563 93.519531 L 528.671875 94.917969 L 529.097656 96.335938 L 529.503906 97.773438 L 529.894531 99.230469 L 530.265625 100.707031 L 530.617188 102.203125 L 530.949219 103.71875 L 531.261719 105.253906 L 531.554688 106.808594 L 531.832031 108.382813 L 532.089844 109.976563 L 532.324219 111.585938 L 532.542969 113.214844 L 532.738281 114.859375 L 532.917969 116.523438 L 533.074219 118.207031 L 533.210938 119.90625 L 533.332031 121.625 L 533.429688 123.359375 L 533.503906 125.109375 L 533.5625 126.875 L 533.597656 128.660156 L 533.617188 130.457031 L 533.613281 132.273438 L 533.585938 134.105469 L 533.542969 135.953125 L 533.476563 137.8125 L 533.390625 139.691406 L 533.28125 141.582031 L 533.152344 143.488281 L 533.003906 145.40625 L 532.832031 147.34375 L 532.640625 149.289063 L 532.425781 151.253906 L 532.191406 153.226563 L 531.9375 155.214844 L 531.660156 157.21875 L 531.363281 159.230469 L 531.042969 161.257813 L 530.703125 163.296875 L 530.339844 165.347656 L 529.957031 167.410156 L 529.550781 169.484375 L 529.125 171.570313 L 528.675781 173.664063 L 528.207031 175.769531 L 527.714844 177.886719 L 527.203125 180.015625 L 526.667969 182.152344 L 526.113281 184.300781 L 525.535156 186.457031 L 524.933594 188.621094 L 524.3125 190.796875 L 523.671875 192.980469 L 523.007813 195.171875 L 522.320313 197.371094 L 521.613281 199.578125 L 520.882813 201.796875 L 520.132813 204.019531 L 519.359375 206.25 L 518.566406 208.484375 L 517.75 210.730469 L 516.914063 212.980469 L 516.054688 215.238281 L 515.175781 217.5 L 514.273438 219.765625 L 513.351563 222.039063 L 512.410156 224.320313 L 511.445313 226.601563 L 510.457031 228.890625 L 509.449219 231.183594 L 508.421875 233.480469 L 507.371094 235.78125 L 506.300781 238.085938 L 505.207031 240.390625 L 504.09375 242.703125 L 502.960938 245.015625 L 501.808594 247.332031 L 500.632813 249.648438 L 499.4375 251.96875 L 498.21875 254.292969 L 496.984375 256.617188 L 495.726563 258.941406 L 494.449219 261.265625 L 493.148438 263.59375 L 491.832031 265.917969 L 490.492188 268.246094 L 489.136719 270.574219 L 487.757813 272.902344 L 486.359375 275.226563 L 484.941406 277.554688 L 483.503906 279.878906 L 482.046875 282.199219 L 480.574219 284.523438 L 479.078125 286.84375 L 477.5625 289.160156 L 476.03125 291.476563 L 474.476563 293.789063 L 472.90625 296.101563 L 471.316406 298.40625 L 469.707031 300.710938 L 468.082031 303.011719 L 466.433594 305.308594 L 464.773438 307.601563 L 463.089844 309.890625 L 461.390625 312.175781 L 459.675781 314.453125 L 457.9375 316.726563 L 456.1875 318.996094 L 454.417969 321.261719 L 452.628906 323.519531 L 450.828125 325.769531 L 449.007813 328.015625 L 447.167969 330.253906 L 445.316406 332.488281 L 443.445313 334.714844 L 441.558594 336.933594 L 439.65625 339.144531 L 437.738281 341.347656 L 435.804688 343.542969 L 433.851563 345.730469 L 431.886719 347.910156 L 429.90625 350.082031 L 427.910156 352.246094 L 425.902344 354.398438 L 423.875 356.542969 L 421.835938 358.679688 L 419.78125 360.804688 L 417.714844 362.921875 L 415.632813 365.027344 L 413.535156 367.121094 L 411.425781 369.207031 L 409.304688 371.28125 L 407.167969 373.34375 L 405.019531 375.398438 L 402.859375 377.441406 L 400.683594 379.46875 L 398.5 381.488281 L 396.300781 383.496094 L 394.089844 385.492188 L 391.867188 387.472656 L 389.632813 389.441406 L 387.386719 391.402344 L 385.132813 393.34375 L 382.863281 395.277344 L 380.585938 397.195313 L 378.300781 399.101563 L 376 400.992188 L 373.691406 402.871094 L 371.375 404.734375 L 369.046875 406.585938 L 366.710938 408.421875 L 364.363281 410.242188 L 362.007813 412.050781 L 359.644531 413.84375 L 357.273438 415.621094 L 354.894531 417.382813 L 352.503906 419.128906 L 350.109375 420.863281 L 347.707031 422.578125 L 345.296875 424.28125 L 342.878906 425.964844 L 340.453125 427.632813 L 338.023438 429.285156 L 335.585938 430.921875 L 333.144531 432.542969 L 330.695313 434.144531 L 328.242188 435.734375 L 325.785156 437.304688 L 323.320313 438.855469 L 320.851563 440.390625 L 318.378906 441.910156 L 315.898438 443.414063 L 313.417969 444.898438 L 310.933594 446.363281 L 308.445313 447.8125 L 305.953125 449.242188 L 303.457031 450.65625 L 300.957031 452.050781 L 298.457031 453.429688 L 295.957031 454.785156 L 293.453125 456.128906 L 290.945313 457.449219 L 288.4375 458.753906 L 285.929688 460.039063 L 283.421875 461.304688 L 280.910156 462.550781 L 278.398438 463.777344 L 275.890625 464.988281 L 273.378906 466.175781 L 270.867188 467.347656 L 268.359375 468.5 L 265.851563 469.632813 L 263.34375 470.746094 L 260.839844 471.839844 L 258.335938 472.914063 L 255.832031 473.96875 L 253.332031 475 L 250.835938 476.015625 L 248.34375 477.011719 L 245.851563 477.988281 L 243.363281 478.941406 L 240.878906 479.878906 L 238.398438 480.792969 L 235.921875 481.6875 L 233.449219 482.5625 L 230.984375 483.417969 L 228.519531 484.253906 L 226.0625 485.070313 L 223.613281 485.863281 L 221.167969 486.640625 L 218.726563 487.394531 L 216.292969 488.128906 L 213.867188 488.839844 L 211.445313 489.535156 L 209.03125 490.207031 L 206.625 490.859375 L 204.226563 491.492188 L 201.835938 492.105469 L 199.457031 492.695313 L 197.082031 493.265625 L 194.714844 493.816406 L 192.359375 494.347656 L 190.011719 494.855469 L 187.675781 495.347656 L 185.34375 495.816406 L 183.027344 496.265625 L 180.71875 496.695313 L 178.421875 497.101563 L 176.132813 497.488281 L 173.855469 497.855469 L 171.59375 498.203125 L 169.339844 498.53125 L 167.097656 498.839844 L 164.867188 499.125 L 162.648438 499.394531 L 160.441406 499.640625 L 158.25 499.867188 L 156.070313 500.074219 L 153.902344 500.261719 L 151.75 500.425781 L 149.609375 500.574219 L 147.484375 500.703125 L 145.375 500.808594 L 143.277344 500.898438 L 141.195313 500.964844 L 139.125 501.015625 L 137.074219 501.042969 L 135.035156 501.054688 L 133.015625 501.046875 L 131.007813 501.015625 L 129.019531 500.96875 L 127.042969 500.902344 L 125.085938 500.816406 L 123.148438 500.710938 L 121.222656 500.589844 L 119.316406 500.445313 L 117.425781 500.285156 L 115.554688 500.105469 L 113.703125 499.910156 L 111.867188 499.691406 L 110.046875 499.457031 L 108.25 499.207031 L 106.46875 498.933594 L 104.707031 498.644531 L 102.964844 498.339844 L 101.242188 498.015625 L 99.535156 497.671875 L 97.851563 497.3125 L 96.1875 496.9375 L 94.542969 496.542969 L 92.917969 496.132813 L 91.316406 495.703125 L 89.730469 495.257813 L 88.167969 494.796875 L 86.628906 494.320313 L 85.109375 493.824219 L 83.609375 493.3125 L 82.132813 492.785156 L 80.675781 492.242188 L 79.242188 491.679688 L 77.832031 491.105469 L 76.441406 490.515625 L 75.074219 489.90625 L 73.730469 489.285156 L 72.410156 488.648438 L 71.113281 487.996094 L 69.835938 487.328125 L 68.585938 486.648438 L 67.355469 485.953125 L 66.148438 485.238281 L 64.96875 484.515625 L 63.8125 483.777344 L 62.675781 483.023438 L 61.566406 482.253906 L 60.480469 481.472656 L 59.421875 480.679688 L 58.386719 479.871094 L 57.375 479.050781 L 56.386719 478.21875 L 55.425781 477.371094 L 54.488281 476.511719 L 53.574219 475.640625 L 52.691406 474.757813 L 51.828125 473.863281 L 50.992188 472.957031 L 50.183594 472.035156 L 49.398438 471.105469 L 48.640625 470.164063 L 47.910156 469.210938 L 47.203125 468.246094 L 46.523438 467.273438 L 45.871094 466.285156 L 45.242188 465.292969 L 44.644531 464.285156 L 44.070313 463.269531 L 43.519531 462.242188 L 43 461.207031 L 42.507813 460.164063 L 42.039063 459.109375 L 41.601563 458.046875 L 41.1875 456.976563 L 40.800781 455.894531 L 40.441406 454.808594 L 40.109375 453.710938 L 39.804688 452.605469 L 39.53125 451.492188 L 39.28125 450.375 L 39.058594 449.246094 L 38.863281 448.113281 L 38.699219 446.96875 L 38.558594 445.824219 L 38.445313 444.667969 L 38.363281 443.507813 L 38.304688 442.339844 L 38.277344 441.167969 L 38.277344 439.988281 L 38.304688 438.804688 L 38.359375 437.613281 L 38.441406 436.417969 L 38.554688 435.21875 L 38.691406 434.015625 L 38.859375 432.808594 L 39.050781 431.597656 L 39.273438 430.378906 L 39.523438 429.160156 L 39.804688 427.9375 L 40.109375 426.707031 L 40.441406 425.476563 L 40.804688 424.246094 L 41.195313 423.007813 L 41.613281 421.773438 L 42.058594 420.53125 L 42.53125 419.289063 L 43.03125 418.042969 L 43.5625 416.796875 L 44.117188 415.550781 L 44.703125 414.304688 L 45.3125 413.054688 L 45.953125 411.804688 L 46.621094 410.554688 L 47.316406 409.304688 L 48.039063 408.050781 L 48.789063 406.800781 L 49.5625 405.550781 L 50.367188 404.300781 L 51.199219 403.050781 L 52.058594 401.804688 L 52.945313 400.558594 L 53.859375 399.3125 L 54.800781 398.070313 L 55.765625 396.828125 L 56.761719 395.585938 L 57.78125 394.351563 L 58.828125 393.117188 L 59.902344 391.882813 L 61.003906 390.652344 L 62.132813 389.429688 L 63.285156 388.207031 L 64.464844 386.984375 L 65.671875 385.769531 L 66.902344 384.558594 L 68.160156 383.351563 L 69.445313 382.148438 L 70.753906 380.949219 L 72.089844 379.757813 L 73.453125 378.566406 L 74.835938 377.386719 L 76.25 376.207031 L 77.6875 375.035156 L 79.148438 373.867188 L 80.632813 372.707031 L 82.144531 371.550781 L 83.679688 370.40625 L 85.242188 369.261719 L 86.828125 368.128906 L 88.4375 367 L 90.070313 365.878906 L 91.726563 364.765625 L 93.40625 363.660156 L 95.109375 362.5625 L 96.839844 361.472656 L 98.589844 360.390625 L 100.363281 359.316406 L 102.160156 358.253906 L 103.980469 357.195313 L 105.824219 356.148438 L 107.691406 355.109375 L 109.578125 354.078125 L 111.488281 353.058594 L 113.417969 352.046875 L 115.371094 351.046875 L 117.347656 350.058594 L 119.34375 349.074219 L 121.363281 348.105469 L 123.402344 347.144531 L 125.460938 346.195313 L 127.539063 345.253906 L 129.640625 344.328125 L 131.761719 343.410156 L 133.902344 342.503906 L 136.066406 341.609375 L 138.246094 340.726563 L 140.445313 339.855469 L 142.664063 338.996094 L 144.902344 338.148438 L 147.160156 337.3125 L 149.4375 336.488281 L 151.730469 335.675781 L 154.042969 334.878906 L 156.375 334.09375 L 158.722656 333.320313 L 161.089844 332.558594 L 163.472656 331.8125 L 165.871094 331.078125 L 168.289063 330.359375 L 170.722656 329.652344 L 173.171875 328.957031 L 175.636719 328.277344 L 178.121094 327.613281 L 180.617188 326.960938 L 183.132813 326.324219 L 185.660156 325.699219 L 188.203125 325.089844 L 190.761719 324.496094 L 193.332031 323.914063 L 195.921875 323.351563 L 198.519531 322.800781 L 201.136719 322.261719 L 203.761719 321.742188 L 206.402344 321.238281 L 209.058594 320.746094 L 211.726563 320.269531 L 214.402344 319.8125 L 217.09375 319.367188 L 219.800781 318.9375 L 222.515625 318.523438 L 225.242188 318.125 L 227.976563 317.742188 L 230.726563 317.378906 L 233.484375 317.027344 L 236.253906 316.691406 L 239.035156 316.375 L 241.824219 316.074219 L 244.621094 315.785156 L 247.429688 315.515625 L 250.25 315.265625 L 253.074219 315.027344 L 255.910156 314.804688 L 258.75 314.601563 L 261.601563 314.414063 L 264.460938 314.246094 L 267.324219 314.089844 L 270.199219 313.953125 L 273.078125 313.832031 L 275.964844 313.726563 L 278.855469 313.640625 L 281.753906 313.570313 L 284.660156 313.519531 L 287.566406 313.480469 L 290.484375 313.460938 L 293.402344 313.460938 L 296.324219 313.472656 L 299.253906 313.503906 L 302.1875 313.554688 L 305.121094 313.621094 L 308.0625 313.703125 L 311.003906 313.800781 L 313.949219 313.917969 L 316.898438 314.050781 L 319.847656 314.203125 L 322.800781 314.371094 L 325.753906 314.554688 L 328.710938 314.757813 L 331.667969 314.976563 L 334.625 315.214844 L 337.582031 315.46875 L 340.542969 315.738281 L 343.5 316.023438 L 346.457031 316.328125 L 349.417969 316.648438 L 352.375 316.988281 L 355.328125 317.34375 L 358.285156 317.714844 L 361.234375 318.105469 L 364.1875 318.511719 L 367.136719 318.933594 L 370.082031 319.371094 L 373.023438 319.828125 L 375.964844 320.300781 L 378.902344 320.789063 L 381.835938 321.292969 L 384.765625 321.816406 L 387.691406 322.355469 L 390.609375 322.910156 L 393.527344 323.480469 L 396.4375 324.070313 L 399.34375 324.671875 L 402.242188 325.292969 L 405.136719 325.929688 L 408.023438 326.578125 L 410.90625 327.246094 L 413.777344 327.929688 L 416.648438 328.628906 L 419.507813 329.34375 L 422.359375 330.074219 L 425.207031 330.820313 L 428.042969 331.582031 L 430.871094 332.359375 L 433.691406 333.152344 L 436.503906 333.960938 L 439.304688 334.78125 L 442.097656 335.617188 L 444.878906 336.46875 L 447.652344 337.335938 L 450.417969 338.21875 L 453.167969 339.113281 L 455.910156 340.023438 L 458.640625 340.949219 L 461.359375 341.886719 L 464.070313 342.839844 L 466.765625 343.804688 L 469.449219 344.785156 L 472.121094 345.78125 L 474.78125 346.789063 L 477.429688 347.808594 L 480.0625 348.84375 L 482.683594 349.890625 L 485.292969 350.953125 L 487.886719 352.023438 L 490.464844 353.109375 L 493.03125 354.210938 L 495.582031 355.320313 L 498.121094 356.445313 L 500.640625 357.582031 L 503.148438 358.726563 L 505.640625 359.886719 L 508.117188 361.058594 L 510.574219 362.242188 L 513.019531 363.4375 L 515.445313 364.640625 L 517.859375 365.859375 L 520.253906 367.085938 L 522.628906 368.324219 L 524.992188 369.570313 L 527.335938 370.832031 L 529.660156 372.101563 L 531.96875 373.378906 L 534.257813 374.667969 L 536.53125 375.96875 L 538.785156 377.277344 L 541.019531 378.597656 L 543.234375 379.921875 L 545.433594 381.261719 L 547.613281 382.605469 L 549.769531 383.960938 L 551.910156 385.320313 L 554.03125 386.691406 L 556.128906 388.070313 L 558.210938 389.457031 L 560.269531 390.851563 L 562.308594 392.253906 L 564.328125 393.664063 L 566.324219 395.078125 L 568.300781 396.503906 L 570.257813 397.933594 L 572.191406 399.371094 L 574.105469 400.8125 L 575.996094 402.261719 L 577.863281 403.714844 L 579.710938 405.175781 L 581.539063 406.644531 L 583.339844 408.117188 L 585.121094 409.59375 L 586.878906 411.074219 L 588.613281 412.558594 L 590.328125 414.050781 L 592.019531 415.546875 L 593.683594 417.046875 L 595.328125 418.546875 L 596.949219 420.054688 L 598.542969 421.566406 L 600.117188 423.078125 L 601.667969 424.59375 L 603.191406 426.113281 L 604.695313 427.636719 L 606.171875 429.160156 L 607.625 430.6875 L 609.054688 432.214844 L 610.457031 433.746094 L 611.839844 435.277344 L 613.191406 436.808594 L 614.523438 438.34375 L 615.828125 439.875 L 617.109375 441.410156 L 618.367188 442.945313 L 619.597656 444.480469 L 620.800781 446.015625 L 621.984375 447.550781 L 623.136719 449.085938 L 624.265625 450.621094 L 625.371094 452.152344 L 626.449219 453.683594 L 627.503906 455.214844 L 628.53125 456.742188 L 629.53125 458.269531 L 630.507813 459.792969 L 631.457031 461.316406 L 632.378906 462.835938 L 633.277344 464.351563 L 634.148438 465.863281 L 634.996094 467.375 L 635.816406 468.882813 L 636.609375 470.382813 L 637.375 471.882813 L 638.117188 473.378906 L 638.832031 474.867188 L 639.519531 476.355469 L 640.179688 477.835938 L 640.816406 479.3125 L 641.425781 480.78125 L 642.007813 482.246094 L 642.566406 483.707031 L 643.097656 485.160156 L 643.601563 486.605469 L 644.078125 488.046875 L 644.527344 489.480469 L 644.953125 490.90625 L 645.351563 492.328125 L 645.722656 493.738281 L 646.070313 495.144531 L 646.386719 496.542969 L 646.679688 497.929688 L 646.945313 499.3125 L 647.1875 500.683594 L 647.402344 502.046875 L 647.589844 503.402344 L 647.75 504.75 L 647.882813 506.085938 L 647.992188 507.414063 L 648.074219 508.730469 L 648.132813 510.039063 L 648.164063 511.335938 L 648.167969 512.621094 L 648.144531 513.898438 L 648.097656 515.164063 L 648.023438 516.417969 L 647.925781 517.664063 L 647.800781 518.894531 L 647.652344 520.113281 L 647.476563 521.324219 L 647.273438 522.519531 L 647.046875 523.703125 L 646.792969 524.875 L 646.515625 526.035156 L 646.214844 527.179688 L 645.886719 528.3125 L 645.53125 529.433594 L 645.152344 530.539063 L 644.75 531.632813 L 644.324219 532.710938 L 643.871094 533.777344 L 643.394531 534.828125 L 642.890625 535.863281 L 642.363281 536.886719 L 641.816406 537.894531 L 641.238281 538.886719 L 640.640625 539.863281 L 640.019531 540.824219 L 639.371094 541.769531 L 638.703125 542.699219 L 638.007813 543.613281 L 637.289063 544.515625 L 636.550781 545.394531 L 635.785156 546.261719 L 635 547.113281 L 634.1875 547.945313 L 633.355469 548.761719 L 632.5 549.558594 L 631.621094 550.339844 L 630.722656 551.105469 L 629.800781 551.851563 L 628.855469 552.582031 L 627.886719 553.292969 L 626.898438 553.988281 L 625.886719 554.664063 L 624.855469 555.320313 L 623.804688 555.957031 L 622.730469 556.578125 L 621.632813 557.179688 L 620.515625 557.761719 L 619.378906 558.328125 L 618.222656 558.871094 L 617.042969 559.394531 L 615.84375 559.902344 L 614.628906 560.386719 L 613.390625 560.855469 L 612.132813 561.300781 L 610.855469 561.730469 L 609.558594 562.136719 L 608.242188 562.523438 L 606.90625 562.890625 L 605.554688 563.234375 L 604.183594 563.5625 L 602.792969 563.867188 L 601.382813 564.152344 L 599.957031 564.414063 L 598.511719 564.660156 L 597.050781 564.878906 L 595.570313 565.082031 L 594.074219 565.261719 L 592.5625 565.417969 L 591.03125 565.554688 L 589.484375 565.671875 L 587.921875 565.765625 L 586.34375 565.835938 L 584.746094 565.886719 L 583.136719 565.917969 L 581.511719 565.925781 L 579.867188 565.910156 L 578.210938 565.871094 L 576.539063 565.8125 L 574.855469 565.730469 L 573.152344 565.628906 L 571.4375 565.503906 L 569.710938 565.355469 L 567.96875 565.183594 L 566.210938 564.992188 L 564.441406 564.777344 L 562.660156 564.539063 L 560.863281 564.277344 L 559.058594 563.996094 L 557.238281 563.691406 L 555.40625 563.363281 L 553.558594 563.011719 L 551.703125 562.636719 L 549.835938 562.238281 L 547.957031 561.820313 L 546.070313 561.378906 L 544.167969 560.914063 L 542.257813 560.425781 L 540.335938 559.914063 L 538.40625 559.382813 L 536.464844 558.824219 L 534.515625 558.246094 L 532.554688 557.640625 L 530.585938 557.015625 L 528.609375 556.367188 L 526.625 555.699219 L 524.628906 555.003906 L 522.628906 554.285156 L 520.617188 553.546875 L 518.597656 552.785156 L 516.574219 552 L 514.542969 551.191406 L 512.503906 550.359375 L 510.457031 549.503906 L 508.40625 548.628906 L 506.347656 547.726563 L 504.285156 546.804688 L 502.214844 545.863281 L 500.140625 544.894531 L 498.0625 543.902344 L 495.976563 542.890625 L 493.886719 541.855469 L 491.796875 540.800781 L 489.699219 539.71875 L 487.597656 538.617188 L 485.492188 537.492188 L 483.382813 536.347656 L 481.273438 535.175781 L 479.160156 533.984375 L 477.042969 532.773438 L 474.921875 531.539063 L 472.800781 530.28125 L 470.679688 529.003906 L 468.554688 527.703125 L 466.429688 526.382813 L 464.300781 525.039063 L 462.175781 523.675781 L 460.046875 522.289063 L 457.917969 520.882813 L 455.789063 519.453125 L 453.660156 518.003906 L 451.535156 516.53125 L 449.40625 515.042969 L 447.28125 513.53125 L 445.15625 511.996094 L 443.03125 510.445313 L 440.910156 508.871094 L 438.789063 507.277344 L 436.667969 505.664063 L 434.554688 504.027344 L 432.441406 502.375 L 430.328125 500.703125 L 428.222656 499.007813 L 426.117188 497.296875 L 424.015625 495.5625 L 421.921875 493.8125 L 419.828125 492.039063 L 417.738281 490.25 L 415.65625 488.441406 L 413.574219 486.613281 L 411.5 484.769531 L 409.433594 482.90625 L 407.367188 481.023438 L 405.3125 479.121094 L 403.257813 477.203125 L 401.210938 475.265625 L 399.171875 473.3125 L 397.140625 471.34375 L 395.113281 469.355469 L 393.09375 467.347656 L 391.082031 465.324219 L 389.074219 463.285156 L 387.078125 461.230469 L 385.089844 459.160156 L 383.109375 457.070313 L 381.136719 454.964844 L 379.171875 452.847656 L 377.214844 450.710938 L 375.265625 448.558594 L 373.328125 446.390625 L 371.402344 444.210938 L 369.480469 442.011719 L 367.574219 439.800781 L 365.671875 437.578125 L 363.785156 435.335938 L 361.90625 433.082031 L 360.039063 430.8125 L 358.179688 428.53125 L 356.332031 426.238281 L 354.496094 423.929688 L 352.671875 421.605469 L 350.859375 419.273438 L 349.058594 416.925781 L 347.269531 414.566406 L 345.492188 412.195313 L 343.726563 409.8125 L 341.976563 407.414063 L 340.234375 405.007813 L 338.507813 402.589844 L 336.792969 400.160156 L 335.089844 397.722656 L 333.402344 395.273438 L 331.730469 392.8125 L 330.066406 390.339844 L 328.421875 387.859375 L 326.785156 385.367188 L 325.167969 382.867188 L 323.5625 380.359375 L 321.972656 377.839844 L 320.394531 375.3125 L 318.832031 372.777344 L 317.285156 370.234375 L 315.753906 367.683594 L 314.238281 365.125 L 312.738281 362.558594 L 311.25 359.984375 L 309.78125 357.402344 L 308.324219 354.816406 L 306.886719 352.222656 L 305.460938 349.621094 L 304.054688 347.015625 L 302.664063 344.402344 L 301.289063 341.785156 L 299.929688 339.164063 L 298.589844 336.539063 L 297.261719 333.90625 L 295.953125 331.269531 L 294.664063 328.628906 L 293.386719 325.984375 L 292.132813 323.335938 L 290.890625 320.683594 L 289.667969 318.03125 L 288.460938 315.371094 L 287.273438 312.710938 L 286.101563 310.050781 L 284.949219 307.386719 L 283.816406 304.71875 L 282.695313 302.050781 L 281.597656 299.382813 L 280.515625 296.714844 L 279.453125 294.042969 L 278.40625 291.375 L 277.378906 288.703125 L 276.371094 286.03125 L 275.382813 283.359375 L 274.410156 280.691406 L 273.457031 278.023438 L 272.519531 275.355469 L 271.605469 272.6875 L 270.707031 270.023438 L 269.828125 267.363281 L 268.96875 264.703125 L 268.125 262.046875 L 267.304688 259.390625 L 266.5 256.738281 L 265.714844 254.09375 L 264.949219 251.449219 L 264.203125 248.808594 L 263.476563 246.171875 L 262.769531 243.539063 L 262.078125 240.914063 L 261.410156 238.289063 L 260.757813 235.675781 L 260.125 233.0625 L 259.515625 230.457031 L 258.921875 227.859375 L 258.347656 225.265625 L 257.792969 222.679688 L 257.253906 220.101563 L 256.738281 217.527344 L 256.242188 214.964844 L 255.765625 212.40625 L 255.304688 209.859375 L 254.867188 207.320313 L 254.445313 204.785156 L 254.042969 202.261719 L 253.664063 199.75 L 253.300781 197.246094 L 252.957031 194.75 L 252.632813 192.265625 L 252.328125 189.789063 L 252.039063 187.324219 L 251.773438 184.871094 L 251.523438 182.425781 L 251.296875 179.996094 L 251.085938 177.574219 L 250.894531 175.164063 L 250.722656 172.765625 L 250.570313 170.382813 L 250.433594 168.007813 L 250.316406 165.648438 L 250.21875 163.304688 L 250.140625 160.96875 L 250.082031 158.648438 L 250.039063 156.34375 L 250.015625 154.050781 L 250.011719 151.769531 L 250.023438 149.507813 L 250.054688 147.257813 L 250.105469 145.023438 L 250.175781 142.800781 L 250.261719 140.597656 L 250.363281 138.410156 L 250.484375 136.238281 L 250.625 134.082031 L 250.78125 131.941406 L 250.957031 129.816406 L 251.148438 127.710938 L 251.359375 125.621094 L 251.585938 123.546875 L 251.832031 121.492188 L 252.09375 119.453125 L 252.371094 117.433594 L 252.664063 115.433594 L 252.976563 113.449219 L 253.304688 111.484375 L 253.652344 109.539063 L 254.015625 107.613281 L 254.390625 105.703125 L 254.785156 103.816406 L 255.195313 101.949219 L 255.625 100.097656 L 256.066406 98.269531 L 256.523438 96.460938 L 257 94.671875 L 257.488281 92.90625 L 257.992188 91.160156 L 258.511719 89.433594 L 259.046875 87.726563 L 259.597656 86.042969 L 260.164063 84.382813 L 260.742188 82.742188 L 261.335938 81.125 L 261.945313 79.527344 L 262.566406 77.953125 L 263.203125 76.402344 L 263.855469 74.875 L 264.519531 73.371094 L 265.199219 71.886719 L 265.890625 70.425781 L 266.59375 68.992188 L 267.3125 67.578125 L 268.042969 66.1875 L 268.789063 64.824219 L 269.546875 63.480469 L 270.316406 62.164063 L 271.097656 60.871094 L 271.890625 59.601563 L 272.695313 58.359375 L 273.515625 57.136719 L 274.34375 55.945313 L 275.183594 54.773438 L 276.035156 53.628906 L 276.898438 52.511719 L 277.773438 51.414063 L 278.660156 50.347656 L 279.554688 49.304688 L 280.460938 48.285156 L 281.375 47.296875 L 282.304688 46.328125 L 283.238281 45.390625 L 284.183594 44.476563 L 285.140625 43.589844 L 286.105469 42.730469 L 287.078125 41.894531 L 288.0625 41.085938 L 289.054688 40.308594 L 290.054688 39.554688 L 291.0625 38.824219 L 292.078125 38.125 L 293.101563 37.453125 L 294.132813 36.804688 L 295.171875 36.1875 L 296.21875 35.597656 L 297.273438 35.03125 L 298.335938 34.496094 L 299.402344 33.988281 L 300.476563 33.503906 L 301.558594 33.050781 L 302.644531 32.625 L 303.738281 32.226563 L 304.835938 31.855469 L 305.9375 31.511719 L 307.046875 31.199219 L 308.160156 30.910156 L 309.28125 30.652344 L 310.40625 30.421875 L 311.53125 30.21875 L 312.664063 30.042969 L 313.800781 29.898438 L 314.941406 29.78125 L 316.085938 29.691406 L 317.230469 29.628906 L 318.382813 29.59375 L 319.535156 29.589844 L 320.691406 29.613281 L 321.851563 29.664063 L 323.011719 29.742188 L 324.175781 29.851563 L 325.339844 29.988281 L 326.507813 30.152344 L 327.675781 30.34375 L 328.84375 30.566406 L 330.015625 30.816406 L 331.183594 31.09375 L 332.355469 31.398438 L 333.53125 31.734375 L 334.703125 32.097656 L 335.875 32.488281 L 337.046875 32.90625 L 338.21875 33.351563 L 339.390625 33.828125 L 340.558594 34.328125 L 341.726563 34.859375 L 342.894531 35.421875 L 344.0625 36.007813 L 345.226563 36.621094 L 346.390625 37.265625 L 347.550781 37.933594 L 348.707031 38.632813 L 349.863281 39.359375 L 351.015625 40.113281 L 352.167969 40.894531 L 353.3125 41.703125 L 354.457031 42.539063 L 355.59375 43.402344 L 356.730469 44.292969 L 357.863281 45.210938 L 358.988281 46.152344 L 360.113281 47.125 L 361.230469 48.125 L 362.34375 49.148438 L 363.453125 50.203125 L 364.554688 51.28125 L 365.652344 52.386719 L 366.746094 53.519531 L 367.832031 54.675781 L 368.910156 55.859375 L 369.984375 57.070313 L 371.054688 58.308594 L 372.113281 59.570313 L 373.167969 60.855469 L 374.214844 62.171875 L 375.253906 63.511719 L 376.285156 64.875 L 377.308594 66.265625 L 378.328125 67.679688 L 379.335938 69.117188 L 380.335938 70.582031 L 381.328125 72.074219 L 382.3125 73.585938 L 383.285156 75.125 L 384.253906 76.6875 L 385.210938 78.273438 L 386.15625 79.886719 L 387.09375 81.519531 L 388.023438 83.175781 L 388.941406 84.859375 L 389.851563 86.5625 L 390.75 88.292969 L 391.636719 90.042969 L 392.515625 91.816406 L 393.382813 93.613281 L 394.238281 95.433594 L 395.085938 97.273438 L 395.917969 99.136719 L 396.742188 101.023438 L 397.550781 102.929688 L 398.351563 104.859375 L 399.140625 106.808594 L 399.914063 108.78125 L 400.679688 110.773438 L 401.429688 112.785156 L 402.171875 114.820313 L 402.898438 116.871094 L 403.609375 118.945313 L 404.3125 121.042969 L 405 123.15625 L 405.675781 125.289063 L 406.335938 127.441406 L 406.984375 129.613281 L 407.621094 131.804688 L 408.242188 134.015625 L 408.847656 136.242188 L 409.441406 138.488281 L 410.019531 140.753906 L 410.585938 143.039063 L 411.136719 145.335938 L 411.671875 147.65625 L 412.195313 149.988281 L 412.703125 152.34375 L 413.195313 154.710938 L 413.671875 157.09375 L 414.136719 159.496094 L 414.582031 161.914063 L 415.015625 164.347656 L 415.433594 166.792969 L 415.835938 169.257813 L 416.21875 171.738281 L 416.589844 174.230469 L 416.945313 176.738281 L 417.285156 179.261719 L 417.609375 181.796875 L 417.914063 184.347656 L 418.207031 186.910156 L 418.480469 189.488281 L 418.738281 192.078125 L 418.980469 194.683594 L 419.207031 197.296875 L 419.417969 199.925781 L 419.609375 202.566406 L 419.789063 205.21875 L 419.949219 207.878906 L 420.089844 210.554688 L 420.21875 213.238281 L 420.328125 215.933594 L 420.417969 218.640625 L 420.496094 221.359375 L 420.554688 224.085938 L 420.59375 226.820313 L 420.621094 229.566406 L 420.625 232.320313 L 420.617188 235.082031 L 420.589844 237.855469 L 420.546875 240.636719 L 420.484375 243.425781 L 420.40625 246.21875 L 420.308594 249.023438 L 420.195313 251.832031 L 420.0625 254.652344 L 419.914063 257.476563 L 419.75 260.304688 L 419.566406 263.140625 L 419.363281 265.984375 L 419.144531 268.832031 L 418.910156 271.683594 L 418.65625 274.542969 L 418.382813 277.40625 L 418.09375 280.273438 L 417.789063 283.144531 L 417.464844 286.019531 L 417.125 288.898438 L 416.765625 291.777344 L 416.386719 294.664063 L 415.996094 297.550781 L 415.582031 300.441406 L 415.152344 303.332031 L 414.707031 306.226563 L 414.242188 309.121094 L 413.761719 312.019531 L 413.265625 314.914063 L 412.75 317.8125 L 412.214844 320.714844 L 411.664063 323.613281 L 411.097656 326.511719 L 410.511719 329.410156 L 409.910156 332.308594 L 409.292969 335.203125 L 408.65625 338.101563 L 408 340.992188 L 407.332031 343.886719 L 406.644531 346.777344 L 405.941406 349.664063 L 405.21875 352.550781 L 404.484375 355.429688 L 403.730469 358.308594 L 402.957031 361.1875 L 402.171875 364.058594 L 401.367188 366.925781 L 400.546875 369.789063 L 399.710938 372.648438 L 398.859375 375.503906 L 397.988281 378.351563 L 397.105469 381.195313 L 396.203125 384.03125 L 395.289063 386.863281 L 394.355469 389.691406 L 393.410156 392.507813 L 392.445313 395.320313 L 391.464844 398.128906 L 390.472656 400.925781 L 389.460938 403.714844 L 388.4375 406.5 L 387.398438 409.273438 L 386.34375 412.039063 L 385.273438 414.796875 L 384.1875 417.546875 L 383.089844 420.285156 L 381.976563 423.015625 L 380.847656 425.738281 L 379.707031 428.449219 L 378.550781 431.148438 L 377.378906 433.839844 L 376.195313 436.519531 L 374.996094 439.1875 L 373.785156 441.84375 L 372.5625 444.492188 L 371.324219 447.125 L 370.074219 449.75 L 368.808594 452.359375 L 367.53125 454.957031 L 366.242188 457.542969 L 364.9375 460.117188 L 363.625 462.675781 L 362.296875 465.222656 L 360.957031 467.753906 L 359.605469 470.273438 L 358.242188 472.777344 L 356.867188 475.269531 L 355.480469 477.746094 L 354.082031 480.207031 L 352.675781 482.652344 L 351.253906 485.085938 L 349.824219 487.5 L 348.382813 489.902344 L 346.929688 492.285156 L 345.46875 494.652344 L 343.996094 497.007813 L 342.515625 499.34375 L 341.023438 501.660156 L 339.523438 503.964844 L 338.011719 506.25 L 336.492188 508.519531 L 334.960938 510.769531 L 333.425781 513.003906 L 331.878906 515.21875 L 330.324219 517.414063 L 328.757813 519.59375 L 327.1875 521.753906 L 325.609375 523.894531 L 324.023438 526.019531 L 322.425781 528.125 L 320.824219 530.207031 L 319.21875 532.273438 L 317.601563 534.320313 L 315.980469 536.347656 L 314.351563 538.355469 L 312.714844 540.339844 L 311.074219 542.308594 L 309.425781 544.253906 L 307.773438 546.179688 L 306.117188 548.085938 L 304.453125 549.96875 L 302.785156 551.832031 L 301.113281 553.671875 L 299.4375 555.492188 L 297.753906 557.292969 L 296.066406 559.070313 L 294.378906 560.828125 L 292.683594 562.5625 L 290.988281 564.273438 L 289.289063 565.964844 L 287.585938 567.632813 L 285.878906 569.277344 L 284.167969 570.898438 L 282.457031 572.5 L 280.746094 574.078125 L 279.03125 575.632813 L 277.3125 577.164063 L 275.59375 578.671875 L 273.875 580.15625 L 272.15625 581.621094 L 270.433594 583.058594 L 268.714844 584.472656 L 266.992188 585.863281 L 265.269531 587.230469 L 263.546875 588.574219 L 261.824219 589.894531 L 260.105469 591.191406 L 258.382813 592.464844 L 256.664063 593.710938 L 254.949219 594.933594 L 253.230469 596.132813 L 251.519531 597.308594 L 249.804688 598.457031 L 248.09375 599.585938 L 246.386719 600.683594 L 244.683594 601.761719 L 242.980469 602.8125 L 241.28125 603.839844 L 239.585938 604.839844 L 237.894531 605.820313 L 236.207031 606.769531 L 234.523438 607.699219 L 232.84375 608.601563 L 231.171875 609.476563 L 229.5 610.328125 L 227.835938 611.15625 L 226.175781 611.957031 L 224.523438 612.734375 L 222.875 613.484375 L 221.234375 614.210938 L 219.597656 614.910156 L 217.96875 615.585938 L 216.34375 616.234375 L 214.730469 616.859375 L 213.121094 617.457031 L 211.519531 618.03125 L 209.925781 618.582031 L 208.339844 619.105469 L 206.761719 619.601563 L 205.191406 620.074219 L 203.632813 620.519531 L 202.078125 620.941406 L 200.535156 621.339844 L 199.003906 621.710938 L 197.476563 622.054688 L 195.964844 622.375 L 194.457031 622.671875 L 192.964844 622.941406 L 191.480469 623.183594 L 190.003906 623.402344 L 188.542969 623.597656 L 187.089844 623.769531 L 185.648438 623.910156 L 184.21875 624.03125 L 182.800781 624.125 L 181.394531 624.195313 L 180.003906 624.238281 L 178.621094 624.257813 L 177.25 624.253906 L 175.894531 624.222656 L 174.550781 624.167969 L 173.222656 624.089844 L 171.90625 623.988281 L 170.601563 623.859375 L 169.3125 623.707031 L 168.035156 623.53125 L 166.773438 623.332031 L 165.527344 623.105469 L 164.292969 622.855469 L 163.074219 622.582031 L 161.875 622.289063 L 160.683594 621.964844 L 159.511719 621.621094 L 158.355469 621.253906 L 157.214844 620.863281 L 156.089844 620.449219 L 154.980469 620.011719 L 153.886719 619.550781 L 152.8125 619.066406 L 151.75 618.558594 L 150.707031 618.03125 L 149.683594 617.476563 L 148.671875 616.902344 L 147.683594 616.304688 L 146.707031 615.683594 L 145.753906 615.042969 L 144.8125 614.378906 L 143.894531 613.691406 L 142.992188 612.984375 L 142.109375 612.253906 L 141.242188 611.503906 L 140.398438 610.730469 L 139.570313 609.9375 L 138.761719 609.121094 L 137.972656 608.285156 L 137.203125 607.429688 L 136.453125 606.550781 L 135.722656 605.652344 L 135.011719 604.734375 L 134.320313 603.796875 L 133.648438 602.839844 L 132.996094 601.859375 L 132.367188 600.859375 L 131.757813 599.84375 L 131.167969 598.804688 L 130.601563 597.75 L 130.050781 596.671875 L 129.527344 595.578125 L 129.019531 594.464844 L 128.535156 593.332031 L 128.074219 592.183594 L 127.632813 591.015625 L 127.210938 589.828125 L 126.8125 588.625 L 126.4375 587.402344 L 126.082031 586.164063 L 125.75 584.90625 L 125.441406 583.632813 L 125.152344 582.34375 L 124.886719 581.035156 L 124.644531 579.714844 L 124.425781 578.375 L 124.226563 577.015625 L 124.050781 575.644531 L 123.898438 574.257813 L 123.769531 572.855469 L 123.664063 571.4375 L 123.582031 570.003906 L 123.519531 568.554688 L 123.484375 567.09375 L 123.46875 565.617188 L 123.480469 564.125 L 123.511719 562.617188 L 123.570313 561.097656 L 123.648438 559.566406 L 123.753906 558.019531 L 123.878906 556.460938 L 124.03125 554.890625 L 124.207031 553.304688 L 124.402344 551.707031 L 124.625 550.097656 L 124.871094 548.476563 L 125.144531 546.839844 L 125.4375 545.195313 L 125.753906 543.539063 L 126.097656 541.871094 L 126.464844 540.195313 L 126.855469 538.503906 L 127.269531 536.804688 L 127.707031 535.09375 L 128.167969 533.375 L 128.65625 531.644531 L 129.167969 529.90625 L 129.703125 528.160156 L 130.261719 526.402344 L 130.84375 524.636719 L 131.453125 522.859375 L 132.085938 521.078125 L 132.742188 519.285156 L 133.421875 517.488281 L 134.125 515.679688 L 134.855469 513.867188 L 135.605469 512.046875 L 136.382813 510.21875 L 137.183594 508.382813 L 138.007813 506.539063 L 138.859375 504.695313 L 139.730469 502.839844 L 140.628906 500.980469 L 141.550781 499.117188 L 142.492188 497.246094 L 143.460938 495.371094 L 144.457031 493.492188 L 145.472656 491.609375 L 146.511719 489.722656 L 147.574219 487.828125 L 148.664063 485.933594 L 149.773438 484.035156 L 150.90625 482.128906 L 152.066406 480.226563 L 153.246094 478.316406 L 154.449219 476.40625 L 155.679688 474.492188 L 156.929688 472.574219 L 158.203125 470.660156 L 159.5 468.738281 L 160.820313 466.820313 L 162.160156 464.898438 L 163.527344 462.976563 L 164.914063 461.054688 L 166.324219 459.128906 L 167.757813 457.207031 L 169.214844 455.28125 L 170.691406 453.359375 L 172.191406 451.4375 L 173.710938 449.515625 L 175.257813 447.59375 L 176.820313 445.675781 L 178.410156 443.757813 L 180.015625 441.839844 L 181.648438 439.925781 L 183.300781 438.015625 L 184.972656 436.105469 L 186.667969 434.199219 L 188.382813 432.296875 L 190.117188 430.394531 L 191.871094 428.496094 L 193.648438 426.601563 L 195.445313 424.714844 L 197.265625 422.828125 L 199.101563 420.945313 L 200.960938 419.070313 L 202.835938 417.195313 L 204.734375 415.328125 L 206.652344 413.464844 L 208.585938 411.609375 L 210.542969 409.757813 L 212.515625 407.914063 L 214.511719 406.074219 L 216.523438 404.238281 L 218.554688 402.414063 L 220.601563 400.59375 L 222.667969 398.78125 L 224.753906 396.972656 L 226.855469 395.175781 L 228.976563 393.382813 L 231.117188 391.601563 L 233.269531 389.824219 L 235.445313 388.058594 L 237.632813 386.296875 L 239.839844 384.546875 L 242.0625 382.804688 L 244.300781 381.074219 L 246.554688 379.347656 L 248.828125 377.632813 L 251.113281 375.929688 L 253.417969 374.234375 L 255.734375 372.550781 L 258.066406 370.875 L 260.414063 369.207031 L 262.777344 367.554688 L 265.152344 365.910156 L 267.546875 364.277344 L 269.949219 362.65625 L 272.371094 361.046875 L 274.800781 359.445313 L 277.25 357.859375 L 279.707031 356.28125 L 282.179688 354.71875 L 284.664063 353.164063 L 287.164063 351.625 L 289.671875 350.097656 L 292.195313 348.582031 L 294.726563 347.078125 L 297.273438 345.589844 L 299.828125 344.113281 L 302.398438 342.652344 L 304.976563 341.199219 L 307.566406 339.765625 L 310.164063 338.339844 L 312.773438 336.933594 L 315.394531 335.535156 L 318.023438 334.15625 L 320.660156 332.789063 L 323.308594 331.4375 L 325.964844 330.097656 L 328.628906 328.773438 L 331.304688 327.464844 L 333.984375 326.171875 L 336.675781 324.894531 L 339.371094 323.628906 L 342.074219 322.378906 L 344.785156 321.148438 L 347.503906 319.929688 L 350.230469 318.726563 L 352.960938 317.539063 L 355.699219 316.371094 L 358.441406 315.214844 L 361.191406 314.078125 L 363.941406 312.953125 L 366.703125 311.847656 L 369.464844 310.757813 L 372.234375 309.683594 L 375.003906 308.628906 L 377.78125 307.585938 L 380.5625 306.5625 L 383.34375 305.558594 L 386.128906 304.566406 L 388.917969 303.59375 L 391.710938 302.640625 L 394.503906 301.699219 L 397.300781 300.777344 L 400.097656 299.875 L 402.894531 298.988281 L 405.695313 298.117188 L 408.496094 297.265625 L 411.296875 296.429688 L 414.101563 295.613281 L 416.902344 294.816406 L 419.703125 294.035156 L 422.503906 293.269531 L 425.304688 292.523438 L 428.105469 291.796875 L 430.902344 291.085938 L 433.699219 290.394531 L 436.492188 289.71875 L 439.285156 289.0625 L 442.078125 288.425781 L 444.863281 287.804688 L 447.648438 287.203125 L 450.429688 286.621094 L 453.207031 286.054688 L 455.980469 285.507813 L 458.75 284.976563 L 461.515625 284.464844 L 464.277344 283.972656 L 467.03125 283.5 L 469.78125 283.042969 L 472.527344 282.605469 L 475.265625 282.183594 L 478 281.785156 L 480.726563 281.402344 L 483.445313 281.035156 L 486.160156 280.6875 L 488.867188 280.359375 L 491.566406 280.050781 L 494.257813 279.757813 L 496.941406 279.484375 L 499.617188 279.230469 L 502.28125 278.992188 L 504.941406 278.773438 L 507.589844 278.574219 L 510.230469 278.390625 L 512.859375 278.226563 L 515.480469 278.078125 L 518.089844 277.949219 L 520.6875 277.839844 L 523.277344 277.746094 L 525.855469 277.671875 L 528.421875 277.613281 L 530.976563 277.574219 L 533.523438 277.550781 L 536.054688 277.546875 L 538.574219 277.5625 L 541.082031 277.59375 L 543.574219 277.640625 L 546.058594 277.707031 L 548.527344 277.789063 L 550.980469 277.890625 L 553.421875 278.007813 L 555.851563 278.144531 L 558.261719 278.296875 L 560.660156 278.464844 L 563.046875 278.648438 L 565.414063 278.851563 L 567.769531 279.070313 L 570.105469 279.308594 L 572.429688 279.5625 L 574.734375 279.832031 L 577.027344 280.117188 L 579.300781 280.417969 L 581.558594 280.734375 L 583.800781 281.070313 L 586.023438 281.417969 L 588.230469 281.785156 L 590.417969 282.167969 L 592.589844 282.5625 L 594.742188 282.976563 L 596.878906 283.40625 L 598.992188 283.847656 L 601.089844 284.308594 L 603.171875 284.78125 L 605.230469 285.269531 L 607.269531 285.773438 L 609.292969 286.292969 L 611.292969 286.824219 L 613.273438 287.371094 L 615.238281 287.933594 L 617.175781 288.511719 L 619.097656 289.101563 L 620.996094 289.703125 L 622.875 290.320313 L 624.734375 290.953125 L 626.570313 291.597656 L 628.386719 292.253906 L 630.179688 292.925781 L 631.949219 293.609375 L 633.699219 294.308594 L 635.425781 295.019531 L 637.132813 295.742188 L 638.8125 296.476563 L 640.472656 297.222656 L 642.109375 297.980469 L 643.722656 298.753906 L 645.3125 299.535156 L 646.878906 300.332031 L 648.421875 301.136719 L 649.941406 301.953125 L 651.4375 302.78125 L 652.90625 303.621094 L 654.355469 304.472656 L 655.777344 305.332031 L 657.175781 306.203125 L 658.546875 307.085938 L 659.898438 307.976563 L 661.222656 308.878906 L 662.519531 309.789063 L 663.792969 310.710938 L 665.039063 311.640625 L 666.261719 312.578125 L 667.460938 313.527344 L 668.632813 314.484375 L 669.777344 315.449219 L 670.894531 316.425781 L 671.988281 317.40625 L 673.054688 318.394531 L 674.097656 319.394531 L 675.109375 320.398438 L 676.097656 321.414063 L 677.058594 322.433594 L 677.992188 323.460938 L 678.902344 324.496094 L 679.78125 325.535156 L 680.636719 326.585938 L 681.460938 327.636719 L 682.261719 328.699219 L 683.03125 329.761719 L 683.777344 330.835938 L 684.492188 331.910156 L 685.183594 332.992188 L 685.84375 334.082031 L 686.480469 335.171875 L 687.085938 336.269531 L 687.664063 337.371094 L 688.214844 338.476563 L 688.738281 339.585938 L 689.234375 340.699219 L 689.699219 341.816406 L 690.140625 342.933594 L 690.550781 344.058594 L 690.933594 345.183594 L 691.289063 346.3125 L 691.613281 347.445313 L 691.914063 348.578125 L 692.183594 349.714844 L 692.421875 350.851563 L 692.636719 351.992188 L 692.820313 353.132813 L 692.976563 354.277344 L 693.105469 355.417969 L 693.207031 356.5625 L 693.277344 357.707031 L 693.320313 358.855469 Z M 693.332031 360 "/>
  </g>
</svg>
