<?xml version="1.0" encoding="UTF-8"?>
<svg xmlns="http://www.w3.org/2000/svg" xmlns:xlink="http://www.w3.org/1999/xlink" width="100%" height="100%" viewBox="0 0 720 720" version="1.1">
  <g id="spiro_6_-1_1_80813">
    <path style=" stroke:none;fill-rule:evenodd;fill:rgb(25.490196%,41.176471%,88.235294%);fill-opacity:1;" d="M 648.675781 526.667969 L 644.84375 532.929688 L 640.710938 538.984375 L 636.289063 544.808594 L 631.597656 550.378906 L 626.664063 555.671875 L 621.507813 560.675781 L 616.152344 565.371094 L 610.621094 569.746094 L 604.945313 573.792969 L 599.152344 577.496094 L 593.269531 580.851563 L 587.324219 583.855469 L 581.347656 586.511719 L 575.363281 588.8125 L 569.40625 590.765625 L 563.503906 592.378906 L 557.679688 593.660156 L 551.960938 594.617188 L 546.375 595.265625 L 540.949219 595.617188 L 535.699219 595.695313 L 530.648438 595.515625 L 525.820313 595.101563 L 521.226563 594.472656 L 516.886719 593.652344 L 512.8125 592.667969 L 509.011719 591.546875 L 505.5 590.3125 L 502.273438 588.996094 L 499.34375 587.621094 L 496.707031 586.21875 L 494.363281 584.820313 L 492.308594 583.445313 L 490.539063 582.128906 L 489.039063 580.890625 L 487.804688 579.765625 L 486.820313 578.769531 L 486.066406 577.925781 L 485.53125 577.265625 L 485.191406 576.796875 L 485.023438 576.546875 L 485.011719 576.527344 L 485.128906 576.753906 L 485.347656 577.238281 L 485.640625 577.988281 L 485.988281 579.015625 L 486.355469 580.320313 L 486.71875 581.90625 L 487.050781 583.773438 L 487.316406 585.921875 L 487.496094 588.34375 L 487.5625 591.027344 L 487.484375 593.972656 L 487.238281 597.15625 L 486.800781 600.570313 L 486.148438 604.199219 L 485.261719 608.019531 L 484.121094 612.015625 L 482.707031 616.160156 L 481.007813 620.433594 L 479.003906 624.808594 L 476.6875 629.261719 L 474.050781 633.761719 L 471.082031 638.285156 L 467.785156 642.800781 L 464.152344 647.28125 L 460.1875 651.699219 L 455.894531 656.023438 L 451.277344 660.230469 L 446.34375 664.285156 L 441.105469 668.167969 L 435.578125 671.851563 L 429.773438 675.308594 L 423.710938 678.515625 L 417.40625 681.457031 L 410.886719 684.105469 L 404.171875 686.449219 L 397.285156 688.46875 L 390.253906 690.152344 L 383.105469 691.488281 L 375.863281 692.46875 L 368.5625 693.082031 L 361.222656 693.328125 L 353.882813 693.203125 L 346.5625 692.710938 L 339.300781 691.855469 L 332.117188 690.636719 L 325.042969 689.070313 L 318.105469 687.160156 L 311.328125 684.921875 L 304.742188 682.371094 L 298.363281 679.527344 L 292.21875 676.40625 L 286.328125 673.027344 L 280.707031 669.417969 L 275.371094 665.601563 L 270.335938 661.601563 L 265.609375 657.441406 L 261.207031 653.152344 L 257.132813 648.761719 L 253.390625 644.300781 L 249.980469 639.792969 L 246.902344 635.269531 L 244.15625 630.757813 L 241.734375 626.285156 L 239.628906 621.882813 L 237.828125 617.570313 L 236.320313 613.378906 L 235.089844 609.332031 L 234.117188 605.453125 L 233.390625 601.757813 L 232.886719 598.269531 L 232.578125 595.007813 L 232.449219 591.980469 L 232.46875 589.207031 L 232.609375 586.699219 L 232.851563 584.460938 L 233.164063 582.5 L 233.519531 580.816406 L 233.890625 579.417969 L 234.246094 578.300781 L 234.5625 577.457031 L 234.808594 576.886719 L 234.960938 576.574219 L 234.996094 576.515625 L 234.882813 576.6875 L 234.605469 577.085938 L 234.136719 577.6875 L 233.457031 578.46875 L 232.550781 579.417969 L 231.398438 580.503906 L 229.992188 581.707031 L 228.3125 583 L 226.351563 584.355469 L 224.105469 585.75 L 221.570313 587.15625 L 218.734375 588.542969 L 215.609375 589.882813 L 212.191406 591.144531 L 208.484375 592.308594 L 204.5 593.34375 L 200.246094 594.21875 L 195.738281 594.914063 L 190.984375 595.402344 L 186.007813 595.664063 L 180.824219 595.675781 L 175.453125 595.414063 L 169.917969 594.867188 L 164.238281 594.011719 L 158.449219 592.84375 L 152.566406 591.339844 L 146.625 589.503906 L 140.648438 587.316406 L 134.667969 584.78125 L 128.707031 581.894531 L 122.800781 578.652344 L 116.972656 575.066406 L 111.253906 571.132813 L 105.675781 566.867188 L 100.257813 562.277344 L 95.03125 557.371094 L 90.019531 552.171875 L 85.246094 546.695313 L 80.734375 540.953125 L 76.5 534.972656 L 72.566406 528.777344 L 68.949219 522.386719 L 65.660156 515.828125 L 62.710938 509.128906 L 60.113281 502.316406 L 57.875 495.417969 L 56 488.460938 L 54.488281 481.476563 L 53.34375 474.492188 L 52.558594 467.539063 L 52.132813 460.644531 L 52.050781 453.835938 L 52.3125 447.140625 L 52.898438 440.585938 L 53.796875 434.195313 L 54.988281 427.992188 L 56.457031 421.996094 L 58.179688 416.234375 L 60.136719 410.714844 L 62.300781 405.464844 L 64.652344 400.492188 L 67.164063 395.804688 L 69.804688 391.421875 L 72.550781 387.34375 L 75.375 383.578125 L 78.246094 380.125 L 81.132813 376.984375 L 84.015625 374.152344 L 86.859375 371.625 L 89.640625 369.394531 L 92.332031 367.449219 L 94.90625 365.78125 L 97.34375 364.367188 L 99.617188 363.199219 L 101.710938 362.253906 L 103.597656 361.511719 L 105.269531 360.953125 L 106.707031 360.546875 L 107.894531 360.277344 L 108.828125 360.113281 L 109.492188 360.03125 L 109.882813 360.003906 L 110 360 L 109.835938 359.992188 L 109.398438 359.957031 L 108.691406 359.863281 L 107.714844 359.683594 L 106.484375 359.394531 L 105.007813 358.964844 L 103.300781 358.378906 L 101.375 357.601563 L 99.25 356.621094 L 96.945313 355.414063 L 94.484375 353.960938 L 91.890625 352.246094 L 89.179688 350.253906 L 86.386719 347.972656 L 83.535156 345.398438 L 80.652344 342.515625 L 77.765625 339.320313 L 74.898438 335.816406 L 72.089844 331.996094 L 69.359375 327.867188 L 66.734375 323.433594 L 64.25 318.699219 L 61.925781 313.679688 L 59.792969 308.382813 L 57.875 302.824219 L 56.191406 297.019531 L 54.769531 290.988281 L 53.625 284.753906 L 52.777344 278.332031 L 52.246094 271.75 L 52.042969 265.035156 L 52.179688 258.210938 L 52.664063 251.304688 L 53.507813 244.34375 L 54.714844 237.359375 L 56.289063 230.378906 L 58.222656 223.429688 L 60.523438 216.542969 L 63.179688 209.746094 L 66.183594 203.070313 L 69.527344 196.535156 L 73.199219 190.175781 L 77.183594 184.015625 L 81.464844 178.074219 L 86.023438 172.375 L 90.839844 166.941406 L 95.886719 161.789063 L 101.148438 156.9375 L 106.59375 152.398438 L 112.199219 148.1875 L 117.9375 144.3125 L 123.777344 140.78125 L 129.699219 137.601563 L 135.664063 134.773438 L 141.644531 132.296875 L 147.617188 130.167969 L 153.554688 128.386719 L 159.421875 126.941406 L 165.195313 125.824219 L 170.847656 125.023438 L 176.359375 124.523438 L 181.699219 124.308594 L 186.851563 124.363281 L 191.792969 124.664063 L 196.507813 125.1875 L 200.972656 125.914063 L 205.183594 126.820313 L 209.121094 127.875 L 212.78125 129.058594 L 216.148438 130.335938 L 219.226563 131.6875 L 222.011719 133.078125 L 224.5 134.484375 L 226.699219 135.875 L 228.609375 137.222656 L 230.242188 138.5 L 231.609375 139.6875 L 232.71875 140.753906 L 233.585938 141.671875 L 234.226563 142.425781 L 234.664063 142.996094 L 234.914063 143.355469 L 235 143.492188 L 234.945313 143.390625 L 234.773438 143.039063 L 234.511719 142.421875 L 234.1875 141.53125 L 233.828125 140.367188 L 233.460938 138.921875 L 233.109375 137.195313 L 232.808594 135.1875 L 232.578125 132.902344 L 232.453125 130.347656 L 232.457031 127.53125 L 232.617188 124.464844 L 232.957031 121.164063 L 233.496094 117.640625 L 234.261719 113.914063 L 235.273438 110.003906 L 236.550781 105.929688 L 238.105469 101.71875 L 239.957031 97.390625 L 242.117188 92.972656 L 244.589844 88.492188 L 247.394531 83.976563 L 250.523438 79.453125 L 253.988281 74.953125 L 257.789063 70.5 L 261.917969 66.125 L 266.375 61.855469 L 271.152344 57.722656 L 276.238281 53.75 L 281.625 49.964844 L 287.292969 46.390625 L 293.226563 43.054688 L 299.414063 39.980469 L 305.824219 37.179688 L 312.445313 34.683594 L 319.25 32.5 L 326.210938 30.644531 L 333.304688 29.132813 L 340.503906 27.976563 L 347.78125 27.179688 L 355.105469 26.75 L 362.449219 26.6875 L 369.78125 26.996094 L 377.078125 27.671875 L 384.304688 28.707031 L 391.4375 30.101563 L 398.445313 31.84375 L 405.304688 33.917969 L 411.988281 36.3125 L 418.472656 39.015625 L 424.738281 42 L 430.757813 45.25 L 436.519531 48.746094 L 442 52.464844 L 447.1875 56.378906 L 452.066406 60.460938 L 456.632813 64.6875 L 460.871094 69.03125 L 464.78125 73.460938 L 468.359375 77.949219 L 471.601563 82.46875 L 474.511719 86.992188 L 477.09375 91.484375 L 479.359375 95.925781 L 481.308594 100.289063 L 482.964844 104.539063 L 484.332031 108.664063 L 485.429688 112.628906 L 486.273438 116.417969 L 486.886719 120.011719 L 487.289063 123.390625 L 487.507813 126.535156 L 487.558594 129.4375 L 487.476563 132.078125 L 487.277344 134.457031 L 486.996094 136.554688 L 486.660156 138.378906 L 486.296875 139.917969 L 485.929688 141.175781 L 485.589844 142.15625 L 485.304688 142.859375 L 485.101563 143.300781 L 485.003906 143.484375 L 485.039063 143.425781 L 485.234375 143.140625 L 485.605469 142.636719 L 486.175781 141.945313 L 486.96875 141.074219 L 487.992188 140.054688 L 489.273438 138.910156 L 490.8125 137.65625 L 492.632813 136.328125 L 494.734375 134.949219 L 497.125 133.546875 L 499.8125 132.148438 L 502.792969 130.78125 L 506.0625 129.476563 L 509.628906 128.257813 L 513.472656 127.15625 L 517.59375 126.199219 L 521.976563 125.410156 L 526.609375 124.8125 L 531.476563 124.4375 L 536.558594 124.296875 L 541.839844 124.421875 L 547.296875 124.824219 L 552.90625 125.523438 L 558.644531 126.53125 L 564.480469 127.867188 L 570.398438 129.535156 L 576.359375 131.546875 L 582.34375 133.90625 L 588.316406 136.621094 L 594.253906 139.683594 L 600.125 143.097656 L 605.902344 146.859375 L 611.554688 150.957031 L 617.054688 155.390625 L 622.382813 160.136719 L 627.503906 165.191406 L 632.398438 170.53125 L 637.042969 176.144531 L 641.417969 182.007813 L 645.503906 188.097656 L 649.28125 194.394531 L 652.738281 200.875 L 655.859375 207.507813 L 658.632813 214.265625 L 661.050781 221.125 L 663.105469 228.054688 L 664.800781 235.03125 L 666.128906 242.015625 L 667.09375 248.988281 L 667.699219 255.917969 L 667.949219 262.769531 L 667.859375 269.527344 L 667.433594 276.15625 L 666.691406 282.632813 L 665.644531 288.933594 L 664.3125 295.035156 L 662.714844 300.914063 L 660.871094 306.558594 L 658.804688 311.945313 L 656.542969 317.058594 L 654.109375 321.886719 L 651.53125 326.421875 L 648.832031 330.65625 L 646.042969 334.578125 L 643.195313 338.1875 L 640.3125 341.484375 L 637.421875 344.472656 L 634.558594 347.148438 L 631.742188 349.527344 L 629.003906 351.613281 L 626.367188 353.417969 L 623.855469 354.957031 L 621.5 356.246094 L 619.3125 357.300781 L 617.320313 358.140625 L 615.535156 358.789063 L 613.980469 359.269531 L 612.667969 359.601563 L 611.605469 359.816406 L 610.808594 359.933594 L 610.277344 359.988281 L 610.023438 360 L 610.046875 360 L 610.347656 360.019531 L 610.921875 360.082031 L 611.765625 360.214844 L 612.867188 360.445313 L 614.222656 360.800781 L 615.820313 361.304688 L 617.636719 361.984375 L 619.664063 362.859375 L 621.878906 363.953125 L 624.265625 365.28125 L 626.796875 366.863281 L 629.453125 368.714844 L 632.207031 370.847656 L 635.03125 373.277344 L 637.902344 376.003906 L 640.792969 379.042969 L 643.671875 382.390625 L 646.515625 386.054688 L 649.289063 390.027344 L 651.96875 394.3125 L 654.527344 398.894531 L 656.933594 403.773438 L 659.164063 408.9375 L 661.195313 414.367188 L 662.996094 420.050781 L 664.554688 425.96875 L 665.839844 432.105469 L 666.835938 438.4375 L 667.527344 444.941406 L 667.898438 451.589844 L 667.933594 458.363281 L 667.621094 465.234375 L 666.957031 472.171875 L 665.933594 479.148438 L 664.542969 486.132813 L 662.789063 493.101563 L 660.671875 500.023438 L 658.191406 506.867188 L 655.363281 513.609375 L 652.183594 520.21875 Z M 648.675781 526.667969 "/>
  </g>
</svg>
