<?xml version="1.0" encoding="UTF-8"?>
<svg xmlns="http://www.w3.org/2000/svg" xmlns:xlink="http://www.w3.org/1999/xlink" width="100%" height="100%" viewBox="0 0 720 720" version="1.1">
  <g id="spiro_3_-1_2_8999">
    <path style="fill:none;stroke-width:0.75;stroke-linecap:round;stroke-linejoin:round;stroke:rgb(25.490196%,41.176471%,88.235294%);stroke-opacity:1;stroke-miterlimit:10;" d="M 693.332031 360 L 693.292969 364.191406 L 693.175781 368.382813 L 692.976563 372.570313 L 692.699219 376.753906 L 692.34375 380.925781 L 691.910156 385.09375 L 691.398438 389.246094 L 690.808594 393.386719 L 690.140625 397.515625 L 689.394531 401.625 L 688.574219 405.71875 L 687.675781 409.792969 L 686.703125 413.84375 L 685.652344 417.871094 L 684.527344 421.875 L 683.328125 425.851563 L 682.054688 429.800781 L 680.710938 433.71875 L 679.292969 437.605469 L 677.808594 441.457031 L 676.25 445.273438 L 674.621094 449.054688 L 672.925781 452.796875 L 671.160156 456.5 L 669.332031 460.164063 L 667.433594 463.78125 L 665.472656 467.359375 L 663.449219 470.886719 L 661.363281 474.371094 L 659.21875 477.804688 L 657.011719 481.1875 L 654.746094 484.519531 L 652.421875 487.800781 L 650.042969 491.027344 L 647.609375 494.199219 L 645.121094 497.316406 L 642.582031 500.371094 L 639.992188 503.371094 L 637.355469 506.3125 L 634.667969 509.191406 L 631.9375 512.011719 L 629.160156 514.765625 L 626.339844 517.457031 L 623.476563 520.085938 L 620.574219 522.648438 L 617.636719 525.144531 L 614.660156 527.574219 L 611.648438 529.933594 L 608.601563 532.230469 L 605.527344 534.453125 L 602.421875 536.609375 L 599.285156 538.691406 L 596.125 540.707031 L 592.9375 542.648438 L 589.726563 544.519531 L 586.496094 546.316406 L 583.246094 548.042969 L 579.976563 549.699219 L 576.695313 551.277344 L 573.394531 552.785156 L 570.085938 554.21875 L 566.761719 555.578125 L 563.433594 556.867188 L 560.09375 558.078125 L 556.75 559.21875 L 553.40625 560.285156 L 550.054688 561.277344 L 546.707031 562.195313 L 543.363281 563.039063 L 540.019531 563.8125 L 536.679688 564.511719 L 533.351563 565.136719 L 530.027344 565.695313 L 526.71875 566.175781 L 523.417969 566.589844 L 520.132813 566.929688 L 516.867188 567.199219 L 513.613281 567.402344 L 510.382813 567.53125 L 507.167969 567.59375 L 503.980469 567.589844 L 500.816406 567.519531 L 497.675781 567.382813 L 494.5625 567.175781 L 491.480469 566.910156 L 488.425781 566.578125 L 485.402344 566.183594 L 482.414063 565.726563 L 479.460938 565.207031 L 476.542969 564.628906 L 473.660156 563.996094 L 470.820313 563.300781 L 468.019531 562.550781 L 465.257813 561.746094 L 462.542969 560.882813 L 459.871094 559.972656 L 457.242188 559.007813 L 454.660156 557.992188 L 452.128906 556.925781 L 449.644531 555.816406 L 447.210938 554.65625 L 444.828125 553.453125 L 442.496094 552.207031 L 440.214844 550.917969 L 437.992188 549.589844 L 435.820313 548.21875 L 433.707031 546.8125 L 431.648438 545.371094 L 429.648438 543.894531 L 427.707031 542.386719 L 425.820313 540.84375 L 423.996094 539.273438 L 422.230469 537.675781 L 420.527344 536.050781 L 418.886719 534.398438 L 417.304688 532.726563 L 415.785156 531.03125 L 414.328125 529.316406 L 412.933594 527.585938 L 411.601563 525.835938 L 410.332031 524.074219 L 409.128906 522.296875 L 407.988281 520.511719 L 406.914063 518.714844 L 405.902344 516.910156 L 404.953125 515.097656 L 404.070313 513.285156 L 403.25 511.464844 L 402.492188 509.648438 L 401.800781 507.832031 L 401.171875 506.015625 L 400.605469 504.207031 L 400.105469 502.402344 L 399.667969 500.605469 L 399.289063 498.820313 L 398.976563 497.042969 L 398.726563 495.28125 L 398.535156 493.53125 L 398.40625 491.796875 L 398.335938 490.082031 L 398.324219 488.386719 L 398.375 486.714844 L 398.480469 485.0625 L 398.648438 483.433594 L 398.871094 481.832031 L 399.148438 480.257813 L 399.480469 478.710938 L 399.871094 477.191406 L 400.3125 475.707031 L 400.804688 474.257813 L 401.351563 472.839844 L 401.949219 471.457031 L 402.59375 470.113281 L 403.289063 468.808594 L 404.027344 467.542969 L 404.816406 466.316406 L 405.648438 465.132813 L 406.523438 463.996094 L 407.445313 462.898438 L 408.402344 461.851563 L 409.402344 460.847656 L 410.441406 459.894531 L 411.519531 458.992188 L 412.628906 458.136719 L 413.773438 457.332031 L 414.953125 456.582031 L 416.164063 455.882813 L 417.40625 455.238281 L 418.671875 454.648438 L 419.96875 454.113281 L 421.289063 453.632813 L 422.636719 453.210938 L 424.003906 452.84375 L 425.390625 452.539063 L 426.800781 452.289063 L 428.222656 452.101563 L 429.664063 451.96875 L 431.117188 451.902344 L 432.585938 451.890625 L 434.0625 451.945313 L 435.550781 452.054688 L 437.046875 452.230469 L 438.546875 452.46875 L 440.050781 452.765625 L 441.558594 453.125 L 443.0625 453.546875 L 444.570313 454.03125 L 446.074219 454.578125 L 447.574219 455.1875 L 449.066406 455.855469 L 450.550781 456.589844 L 452.023438 457.382813 L 453.488281 458.242188 L 454.9375 459.160156 L 456.375 460.136719 L 457.792969 461.175781 L 459.195313 462.277344 L 460.574219 463.4375 L 461.933594 464.65625 L 463.269531 465.933594 L 464.582031 467.269531 L 465.867188 468.664063 L 467.125 470.117188 L 468.351563 471.625 L 469.550781 473.1875 L 470.714844 474.804688 L 471.84375 476.480469 L 472.9375 478.207031 L 473.992188 479.984375 L 475.011719 481.816406 L 475.988281 483.695313 L 476.925781 485.628906 L 477.816406 487.605469 L 478.667969 489.632813 L 479.46875 491.707031 L 480.226563 493.828125 L 480.933594 495.988281 L 481.589844 498.195313 L 482.199219 500.445313 L 482.753906 502.730469 L 483.257813 505.058594 L 483.703125 507.425781 L 484.097656 509.828125 L 484.433594 512.265625 L 484.710938 514.734375 L 484.933594 517.238281 L 485.09375 519.773438 L 485.191406 522.335938 L 485.230469 524.929688 L 485.207031 527.546875 L 485.121094 530.1875 L 484.972656 532.855469 L 484.757813 535.542969 L 484.480469 538.25 L 484.132813 540.976563 L 483.722656 543.71875 L 483.246094 546.476563 L 482.699219 549.246094 L 482.085938 552.03125 L 481.402344 554.824219 L 480.652344 557.625 L 479.832031 560.429688 L 478.945313 563.242188 L 477.984375 566.058594 L 476.957031 568.875 L 475.859375 571.695313 L 474.6875 574.507813 L 473.449219 577.320313 L 472.140625 580.125 L 470.757813 582.921875 L 469.308594 585.707031 L 467.789063 588.484375 L 466.199219 591.25 L 464.539063 594 L 462.808594 596.734375 L 461.007813 599.449219 L 459.136719 602.144531 L 457.199219 604.820313 L 455.195313 607.46875 L 453.121094 610.097656 L 450.980469 612.695313 L 448.773438 615.265625 L 446.496094 617.808594 L 444.15625 620.316406 L 441.75 622.792969 L 439.28125 625.230469 L 436.75 627.636719 L 434.152344 630 L 431.496094 632.328125 L 428.773438 634.609375 L 425.996094 636.851563 L 423.15625 639.046875 L 420.257813 641.199219 L 417.304688 643.300781 L 414.292969 645.355469 L 411.226563 647.359375 L 408.109375 649.3125 L 404.933594 651.210938 L 401.710938 653.054688 L 398.433594 654.84375 L 395.109375 656.574219 L 391.738281 658.246094 L 388.316406 659.859375 L 384.851563 661.410156 L 381.34375 662.902344 L 377.792969 664.328125 L 374.203125 665.691406 L 370.570313 666.988281 L 366.898438 668.222656 L 363.195313 669.386719 L 359.453125 670.480469 L 355.675781 671.507813 L 351.871094 672.464844 L 348.035156 673.351563 L 344.167969 674.167969 L 340.273438 674.910156 L 336.355469 675.582031 L 332.414063 676.175781 L 328.453125 676.699219 L 324.46875 677.144531 L 320.464844 677.515625 L 316.445313 677.8125 L 312.410156 678.03125 L 308.363281 678.175781 L 304.304688 678.238281 L 300.238281 678.226563 L 296.160156 678.136719 L 292.078125 677.96875 L 287.992188 677.722656 L 283.902344 677.398438 L 279.8125 676.996094 L 275.726563 676.515625 L 271.640625 675.957031 L 267.558594 675.320313 L 263.484375 674.601563 L 259.421875 673.808594 L 255.367188 672.9375 L 251.320313 671.988281 L 247.292969 670.957031 L 243.28125 669.855469 L 239.285156 668.671875 L 235.308594 667.414063 L 231.351563 666.078125 L 227.417969 664.667969 L 223.511719 663.183594 L 219.628906 661.625 L 215.773438 659.988281 L 211.949219 658.28125 L 208.15625 656.503906 L 204.398438 654.652344 L 200.671875 652.730469 L 196.984375 650.738281 L 193.332031 648.675781 L 189.722656 646.542969 L 186.152344 644.347656 L 182.625 642.082031 L 179.140625 639.75 L 175.703125 637.355469 L 172.3125 634.898438 L 168.972656 632.378906 L 165.679688 629.796875 L 162.441406 627.152344 L 159.253906 624.453125 L 156.117188 621.695313 L 153.039063 618.878906 L 150.019531 616.007813 L 147.054688 613.085938 L 144.152344 610.109375 L 141.304688 607.085938 L 138.523438 604.007813 L 135.800781 600.886719 L 133.144531 597.714844 L 130.554688 594.5 L 128.027344 591.242188 L 125.566406 587.941406 L 123.171875 584.601563 L 120.847656 581.222656 L 118.589844 577.804688 L 116.402344 574.355469 L 114.289063 570.871094 L 112.242188 567.351563 L 110.269531 563.804688 L 108.371094 560.226563 L 106.542969 556.625 L 104.789063 552.996094 L 103.109375 549.34375 L 101.503906 545.671875 L 99.976563 541.976563 L 98.519531 538.265625 L 97.140625 534.539063 L 95.839844 530.796875 L 94.613281 527.039063 L 93.460938 523.273438 L 92.386719 519.5 L 91.390625 515.714844 L 90.46875 511.925781 L 89.621094 508.136719 L 88.855469 504.339844 L 88.164063 500.546875 L 87.546875 496.753906 L 87.007813 492.964844 L 86.542969 489.183594 L 86.15625 485.40625 L 85.84375 481.636719 L 85.605469 477.878906 L 85.441406 474.136719 L 85.351563 470.40625 L 85.339844 466.691406 L 85.394531 462.992188 L 85.527344 459.316406 L 85.726563 455.65625 L 86 452.023438 L 86.34375 448.414063 L 86.757813 444.828125 L 87.242188 441.273438 L 87.792969 437.742188 L 88.410156 434.246094 L 89.097656 430.78125 L 89.847656 427.351563 L 90.660156 423.957031 L 91.539063 420.597656 L 92.480469 417.277344 L 93.484375 413.996094 L 94.546875 410.753906 L 95.667969 407.558594 L 96.851563 404.402344 L 98.085938 401.292969 L 99.378906 398.230469 L 100.726563 395.214844 L 102.128906 392.25 L 103.578125 389.332031 L 105.082031 386.46875 L 106.632813 383.65625 L 108.230469 380.894531 L 109.875 378.191406 L 111.566406 375.539063 L 113.296875 372.945313 L 115.070313 370.410156 L 116.886719 367.929688 L 118.738281 365.511719 L 120.628906 363.152344 L 122.554688 360.851563 L 124.511719 358.613281 L 126.503906 356.4375 L 128.527344 354.324219 L 130.578125 352.273438 L 132.65625 350.285156 L 134.757813 348.363281 L 136.882813 346.503906 L 139.035156 344.710938 L 141.203125 342.984375 L 143.390625 341.324219 L 145.597656 339.726563 L 147.816406 338.199219 L 150.050781 336.734375 L 152.296875 335.339844 L 154.550781 334.011719 L 156.816406 332.75 L 159.085938 331.554688 L 161.359375 330.425781 L 163.640625 329.363281 L 165.917969 328.371094 L 168.195313 327.441406 L 170.472656 326.582031 L 172.746094 325.785156 L 175.011719 325.058594 L 177.273438 324.394531 L 179.523438 323.796875 L 181.761719 323.261719 L 183.988281 322.792969 L 186.203125 322.390625 L 188.398438 322.046875 L 190.582031 321.769531 L 192.742188 321.554688 L 194.882813 321.398438 L 197 321.304688 L 199.09375 321.269531 L 201.164063 321.296875 L 203.203125 321.378906 L 205.21875 321.523438 L 207.203125 321.722656 L 209.15625 321.976563 L 211.074219 322.285156 L 212.960938 322.648438 L 214.808594 323.0625 L 216.625 323.53125 L 218.398438 324.050781 L 220.132813 324.617188 L 221.828125 325.234375 L 223.480469 325.898438 L 225.089844 326.605469 L 226.65625 327.359375 L 228.175781 328.15625 L 229.648438 328.996094 L 231.074219 329.875 L 232.453125 330.796875 L 233.78125 331.753906 L 235.054688 332.746094 L 236.28125 333.777344 L 237.453125 334.835938 L 238.574219 335.933594 L 239.636719 337.058594 L 240.648438 338.210938 L 241.601563 339.390625 L 242.5 340.597656 L 243.34375 341.832031 L 244.125 343.085938 L 244.851563 344.359375 L 245.519531 345.652344 L 246.128906 346.964844 L 246.675781 348.292969 L 247.164063 349.636719 L 247.59375 350.992188 L 247.960938 352.359375 L 248.265625 353.738281 L 248.511719 355.121094 L 248.695313 356.511719 L 248.820313 357.90625 L 248.882813 359.300781 L 248.882813 360.699219 L 248.820313 362.09375 L 248.695313 363.488281 L 248.511719 364.878906 L 248.265625 366.261719 L 247.960938 367.640625 L 247.59375 369.007813 L 247.164063 370.363281 L 246.675781 371.707031 L 246.128906 373.035156 L 245.519531 374.347656 L 244.851563 375.640625 L 244.125 376.914063 L 243.34375 378.167969 L 242.5 379.402344 L 241.601563 380.609375 L 240.648438 381.789063 L 239.636719 382.941406 L 238.574219 384.066406 L 237.453125 385.164063 L 236.28125 386.222656 L 235.054688 387.253906 L 233.78125 388.246094 L 232.453125 389.203125 L 231.074219 390.125 L 229.648438 391.003906 L 228.175781 391.84375 L 226.65625 392.640625 L 225.089844 393.394531 L 223.480469 394.101563 L 221.828125 394.765625 L 220.132813 395.382813 L 218.398438 395.949219 L 216.625 396.46875 L 214.808594 396.9375 L 212.960938 397.351563 L 211.074219 397.714844 L 209.15625 398.023438 L 207.203125 398.277344 L 205.21875 398.476563 L 203.203125 398.621094 L 201.164063 398.703125 L 199.09375 398.730469 L 197 398.695313 L 194.882813 398.601563 L 192.742188 398.445313 L 190.582031 398.230469 L 188.398438 397.953125 L 186.203125 397.609375 L 183.988281 397.207031 L 181.761719 396.738281 L 179.523438 396.203125 L 177.273438 395.605469 L 175.011719 394.941406 L 172.746094 394.214844 L 170.472656 393.417969 L 168.195313 392.558594 L 165.917969 391.628906 L 163.640625 390.636719 L 161.359375 389.574219 L 159.085938 388.445313 L 156.816406 387.25 L 154.550781 385.988281 L 152.296875 384.660156 L 150.050781 383.265625 L 147.816406 381.800781 L 145.597656 380.273438 L 143.390625 378.675781 L 141.203125 377.015625 L 139.035156 375.289063 L 136.882813 373.496094 L 134.757813 371.636719 L 132.65625 369.714844 L 130.578125 367.726563 L 128.527344 365.675781 L 126.503906 363.5625 L 124.511719 361.386719 L 122.554688 359.148438 L 120.628906 356.847656 L 118.738281 354.488281 L 116.886719 352.070313 L 115.070313 349.589844 L 113.296875 347.054688 L 111.566406 344.460938 L 109.875 341.808594 L 108.230469 339.105469 L 106.632813 336.34375 L 105.082031 333.53125 L 103.578125 330.667969 L 102.128906 327.75 L 100.726563 324.785156 L 99.378906 321.769531 L 98.085938 318.707031 L 96.851563 315.597656 L 95.667969 312.441406 L 94.546875 309.246094 L 93.484375 306.003906 L 92.480469 302.722656 L 91.539063 299.402344 L 90.660156 296.042969 L 89.847656 292.648438 L 89.097656 289.21875 L 88.410156 285.753906 L 87.792969 282.257813 L 87.242188 278.726563 L 86.757813 275.171875 L 86.34375 271.585938 L 86 267.976563 L 85.726563 264.34375 L 85.527344 260.683594 L 85.394531 257.007813 L 85.339844 253.308594 L 85.351563 249.59375 L 85.441406 245.863281 L 85.605469 242.121094 L 85.84375 238.363281 L 86.15625 234.59375 L 86.542969 230.816406 L 87.007813 227.035156 L 87.546875 223.246094 L 88.164063 219.453125 L 88.855469 215.660156 L 89.621094 211.863281 L 90.46875 208.074219 L 91.390625 204.285156 L 92.386719 200.5 L 93.460938 196.726563 L 94.613281 192.960938 L 95.839844 189.203125 L 97.140625 185.460938 L 98.519531 181.734375 L 99.976563 178.023438 L 101.503906 174.328125 L 103.109375 170.65625 L 104.789063 167.003906 L 106.542969 163.375 L 108.371094 159.773438 L 110.269531 156.195313 L 112.242188 152.648438 L 114.289063 149.128906 L 116.402344 145.644531 L 118.589844 142.195313 L 120.847656 138.777344 L 123.171875 135.398438 L 125.566406 132.058594 L 128.027344 128.757813 L 130.554688 125.5 L 133.144531 122.285156 L 135.800781 119.113281 L 138.523438 115.992188 L 141.304688 112.914063 L 144.152344 109.890625 L 147.054688 106.914063 L 150.019531 103.992188 L 153.039063 101.121094 L 156.117188 98.304688 L 159.253906 95.546875 L 162.441406 92.847656 L 165.679688 90.203125 L 168.972656 87.621094 L 172.3125 85.101563 L 175.703125 82.644531 L 179.140625 80.25 L 182.625 77.917969 L 186.152344 75.652344 L 189.722656 73.457031 L 193.332031 71.324219 L 196.984375 69.261719 L 200.671875 67.269531 L 204.398438 65.347656 L 208.15625 63.496094 L 211.949219 61.71875 L 215.773438 60.011719 L 219.628906 58.375 L 223.511719 56.816406 L 227.417969 55.332031 L 231.351563 53.921875 L 235.308594 52.585938 L 239.285156 51.328125 L 243.28125 50.144531 L 247.292969 49.042969 L 251.320313 48.011719 L 255.367188 47.0625 L 259.421875 46.191406 L 263.484375 45.398438 L 267.558594 44.679688 L 271.640625 44.042969 L 275.726563 43.484375 L 279.8125 43.003906 L 283.902344 42.601563 L 287.992188 42.277344 L 292.078125 42.03125 L 296.160156 41.863281 L 300.238281 41.773438 L 304.304688 41.761719 L 308.363281 41.824219 L 312.410156 41.96875 L 316.445313 42.1875 L 320.464844 42.484375 L 324.46875 42.855469 L 328.453125 43.300781 L 332.414063 43.824219 L 336.355469 44.417969 L 340.273438 45.089844 L 344.167969 45.832031 L 348.035156 46.648438 L 351.871094 47.535156 L 355.675781 48.492188 L 359.453125 49.519531 L 363.195313 50.613281 L 366.898438 51.777344 L 370.570313 53.011719 L 374.203125 54.308594 L 377.792969 55.671875 L 381.34375 57.097656 L 384.851563 58.589844 L 388.316406 60.140625 L 391.738281 61.753906 L 395.109375 63.425781 L 398.433594 65.15625 L 401.710938 66.945313 L 404.933594 68.789063 L 408.109375 70.6875 L 411.226563 72.640625 L 414.292969 74.644531 L 417.304688 76.699219 L 420.257813 78.800781 L 423.15625 80.953125 L 425.996094 83.148438 L 428.773438 85.390625 L 431.496094 87.671875 L 434.152344 90 L 436.75 92.363281 L 439.28125 94.769531 L 441.75 97.207031 L 444.15625 99.683594 L 446.496094 102.191406 L 448.773438 104.734375 L 450.980469 107.304688 L 453.121094 109.902344 L 455.195313 112.53125 L 457.199219 115.179688 L 459.136719 117.855469 L 461.007813 120.550781 L 462.808594 123.265625 L 464.539063 126 L 466.199219 128.75 L 467.789063 131.515625 L 469.308594 134.292969 L 470.757813 137.078125 L 472.140625 139.875 L 473.449219 142.679688 L 474.6875 145.492188 L 475.859375 148.304688 L 476.957031 151.125 L 477.984375 153.941406 L 478.945313 156.757813 L 479.832031 159.570313 L 480.652344 162.375 L 481.402344 165.175781 L 482.085938 167.96875 L 482.699219 170.753906 L 483.246094 173.523438 L 483.722656 176.28125 L 484.132813 179.023438 L 484.480469 181.75 L 484.757813 184.457031 L 484.972656 187.144531 L 485.121094 189.8125 L 485.207031 192.453125 L 485.230469 195.070313 L 485.191406 197.664063 L 485.09375 200.226563 L 484.933594 202.761719 L 484.710938 205.265625 L 484.433594 207.734375 L 484.097656 210.171875 L 483.703125 212.574219 L 483.257813 214.941406 L 482.753906 217.269531 L 482.199219 219.554688 L 481.589844 221.804688 L 480.933594 224.011719 L 480.226563 226.171875 L 479.46875 228.292969 L 478.667969 230.367188 L 477.816406 232.394531 L 476.925781 234.371094 L 475.988281 236.304688 L 475.011719 238.183594 L 473.992188 240.015625 L 472.9375 241.792969 L 471.84375 243.519531 L 470.714844 245.195313 L 469.550781 246.8125 L 468.351563 248.375 L 467.125 249.882813 L 465.867188 251.335938 L 464.582031 252.730469 L 463.269531 254.066406 L 461.933594 255.34375 L 460.574219 256.5625 L 459.195313 257.722656 L 457.792969 258.824219 L 456.375 259.863281 L 454.9375 260.839844 L 453.488281 261.757813 L 452.023438 262.617188 L 450.550781 263.410156 L 449.066406 264.144531 L 447.574219 264.8125 L 446.074219 265.421875 L 444.570313 265.96875 L 443.0625 266.453125 L 441.558594 266.875 L 440.050781 267.234375 L 438.546875 267.53125 L 437.046875 267.769531 L 435.550781 267.945313 L 434.0625 268.054688 L 432.585938 268.109375 L 431.117188 268.097656 L 429.664063 268.03125 L 428.222656 267.898438 L 426.800781 267.710938 L 425.390625 267.460938 L 424.003906 267.15625 L 422.636719 266.789063 L 421.289063 266.367188 L 419.96875 265.886719 L 418.671875 265.351563 L 417.40625 264.761719 L 416.164063 264.117188 L 414.953125 263.417969 L 413.773438 262.667969 L 412.628906 261.863281 L 411.519531 261.007813 L 410.441406 260.105469 L 409.402344 259.152344 L 408.402344 258.148438 L 407.445313 257.101563 L 406.523438 256.003906 L 405.648438 254.867188 L 404.816406 253.683594 L 404.027344 252.457031 L 403.289063 251.191406 L 402.59375 249.886719 L 401.949219 248.542969 L 401.351563 247.160156 L 400.804688 245.742188 L 400.3125 244.292969 L 399.871094 242.808594 L 399.480469 241.289063 L 399.148438 239.742188 L 398.871094 238.167969 L 398.648438 236.566406 L 398.480469 234.9375 L 398.375 233.285156 L 398.324219 231.613281 L 398.335938 229.917969 L 398.40625 228.203125 L 398.535156 226.46875 L 398.726563 224.71875 L 398.976563 222.957031 L 399.289063 221.179688 L 399.667969 219.394531 L 400.105469 217.597656 L 400.605469 215.792969 L 401.171875 213.984375 L 401.800781 212.167969 L 402.492188 210.351563 L 403.25 208.535156 L 404.070313 206.714844 L 404.953125 204.902344 L 405.902344 203.089844 L 406.914063 201.285156 L 407.988281 199.488281 L 409.128906 197.703125 L 410.332031 195.925781 L 411.601563 194.164063 L 412.933594 192.414063 L 414.328125 190.683594 L 415.785156 188.96875 L 417.304688 187.273438 L 418.886719 185.601563 L 420.527344 183.949219 L 422.230469 182.324219 L 423.996094 180.726563 L 425.820313 179.15625 L 427.707031 177.613281 L 429.648438 176.105469 L 431.648438 174.628906 L 433.707031 173.1875 L 435.820313 171.78125 L 437.992188 170.410156 L 440.214844 169.082031 L 442.496094 167.792969 L 444.828125 166.546875 L 447.210938 165.34375 L 449.644531 164.183594 L 452.128906 163.074219 L 454.660156 162.007813 L 457.242188 160.992188 L 459.871094 160.027344 L 462.542969 159.117188 L 465.257813 158.253906 L 468.019531 157.449219 L 470.820313 156.699219 L 473.660156 156.003906 L 476.542969 155.371094 L 479.460938 154.792969 L 482.414063 154.273438 L 485.402344 153.816406 L 488.425781 153.421875 L 491.480469 153.089844 L 494.5625 152.824219 L 497.675781 152.617188 L 500.816406 152.480469 L 503.980469 152.410156 L 507.167969 152.40625 L 510.382813 152.46875 L 513.613281 152.597656 L 516.867188 152.800781 L 520.132813 153.070313 L 523.417969 153.410156 L 526.71875 153.824219 L 530.027344 154.304688 L 533.351563 154.863281 L 536.679688 155.488281 L 540.019531 156.1875 L 543.363281 156.960938 L 546.707031 157.804688 L 550.054688 158.722656 L 553.40625 159.714844 L 556.75 160.78125 L 560.09375 161.921875 L 563.433594 163.132813 L 566.761719 164.421875 L 570.085938 165.78125 L 573.394531 167.214844 L 576.695313 168.722656 L 579.976563 170.300781 L 583.246094 171.957031 L 586.496094 173.683594 L 589.726563 175.480469 L 592.9375 177.351563 L 596.125 179.292969 L 599.285156 181.308594 L 602.421875 183.390625 L 605.527344 185.546875 L 608.601563 187.769531 L 611.648438 190.066406 L 614.660156 192.425781 L 617.636719 194.855469 L 620.574219 197.351563 L 623.476563 199.914063 L 626.339844 202.542969 L 629.160156 205.234375 L 631.9375 207.988281 L 634.667969 210.808594 L 637.355469 213.6875 L 639.992188 216.628906 L 642.582031 219.628906 L 645.121094 222.683594 L 647.609375 225.800781 L 650.042969 228.972656 L 652.421875 232.199219 L 654.746094 235.480469 L 657.011719 238.8125 L 659.21875 242.195313 L 661.363281 245.628906 L 663.449219 249.113281 L 665.472656 252.640625 L 667.433594 256.21875 L 669.332031 259.835938 L 671.160156 263.5 L 672.925781 267.203125 L 674.621094 270.945313 L 676.25 274.726563 L 677.808594 278.542969 L 679.292969 282.394531 L 680.710938 286.28125 L 682.054688 290.199219 L 683.328125 294.148438 L 684.527344 298.125 L 685.652344 302.128906 L 686.703125 306.15625 L 687.675781 310.207031 L 688.574219 314.28125 L 689.394531 318.375 L 690.140625 322.484375 L 690.808594 326.613281 L 691.398438 330.753906 L 691.910156 334.90625 L 692.34375 339.074219 L 692.699219 343.246094 L 692.976563 347.429688 L 693.175781 351.617188 L 693.292969 355.808594 L 693.332031 360 "/>
  </g>
</svg>
