<?xml version="1.0" encoding="UTF-8"?>
<svg xmlns="http://www.w3.org/2000/svg" xmlns:xlink="http://www.w3.org/1999/xlink" width="100%" height="100%" viewBox="0 0 720 720" version="1.1">
  <g id="spiro_7_1_3_23406" transform=" scale(0.4 0.4) translate(540 540)">
    <path style=" stroke:none;fill-rule:evenodd;fill:rgb(60%,19.607843%,80%);fill-opacity:1;" d="M 693.332031 360 L 693.25 362.792969 L 693 365.582031 L 692.582031 368.359375 L 692 371.117188 L 691.25 373.855469 L 690.339844 376.558594 L 689.265625 379.230469 L 688.027344 381.859375 L 686.628906 384.441406 L 685.074219 386.972656 L 683.367188 389.449219 L 681.5 391.859375 L 679.488281 394.199219 L 677.324219 396.46875 L 675.015625 398.65625 L 672.5625 400.761719 L 669.972656 402.777344 L 667.25 404.699219 L 664.390625 406.523438 L 661.40625 408.242188 L 658.296875 409.855469 L 655.066406 411.359375 L 651.722656 412.742188 L 648.265625 414.011719 L 644.707031 415.15625 L 641.042969 416.171875 L 637.28125 417.058594 L 633.429688 417.8125 L 629.492188 418.429688 L 625.472656 418.910156 L 621.378906 419.246094 L 617.210938 419.4375 L 612.980469 419.484375 L 608.691406 419.382813 L 604.351563 419.132813 L 599.960938 418.730469 L 595.527344 418.175781 L 591.058594 417.464844 L 586.558594 416.601563 L 582.035156 415.582031 L 577.496094 414.410156 L 572.941406 413.078125 L 568.382813 411.59375 L 563.820313 409.949219 L 559.269531 408.152344 L 554.726563 406.199219 L 550.199219 404.097656 L 545.699219 401.839844 L 541.226563 399.429688 L 536.789063 396.871094 L 532.394531 394.164063 L 528.042969 391.3125 L 523.746094 388.320313 L 519.503906 385.183594 L 515.328125 381.910156 L 511.21875 378.5 L 507.183594 374.957031 L 503.226563 371.285156 L 499.351563 367.488281 L 495.566406 363.570313 L 491.875 359.53125 L 488.28125 355.378906 L 484.785156 351.117188 L 481.398438 346.746094 L 478.125 342.277344 L 474.960938 337.707031 L 471.914063 333.050781 L 468.992188 328.300781 L 466.195313 323.472656 L 463.523438 318.566406 L 460.984375 313.585938 L 458.578125 308.539063 L 456.304688 303.433594 L 454.175781 298.269531 L 452.183594 293.054688 L 450.335938 287.796875 L 448.632813 282.5 L 447.074219 277.171875 L 445.664063 271.816406 L 444.40625 266.4375 L 443.292969 261.046875 L 442.332031 255.644531 L 441.519531 250.238281 L 440.855469 244.839844 L 440.347656 239.445313 L 439.984375 234.066406 L 439.777344 228.710938 L 439.714844 223.378906 L 439.800781 218.082031 L 440.035156 212.824219 L 440.414063 207.609375 L 440.9375 202.445313 L 441.605469 197.339844 L 442.410156 192.292969 L 443.355469 187.3125 L 444.433594 182.40625 L 445.648438 177.582031 L 446.992188 172.835938 L 448.460938 168.179688 L 450.054688 163.621094 L 451.769531 159.15625 L 453.601563 154.796875 L 455.546875 150.546875 L 457.601563 146.40625 L 459.761719 142.386719 L 462.019531 138.484375 L 464.378906 134.710938 L 466.828125 131.0625 L 469.363281 127.546875 L 471.980469 124.171875 L 474.675781 120.933594 L 477.445313 117.839844 L 480.28125 114.886719 L 483.175781 112.085938 L 486.132813 109.4375 L 489.136719 106.9375 L 492.1875 104.597656 L 495.277344 102.410156 L 498.398438 100.386719 L 501.550781 98.519531 L 504.726563 96.816406 L 507.917969 95.273438 L 511.121094 93.894531 L 514.328125 92.683594 L 517.535156 91.632813 L 520.734375 90.746094 L 523.921875 90.023438 L 527.089844 89.46875 L 530.230469 89.074219 L 533.34375 88.84375 L 536.421875 88.773438 L 539.453125 88.863281 L 542.441406 89.113281 L 545.371094 89.523438 L 548.246094 90.085938 L 551.054688 90.800781 L 553.792969 91.667969 L 556.453125 92.683594 L 559.035156 93.847656 L 561.53125 95.152344 L 563.933594 96.597656 L 566.242188 98.179688 L 568.449219 99.894531 L 570.550781 101.738281 L 572.542969 103.707031 L 574.421875 105.796875 L 576.179688 108.007813 L 577.816406 110.328125 L 579.328125 112.761719 L 580.707031 115.296875 L 581.953125 117.929688 L 583.0625 120.660156 L 584.035156 123.476563 L 584.859375 126.378906 L 585.539063 129.363281 L 586.070313 132.417969 L 586.453125 135.542969 L 586.679688 138.730469 L 586.753906 141.972656 L 586.667969 145.269531 L 586.425781 148.613281 L 586.027344 151.992188 L 585.464844 155.410156 L 584.742188 158.855469 L 583.855469 162.320313 L 582.808594 165.804688 L 581.597656 169.296875 L 580.222656 172.796875 L 578.6875 176.292969 L 576.992188 179.785156 L 575.132813 183.261719 L 573.113281 186.71875 L 570.9375 190.152344 L 568.601563 193.554688 L 566.113281 196.921875 L 563.46875 200.242188 L 560.671875 203.519531 L 557.722656 206.742188 L 554.628906 209.90625 L 551.390625 213.007813 L 548.011719 216.039063 L 544.492188 218.996094 L 540.835938 221.875 L 537.050781 224.667969 L 533.132813 227.371094 L 529.09375 229.984375 L 524.933594 232.496094 L 520.65625 234.90625 L 516.265625 237.210938 L 511.769531 239.402344 L 507.167969 241.480469 L 502.46875 243.441406 L 497.675781 245.28125 L 492.792969 246.996094 L 487.828125 248.582031 L 482.785156 250.035156 L 477.671875 251.359375 L 472.488281 252.542969 L 467.242188 253.589844 L 461.941406 254.496094 L 456.589844 255.261719 L 451.195313 255.878906 L 445.757813 256.355469 L 440.289063 256.683594 L 434.796875 256.859375 L 429.28125 256.890625 L 423.75 256.773438 L 418.207031 256.503906 L 412.664063 256.085938 L 407.125 255.519531 L 401.59375 254.804688 L 396.078125 253.9375 L 390.582031 252.921875 L 385.113281 251.761719 L 379.679688 250.457031 L 374.28125 249.007813 L 368.929688 247.414063 L 363.628906 245.679688 L 358.382813 243.804688 L 353.195313 241.796875 L 348.078125 239.652344 L 343.03125 237.378906 L 338.066406 234.976563 L 333.179688 232.449219 L 328.382813 229.796875 L 323.675781 227.027344 L 319.070313 224.144531 L 314.566406 221.152344 L 310.167969 218.050781 L 305.878906 214.84375 L 301.707031 211.542969 L 297.652344 208.144531 L 293.722656 204.65625 L 289.921875 201.085938 L 286.246094 197.433594 L 282.707031 193.710938 L 279.304688 189.914063 L 276.042969 186.054688 L 272.921875 182.132813 L 269.945313 178.160156 L 267.113281 174.140625 L 264.433594 170.074219 L 261.90625 165.976563 L 259.527344 161.84375 L 257.308594 157.6875 L 255.242188 153.511719 L 253.328125 149.320313 L 251.578125 145.125 L 249.980469 140.925781 L 248.542969 136.730469 L 247.265625 132.546875 L 246.144531 128.378906 L 245.179688 124.230469 L 244.375 120.113281 L 243.726563 116.03125 L 243.230469 111.984375 L 242.890625 107.988281 L 242.703125 104.039063 L 242.667969 100.152344 L 242.78125 96.324219 L 243.042969 92.566406 L 243.445313 88.882813 L 243.992188 85.277344 L 244.679688 81.757813 L 245.503906 78.328125 L 246.460938 74.992188 L 247.546875 71.757813 L 248.761719 68.625 L 250.101563 65.605469 L 251.554688 62.695313 L 253.128906 59.90625 L 254.8125 57.238281 L 256.601563 54.699219 L 258.492188 52.285156 L 260.484375 50.011719 L 262.566406 47.871094 L 264.738281 45.875 L 266.992188 44.019531 L 269.324219 42.3125 L 271.730469 40.757813 L 274.203125 39.351563 L 276.738281 38.105469 L 279.332031 37.011719 L 281.972656 36.078125 L 284.660156 35.304688 L 287.390625 34.695313 L 290.152344 34.25 L 292.941406 33.964844 L 295.753906 33.847656 L 298.582031 33.898438 L 301.417969 34.113281 L 304.261719 34.496094 L 307.101563 35.046875 L 309.9375 35.761719 L 312.757813 36.644531 L 315.558594 37.691406 L 318.335938 38.902344 L 321.082031 40.273438 L 323.792969 41.8125 L 326.460938 43.507813 L 329.078125 45.359375 L 331.644531 47.371094 L 334.152344 49.535156 L 336.597656 51.851563 L 338.96875 54.316406 L 341.269531 56.925781 L 343.484375 59.679688 L 345.621094 62.574219 L 347.664063 65.601563 L 349.613281 68.765625 L 351.464844 72.054688 L 353.210938 75.472656 L 354.851563 79.007813 L 356.378906 82.664063 L 357.789063 86.425781 L 359.082031 90.300781 L 360.25 94.277344 L 361.292969 98.347656 L 362.207031 102.515625 L 362.984375 106.769531 L 363.628906 111.105469 L 364.132813 115.519531 L 364.496094 120.003906 L 364.71875 124.554688 L 364.792969 129.167969 L 364.722656 133.835938 L 364.503906 138.550781 L 364.132813 143.3125 L 363.613281 148.109375 L 362.941406 152.9375 L 362.113281 157.789063 L 361.132813 162.664063 L 360 167.550781 L 358.710938 172.445313 L 357.273438 177.339844 L 355.675781 182.234375 L 353.929688 187.113281 L 352.03125 191.980469 L 349.980469 196.824219 L 347.785156 201.636719 L 345.4375 206.417969 L 342.941406 211.160156 L 340.304688 215.855469 L 337.527344 220.5 L 334.605469 225.089844 L 331.550781 229.617188 L 328.355469 234.074219 L 325.035156 238.460938 L 321.582031 242.769531 L 318.007813 246.996094 L 314.308594 251.136719 L 310.492188 255.183594 L 306.5625 259.132813 L 302.519531 262.980469 L 298.375 266.722656 L 294.128906 270.355469 L 289.785156 273.875 L 285.347656 277.273438 L 280.824219 280.554688 L 276.21875 283.710938 L 271.535156 286.738281 L 266.78125 289.632813 L 261.957031 292.394531 L 257.074219 295.023438 L 252.136719 297.507813 L 247.144531 299.855469 L 242.109375 302.054688 L 237.039063 304.113281 L 231.929688 306.023438 L 226.796875 307.785156 L 221.640625 309.398438 L 216.46875 310.859375 L 211.289063 312.167969 L 206.105469 313.328125 L 200.921875 314.335938 L 195.75 315.191406 L 190.589844 315.894531 L 185.453125 316.445313 L 180.339844 316.847656 L 175.261719 317.097656 L 170.21875 317.203125 L 165.222656 317.15625 L 160.277344 316.964844 L 155.382813 316.628906 L 150.554688 316.148438 L 145.789063 315.53125 L 141.101563 314.773438 L 136.488281 313.878906 L 131.957031 312.855469 L 127.515625 311.699219 L 123.167969 310.417969 L 118.921875 309.011719 L 114.773438 307.484375 L 110.738281 305.84375 L 106.8125 304.089844 L 103.003906 302.226563 L 99.316406 300.257813 L 95.757813 298.191406 L 92.324219 296.03125 L 89.023438 293.777344 L 85.859375 291.441406 L 82.839844 289.019531 L 79.957031 286.527344 L 77.222656 283.960938 L 74.640625 281.328125 L 72.207031 278.636719 L 69.925781 275.890625 L 67.800781 273.09375 L 65.835938 270.253906 L 64.03125 267.375 L 62.386719 264.464844 L 60.902344 261.527344 L 59.585938 258.570313 L 58.429688 255.597656 L 57.441406 252.617188 L 56.617188 249.632813 L 55.960938 246.652344 L 55.46875 243.679688 L 55.144531 240.722656 L 54.984375 237.789063 L 54.984375 234.875 L 55.152344 232 L 55.480469 229.160156 L 55.972656 226.363281 L 56.621094 223.617188 L 57.425781 220.925781 L 58.390625 218.296875 L 59.503906 215.734375 L 60.773438 213.242188 L 62.1875 210.824219 L 63.746094 208.492188 L 65.449219 206.246094 L 67.289063 204.09375 L 69.265625 202.039063 L 71.375 200.082031 L 73.613281 198.234375 L 75.972656 196.496094 L 78.457031 194.875 L 81.054688 193.371094 L 83.765625 191.988281 L 86.582031 190.734375 L 89.5 189.613281 L 92.515625 188.625 L 95.625 187.769531 L 98.820313 187.058594 L 102.097656 186.488281 L 105.453125 186.0625 L 108.878906 185.789063 L 112.371094 185.660156 L 115.925781 185.6875 L 119.53125 185.867188 L 123.1875 186.203125 L 126.886719 186.695313 L 130.625 187.34375 L 134.394531 188.15625 L 138.1875 189.125 L 142 190.253906 L 145.828125 191.542969 L 149.664063 192.992188 L 153.5 194.605469 L 157.332031 196.375 L 161.15625 198.304688 L 164.964844 200.394531 L 168.746094 202.636719 L 172.503906 205.039063 L 176.230469 207.59375 L 179.914063 210.304688 L 183.554688 213.164063 L 187.144531 216.171875 L 190.675781 219.324219 L 194.148438 222.621094 L 197.554688 226.058594 L 200.886719 229.636719 L 204.144531 233.34375 L 207.320313 237.1875 L 210.410156 241.15625 L 213.40625 245.25 L 216.308594 249.460938 L 219.109375 253.792969 L 221.808594 258.234375 L 224.394531 262.78125 L 226.871094 267.429688 L 229.230469 272.179688 L 231.472656 277.023438 L 233.589844 281.953125 L 235.578125 286.964844 L 237.441406 292.058594 L 239.171875 297.222656 L 240.765625 302.453125 L 242.222656 307.746094 L 243.539063 313.09375 L 244.714844 318.492188 L 245.75 323.9375 L 246.636719 329.417969 L 247.378906 334.933594 L 247.976563 340.476563 L 248.421875 346.039063 L 248.722656 351.617188 L 248.871094 357.203125 L 248.871094 362.796875 L 248.722656 368.382813 L 248.421875 373.960938 L 247.976563 379.523438 L 247.378906 385.066406 L 246.636719 390.582031 L 245.75 396.0625 L 244.714844 401.507813 L 243.539063 406.90625 L 242.222656 412.253906 L 240.765625 417.546875 L 239.171875 422.777344 L 237.441406 427.941406 L 235.578125 433.035156 L 233.589844 438.046875 L 231.472656 442.976563 L 229.230469 447.820313 L 226.871094 452.570313 L 224.394531 457.21875 L 221.808594 461.765625 L 219.109375 466.207031 L 216.308594 470.539063 L 213.40625 474.75 L 210.410156 478.84375 L 207.320313 482.8125 L 204.144531 486.65625 L 200.886719 490.363281 L 197.554688 493.941406 L 194.148438 497.378906 L 190.675781 500.675781 L 187.144531 503.828125 L 183.554688 506.835938 L 179.914063 509.695313 L 176.230469 512.40625 L 172.503906 514.960938 L 168.746094 517.363281 L 164.964844 519.605469 L 161.15625 521.695313 L 157.332031 523.625 L 153.5 525.394531 L 149.664063 527.007813 L 145.828125 528.457031 L 142 529.746094 L 138.1875 530.875 L 134.394531 531.84375 L 130.625 532.65625 L 126.886719 533.304688 L 123.1875 533.796875 L 119.53125 534.132813 L 115.925781 534.3125 L 112.371094 534.339844 L 108.878906 534.210938 L 105.453125 533.9375 L 102.097656 533.511719 L 98.820313 532.941406 L 95.625 532.230469 L 92.515625 531.375 L 89.5 530.386719 L 86.582031 529.265625 L 83.765625 528.011719 L 81.054688 526.628906 L 78.457031 525.125 L 75.972656 523.503906 L 73.613281 521.765625 L 71.375 519.917969 L 69.265625 517.960938 L 67.289063 515.90625 L 65.449219 513.753906 L 63.746094 511.507813 L 62.1875 509.175781 L 60.773438 506.757813 L 59.503906 504.265625 L 58.390625 501.703125 L 57.425781 499.074219 L 56.621094 496.382813 L 55.972656 493.636719 L 55.480469 490.839844 L 55.152344 488 L 54.984375 485.125 L 54.984375 482.210938 L 55.144531 479.277344 L 55.46875 476.320313 L 55.960938 473.347656 L 56.617188 470.367188 L 57.441406 467.382813 L 58.429688 464.402344 L 59.585938 461.429688 L 60.902344 458.472656 L 62.386719 455.535156 L 64.03125 452.625 L 65.835938 449.746094 L 67.800781 446.90625 L 69.925781 444.109375 L 72.207031 441.363281 L 74.640625 438.671875 L 77.222656 436.039063 L 79.957031 433.472656 L 82.839844 430.980469 L 85.859375 428.558594 L 89.023438 426.222656 L 92.324219 423.96875 L 95.757813 421.808594 L 99.316406 419.742188 L 103.003906 417.773438 L 106.8125 415.910156 L 110.738281 414.15625 L 114.773438 412.515625 L 118.921875 410.988281 L 123.167969 409.582031 L 127.515625 408.300781 L 131.957031 407.144531 L 136.488281 406.121094 L 141.101563 405.226563 L 145.789063 404.46875 L 150.554688 403.851563 L 155.382813 403.371094 L 160.277344 403.035156 L 165.222656 402.84375 L 170.21875 402.796875 L 175.261719 402.902344 L 180.339844 403.152344 L 185.453125 403.554688 L 190.589844 404.105469 L 195.75 404.808594 L 200.921875 405.664063 L 206.105469 406.671875 L 211.289063 407.832031 L 216.46875 409.140625 L 221.640625 410.601563 L 226.796875 412.214844 L 231.929688 413.976563 L 237.039063 415.886719 L 242.109375 417.945313 L 247.144531 420.144531 L 252.136719 422.492188 L 257.074219 424.976563 L 261.957031 427.605469 L 266.78125 430.367188 L 271.535156 433.261719 L 276.21875 436.289063 L 280.824219 439.445313 L 285.347656 442.726563 L 289.785156 446.125 L 294.128906 449.644531 L 298.375 453.277344 L 302.519531 457.019531 L 306.5625 460.867188 L 310.492188 464.816406 L 314.308594 468.863281 L 318.007813 473.003906 L 321.582031 477.230469 L 325.035156 481.539063 L 328.355469 485.925781 L 331.550781 490.382813 L 334.605469 494.910156 L 337.527344 499.5 L 340.304688 504.144531 L 342.941406 508.839844 L 345.4375 513.582031 L 347.785156 518.363281 L 349.980469 523.175781 L 352.03125 528.019531 L 353.929688 532.886719 L 355.675781 537.765625 L 357.273438 542.660156 L 358.710938 547.554688 L 360 552.449219 L 361.132813 557.335938 L 362.113281 562.210938 L 362.941406 567.0625 L 363.613281 571.890625 L 364.132813 576.6875 L 364.503906 581.449219 L 364.722656 586.164063 L 364.792969 590.832031 L 364.71875 595.445313 L 364.496094 599.996094 L 364.132813 604.480469 L 363.628906 608.894531 L 362.984375 613.230469 L 362.207031 617.484375 L 361.292969 621.652344 L 360.25 625.722656 L 359.082031 629.699219 L 357.789063 633.574219 L 356.378906 637.335938 L 354.851563 640.992188 L 353.210938 644.527344 L 351.464844 647.945313 L 349.613281 651.234375 L 347.664063 654.398438 L 345.621094 657.425781 L 343.484375 660.320313 L 341.269531 663.074219 L 338.96875 665.683594 L 336.597656 668.148438 L 334.152344 670.464844 L 331.644531 672.628906 L 329.078125 674.640625 L 326.460938 676.492188 L 323.792969 678.1875 L 321.082031 679.726563 L 318.335938 681.097656 L 315.558594 682.308594 L 312.757813 683.355469 L 309.9375 684.238281 L 307.101563 684.953125 L 304.261719 685.503906 L 301.417969 685.886719 L 298.582031 686.101563 L 295.753906 686.152344 L 292.941406 686.035156 L 290.152344 685.75 L 287.390625 685.304688 L 284.660156 684.695313 L 281.972656 683.921875 L 279.332031 682.988281 L 276.738281 681.894531 L 274.203125 680.648438 L 271.730469 679.242188 L 269.324219 677.6875 L 266.992188 675.980469 L 264.738281 674.125 L 262.566406 672.128906 L 260.484375 669.988281 L 258.492188 667.714844 L 256.601563 665.300781 L 254.8125 662.761719 L 253.128906 660.09375 L 251.554688 657.304688 L 250.101563 654.394531 L 248.761719 651.375 L 247.546875 648.242188 L 246.460938 645.007813 L 245.503906 641.671875 L 244.679688 638.242188 L 243.992188 634.722656 L 243.445313 631.117188 L 243.042969 627.433594 L 242.78125 623.675781 L 242.667969 619.847656 L 242.703125 615.960938 L 242.890625 612.011719 L 243.230469 608.015625 L 243.726563 603.96875 L 244.375 599.886719 L 245.179688 595.769531 L 246.144531 591.621094 L 247.265625 587.453125 L 248.542969 583.269531 L 249.980469 579.074219 L 251.578125 574.875 L 253.328125 570.679688 L 255.242188 566.488281 L 257.308594 562.3125 L 259.527344 558.15625 L 261.90625 554.023438 L 264.433594 549.925781 L 267.113281 545.859375 L 269.945313 541.839844 L 272.921875 537.867188 L 276.042969 533.945313 L 279.304688 530.085938 L 282.707031 526.289063 L 286.246094 522.566406 L 289.921875 518.914063 L 293.722656 515.34375 L 297.652344 511.855469 L 301.707031 508.457031 L 305.878906 505.15625 L 310.167969 501.949219 L 314.566406 498.847656 L 319.070313 495.855469 L 323.675781 492.972656 L 328.382813 490.203125 L 333.179688 487.550781 L 338.066406 485.023438 L 343.03125 482.621094 L 348.078125 480.347656 L 353.195313 478.203125 L 358.382813 476.195313 L 363.628906 474.320313 L 368.929688 472.585938 L 374.28125 470.992188 L 379.679688 469.542969 L 385.113281 468.238281 L 390.582031 467.078125 L 396.078125 466.0625 L 401.59375 465.195313 L 407.125 464.480469 L 412.664063 463.914063 L 418.207031 463.496094 L 423.75 463.226563 L 429.28125 463.109375 L 434.796875 463.140625 L 440.289063 463.316406 L 445.757813 463.644531 L 451.195313 464.121094 L 456.589844 464.738281 L 461.941406 465.503906 L 467.242188 466.410156 L 472.488281 467.457031 L 477.671875 468.640625 L 482.785156 469.964844 L 487.828125 471.417969 L 492.792969 473.003906 L 497.675781 474.71875 L 502.46875 476.558594 L 507.167969 478.519531 L 511.769531 480.597656 L 516.265625 482.789063 L 520.65625 485.09375 L 524.933594 487.503906 L 529.09375 490.015625 L 533.132813 492.628906 L 537.050781 495.332031 L 540.835938 498.125 L 544.492188 501.003906 L 548.011719 503.960938 L 551.390625 506.992188 L 554.628906 510.09375 L 557.722656 513.257813 L 560.671875 516.480469 L 563.46875 519.757813 L 566.113281 523.078125 L 568.601563 526.445313 L 570.9375 529.847656 L 573.113281 533.28125 L 575.132813 536.738281 L 576.992188 540.214844 L 578.6875 543.707031 L 580.222656 547.203125 L 581.597656 550.703125 L 582.808594 554.195313 L 583.855469 557.679688 L 584.742188 561.144531 L 585.464844 564.589844 L 586.027344 568.007813 L 586.425781 571.386719 L 586.667969 574.730469 L 586.753906 578.027344 L 586.679688 581.269531 L 586.453125 584.457031 L 586.070313 587.582031 L 585.539063 590.636719 L 584.859375 593.621094 L 584.035156 596.523438 L 583.0625 599.339844 L 581.953125 602.070313 L 580.707031 604.703125 L 579.328125 607.238281 L 577.816406 609.671875 L 576.179688 611.992188 L 574.421875 614.203125 L 572.542969 616.292969 L 570.550781 618.261719 L 568.449219 620.105469 L 566.242188 621.820313 L 563.933594 623.402344 L 561.53125 624.847656 L 559.035156 626.152344 L 556.453125 627.316406 L 553.792969 628.332031 L 551.054688 629.199219 L 548.246094 629.914063 L 545.371094 630.476563 L 542.441406 630.886719 L 539.453125 631.136719 L 536.421875 631.226563 L 533.34375 631.15625 L 530.230469 630.925781 L 527.089844 630.53125 L 523.921875 629.976563 L 520.734375 629.253906 L 517.535156 628.367188 L 514.328125 627.316406 L 511.121094 626.105469 L 507.917969 624.726563 L 504.726563 623.183594 L 501.550781 621.480469 L 498.398438 619.613281 L 495.277344 617.589844 L 492.1875 615.402344 L 489.136719 613.0625 L 486.132813 610.5625 L 483.175781 607.914063 L 480.28125 605.113281 L 477.445313 602.160156 L 474.675781 599.066406 L 471.980469 595.828125 L 469.363281 592.453125 L 466.828125 588.9375 L 464.378906 585.289063 L 462.019531 581.515625 L 459.761719 577.613281 L 457.601563 573.59375 L 455.546875 569.453125 L 453.601563 565.203125 L 451.769531 560.84375 L 450.054688 556.378906 L 448.460938 551.820313 L 446.992188 547.164063 L 445.648438 542.417969 L 444.433594 537.59375 L 443.355469 532.6875 L 442.410156 527.707031 L 441.605469 522.660156 L 440.9375 517.554688 L 440.414063 512.390625 L 440.035156 507.175781 L 439.800781 501.917969 L 439.714844 496.621094 L 439.777344 491.289063 L 439.984375 485.933594 L 440.347656 480.554688 L 440.855469 475.160156 L 441.519531 469.761719 L 442.332031 464.355469 L 443.292969 458.953125 L 444.40625 453.5625 L 445.664063 448.183594 L 447.074219 442.828125 L 448.632813 437.5 L 450.335938 432.203125 L 452.183594 426.945313 L 454.175781 421.730469 L 456.304688 416.566406 L 458.578125 411.460938 L 460.984375 406.414063 L 463.523438 401.433594 L 466.195313 396.527344 L 468.992188 391.699219 L 471.914063 386.949219 L 474.960938 382.292969 L 478.125 377.722656 L 481.398438 373.253906 L 484.785156 368.882813 L 488.28125 364.621094 L 491.875 360.46875 L 495.566406 356.429688 L 499.351563 352.511719 L 503.226563 348.714844 L 507.183594 345.042969 L 511.21875 341.5 L 515.328125 338.089844 L 519.503906 334.816406 L 523.746094 331.679688 L 528.042969 328.6875 L 532.394531 325.835938 L 536.789063 323.128906 L 541.226563 320.570313 L 545.699219 318.160156 L 550.199219 315.902344 L 554.726563 313.800781 L 559.269531 311.847656 L 563.820313 310.050781 L 568.382813 308.40625 L 572.941406 306.921875 L 577.496094 305.589844 L 582.035156 304.417969 L 586.558594 303.398438 L 591.058594 302.535156 L 595.527344 301.824219 L 599.960938 301.269531 L 604.351563 300.867188 L 608.691406 300.617188 L 612.980469 300.515625 L 617.210938 300.5625 L 621.378906 300.753906 L 625.472656 301.089844 L 629.492188 301.570313 L 633.429688 302.1875 L 637.28125 302.941406 L 641.042969 303.828125 L 644.707031 304.84375 L 648.265625 305.988281 L 651.722656 307.257813 L 655.066406 308.640625 L 658.296875 310.144531 L 661.40625 311.757813 L 664.390625 313.476563 L 667.25 315.300781 L 669.972656 317.222656 L 672.5625 319.238281 L 675.015625 321.34375 L 677.324219 323.53125 L 679.488281 325.800781 L 681.5 328.140625 L 683.367188 330.550781 L 685.074219 333.027344 L 686.628906 335.558594 L 688.027344 338.140625 L 689.265625 340.769531 L 690.339844 343.441406 L 691.25 346.144531 L 692 348.882813 L 692.582031 351.640625 L 693 354.417969 L 693.25 357.207031 Z M 693.332031 360 "/>
  </g>
</svg>
