<?xml version="1.0" encoding="UTF-8"?>
<svg xmlns="http://www.w3.org/2000/svg" xmlns:xlink="http://www.w3.org/1999/xlink" width="100%" height="100%" viewBox="0 0 720 720" version="1.1">
  <g id="spiro_7_-1_3_95592">
    <path style=" stroke:none;fill-rule:evenodd;fill:rgb(60%,19.607843%,80%);fill-opacity:1;" d="M 693.332031 360 L 693.214844 366.097656 L 692.855469 372.183594 L 692.257813 378.246094 L 691.421875 384.273438 L 690.351563 390.253906 L 689.050781 396.175781 L 687.519531 402.03125 L 685.761719 407.804688 L 683.78125 413.488281 L 681.585938 419.074219 L 679.179688 424.542969 L 676.570313 429.894531 L 673.757813 435.113281 L 670.757813 440.191406 L 667.570313 445.117188 L 664.203125 449.886719 L 660.671875 454.492188 L 656.976563 458.917969 L 653.132813 463.164063 L 649.144531 467.21875 L 645.023438 471.082031 L 640.78125 474.742188 L 636.421875 478.191406 L 631.964844 481.433594 L 627.417969 484.457031 L 622.789063 487.257813 L 618.089844 489.839844 L 613.332031 492.191406 L 608.53125 494.316406 L 603.691406 496.207031 L 598.832031 497.871094 L 593.957031 499.300781 L 589.085938 500.5 L 584.222656 501.464844 L 579.382813 502.203125 L 574.578125 502.714844 L 569.816406 502.996094 L 565.113281 503.058594 L 560.476563 502.898438 L 555.921875 502.527344 L 551.453125 501.941406 L 547.082031 501.152344 L 542.824219 500.164063 L 538.683594 498.984375 L 534.671875 497.617188 L 530.800781 496.066406 L 527.074219 494.347656 L 523.5 492.460938 L 520.09375 490.421875 L 516.855469 488.234375 L 513.792969 485.910156 L 510.917969 483.457031 L 508.230469 480.886719 L 505.738281 478.207031 L 503.445313 475.429688 L 501.359375 472.5625 L 499.484375 469.621094 L 497.820313 466.613281 L 496.371094 463.554688 L 495.140625 460.449219 L 494.128906 457.3125 L 493.339844 454.15625 L 492.769531 450.992188 L 492.421875 447.828125 L 492.292969 444.679688 L 492.382813 441.558594 L 492.691406 438.472656 L 493.21875 435.4375 L 493.953125 432.460938 L 494.898438 429.550781 L 496.050781 426.726563 L 497.402344 423.992188 L 498.949219 421.363281 L 500.683594 418.84375 L 502.605469 416.449219 L 504.703125 414.183594 L 506.96875 412.058594 L 509.398438 410.085938 L 511.984375 408.265625 L 514.714844 406.617188 L 517.582031 405.136719 L 520.578125 403.839844 L 523.695313 402.730469 L 526.917969 401.8125 L 530.242188 401.09375 L 533.65625 400.578125 L 537.148438 400.273438 L 540.707031 400.175781 L 544.320313 400.296875 L 547.980469 400.636719 L 551.675781 401.199219 L 555.394531 401.984375 L 559.121094 402.992188 L 562.847656 404.222656 L 566.566406 405.679688 L 570.257813 407.363281 L 573.914063 409.265625 L 577.523438 411.394531 L 581.078125 413.738281 L 584.5625 416.300781 L 587.96875 419.074219 L 591.28125 422.054688 L 594.492188 425.242188 L 597.59375 428.628906 L 600.570313 432.210938 L 603.417969 435.980469 L 606.121094 439.929688 L 608.675781 444.054688 L 611.070313 448.34375 L 613.296875 452.792969 L 615.347656 457.390625 L 617.214844 462.132813 L 618.890625 467.007813 L 620.371094 472.003906 L 621.644531 477.117188 L 622.710938 482.328125 L 623.5625 487.636719 L 624.195313 493.027344 L 624.601563 498.488281 L 624.78125 504.007813 L 624.734375 509.578125 L 624.449219 515.1875 L 623.933594 520.824219 L 623.179688 526.472656 L 622.191406 532.125 L 620.964844 537.773438 L 619.503906 543.398438 L 617.804688 548.992188 L 615.875 554.542969 L 613.710938 560.039063 L 611.316406 565.46875 L 608.699219 570.824219 L 605.859375 576.089844 L 602.800781 581.257813 L 599.527344 586.316406 L 596.050781 591.257813 L 592.371094 596.066406 L 588.496094 600.738281 L 584.433594 605.257813 L 580.191406 609.625 L 575.777344 613.824219 L 571.195313 617.847656 L 566.460938 621.6875 L 561.578125 625.34375 L 556.558594 628.796875 L 551.410156 632.050781 L 546.144531 635.097656 L 540.773438 637.929688 L 535.304688 640.539063 L 529.746094 642.929688 L 524.117188 645.089844 L 518.421875 647.023438 L 512.675781 648.71875 L 506.886719 650.183594 L 501.066406 651.410156 L 495.230469 652.398438 L 489.390625 653.148438 L 483.550781 653.660156 L 477.730469 653.933594 L 471.9375 653.976563 L 466.1875 653.78125 L 460.484375 653.355469 L 454.84375 652.703125 L 449.28125 651.824219 L 443.796875 650.726563 L 438.410156 649.410156 L 433.128906 647.886719 L 427.964844 646.15625 L 422.921875 644.230469 L 418.015625 642.109375 L 413.253906 639.808594 L 408.644531 637.328125 L 404.191406 634.679688 L 399.910156 631.867188 L 395.804688 628.90625 L 391.882813 625.804688 L 388.148438 622.570313 L 384.613281 619.210938 L 381.277344 615.742188 L 378.144531 612.167969 L 375.226563 608.503906 L 372.519531 604.757813 L 370.035156 600.945313 L 367.769531 597.070313 L 365.726563 593.152344 L 363.90625 589.195313 L 362.3125 585.21875 L 360.949219 581.226563 L 359.808594 577.234375 L 358.894531 573.25 L 358.203125 569.292969 L 357.738281 565.363281 L 357.492188 561.484375 L 357.460938 557.65625 L 357.644531 553.898438 L 358.039063 550.21875 L 358.640625 546.625 L 359.441406 543.132813 L 360.433594 539.746094 L 361.617188 536.480469 L 362.980469 533.34375 L 364.523438 530.339844 L 366.230469 527.484375 L 368.09375 524.785156 L 370.113281 522.246094 L 372.269531 519.875 L 374.5625 517.683594 L 376.980469 515.671875 L 379.507813 513.851563 L 382.140625 512.226563 L 384.871094 510.800781 L 387.679688 509.578125 L 390.558594 508.566406 L 393.503906 507.765625 L 396.496094 507.179688 L 399.527344 506.808594 L 402.585938 506.660156 L 405.660156 506.730469 L 408.738281 507.019531 L 411.808594 507.53125 L 414.859375 508.261719 L 417.882813 509.214844 L 420.863281 510.378906 L 423.789063 511.761719 L 426.652344 513.355469 L 429.441406 515.160156 L 432.144531 517.167969 L 434.75 519.375 L 437.25 521.777344 L 439.632813 524.367188 L 441.886719 527.144531 L 444.007813 530.09375 L 445.980469 533.214844 L 447.800781 536.5 L 449.457031 539.9375 L 450.945313 543.523438 L 452.253906 547.242188 L 453.378906 551.09375 L 454.308594 555.0625 L 455.042969 559.136719 L 455.574219 563.3125 L 455.894531 567.578125 L 456.003906 571.921875 L 455.894531 576.328125 L 455.566406 580.796875 L 455.011719 585.304688 L 454.234375 589.847656 L 453.226563 594.414063 L 451.988281 598.992188 L 450.519531 603.566406 L 448.824219 608.128906 L 446.898438 612.667969 L 444.742188 617.171875 L 442.359375 621.628906 L 439.753906 626.027344 L 436.921875 630.355469 L 433.875 634.605469 L 430.613281 638.761719 L 427.144531 642.8125 L 423.46875 646.753906 L 419.589844 650.574219 L 415.519531 654.257813 L 411.265625 657.800781 L 406.828125 661.191406 L 402.21875 664.417969 L 397.445313 667.480469 L 392.511719 670.363281 L 387.433594 673.0625 L 382.21875 675.566406 L 376.871094 677.871094 L 371.40625 679.972656 L 365.832031 681.863281 L 360.15625 683.535156 L 354.394531 684.988281 L 348.554688 686.214844 L 342.648438 687.210938 L 336.6875 687.976563 L 330.683594 688.503906 L 324.644531 688.796875 L 318.585938 688.851563 L 312.515625 688.664063 L 306.449219 688.242188 L 300.398438 687.578125 L 294.371094 686.675781 L 288.378906 685.535156 L 282.4375 684.164063 L 276.554688 682.554688 L 270.746094 680.722656 L 265.015625 678.660156 L 259.378906 676.382813 L 253.847656 673.882813 L 248.429688 671.175781 L 243.132813 668.265625 L 237.972656 665.152344 L 232.953125 661.851563 L 228.085938 658.363281 L 223.378906 654.703125 L 218.84375 650.871094 L 214.484375 646.878906 L 210.308594 642.734375 L 206.320313 638.453125 L 202.535156 634.035156 L 198.949219 629.5 L 195.574219 624.851563 L 192.414063 620.097656 L 189.472656 615.257813 L 186.753906 610.335938 L 184.261719 605.347656 L 181.996094 600.304688 L 179.960938 595.210938 L 178.15625 590.085938 L 176.585938 584.9375 L 175.25 579.777344 L 174.148438 574.621094 L 173.28125 569.472656 L 172.644531 564.351563 L 172.234375 559.261719 L 172.054688 554.21875 L 172.097656 549.238281 L 172.363281 544.320313 L 172.84375 539.484375 L 173.539063 534.738281 L 174.4375 530.09375 L 175.539063 525.558594 L 176.835938 521.144531 L 178.320313 516.859375 L 179.988281 512.714844 L 181.828125 508.71875 L 183.832031 504.875 L 185.992188 501.195313 L 188.304688 497.6875 L 190.753906 494.359375 L 193.332031 491.214844 L 196.03125 488.261719 L 198.839844 485.507813 L 201.75 482.953125 L 204.746094 480.601563 L 207.820313 478.464844 L 210.964844 476.539063 L 214.160156 474.832031 L 217.402344 473.339844 L 220.675781 472.070313 L 223.972656 471.023438 L 227.28125 470.195313 L 230.585938 469.589844 L 233.875 469.207031 L 237.144531 469.046875 L 240.375 469.101563 L 243.558594 469.375 L 246.6875 469.859375 L 249.742188 470.554688 L 252.71875 471.457031 L 255.605469 472.558594 L 258.390625 473.855469 L 261.0625 475.347656 L 263.617188 477.019531 L 266.039063 478.871094 L 268.324219 480.894531 L 270.457031 483.078125 L 272.4375 485.417969 L 274.25 487.90625 L 275.894531 490.535156 L 277.355469 493.289063 L 278.632813 496.164063 L 279.71875 499.152344 L 280.609375 502.238281 L 281.296875 505.410156 L 281.773438 508.664063 L 282.042969 511.988281 L 282.097656 515.367188 L 281.933594 518.792969 L 281.550781 522.253906 L 280.945313 525.738281 L 280.121094 529.234375 L 279.070313 532.730469 L 277.796875 536.214844 L 276.300781 539.679688 L 274.582031 543.105469 L 272.644531 546.488281 L 270.488281 549.816406 L 268.117188 553.074219 L 265.539063 556.253906 L 262.75 559.339844 L 259.757813 562.332031 L 256.566406 565.207031 L 253.1875 567.964844 L 249.617188 570.589844 L 245.871094 573.074219 L 241.953125 575.410156 L 237.867188 577.589844 L 233.625 579.597656 L 229.234375 581.433594 L 224.703125 583.085938 L 220.039063 584.550781 L 215.253906 585.816406 L 210.359375 586.882813 L 205.363281 587.738281 L 200.273438 588.378906 L 195.101563 588.804688 L 189.863281 589.007813 L 184.566406 588.984375 L 179.21875 588.730469 L 173.835938 588.246094 L 168.429688 587.53125 L 163.007813 586.578125 L 157.585938 585.390625 L 152.171875 583.96875 L 146.78125 582.3125 L 141.421875 580.421875 L 136.105469 578.296875 L 130.847656 575.945313 L 125.65625 573.363281 L 120.542969 570.558594 L 115.519531 567.53125 L 110.597656 564.289063 L 105.785156 560.835938 L 101.09375 557.179688 L 96.53125 553.320313 L 92.109375 549.269531 L 87.839844 545.035156 L 83.726563 540.617188 L 79.78125 536.03125 L 76.011719 531.28125 L 72.425781 526.378906 L 69.03125 521.332031 L 65.835938 516.148438 L 62.839844 510.835938 L 60.058594 505.410156 L 57.488281 499.882813 L 55.140625 494.253906 L 53.015625 488.546875 L 51.121094 482.761719 L 49.457031 476.917969 L 48.027344 471.019531 L 46.832031 465.085938 L 45.875 459.125 L 45.15625 453.144531 L 44.679688 447.164063 L 44.4375 441.1875 L 44.4375 435.230469 L 44.667969 429.304688 L 45.136719 423.417969 L 45.839844 417.589844 L 46.769531 411.820313 L 47.925781 406.128906 L 49.300781 400.523438 L 50.890625 395.015625 L 52.695313 389.613281 L 54.703125 384.332031 L 56.910156 379.175781 L 59.3125 374.152344 L 61.894531 369.277344 L 64.65625 364.558594 L 67.589844 360 L 70.679688 355.613281 L 73.921875 351.402344 L 77.308594 347.378906 L 80.828125 343.546875 L 84.46875 339.910156 L 88.226563 336.476563 L 92.082031 333.253906 L 96.03125 330.242188 L 100.0625 327.445313 L 104.160156 324.871094 L 108.320313 322.519531 L 112.523438 320.390625 L 116.765625 318.488281 L 121.03125 316.816406 L 125.308594 315.371094 L 129.589844 314.152344 L 133.855469 313.164063 L 138.105469 312.398438 L 142.316406 311.859375 L 146.484375 311.542969 L 150.597656 311.445313 L 154.644531 311.5625 L 158.613281 311.890625 L 162.492188 312.425781 L 166.273438 313.164063 L 169.949219 314.097656 L 173.503906 315.222656 L 176.929688 316.53125 L 180.21875 318.015625 L 183.363281 319.667969 L 186.351563 321.480469 L 189.179688 323.449219 L 191.839844 325.558594 L 194.320313 327.804688 L 196.617188 330.171875 L 198.726563 332.65625 L 200.644531 335.25 L 202.359375 337.933594 L 203.867188 340.703125 L 205.171875 343.546875 L 206.261719 346.453125 L 207.136719 349.410156 L 207.796875 352.40625 L 208.238281 355.433594 L 208.457031 358.476563 L 208.457031 361.523438 L 208.238281 364.566406 L 207.796875 367.59375 L 207.136719 370.589844 L 206.261719 373.546875 L 205.171875 376.453125 L 203.867188 379.296875 L 202.359375 382.066406 L 200.644531 384.75 L 198.726563 387.34375 L 196.617188 389.828125 L 194.320313 392.195313 L 191.839844 394.441406 L 189.179688 396.550781 L 186.351563 398.519531 L 183.363281 400.332031 L 180.21875 401.984375 L 176.929688 403.46875 L 173.503906 404.777344 L 169.949219 405.902344 L 166.273438 406.835938 L 162.492188 407.574219 L 158.613281 408.109375 L 154.644531 408.4375 L 150.597656 408.554688 L 146.484375 408.457031 L 142.316406 408.140625 L 138.105469 407.601563 L 133.855469 406.835938 L 129.589844 405.847656 L 125.308594 404.628906 L 121.03125 403.183594 L 116.765625 401.511719 L 112.523438 399.609375 L 108.320313 397.480469 L 104.160156 395.128906 L 100.0625 392.554688 L 96.03125 389.757813 L 92.082031 386.746094 L 88.226563 383.523438 L 84.46875 380.089844 L 80.828125 376.453125 L 77.308594 372.621094 L 73.921875 368.597656 L 70.679688 364.386719 L 67.589844 360 L 64.65625 355.441406 L 61.894531 350.722656 L 59.3125 345.847656 L 56.910156 340.824219 L 54.703125 335.667969 L 52.695313 330.386719 L 50.890625 324.984375 L 49.300781 319.476563 L 47.925781 313.871094 L 46.769531 308.179688 L 45.839844 302.410156 L 45.136719 296.582031 L 44.667969 290.695313 L 44.4375 284.769531 L 44.4375 278.8125 L 44.679688 272.835938 L 45.15625 266.855469 L 45.875 260.875 L 46.832031 254.914063 L 48.027344 248.980469 L 49.457031 243.082031 L 51.121094 237.238281 L 53.015625 231.453125 L 55.140625 225.746094 L 57.488281 220.117188 L 60.058594 214.589844 L 62.839844 209.164063 L 65.835938 203.851563 L 69.03125 198.667969 L 72.425781 193.621094 L 76.011719 188.71875 L 79.78125 183.96875 L 83.726563 179.382813 L 87.839844 174.964844 L 92.109375 170.730469 L 96.53125 166.679688 L 101.09375 162.820313 L 105.785156 159.164063 L 110.597656 155.710938 L 115.519531 152.46875 L 120.542969 149.441406 L 125.65625 146.636719 L 130.847656 144.054688 L 136.105469 141.703125 L 141.421875 139.578125 L 146.78125 137.6875 L 152.171875 136.03125 L 157.585938 134.609375 L 163.007813 133.421875 L 168.429688 132.46875 L 173.835938 131.753906 L 179.21875 131.269531 L 184.566406 131.015625 L 189.863281 130.992188 L 195.101563 131.195313 L 200.273438 131.621094 L 205.363281 132.261719 L 210.359375 133.117188 L 215.253906 134.183594 L 220.039063 135.449219 L 224.703125 136.914063 L 229.234375 138.566406 L 233.625 140.402344 L 237.867188 142.410156 L 241.953125 144.589844 L 245.871094 146.925781 L 249.617188 149.410156 L 253.1875 152.035156 L 256.566406 154.792969 L 259.757813 157.667969 L 262.75 160.660156 L 265.539063 163.746094 L 268.117188 166.925781 L 270.488281 170.183594 L 272.644531 173.511719 L 274.582031 176.894531 L 276.300781 180.320313 L 277.796875 183.785156 L 279.070313 187.269531 L 280.121094 190.765625 L 280.945313 194.261719 L 281.550781 197.746094 L 281.933594 201.207031 L 282.097656 204.632813 L 282.042969 208.011719 L 281.773438 211.335938 L 281.296875 214.589844 L 280.609375 217.761719 L 279.71875 220.847656 L 278.632813 223.835938 L 277.355469 226.710938 L 275.894531 229.464844 L 274.25 232.09375 L 272.4375 234.582031 L 270.457031 236.921875 L 268.324219 239.105469 L 266.039063 241.128906 L 263.617188 242.980469 L 261.0625 244.652344 L 258.390625 246.144531 L 255.605469 247.441406 L 252.71875 248.542969 L 249.742188 249.445313 L 246.6875 250.140625 L 243.558594 250.625 L 240.375 250.898438 L 237.144531 250.953125 L 233.875 250.792969 L 230.585938 250.410156 L 227.28125 249.804688 L 223.972656 248.976563 L 220.675781 247.929688 L 217.402344 246.660156 L 214.160156 245.167969 L 210.964844 243.460938 L 207.820313 241.535156 L 204.746094 239.398438 L 201.75 237.046875 L 198.839844 234.492188 L 196.03125 231.738281 L 193.332031 228.785156 L 190.753906 225.640625 L 188.304688 222.3125 L 185.992188 218.804688 L 183.832031 215.125 L 181.828125 211.28125 L 179.988281 207.285156 L 178.320313 203.140625 L 176.835938 198.855469 L 175.539063 194.441406 L 174.4375 189.90625 L 173.539063 185.261719 L 172.84375 180.515625 L 172.363281 175.679688 L 172.097656 170.761719 L 172.054688 165.78125 L 172.234375 160.738281 L 172.644531 155.648438 L 173.28125 150.527344 L 174.148438 145.378906 L 175.25 140.222656 L 176.585938 135.0625 L 178.15625 129.914063 L 179.960938 124.789063 L 181.996094 119.695313 L 184.261719 114.652344 L 186.753906 109.664063 L 189.472656 104.742188 L 192.414063 99.902344 L 195.574219 95.148438 L 198.949219 90.5 L 202.535156 85.964844 L 206.320313 81.546875 L 210.308594 77.265625 L 214.484375 73.121094 L 218.84375 69.128906 L 223.378906 65.296875 L 228.085938 61.636719 L 232.953125 58.148438 L 237.972656 54.847656 L 243.132813 51.734375 L 248.429688 48.824219 L 253.847656 46.117188 L 259.378906 43.617188 L 265.015625 41.339844 L 270.746094 39.277344 L 276.554688 37.445313 L 282.4375 35.835938 L 288.378906 34.464844 L 294.371094 33.324219 L 300.398438 32.421875 L 306.449219 31.757813 L 312.515625 31.335938 L 318.585938 31.148438 L 324.644531 31.203125 L 330.683594 31.496094 L 336.6875 32.023438 L 342.648438 32.789063 L 348.554688 33.785156 L 354.394531 35.011719 L 360.15625 36.464844 L 365.832031 38.136719 L 371.40625 40.027344 L 376.871094 42.128906 L 382.21875 44.433594 L 387.433594 46.9375 L 392.511719 49.636719 L 397.445313 52.519531 L 402.21875 55.582031 L 406.828125 58.808594 L 411.265625 62.199219 L 415.519531 65.742188 L 419.589844 69.425781 L 423.46875 73.246094 L 427.144531 77.1875 L 430.613281 81.238281 L 433.875 85.394531 L 436.921875 89.644531 L 439.753906 93.972656 L 442.359375 98.371094 L 444.742188 102.828125 L 446.898438 107.332031 L 448.824219 111.871094 L 450.519531 116.433594 L 451.988281 121.007813 L 453.226563 125.585938 L 454.234375 130.152344 L 455.011719 134.695313 L 455.566406 139.203125 L 455.894531 143.671875 L 456.003906 148.078125 L 455.894531 152.421875 L 455.574219 156.6875 L 455.042969 160.863281 L 454.308594 164.9375 L 453.378906 168.90625 L 452.253906 172.757813 L 450.945313 176.476563 L 449.457031 180.0625 L 447.800781 183.5 L 445.980469 186.785156 L 444.007813 189.90625 L 441.886719 192.855469 L 439.632813 195.632813 L 437.25 198.222656 L 434.75 200.625 L 432.144531 202.832031 L 429.441406 204.839844 L 426.652344 206.644531 L 423.789063 208.238281 L 420.863281 209.621094 L 417.882813 210.785156 L 414.859375 211.738281 L 411.808594 212.46875 L 408.738281 212.980469 L 405.660156 213.269531 L 402.585938 213.339844 L 399.527344 213.191406 L 396.496094 212.820313 L 393.503906 212.234375 L 390.558594 211.433594 L 387.679688 210.421875 L 384.871094 209.199219 L 382.140625 207.773438 L 379.507813 206.148438 L 376.980469 204.328125 L 374.5625 202.316406 L 372.269531 200.125 L 370.113281 197.753906 L 368.09375 195.214844 L 366.230469 192.515625 L 364.523438 189.660156 L 362.980469 186.65625 L 361.617188 183.519531 L 360.433594 180.253906 L 359.441406 176.867188 L 358.640625 173.375 L 358.039063 169.78125 L 357.644531 166.101563 L 357.460938 162.34375 L 357.492188 158.515625 L 357.738281 154.636719 L 358.203125 150.707031 L 358.894531 146.75 L 359.808594 142.765625 L 360.949219 138.773438 L 362.3125 134.78125 L 363.90625 130.804688 L 365.726563 126.847656 L 367.769531 122.929688 L 370.035156 119.054688 L 372.519531 115.242188 L 375.226563 111.496094 L 378.144531 107.832031 L 381.277344 104.257813 L 384.613281 100.789063 L 388.148438 97.429688 L 391.882813 94.195313 L 395.804688 91.09375 L 399.910156 88.132813 L 404.191406 85.320313 L 408.644531 82.671875 L 413.253906 80.191406 L 418.015625 77.890625 L 422.921875 75.769531 L 427.964844 73.84375 L 433.128906 72.113281 L 438.410156 70.589844 L 443.796875 69.273438 L 449.28125 68.175781 L 454.84375 67.296875 L 460.484375 66.644531 L 466.1875 66.21875 L 471.9375 66.023438 L 477.730469 66.066406 L 483.550781 66.339844 L 489.390625 66.851563 L 495.230469 67.601563 L 501.066406 68.589844 L 506.886719 69.816406 L 512.675781 71.28125 L 518.421875 72.976563 L 524.117188 74.910156 L 529.746094 77.070313 L 535.304688 79.460938 L 540.773438 82.070313 L 546.144531 84.902344 L 551.410156 87.949219 L 556.558594 91.203125 L 561.578125 94.65625 L 566.460938 98.3125 L 571.195313 102.152344 L 575.777344 106.175781 L 580.191406 110.375 L 584.433594 114.742188 L 588.496094 119.261719 L 592.371094 123.933594 L 596.050781 128.742188 L 599.527344 133.683594 L 602.800781 138.742188 L 605.859375 143.910156 L 608.699219 149.175781 L 611.316406 154.53125 L 613.710938 159.960938 L 615.875 165.457031 L 617.804688 171.007813 L 619.503906 176.601563 L 620.964844 182.226563 L 622.191406 187.875 L 623.179688 193.527344 L 623.933594 199.175781 L 624.449219 204.8125 L 624.734375 210.421875 L 624.78125 215.992188 L 624.601563 221.511719 L 624.195313 226.972656 L 623.5625 232.363281 L 622.710938 237.671875 L 621.644531 242.882813 L 620.371094 247.996094 L 618.890625 252.992188 L 617.214844 257.867188 L 615.347656 262.609375 L 613.296875 267.207031 L 611.070313 271.65625 L 608.675781 275.945313 L 606.121094 280.070313 L 603.417969 284.019531 L 600.570313 287.789063 L 597.59375 291.371094 L 594.492188 294.757813 L 591.28125 297.945313 L 587.96875 300.925781 L 584.5625 303.699219 L 581.078125 306.261719 L 577.523438 308.605469 L 573.914063 310.734375 L 570.257813 312.636719 L 566.566406 314.320313 L 562.847656 315.777344 L 559.121094 317.007813 L 555.394531 318.015625 L 551.675781 318.800781 L 547.980469 319.363281 L 544.320313 319.703125 L 540.707031 319.824219 L 537.148438 319.726563 L 533.65625 319.421875 L 530.242188 318.90625 L 526.917969 318.1875 L 523.695313 317.269531 L 520.578125 316.160156 L 517.582031 314.863281 L 514.714844 313.382813 L 511.984375 311.734375 L 509.398438 309.914063 L 506.96875 307.941406 L 504.703125 305.816406 L 502.605469 303.550781 L 500.683594 301.15625 L 498.949219 298.636719 L 497.402344 296.007813 L 496.050781 293.273438 L 494.898438 290.449219 L 493.953125 287.539063 L 493.21875 284.5625 L 492.691406 281.527344 L 492.382813 278.441406 L 492.292969 275.320313 L 492.421875 272.171875 L 492.769531 269.007813 L 493.339844 265.84375 L 494.128906 262.6875 L 495.140625 259.550781 L 496.371094 256.445313 L 497.820313 253.386719 L 499.484375 250.378906 L 501.359375 247.4375 L 503.445313 244.570313 L 505.738281 241.792969 L 508.230469 239.113281 L 510.917969 236.542969 L 513.792969 234.089844 L 516.855469 231.765625 L 520.09375 229.578125 L 523.5 227.539063 L 527.074219 225.652344 L 530.800781 223.933594 L 534.671875 222.382813 L 538.683594 221.015625 L 542.824219 219.835938 L 547.082031 218.847656 L 551.453125 218.058594 L 555.921875 217.472656 L 560.476563 217.101563 L 565.113281 216.941406 L 569.816406 217.003906 L 574.578125 217.285156 L 579.382813 217.796875 L 584.222656 218.535156 L 589.085938 219.5 L 593.957031 220.699219 L 598.832031 222.128906 L 603.691406 223.792969 L 608.53125 225.683594 L 613.332031 227.808594 L 618.089844 230.160156 L 622.789063 232.742188 L 627.417969 235.542969 L 631.964844 238.566406 L 636.421875 241.808594 L 640.78125 245.257813 L 645.023438 248.917969 L 649.144531 252.78125 L 653.132813 256.835938 L 656.976563 261.082031 L 660.671875 265.507813 L 664.203125 270.113281 L 667.570313 274.882813 L 670.757813 279.808594 L 673.757813 284.886719 L 676.570313 290.105469 L 679.179688 295.457031 L 681.585938 300.925781 L 683.78125 306.511719 L 685.761719 312.195313 L 687.519531 317.96875 L 689.050781 323.824219 L 690.351563 329.746094 L 691.421875 335.726563 L 692.257813 341.753906 L 692.855469 347.816406 L 693.214844 353.902344 Z M 693.332031 360 "/>
  </g>
  <g xmlns="http://www.w3.org/2000/svg" id="spiro_7_1_3_90115" transform=" scale(0.4 0.4) translate(540 540)">
    <path style=" stroke:none;fill-rule:evenodd;fill:rgb(100%,100%,100%);fill-opacity:1;" d="M 693.332031 360 L 693.25 362.792969 L 693 365.582031 L 692.582031 368.359375 L 692 371.117188 L 691.25 373.855469 L 690.339844 376.558594 L 689.265625 379.230469 L 688.027344 381.859375 L 686.628906 384.441406 L 685.074219 386.972656 L 683.367188 389.449219 L 681.5 391.859375 L 679.488281 394.199219 L 677.324219 396.46875 L 675.015625 398.65625 L 672.5625 400.761719 L 669.972656 402.777344 L 667.25 404.699219 L 664.390625 406.523438 L 661.40625 408.242188 L 658.296875 409.855469 L 655.066406 411.359375 L 651.722656 412.742188 L 648.265625 414.011719 L 644.707031 415.15625 L 641.042969 416.171875 L 637.28125 417.058594 L 633.429688 417.8125 L 629.492188 418.429688 L 625.472656 418.910156 L 621.378906 419.246094 L 617.210938 419.4375 L 612.980469 419.484375 L 608.691406 419.382813 L 604.351563 419.132813 L 599.960938 418.730469 L 595.527344 418.175781 L 591.058594 417.464844 L 586.558594 416.601563 L 582.035156 415.582031 L 577.496094 414.410156 L 572.941406 413.078125 L 568.382813 411.59375 L 563.820313 409.949219 L 559.269531 408.152344 L 554.726563 406.199219 L 550.199219 404.097656 L 545.699219 401.839844 L 541.226563 399.429688 L 536.789063 396.871094 L 532.394531 394.164063 L 528.042969 391.3125 L 523.746094 388.320313 L 519.503906 385.183594 L 515.328125 381.910156 L 511.21875 378.5 L 507.183594 374.957031 L 503.226563 371.285156 L 499.351563 367.488281 L 495.566406 363.570313 L 491.875 359.53125 L 488.28125 355.378906 L 484.785156 351.117188 L 481.398438 346.746094 L 478.125 342.277344 L 474.960938 337.707031 L 471.914063 333.050781 L 468.992188 328.300781 L 466.195313 323.472656 L 463.523438 318.566406 L 460.984375 313.585938 L 458.578125 308.539063 L 456.304688 303.433594 L 454.175781 298.269531 L 452.183594 293.054688 L 450.335938 287.796875 L 448.632813 282.5 L 447.074219 277.171875 L 445.664063 271.816406 L 444.40625 266.4375 L 443.292969 261.046875 L 442.332031 255.644531 L 441.519531 250.238281 L 440.855469 244.839844 L 440.347656 239.445313 L 439.984375 234.066406 L 439.777344 228.710938 L 439.714844 223.378906 L 439.800781 218.082031 L 440.035156 212.824219 L 440.414063 207.609375 L 440.9375 202.445313 L 441.605469 197.339844 L 442.410156 192.292969 L 443.355469 187.3125 L 444.433594 182.40625 L 445.648438 177.582031 L 446.992188 172.835938 L 448.460938 168.179688 L 450.054688 163.621094 L 451.769531 159.15625 L 453.601563 154.796875 L 455.546875 150.546875 L 457.601563 146.40625 L 459.761719 142.386719 L 462.019531 138.484375 L 464.378906 134.710938 L 466.828125 131.0625 L 469.363281 127.546875 L 471.980469 124.171875 L 474.675781 120.933594 L 477.445313 117.839844 L 480.28125 114.886719 L 483.175781 112.085938 L 486.132813 109.4375 L 489.136719 106.9375 L 492.1875 104.597656 L 495.277344 102.410156 L 498.398438 100.386719 L 501.550781 98.519531 L 504.726563 96.816406 L 507.917969 95.273438 L 511.121094 93.894531 L 514.328125 92.683594 L 517.535156 91.632813 L 520.734375 90.746094 L 523.921875 90.023438 L 527.089844 89.46875 L 530.230469 89.074219 L 533.34375 88.84375 L 536.421875 88.773438 L 539.453125 88.863281 L 542.441406 89.113281 L 545.371094 89.523438 L 548.246094 90.085938 L 551.054688 90.800781 L 553.792969 91.667969 L 556.453125 92.683594 L 559.035156 93.847656 L 561.53125 95.152344 L 563.933594 96.597656 L 566.242188 98.179688 L 568.449219 99.894531 L 570.550781 101.738281 L 572.542969 103.707031 L 574.421875 105.796875 L 576.179688 108.007813 L 577.816406 110.328125 L 579.328125 112.761719 L 580.707031 115.296875 L 581.953125 117.929688 L 583.0625 120.660156 L 584.035156 123.476563 L 584.859375 126.378906 L 585.539063 129.363281 L 586.070313 132.417969 L 586.453125 135.542969 L 586.679688 138.730469 L 586.753906 141.972656 L 586.667969 145.269531 L 586.425781 148.613281 L 586.027344 151.992188 L 585.464844 155.410156 L 584.742188 158.855469 L 583.855469 162.320313 L 582.808594 165.804688 L 581.597656 169.296875 L 580.222656 172.796875 L 578.6875 176.292969 L 576.992188 179.785156 L 575.132813 183.261719 L 573.113281 186.71875 L 570.9375 190.152344 L 568.601563 193.554688 L 566.113281 196.921875 L 563.46875 200.242188 L 560.671875 203.519531 L 557.722656 206.742188 L 554.628906 209.90625 L 551.390625 213.007813 L 548.011719 216.039063 L 544.492188 218.996094 L 540.835938 221.875 L 537.050781 224.667969 L 533.132813 227.371094 L 529.09375 229.984375 L 524.933594 232.496094 L 520.65625 234.90625 L 516.265625 237.210938 L 511.769531 239.402344 L 507.167969 241.480469 L 502.46875 243.441406 L 497.675781 245.28125 L 492.792969 246.996094 L 487.828125 248.582031 L 482.785156 250.035156 L 477.671875 251.359375 L 472.488281 252.542969 L 467.242188 253.589844 L 461.941406 254.496094 L 456.589844 255.261719 L 451.195313 255.878906 L 445.757813 256.355469 L 440.289063 256.683594 L 434.796875 256.859375 L 429.28125 256.890625 L 423.75 256.773438 L 418.207031 256.503906 L 412.664063 256.085938 L 407.125 255.519531 L 401.59375 254.804688 L 396.078125 253.9375 L 390.582031 252.921875 L 385.113281 251.761719 L 379.679688 250.457031 L 374.28125 249.007813 L 368.929688 247.414063 L 363.628906 245.679688 L 358.382813 243.804688 L 353.195313 241.796875 L 348.078125 239.652344 L 343.03125 237.378906 L 338.066406 234.976563 L 333.179688 232.449219 L 328.382813 229.796875 L 323.675781 227.027344 L 319.070313 224.144531 L 314.566406 221.152344 L 310.167969 218.050781 L 305.878906 214.84375 L 301.707031 211.542969 L 297.652344 208.144531 L 293.722656 204.65625 L 289.921875 201.085938 L 286.246094 197.433594 L 282.707031 193.710938 L 279.304688 189.914063 L 276.042969 186.054688 L 272.921875 182.132813 L 269.945313 178.160156 L 267.113281 174.140625 L 264.433594 170.074219 L 261.90625 165.976563 L 259.527344 161.84375 L 257.308594 157.6875 L 255.242188 153.511719 L 253.328125 149.320313 L 251.578125 145.125 L 249.980469 140.925781 L 248.542969 136.730469 L 247.265625 132.546875 L 246.144531 128.378906 L 245.179688 124.230469 L 244.375 120.113281 L 243.726563 116.03125 L 243.230469 111.984375 L 242.890625 107.988281 L 242.703125 104.039063 L 242.667969 100.152344 L 242.78125 96.324219 L 243.042969 92.566406 L 243.445313 88.882813 L 243.992188 85.277344 L 244.679688 81.757813 L 245.503906 78.328125 L 246.460938 74.992188 L 247.546875 71.757813 L 248.761719 68.625 L 250.101563 65.605469 L 251.554688 62.695313 L 253.128906 59.90625 L 254.8125 57.238281 L 256.601563 54.699219 L 258.492188 52.285156 L 260.484375 50.011719 L 262.566406 47.871094 L 264.738281 45.875 L 266.992188 44.019531 L 269.324219 42.3125 L 271.730469 40.757813 L 274.203125 39.351563 L 276.738281 38.105469 L 279.332031 37.011719 L 281.972656 36.078125 L 284.660156 35.304688 L 287.390625 34.695313 L 290.152344 34.25 L 292.941406 33.964844 L 295.753906 33.847656 L 298.582031 33.898438 L 301.417969 34.113281 L 304.261719 34.496094 L 307.101563 35.046875 L 309.9375 35.761719 L 312.757813 36.644531 L 315.558594 37.691406 L 318.335938 38.902344 L 321.082031 40.273438 L 323.792969 41.8125 L 326.460938 43.507813 L 329.078125 45.359375 L 331.644531 47.371094 L 334.152344 49.535156 L 336.597656 51.851563 L 338.96875 54.316406 L 341.269531 56.925781 L 343.484375 59.679688 L 345.621094 62.574219 L 347.664063 65.601563 L 349.613281 68.765625 L 351.464844 72.054688 L 353.210938 75.472656 L 354.851563 79.007813 L 356.378906 82.664063 L 357.789063 86.425781 L 359.082031 90.300781 L 360.25 94.277344 L 361.292969 98.347656 L 362.207031 102.515625 L 362.984375 106.769531 L 363.628906 111.105469 L 364.132813 115.519531 L 364.496094 120.003906 L 364.71875 124.554688 L 364.792969 129.167969 L 364.722656 133.835938 L 364.503906 138.550781 L 364.132813 143.3125 L 363.613281 148.109375 L 362.941406 152.9375 L 362.113281 157.789063 L 361.132813 162.664063 L 360 167.550781 L 358.710938 172.445313 L 357.273438 177.339844 L 355.675781 182.234375 L 353.929688 187.113281 L 352.03125 191.980469 L 349.980469 196.824219 L 347.785156 201.636719 L 345.4375 206.417969 L 342.941406 211.160156 L 340.304688 215.855469 L 337.527344 220.5 L 334.605469 225.089844 L 331.550781 229.617188 L 328.355469 234.074219 L 325.035156 238.460938 L 321.582031 242.769531 L 318.007813 246.996094 L 314.308594 251.136719 L 310.492188 255.183594 L 306.5625 259.132813 L 302.519531 262.980469 L 298.375 266.722656 L 294.128906 270.355469 L 289.785156 273.875 L 285.347656 277.273438 L 280.824219 280.554688 L 276.21875 283.710938 L 271.535156 286.738281 L 266.78125 289.632813 L 261.957031 292.394531 L 257.074219 295.023438 L 252.136719 297.507813 L 247.144531 299.855469 L 242.109375 302.054688 L 237.039063 304.113281 L 231.929688 306.023438 L 226.796875 307.785156 L 221.640625 309.398438 L 216.46875 310.859375 L 211.289063 312.167969 L 206.105469 313.328125 L 200.921875 314.335938 L 195.75 315.191406 L 190.589844 315.894531 L 185.453125 316.445313 L 180.339844 316.847656 L 175.261719 317.097656 L 170.21875 317.203125 L 165.222656 317.15625 L 160.277344 316.964844 L 155.382813 316.628906 L 150.554688 316.148438 L 145.789063 315.53125 L 141.101563 314.773438 L 136.488281 313.878906 L 131.957031 312.855469 L 127.515625 311.699219 L 123.167969 310.417969 L 118.921875 309.011719 L 114.773438 307.484375 L 110.738281 305.84375 L 106.8125 304.089844 L 103.003906 302.226563 L 99.316406 300.257813 L 95.757813 298.191406 L 92.324219 296.03125 L 89.023438 293.777344 L 85.859375 291.441406 L 82.839844 289.019531 L 79.957031 286.527344 L 77.222656 283.960938 L 74.640625 281.328125 L 72.207031 278.636719 L 69.925781 275.890625 L 67.800781 273.09375 L 65.835938 270.253906 L 64.03125 267.375 L 62.386719 264.464844 L 60.902344 261.527344 L 59.585938 258.570313 L 58.429688 255.597656 L 57.441406 252.617188 L 56.617188 249.632813 L 55.960938 246.652344 L 55.46875 243.679688 L 55.144531 240.722656 L 54.984375 237.789063 L 54.984375 234.875 L 55.152344 232 L 55.480469 229.160156 L 55.972656 226.363281 L 56.621094 223.617188 L 57.425781 220.925781 L 58.390625 218.296875 L 59.503906 215.734375 L 60.773438 213.242188 L 62.1875 210.824219 L 63.746094 208.492188 L 65.449219 206.246094 L 67.289063 204.09375 L 69.265625 202.039063 L 71.375 200.082031 L 73.613281 198.234375 L 75.972656 196.496094 L 78.457031 194.875 L 81.054688 193.371094 L 83.765625 191.988281 L 86.582031 190.734375 L 89.5 189.613281 L 92.515625 188.625 L 95.625 187.769531 L 98.820313 187.058594 L 102.097656 186.488281 L 105.453125 186.0625 L 108.878906 185.789063 L 112.371094 185.660156 L 115.925781 185.6875 L 119.53125 185.867188 L 123.1875 186.203125 L 126.886719 186.695313 L 130.625 187.34375 L 134.394531 188.15625 L 138.1875 189.125 L 142 190.253906 L 145.828125 191.542969 L 149.664063 192.992188 L 153.5 194.605469 L 157.332031 196.375 L 161.15625 198.304688 L 164.964844 200.394531 L 168.746094 202.636719 L 172.503906 205.039063 L 176.230469 207.59375 L 179.914063 210.304688 L 183.554688 213.164063 L 187.144531 216.171875 L 190.675781 219.324219 L 194.148438 222.621094 L 197.554688 226.058594 L 200.886719 229.636719 L 204.144531 233.34375 L 207.320313 237.1875 L 210.410156 241.15625 L 213.40625 245.25 L 216.308594 249.460938 L 219.109375 253.792969 L 221.808594 258.234375 L 224.394531 262.78125 L 226.871094 267.429688 L 229.230469 272.179688 L 231.472656 277.023438 L 233.589844 281.953125 L 235.578125 286.964844 L 237.441406 292.058594 L 239.171875 297.222656 L 240.765625 302.453125 L 242.222656 307.746094 L 243.539063 313.09375 L 244.714844 318.492188 L 245.75 323.9375 L 246.636719 329.417969 L 247.378906 334.933594 L 247.976563 340.476563 L 248.421875 346.039063 L 248.722656 351.617188 L 248.871094 357.203125 L 248.871094 362.796875 L 248.722656 368.382813 L 248.421875 373.960938 L 247.976563 379.523438 L 247.378906 385.066406 L 246.636719 390.582031 L 245.75 396.0625 L 244.714844 401.507813 L 243.539063 406.90625 L 242.222656 412.253906 L 240.765625 417.546875 L 239.171875 422.777344 L 237.441406 427.941406 L 235.578125 433.035156 L 233.589844 438.046875 L 231.472656 442.976563 L 229.230469 447.820313 L 226.871094 452.570313 L 224.394531 457.21875 L 221.808594 461.765625 L 219.109375 466.207031 L 216.308594 470.539063 L 213.40625 474.75 L 210.410156 478.84375 L 207.320313 482.8125 L 204.144531 486.65625 L 200.886719 490.363281 L 197.554688 493.941406 L 194.148438 497.378906 L 190.675781 500.675781 L 187.144531 503.828125 L 183.554688 506.835938 L 179.914063 509.695313 L 176.230469 512.40625 L 172.503906 514.960938 L 168.746094 517.363281 L 164.964844 519.605469 L 161.15625 521.695313 L 157.332031 523.625 L 153.5 525.394531 L 149.664063 527.007813 L 145.828125 528.457031 L 142 529.746094 L 138.1875 530.875 L 134.394531 531.84375 L 130.625 532.65625 L 126.886719 533.304688 L 123.1875 533.796875 L 119.53125 534.132813 L 115.925781 534.3125 L 112.371094 534.339844 L 108.878906 534.210938 L 105.453125 533.9375 L 102.097656 533.511719 L 98.820313 532.941406 L 95.625 532.230469 L 92.515625 531.375 L 89.5 530.386719 L 86.582031 529.265625 L 83.765625 528.011719 L 81.054688 526.628906 L 78.457031 525.125 L 75.972656 523.503906 L 73.613281 521.765625 L 71.375 519.917969 L 69.265625 517.960938 L 67.289063 515.90625 L 65.449219 513.753906 L 63.746094 511.507813 L 62.1875 509.175781 L 60.773438 506.757813 L 59.503906 504.265625 L 58.390625 501.703125 L 57.425781 499.074219 L 56.621094 496.382813 L 55.972656 493.636719 L 55.480469 490.839844 L 55.152344 488 L 54.984375 485.125 L 54.984375 482.210938 L 55.144531 479.277344 L 55.46875 476.320313 L 55.960938 473.347656 L 56.617188 470.367188 L 57.441406 467.382813 L 58.429688 464.402344 L 59.585938 461.429688 L 60.902344 458.472656 L 62.386719 455.535156 L 64.03125 452.625 L 65.835938 449.746094 L 67.800781 446.90625 L 69.925781 444.109375 L 72.207031 441.363281 L 74.640625 438.671875 L 77.222656 436.039063 L 79.957031 433.472656 L 82.839844 430.980469 L 85.859375 428.558594 L 89.023438 426.222656 L 92.324219 423.96875 L 95.757813 421.808594 L 99.316406 419.742188 L 103.003906 417.773438 L 106.8125 415.910156 L 110.738281 414.15625 L 114.773438 412.515625 L 118.921875 410.988281 L 123.167969 409.582031 L 127.515625 408.300781 L 131.957031 407.144531 L 136.488281 406.121094 L 141.101563 405.226563 L 145.789063 404.46875 L 150.554688 403.851563 L 155.382813 403.371094 L 160.277344 403.035156 L 165.222656 402.84375 L 170.21875 402.796875 L 175.261719 402.902344 L 180.339844 403.152344 L 185.453125 403.554688 L 190.589844 404.105469 L 195.75 404.808594 L 200.921875 405.664063 L 206.105469 406.671875 L 211.289063 407.832031 L 216.46875 409.140625 L 221.640625 410.601563 L 226.796875 412.214844 L 231.929688 413.976563 L 237.039063 415.886719 L 242.109375 417.945313 L 247.144531 420.144531 L 252.136719 422.492188 L 257.074219 424.976563 L 261.957031 427.605469 L 266.78125 430.367188 L 271.535156 433.261719 L 276.21875 436.289063 L 280.824219 439.445313 L 285.347656 442.726563 L 289.785156 446.125 L 294.128906 449.644531 L 298.375 453.277344 L 302.519531 457.019531 L 306.5625 460.867188 L 310.492188 464.816406 L 314.308594 468.863281 L 318.007813 473.003906 L 321.582031 477.230469 L 325.035156 481.539063 L 328.355469 485.925781 L 331.550781 490.382813 L 334.605469 494.910156 L 337.527344 499.5 L 340.304688 504.144531 L 342.941406 508.839844 L 345.4375 513.582031 L 347.785156 518.363281 L 349.980469 523.175781 L 352.03125 528.019531 L 353.929688 532.886719 L 355.675781 537.765625 L 357.273438 542.660156 L 358.710938 547.554688 L 360 552.449219 L 361.132813 557.335938 L 362.113281 562.210938 L 362.941406 567.0625 L 363.613281 571.890625 L 364.132813 576.6875 L 364.503906 581.449219 L 364.722656 586.164063 L 364.792969 590.832031 L 364.71875 595.445313 L 364.496094 599.996094 L 364.132813 604.480469 L 363.628906 608.894531 L 362.984375 613.230469 L 362.207031 617.484375 L 361.292969 621.652344 L 360.25 625.722656 L 359.082031 629.699219 L 357.789063 633.574219 L 356.378906 637.335938 L 354.851563 640.992188 L 353.210938 644.527344 L 351.464844 647.945313 L 349.613281 651.234375 L 347.664063 654.398438 L 345.621094 657.425781 L 343.484375 660.320313 L 341.269531 663.074219 L 338.96875 665.683594 L 336.597656 668.148438 L 334.152344 670.464844 L 331.644531 672.628906 L 329.078125 674.640625 L 326.460938 676.492188 L 323.792969 678.1875 L 321.082031 679.726563 L 318.335938 681.097656 L 315.558594 682.308594 L 312.757813 683.355469 L 309.9375 684.238281 L 307.101563 684.953125 L 304.261719 685.503906 L 301.417969 685.886719 L 298.582031 686.101563 L 295.753906 686.152344 L 292.941406 686.035156 L 290.152344 685.75 L 287.390625 685.304688 L 284.660156 684.695313 L 281.972656 683.921875 L 279.332031 682.988281 L 276.738281 681.894531 L 274.203125 680.648438 L 271.730469 679.242188 L 269.324219 677.6875 L 266.992188 675.980469 L 264.738281 674.125 L 262.566406 672.128906 L 260.484375 669.988281 L 258.492188 667.714844 L 256.601563 665.300781 L 254.8125 662.761719 L 253.128906 660.09375 L 251.554688 657.304688 L 250.101563 654.394531 L 248.761719 651.375 L 247.546875 648.242188 L 246.460938 645.007813 L 245.503906 641.671875 L 244.679688 638.242188 L 243.992188 634.722656 L 243.445313 631.117188 L 243.042969 627.433594 L 242.78125 623.675781 L 242.667969 619.847656 L 242.703125 615.960938 L 242.890625 612.011719 L 243.230469 608.015625 L 243.726563 603.96875 L 244.375 599.886719 L 245.179688 595.769531 L 246.144531 591.621094 L 247.265625 587.453125 L 248.542969 583.269531 L 249.980469 579.074219 L 251.578125 574.875 L 253.328125 570.679688 L 255.242188 566.488281 L 257.308594 562.3125 L 259.527344 558.15625 L 261.90625 554.023438 L 264.433594 549.925781 L 267.113281 545.859375 L 269.945313 541.839844 L 272.921875 537.867188 L 276.042969 533.945313 L 279.304688 530.085938 L 282.707031 526.289063 L 286.246094 522.566406 L 289.921875 518.914063 L 293.722656 515.34375 L 297.652344 511.855469 L 301.707031 508.457031 L 305.878906 505.15625 L 310.167969 501.949219 L 314.566406 498.847656 L 319.070313 495.855469 L 323.675781 492.972656 L 328.382813 490.203125 L 333.179688 487.550781 L 338.066406 485.023438 L 343.03125 482.621094 L 348.078125 480.347656 L 353.195313 478.203125 L 358.382813 476.195313 L 363.628906 474.320313 L 368.929688 472.585938 L 374.28125 470.992188 L 379.679688 469.542969 L 385.113281 468.238281 L 390.582031 467.078125 L 396.078125 466.0625 L 401.59375 465.195313 L 407.125 464.480469 L 412.664063 463.914063 L 418.207031 463.496094 L 423.75 463.226563 L 429.28125 463.109375 L 434.796875 463.140625 L 440.289063 463.316406 L 445.757813 463.644531 L 451.195313 464.121094 L 456.589844 464.738281 L 461.941406 465.503906 L 467.242188 466.410156 L 472.488281 467.457031 L 477.671875 468.640625 L 482.785156 469.964844 L 487.828125 471.417969 L 492.792969 473.003906 L 497.675781 474.71875 L 502.46875 476.558594 L 507.167969 478.519531 L 511.769531 480.597656 L 516.265625 482.789063 L 520.65625 485.09375 L 524.933594 487.503906 L 529.09375 490.015625 L 533.132813 492.628906 L 537.050781 495.332031 L 540.835938 498.125 L 544.492188 501.003906 L 548.011719 503.960938 L 551.390625 506.992188 L 554.628906 510.09375 L 557.722656 513.257813 L 560.671875 516.480469 L 563.46875 519.757813 L 566.113281 523.078125 L 568.601563 526.445313 L 570.9375 529.847656 L 573.113281 533.28125 L 575.132813 536.738281 L 576.992188 540.214844 L 578.6875 543.707031 L 580.222656 547.203125 L 581.597656 550.703125 L 582.808594 554.195313 L 583.855469 557.679688 L 584.742188 561.144531 L 585.464844 564.589844 L 586.027344 568.007813 L 586.425781 571.386719 L 586.667969 574.730469 L 586.753906 578.027344 L 586.679688 581.269531 L 586.453125 584.457031 L 586.070313 587.582031 L 585.539063 590.636719 L 584.859375 593.621094 L 584.035156 596.523438 L 583.0625 599.339844 L 581.953125 602.070313 L 580.707031 604.703125 L 579.328125 607.238281 L 577.816406 609.671875 L 576.179688 611.992188 L 574.421875 614.203125 L 572.542969 616.292969 L 570.550781 618.261719 L 568.449219 620.105469 L 566.242188 621.820313 L 563.933594 623.402344 L 561.53125 624.847656 L 559.035156 626.152344 L 556.453125 627.316406 L 553.792969 628.332031 L 551.054688 629.199219 L 548.246094 629.914063 L 545.371094 630.476563 L 542.441406 630.886719 L 539.453125 631.136719 L 536.421875 631.226563 L 533.34375 631.15625 L 530.230469 630.925781 L 527.089844 630.53125 L 523.921875 629.976563 L 520.734375 629.253906 L 517.535156 628.367188 L 514.328125 627.316406 L 511.121094 626.105469 L 507.917969 624.726563 L 504.726563 623.183594 L 501.550781 621.480469 L 498.398438 619.613281 L 495.277344 617.589844 L 492.1875 615.402344 L 489.136719 613.0625 L 486.132813 610.5625 L 483.175781 607.914063 L 480.28125 605.113281 L 477.445313 602.160156 L 474.675781 599.066406 L 471.980469 595.828125 L 469.363281 592.453125 L 466.828125 588.9375 L 464.378906 585.289063 L 462.019531 581.515625 L 459.761719 577.613281 L 457.601563 573.59375 L 455.546875 569.453125 L 453.601563 565.203125 L 451.769531 560.84375 L 450.054688 556.378906 L 448.460938 551.820313 L 446.992188 547.164063 L 445.648438 542.417969 L 444.433594 537.59375 L 443.355469 532.6875 L 442.410156 527.707031 L 441.605469 522.660156 L 440.9375 517.554688 L 440.414063 512.390625 L 440.035156 507.175781 L 439.800781 501.917969 L 439.714844 496.621094 L 439.777344 491.289063 L 439.984375 485.933594 L 440.347656 480.554688 L 440.855469 475.160156 L 441.519531 469.761719 L 442.332031 464.355469 L 443.292969 458.953125 L 444.40625 453.5625 L 445.664063 448.183594 L 447.074219 442.828125 L 448.632813 437.5 L 450.335938 432.203125 L 452.183594 426.945313 L 454.175781 421.730469 L 456.304688 416.566406 L 458.578125 411.460938 L 460.984375 406.414063 L 463.523438 401.433594 L 466.195313 396.527344 L 468.992188 391.699219 L 471.914063 386.949219 L 474.960938 382.292969 L 478.125 377.722656 L 481.398438 373.253906 L 484.785156 368.882813 L 488.28125 364.621094 L 491.875 360.46875 L 495.566406 356.429688 L 499.351563 352.511719 L 503.226563 348.714844 L 507.183594 345.042969 L 511.21875 341.5 L 515.328125 338.089844 L 519.503906 334.816406 L 523.746094 331.679688 L 528.042969 328.6875 L 532.394531 325.835938 L 536.789063 323.128906 L 541.226563 320.570313 L 545.699219 318.160156 L 550.199219 315.902344 L 554.726563 313.800781 L 559.269531 311.847656 L 563.820313 310.050781 L 568.382813 308.40625 L 572.941406 306.921875 L 577.496094 305.589844 L 582.035156 304.417969 L 586.558594 303.398438 L 591.058594 302.535156 L 595.527344 301.824219 L 599.960938 301.269531 L 604.351563 300.867188 L 608.691406 300.617188 L 612.980469 300.515625 L 617.210938 300.5625 L 621.378906 300.753906 L 625.472656 301.089844 L 629.492188 301.570313 L 633.429688 302.1875 L 637.28125 302.941406 L 641.042969 303.828125 L 644.707031 304.84375 L 648.265625 305.988281 L 651.722656 307.257813 L 655.066406 308.640625 L 658.296875 310.144531 L 661.40625 311.757813 L 664.390625 313.476563 L 667.25 315.300781 L 669.972656 317.222656 L 672.5625 319.238281 L 675.015625 321.34375 L 677.324219 323.53125 L 679.488281 325.800781 L 681.5 328.140625 L 683.367188 330.550781 L 685.074219 333.027344 L 686.628906 335.558594 L 688.027344 338.140625 L 689.265625 340.769531 L 690.339844 343.441406 L 691.25 346.144531 L 692 348.882813 L 692.582031 351.640625 L 693 354.417969 L 693.25 357.207031 Z M 693.332031 360 "/>
  </g>
</svg>
