<?xml version="1.0" encoding="UTF-8"?>
<svg xmlns="http://www.w3.org/2000/svg" xmlns:xlink="http://www.w3.org/1999/xlink" width="100%" height="100%" viewBox="0 0 720 720" version="1.1">
  <g id="spiro_3_1_1_14075">
    <path style=" stroke:none;fill-rule:evenodd;fill:rgb(25.490196%,41.176471%,88.235294%);fill-opacity:0.501961;" d="M 693.332031 360 L 693.121094 360 L 693.003906 359.996094 L 692.859375 359.992188 L 692.6875 359.992188 L 692.488281 359.984375 L 692.265625 359.980469 L 692.015625 359.972656 L 691.738281 359.964844 L 691.4375 359.953125 L 691.109375 359.9375 L 690.753906 359.925781 L 690.375 359.90625 L 689.964844 359.886719 L 689.535156 359.863281 L 689.074219 359.839844 L 688.589844 359.8125 L 688.078125 359.78125 L 687.542969 359.746094 L 686.980469 359.707031 L 686.394531 359.664063 L 685.78125 359.621094 L 685.144531 359.570313 L 684.480469 359.515625 L 683.789063 359.460938 L 683.074219 359.398438 L 682.335938 359.332031 L 681.570313 359.261719 L 680.78125 359.183594 L 679.96875 359.101563 L 679.128906 359.015625 L 678.265625 358.925781 L 677.375 358.828125 L 676.460938 358.726563 L 675.523438 358.617188 L 674.5625 358.503906 L 673.578125 358.382813 L 672.566406 358.257813 L 671.535156 358.125 L 670.476563 357.988281 L 669.394531 357.84375 L 668.289063 357.691406 L 667.160156 357.53125 L 666.011719 357.363281 L 664.835938 357.191406 L 663.636719 357.011719 L 662.417969 356.824219 L 661.175781 356.628906 L 659.90625 356.425781 L 658.621094 356.214844 L 657.308594 355.996094 L 655.976563 355.769531 L 654.621094 355.535156 L 653.246094 355.292969 L 651.847656 355.042969 L 650.429688 354.785156 L 648.988281 354.515625 L 647.523438 354.238281 L 646.042969 353.953125 L 644.539063 353.660156 L 643.015625 353.355469 L 641.46875 353.042969 L 639.902344 352.71875 L 638.320313 352.390625 L 636.714844 352.046875 L 635.089844 351.699219 L 633.445313 351.339844 L 631.78125 350.96875 L 630.097656 350.589844 L 628.394531 350.199219 L 626.675781 349.800781 L 624.9375 349.390625 L 623.179688 348.972656 L 621.402344 348.542969 L 619.609375 348.101563 L 617.796875 347.652344 L 615.96875 347.191406 L 614.121094 346.71875 L 612.257813 346.238281 L 610.378906 345.746094 L 608.484375 345.242188 L 606.570313 344.726563 L 604.640625 344.203125 L 602.695313 343.664063 L 600.734375 343.117188 L 598.753906 342.5625 L 596.761719 341.992188 L 594.757813 341.410156 L 592.734375 340.820313 L 590.695313 340.214844 L 588.644531 339.601563 L 586.578125 338.976563 L 584.5 338.339844 L 582.40625 337.691406 L 580.300781 337.03125 L 578.179688 336.359375 L 576.046875 335.679688 L 573.902344 334.984375 L 571.742188 334.277344 L 569.574219 333.5625 L 567.390625 332.832031 L 565.195313 332.089844 L 562.988281 331.339844 L 560.773438 330.574219 L 558.542969 329.800781 L 556.304688 329.011719 L 554.054688 328.214844 L 551.796875 327.402344 L 549.527344 326.582031 L 547.246094 325.746094 L 544.957031 324.902344 L 542.660156 324.046875 L 540.351563 323.175781 L 538.035156 322.296875 L 535.710938 321.402344 L 533.378906 320.5 L 531.035156 319.585938 L 528.6875 318.660156 L 526.332031 317.71875 L 523.96875 316.769531 L 521.597656 315.808594 L 519.21875 314.835938 L 516.835938 313.851563 L 514.445313 312.855469 L 512.050781 311.851563 L 509.648438 310.832031 L 507.242188 309.804688 L 504.832031 308.761719 L 502.414063 307.710938 L 499.992188 306.648438 L 497.566406 305.574219 L 495.136719 304.492188 L 492.703125 303.394531 L 490.265625 302.289063 L 487.824219 301.171875 L 485.382813 300.042969 L 482.9375 298.90625 L 480.488281 297.757813 L 478.035156 296.597656 L 475.582031 295.425781 L 473.128906 294.246094 L 470.671875 293.054688 L 468.214844 291.855469 L 465.753906 290.644531 L 463.292969 289.425781 L 460.835938 288.195313 L 458.375 286.953125 L 455.914063 285.703125 L 453.453125 284.445313 L 450.996094 283.175781 L 448.539063 281.894531 L 446.082031 280.609375 L 443.625 279.3125 L 441.167969 278.003906 L 438.71875 276.691406 L 436.265625 275.367188 L 433.816406 274.035156 L 431.371094 272.691406 L 428.929688 271.34375 L 426.488281 269.984375 L 424.054688 268.621094 L 421.621094 267.246094 L 419.191406 265.863281 L 416.765625 264.472656 L 414.34375 263.074219 L 411.929688 261.671875 L 409.519531 260.257813 L 407.109375 258.835938 L 404.710938 257.410156 L 402.3125 255.976563 L 399.925781 254.535156 L 397.539063 253.089844 L 395.160156 251.632813 L 392.789063 250.175781 L 390.425781 248.707031 L 388.066406 247.234375 L 385.714844 245.757813 L 383.371094 244.273438 L 381.035156 242.78125 L 378.707031 241.289063 L 376.386719 239.785156 L 374.074219 238.28125 L 371.769531 236.769531 L 369.472656 235.257813 L 367.1875 233.738281 L 364.910156 232.210938 L 362.640625 230.683594 L 360.378906 229.152344 L 358.128906 227.617188 L 355.890625 226.078125 L 353.660156 224.535156 L 351.441406 222.988281 L 349.234375 221.4375 L 347.035156 219.886719 L 344.847656 218.332031 L 342.667969 216.773438 L 340.503906 215.214844 L 338.351563 213.652344 L 336.207031 212.085938 L 334.074219 210.519531 L 331.957031 208.953125 L 329.851563 207.386719 L 327.753906 205.816406 L 325.671875 204.246094 L 323.601563 202.671875 L 321.546875 201.101563 L 319.503906 199.53125 L 317.472656 197.957031 L 315.453125 196.386719 L 313.449219 194.8125 L 311.460938 193.242188 L 309.480469 191.671875 L 307.519531 190.101563 L 305.570313 188.53125 L 303.636719 186.964844 L 301.714844 185.398438 L 299.808594 183.835938 L 297.917969 182.273438 L 296.039063 180.714844 L 294.179688 179.15625 L 292.332031 177.601563 L 290.5 176.050781 L 288.683594 174.5 L 286.882813 172.957031 L 285.097656 171.414063 L 283.324219 169.875 L 281.570313 168.339844 L 279.832031 166.8125 L 278.109375 165.285156 L 276.402344 163.765625 L 274.714844 162.246094 L 273.039063 160.738281 L 271.382813 159.230469 L 269.742188 157.730469 L 268.117188 156.234375 L 266.507813 154.746094 L 264.917969 153.265625 L 263.34375 151.789063 L 261.785156 150.320313 L 260.242188 148.855469 L 258.71875 147.402344 L 257.214844 145.953125 L 255.726563 144.511719 L 254.253906 143.078125 L 252.796875 141.652344 L 251.363281 140.238281 L 249.941406 138.828125 L 248.539063 137.429688 L 247.15625 136.039063 L 245.789063 134.65625 L 244.441406 133.28125 L 243.109375 131.921875 L 241.792969 130.566406 L 240.5 129.222656 L 239.222656 127.890625 L 237.960938 126.566406 L 236.71875 125.253906 L 235.496094 123.953125 L 234.289063 122.664063 L 233.101563 121.382813 L 231.929688 120.117188 L 230.777344 118.859375 L 229.644531 117.617188 L 228.53125 116.382813 L 227.433594 115.164063 L 226.351563 113.957031 L 225.292969 112.761719 L 224.246094 111.582031 L 223.222656 110.410156 L 222.214844 109.257813 L 221.226563 108.113281 L 220.257813 106.988281 L 219.304688 105.875 L 218.367188 104.773438 L 217.453125 103.6875 L 216.554688 102.617188 L 215.675781 101.5625 L 214.8125 100.519531 L 213.96875 99.496094 L 213.140625 98.484375 L 212.332031 97.492188 L 211.542969 96.511719 L 210.769531 95.546875 L 210.015625 94.601563 L 209.277344 93.671875 L 208.558594 92.753906 L 207.855469 91.859375 L 207.171875 90.976563 L 206.503906 90.113281 L 205.855469 89.265625 L 205.222656 88.4375 L 204.609375 87.625 L 204.011719 86.832031 L 203.433594 86.058594 L 202.871094 85.300781 L 202.328125 84.558594 L 201.796875 83.839844 L 201.289063 83.136719 L 200.792969 82.453125 L 200.316406 81.785156 L 199.855469 81.140625 L 199.410156 80.515625 L 198.984375 79.90625 L 198.574219 79.320313 L 198.179688 78.75 L 197.800781 78.203125 L 197.4375 77.675781 L 197.09375 77.167969 L 196.761719 76.679688 L 196.152344 75.765625 L 195.867188 75.339844 L 195.601563 74.933594 L 195.351563 74.546875 L 195.113281 74.183594 L 194.894531 73.84375 L 194.6875 73.519531 L 194.5 73.222656 L 194.324219 72.941406 L 194.160156 72.6875 L 194.015625 72.453125 L 193.882813 72.238281 L 193.765625 72.046875 L 193.664063 71.878906 L 193.574219 71.734375 L 193.5 71.609375 L 193.441406 71.507813 L 193.394531 71.425781 L 193.359375 71.371094 L 193.339844 71.335938 L 193.332031 71.324219 L 193.339844 71.335938 L 193.359375 71.371094 L 193.390625 71.429688 L 193.4375 71.507813 L 193.496094 71.613281 L 193.566406 71.738281 L 193.648438 71.890625 L 193.742188 72.0625 L 193.847656 72.257813 L 193.96875 72.480469 L 194.097656 72.722656 L 194.238281 72.992188 L 194.394531 73.28125 L 194.558594 73.597656 L 194.734375 73.933594 L 194.917969 74.296875 L 195.117188 74.683594 L 195.324219 75.09375 L 195.542969 75.527344 L 195.769531 75.984375 L 196.007813 76.464844 L 196.253906 76.972656 L 196.511719 77.5 L 196.78125 78.054688 L 197.058594 78.632813 L 197.34375 79.234375 L 197.636719 79.859375 L 197.941406 80.507813 L 198.253906 81.183594 L 198.574219 81.882813 L 198.902344 82.601563 L 199.238281 83.347656 L 199.585938 84.117188 L 199.9375 84.914063 L 200.296875 85.730469 L 200.667969 86.574219 L 201.042969 87.4375 L 201.421875 88.328125 L 201.8125 89.242188 L 202.207031 90.179688 L 202.609375 91.140625 L 203.019531 92.125 L 203.433594 93.136719 L 203.855469 94.167969 L 204.28125 95.226563 L 204.714844 96.304688 L 205.152344 97.410156 L 205.59375 98.535156 L 206.042969 99.6875 L 206.492188 100.859375 L 206.949219 102.058594 L 207.414063 103.28125 L 207.878906 104.523438 L 208.347656 105.792969 L 208.824219 107.082031 L 209.300781 108.394531 L 209.785156 109.730469 L 210.269531 111.089844 L 210.757813 112.472656 L 211.246094 113.875 L 211.742188 115.304688 L 212.238281 116.753906 L 212.738281 118.226563 L 213.238281 119.71875 L 213.742188 121.234375 L 214.25 122.773438 L 214.757813 124.335938 L 215.265625 125.917969 L 215.777344 127.519531 L 216.289063 129.148438 L 216.800781 130.792969 L 217.316406 132.460938 L 217.828125 134.152344 L 218.34375 135.863281 L 218.859375 137.59375 L 219.375 139.347656 L 219.890625 141.121094 L 220.40625 142.914063 L 220.921875 144.730469 L 221.4375 146.5625 L 221.953125 148.417969 L 222.464844 150.292969 L 222.976563 152.1875 L 223.488281 154.101563 L 224 156.035156 L 224.507813 157.988281 L 225.015625 159.960938 L 225.519531 161.953125 L 226.023438 163.960938 L 226.523438 165.988281 L 227.023438 168.035156 L 227.519531 170.101563 L 228.011719 172.1875 L 228.503906 174.289063 L 228.992188 176.40625 L 229.476563 178.542969 L 229.960938 180.699219 L 230.4375 182.871094 L 230.914063 185.058594 L 231.382813 187.265625 L 231.851563 189.484375 L 232.316406 191.722656 L 232.777344 193.980469 L 233.234375 196.25 L 233.683594 198.535156 L 234.132813 200.835938 L 234.574219 203.15625 L 235.011719 205.488281 L 235.445313 207.835938 L 235.871094 210.199219 L 236.296875 212.574219 L 236.714844 214.964844 L 237.125 217.371094 L 237.53125 219.789063 L 237.933594 222.222656 L 238.328125 224.667969 L 238.71875 227.128906 L 239.105469 229.601563 L 239.480469 232.085938 L 239.851563 234.582031 L 240.21875 237.09375 L 240.578125 239.613281 L 240.929688 242.148438 L 241.277344 244.691406 L 241.617188 247.25 L 241.949219 249.816406 L 242.277344 252.394531 L 242.59375 254.984375 L 242.90625 257.582031 L 243.210938 260.191406 L 243.507813 262.808594 L 243.800781 265.4375 L 244.082031 268.074219 L 244.359375 270.722656 L 244.628906 273.378906 L 244.886719 276.042969 L 245.140625 278.714844 L 245.386719 281.394531 L 245.621094 284.082031 L 245.851563 286.777344 L 246.074219 289.480469 L 246.285156 292.1875 L 246.492188 294.90625 L 246.691406 297.628906 L 246.878906 300.355469 L 247.058594 303.089844 L 247.230469 305.832031 L 247.394531 308.578125 L 247.550781 311.328125 L 247.699219 314.082031 L 247.839844 316.84375 L 247.96875 319.609375 L 248.089844 322.375 L 248.203125 325.148438 L 248.308594 327.921875 L 248.40625 330.703125 L 248.492188 333.484375 L 248.570313 336.269531 L 248.640625 339.054688 L 248.703125 341.84375 L 248.757813 344.632813 L 248.800781 347.425781 L 248.835938 350.21875 L 248.863281 353.011719 L 248.878906 355.808594 L 248.886719 358.601563 L 248.886719 361.398438 L 248.878906 364.191406 L 248.863281 366.988281 L 248.835938 369.78125 L 248.800781 372.574219 L 248.757813 375.367188 L 248.703125 378.15625 L 248.640625 380.945313 L 248.570313 383.730469 L 248.492188 386.515625 L 248.40625 389.296875 L 248.308594 392.078125 L 248.203125 394.851563 L 248.089844 397.625 L 247.96875 400.390625 L 247.839844 403.15625 L 247.699219 405.917969 L 247.550781 408.671875 L 247.394531 411.421875 L 247.230469 414.167969 L 247.058594 416.910156 L 246.878906 419.644531 L 246.691406 422.371094 L 246.492188 425.09375 L 246.285156 427.8125 L 246.074219 430.519531 L 245.851563 433.222656 L 245.621094 435.917969 L 245.386719 438.605469 L 245.140625 441.285156 L 244.886719 443.957031 L 244.628906 446.621094 L 244.359375 449.277344 L 244.082031 451.925781 L 243.800781 454.5625 L 243.507813 457.191406 L 243.210938 459.808594 L 242.90625 462.417969 L 242.59375 465.015625 L 242.277344 467.605469 L 241.949219 470.183594 L 241.617188 472.75 L 241.277344 475.308594 L 240.929688 477.851563 L 240.578125 480.386719 L 240.21875 482.90625 L 239.851563 485.417969 L 239.480469 487.914063 L 239.105469 490.398438 L 238.71875 492.871094 L 238.328125 495.332031 L 237.933594 497.777344 L 237.53125 500.210938 L 237.125 502.628906 L 236.714844 505.035156 L 236.296875 507.425781 L 235.871094 509.800781 L 235.445313 512.164063 L 235.011719 514.511719 L 234.574219 516.84375 L 234.132813 519.164063 L 233.683594 521.464844 L 233.234375 523.75 L 232.777344 526.019531 L 232.316406 528.277344 L 231.851563 530.515625 L 231.382813 532.734375 L 230.914063 534.941406 L 230.4375 537.128906 L 229.960938 539.300781 L 229.476563 541.457031 L 228.992188 543.59375 L 228.503906 545.710938 L 228.011719 547.8125 L 227.519531 549.898438 L 227.023438 551.964844 L 226.523438 554.011719 L 226.023438 556.039063 L 225.519531 558.046875 L 225.015625 560.039063 L 224.507813 562.011719 L 224 563.964844 L 223.488281 565.898438 L 222.976563 567.8125 L 222.464844 569.707031 L 221.953125 571.582031 L 221.4375 573.4375 L 220.921875 575.269531 L 220.40625 577.085938 L 219.890625 578.878906 L 219.375 580.652344 L 218.859375 582.40625 L 218.34375 584.136719 L 217.828125 585.847656 L 217.316406 587.539063 L 216.800781 589.207031 L 216.289063 590.851563 L 215.777344 592.480469 L 215.265625 594.082031 L 214.757813 595.664063 L 214.25 597.226563 L 213.742188 598.765625 L 213.238281 600.28125 L 212.738281 601.773438 L 212.238281 603.246094 L 211.742188 604.695313 L 211.246094 606.125 L 210.757813 607.527344 L 210.269531 608.910156 L 209.785156 610.269531 L 209.300781 611.605469 L 208.824219 612.917969 L 208.347656 614.207031 L 207.878906 615.476563 L 207.414063 616.71875 L 206.949219 617.941406 L 206.492188 619.140625 L 206.042969 620.3125 L 205.59375 621.464844 L 205.152344 622.589844 L 204.714844 623.695313 L 204.28125 624.773438 L 203.855469 625.832031 L 203.433594 626.863281 L 203.019531 627.875 L 202.609375 628.859375 L 202.207031 629.820313 L 201.8125 630.757813 L 201.421875 631.671875 L 201.042969 632.5625 L 200.667969 633.425781 L 200.296875 634.269531 L 199.9375 635.085938 L 199.585938 635.882813 L 199.238281 636.652344 L 198.902344 637.398438 L 198.574219 638.117188 L 198.253906 638.816406 L 197.941406 639.492188 L 197.636719 640.140625 L 197.34375 640.765625 L 197.058594 641.367188 L 196.78125 641.945313 L 196.511719 642.5 L 196.253906 643.027344 L 196.007813 643.535156 L 195.769531 644.015625 L 195.542969 644.472656 L 195.324219 644.90625 L 195.117188 645.316406 L 194.917969 645.703125 L 194.734375 646.066406 L 194.558594 646.402344 L 194.394531 646.71875 L 194.238281 647.007813 L 194.097656 647.277344 L 193.96875 647.519531 L 193.847656 647.742188 L 193.742188 647.9375 L 193.648438 648.109375 L 193.566406 648.261719 L 193.496094 648.386719 L 193.4375 648.492188 L 193.390625 648.570313 L 193.359375 648.628906 L 193.339844 648.664063 L 193.332031 648.675781 L 193.339844 648.664063 L 193.359375 648.628906 L 193.394531 648.574219 L 193.441406 648.492188 L 193.5 648.390625 L 193.574219 648.265625 L 193.664063 648.121094 L 193.765625 647.953125 L 193.882813 647.761719 L 194.015625 647.546875 L 194.160156 647.3125 L 194.324219 647.058594 L 194.5 646.777344 L 194.6875 646.480469 L 194.894531 646.15625 L 195.113281 645.816406 L 195.351563 645.453125 L 195.601563 645.066406 L 195.867188 644.660156 L 196.152344 644.234375 L 196.761719 643.320313 L 197.09375 642.832031 L 197.4375 642.324219 L 197.800781 641.796875 L 198.179688 641.25 L 198.574219 640.679688 L 198.984375 640.09375 L 199.410156 639.484375 L 199.855469 638.859375 L 200.316406 638.214844 L 200.792969 637.546875 L 201.289063 636.863281 L 201.796875 636.160156 L 202.328125 635.441406 L 202.871094 634.699219 L 203.433594 633.941406 L 204.011719 633.167969 L 204.609375 632.375 L 205.222656 631.5625 L 205.855469 630.734375 L 206.503906 629.886719 L 207.171875 629.023438 L 207.855469 628.140625 L 208.558594 627.246094 L 209.277344 626.328125 L 210.015625 625.398438 L 210.769531 624.453125 L 211.542969 623.488281 L 212.332031 622.507813 L 213.140625 621.515625 L 213.96875 620.503906 L 214.8125 619.480469 L 215.675781 618.4375 L 216.554688 617.382813 L 217.453125 616.3125 L 218.367188 615.226563 L 219.304688 614.125 L 220.257813 613.011719 L 221.226563 611.886719 L 222.214844 610.742188 L 223.222656 609.589844 L 224.246094 608.417969 L 225.292969 607.238281 L 226.351563 606.042969 L 227.433594 604.835938 L 228.53125 603.617188 L 229.644531 602.382813 L 230.777344 601.140625 L 231.929688 599.882813 L 233.101563 598.617188 L 234.289063 597.335938 L 235.496094 596.046875 L 236.71875 594.746094 L 237.960938 593.433594 L 239.222656 592.109375 L 240.5 590.777344 L 241.792969 589.433594 L 243.109375 588.078125 L 244.441406 586.71875 L 245.789063 585.34375 L 247.15625 583.960938 L 248.539063 582.570313 L 249.941406 581.171875 L 251.363281 579.761719 L 252.796875 578.347656 L 254.253906 576.921875 L 255.726563 575.488281 L 257.214844 574.046875 L 258.71875 572.597656 L 260.242188 571.144531 L 261.785156 569.679688 L 263.34375 568.210938 L 264.917969 566.734375 L 266.507813 565.253906 L 268.117188 563.765625 L 269.742188 562.269531 L 271.382813 560.769531 L 273.039063 559.261719 L 274.714844 557.753906 L 276.402344 556.234375 L 278.109375 554.714844 L 279.832031 553.1875 L 281.570313 551.660156 L 283.324219 550.125 L 285.097656 548.585938 L 286.882813 547.042969 L 288.683594 545.5 L 290.5 543.949219 L 292.332031 542.398438 L 294.179688 540.84375 L 296.039063 539.285156 L 297.917969 537.726563 L 299.808594 536.164063 L 301.714844 534.601563 L 303.636719 533.035156 L 305.570313 531.46875 L 307.519531 529.898438 L 309.480469 528.328125 L 311.460938 526.757813 L 313.449219 525.1875 L 315.453125 523.613281 L 317.472656 522.042969 L 319.503906 520.46875 L 321.546875 518.898438 L 323.601563 517.328125 L 325.671875 515.753906 L 327.753906 514.183594 L 329.851563 512.613281 L 331.957031 511.046875 L 334.074219 509.480469 L 336.207031 507.914063 L 338.351563 506.347656 L 340.503906 504.785156 L 342.667969 503.226563 L 344.847656 501.667969 L 347.035156 500.113281 L 349.234375 498.5625 L 351.441406 497.011719 L 353.660156 495.464844 L 355.890625 493.921875 L 358.128906 492.382813 L 360.378906 490.847656 L 362.640625 489.316406 L 364.910156 487.789063 L 367.1875 486.261719 L 369.472656 484.742188 L 371.769531 483.230469 L 374.074219 481.71875 L 376.386719 480.214844 L 378.707031 478.710938 L 381.035156 477.21875 L 383.371094 475.726563 L 385.714844 474.242188 L 388.066406 472.765625 L 390.425781 471.292969 L 392.789063 469.824219 L 395.160156 468.367188 L 397.539063 466.910156 L 399.925781 465.464844 L 402.3125 464.023438 L 404.710938 462.589844 L 407.109375 461.164063 L 409.519531 459.742188 L 411.929688 458.328125 L 414.34375 456.925781 L 416.765625 455.527344 L 419.191406 454.136719 L 421.621094 452.753906 L 424.054688 451.378906 L 426.488281 450.015625 L 428.929688 448.65625 L 431.371094 447.308594 L 433.816406 445.964844 L 436.265625 444.632813 L 438.71875 443.308594 L 441.167969 441.996094 L 443.625 440.6875 L 446.082031 439.390625 L 448.539063 438.105469 L 450.996094 436.824219 L 453.453125 435.554688 L 455.914063 434.296875 L 458.375 433.046875 L 460.835938 431.804688 L 463.292969 430.574219 L 465.753906 429.355469 L 468.214844 428.144531 L 470.671875 426.945313 L 473.128906 425.753906 L 475.582031 424.574219 L 478.035156 423.402344 L 480.488281 422.242188 L 482.9375 421.09375 L 485.382813 419.957031 L 487.824219 418.828125 L 490.265625 417.710938 L 492.703125 416.605469 L 495.136719 415.507813 L 497.566406 414.425781 L 499.992188 413.351563 L 502.414063 412.289063 L 504.832031 411.238281 L 507.242188 410.195313 L 509.648438 409.167969 L 512.050781 408.148438 L 514.445313 407.144531 L 516.835938 406.148438 L 519.21875 405.164063 L 521.597656 404.191406 L 523.96875 403.230469 L 526.332031 402.28125 L 528.6875 401.339844 L 531.035156 400.414063 L 533.378906 399.5 L 535.710938 398.597656 L 538.035156 397.703125 L 540.351563 396.824219 L 542.660156 395.953125 L 544.957031 395.097656 L 547.246094 394.253906 L 549.527344 393.417969 L 551.796875 392.597656 L 554.054688 391.785156 L 556.304688 390.988281 L 558.542969 390.199219 L 560.773438 389.425781 L 562.988281 388.660156 L 565.195313 387.910156 L 567.390625 387.167969 L 569.574219 386.4375 L 571.742188 385.722656 L 573.902344 385.015625 L 576.046875 384.320313 L 578.179688 383.640625 L 580.300781 382.96875 L 582.40625 382.308594 L 584.5 381.660156 L 586.578125 381.023438 L 588.644531 380.398438 L 590.695313 379.785156 L 592.734375 379.179688 L 594.757813 378.589844 L 596.761719 378.007813 L 598.753906 377.4375 L 600.734375 376.882813 L 602.695313 376.335938 L 604.640625 375.796875 L 606.570313 375.273438 L 608.484375 374.757813 L 610.378906 374.253906 L 612.257813 373.761719 L 614.121094 373.28125 L 615.96875 372.808594 L 617.796875 372.347656 L 619.609375 371.898438 L 621.402344 371.457031 L 623.179688 371.027344 L 624.9375 370.609375 L 626.675781 370.199219 L 628.394531 369.800781 L 630.097656 369.410156 L 631.78125 369.03125 L 633.445313 368.660156 L 635.089844 368.300781 L 636.714844 367.953125 L 638.320313 367.609375 L 639.902344 367.28125 L 641.46875 366.957031 L 643.015625 366.644531 L 644.539063 366.339844 L 646.042969 366.046875 L 647.523438 365.761719 L 648.988281 365.484375 L 650.429688 365.214844 L 651.847656 364.957031 L 653.246094 364.707031 L 654.621094 364.464844 L 655.976563 364.230469 L 657.308594 364.003906 L 658.621094 363.785156 L 659.90625 363.574219 L 661.175781 363.371094 L 662.417969 363.175781 L 663.636719 362.988281 L 664.835938 362.808594 L 666.011719 362.636719 L 667.160156 362.46875 L 668.289063 362.308594 L 669.394531 362.15625 L 670.476563 362.011719 L 671.535156 361.875 L 672.566406 361.742188 L 673.578125 361.617188 L 674.5625 361.496094 L 675.523438 361.382813 L 676.460938 361.273438 L 677.375 361.171875 L 678.265625 361.074219 L 679.128906 360.984375 L 679.96875 360.898438 L 680.78125 360.816406 L 681.570313 360.738281 L 682.335938 360.667969 L 683.074219 360.601563 L 683.789063 360.539063 L 684.480469 360.484375 L 685.144531 360.429688 L 685.78125 360.378906 L 686.394531 360.335938 L 686.980469 360.292969 L 687.542969 360.253906 L 688.078125 360.21875 L 688.589844 360.1875 L 689.074219 360.160156 L 689.535156 360.136719 L 689.964844 360.113281 L 690.375 360.09375 L 690.753906 360.074219 L 691.109375 360.0625 L 691.4375 360.046875 L 691.738281 360.035156 L 692.015625 360.027344 L 692.265625 360.019531 L 692.488281 360.015625 L 692.6875 360.007813 L 692.859375 360.007813 L 693.003906 360.003906 L 693.121094 360 Z M 693.332031 360 "/>
  </g>
  <g xmlns="http://www.w3.org/2000/svg" id="spiro_3_1_1_37370">
    <path style=" stroke:none;fill-rule:evenodd;fill:rgb(69.803922%,13.333333%,13.333333%);fill-opacity:0.501961;" d="M 615.347656 574.261719 L 615.339844 574.253906 L 615.308594 574.226563 L 615.257813 574.1875 L 615.1875 574.125 L 615.097656 574.046875 L 614.988281 573.953125 L 614.859375 573.839844 L 614.710938 573.710938 L 614.542969 573.5625 L 614.355469 573.394531 L 614.152344 573.210938 L 613.925781 573.007813 L 613.683594 572.785156 L 613.421875 572.546875 L 613.140625 572.289063 L 612.839844 572.011719 L 612.523438 571.714844 L 612.1875 571.402344 L 611.835938 571.070313 L 611.464844 570.71875 L 611.078125 570.347656 L 610.671875 569.957031 L 610.246094 569.546875 L 609.808594 569.117188 L 609.351563 568.667969 L 608.875 568.203125 L 608.382813 567.714844 L 607.878906 567.207031 L 607.351563 566.679688 L 606.8125 566.136719 L 606.257813 565.570313 L 605.683594 564.984375 L 605.097656 564.378906 L 604.496094 563.753906 L 603.875 563.109375 L 603.242188 562.441406 L 602.59375 561.757813 L 601.929688 561.050781 L 601.253906 560.324219 L 600.558594 559.582031 L 599.851563 558.8125 L 599.132813 558.027344 L 598.398438 557.222656 L 597.648438 556.394531 L 596.886719 555.546875 L 596.109375 554.679688 L 595.324219 553.792969 L 594.519531 552.886719 L 593.707031 551.957031 L 592.878906 551.007813 L 592.039063 550.039063 L 591.1875 549.050781 L 590.324219 548.039063 L 589.449219 547.011719 L 588.5625 545.960938 L 587.664063 544.890625 L 586.753906 543.796875 L 585.835938 542.6875 L 584.902344 541.554688 L 583.960938 540.402344 L 583.007813 539.230469 L 582.046875 538.039063 L 581.074219 536.828125 L 580.089844 535.59375 L 579.097656 534.34375 L 578.097656 533.070313 L 577.085938 531.777344 L 576.066406 530.464844 L 575.039063 529.132813 L 574 527.777344 L 572.957031 526.40625 L 571.902344 525.015625 L 570.839844 523.601563 L 569.773438 522.171875 L 568.695313 520.71875 L 567.609375 519.25 L 566.519531 517.757813 L 565.421875 516.25 L 564.316406 514.722656 L 563.207031 513.171875 L 562.089844 511.605469 L 560.964844 510.019531 L 559.835938 508.414063 L 558.699219 506.792969 L 557.558594 505.148438 L 556.414063 503.488281 L 555.261719 501.808594 L 554.105469 500.109375 L 552.945313 498.394531 L 551.78125 496.660156 L 550.613281 494.90625 L 549.441406 493.132813 L 548.265625 491.34375 L 547.082031 489.539063 L 545.898438 487.714844 L 544.714844 485.871094 L 543.523438 484.011719 L 542.332031 482.136719 L 541.136719 480.242188 L 539.9375 478.328125 L 538.738281 476.402344 L 537.535156 474.457031 L 536.332031 472.496094 L 535.128906 470.519531 L 533.921875 468.523438 L 532.714844 466.515625 L 531.507813 464.488281 L 530.296875 462.445313 L 529.085938 460.386719 L 527.878906 458.3125 L 526.667969 456.226563 L 525.457031 454.121094 L 524.246094 452 L 523.035156 449.867188 L 521.828125 447.71875 L 520.617188 445.554688 L 519.410156 443.378906 L 518.203125 441.1875 L 517 438.980469 L 515.796875 436.761719 L 514.59375 434.527344 L 513.394531 432.28125 L 512.195313 430.019531 L 511 427.746094 L 509.808594 425.460938 L 508.617188 423.164063 L 507.429688 420.851563 L 506.242188 418.527344 L 505.058594 416.191406 L 503.882813 413.847656 L 502.707031 411.488281 L 501.535156 409.117188 L 500.367188 406.734375 L 499.203125 404.34375 L 498.042969 401.9375 L 496.886719 399.523438 L 495.734375 397.101563 L 494.585938 394.664063 L 493.445313 392.21875 L 492.308594 389.765625 L 491.175781 387.300781 L 490.046875 384.828125 L 488.925781 382.347656 L 487.808594 379.855469 L 486.699219 377.355469 L 485.59375 374.847656 L 484.492188 372.332031 L 483.398438 369.808594 L 482.3125 367.277344 L 481.230469 364.738281 L 480.15625 362.191406 L 479.089844 359.640625 L 478.027344 357.078125 L 476.972656 354.511719 L 475.925781 351.941406 L 474.886719 349.363281 L 473.851563 346.78125 L 472.824219 344.191406 L 471.804688 341.59375 L 470.792969 338.996094 L 469.789063 336.390625 L 468.792969 333.785156 L 467.804688 331.171875 L 466.824219 328.554688 L 465.855469 325.933594 L 464.890625 323.3125 L 463.933594 320.683594 L 462.984375 318.054688 L 462.046875 315.421875 L 461.117188 312.789063 L 460.191406 310.152344 L 459.28125 307.511719 L 458.375 304.871094 L 457.480469 302.230469 L 456.589844 299.589844 L 455.714844 296.945313 L 454.84375 294.300781 L 453.984375 291.65625 L 453.132813 289.015625 L 452.292969 286.371094 L 451.460938 283.726563 L 450.636719 281.085938 L 449.824219 278.445313 L 449.019531 275.804688 L 448.226563 273.167969 L 447.441406 270.53125 L 446.664063 267.894531 L 445.898438 265.265625 L 445.144531 262.636719 L 444.398438 260.007813 L 443.664063 257.386719 L 442.9375 254.769531 L 442.21875 252.152344 L 441.515625 249.542969 L 440.816406 246.933594 L 440.132813 244.332031 L 439.453125 241.734375 L 438.789063 239.140625 L 438.132813 236.554688 L 437.484375 233.972656 L 436.851563 231.398438 L 436.222656 228.828125 L 435.609375 226.265625 L 435.003906 223.710938 L 434.40625 221.160156 L 433.820313 218.621094 L 433.246094 216.085938 L 432.679688 213.558594 L 432.125 211.042969 L 431.582031 208.53125 L 431.046875 206.03125 L 430.519531 203.539063 L 430.003906 201.054688 L 429.5 198.582031 L 429.007813 196.117188 L 428.523438 193.660156 L 428.046875 191.21875 L 427.582031 188.78125 L 427.128906 186.359375 L 426.683594 183.945313 L 426.246094 181.546875 L 425.820313 179.15625 L 425.40625 176.777344 L 425 174.410156 L 424.605469 172.058594 L 424.21875 169.714844 L 423.839844 167.386719 L 423.472656 165.070313 L 423.117188 162.769531 L 422.769531 160.476563 L 422.429688 158.203125 L 422.101563 155.941406 L 421.78125 153.691406 L 421.46875 151.457031 L 421.167969 149.238281 L 420.875 147.035156 L 420.589844 144.84375 L 420.316406 142.671875 L 420.050781 140.511719 L 419.792969 138.371094 L 419.542969 136.242188 L 419.304688 134.132813 L 419.070313 132.039063 L 418.847656 129.960938 L 418.632813 127.898438 L 418.425781 125.855469 L 418.230469 123.828125 L 418.039063 121.820313 L 417.855469 119.828125 L 417.683594 117.855469 L 417.515625 115.898438 L 417.359375 113.960938 L 417.207031 112.042969 L 417.0625 110.144531 L 416.925781 108.261719 L 416.796875 106.402344 L 416.675781 104.558594 L 416.5625 102.734375 L 416.453125 100.929688 L 416.351563 99.148438 L 416.257813 97.382813 L 416.167969 95.640625 L 416.089844 93.917969 L 416.011719 92.214844 L 415.945313 90.53125 L 415.882813 88.871094 L 415.824219 87.230469 L 415.773438 85.613281 L 415.730469 84.015625 L 415.6875 82.441406 L 415.65625 80.886719 L 415.625 79.351563 L 415.601563 77.84375 L 415.582031 76.355469 L 415.570313 74.890625 L 415.5625 73.445313 L 415.554688 72.027344 L 415.554688 70.628906 L 415.558594 69.253906 L 415.570313 67.902344 L 415.582031 66.574219 L 415.597656 65.269531 L 415.617188 63.988281 L 415.640625 62.730469 L 415.667969 61.492188 L 415.699219 60.285156 L 415.734375 59.097656 L 415.769531 57.933594 L 415.808594 56.796875 L 415.851563 55.679688 L 415.894531 54.589844 L 415.941406 53.523438 L 415.992188 52.484375 L 416.042969 51.46875 L 416.097656 50.476563 L 416.152344 49.507813 L 416.207031 48.566406 L 416.265625 47.648438 L 416.324219 46.757813 L 416.382813 45.890625 L 416.445313 45.050781 L 416.507813 44.234375 L 416.570313 43.441406 L 416.632813 42.675781 L 416.695313 41.9375 L 416.757813 41.222656 L 416.820313 40.535156 L 416.882813 39.871094 L 416.945313 39.234375 L 417.007813 38.621094 L 417.066406 38.035156 L 417.128906 37.476563 L 417.1875 36.941406 L 417.246094 36.433594 L 417.300781 35.953125 L 417.355469 35.496094 L 417.410156 35.066406 L 417.460938 34.664063 L 417.507813 34.285156 L 417.554688 33.933594 L 417.601563 33.605469 L 417.640625 33.304688 L 417.679688 33.03125 L 417.71875 32.785156 L 417.75 32.5625 L 417.78125 32.367188 L 417.804688 32.199219 L 417.828125 32.054688 L 417.847656 31.9375 L 417.863281 31.847656 L 417.875 31.78125 L 417.878906 31.742188 L 417.882813 31.730469 L 417.878906 31.742188 L 417.875 31.78125 L 417.863281 31.847656 L 417.84375 31.9375 L 417.820313 32.054688 L 417.792969 32.195313 L 417.761719 32.363281 L 417.722656 32.558594 L 417.675781 32.777344 L 417.625 33.023438 L 417.570313 33.292969 L 417.507813 33.589844 L 417.4375 33.910156 L 417.359375 34.257813 L 417.277344 34.628906 L 417.1875 35.027344 L 417.089844 35.449219 L 416.984375 35.898438 L 416.871094 36.367188 L 416.753906 36.867188 L 416.625 37.386719 L 416.492188 37.933594 L 416.347656 38.507813 L 416.195313 39.101563 L 416.039063 39.722656 L 415.871094 40.367188 L 415.695313 41.035156 L 415.507813 41.726563 L 415.316406 42.445313 L 415.113281 43.1875 L 414.898438 43.949219 L 414.679688 44.738281 L 414.449219 45.550781 L 414.207031 46.386719 L 413.957031 47.242188 L 413.699219 48.125 L 413.429688 49.027344 L 413.152344 49.957031 L 412.863281 50.90625 L 412.5625 51.878906 L 412.25 52.875 L 411.929688 53.890625 L 411.601563 54.929688 L 411.257813 55.992188 L 410.90625 57.078125 L 410.542969 58.179688 L 410.167969 59.308594 L 409.785156 60.457031 L 409.386719 61.625 L 408.980469 62.816406 L 408.558594 64.027344 L 408.128906 65.257813 L 407.6875 66.511719 L 407.230469 67.785156 L 406.765625 69.078125 L 406.285156 70.390625 L 405.796875 71.726563 L 405.296875 73.078125 L 404.78125 74.449219 L 404.253906 75.84375 L 403.714844 77.253906 L 403.164063 78.683594 L 402.601563 80.132813 L 402.023438 81.597656 L 401.4375 83.085938 L 400.835938 84.589844 L 400.21875 86.109375 L 399.59375 87.648438 L 398.953125 89.207031 L 398.300781 90.78125 L 397.632813 92.371094 L 396.957031 93.980469 L 396.261719 95.605469 L 395.558594 97.246094 L 394.839844 98.90625 L 394.109375 100.578125 L 393.363281 102.269531 L 392.605469 103.972656 L 391.835938 105.695313 L 391.050781 107.433594 L 390.25 109.183594 L 389.4375 110.949219 L 388.613281 112.730469 L 387.777344 114.523438 L 386.921875 116.332031 L 386.058594 118.15625 L 385.179688 119.992188 L 384.285156 121.84375 L 383.378906 123.707031 L 382.457031 125.582031 L 381.523438 127.472656 L 380.578125 129.371094 L 379.617188 131.285156 L 378.640625 133.210938 L 377.652344 135.148438 L 376.652344 137.097656 L 375.636719 139.058594 L 374.605469 141.03125 L 373.5625 143.011719 L 372.507813 145.003906 L 371.4375 147.007813 L 370.355469 149.019531 L 369.257813 151.042969 L 368.148438 153.074219 L 367.023438 155.117188 L 365.886719 157.167969 L 364.734375 159.226563 L 363.570313 161.296875 L 362.394531 163.371094 L 361.203125 165.457031 L 360 167.550781 L 358.78125 169.648438 L 357.554688 171.757813 L 356.308594 173.871094 L 355.054688 175.992188 L 353.785156 178.121094 L 352.503906 180.257813 L 351.207031 182.398438 L 349.898438 184.542969 L 348.578125 186.695313 L 347.246094 188.855469 L 345.898438 191.015625 L 344.542969 193.183594 L 343.171875 195.355469 L 341.789063 197.53125 L 340.394531 199.714844 L 338.984375 201.898438 L 337.566406 204.085938 L 336.132813 206.277344 L 334.691406 208.472656 L 333.234375 210.667969 L 331.769531 212.871094 L 330.289063 215.070313 L 328.800781 217.277344 L 327.296875 219.484375 L 325.785156 221.691406 L 324.261719 223.902344 L 322.726563 226.113281 L 321.179688 228.324219 L 319.625 230.535156 L 318.058594 232.746094 L 316.480469 234.960938 L 314.890625 237.171875 L 313.292969 239.386719 L 311.683594 241.597656 L 310.0625 243.808594 L 308.433594 246.019531 L 306.792969 248.226563 L 305.144531 250.433594 L 303.488281 252.640625 L 301.820313 254.84375 L 300.144531 257.046875 L 298.457031 259.246094 L 296.761719 261.441406 L 295.058594 263.636719 L 293.347656 265.824219 L 291.625 268.011719 L 289.894531 270.195313 L 288.160156 272.375 L 286.414063 274.550781 L 284.660156 276.722656 L 282.898438 278.890625 L 281.128906 281.050781 L 279.355469 283.207031 L 277.570313 285.359375 L 275.78125 287.507813 L 273.984375 289.648438 L 272.179688 291.785156 L 270.371094 293.914063 L 268.554688 296.039063 L 266.734375 298.15625 L 264.90625 300.265625 L 263.070313 302.367188 L 261.230469 304.464844 L 259.386719 306.554688 L 257.535156 308.636719 L 255.679688 310.710938 L 253.820313 312.777344 L 251.957031 314.835938 L 250.089844 316.886719 L 248.214844 318.929688 L 246.339844 320.964844 L 244.457031 322.988281 L 242.574219 325.003906 L 240.6875 327.011719 L 238.796875 329.007813 L 236.902344 330.996094 L 235.007813 332.976563 L 233.109375 334.945313 L 231.207031 336.902344 L 229.304688 338.851563 L 227.398438 340.792969 L 225.492188 342.71875 L 223.582031 344.636719 L 221.671875 346.542969 L 219.761719 348.4375 L 217.851563 350.324219 L 215.941406 352.195313 L 214.027344 354.058594 L 212.113281 355.90625 L 210.203125 357.746094 L 208.289063 359.574219 L 206.378906 361.386719 L 204.46875 363.191406 L 202.558594 364.980469 L 200.652344 366.757813 L 198.742188 368.523438 L 196.839844 370.277344 L 194.933594 372.015625 L 193.035156 373.742188 L 191.136719 375.457031 L 189.238281 377.160156 L 187.347656 378.847656 L 185.457031 380.519531 L 183.570313 382.179688 L 181.6875 383.828125 L 179.804688 385.460938 L 177.929688 387.082031 L 176.058594 388.6875 L 174.191406 390.277344 L 172.332031 391.855469 L 170.472656 393.417969 L 168.621094 394.96875 L 166.777344 396.503906 L 164.933594 398.023438 L 163.101563 399.527344 L 161.269531 401.019531 L 159.449219 402.496094 L 157.632813 403.957031 L 155.824219 405.402344 L 154.023438 406.832031 L 152.230469 408.25 L 150.441406 409.652344 L 148.664063 411.039063 L 146.890625 412.410156 L 145.128906 413.765625 L 143.375 415.105469 L 141.628906 416.429688 L 139.894531 417.738281 L 138.167969 419.035156 L 136.449219 420.3125 L 134.742188 421.574219 L 133.042969 422.824219 L 131.355469 424.054688 L 129.679688 425.273438 L 128.011719 426.472656 L 126.355469 427.65625 L 124.710938 428.828125 L 123.078125 429.980469 L 121.457031 431.117188 L 119.84375 432.238281 L 118.246094 433.34375 L 116.660156 434.4375 L 115.085938 435.511719 L 113.527344 436.570313 L 111.976563 437.613281 L 110.441406 438.636719 L 108.921875 439.648438 L 107.414063 440.644531 L 105.917969 441.625 L 104.4375 442.589844 L 102.972656 443.535156 L 101.519531 444.46875 L 100.085938 445.382813 L 98.660156 446.285156 L 97.253906 447.167969 L 95.863281 448.039063 L 94.488281 448.890625 L 93.125 449.730469 L 91.78125 450.550781 L 90.453125 451.359375 L 89.140625 452.148438 L 87.84375 452.925781 L 86.566406 453.683594 L 85.300781 454.429688 L 84.058594 455.160156 L 82.828125 455.875 L 81.621094 456.574219 L 80.425781 457.257813 L 79.25 457.925781 L 78.09375 458.578125 L 76.957031 459.214844 L 75.835938 459.839844 L 74.734375 460.449219 L 73.652344 461.042969 L 72.589844 461.621094 L 71.542969 462.1875 L 70.519531 462.734375 L 69.511719 463.269531 L 68.527344 463.792969 L 67.558594 464.296875 L 66.613281 464.789063 L 65.6875 465.269531 L 64.78125 465.730469 L 63.894531 466.183594 L 63.03125 466.617188 L 62.1875 467.039063 L 61.363281 467.449219 L 60.5625 467.84375 L 59.78125 468.226563 L 59.023438 468.59375 L 58.285156 468.945313 L 57.570313 469.289063 L 56.875 469.617188 L 56.203125 469.933594 L 55.550781 470.234375 L 54.925781 470.523438 L 54.320313 470.800781 L 53.734375 471.066406 L 53.175781 471.320313 L 52.636719 471.558594 L 52.121094 471.785156 L 51.628906 472.003906 L 51.160156 472.207031 L 50.714844 472.398438 L 50.292969 472.578125 L 49.894531 472.75 L 49.519531 472.90625 L 49.167969 473.054688 L 48.839844 473.1875 L 48.535156 473.3125 L 48.253906 473.425781 L 47.996094 473.53125 L 47.765625 473.621094 L 47.558594 473.703125 L 47.371094 473.777344 L 47.214844 473.839844 L 47.078125 473.890625 L 46.964844 473.933594 L 46.878906 473.964844 L 46.78125 474.003906 L 46.769531 474.007813 L 46.78125 474.003906 L 46.820313 473.988281 L 46.882813 473.96875 L 46.96875 473.9375 L 47.078125 473.898438 L 47.21875 473.851563 L 47.378906 473.792969 L 47.777344 473.660156 L 48.015625 473.582031 L 48.277344 473.496094 L 48.566406 473.402344 L 48.878906 473.304688 L 49.21875 473.195313 L 49.582031 473.082031 L 49.972656 472.960938 L 50.386719 472.835938 L 50.824219 472.703125 L 51.289063 472.5625 L 51.78125 472.417969 L 52.296875 472.265625 L 52.835938 472.109375 L 53.402344 471.949219 L 53.996094 471.78125 L 54.613281 471.609375 L 55.253906 471.433594 L 55.921875 471.25 L 56.613281 471.0625 L 57.332031 470.875 L 58.074219 470.679688 L 58.84375 470.480469 L 59.636719 470.277344 L 60.453125 470.070313 L 61.296875 469.863281 L 62.164063 469.648438 L 63.058594 469.433594 L 63.976563 469.214844 L 64.917969 468.992188 L 65.886719 468.769531 L 66.878906 468.539063 L 67.894531 468.3125 L 68.9375 468.082031 L 70.003906 467.847656 L 71.09375 467.613281 L 72.207031 467.375 L 73.347656 467.136719 L 74.507813 466.898438 L 75.695313 466.65625 L 76.90625 466.417969 L 78.140625 466.175781 L 79.402344 465.933594 L 80.683594 465.691406 L 81.988281 465.445313 L 83.320313 465.203125 L 84.671875 464.960938 L 86.046875 464.71875 L 87.449219 464.476563 L 88.871094 464.234375 L 90.316406 463.992188 L 91.785156 463.753906 L 93.277344 463.515625 L 94.789063 463.277344 L 96.328125 463.039063 L 97.886719 462.804688 L 99.464844 462.574219 L 101.070313 462.34375 L 102.695313 462.113281 L 104.339844 461.886719 L 106.007813 461.664063 L 107.699219 461.441406 L 109.410156 461.222656 L 111.140625 461.003906 L 112.894531 460.792969 L 114.667969 460.582031 L 116.464844 460.375 L 118.28125 460.171875 L 120.117188 459.972656 L 121.972656 459.773438 L 123.847656 459.582031 L 125.746094 459.394531 L 127.660156 459.210938 L 129.597656 459.03125 L 131.550781 458.855469 L 133.523438 458.683594 L 135.515625 458.515625 L 137.527344 458.355469 L 139.558594 458.199219 L 141.609375 458.046875 L 143.675781 457.898438 L 145.757813 457.757813 L 147.863281 457.625 L 149.980469 457.492188 L 152.121094 457.367188 L 154.273438 457.25 L 156.445313 457.136719 L 158.636719 457.03125 L 160.839844 456.929688 L 163.0625 456.835938 L 165.300781 456.746094 L 167.554688 456.664063 L 169.824219 456.589844 L 172.109375 456.523438 L 174.410156 456.460938 L 176.722656 456.40625 L 179.054688 456.359375 L 181.398438 456.320313 L 183.757813 456.285156 L 186.132813 456.257813 L 188.519531 456.238281 L 190.917969 456.230469 L 193.332031 456.226563 L 195.761719 456.230469 L 198.199219 456.242188 L 200.652344 456.257813 L 203.121094 456.285156 L 205.597656 456.320313 L 208.085938 456.363281 L 210.589844 456.417969 L 213.101563 456.476563 L 215.625 456.542969 L 218.160156 456.617188 L 220.707031 456.703125 L 223.261719 456.796875 L 225.828125 456.894531 L 228.40625 457.003906 L 230.992188 457.125 L 233.585938 457.25 L 236.191406 457.386719 L 238.804688 457.53125 L 241.425781 457.683594 L 244.058594 457.84375 L 246.695313 458.015625 L 249.34375 458.191406 L 251.996094 458.382813 L 254.660156 458.578125 L 257.328125 458.785156 L 260.003906 459 L 262.6875 459.222656 L 265.375 459.457031 L 268.066406 459.699219 L 270.769531 459.949219 L 273.472656 460.210938 L 276.183594 460.480469 L 278.898438 460.757813 L 281.621094 461.046875 L 284.34375 461.34375 L 287.074219 461.648438 L 289.804688 461.964844 L 292.542969 462.289063 L 295.28125 462.621094 L 298.023438 462.964844 L 300.769531 463.316406 L 303.515625 463.675781 L 306.265625 464.046875 L 309.015625 464.421875 L 311.769531 464.8125 L 314.523438 465.207031 L 317.277344 465.613281 L 320.035156 466.027344 L 322.792969 466.453125 L 325.550781 466.886719 L 328.304688 467.328125 L 331.0625 467.777344 L 333.820313 468.238281 L 336.574219 468.703125 L 339.328125 469.179688 L 342.082031 469.667969 L 344.832031 470.160156 L 347.582031 470.664063 L 350.328125 471.175781 L 353.074219 471.695313 L 355.816406 472.222656 L 358.554688 472.757813 L 361.289063 473.304688 L 364.023438 473.855469 L 366.75 474.417969 L 369.472656 474.988281 L 372.195313 475.5625 L 374.910156 476.148438 L 377.621094 476.742188 L 380.324219 477.34375 L 383.023438 477.953125 L 385.71875 478.566406 L 388.40625 479.191406 L 391.085938 479.820313 L 393.761719 480.460938 L 396.433594 481.105469 L 399.09375 481.757813 L 401.746094 482.417969 L 404.394531 483.085938 L 407.035156 483.761719 L 409.664063 484.441406 L 412.289063 485.128906 L 414.902344 485.824219 L 417.507813 486.523438 L 420.105469 487.230469 L 422.695313 487.941406 L 425.273438 488.660156 L 427.839844 489.386719 L 430.398438 490.117188 L 432.945313 490.855469 L 435.484375 491.597656 L 438.011719 492.34375 L 440.527344 493.097656 L 443.035156 493.855469 L 445.527344 494.621094 L 448.011719 495.390625 L 450.480469 496.164063 L 452.9375 496.941406 L 455.386719 497.726563 L 457.820313 498.511719 L 460.238281 499.304688 L 462.648438 500.101563 L 465.042969 500.898438 L 467.425781 501.703125 L 469.792969 502.511719 L 472.148438 503.320313 L 474.488281 504.136719 L 476.8125 504.953125 L 479.125 505.773438 L 481.421875 506.597656 L 483.703125 507.425781 L 485.972656 508.253906 L 488.222656 509.085938 L 490.460938 509.921875 L 492.683594 510.757813 L 494.886719 511.59375 L 497.078125 512.433594 L 499.25 513.277344 L 501.40625 514.121094 L 503.546875 514.964844 L 505.671875 515.808594 L 507.777344 516.65625 L 509.867188 517.503906 L 511.941406 518.351563 L 513.996094 519.199219 L 516.035156 520.050781 L 518.054688 520.898438 L 520.058594 521.746094 L 522.042969 522.597656 L 524.007813 523.445313 L 525.957031 524.292969 L 527.882813 525.136719 L 529.796875 525.984375 L 531.6875 526.828125 L 533.5625 527.671875 L 535.414063 528.511719 L 537.25 529.351563 L 539.066406 530.191406 L 540.863281 531.027344 L 542.640625 531.859375 L 544.394531 532.691406 L 546.132813 533.519531 L 547.851563 534.347656 L 549.546875 535.167969 L 551.222656 535.988281 L 552.882813 536.804688 L 554.519531 537.617188 L 556.132813 538.425781 L 557.730469 539.226563 L 559.304688 540.027344 L 560.859375 540.824219 L 562.390625 541.617188 L 563.902344 542.402344 L 565.394531 543.183594 L 566.863281 543.960938 L 568.3125 544.730469 L 569.738281 545.496094 L 571.144531 546.253906 L 572.53125 547.007813 L 573.894531 547.753906 L 575.234375 548.496094 L 576.554688 549.230469 L 577.851563 549.957031 L 579.128906 550.679688 L 580.382813 551.394531 L 581.613281 552.101563 L 582.824219 552.796875 L 584.011719 553.488281 L 585.179688 554.171875 L 586.324219 554.847656 L 587.445313 555.515625 L 588.546875 556.171875 L 589.625 556.824219 L 590.679688 557.464844 L 591.710938 558.09375 L 592.722656 558.71875 L 593.710938 559.332031 L 594.679688 559.933594 L 595.621094 560.527344 L 596.542969 561.113281 L 597.445313 561.683594 L 598.320313 562.25 L 599.175781 562.800781 L 600.007813 563.34375 L 600.816406 563.875 L 601.605469 564.394531 L 602.371094 564.902344 L 603.113281 565.398438 L 603.835938 565.882813 L 604.53125 566.359375 L 605.207031 566.820313 L 605.863281 567.269531 L 606.492188 567.707031 L 607.101563 568.128906 L 607.691406 568.542969 L 608.253906 568.941406 L 608.796875 569.328125 L 609.320313 569.699219 L 609.816406 570.058594 L 610.292969 570.40625 L 610.75 570.734375 L 611.183594 571.054688 L 611.59375 571.359375 L 611.984375 571.648438 L 612.351563 571.921875 L 612.695313 572.183594 L 613.019531 572.429688 L 613.324219 572.664063 L 613.605469 572.878906 L 613.863281 573.082031 L 614.105469 573.265625 L 614.320313 573.4375 L 614.519531 573.59375 L 614.691406 573.730469 L 614.847656 573.855469 L 614.980469 573.960938 L 615.09375 574.054688 L 615.183594 574.128906 L 615.257813 574.1875 L 615.308594 574.230469 L 615.339844 574.253906 Z M 615.347656 574.261719 "/>
  </g>
  <g xmlns="http://www.w3.org/2000/svg" id="spiro_3_1_1_71014">
    <path style=" stroke:none;fill-rule:evenodd;fill:rgb(60%,19.607843%,80%);fill-opacity:0.501961;" d="M 417.882813 688.269531 L 417.878906 688.257813 L 417.875 688.21875 L 417.863281 688.152344 L 417.847656 688.0625 L 417.828125 687.945313 L 417.804688 687.800781 L 417.78125 687.632813 L 417.75 687.4375 L 417.71875 687.214844 L 417.679688 686.96875 L 417.640625 686.695313 L 417.601563 686.394531 L 417.554688 686.066406 L 417.507813 685.714844 L 417.460938 685.335938 L 417.410156 684.933594 L 417.355469 684.503906 L 417.300781 684.046875 L 417.246094 683.566406 L 417.1875 683.058594 L 417.128906 682.523438 L 417.066406 681.964844 L 417.007813 681.378906 L 416.945313 680.765625 L 416.882813 680.128906 L 416.820313 679.464844 L 416.757813 678.777344 L 416.695313 678.0625 L 416.632813 677.324219 L 416.570313 676.558594 L 416.507813 675.765625 L 416.445313 674.949219 L 416.382813 674.109375 L 416.324219 673.242188 L 416.265625 672.351563 L 416.207031 671.433594 L 416.152344 670.492188 L 416.097656 669.523438 L 416.042969 668.53125 L 415.992188 667.515625 L 415.941406 666.476563 L 415.894531 665.410156 L 415.851563 664.320313 L 415.808594 663.203125 L 415.769531 662.066406 L 415.734375 660.902344 L 415.699219 659.714844 L 415.667969 658.507813 L 415.640625 657.269531 L 415.617188 656.011719 L 415.597656 654.730469 L 415.582031 653.425781 L 415.570313 652.097656 L 415.558594 650.746094 L 415.554688 649.371094 L 415.554688 647.972656 L 415.5625 646.554688 L 415.570313 645.109375 L 415.582031 643.644531 L 415.601563 642.15625 L 415.625 640.648438 L 415.65625 639.113281 L 415.6875 637.558594 L 415.730469 635.984375 L 415.773438 634.386719 L 415.824219 632.769531 L 415.882813 631.128906 L 415.945313 629.46875 L 416.011719 627.785156 L 416.089844 626.082031 L 416.167969 624.359375 L 416.257813 622.617188 L 416.351563 620.851563 L 416.453125 619.070313 L 416.5625 617.265625 L 416.675781 615.441406 L 416.796875 613.597656 L 416.925781 611.738281 L 417.0625 609.855469 L 417.207031 607.957031 L 417.359375 606.039063 L 417.515625 604.101563 L 417.683594 602.144531 L 417.855469 600.171875 L 418.039063 598.179688 L 418.230469 596.171875 L 418.425781 594.144531 L 418.632813 592.101563 L 418.847656 590.039063 L 419.070313 587.960938 L 419.304688 585.867188 L 419.542969 583.757813 L 419.792969 581.628906 L 420.050781 579.488281 L 420.316406 577.328125 L 420.589844 575.15625 L 420.875 572.964844 L 421.167969 570.761719 L 421.46875 568.542969 L 421.78125 566.308594 L 422.101563 564.058594 L 422.429688 561.796875 L 422.769531 559.523438 L 423.117188 557.230469 L 423.472656 554.929688 L 423.839844 552.613281 L 424.21875 550.285156 L 424.605469 547.941406 L 425 545.589844 L 425.40625 543.222656 L 425.820313 540.84375 L 426.246094 538.453125 L 426.683594 536.054688 L 427.128906 533.640625 L 427.582031 531.21875 L 428.046875 528.78125 L 428.523438 526.339844 L 429.007813 523.882813 L 429.5 521.417969 L 430.003906 518.945313 L 430.519531 516.460938 L 431.046875 513.96875 L 431.582031 511.46875 L 432.125 508.957031 L 432.679688 506.441406 L 433.246094 503.914063 L 433.820313 501.378906 L 434.40625 498.839844 L 435.003906 496.289063 L 435.609375 493.734375 L 436.222656 491.171875 L 436.851563 488.601563 L 437.484375 486.027344 L 438.132813 483.445313 L 438.789063 480.859375 L 439.453125 478.265625 L 440.132813 475.667969 L 440.816406 473.066406 L 441.515625 470.457031 L 442.21875 467.847656 L 442.9375 465.230469 L 443.664063 462.613281 L 444.398438 459.992188 L 445.144531 457.363281 L 445.898438 454.734375 L 446.664063 452.105469 L 447.441406 449.46875 L 448.226563 446.832031 L 449.019531 444.195313 L 449.824219 441.554688 L 450.636719 438.914063 L 451.460938 436.273438 L 452.292969 433.628906 L 453.132813 430.984375 L 453.984375 428.34375 L 454.84375 425.699219 L 455.714844 423.054688 L 456.589844 420.410156 L 457.480469 417.769531 L 458.375 415.128906 L 459.28125 412.488281 L 460.191406 409.847656 L 461.117188 407.210938 L 462.046875 404.578125 L 462.984375 401.945313 L 463.933594 399.316406 L 464.890625 396.6875 L 465.855469 394.066406 L 466.824219 391.445313 L 467.804688 388.828125 L 468.792969 386.214844 L 469.789063 383.609375 L 470.792969 381.003906 L 471.804688 378.40625 L 472.824219 375.808594 L 473.851563 373.21875 L 474.886719 370.636719 L 475.925781 368.058594 L 476.972656 365.488281 L 478.027344 362.921875 L 479.089844 360.359375 L 480.15625 357.808594 L 481.230469 355.261719 L 482.3125 352.722656 L 483.398438 350.191406 L 484.492188 347.667969 L 485.59375 345.152344 L 486.699219 342.644531 L 487.808594 340.144531 L 488.925781 337.652344 L 490.046875 335.171875 L 491.175781 332.699219 L 492.308594 330.234375 L 493.445313 327.78125 L 494.585938 325.335938 L 495.734375 322.898438 L 496.886719 320.476563 L 498.042969 318.0625 L 499.203125 315.65625 L 500.367188 313.265625 L 501.535156 310.882813 L 502.707031 308.511719 L 503.882813 306.152344 L 505.058594 303.808594 L 506.242188 301.472656 L 507.429688 299.148438 L 508.617188 296.835938 L 509.808594 294.539063 L 511 292.253906 L 512.195313 289.980469 L 513.394531 287.71875 L 514.59375 285.472656 L 515.796875 283.238281 L 517 281.019531 L 518.203125 278.8125 L 519.410156 276.621094 L 520.617188 274.445313 L 521.828125 272.28125 L 523.035156 270.132813 L 524.246094 268 L 525.457031 265.878906 L 526.667969 263.773438 L 527.878906 261.6875 L 529.085938 259.613281 L 530.296875 257.554688 L 531.507813 255.511719 L 532.714844 253.484375 L 533.921875 251.476563 L 535.128906 249.480469 L 536.332031 247.503906 L 537.535156 245.542969 L 538.738281 243.597656 L 539.9375 241.671875 L 541.136719 239.757813 L 542.332031 237.863281 L 543.523438 235.988281 L 544.714844 234.128906 L 545.898438 232.285156 L 547.082031 230.460938 L 548.265625 228.65625 L 549.441406 226.867188 L 550.613281 225.09375 L 551.78125 223.339844 L 552.945313 221.605469 L 554.105469 219.890625 L 555.261719 218.191406 L 556.414063 216.511719 L 557.558594 214.851563 L 558.699219 213.207031 L 559.835938 211.585938 L 560.964844 209.980469 L 562.089844 208.394531 L 563.207031 206.828125 L 564.316406 205.277344 L 565.421875 203.75 L 566.519531 202.242188 L 567.609375 200.75 L 568.695313 199.28125 L 569.773438 197.828125 L 570.839844 196.398438 L 571.902344 194.984375 L 572.957031 193.59375 L 574 192.222656 L 575.039063 190.867188 L 576.066406 189.535156 L 577.085938 188.222656 L 578.097656 186.929688 L 579.097656 185.65625 L 580.089844 184.40625 L 581.074219 183.171875 L 582.046875 181.960938 L 583.007813 180.769531 L 583.960938 179.597656 L 584.902344 178.445313 L 585.835938 177.3125 L 586.753906 176.203125 L 587.664063 175.109375 L 588.5625 174.039063 L 589.449219 172.988281 L 590.324219 171.960938 L 591.1875 170.949219 L 592.039063 169.960938 L 592.878906 168.992188 L 593.707031 168.042969 L 594.519531 167.113281 L 595.324219 166.207031 L 596.109375 165.320313 L 596.886719 164.453125 L 597.648438 163.605469 L 598.398438 162.777344 L 599.132813 161.972656 L 599.851563 161.1875 L 600.558594 160.417969 L 601.253906 159.675781 L 601.929688 158.949219 L 602.59375 158.242188 L 603.242188 157.558594 L 603.875 156.890625 L 604.496094 156.246094 L 605.097656 155.621094 L 605.683594 155.015625 L 606.257813 154.429688 L 606.8125 153.863281 L 607.351563 153.320313 L 607.878906 152.792969 L 608.382813 152.285156 L 608.875 151.796875 L 609.351563 151.332031 L 609.808594 150.882813 L 610.246094 150.453125 L 610.671875 150.042969 L 611.078125 149.652344 L 611.464844 149.28125 L 611.835938 148.929688 L 612.1875 148.597656 L 612.523438 148.285156 L 612.839844 147.988281 L 613.140625 147.710938 L 613.421875 147.453125 L 613.683594 147.214844 L 613.925781 146.992188 L 614.152344 146.789063 L 614.355469 146.605469 L 614.542969 146.4375 L 614.710938 146.289063 L 614.859375 146.160156 L 614.988281 146.046875 L 615.097656 145.953125 L 615.1875 145.875 L 615.257813 145.8125 L 615.308594 145.773438 L 615.339844 145.746094 L 615.347656 145.738281 L 615.339844 145.746094 L 615.308594 145.769531 L 615.257813 145.8125 L 615.183594 145.871094 L 615.09375 145.945313 L 614.980469 146.039063 L 614.847656 146.144531 L 614.691406 146.269531 L 614.519531 146.40625 L 614.320313 146.5625 L 614.105469 146.734375 L 613.863281 146.917969 L 613.605469 147.121094 L 613.324219 147.335938 L 613.019531 147.570313 L 612.695313 147.816406 L 612.351563 148.078125 L 611.984375 148.351563 L 611.59375 148.640625 L 611.183594 148.945313 L 610.75 149.265625 L 610.292969 149.59375 L 609.816406 149.941406 L 609.320313 150.300781 L 608.796875 150.671875 L 608.253906 151.058594 L 607.691406 151.457031 L 607.101563 151.871094 L 606.492188 152.292969 L 605.863281 152.730469 L 605.207031 153.179688 L 604.53125 153.640625 L 603.835938 154.117188 L 603.113281 154.601563 L 602.371094 155.097656 L 601.605469 155.605469 L 600.816406 156.125 L 600.007813 156.65625 L 599.175781 157.199219 L 598.320313 157.75 L 597.445313 158.316406 L 596.542969 158.886719 L 595.621094 159.472656 L 594.679688 160.066406 L 593.710938 160.667969 L 592.722656 161.28125 L 591.710938 161.90625 L 590.679688 162.535156 L 589.625 163.175781 L 588.546875 163.828125 L 587.445313 164.484375 L 586.324219 165.152344 L 585.179688 165.828125 L 584.011719 166.511719 L 582.824219 167.203125 L 581.613281 167.898438 L 580.382813 168.605469 L 579.128906 169.320313 L 577.851563 170.042969 L 576.554688 170.769531 L 575.234375 171.503906 L 573.894531 172.246094 L 572.53125 172.992188 L 571.144531 173.746094 L 569.738281 174.503906 L 568.3125 175.269531 L 566.863281 176.039063 L 565.394531 176.816406 L 563.902344 177.597656 L 562.390625 178.382813 L 560.859375 179.175781 L 559.304688 179.972656 L 557.730469 180.773438 L 556.132813 181.574219 L 554.519531 182.382813 L 552.882813 183.195313 L 551.222656 184.011719 L 549.546875 184.832031 L 547.851563 185.652344 L 546.132813 186.480469 L 544.394531 187.308594 L 542.640625 188.140625 L 540.863281 188.972656 L 539.066406 189.808594 L 537.25 190.648438 L 535.414063 191.488281 L 533.5625 192.328125 L 531.6875 193.171875 L 529.796875 194.015625 L 527.882813 194.863281 L 525.957031 195.707031 L 524.007813 196.554688 L 522.042969 197.402344 L 520.058594 198.253906 L 518.054688 199.101563 L 516.035156 199.949219 L 513.996094 200.800781 L 511.941406 201.648438 L 509.867188 202.496094 L 507.777344 203.34375 L 505.671875 204.191406 L 503.546875 205.035156 L 501.40625 205.878906 L 499.25 206.722656 L 497.078125 207.566406 L 494.886719 208.40625 L 492.683594 209.242188 L 490.460938 210.078125 L 488.222656 210.914063 L 485.972656 211.746094 L 483.703125 212.574219 L 481.421875 213.402344 L 479.125 214.226563 L 476.8125 215.046875 L 474.488281 215.863281 L 472.148438 216.679688 L 469.792969 217.488281 L 467.425781 218.296875 L 465.042969 219.101563 L 462.648438 219.898438 L 460.238281 220.695313 L 457.820313 221.488281 L 455.386719 222.273438 L 452.9375 223.058594 L 450.480469 223.835938 L 448.011719 224.609375 L 445.527344 225.378906 L 443.035156 226.144531 L 440.527344 226.902344 L 438.011719 227.65625 L 435.484375 228.402344 L 432.945313 229.144531 L 430.398438 229.882813 L 427.839844 230.613281 L 425.273438 231.339844 L 422.695313 232.058594 L 420.105469 232.769531 L 417.507813 233.476563 L 414.902344 234.175781 L 412.289063 234.871094 L 409.664063 235.558594 L 407.035156 236.238281 L 404.394531 236.914063 L 401.746094 237.582031 L 399.09375 238.242188 L 396.433594 238.894531 L 393.761719 239.539063 L 391.085938 240.179688 L 388.40625 240.808594 L 385.71875 241.433594 L 383.023438 242.046875 L 380.324219 242.65625 L 377.621094 243.257813 L 374.910156 243.851563 L 372.195313 244.4375 L 369.472656 245.011719 L 366.75 245.582031 L 364.023438 246.144531 L 361.289063 246.695313 L 358.554688 247.242188 L 355.816406 247.777344 L 353.074219 248.304688 L 350.328125 248.824219 L 347.582031 249.335938 L 344.832031 249.839844 L 342.082031 250.332031 L 339.328125 250.820313 L 336.574219 251.296875 L 333.820313 251.761719 L 331.0625 252.222656 L 328.304688 252.671875 L 325.550781 253.113281 L 322.792969 253.546875 L 320.035156 253.972656 L 317.277344 254.386719 L 314.523438 254.792969 L 311.769531 255.1875 L 309.015625 255.578125 L 306.265625 255.953125 L 303.515625 256.324219 L 300.769531 256.683594 L 298.023438 257.035156 L 295.28125 257.378906 L 292.542969 257.710938 L 289.804688 258.035156 L 287.074219 258.351563 L 284.34375 258.65625 L 281.621094 258.953125 L 278.898438 259.242188 L 276.183594 259.519531 L 273.472656 259.789063 L 270.769531 260.050781 L 268.066406 260.300781 L 265.375 260.542969 L 262.6875 260.777344 L 260.003906 261 L 257.328125 261.214844 L 254.660156 261.421875 L 251.996094 261.617188 L 249.34375 261.808594 L 246.695313 261.984375 L 244.058594 262.15625 L 241.425781 262.316406 L 238.804688 262.46875 L 236.191406 262.613281 L 233.585938 262.75 L 230.992188 262.875 L 228.40625 262.996094 L 225.828125 263.105469 L 223.261719 263.203125 L 220.707031 263.296875 L 218.160156 263.382813 L 215.625 263.457031 L 213.101563 263.523438 L 210.589844 263.582031 L 208.085938 263.636719 L 205.597656 263.679688 L 203.121094 263.714844 L 200.652344 263.742188 L 198.199219 263.757813 L 195.761719 263.769531 L 193.332031 263.773438 L 190.917969 263.769531 L 188.519531 263.761719 L 186.132813 263.742188 L 183.757813 263.714844 L 181.398438 263.679688 L 179.054688 263.640625 L 176.722656 263.59375 L 174.410156 263.539063 L 172.109375 263.476563 L 169.824219 263.410156 L 167.554688 263.335938 L 165.300781 263.253906 L 163.0625 263.164063 L 160.839844 263.070313 L 158.636719 262.96875 L 156.445313 262.863281 L 154.273438 262.75 L 152.121094 262.632813 L 149.980469 262.507813 L 147.863281 262.375 L 145.757813 262.242188 L 143.675781 262.101563 L 141.609375 261.953125 L 139.558594 261.800781 L 137.527344 261.644531 L 135.515625 261.484375 L 133.523438 261.316406 L 131.550781 261.144531 L 129.597656 260.96875 L 127.660156 260.789063 L 125.746094 260.605469 L 123.847656 260.417969 L 121.972656 260.226563 L 120.117188 260.027344 L 118.28125 259.828125 L 116.464844 259.625 L 114.667969 259.417969 L 112.894531 259.207031 L 111.140625 258.996094 L 109.410156 258.777344 L 107.699219 258.558594 L 106.007813 258.335938 L 104.339844 258.113281 L 102.695313 257.886719 L 101.070313 257.65625 L 99.464844 257.425781 L 97.886719 257.195313 L 96.328125 256.960938 L 94.789063 256.722656 L 93.277344 256.484375 L 91.785156 256.246094 L 90.316406 256.007813 L 88.871094 255.765625 L 87.449219 255.523438 L 86.046875 255.28125 L 84.671875 255.039063 L 83.320313 254.796875 L 81.988281 254.554688 L 80.683594 254.308594 L 79.402344 254.066406 L 78.140625 253.824219 L 76.90625 253.582031 L 75.695313 253.34375 L 74.507813 253.101563 L 73.347656 252.863281 L 72.207031 252.625 L 71.09375 252.386719 L 70.003906 252.152344 L 68.9375 251.917969 L 67.894531 251.6875 L 66.878906 251.460938 L 65.886719 251.230469 L 64.917969 251.007813 L 63.976563 250.785156 L 63.058594 250.566406 L 62.164063 250.351563 L 61.296875 250.136719 L 60.453125 249.929688 L 59.636719 249.722656 L 58.84375 249.519531 L 58.074219 249.320313 L 57.332031 249.125 L 56.613281 248.9375 L 55.921875 248.75 L 55.253906 248.566406 L 54.613281 248.390625 L 53.996094 248.21875 L 53.402344 248.050781 L 52.835938 247.890625 L 52.296875 247.734375 L 51.78125 247.582031 L 51.289063 247.4375 L 50.824219 247.296875 L 50.386719 247.164063 L 49.972656 247.039063 L 49.582031 246.917969 L 49.21875 246.804688 L 48.878906 246.695313 L 48.566406 246.597656 L 48.277344 246.503906 L 48.015625 246.417969 L 47.777344 246.339844 L 47.378906 246.207031 L 47.21875 246.148438 L 47.078125 246.101563 L 46.96875 246.0625 L 46.882813 246.03125 L 46.820313 246.011719 L 46.78125 245.996094 L 46.769531 245.992188 L 46.78125 245.996094 L 46.878906 246.035156 L 46.964844 246.066406 L 47.078125 246.109375 L 47.214844 246.160156 L 47.371094 246.222656 L 47.558594 246.296875 L 47.765625 246.378906 L 47.996094 246.46875 L 48.253906 246.574219 L 48.535156 246.6875 L 48.839844 246.8125 L 49.167969 246.945313 L 49.519531 247.09375 L 49.894531 247.25 L 50.292969 247.421875 L 50.714844 247.601563 L 51.160156 247.792969 L 51.628906 247.996094 L 52.121094 248.214844 L 52.636719 248.441406 L 53.175781 248.679688 L 53.734375 248.933594 L 54.320313 249.199219 L 54.925781 249.476563 L 55.550781 249.765625 L 56.203125 250.066406 L 56.875 250.382813 L 57.570313 250.710938 L 58.285156 251.054688 L 59.023438 251.40625 L 59.78125 251.773438 L 60.5625 252.15625 L 61.363281 252.550781 L 62.1875 252.960938 L 63.03125 253.382813 L 63.894531 253.816406 L 64.78125 254.269531 L 65.6875 254.730469 L 66.613281 255.210938 L 67.558594 255.703125 L 68.527344 256.207031 L 69.511719 256.730469 L 70.519531 257.265625 L 71.542969 257.8125 L 72.589844 258.378906 L 73.652344 258.957031 L 74.734375 259.550781 L 75.835938 260.160156 L 76.957031 260.785156 L 78.09375 261.421875 L 79.25 262.074219 L 80.425781 262.742188 L 81.621094 263.425781 L 82.828125 264.125 L 84.058594 264.839844 L 85.300781 265.570313 L 86.566406 266.316406 L 87.84375 267.074219 L 89.140625 267.851563 L 90.453125 268.640625 L 91.78125 269.449219 L 93.125 270.269531 L 94.488281 271.109375 L 95.863281 271.960938 L 97.253906 272.832031 L 98.660156 273.714844 L 100.085938 274.617188 L 101.519531 275.53125 L 102.972656 276.464844 L 104.4375 277.410156 L 105.917969 278.375 L 107.414063 279.355469 L 108.921875 280.351563 L 110.441406 281.363281 L 111.976563 282.386719 L 113.527344 283.429688 L 115.085938 284.488281 L 116.660156 285.5625 L 118.246094 286.65625 L 119.84375 287.761719 L 121.457031 288.882813 L 123.078125 290.019531 L 124.710938 291.171875 L 126.355469 292.34375 L 128.011719 293.527344 L 129.679688 294.726563 L 131.355469 295.945313 L 133.042969 297.175781 L 134.742188 298.425781 L 136.449219 299.6875 L 138.167969 300.964844 L 139.894531 302.261719 L 141.628906 303.570313 L 143.375 304.894531 L 145.128906 306.234375 L 146.890625 307.589844 L 148.664063 308.960938 L 150.441406 310.347656 L 152.230469 311.75 L 154.023438 313.167969 L 155.824219 314.597656 L 157.632813 316.042969 L 159.449219 317.503906 L 161.269531 318.980469 L 163.101563 320.472656 L 164.933594 321.976563 L 166.777344 323.496094 L 168.621094 325.03125 L 170.472656 326.582031 L 172.332031 328.144531 L 174.191406 329.722656 L 176.058594 331.3125 L 177.929688 332.917969 L 179.804688 334.539063 L 181.6875 336.171875 L 183.570313 337.820313 L 185.457031 339.480469 L 187.347656 341.152344 L 189.238281 342.839844 L 191.136719 344.542969 L 193.035156 346.257813 L 194.933594 347.984375 L 196.839844 349.722656 L 198.742188 351.476563 L 200.652344 353.242188 L 202.558594 355.019531 L 204.46875 356.808594 L 206.378906 358.613281 L 208.289063 360.425781 L 210.203125 362.253906 L 212.113281 364.09375 L 214.027344 365.941406 L 215.941406 367.804688 L 217.851563 369.675781 L 219.761719 371.5625 L 221.671875 373.457031 L 223.582031 375.363281 L 225.492188 377.28125 L 227.398438 379.207031 L 229.304688 381.148438 L 231.207031 383.097656 L 233.109375 385.054688 L 235.007813 387.023438 L 236.902344 389.003906 L 238.796875 390.992188 L 240.6875 392.988281 L 242.574219 394.996094 L 244.457031 397.011719 L 246.339844 399.035156 L 248.214844 401.070313 L 250.089844 403.113281 L 251.957031 405.164063 L 253.820313 407.222656 L 255.679688 409.289063 L 257.535156 411.363281 L 259.386719 413.445313 L 261.230469 415.535156 L 263.070313 417.632813 L 264.90625 419.734375 L 266.734375 421.84375 L 268.554688 423.960938 L 270.371094 426.085938 L 272.179688 428.214844 L 273.984375 430.351563 L 275.78125 432.492188 L 277.570313 434.640625 L 279.355469 436.792969 L 281.128906 438.949219 L 282.898438 441.109375 L 284.660156 443.277344 L 286.414063 445.449219 L 288.160156 447.625 L 289.894531 449.804688 L 291.625 451.988281 L 293.347656 454.175781 L 295.058594 456.363281 L 296.761719 458.558594 L 298.457031 460.753906 L 300.144531 462.953125 L 301.820313 465.15625 L 303.488281 467.359375 L 305.144531 469.566406 L 306.792969 471.773438 L 308.433594 473.980469 L 310.0625 476.191406 L 311.683594 478.402344 L 313.292969 480.613281 L 314.890625 482.828125 L 316.480469 485.039063 L 318.058594 487.253906 L 319.625 489.464844 L 321.179688 491.675781 L 322.726563 493.886719 L 324.261719 496.097656 L 325.785156 498.308594 L 327.296875 500.515625 L 328.800781 502.722656 L 330.289063 504.929688 L 331.769531 507.128906 L 333.234375 509.332031 L 334.691406 511.527344 L 336.132813 513.722656 L 337.566406 515.914063 L 338.984375 518.101563 L 340.394531 520.285156 L 341.789063 522.46875 L 343.171875 524.644531 L 344.542969 526.816406 L 345.898438 528.984375 L 347.246094 531.144531 L 348.578125 533.304688 L 349.898438 535.457031 L 351.207031 537.601563 L 352.503906 539.742188 L 353.785156 541.878906 L 355.054688 544.007813 L 356.308594 546.128906 L 357.554688 548.242188 L 358.78125 550.351563 L 360 552.449219 L 361.203125 554.542969 L 362.394531 556.628906 L 363.570313 558.703125 L 364.734375 560.773438 L 365.886719 562.832031 L 367.023438 564.882813 L 368.148438 566.925781 L 369.257813 568.957031 L 370.355469 570.980469 L 371.4375 572.992188 L 372.507813 574.996094 L 373.5625 576.988281 L 374.605469 578.96875 L 375.636719 580.941406 L 376.652344 582.902344 L 377.652344 584.851563 L 378.640625 586.789063 L 379.617188 588.714844 L 380.578125 590.628906 L 381.523438 592.527344 L 382.457031 594.417969 L 383.378906 596.292969 L 384.285156 598.15625 L 385.179688 600.007813 L 386.058594 601.84375 L 386.921875 603.667969 L 387.777344 605.476563 L 388.613281 607.269531 L 389.4375 609.050781 L 390.25 610.816406 L 391.050781 612.566406 L 391.835938 614.304688 L 392.605469 616.027344 L 393.363281 617.730469 L 394.109375 619.421875 L 394.839844 621.09375 L 395.558594 622.753906 L 396.261719 624.394531 L 396.957031 626.019531 L 397.632813 627.628906 L 398.300781 629.21875 L 398.953125 630.792969 L 399.59375 632.351563 L 400.21875 633.890625 L 400.835938 635.410156 L 401.4375 636.914063 L 402.023438 638.402344 L 402.601563 639.867188 L 403.164063 641.316406 L 403.714844 642.746094 L 404.253906 644.15625 L 404.78125 645.550781 L 405.296875 646.921875 L 405.796875 648.273438 L 406.285156 649.609375 L 406.765625 650.921875 L 407.230469 652.214844 L 407.6875 653.488281 L 408.128906 654.742188 L 408.558594 655.972656 L 408.980469 657.183594 L 409.386719 658.375 L 409.785156 659.542969 L 410.167969 660.691406 L 410.542969 661.820313 L 410.90625 662.921875 L 411.257813 664.007813 L 411.601563 665.070313 L 411.929688 666.109375 L 412.25 667.125 L 412.5625 668.121094 L 412.863281 669.09375 L 413.152344 670.042969 L 413.429688 670.972656 L 413.699219 671.875 L 413.957031 672.757813 L 414.207031 673.613281 L 414.449219 674.449219 L 414.679688 675.261719 L 414.898438 676.050781 L 415.113281 676.8125 L 415.316406 677.554688 L 415.507813 678.273438 L 415.695313 678.964844 L 415.871094 679.632813 L 416.039063 680.277344 L 416.195313 680.898438 L 416.347656 681.492188 L 416.492188 682.066406 L 416.625 682.613281 L 416.753906 683.132813 L 416.871094 683.632813 L 416.984375 684.101563 L 417.089844 684.550781 L 417.1875 684.972656 L 417.277344 685.371094 L 417.359375 685.742188 L 417.4375 686.089844 L 417.507813 686.410156 L 417.570313 686.707031 L 417.625 686.976563 L 417.675781 687.222656 L 417.722656 687.441406 L 417.761719 687.636719 L 417.792969 687.804688 L 417.820313 687.945313 L 417.84375 688.0625 L 417.863281 688.152344 L 417.875 688.21875 L 417.878906 688.257813 Z M 417.882813 688.269531 "/>
  </g>
</svg>
