<?xml version="1.0" encoding="UTF-8"?>
<svg xmlns="http://www.w3.org/2000/svg" xmlns:xlink="http://www.w3.org/1999/xlink" width="100%" height="100%" viewBox="0 0 720 720" version="1.1">
  <g id="spiro_5_3_3_84287">
    <path style=" stroke:none;fill-rule:evenodd;fill:rgb(25.490196%,41.176471%,88.235294%);fill-opacity:1;" d="M 360 693.332031 L 360 693.050781 L 359.996094 692.976563 L 359.996094 692.703125 L 359.992188 692.59375 L 359.992188 692.472656 L 359.988281 692.347656 L 359.988281 692.210938 L 359.984375 692.066406 L 359.980469 691.914063 L 359.980469 691.75 L 359.976563 691.578125 L 359.972656 691.398438 L 359.96875 691.210938 L 359.960938 691.015625 L 359.957031 690.808594 L 359.953125 690.59375 L 359.945313 690.371094 L 359.941406 690.140625 L 359.933594 689.898438 L 359.925781 689.648438 L 359.917969 689.390625 L 359.910156 689.125 L 359.898438 688.851563 L 359.890625 688.566406 L 359.878906 688.273438 L 359.867188 687.972656 L 359.859375 687.664063 L 359.84375 687.34375 L 359.832031 687.019531 L 359.820313 686.683594 L 359.804688 686.339844 L 359.789063 685.988281 L 359.773438 685.625 L 359.757813 685.253906 L 359.742188 684.878906 L 359.722656 684.492188 L 359.703125 684.09375 L 359.683594 683.691406 L 359.664063 683.28125 L 359.640625 682.859375 L 359.621094 682.429688 L 359.597656 681.992188 L 359.574219 681.546875 L 359.546875 681.09375 L 359.519531 680.628906 L 359.496094 680.15625 L 359.464844 679.679688 L 359.4375 679.191406 L 359.40625 678.695313 L 359.375 678.1875 L 359.34375 677.675781 L 359.3125 677.15625 L 359.277344 676.625 L 359.242188 676.089844 L 359.207031 675.542969 L 359.167969 674.988281 L 359.128906 674.425781 L 359.089844 673.855469 L 359.046875 673.277344 L 359.007813 672.6875 L 358.964844 672.09375 L 358.917969 671.492188 L 358.871094 670.878906 L 358.824219 670.257813 L 358.777344 669.632813 L 358.726563 668.996094 L 358.675781 668.351563 L 358.625 667.699219 L 358.570313 667.042969 L 358.515625 666.375 L 358.457031 665.699219 L 358.402344 665.015625 L 358.34375 664.324219 L 358.28125 663.625 L 358.21875 662.917969 L 358.15625 662.203125 L 358.089844 661.480469 L 358.023438 660.75 L 357.957031 660.007813 L 357.886719 659.261719 L 357.816406 658.507813 L 357.742188 657.746094 L 357.671875 656.980469 L 357.59375 656.203125 L 357.515625 655.417969 L 357.4375 654.625 L 357.359375 653.824219 L 357.277344 653.019531 L 357.191406 652.203125 L 357.109375 651.378906 L 357.019531 650.550781 L 356.933594 649.710938 L 356.84375 648.867188 L 356.75 648.015625 L 356.65625 647.15625 L 356.5625 646.289063 L 356.464844 645.414063 L 356.367188 644.53125 L 356.265625 643.644531 L 356.164063 642.746094 L 356.058594 641.84375 L 355.953125 640.933594 L 355.84375 640.015625 L 355.734375 639.089844 L 355.625 638.160156 L 355.511719 637.21875 L 355.394531 636.273438 L 355.28125 635.320313 L 355.160156 634.359375 L 355.039063 633.390625 L 354.917969 632.417969 L 354.792969 631.4375 L 354.667969 630.449219 L 354.539063 629.453125 L 354.40625 628.453125 L 354.273438 627.445313 L 354.140625 626.429688 L 354.003906 625.40625 L 353.867188 624.378906 L 353.726563 623.34375 L 353.585938 622.300781 L 353.441406 621.25 L 353.292969 620.195313 L 353.144531 619.136719 L 352.996094 618.066406 L 352.84375 616.992188 L 352.6875 615.910156 L 352.53125 614.824219 L 352.371094 613.730469 L 352.210938 612.628906 L 352.050781 611.523438 L 351.882813 610.410156 L 351.71875 609.289063 L 351.546875 608.164063 L 351.375 607.035156 L 351.203125 605.894531 L 351.027344 604.75 L 350.847656 603.601563 L 350.667969 602.445313 L 350.488281 601.285156 L 350.300781 600.117188 L 350.117188 598.941406 L 349.925781 597.761719 L 349.734375 596.578125 L 349.542969 595.386719 L 349.347656 594.1875 L 349.148438 592.984375 L 348.949219 591.777344 L 348.746094 590.5625 L 348.542969 589.34375 L 348.335938 588.117188 L 348.128906 586.886719 L 347.917969 585.648438 L 347.703125 584.40625 L 347.488281 583.160156 L 347.269531 581.90625 L 347.046875 580.648438 L 346.824219 579.382813 L 346.601563 578.113281 L 346.375 576.839844 L 346.144531 575.558594 L 345.910156 574.273438 L 345.675781 572.984375 L 345.441406 571.691406 L 345.203125 570.390625 L 344.960938 569.085938 L 344.71875 567.773438 L 344.472656 566.460938 L 344.222656 565.140625 L 343.972656 563.8125 L 343.71875 562.484375 L 343.464844 561.148438 L 343.207031 559.808594 L 342.945313 558.464844 L 342.683594 557.117188 L 342.417969 555.765625 L 342.152344 554.40625 L 341.882813 553.042969 L 341.609375 551.675781 L 341.335938 550.304688 L 341.058594 548.929688 L 340.496094 546.164063 L 340.214844 544.773438 L 339.925781 543.382813 L 339.636719 541.984375 L 339.347656 540.582031 L 339.054688 539.175781 L 338.757813 537.765625 L 338.460938 536.351563 L 338.160156 534.933594 L 337.855469 533.511719 L 337.550781 532.085938 L 337.242188 530.65625 L 336.929688 529.222656 L 336.617188 527.785156 L 336.304688 526.34375 L 335.984375 524.898438 L 335.667969 523.449219 L 335.019531 520.542969 L 334.691406 519.082031 L 334.363281 517.617188 L 334.03125 516.152344 L 333.695313 514.683594 L 333.359375 513.210938 L 333.019531 511.734375 L 332.679688 510.253906 L 332.335938 508.769531 L 331.988281 507.285156 L 331.640625 505.792969 L 331.289063 504.300781 L 330.9375 502.804688 L 330.578125 501.308594 L 330.222656 499.804688 L 329.859375 498.300781 L 329.5 496.792969 L 329.132813 495.285156 L 328.765625 493.773438 L 328.394531 492.253906 L 328.023438 490.738281 L 327.273438 487.691406 L 326.894531 486.167969 L 326.128906 483.105469 L 325.742188 481.574219 L 324.570313 476.957031 L 324.171875 475.414063 L 323.375 472.320313 L 322.972656 470.773438 L 322.566406 469.21875 L 322.160156 467.667969 L 321.753906 466.109375 L 321.339844 464.554688 L 320.925781 462.992188 L 320.511719 461.433594 L 320.09375 459.871094 L 319.25 456.738281 L 318.824219 455.171875 L 318.398438 453.601563 L 317.96875 452.027344 L 317.539063 450.457031 L 317.105469 448.882813 L 316.667969 447.304688 L 316.230469 445.730469 L 315.792969 444.148438 L 315.347656 442.570313 L 314.90625 440.988281 L 314.457031 439.40625 L 314.011719 437.824219 L 312.652344 433.066406 L 312.195313 431.480469 L 310.8125 426.710938 L 310.347656 425.121094 L 309.878906 423.527344 L 309.410156 421.9375 L 307.992188 417.15625 L 307.515625 415.5625 L 307.035156 413.964844 L 306.554688 412.371094 L 306.070313 410.773438 L 305.585938 409.179688 L 304.121094 404.386719 L 303.628906 402.789063 L 303.132813 401.191406 L 302.636719 399.597656 L 302.140625 398 L 301.640625 396.402344 L 300.128906 391.609375 L 299.621094 390.015625 L 299.113281 388.417969 L 298.601563 386.820313 L 298.089844 385.226563 L 297.578125 383.628906 L 297.0625 382.035156 L 296.542969 380.441406 L 296.027344 378.847656 L 295.503906 377.253906 L 294.984375 375.664063 L 294.457031 374.070313 L 293.933594 372.480469 L 292.878906 369.300781 L 292.347656 367.710938 L 291.816406 366.125 L 291.28125 364.535156 L 290.746094 362.949219 L 290.210938 361.367188 L 289.671875 359.78125 L 288.59375 356.617188 L 286.964844 351.882813 L 286.417969 350.304688 L 285.871094 348.730469 L 285.320313 347.160156 L 284.769531 345.585938 L 284.21875 344.015625 L 283.664063 342.449219 L 283.109375 340.878906 L 282.554688 339.316406 L 282 337.75 L 281.441406 336.191406 L 280.882813 334.628906 L 280.320313 333.070313 L 279.761719 331.515625 L 279.199219 329.960938 L 278.632813 328.40625 L 278.070313 326.855469 L 276.9375 323.761719 L 276.367188 322.21875 L 275.800781 320.675781 L 275.230469 319.136719 L 274.65625 317.597656 L 274.085938 316.0625 L 272.9375 313 L 271.789063 309.945313 L 271.210938 308.425781 L 270.632813 306.902344 L 269.476563 303.871094 L 268.898438 302.359375 L 268.316406 300.847656 L 267.734375 299.339844 L 267.152344 297.835938 L 265.988281 294.835938 L 265.402344 293.34375 L 264.816406 291.847656 L 264.230469 290.359375 L 263.058594 287.390625 L 262.472656 285.910156 L 261.882813 284.433594 L 261.296875 282.960938 L 260.707031 281.488281 L 259.527344 278.558594 L 258.9375 277.097656 L 258.347656 275.640625 L 257.757813 274.1875 L 257.167969 272.738281 L 256.574219 271.289063 L 255.984375 269.847656 L 255.390625 268.40625 L 254.800781 266.972656 L 254.207031 265.539063 L 253.019531 262.6875 L 252.429688 261.265625 L 251.242188 258.4375 L 250.648438 257.027344 L 250.054688 255.621094 L 248.867188 252.824219 L 248.273438 251.429688 L 247.085938 248.65625 L 246.492188 247.277344 L 245.902344 245.902344 L 245.308594 244.527344 L 244.714844 243.160156 L 244.121094 241.796875 L 243.527344 240.4375 L 242.9375 239.082031 L 242.34375 237.734375 L 241.753906 236.386719 L 241.160156 235.046875 L 240.570313 233.707031 L 239.980469 232.375 L 239.386719 231.046875 L 238.207031 228.40625 L 237.621094 227.09375 L 237.03125 225.785156 L 236.441406 224.480469 L 235.855469 223.179688 L 235.265625 221.886719 L 234.679688 220.597656 L 234.09375 219.3125 L 233.507813 218.03125 L 232.925781 216.757813 L 232.339844 215.488281 L 231.757813 214.222656 L 231.175781 212.960938 L 230.59375 211.707031 L 230.011719 210.457031 L 229.429688 209.214844 L 228.851563 207.972656 L 228.273438 206.738281 L 227.695313 205.511719 L 227.117188 204.289063 L 226.542969 203.070313 L 225.96875 201.855469 L 225.394531 200.648438 L 224.820313 199.445313 L 224.25 198.25 L 223.679688 197.058594 L 222.539063 194.691406 L 221.40625 192.347656 L 220.84375 191.183594 L 220.277344 190.027344 L 219.714844 188.875 L 219.15625 187.730469 L 218.59375 186.589844 L 218.035156 185.453125 L 217.480469 184.324219 L 216.925781 183.199219 L 216.371094 182.082031 L 215.816406 180.96875 L 215.265625 179.863281 L 214.714844 178.765625 L 214.167969 177.671875 L 213.621094 176.582031 L 213.074219 175.5 L 212.53125 174.421875 L 211.988281 173.351563 L 211.449219 172.289063 L 210.910156 171.230469 L 210.375 170.179688 L 209.839844 169.132813 L 209.304688 168.09375 L 208.773438 167.058594 L 208.242188 166.03125 L 207.714844 165.011719 L 207.1875 163.996094 L 206.664063 162.988281 L 206.144531 161.984375 L 205.621094 160.988281 L 205.105469 160 L 204.589844 159.015625 L 204.074219 158.039063 L 203.5625 157.066406 L 203.050781 156.105469 L 202.542969 155.144531 L 202.039063 154.195313 L 201.535156 153.25 L 201.03125 152.3125 L 200.535156 151.378906 L 200.035156 150.453125 L 199.542969 149.535156 L 199.050781 148.625 L 198.558594 147.71875 L 198.070313 146.820313 L 197.585938 145.925781 L 196.625 144.160156 L 196.144531 143.289063 L 195.667969 142.425781 L 195.195313 141.566406 L 194.726563 140.714844 L 194.257813 139.867188 L 193.792969 139.027344 L 192.871094 137.371094 L 192.414063 136.554688 L 191.960938 135.742188 L 191.507813 134.9375 L 191.058594 134.140625 L 190.613281 133.351563 L 190.167969 132.566406 L 189.726563 131.789063 L 189.289063 131.019531 L 188.855469 130.257813 L 188.421875 129.5 L 187.996094 128.75 L 187.566406 128.007813 L 187.144531 127.273438 L 186.726563 126.546875 L 186.308594 125.824219 L 185.894531 125.109375 L 185.484375 124.402344 L 185.074219 123.703125 L 184.671875 123.011719 L 184.269531 122.324219 L 183.871094 121.648438 L 183.476563 120.976563 L 183.085938 120.308594 L 182.695313 119.652344 L 182.3125 119.003906 L 181.929688 118.359375 L 181.550781 117.722656 L 181.175781 117.09375 L 180.804688 116.472656 L 180.4375 115.859375 L 180.070313 115.253906 L 179.710938 114.652344 L 179.351563 114.058594 L 178.996094 113.472656 L 178.648438 112.894531 L 178.300781 112.324219 L 177.957031 111.761719 L 177.617188 111.203125 L 177.28125 110.65625 L 176.949219 110.113281 L 176.617188 109.578125 L 176.292969 109.050781 L 175.972656 108.53125 L 175.652344 108.019531 L 175.339844 107.511719 L 175.03125 107.015625 L 174.722656 106.523438 L 174.421875 106.039063 L 174.121094 105.5625 L 173.828125 105.09375 L 173.539063 104.632813 L 173.25 104.179688 L 172.96875 103.730469 L 172.6875 103.292969 L 172.414063 102.859375 L 172.144531 102.433594 L 171.875 102.015625 L 171.613281 101.605469 L 171.355469 101.203125 L 171.101563 100.808594 L 170.851563 100.421875 L 170.605469 100.039063 L 170.363281 99.664063 L 170.125 99.300781 L 169.890625 98.941406 L 169.664063 98.589844 L 169.4375 98.246094 L 169.21875 97.910156 L 169 97.578125 L 168.789063 97.257813 L 168.582031 96.941406 L 168.378906 96.636719 L 168.179688 96.335938 L 167.984375 96.042969 L 167.796875 95.757813 L 167.609375 95.480469 L 167.429688 95.210938 L 167.253906 94.945313 L 167.082031 94.691406 L 166.914063 94.441406 L 166.753906 94.199219 L 166.59375 93.96875 L 166.441406 93.742188 L 166.292969 93.523438 L 166.148438 93.308594 L 166.007813 93.105469 L 165.875 92.90625 L 165.742188 92.71875 L 165.617188 92.535156 L 165.496094 92.359375 L 165.382813 92.191406 L 165.269531 92.03125 L 165.164063 91.878906 L 165.0625 91.730469 L 164.964844 91.59375 L 164.875 91.460938 L 164.789063 91.335938 L 164.707031 91.222656 L 164.628906 91.109375 L 164.554688 91.007813 L 164.488281 90.914063 L 164.425781 90.824219 L 164.371094 90.742188 L 164.316406 90.671875 L 164.269531 90.605469 L 164.226563 90.542969 L 164.191406 90.492188 L 164.15625 90.449219 L 164.128906 90.410156 L 164.109375 90.378906 L 164.089844 90.355469 L 164.078125 90.339844 L 164.074219 90.328125 L 164.070313 90.328125 L 164.085938 90.34375 L 164.097656 90.363281 L 164.117188 90.390625 L 164.140625 90.421875 L 164.171875 90.464844 L 164.207031 90.511719 L 164.246094 90.566406 L 164.292969 90.625 L 164.34375 90.695313 L 164.398438 90.769531 L 164.460938 90.851563 L 164.527344 90.941406 L 164.597656 91.039063 L 164.675781 91.140625 L 164.757813 91.25 L 164.847656 91.367188 L 164.941406 91.492188 L 165.039063 91.621094 L 165.144531 91.761719 L 165.253906 91.90625 L 165.367188 92.054688 L 165.488281 92.214844 L 165.617188 92.378906 L 165.746094 92.550781 L 165.882813 92.730469 L 166.027344 92.914063 L 166.175781 93.105469 L 166.328125 93.304688 L 166.488281 93.507813 L 166.652344 93.722656 L 166.820313 93.941406 L 166.996094 94.164063 L 167.179688 94.398438 L 167.367188 94.636719 L 167.558594 94.878906 L 167.757813 95.132813 L 167.960938 95.390625 L 168.167969 95.65625 L 168.382813 95.925781 L 168.605469 96.203125 L 168.832031 96.488281 L 169.0625 96.777344 L 169.300781 97.074219 L 169.542969 97.378906 L 169.792969 97.6875 L 170.046875 98.003906 L 170.304688 98.328125 L 170.570313 98.65625 L 170.84375 98.992188 L 171.121094 99.335938 L 171.402344 99.683594 L 171.691406 100.035156 L 171.984375 100.398438 L 172.285156 100.761719 L 172.589844 101.136719 L 172.902344 101.515625 L 173.21875 101.902344 L 173.542969 102.292969 L 173.871094 102.6875 L 174.207031 103.09375 L 174.546875 103.503906 L 174.890625 103.917969 L 175.242188 104.339844 L 175.601563 104.765625 L 175.960938 105.199219 L 176.332031 105.640625 L 176.707031 106.085938 L 177.085938 106.535156 L 177.472656 106.992188 L 177.863281 107.457031 L 178.261719 107.925781 L 178.664063 108.398438 L 179.074219 108.878906 L 179.488281 109.367188 L 179.910156 109.859375 L 180.335938 110.355469 L 180.769531 110.859375 L 181.207031 111.367188 L 181.652344 111.882813 L 182.101563 112.402344 L 182.554688 112.929688 L 183.015625 113.460938 L 183.484375 113.996094 L 183.957031 114.539063 L 184.4375 115.085938 L 184.921875 115.640625 L 185.410156 116.199219 L 185.90625 116.761719 L 186.40625 117.332031 L 186.914063 117.90625 L 187.429688 118.484375 L 187.949219 119.070313 L 188.472656 119.660156 L 189.003906 120.257813 L 189.539063 120.859375 L 190.082031 121.464844 L 190.628906 122.074219 L 191.183594 122.691406 L 191.742188 123.3125 L 192.304688 123.941406 L 192.875 124.570313 L 193.453125 125.207031 L 194.035156 125.851563 L 194.625 126.496094 L 195.21875 127.148438 L 195.816406 127.804688 L 196.421875 128.464844 L 197.03125 129.128906 L 197.648438 129.800781 L 198.269531 130.476563 L 198.898438 131.15625 L 199.53125 131.84375 L 200.171875 132.53125 L 200.816406 133.226563 L 201.464844 133.925781 L 202.121094 134.628906 L 202.785156 135.335938 L 203.449219 136.046875 L 204.125 136.765625 L 204.800781 137.488281 L 205.488281 138.210938 L 206.175781 138.941406 L 206.871094 139.675781 L 208.277344 141.160156 L 208.992188 141.90625 L 209.707031 142.660156 L 210.429688 143.414063 L 211.160156 144.175781 L 211.894531 144.941406 L 212.632813 145.707031 L 213.378906 146.480469 L 214.128906 147.257813 L 214.886719 148.039063 L 215.648438 148.824219 L 216.414063 149.613281 L 217.1875 150.40625 L 217.964844 151.199219 L 218.75 152 L 219.535156 152.804688 L 220.332031 153.613281 L 221.128906 154.425781 L 221.933594 155.242188 L 222.746094 156.058594 L 223.5625 156.882813 L 224.382813 157.707031 L 225.207031 158.539063 L 226.039063 159.371094 L 226.875 160.210938 L 227.71875 161.050781 L 228.566406 161.894531 L 229.417969 162.742188 L 230.277344 163.59375 L 231.136719 164.449219 L 232.007813 165.304688 L 232.878906 166.164063 L 233.757813 167.03125 L 234.640625 167.898438 L 235.53125 168.769531 L 236.425781 169.640625 L 237.324219 170.519531 L 238.226563 171.398438 L 239.136719 172.28125 L 240.050781 173.167969 L 240.96875 174.058594 L 241.894531 174.949219 L 242.820313 175.84375 L 243.757813 176.742188 L 244.695313 177.644531 L 245.640625 178.546875 L 246.585938 179.453125 L 247.542969 180.363281 L 248.5 181.277344 L 249.464844 182.191406 L 250.429688 183.109375 L 251.40625 184.027344 L 252.382813 184.949219 L 253.363281 185.875 L 254.351563 186.800781 L 255.34375 187.734375 L 256.339844 188.664063 L 258.347656 190.539063 L 259.359375 191.476563 L 260.375 192.417969 L 261.394531 193.363281 L 262.417969 194.308594 L 263.449219 195.257813 L 264.480469 196.210938 L 265.519531 197.164063 L 266.5625 198.117188 L 267.609375 199.074219 L 268.660156 200.035156 L 269.71875 200.996094 L 270.777344 201.960938 L 272.910156 203.890625 L 273.984375 204.859375 L 275.0625 205.832031 L 276.144531 206.804688 L 277.230469 207.777344 L 278.320313 208.753906 L 279.414063 209.734375 L 280.515625 210.710938 L 281.617188 211.695313 L 282.726563 212.675781 L 283.835938 213.660156 L 284.949219 214.644531 L 286.070313 215.632813 L 287.195313 216.621094 L 288.320313 217.613281 L 290.585938 219.597656 L 291.726563 220.589844 L 294.015625 222.582031 L 295.167969 223.582031 L 296.320313 224.578125 L 297.480469 225.582031 L 298.640625 226.582031 L 299.808594 227.582031 L 300.976563 228.585938 L 302.148438 229.59375 L 303.328125 230.597656 L 304.507813 231.605469 L 305.691406 232.609375 L 306.878906 233.621094 L 309.261719 235.636719 L 310.460938 236.648438 L 312.867188 238.671875 L 314.074219 239.683594 L 315.285156 240.699219 L 316.5 241.710938 L 317.71875 242.726563 L 320.164063 244.757813 L 321.390625 245.773438 L 322.621094 246.789063 L 323.855469 247.804688 L 325.09375 248.824219 L 326.332031 249.839844 L 327.574219 250.859375 L 328.820313 251.875 L 330.070313 252.894531 L 332.578125 254.933594 L 333.835938 255.949219 L 335.09375 256.96875 L 337.625 259.007813 L 340.164063 261.046875 L 341.4375 262.066406 L 342.714844 263.082031 L 346.558594 266.140625 L 347.847656 267.15625 L 349.136719 268.175781 L 350.429688 269.191406 L 351.722656 270.210938 L 354.316406 272.242188 L 355.617188 273.261719 L 358.226563 275.292969 L 359.535156 276.304688 L 360.84375 277.320313 L 362.15625 278.332031 L 363.46875 279.347656 L 364.785156 280.359375 L 366.105469 281.371094 L 367.421875 282.382813 L 368.746094 283.390625 L 370.070313 284.402344 L 371.394531 285.410156 L 374.050781 287.425781 L 375.382813 288.433594 L 378.046875 290.441406 L 379.382813 291.445313 L 380.722656 292.449219 L 384.742188 295.449219 L 386.085938 296.445313 L 387.433594 297.445313 L 388.777344 298.441406 L 390.125 299.433594 L 391.472656 300.429688 L 392.824219 301.421875 L 394.175781 302.410156 L 395.527344 303.402344 L 396.882813 304.390625 L 400.949219 307.34375 L 402.308594 308.328125 L 403.664063 309.308594 L 405.027344 310.289063 L 407.746094 312.242188 L 409.109375 313.21875 L 411.835938 315.164063 L 413.199219 316.132813 L 414.566406 317.101563 L 415.929688 318.066406 L 418.664063 319.996094 L 420.03125 320.957031 L 424.132813 323.828125 L 425.5 324.78125 L 426.871094 325.734375 L 428.238281 326.683594 L 429.609375 327.632813 L 430.976563 328.578125 L 432.347656 329.519531 L 433.714844 330.460938 L 435.085938 331.402344 L 436.457031 332.339844 L 437.824219 333.273438 L 439.195313 334.207031 L 440.5625 335.136719 L 441.933594 336.066406 L 444.667969 337.917969 L 446.039063 338.839844 L 448.773438 340.675781 L 451.507813 342.503906 L 452.875 343.414063 L 454.238281 344.320313 L 455.605469 345.226563 L 458.332031 347.03125 L 459.695313 347.929688 L 461.058594 348.824219 L 462.417969 349.714844 L 463.78125 350.605469 L 466.5 352.378906 L 467.855469 353.261719 L 469.214844 354.140625 L 471.925781 355.890625 L 474.628906 357.632813 L 477.332031 359.359375 L 480.027344 361.078125 L 481.375 361.933594 L 482.71875 362.785156 L 485.40625 364.480469 L 486.746094 365.324219 L 488.082031 366.164063 L 489.421875 367 L 490.753906 367.832031 L 492.089844 368.664063 L 493.421875 369.492188 L 496.078125 371.140625 L 497.40625 371.960938 L 500.054688 373.585938 L 501.375 374.398438 L 504.007813 376.007813 L 505.324219 376.808594 L 506.636719 377.605469 L 507.945313 378.398438 L 509.253906 379.1875 L 510.558594 379.976563 L 511.863281 380.761719 L 513.164063 381.539063 L 515.757813 383.09375 L 517.050781 383.863281 L 518.34375 384.628906 L 519.632813 385.394531 L 520.917969 386.15625 L 522.199219 386.914063 L 523.480469 387.667969 L 524.757813 388.417969 L 526.035156 389.164063 L 527.304688 389.910156 L 529.84375 391.386719 L 532.367188 392.847656 L 533.625 393.574219 L 534.878906 394.296875 L 537.378906 395.734375 L 538.625 396.445313 L 539.863281 397.152344 L 541.105469 397.859375 L 542.339844 398.558594 L 543.570313 399.257813 L 544.800781 399.953125 L 546.023438 400.644531 L 547.246094 401.332031 L 548.464844 402.011719 L 549.679688 402.691406 L 550.890625 403.371094 L 552.097656 404.042969 L 553.300781 404.710938 L 554.503906 405.375 L 555.699219 406.035156 L 556.890625 406.695313 L 558.082031 407.347656 L 559.265625 408 L 560.445313 408.644531 L 561.625 409.285156 L 562.796875 409.925781 L 563.964844 410.5625 L 565.132813 411.191406 L 566.292969 411.820313 L 567.449219 412.445313 L 568.601563 413.0625 L 569.75 413.679688 L 570.894531 414.292969 L 572.035156 414.902344 L 573.171875 415.503906 L 574.300781 416.105469 L 575.429688 416.703125 L 576.550781 417.296875 L 577.671875 417.886719 L 578.785156 418.46875 L 579.894531 419.050781 L 580.996094 419.628906 L 582.097656 420.203125 L 583.191406 420.773438 L 584.28125 421.339844 L 585.367188 421.902344 L 586.449219 422.460938 L 587.527344 423.015625 L 588.597656 423.566406 L 589.664063 424.109375 L 590.726563 424.652344 L 591.78125 425.191406 L 592.835938 425.726563 L 593.882813 426.257813 L 594.921875 426.785156 L 595.960938 427.308594 L 596.992188 427.828125 L 600.054688 429.359375 L 601.066406 429.863281 L 602.070313 430.363281 L 603.070313 430.859375 L 604.066406 431.347656 L 605.054688 431.835938 L 606.039063 432.320313 L 607.015625 432.800781 L 607.988281 433.273438 L 608.957031 433.746094 L 609.917969 434.214844 L 610.875 434.675781 L 611.824219 435.136719 L 612.769531 435.59375 L 613.707031 436.042969 L 614.640625 436.492188 L 615.570313 436.9375 L 616.492188 437.375 L 617.40625 437.8125 L 618.316406 438.242188 L 619.222656 438.671875 L 620.121094 439.09375 L 621.011719 439.515625 L 621.898438 439.929688 L 622.777344 440.34375 L 623.652344 440.75 L 624.519531 441.15625 L 625.382813 441.554688 L 626.238281 441.953125 L 627.085938 442.34375 L 627.929688 442.734375 L 628.769531 443.117188 L 629.597656 443.5 L 630.421875 443.875 L 631.242188 444.246094 L 632.054688 444.617188 L 632.859375 444.980469 L 633.660156 445.34375 L 634.449219 445.699219 L 635.238281 446.050781 L 636.015625 446.402344 L 636.789063 446.746094 L 637.554688 447.089844 L 638.316406 447.425781 L 639.070313 447.757813 L 639.816406 448.089844 L 640.554688 448.414063 L 641.289063 448.738281 L 642.015625 449.054688 L 642.734375 449.367188 L 643.449219 449.679688 L 644.152344 449.984375 L 644.851563 450.289063 L 645.546875 450.585938 L 646.230469 450.882813 L 646.910156 451.171875 L 647.582031 451.460938 L 648.246094 451.746094 L 648.902344 452.023438 L 649.554688 452.300781 L 650.199219 452.574219 L 651.464844 453.105469 L 652.085938 453.367188 L 652.699219 453.625 L 653.308594 453.878906 L 653.910156 454.125 L 654.503906 454.371094 L 655.089844 454.613281 L 655.667969 454.851563 L 656.238281 455.089844 L 656.804688 455.320313 L 657.359375 455.546875 L 657.910156 455.769531 L 658.453125 455.992188 L 658.988281 456.207031 L 659.515625 456.417969 L 660.035156 456.628906 L 660.546875 456.835938 L 661.054688 457.035156 L 661.550781 457.234375 L 662.039063 457.429688 L 662.523438 457.621094 L 662.996094 457.808594 L 663.464844 457.992188 L 663.925781 458.171875 L 664.375 458.347656 L 664.820313 458.523438 L 665.257813 458.691406 L 665.6875 458.859375 L 666.109375 459.019531 L 666.523438 459.179688 L 666.929688 459.335938 L 667.324219 459.488281 L 667.714844 459.636719 L 668.097656 459.785156 L 668.472656 459.925781 L 668.839844 460.0625 L 669.199219 460.199219 L 669.550781 460.332031 L 669.894531 460.460938 L 670.230469 460.585938 L 670.558594 460.707031 L 670.875 460.824219 L 671.1875 460.941406 L 671.492188 461.050781 L 671.789063 461.160156 L 672.074219 461.265625 L 672.355469 461.367188 L 672.628906 461.46875 L 672.890625 461.5625 L 673.144531 461.65625 L 673.394531 461.746094 L 673.632813 461.832031 L 673.863281 461.914063 L 674.089844 461.992188 L 674.304688 462.070313 L 674.511719 462.144531 L 674.710938 462.214844 L 674.898438 462.28125 L 675.082031 462.34375 L 675.257813 462.40625 L 675.425781 462.464844 L 675.582031 462.519531 L 675.730469 462.570313 L 675.875 462.617188 L 676.007813 462.664063 L 676.132813 462.707031 L 676.25 462.746094 L 676.359375 462.785156 L 676.457031 462.820313 L 676.550781 462.851563 L 676.636719 462.878906 L 676.710938 462.902344 L 676.777344 462.925781 L 676.835938 462.945313 L 676.886719 462.960938 L 676.929688 462.976563 L 676.964844 462.988281 L 676.992188 462.996094 L 677.007813 463.003906 L 677.019531 463.003906 L 677.011719 463.003906 L 676.996094 462.996094 L 676.96875 462.988281 L 676.9375 462.980469 L 676.898438 462.964844 L 676.847656 462.949219 L 676.789063 462.933594 L 676.722656 462.910156 L 676.648438 462.886719 L 676.566406 462.863281 L 676.476563 462.832031 L 676.375 462.804688 L 676.265625 462.769531 L 676.152344 462.734375 L 676.027344 462.695313 L 675.894531 462.652344 L 675.75 462.609375 L 675.601563 462.566406 L 675.441406 462.515625 L 675.273438 462.464844 L 675.101563 462.414063 L 674.917969 462.359375 L 674.722656 462.300781 L 674.523438 462.242188 L 674.316406 462.179688 L 674.097656 462.117188 L 673.871094 462.050781 L 673.636719 461.980469 L 673.394531 461.910156 L 673.144531 461.835938 L 672.882813 461.761719 L 672.617188 461.683594 L 672.339844 461.605469 L 672.054688 461.523438 L 671.761719 461.441406 L 671.460938 461.355469 L 671.152344 461.265625 L 670.832031 461.175781 L 670.507813 461.085938 L 670.171875 460.992188 L 669.828125 460.898438 L 669.476563 460.800781 L 669.117188 460.699219 L 668.75 460.597656 L 668.371094 460.496094 L 667.988281 460.390625 L 667.59375 460.285156 L 667.191406 460.175781 L 666.78125 460.066406 L 666.363281 459.953125 L 665.9375 459.839844 L 665.5 459.722656 L 665.058594 459.605469 L 664.605469 459.488281 L 664.148438 459.367188 L 663.679688 459.246094 L 663.203125 459.121094 L 662.71875 458.996094 L 662.226563 458.867188 L 661.722656 458.738281 L 661.214844 458.609375 L 660.699219 458.476563 L 660.171875 458.34375 L 659.636719 458.210938 L 659.097656 458.074219 L 658.546875 457.933594 L 657.988281 457.796875 L 657.421875 457.65625 L 656.847656 457.515625 L 656.265625 457.371094 L 655.671875 457.226563 L 655.074219 457.082031 L 654.46875 456.933594 L 653.851563 456.785156 L 653.230469 456.636719 L 652.597656 456.484375 L 651.960938 456.332031 L 651.3125 456.179688 L 650.65625 456.023438 L 649.992188 455.867188 L 649.324219 455.710938 L 648.644531 455.554688 L 647.957031 455.394531 L 647.261719 455.234375 L 646.558594 455.074219 L 645.847656 454.914063 L 645.128906 454.75 L 644.402344 454.585938 L 643.667969 454.421875 L 642.925781 454.253906 L 642.175781 454.085938 L 641.417969 453.921875 L 640.652344 453.75 L 639.882813 453.582031 L 639.101563 453.410156 L 638.3125 453.242188 L 637.515625 453.070313 L 636.710938 452.894531 L 635.898438 452.722656 L 635.082031 452.546875 L 634.253906 452.375 L 633.417969 452.199219 L 632.578125 452.023438 L 631.726563 451.84375 L 630.871094 451.667969 L 630.007813 451.488281 L 629.132813 451.308594 L 628.253906 451.128906 L 627.367188 450.949219 L 626.472656 450.769531 L 625.570313 450.589844 L 624.664063 450.410156 L 623.746094 450.226563 L 622.820313 450.042969 L 621.890625 449.863281 L 620.953125 449.679688 L 620.007813 449.496094 L 619.054688 449.3125 L 618.09375 449.125 L 617.125 448.941406 L 616.152344 448.757813 L 615.171875 448.570313 L 614.183594 448.386719 L 613.1875 448.199219 L 612.183594 448.015625 L 611.171875 447.828125 L 610.15625 447.640625 L 609.132813 447.457031 L 608.101563 447.269531 L 607.0625 447.082031 L 606.019531 446.894531 L 604.96875 446.707031 L 603.910156 446.519531 L 602.84375 446.335938 L 601.773438 446.148438 L 600.695313 445.960938 L 599.609375 445.773438 L 598.515625 445.585938 L 597.417969 445.398438 L 596.3125 445.210938 L 595.199219 445.023438 L 594.082031 444.835938 L 592.957031 444.652344 L 591.824219 444.464844 L 590.6875 444.277344 L 589.542969 444.089844 L 588.390625 443.90625 L 587.234375 443.71875 L 586.070313 443.535156 L 584.898438 443.347656 L 583.722656 443.164063 L 582.539063 442.980469 L 581.351563 442.792969 L 580.15625 442.609375 L 578.953125 442.425781 L 577.746094 442.242188 L 576.53125 442.058594 L 575.3125 441.875 L 574.085938 441.695313 L 572.855469 441.511719 L 571.617188 441.332031 L 570.371094 441.148438 L 569.121094 440.96875 L 567.867188 440.789063 L 566.605469 440.609375 L 565.339844 440.429688 L 564.066406 440.25 L 562.785156 440.074219 L 561.5 439.894531 L 560.210938 439.71875 L 558.914063 439.542969 L 557.613281 439.367188 L 556.308594 439.191406 L 554.996094 439.019531 L 553.675781 438.84375 L 552.351563 438.671875 L 551.023438 438.5 L 549.6875 438.328125 L 548.347656 438.15625 L 547.003906 437.988281 L 545.652344 437.816406 L 544.296875 437.648438 L 542.9375 437.480469 L 541.570313 437.316406 L 540.199219 437.148438 L 538.824219 436.984375 L 536.058594 436.65625 L 534.664063 436.492188 L 533.269531 436.332031 L 531.867188 436.171875 L 530.460938 436.011719 L 529.050781 435.851563 L 527.636719 435.695313 L 526.214844 435.539063 L 524.789063 435.382813 L 523.359375 435.226563 L 521.925781 435.074219 L 520.488281 434.921875 L 517.597656 434.617188 L 516.144531 434.46875 L 514.6875 434.320313 L 513.226563 434.171875 L 511.761719 434.027344 L 508.816406 433.738281 L 507.339844 433.59375 L 504.371094 433.3125 L 502.878906 433.171875 L 499.886719 432.898438 L 498.382813 432.761719 L 496.875 432.628906 L 493.851563 432.363281 L 492.332031 432.230469 L 489.285156 431.972656 L 486.222656 431.722656 L 484.6875 431.597656 L 483.144531 431.472656 L 481.601563 431.351563 L 480.054688 431.234375 L 478.503906 431.113281 L 475.394531 430.878906 L 472.269531 430.652344 L 470.703125 430.539063 L 469.132813 430.429688 L 467.558594 430.320313 L 465.984375 430.214844 L 462.820313 430.003906 L 461.234375 429.898438 L 459.648438 429.796875 L 458.058594 429.699219 L 456.464844 429.601563 L 453.269531 429.40625 L 451.667969 429.3125 L 450.0625 429.21875 L 448.457031 429.128906 L 446.847656 429.039063 L 443.621094 428.867188 L 442.003906 428.78125 L 437.140625 428.535156 L 435.511719 428.457031 L 433.886719 428.382813 L 432.253906 428.304688 L 430.625 428.234375 L 428.988281 428.160156 L 427.351563 428.089844 L 425.714844 428.023438 L 424.074219 427.953125 L 422.433594 427.890625 L 420.789063 427.824219 L 419.144531 427.761719 L 414.199219 427.585938 L 410.894531 427.476563 L 407.582031 427.375 L 404.269531 427.28125 L 402.609375 427.234375 L 400.945313 427.191406 L 399.285156 427.148438 L 395.957031 427.070313 L 394.289063 427.035156 L 392.625 427 L 390.957031 426.964844 L 389.289063 426.933594 L 387.621094 426.90625 L 384.277344 426.851563 L 379.261719 426.78125 L 377.589844 426.761719 L 375.914063 426.746094 L 374.242188 426.730469 L 372.566406 426.714844 L 370.890625 426.703125 L 369.21875 426.691406 L 365.867188 426.675781 L 362.515625 426.667969 L 357.484375 426.667969 L 354.132813 426.675781 L 350.78125 426.691406 L 349.109375 426.703125 L 347.433594 426.714844 L 345.757813 426.730469 L 344.085938 426.746094 L 342.410156 426.761719 L 340.738281 426.78125 L 335.722656 426.851563 L 332.378906 426.90625 L 330.710938 426.933594 L 329.042969 426.964844 L 327.375 427 L 325.710938 427.035156 L 324.042969 427.070313 L 320.714844 427.148438 L 319.054688 427.191406 L 317.390625 427.234375 L 315.730469 427.28125 L 312.417969 427.375 L 309.105469 427.476563 L 305.800781 427.585938 L 300.855469 427.761719 L 299.210938 427.824219 L 297.566406 427.890625 L 295.925781 427.953125 L 294.285156 428.023438 L 292.648438 428.089844 L 291.011719 428.160156 L 289.375 428.234375 L 287.746094 428.304688 L 286.113281 428.382813 L 284.488281 428.457031 L 282.859375 428.535156 L 277.996094 428.78125 L 276.378906 428.867188 L 273.152344 429.039063 L 271.542969 429.128906 L 269.9375 429.21875 L 268.332031 429.3125 L 266.730469 429.40625 L 263.535156 429.601563 L 261.941406 429.699219 L 260.351563 429.796875 L 258.765625 429.898438 L 257.179688 430.003906 L 254.015625 430.214844 L 252.441406 430.320313 L 250.867188 430.429688 L 249.296875 430.539063 L 247.730469 430.652344 L 244.605469 430.878906 L 241.496094 431.113281 L 239.945313 431.234375 L 238.398438 431.351563 L 236.855469 431.472656 L 235.3125 431.597656 L 233.777344 431.722656 L 230.714844 431.972656 L 227.667969 432.230469 L 226.148438 432.363281 L 223.125 432.628906 L 221.617188 432.761719 L 220.113281 432.898438 L 217.121094 433.171875 L 215.628906 433.3125 L 212.660156 433.59375 L 211.183594 433.738281 L 208.238281 434.027344 L 206.773438 434.171875 L 205.3125 434.320313 L 203.855469 434.46875 L 202.402344 434.617188 L 199.511719 434.921875 L 198.074219 435.074219 L 196.640625 435.226563 L 195.210938 435.382813 L 193.785156 435.539063 L 192.363281 435.695313 L 190.949219 435.851563 L 189.539063 436.011719 L 188.132813 436.171875 L 186.730469 436.332031 L 185.335938 436.492188 L 183.941406 436.65625 L 181.175781 436.984375 L 179.800781 437.148438 L 178.429688 437.316406 L 177.0625 437.480469 L 175.703125 437.648438 L 174.347656 437.816406 L 172.996094 437.988281 L 171.652344 438.15625 L 170.3125 438.328125 L 168.976563 438.5 L 167.648438 438.671875 L 166.324219 438.84375 L 165.003906 439.019531 L 163.691406 439.191406 L 162.386719 439.367188 L 161.085938 439.542969 L 159.789063 439.71875 L 158.5 439.894531 L 157.214844 440.074219 L 155.933594 440.25 L 154.660156 440.429688 L 153.394531 440.609375 L 152.132813 440.789063 L 150.878906 440.96875 L 149.628906 441.148438 L 148.382813 441.332031 L 147.144531 441.511719 L 145.914063 441.695313 L 144.6875 441.875 L 143.46875 442.058594 L 142.253906 442.242188 L 141.046875 442.425781 L 139.84375 442.609375 L 138.648438 442.792969 L 137.460938 442.980469 L 136.277344 443.164063 L 135.101563 443.347656 L 133.929688 443.535156 L 132.765625 443.71875 L 131.609375 443.90625 L 130.457031 444.089844 L 129.3125 444.277344 L 128.175781 444.464844 L 127.042969 444.652344 L 125.917969 444.835938 L 124.800781 445.023438 L 123.6875 445.210938 L 122.582031 445.398438 L 121.484375 445.585938 L 120.390625 445.773438 L 119.304688 445.960938 L 118.226563 446.148438 L 117.15625 446.335938 L 116.089844 446.519531 L 115.03125 446.707031 L 113.980469 446.894531 L 112.9375 447.082031 L 111.898438 447.269531 L 110.867188 447.457031 L 109.84375 447.640625 L 108.828125 447.828125 L 107.816406 448.015625 L 106.8125 448.199219 L 105.816406 448.386719 L 104.828125 448.570313 L 103.847656 448.757813 L 102.875 448.941406 L 101.90625 449.125 L 100.945313 449.3125 L 99.992188 449.496094 L 99.046875 449.679688 L 98.109375 449.863281 L 97.179688 450.042969 L 96.253906 450.226563 L 95.335938 450.410156 L 94.429688 450.589844 L 93.527344 450.769531 L 92.632813 450.949219 L 91.746094 451.128906 L 90.867188 451.308594 L 89.992188 451.488281 L 89.128906 451.667969 L 88.273438 451.84375 L 87.421875 452.023438 L 86.582031 452.199219 L 85.746094 452.375 L 84.917969 452.546875 L 84.101563 452.722656 L 83.289063 452.894531 L 82.484375 453.070313 L 81.6875 453.242188 L 80.898438 453.410156 L 80.117188 453.582031 L 79.347656 453.75 L 78.582031 453.921875 L 77.824219 454.085938 L 77.074219 454.253906 L 76.332031 454.421875 L 75.597656 454.585938 L 74.871094 454.75 L 74.152344 454.914063 L 73.441406 455.074219 L 72.738281 455.234375 L 72.042969 455.394531 L 71.355469 455.554688 L 70.675781 455.710938 L 70.007813 455.867188 L 69.34375 456.023438 L 68.6875 456.179688 L 68.039063 456.332031 L 67.402344 456.484375 L 66.769531 456.636719 L 66.148438 456.785156 L 65.53125 456.933594 L 64.925781 457.082031 L 64.328125 457.226563 L 63.734375 457.371094 L 63.152344 457.515625 L 62.578125 457.65625 L 62.011719 457.796875 L 61.453125 457.933594 L 60.902344 458.074219 L 60.363281 458.210938 L 59.828125 458.34375 L 59.300781 458.476563 L 58.785156 458.609375 L 58.277344 458.738281 L 57.773438 458.867188 L 57.28125 458.996094 L 56.796875 459.121094 L 56.320313 459.246094 L 55.851563 459.367188 L 55.394531 459.488281 L 54.941406 459.605469 L 54.5 459.722656 L 54.0625 459.839844 L 53.636719 459.953125 L 53.21875 460.066406 L 52.808594 460.175781 L 52.40625 460.285156 L 52.011719 460.390625 L 51.628906 460.496094 L 51.25 460.597656 L 50.882813 460.699219 L 50.523438 460.800781 L 50.171875 460.898438 L 49.828125 460.992188 L 49.492188 461.085938 L 49.167969 461.175781 L 48.847656 461.265625 L 48.539063 461.355469 L 48.238281 461.441406 L 47.945313 461.523438 L 47.660156 461.605469 L 47.382813 461.683594 L 47.117188 461.761719 L 46.855469 461.835938 L 46.605469 461.910156 L 46.363281 461.980469 L 46.128906 462.050781 L 45.902344 462.117188 L 45.683594 462.179688 L 45.476563 462.242188 L 45.277344 462.300781 L 45.082031 462.359375 L 44.898438 462.414063 L 44.726563 462.464844 L 44.558594 462.515625 L 44.398438 462.566406 L 44.25 462.609375 L 44.105469 462.652344 L 43.972656 462.695313 L 43.847656 462.734375 L 43.734375 462.769531 L 43.625 462.804688 L 43.523438 462.832031 L 43.433594 462.863281 L 43.351563 462.886719 L 43.277344 462.910156 L 43.210938 462.933594 L 43.152344 462.949219 L 43.101563 462.964844 L 43.0625 462.980469 L 43.03125 462.988281 L 43.003906 462.996094 L 42.988281 463.003906 L 42.980469 463.003906 L 42.992188 463.003906 L 43.007813 462.996094 L 43.035156 462.988281 L 43.070313 462.976563 L 43.113281 462.960938 L 43.164063 462.945313 L 43.222656 462.925781 L 43.289063 462.902344 L 43.363281 462.878906 L 43.449219 462.851563 L 43.542969 462.820313 L 43.640625 462.785156 L 43.75 462.746094 L 43.867188 462.707031 L 43.992188 462.664063 L 44.125 462.617188 L 44.269531 462.570313 L 44.417969 462.519531 L 44.574219 462.464844 L 44.742188 462.40625 L 44.917969 462.34375 L 45.101563 462.28125 L 45.289063 462.214844 L 45.488281 462.144531 L 45.695313 462.070313 L 45.910156 461.992188 L 46.136719 461.914063 L 46.367188 461.832031 L 46.605469 461.746094 L 46.855469 461.65625 L 47.109375 461.5625 L 47.371094 461.46875 L 47.644531 461.367188 L 47.925781 461.265625 L 48.210938 461.160156 L 48.507813 461.050781 L 48.8125 460.941406 L 49.125 460.824219 L 49.441406 460.707031 L 49.769531 460.585938 L 50.105469 460.460938 L 50.449219 460.332031 L 50.800781 460.199219 L 51.160156 460.0625 L 51.527344 459.925781 L 51.902344 459.785156 L 52.285156 459.636719 L 52.675781 459.488281 L 53.070313 459.335938 L 53.476563 459.179688 L 53.890625 459.019531 L 54.3125 458.859375 L 54.742188 458.691406 L 55.179688 458.523438 L 55.625 458.347656 L 56.074219 458.171875 L 56.535156 457.992188 L 57.003906 457.808594 L 57.476563 457.621094 L 57.960938 457.429688 L 58.449219 457.234375 L 58.945313 457.035156 L 59.453125 456.835938 L 59.964844 456.628906 L 60.484375 456.417969 L 61.011719 456.207031 L 61.546875 455.992188 L 62.089844 455.769531 L 62.640625 455.546875 L 63.195313 455.320313 L 63.761719 455.089844 L 64.332031 454.851563 L 64.910156 454.613281 L 65.496094 454.371094 L 66.089844 454.125 L 66.691406 453.878906 L 67.300781 453.625 L 67.914063 453.367188 L 68.535156 453.105469 L 69.800781 452.574219 L 70.445313 452.300781 L 71.097656 452.023438 L 71.753906 451.746094 L 72.417969 451.460938 L 73.089844 451.171875 L 73.769531 450.882813 L 74.453125 450.585938 L 75.148438 450.289063 L 75.847656 449.984375 L 76.550781 449.679688 L 77.265625 449.367188 L 77.984375 449.054688 L 78.710938 448.738281 L 79.445313 448.414063 L 80.183594 448.089844 L 80.929688 447.757813 L 81.683594 447.425781 L 82.445313 447.089844 L 83.210938 446.746094 L 83.984375 446.402344 L 84.761719 446.050781 L 85.550781 445.699219 L 86.339844 445.34375 L 87.140625 444.980469 L 87.945313 444.617188 L 88.757813 444.246094 L 89.578125 443.875 L 90.402344 443.5 L 91.230469 443.117188 L 92.070313 442.734375 L 92.914063 442.34375 L 93.761719 441.953125 L 94.617188 441.554688 L 95.480469 441.15625 L 96.347656 440.75 L 97.222656 440.34375 L 98.101563 439.929688 L 98.988281 439.515625 L 99.878906 439.09375 L 100.777344 438.671875 L 101.683594 438.242188 L 102.59375 437.8125 L 103.507813 437.375 L 104.429688 436.9375 L 105.359375 436.492188 L 106.292969 436.042969 L 107.230469 435.59375 L 108.175781 435.136719 L 109.125 434.675781 L 110.082031 434.214844 L 111.042969 433.746094 L 112.011719 433.273438 L 112.984375 432.800781 L 113.960938 432.320313 L 114.945313 431.835938 L 115.933594 431.347656 L 116.929688 430.859375 L 117.929688 430.363281 L 118.933594 429.863281 L 119.945313 429.359375 L 123.007813 427.828125 L 124.039063 427.308594 L 125.078125 426.785156 L 126.117188 426.257813 L 127.164063 425.726563 L 128.21875 425.191406 L 129.273438 424.652344 L 130.335938 424.109375 L 131.402344 423.566406 L 132.472656 423.015625 L 133.550781 422.460938 L 134.632813 421.902344 L 135.71875 421.339844 L 136.808594 420.773438 L 137.902344 420.203125 L 139.003906 419.628906 L 140.105469 419.050781 L 141.214844 418.46875 L 142.328125 417.886719 L 143.449219 417.296875 L 144.570313 416.703125 L 145.699219 416.105469 L 146.828125 415.503906 L 147.964844 414.902344 L 149.105469 414.292969 L 150.25 413.679688 L 151.398438 413.0625 L 152.550781 412.445313 L 153.707031 411.820313 L 154.867188 411.191406 L 156.035156 410.5625 L 157.203125 409.925781 L 158.375 409.285156 L 159.554688 408.644531 L 160.734375 408 L 161.917969 407.347656 L 163.109375 406.695313 L 164.300781 406.035156 L 165.496094 405.375 L 166.699219 404.710938 L 167.902344 404.042969 L 169.109375 403.371094 L 170.320313 402.691406 L 171.535156 402.011719 L 172.753906 401.332031 L 173.976563 400.644531 L 175.199219 399.953125 L 176.429688 399.257813 L 177.660156 398.558594 L 178.894531 397.859375 L 180.136719 397.152344 L 181.375 396.445313 L 182.621094 395.734375 L 185.121094 394.296875 L 186.375 393.574219 L 187.632813 392.847656 L 190.15625 391.386719 L 192.695313 389.910156 L 193.964844 389.164063 L 195.242188 388.417969 L 196.519531 387.667969 L 197.800781 386.914063 L 199.082031 386.15625 L 200.367188 385.394531 L 201.65625 384.628906 L 202.949219 383.863281 L 204.242188 383.09375 L 206.835938 381.539063 L 208.136719 380.761719 L 209.441406 379.976563 L 210.746094 379.1875 L 212.054688 378.398438 L 213.363281 377.605469 L 214.675781 376.808594 L 215.992188 376.007813 L 218.625 374.398438 L 219.945313 373.585938 L 222.59375 371.960938 L 223.921875 371.140625 L 226.578125 369.492188 L 227.910156 368.664063 L 229.246094 367.832031 L 230.578125 367 L 231.917969 366.164063 L 233.253906 365.324219 L 234.59375 364.480469 L 237.28125 362.785156 L 238.625 361.933594 L 239.972656 361.078125 L 242.667969 359.359375 L 245.371094 357.632813 L 248.074219 355.890625 L 250.785156 354.140625 L 252.144531 353.261719 L 253.5 352.378906 L 256.21875 350.605469 L 257.582031 349.714844 L 258.941406 348.824219 L 260.304688 347.929688 L 261.667969 347.03125 L 264.394531 345.226563 L 265.761719 344.320313 L 267.125 343.414063 L 268.492188 342.503906 L 271.226563 340.675781 L 273.960938 338.839844 L 275.332031 337.917969 L 278.066406 336.066406 L 279.4375 335.136719 L 280.804688 334.207031 L 282.175781 333.273438 L 283.542969 332.339844 L 284.914063 331.402344 L 286.285156 330.460938 L 287.652344 329.519531 L 289.023438 328.578125 L 290.390625 327.632813 L 291.761719 326.683594 L 293.128906 325.734375 L 294.5 324.78125 L 295.867188 323.828125 L 299.96875 320.957031 L 301.335938 319.996094 L 304.070313 318.066406 L 305.433594 317.101563 L 306.800781 316.132813 L 308.164063 315.164063 L 310.890625 313.21875 L 312.253906 312.242188 L 314.972656 310.289063 L 316.335938 309.308594 L 317.691406 308.328125 L 319.050781 307.34375 L 323.117188 304.390625 L 324.472656 303.402344 L 325.824219 302.410156 L 327.175781 301.421875 L 328.527344 300.429688 L 329.875 299.433594 L 331.222656 298.441406 L 332.566406 297.445313 L 333.914063 296.445313 L 335.257813 295.449219 L 339.277344 292.449219 L 340.617188 291.445313 L 341.953125 290.441406 L 344.617188 288.433594 L 345.949219 287.425781 L 348.605469 285.410156 L 349.929688 284.402344 L 351.253906 283.390625 L 352.578125 282.382813 L 353.894531 281.371094 L 355.214844 280.359375 L 356.53125 279.347656 L 357.84375 278.332031 L 359.15625 277.320313 L 360.464844 276.304688 L 361.773438 275.292969 L 364.382813 273.261719 L 365.683594 272.242188 L 368.277344 270.210938 L 369.570313 269.191406 L 370.863281 268.175781 L 372.152344 267.15625 L 373.441406 266.140625 L 377.285156 263.082031 L 378.5625 262.066406 L 379.835938 261.046875 L 382.375 259.007813 L 384.90625 256.96875 L 386.164063 255.949219 L 387.421875 254.933594 L 389.929688 252.894531 L 391.179688 251.875 L 392.425781 250.859375 L 393.667969 249.839844 L 394.90625 248.824219 L 396.144531 247.804688 L 397.378906 246.789063 L 398.609375 245.773438 L 399.835938 244.757813 L 402.28125 242.726563 L 403.5 241.710938 L 404.714844 240.699219 L 405.925781 239.683594 L 407.132813 238.671875 L 409.539063 236.648438 L 410.738281 235.636719 L 413.121094 233.621094 L 414.308594 232.609375 L 415.492188 231.605469 L 416.671875 230.597656 L 417.851563 229.59375 L 419.023438 228.585938 L 420.191406 227.582031 L 421.359375 226.582031 L 422.519531 225.582031 L 423.679688 224.578125 L 424.832031 223.582031 L 425.984375 222.582031 L 428.273438 220.589844 L 429.414063 219.597656 L 431.679688 217.613281 L 432.804688 216.621094 L 433.929688 215.632813 L 435.050781 214.644531 L 436.164063 213.660156 L 437.273438 212.675781 L 438.382813 211.695313 L 439.484375 210.710938 L 440.585938 209.734375 L 441.679688 208.753906 L 442.769531 207.777344 L 443.855469 206.804688 L 444.9375 205.832031 L 446.015625 204.859375 L 447.089844 203.890625 L 449.222656 201.960938 L 450.28125 200.996094 L 451.339844 200.035156 L 452.390625 199.074219 L 453.4375 198.117188 L 454.480469 197.164063 L 455.519531 196.210938 L 456.550781 195.257813 L 457.582031 194.308594 L 458.605469 193.363281 L 459.625 192.417969 L 460.640625 191.476563 L 461.652344 190.539063 L 463.660156 188.664063 L 464.65625 187.734375 L 465.648438 186.800781 L 466.636719 185.875 L 467.617188 184.949219 L 468.59375 184.027344 L 469.570313 183.109375 L 470.535156 182.191406 L 471.5 181.277344 L 472.457031 180.363281 L 473.414063 179.453125 L 474.359375 178.546875 L 475.304688 177.644531 L 476.242188 176.742188 L 477.179688 175.84375 L 478.105469 174.949219 L 479.03125 174.058594 L 479.949219 173.167969 L 480.863281 172.28125 L 481.773438 171.398438 L 482.675781 170.519531 L 483.574219 169.640625 L 484.46875 168.769531 L 485.359375 167.898438 L 486.242188 167.03125 L 487.121094 166.164063 L 487.992188 165.304688 L 488.863281 164.449219 L 489.722656 163.59375 L 490.582031 162.742188 L 491.433594 161.894531 L 492.28125 161.050781 L 493.125 160.210938 L 493.960938 159.371094 L 494.792969 158.539063 L 495.617188 157.707031 L 496.4375 156.882813 L 497.253906 156.058594 L 498.066406 155.242188 L 498.871094 154.425781 L 499.667969 153.613281 L 500.464844 152.804688 L 501.25 152 L 502.035156 151.199219 L 502.8125 150.40625 L 503.585938 149.613281 L 504.351563 148.824219 L 505.113281 148.039063 L 505.871094 147.257813 L 506.621094 146.480469 L 507.367188 145.707031 L 508.105469 144.941406 L 508.839844 144.175781 L 509.570313 143.414063 L 510.292969 142.660156 L 511.007813 141.90625 L 511.722656 141.160156 L 513.128906 139.675781 L 513.824219 138.941406 L 514.511719 138.210938 L 515.199219 137.488281 L 515.875 136.765625 L 516.550781 136.046875 L 517.214844 135.335938 L 517.878906 134.628906 L 518.535156 133.925781 L 519.183594 133.226563 L 519.828125 132.53125 L 520.46875 131.84375 L 521.101563 131.15625 L 521.730469 130.476563 L 522.351563 129.800781 L 522.96875 129.128906 L 523.578125 128.464844 L 524.183594 127.804688 L 524.78125 127.148438 L 525.375 126.496094 L 525.964844 125.851563 L 526.546875 125.207031 L 527.125 124.570313 L 527.695313 123.941406 L 528.257813 123.3125 L 528.816406 122.691406 L 529.371094 122.074219 L 529.917969 121.464844 L 530.460938 120.859375 L 530.996094 120.257813 L 531.527344 119.660156 L 532.050781 119.070313 L 532.570313 118.484375 L 533.085938 117.90625 L 533.59375 117.332031 L 534.09375 116.761719 L 534.589844 116.199219 L 535.078125 115.640625 L 535.5625 115.085938 L 536.042969 114.539063 L 536.515625 113.996094 L 536.984375 113.460938 L 537.445313 112.929688 L 537.898438 112.402344 L 538.347656 111.882813 L 538.792969 111.367188 L 539.230469 110.859375 L 539.664063 110.355469 L 540.089844 109.859375 L 540.511719 109.367188 L 540.925781 108.878906 L 541.335938 108.398438 L 541.738281 107.925781 L 542.136719 107.457031 L 542.527344 106.992188 L 542.914063 106.535156 L 543.292969 106.085938 L 543.667969 105.640625 L 544.039063 105.199219 L 544.398438 104.765625 L 544.757813 104.339844 L 545.109375 103.917969 L 545.453125 103.503906 L 545.792969 103.09375 L 546.128906 102.6875 L 546.457031 102.292969 L 546.78125 101.902344 L 547.097656 101.515625 L 547.410156 101.136719 L 547.714844 100.761719 L 548.015625 100.398438 L 548.308594 100.035156 L 548.597656 99.683594 L 548.878906 99.335938 L 549.15625 98.992188 L 549.429688 98.65625 L 549.695313 98.328125 L 549.953125 98.003906 L 550.207031 97.6875 L 550.457031 97.378906 L 550.699219 97.074219 L 550.9375 96.777344 L 551.167969 96.488281 L 551.394531 96.203125 L 551.617188 95.925781 L 551.832031 95.65625 L 552.039063 95.390625 L 552.242188 95.132813 L 552.441406 94.878906 L 552.632813 94.636719 L 552.820313 94.398438 L 553.003906 94.164063 L 553.179688 93.941406 L 553.347656 93.722656 L 553.511719 93.507813 L 553.671875 93.304688 L 553.824219 93.105469 L 553.972656 92.914063 L 554.117188 92.730469 L 554.253906 92.550781 L 554.382813 92.378906 L 554.511719 92.214844 L 554.632813 92.054688 L 554.746094 91.90625 L 554.855469 91.761719 L 554.960938 91.621094 L 555.058594 91.492188 L 555.152344 91.367188 L 555.242188 91.25 L 555.324219 91.140625 L 555.402344 91.039063 L 555.472656 90.941406 L 555.539063 90.851563 L 555.601563 90.769531 L 555.65625 90.695313 L 555.707031 90.625 L 555.753906 90.566406 L 555.792969 90.511719 L 555.828125 90.464844 L 555.859375 90.421875 L 555.882813 90.390625 L 555.902344 90.363281 L 555.914063 90.34375 L 555.929688 90.328125 L 555.925781 90.328125 L 555.921875 90.339844 L 555.910156 90.355469 L 555.890625 90.378906 L 555.871094 90.410156 L 555.84375 90.449219 L 555.808594 90.492188 L 555.773438 90.542969 L 555.730469 90.605469 L 555.683594 90.671875 L 555.628906 90.742188 L 555.574219 90.824219 L 555.511719 90.914063 L 555.445313 91.007813 L 555.371094 91.109375 L 555.292969 91.222656 L 555.210938 91.335938 L 555.125 91.460938 L 555.035156 91.59375 L 554.9375 91.730469 L 554.835938 91.878906 L 554.730469 92.03125 L 554.617188 92.191406 L 554.503906 92.359375 L 554.382813 92.535156 L 554.257813 92.71875 L 554.125 92.90625 L 553.992188 93.105469 L 553.851563 93.308594 L 553.707031 93.523438 L 553.558594 93.742188 L 553.40625 93.96875 L 553.246094 94.199219 L 553.085938 94.441406 L 552.917969 94.691406 L 552.746094 94.945313 L 552.570313 95.210938 L 552.390625 95.480469 L 552.203125 95.757813 L 552.015625 96.042969 L 551.820313 96.335938 L 551.621094 96.636719 L 551.417969 96.941406 L 551.210938 97.257813 L 551 97.578125 L 550.78125 97.910156 L 550.5625 98.246094 L 550.335938 98.589844 L 550.109375 98.941406 L 549.875 99.300781 L 549.636719 99.664063 L 549.394531 100.039063 L 549.148438 100.421875 L 548.898438 100.808594 L 548.644531 101.203125 L 548.386719 101.605469 L 548.125 102.015625 L 547.855469 102.433594 L 547.585938 102.859375 L 547.3125 103.292969 L 547.03125 103.730469 L 546.75 104.179688 L 546.460938 104.632813 L 546.171875 105.09375 L 545.878906 105.5625 L 545.578125 106.039063 L 545.277344 106.523438 L 544.96875 107.015625 L 544.660156 107.511719 L 544.347656 108.019531 L 544.027344 108.53125 L 543.707031 109.050781 L 543.382813 109.578125 L 543.050781 110.113281 L 542.71875 110.65625 L 542.382813 111.203125 L 542.042969 111.761719 L 541.699219 112.324219 L 541.351563 112.894531 L 541.003906 113.472656 L 540.648438 114.058594 L 540.289063 114.652344 L 539.929688 115.253906 L 539.5625 115.859375 L 539.195313 116.472656 L 538.824219 117.09375 L 538.449219 117.722656 L 538.070313 118.359375 L 537.6875 119.003906 L 537.304688 119.652344 L 536.914063 120.308594 L 536.523438 120.976563 L 536.128906 121.648438 L 535.730469 122.324219 L 535.328125 123.011719 L 534.925781 123.703125 L 534.515625 124.402344 L 534.105469 125.109375 L 533.691406 125.824219 L 533.273438 126.546875 L 532.855469 127.273438 L 532.433594 128.007813 L 532.003906 128.75 L 531.578125 129.5 L 531.144531 130.257813 L 530.710938 131.019531 L 530.273438 131.789063 L 529.832031 132.566406 L 529.386719 133.351563 L 528.941406 134.140625 L 528.492188 134.9375 L 528.039063 135.742188 L 527.585938 136.554688 L 527.128906 137.371094 L 526.207031 139.027344 L 525.742188 139.867188 L 525.273438 140.714844 L 524.804688 141.566406 L 524.332031 142.425781 L 523.855469 143.289063 L 523.375 144.160156 L 522.414063 145.925781 L 521.929688 146.820313 L 521.441406 147.71875 L 520.949219 148.625 L 520.457031 149.535156 L 519.964844 150.453125 L 519.464844 151.378906 L 518.96875 152.3125 L 518.464844 153.25 L 517.960938 154.195313 L 517.457031 155.144531 L 516.949219 156.105469 L 516.4375 157.066406 L 515.925781 158.039063 L 515.410156 159.015625 L 514.894531 160 L 514.378906 160.988281 L 513.855469 161.984375 L 513.335938 162.988281 L 512.8125 163.996094 L 512.285156 165.011719 L 511.757813 166.03125 L 511.226563 167.058594 L 510.695313 168.09375 L 510.160156 169.132813 L 509.625 170.179688 L 509.089844 171.230469 L 508.550781 172.289063 L 508.011719 173.351563 L 507.46875 174.421875 L 506.925781 175.5 L 506.378906 176.582031 L 505.832031 177.671875 L 505.285156 178.765625 L 504.734375 179.863281 L 504.183594 180.96875 L 503.628906 182.082031 L 503.074219 183.199219 L 502.519531 184.324219 L 501.964844 185.453125 L 501.40625 186.589844 L 500.84375 187.730469 L 500.285156 188.875 L 499.722656 190.027344 L 499.15625 191.183594 L 498.59375 192.347656 L 497.460938 194.691406 L 496.320313 197.058594 L 495.75 198.25 L 495.179688 199.445313 L 494.605469 200.648438 L 494.03125 201.855469 L 493.457031 203.070313 L 492.882813 204.289063 L 492.304688 205.511719 L 491.726563 206.738281 L 491.148438 207.972656 L 490.570313 209.214844 L 489.988281 210.457031 L 489.40625 211.707031 L 488.824219 212.960938 L 488.242188 214.222656 L 487.660156 215.488281 L 487.074219 216.757813 L 486.492188 218.03125 L 485.90625 219.3125 L 485.320313 220.597656 L 484.734375 221.886719 L 484.144531 223.179688 L 483.558594 224.480469 L 482.96875 225.785156 L 482.378906 227.09375 L 481.792969 228.40625 L 480.613281 231.046875 L 480.019531 232.375 L 479.429688 233.707031 L 478.839844 235.046875 L 478.246094 236.386719 L 477.65625 237.734375 L 477.0625 239.082031 L 476.472656 240.4375 L 475.878906 241.796875 L 475.285156 243.160156 L 474.691406 244.527344 L 474.097656 245.902344 L 473.507813 247.277344 L 472.914063 248.65625 L 471.726563 251.429688 L 471.132813 252.824219 L 469.945313 255.621094 L 469.351563 257.027344 L 468.757813 258.4375 L 467.570313 261.265625 L 466.980469 262.6875 L 465.792969 265.539063 L 465.199219 266.972656 L 464.609375 268.40625 L 464.015625 269.847656 L 463.425781 271.289063 L 462.832031 272.738281 L 462.242188 274.1875 L 461.652344 275.640625 L 461.0625 277.097656 L 460.472656 278.558594 L 459.292969 281.488281 L 458.703125 282.960938 L 458.117188 284.433594 L 457.527344 285.910156 L 456.941406 287.390625 L 455.769531 290.359375 L 455.183594 291.847656 L 454.597656 293.34375 L 454.011719 294.835938 L 452.847656 297.835938 L 452.265625 299.339844 L 451.683594 300.847656 L 451.101563 302.359375 L 450.523438 303.871094 L 449.367188 306.902344 L 448.789063 308.425781 L 448.210938 309.945313 L 447.0625 313 L 445.914063 316.0625 L 445.34375 317.597656 L 444.769531 319.136719 L 444.199219 320.675781 L 443.632813 322.21875 L 443.0625 323.761719 L 441.929688 326.855469 L 441.367188 328.40625 L 440.800781 329.960938 L 440.238281 331.515625 L 439.679688 333.070313 L 439.117188 334.628906 L 438.558594 336.191406 L 438 337.75 L 437.445313 339.316406 L 436.890625 340.878906 L 436.335938 342.449219 L 435.78125 344.015625 L 435.230469 345.585938 L 434.679688 347.160156 L 434.128906 348.730469 L 433.582031 350.304688 L 433.035156 351.882813 L 431.40625 356.617188 L 430.328125 359.78125 L 429.789063 361.367188 L 429.253906 362.949219 L 428.71875 364.535156 L 428.183594 366.125 L 427.652344 367.710938 L 427.121094 369.300781 L 426.066406 372.480469 L 425.542969 374.070313 L 425.015625 375.664063 L 424.496094 377.253906 L 423.972656 378.847656 L 423.457031 380.441406 L 422.9375 382.035156 L 422.421875 383.628906 L 421.910156 385.226563 L 421.398438 386.820313 L 420.886719 388.417969 L 420.378906 390.015625 L 419.871094 391.609375 L 418.359375 396.402344 L 417.859375 398 L 417.363281 399.597656 L 416.867188 401.191406 L 416.371094 402.789063 L 415.878906 404.386719 L 414.414063 409.179688 L 413.929688 410.773438 L 413.445313 412.371094 L 412.964844 413.964844 L 412.484375 415.5625 L 412.007813 417.15625 L 410.589844 421.9375 L 410.121094 423.527344 L 409.652344 425.121094 L 409.1875 426.710938 L 407.804688 431.480469 L 407.347656 433.066406 L 405.988281 437.824219 L 405.542969 439.40625 L 405.09375 440.988281 L 404.652344 442.570313 L 404.207031 444.148438 L 403.769531 445.730469 L 403.332031 447.304688 L 402.894531 448.882813 L 402.460938 450.457031 L 402.03125 452.027344 L 401.601563 453.601563 L 401.175781 455.171875 L 400.75 456.738281 L 399.90625 459.871094 L 399.488281 461.433594 L 399.074219 462.992188 L 398.660156 464.554688 L 398.246094 466.109375 L 397.839844 467.667969 L 397.433594 469.21875 L 397.027344 470.773438 L 396.625 472.320313 L 395.828125 475.414063 L 395.429688 476.957031 L 394.257813 481.574219 L 393.871094 483.105469 L 393.105469 486.167969 L 392.726563 487.691406 L 391.976563 490.738281 L 391.605469 492.253906 L 391.234375 493.773438 L 390.867188 495.285156 L 390.5 496.792969 L 390.140625 498.300781 L 389.777344 499.804688 L 389.421875 501.308594 L 389.0625 502.804688 L 388.710938 504.300781 L 388.359375 505.792969 L 388.011719 507.285156 L 387.664063 508.769531 L 387.320313 510.253906 L 386.980469 511.734375 L 386.640625 513.210938 L 386.304688 514.683594 L 385.96875 516.152344 L 385.636719 517.617188 L 385.308594 519.082031 L 384.980469 520.542969 L 384.332031 523.449219 L 384.015625 524.898438 L 383.695313 526.34375 L 383.382813 527.785156 L 383.070313 529.222656 L 382.757813 530.65625 L 382.449219 532.085938 L 382.144531 533.511719 L 381.839844 534.933594 L 381.539063 536.351563 L 381.242188 537.765625 L 380.945313 539.175781 L 380.652344 540.582031 L 380.363281 541.984375 L 380.074219 543.382813 L 379.785156 544.773438 L 379.503906 546.164063 L 378.941406 548.929688 L 378.664063 550.304688 L 378.390625 551.675781 L 378.117188 553.042969 L 377.847656 554.40625 L 377.582031 555.765625 L 377.316406 557.117188 L 377.054688 558.464844 L 376.792969 559.808594 L 376.535156 561.148438 L 376.28125 562.484375 L 376.027344 563.8125 L 375.777344 565.140625 L 375.527344 566.460938 L 375.28125 567.773438 L 375.039063 569.085938 L 374.796875 570.390625 L 374.558594 571.691406 L 374.324219 572.984375 L 374.089844 574.273438 L 373.855469 575.558594 L 373.625 576.839844 L 373.398438 578.113281 L 373.175781 579.382813 L 372.953125 580.648438 L 372.730469 581.90625 L 372.511719 583.160156 L 372.296875 584.40625 L 372.082031 585.648438 L 371.871094 586.886719 L 371.664063 588.117188 L 371.457031 589.34375 L 371.253906 590.5625 L 371.050781 591.777344 L 370.851563 592.984375 L 370.652344 594.1875 L 370.457031 595.386719 L 370.265625 596.578125 L 370.074219 597.761719 L 369.882813 598.941406 L 369.699219 600.117188 L 369.511719 601.285156 L 369.332031 602.445313 L 369.152344 603.601563 L 368.972656 604.75 L 368.796875 605.894531 L 368.625 607.035156 L 368.453125 608.164063 L 368.28125 609.289063 L 368.117188 610.410156 L 367.949219 611.523438 L 367.789063 612.628906 L 367.628906 613.730469 L 367.46875 614.824219 L 367.3125 615.910156 L 367.15625 616.992188 L 367.003906 618.066406 L 366.855469 619.136719 L 366.707031 620.195313 L 366.558594 621.25 L 366.414063 622.300781 L 366.273438 623.34375 L 366.132813 624.378906 L 365.996094 625.40625 L 365.859375 626.429688 L 365.726563 627.445313 L 365.59375 628.453125 L 365.460938 629.453125 L 365.332031 630.449219 L 365.207031 631.4375 L 365.082031 632.417969 L 364.960938 633.390625 L 364.839844 634.359375 L 364.71875 635.320313 L 364.605469 636.273438 L 364.488281 637.21875 L 364.375 638.160156 L 364.265625 639.089844 L 364.15625 640.015625 L 364.046875 640.933594 L 363.941406 641.84375 L 363.835938 642.746094 L 363.734375 643.644531 L 363.632813 644.53125 L 363.535156 645.414063 L 363.4375 646.289063 L 363.34375 647.15625 L 363.25 648.015625 L 363.15625 648.867188 L 363.066406 649.710938 L 362.980469 650.550781 L 362.890625 651.378906 L 362.808594 652.203125 L 362.722656 653.019531 L 362.640625 653.824219 L 362.5625 654.625 L 362.484375 655.417969 L 362.40625 656.203125 L 362.328125 656.980469 L 362.257813 657.746094 L 362.183594 658.507813 L 362.113281 659.261719 L 362.042969 660.007813 L 361.976563 660.75 L 361.910156 661.480469 L 361.84375 662.203125 L 361.78125 662.917969 L 361.71875 663.625 L 361.65625 664.324219 L 361.597656 665.015625 L 361.542969 665.699219 L 361.484375 666.375 L 361.429688 667.042969 L 361.375 667.699219 L 361.324219 668.351563 L 361.273438 668.996094 L 361.222656 669.632813 L 361.175781 670.257813 L 361.128906 670.878906 L 361.082031 671.492188 L 361.035156 672.09375 L 360.992188 672.6875 L 360.953125 673.277344 L 360.910156 673.855469 L 360.871094 674.425781 L 360.832031 674.988281 L 360.792969 675.542969 L 360.757813 676.089844 L 360.722656 676.625 L 360.6875 677.15625 L 360.65625 677.675781 L 360.625 678.1875 L 360.59375 678.695313 L 360.5625 679.191406 L 360.535156 679.679688 L 360.503906 680.15625 L 360.480469 680.628906 L 360.453125 681.09375 L 360.425781 681.546875 L 360.402344 681.992188 L 360.378906 682.429688 L 360.359375 682.859375 L 360.335938 683.28125 L 360.316406 683.691406 L 360.296875 684.09375 L 360.277344 684.492188 L 360.257813 684.878906 L 360.242188 685.253906 L 360.226563 685.625 L 360.210938 685.988281 L 360.195313 686.339844 L 360.179688 686.683594 L 360.167969 687.019531 L 360.15625 687.34375 L 360.140625 687.664063 L 360.132813 687.972656 L 360.121094 688.273438 L 360.109375 688.566406 L 360.101563 688.851563 L 360.089844 689.125 L 360.082031 689.390625 L 360.074219 689.648438 L 360.066406 689.898438 L 360.058594 690.140625 L 360.054688 690.371094 L 360.046875 690.59375 L 360.042969 690.808594 L 360.039063 691.015625 L 360.03125 691.210938 L 360.027344 691.398438 L 360.023438 691.578125 L 360.019531 691.75 L 360.019531 691.914063 L 360.015625 692.066406 L 360.011719 692.210938 L 360.011719 692.347656 L 360.007813 692.472656 L 360.007813 692.59375 L 360.003906 692.703125 L 360.003906 692.976563 L 360 693.050781 Z M 360 693.332031 "/>
    <animateTransform attributeType="xml" attributeName="transform" type="rotate" from="0 360 277.2" to="360 360 277.2" dur="12s" additive="sum" repeatCount="indefinite"/>
    <circle fill="red"
cx="360"
cy="277.2"
r = "6"/>
  </g>
</svg>
