<?xml version="1.0" encoding="UTF-8"?>
<svg xmlns="http://www.w3.org/2000/svg" xmlns:xlink="http://www.w3.org/1999/xlink" width="100%" height="100%" viewBox="0 0 720 720" version="1.1">
  <rect id="spiro_bg" x="0" y="0" rx="50%" ry="50%" width="100%" height="100%" style="fill:#000000FF;stroke:none;"/>
  <g id="spiro_3_1_1_81850" transform=" scale(1 1) translate(0 0)">
    <path style="fill:#FFFFFFE5;fill-rule:evenodd; stroke:none;" d="M 648.675781 526.667969 L 647.527344 525.972656 L 644.15625 523.796875 L 638.683594 520.019531 L 631.261719 514.546875 L 622.058594 507.300781 L 611.265625 498.234375 L 599.078125 487.328125 L 585.71875 474.582031 L 571.410156 460.035156 L 556.375 443.75 L 540.84375 425.820313 L 525.042969 406.367188 L 509.195313 385.539063 L 493.503906 363.5 L 478.167969 340.449219 L 463.371094 316.597656 L 449.273438 292.179688 L 436.015625 267.4375 L 423.722656 242.632813 L 412.480469 218.027344 L 402.367188 193.882813 L 393.417969 170.472656 L 385.65625 148.058594 L 379.070313 126.898438 L 373.628906 107.230469 L 369.273438 89.289063 L 365.917969 73.28125 L 363.460938 59.398438 L 361.789063 47.804688 L 360.761719 38.640625 L 360.226563 32.015625 L 360.027344 28.007813 L 360 26.667969 L 359.972656 28.007813 L 359.773438 32.015625 L 359.238281 38.640625 L 358.210938 47.804688 L 356.539063 59.398438 L 354.082031 73.28125 L 350.726563 89.289063 L 346.371094 107.230469 L 340.929688 126.898438 L 334.34375 148.058594 L 326.582031 170.472656 L 317.632813 193.882813 L 307.519531 218.027344 L 296.277344 242.632813 L 283.984375 267.4375 L 270.726563 292.179688 L 256.628906 316.597656 L 241.832031 340.449219 L 226.496094 363.5 L 210.804688 385.539063 L 194.957031 406.367188 L 179.15625 425.820313 L 163.625 443.75 L 148.589844 460.035156 L 134.28125 474.582031 L 120.921875 487.328125 L 108.734375 498.234375 L 97.941406 507.300781 L 88.738281 514.546875 L 81.316406 520.019531 L 75.84375 523.796875 L 72.472656 525.972656 L 71.324219 526.667969 L 72.5 526.019531 L 76.070313 524.1875 L 82.074219 521.335938 L 90.527344 517.644531 L 101.402344 513.300781 L 114.652344 508.484375 L 130.191406 503.386719 L 147.910156 498.1875 L 167.664063 493.066406 L 189.28125 488.191406 L 212.574219 483.703125 L 237.320313 479.746094 L 263.289063 476.4375 L 290.21875 473.867188 L 317.847656 472.113281 L 345.902344 471.222656 L 374.097656 471.222656 L 402.152344 472.113281 L 429.78125 473.867188 L 456.710938 476.4375 L 482.679688 479.746094 L 507.425781 483.703125 L 530.71875 488.191406 L 552.335938 493.066406 L 572.089844 498.1875 L 589.808594 503.386719 L 605.347656 508.484375 L 618.597656 513.300781 L 629.472656 517.644531 L 637.925781 521.335938 L 643.929688 524.1875 L 647.5 526.019531 Z M 648.675781 526.667969 "/>
    <animateTransform attributeType="xml" attributeName="transform" type="rotate" from="0 360 360" to="360 360 360" dur="30s" additive="sum" repeatCount="indefinite"/>
  </g>
  <g xmlns="http://www.w3.org/2000/svg" id="spiro_3_1_1_81850" transform=" scale(0.866025403784439 0.866025403784439) translate(55.6921938165306 55.6921938165306)">
    <path style="fill:#D1D2D3E5;fill-rule:evenodd; stroke:none;" d="M 648.675781 526.667969 L 647.527344 525.972656 L 644.15625 523.796875 L 638.683594 520.019531 L 631.261719 514.546875 L 622.058594 507.300781 L 611.265625 498.234375 L 599.078125 487.328125 L 585.71875 474.582031 L 571.410156 460.035156 L 556.375 443.75 L 540.84375 425.820313 L 525.042969 406.367188 L 509.195313 385.539063 L 493.503906 363.5 L 478.167969 340.449219 L 463.371094 316.597656 L 449.273438 292.179688 L 436.015625 267.4375 L 423.722656 242.632813 L 412.480469 218.027344 L 402.367188 193.882813 L 393.417969 170.472656 L 385.65625 148.058594 L 379.070313 126.898438 L 373.628906 107.230469 L 369.273438 89.289063 L 365.917969 73.28125 L 363.460938 59.398438 L 361.789063 47.804688 L 360.761719 38.640625 L 360.226563 32.015625 L 360.027344 28.007813 L 360 26.667969 L 359.972656 28.007813 L 359.773438 32.015625 L 359.238281 38.640625 L 358.210938 47.804688 L 356.539063 59.398438 L 354.082031 73.28125 L 350.726563 89.289063 L 346.371094 107.230469 L 340.929688 126.898438 L 334.34375 148.058594 L 326.582031 170.472656 L 317.632813 193.882813 L 307.519531 218.027344 L 296.277344 242.632813 L 283.984375 267.4375 L 270.726563 292.179688 L 256.628906 316.597656 L 241.832031 340.449219 L 226.496094 363.5 L 210.804688 385.539063 L 194.957031 406.367188 L 179.15625 425.820313 L 163.625 443.75 L 148.589844 460.035156 L 134.28125 474.582031 L 120.921875 487.328125 L 108.734375 498.234375 L 97.941406 507.300781 L 88.738281 514.546875 L 81.316406 520.019531 L 75.84375 523.796875 L 72.472656 525.972656 L 71.324219 526.667969 L 72.5 526.019531 L 76.070313 524.1875 L 82.074219 521.335938 L 90.527344 517.644531 L 101.402344 513.300781 L 114.652344 508.484375 L 130.191406 503.386719 L 147.910156 498.1875 L 167.664063 493.066406 L 189.28125 488.191406 L 212.574219 483.703125 L 237.320313 479.746094 L 263.289063 476.4375 L 290.21875 473.867188 L 317.847656 472.113281 L 345.902344 471.222656 L 374.097656 471.222656 L 402.152344 472.113281 L 429.78125 473.867188 L 456.710938 476.4375 L 482.679688 479.746094 L 507.425781 483.703125 L 530.71875 488.191406 L 552.335938 493.066406 L 572.089844 498.1875 L 589.808594 503.386719 L 605.347656 508.484375 L 618.597656 513.300781 L 629.472656 517.644531 L 637.925781 521.335938 L 643.929688 524.1875 L 647.5 526.019531 Z M 648.675781 526.667969 "/>
    <animateTransform attributeType="xml" attributeName="transform" type="rotate" from="0 360 360" to="360 360 360" dur="20s" additive="sum" repeatCount="indefinite"/>
  </g>
  <g xmlns="http://www.w3.org/2000/svg" id="spiro_3_1_1_81850" transform=" scale(0.75 0.75) translate(120 120)">
    <path style="fill:#A8B4C7E5;fill-rule:evenodd; stroke:none;" d="M 648.675781 526.667969 L 647.527344 525.972656 L 644.15625 523.796875 L 638.683594 520.019531 L 631.261719 514.546875 L 622.058594 507.300781 L 611.265625 498.234375 L 599.078125 487.328125 L 585.71875 474.582031 L 571.410156 460.035156 L 556.375 443.75 L 540.84375 425.820313 L 525.042969 406.367188 L 509.195313 385.539063 L 493.503906 363.5 L 478.167969 340.449219 L 463.371094 316.597656 L 449.273438 292.179688 L 436.015625 267.4375 L 423.722656 242.632813 L 412.480469 218.027344 L 402.367188 193.882813 L 393.417969 170.472656 L 385.65625 148.058594 L 379.070313 126.898438 L 373.628906 107.230469 L 369.273438 89.289063 L 365.917969 73.28125 L 363.460938 59.398438 L 361.789063 47.804688 L 360.761719 38.640625 L 360.226563 32.015625 L 360.027344 28.007813 L 360 26.667969 L 359.972656 28.007813 L 359.773438 32.015625 L 359.238281 38.640625 L 358.210938 47.804688 L 356.539063 59.398438 L 354.082031 73.28125 L 350.726563 89.289063 L 346.371094 107.230469 L 340.929688 126.898438 L 334.34375 148.058594 L 326.582031 170.472656 L 317.632813 193.882813 L 307.519531 218.027344 L 296.277344 242.632813 L 283.984375 267.4375 L 270.726563 292.179688 L 256.628906 316.597656 L 241.832031 340.449219 L 226.496094 363.5 L 210.804688 385.539063 L 194.957031 406.367188 L 179.15625 425.820313 L 163.625 443.75 L 148.589844 460.035156 L 134.28125 474.582031 L 120.921875 487.328125 L 108.734375 498.234375 L 97.941406 507.300781 L 88.738281 514.546875 L 81.316406 520.019531 L 75.84375 523.796875 L 72.472656 525.972656 L 71.324219 526.667969 L 72.5 526.019531 L 76.070313 524.1875 L 82.074219 521.335938 L 90.527344 517.644531 L 101.402344 513.300781 L 114.652344 508.484375 L 130.191406 503.386719 L 147.910156 498.1875 L 167.664063 493.066406 L 189.28125 488.191406 L 212.574219 483.703125 L 237.320313 479.746094 L 263.289063 476.4375 L 290.21875 473.867188 L 317.847656 472.113281 L 345.902344 471.222656 L 374.097656 471.222656 L 402.152344 472.113281 L 429.78125 473.867188 L 456.710938 476.4375 L 482.679688 479.746094 L 507.425781 483.703125 L 530.71875 488.191406 L 552.335938 493.066406 L 572.089844 498.1875 L 589.808594 503.386719 L 605.347656 508.484375 L 618.597656 513.300781 L 629.472656 517.644531 L 637.925781 521.335938 L 643.929688 524.1875 L 647.5 526.019531 Z M 648.675781 526.667969 "/>
    <animateTransform attributeType="xml" attributeName="transform" type="rotate" from="0 360 360" to="360 360 360" dur="15s" additive="sum" repeatCount="indefinite"/>
  </g>
  <g xmlns="http://www.w3.org/2000/svg" id="spiro_3_1_1_81850" transform=" scale(0.649519052838329 0.649519052838329) translate(194.256258422041 194.256258422041)">
    <path style="fill:#859FCAE5;fill-rule:evenodd; stroke:none;" d="M 648.675781 526.667969 L 647.527344 525.972656 L 644.15625 523.796875 L 638.683594 520.019531 L 631.261719 514.546875 L 622.058594 507.300781 L 611.265625 498.234375 L 599.078125 487.328125 L 585.71875 474.582031 L 571.410156 460.035156 L 556.375 443.75 L 540.84375 425.820313 L 525.042969 406.367188 L 509.195313 385.539063 L 493.503906 363.5 L 478.167969 340.449219 L 463.371094 316.597656 L 449.273438 292.179688 L 436.015625 267.4375 L 423.722656 242.632813 L 412.480469 218.027344 L 402.367188 193.882813 L 393.417969 170.472656 L 385.65625 148.058594 L 379.070313 126.898438 L 373.628906 107.230469 L 369.273438 89.289063 L 365.917969 73.28125 L 363.460938 59.398438 L 361.789063 47.804688 L 360.761719 38.640625 L 360.226563 32.015625 L 360.027344 28.007813 L 360 26.667969 L 359.972656 28.007813 L 359.773438 32.015625 L 359.238281 38.640625 L 358.210938 47.804688 L 356.539063 59.398438 L 354.082031 73.28125 L 350.726563 89.289063 L 346.371094 107.230469 L 340.929688 126.898438 L 334.34375 148.058594 L 326.582031 170.472656 L 317.632813 193.882813 L 307.519531 218.027344 L 296.277344 242.632813 L 283.984375 267.4375 L 270.726563 292.179688 L 256.628906 316.597656 L 241.832031 340.449219 L 226.496094 363.5 L 210.804688 385.539063 L 194.957031 406.367188 L 179.15625 425.820313 L 163.625 443.75 L 148.589844 460.035156 L 134.28125 474.582031 L 120.921875 487.328125 L 108.734375 498.234375 L 97.941406 507.300781 L 88.738281 514.546875 L 81.316406 520.019531 L 75.84375 523.796875 L 72.472656 525.972656 L 71.324219 526.667969 L 72.5 526.019531 L 76.070313 524.1875 L 82.074219 521.335938 L 90.527344 517.644531 L 101.402344 513.300781 L 114.652344 508.484375 L 130.191406 503.386719 L 147.910156 498.1875 L 167.664063 493.066406 L 189.28125 488.191406 L 212.574219 483.703125 L 237.320313 479.746094 L 263.289063 476.4375 L 290.21875 473.867188 L 317.847656 472.113281 L 345.902344 471.222656 L 374.097656 471.222656 L 402.152344 472.113281 L 429.78125 473.867188 L 456.710938 476.4375 L 482.679688 479.746094 L 507.425781 483.703125 L 530.71875 488.191406 L 552.335938 493.066406 L 572.089844 498.1875 L 589.808594 503.386719 L 605.347656 508.484375 L 618.597656 513.300781 L 629.472656 517.644531 L 637.925781 521.335938 L 643.929688 524.1875 L 647.5 526.019531 Z M 648.675781 526.667969 "/>
    <animateTransform attributeType="xml" attributeName="transform" type="rotate" from="0 360 360" to="360 360 360" dur="12s" additive="sum" repeatCount="indefinite"/>
  </g>
  <g xmlns="http://www.w3.org/2000/svg" id="spiro_3_1_1_81850" transform=" scale(0.5625 0.5625) translate(280 280)">
    <path style="fill:#6189CBE5;fill-rule:evenodd; stroke:none;" d="M 648.675781 526.667969 L 647.527344 525.972656 L 644.15625 523.796875 L 638.683594 520.019531 L 631.261719 514.546875 L 622.058594 507.300781 L 611.265625 498.234375 L 599.078125 487.328125 L 585.71875 474.582031 L 571.410156 460.035156 L 556.375 443.75 L 540.84375 425.820313 L 525.042969 406.367188 L 509.195313 385.539063 L 493.503906 363.5 L 478.167969 340.449219 L 463.371094 316.597656 L 449.273438 292.179688 L 436.015625 267.4375 L 423.722656 242.632813 L 412.480469 218.027344 L 402.367188 193.882813 L 393.417969 170.472656 L 385.65625 148.058594 L 379.070313 126.898438 L 373.628906 107.230469 L 369.273438 89.289063 L 365.917969 73.28125 L 363.460938 59.398438 L 361.789063 47.804688 L 360.761719 38.640625 L 360.226563 32.015625 L 360.027344 28.007813 L 360 26.667969 L 359.972656 28.007813 L 359.773438 32.015625 L 359.238281 38.640625 L 358.210938 47.804688 L 356.539063 59.398438 L 354.082031 73.28125 L 350.726563 89.289063 L 346.371094 107.230469 L 340.929688 126.898438 L 334.34375 148.058594 L 326.582031 170.472656 L 317.632813 193.882813 L 307.519531 218.027344 L 296.277344 242.632813 L 283.984375 267.4375 L 270.726563 292.179688 L 256.628906 316.597656 L 241.832031 340.449219 L 226.496094 363.5 L 210.804688 385.539063 L 194.957031 406.367188 L 179.15625 425.820313 L 163.625 443.75 L 148.589844 460.035156 L 134.28125 474.582031 L 120.921875 487.328125 L 108.734375 498.234375 L 97.941406 507.300781 L 88.738281 514.546875 L 81.316406 520.019531 L 75.84375 523.796875 L 72.472656 525.972656 L 71.324219 526.667969 L 72.5 526.019531 L 76.070313 524.1875 L 82.074219 521.335938 L 90.527344 517.644531 L 101.402344 513.300781 L 114.652344 508.484375 L 130.191406 503.386719 L 147.910156 498.1875 L 167.664063 493.066406 L 189.28125 488.191406 L 212.574219 483.703125 L 237.320313 479.746094 L 263.289063 476.4375 L 290.21875 473.867188 L 317.847656 472.113281 L 345.902344 471.222656 L 374.097656 471.222656 L 402.152344 472.113281 L 429.78125 473.867188 L 456.710938 476.4375 L 482.679688 479.746094 L 507.425781 483.703125 L 530.71875 488.191406 L 552.335938 493.066406 L 572.089844 498.1875 L 589.808594 503.386719 L 605.347656 508.484375 L 618.597656 513.300781 L 629.472656 517.644531 L 637.925781 521.335938 L 643.929688 524.1875 L 647.5 526.019531 Z M 648.675781 526.667969 "/>
    <animateTransform attributeType="xml" attributeName="transform" type="rotate" from="0 360 360" to="360 360 360" dur="10s" additive="sum" repeatCount="indefinite"/>
  </g>
  <g xmlns="http://www.w3.org/2000/svg" id="spiro_3_1_1_81850" transform=" scale(0.487139289628747 0.487139289628747) translate(379.008344562721 379.008344562721)">
    <path style="fill:#396DB3E5;fill-rule:evenodd; stroke:none;" d="M 648.675781 526.667969 L 647.527344 525.972656 L 644.15625 523.796875 L 638.683594 520.019531 L 631.261719 514.546875 L 622.058594 507.300781 L 611.265625 498.234375 L 599.078125 487.328125 L 585.71875 474.582031 L 571.410156 460.035156 L 556.375 443.75 L 540.84375 425.820313 L 525.042969 406.367188 L 509.195313 385.539063 L 493.503906 363.5 L 478.167969 340.449219 L 463.371094 316.597656 L 449.273438 292.179688 L 436.015625 267.4375 L 423.722656 242.632813 L 412.480469 218.027344 L 402.367188 193.882813 L 393.417969 170.472656 L 385.65625 148.058594 L 379.070313 126.898438 L 373.628906 107.230469 L 369.273438 89.289063 L 365.917969 73.28125 L 363.460938 59.398438 L 361.789063 47.804688 L 360.761719 38.640625 L 360.226563 32.015625 L 360.027344 28.007813 L 360 26.667969 L 359.972656 28.007813 L 359.773438 32.015625 L 359.238281 38.640625 L 358.210938 47.804688 L 356.539063 59.398438 L 354.082031 73.28125 L 350.726563 89.289063 L 346.371094 107.230469 L 340.929688 126.898438 L 334.34375 148.058594 L 326.582031 170.472656 L 317.632813 193.882813 L 307.519531 218.027344 L 296.277344 242.632813 L 283.984375 267.4375 L 270.726563 292.179688 L 256.628906 316.597656 L 241.832031 340.449219 L 226.496094 363.5 L 210.804688 385.539063 L 194.957031 406.367188 L 179.15625 425.820313 L 163.625 443.75 L 148.589844 460.035156 L 134.28125 474.582031 L 120.921875 487.328125 L 108.734375 498.234375 L 97.941406 507.300781 L 88.738281 514.546875 L 81.316406 520.019531 L 75.84375 523.796875 L 72.472656 525.972656 L 71.324219 526.667969 L 72.5 526.019531 L 76.070313 524.1875 L 82.074219 521.335938 L 90.527344 517.644531 L 101.402344 513.300781 L 114.652344 508.484375 L 130.191406 503.386719 L 147.910156 498.1875 L 167.664063 493.066406 L 189.28125 488.191406 L 212.574219 483.703125 L 237.320313 479.746094 L 263.289063 476.4375 L 290.21875 473.867188 L 317.847656 472.113281 L 345.902344 471.222656 L 374.097656 471.222656 L 402.152344 472.113281 L 429.78125 473.867188 L 456.710938 476.4375 L 482.679688 479.746094 L 507.425781 483.703125 L 530.71875 488.191406 L 552.335938 493.066406 L 572.089844 498.1875 L 589.808594 503.386719 L 605.347656 508.484375 L 618.597656 513.300781 L 629.472656 517.644531 L 637.925781 521.335938 L 643.929688 524.1875 L 647.5 526.019531 Z M 648.675781 526.667969 "/>
    <animateTransform attributeType="xml" attributeName="transform" type="rotate" from="0 360 360" to="360 360 360" dur="8.57142857142857s" additive="sum" repeatCount="indefinite"/>
  </g>
  <g xmlns="http://www.w3.org/2000/svg" id="spiro_3_1_1_81850" transform=" scale(0.421875 0.421875) translate(493.333333333333 493.333333333333)">
    <path style="fill:#1F5284E5;fill-rule:evenodd; stroke:none;" d="M 648.675781 526.667969 L 647.527344 525.972656 L 644.15625 523.796875 L 638.683594 520.019531 L 631.261719 514.546875 L 622.058594 507.300781 L 611.265625 498.234375 L 599.078125 487.328125 L 585.71875 474.582031 L 571.410156 460.035156 L 556.375 443.75 L 540.84375 425.820313 L 525.042969 406.367188 L 509.195313 385.539063 L 493.503906 363.5 L 478.167969 340.449219 L 463.371094 316.597656 L 449.273438 292.179688 L 436.015625 267.4375 L 423.722656 242.632813 L 412.480469 218.027344 L 402.367188 193.882813 L 393.417969 170.472656 L 385.65625 148.058594 L 379.070313 126.898438 L 373.628906 107.230469 L 369.273438 89.289063 L 365.917969 73.28125 L 363.460938 59.398438 L 361.789063 47.804688 L 360.761719 38.640625 L 360.226563 32.015625 L 360.027344 28.007813 L 360 26.667969 L 359.972656 28.007813 L 359.773438 32.015625 L 359.238281 38.640625 L 358.210938 47.804688 L 356.539063 59.398438 L 354.082031 73.28125 L 350.726563 89.289063 L 346.371094 107.230469 L 340.929688 126.898438 L 334.34375 148.058594 L 326.582031 170.472656 L 317.632813 193.882813 L 307.519531 218.027344 L 296.277344 242.632813 L 283.984375 267.4375 L 270.726563 292.179688 L 256.628906 316.597656 L 241.832031 340.449219 L 226.496094 363.5 L 210.804688 385.539063 L 194.957031 406.367188 L 179.15625 425.820313 L 163.625 443.75 L 148.589844 460.035156 L 134.28125 474.582031 L 120.921875 487.328125 L 108.734375 498.234375 L 97.941406 507.300781 L 88.738281 514.546875 L 81.316406 520.019531 L 75.84375 523.796875 L 72.472656 525.972656 L 71.324219 526.667969 L 72.5 526.019531 L 76.070313 524.1875 L 82.074219 521.335938 L 90.527344 517.644531 L 101.402344 513.300781 L 114.652344 508.484375 L 130.191406 503.386719 L 147.910156 498.1875 L 167.664063 493.066406 L 189.28125 488.191406 L 212.574219 483.703125 L 237.320313 479.746094 L 263.289063 476.4375 L 290.21875 473.867188 L 317.847656 472.113281 L 345.902344 471.222656 L 374.097656 471.222656 L 402.152344 472.113281 L 429.78125 473.867188 L 456.710938 476.4375 L 482.679688 479.746094 L 507.425781 483.703125 L 530.71875 488.191406 L 552.335938 493.066406 L 572.089844 498.1875 L 589.808594 503.386719 L 605.347656 508.484375 L 618.597656 513.300781 L 629.472656 517.644531 L 637.925781 521.335938 L 643.929688 524.1875 L 647.5 526.019531 Z M 648.675781 526.667969 "/>
    <animateTransform attributeType="xml" attributeName="transform" type="rotate" from="0 360 360" to="360 360 360" dur="7.5s" additive="sum" repeatCount="indefinite"/>
  </g>
  <g xmlns="http://www.w3.org/2000/svg" id="spiro_3_1_1_81850" transform=" scale(0.36535446722156 0.36535446722156) translate(625.344459416961 625.344459416961)">
    <path style="fill:#133555E5;fill-rule:evenodd; stroke:none;" d="M 648.675781 526.667969 L 647.527344 525.972656 L 644.15625 523.796875 L 638.683594 520.019531 L 631.261719 514.546875 L 622.058594 507.300781 L 611.265625 498.234375 L 599.078125 487.328125 L 585.71875 474.582031 L 571.410156 460.035156 L 556.375 443.75 L 540.84375 425.820313 L 525.042969 406.367188 L 509.195313 385.539063 L 493.503906 363.5 L 478.167969 340.449219 L 463.371094 316.597656 L 449.273438 292.179688 L 436.015625 267.4375 L 423.722656 242.632813 L 412.480469 218.027344 L 402.367188 193.882813 L 393.417969 170.472656 L 385.65625 148.058594 L 379.070313 126.898438 L 373.628906 107.230469 L 369.273438 89.289063 L 365.917969 73.28125 L 363.460938 59.398438 L 361.789063 47.804688 L 360.761719 38.640625 L 360.226563 32.015625 L 360.027344 28.007813 L 360 26.667969 L 359.972656 28.007813 L 359.773438 32.015625 L 359.238281 38.640625 L 358.210938 47.804688 L 356.539063 59.398438 L 354.082031 73.28125 L 350.726563 89.289063 L 346.371094 107.230469 L 340.929688 126.898438 L 334.34375 148.058594 L 326.582031 170.472656 L 317.632813 193.882813 L 307.519531 218.027344 L 296.277344 242.632813 L 283.984375 267.4375 L 270.726563 292.179688 L 256.628906 316.597656 L 241.832031 340.449219 L 226.496094 363.5 L 210.804688 385.539063 L 194.957031 406.367188 L 179.15625 425.820313 L 163.625 443.75 L 148.589844 460.035156 L 134.28125 474.582031 L 120.921875 487.328125 L 108.734375 498.234375 L 97.941406 507.300781 L 88.738281 514.546875 L 81.316406 520.019531 L 75.84375 523.796875 L 72.472656 525.972656 L 71.324219 526.667969 L 72.5 526.019531 L 76.070313 524.1875 L 82.074219 521.335938 L 90.527344 517.644531 L 101.402344 513.300781 L 114.652344 508.484375 L 130.191406 503.386719 L 147.910156 498.1875 L 167.664063 493.066406 L 189.28125 488.191406 L 212.574219 483.703125 L 237.320313 479.746094 L 263.289063 476.4375 L 290.21875 473.867188 L 317.847656 472.113281 L 345.902344 471.222656 L 374.097656 471.222656 L 402.152344 472.113281 L 429.78125 473.867188 L 456.710938 476.4375 L 482.679688 479.746094 L 507.425781 483.703125 L 530.71875 488.191406 L 552.335938 493.066406 L 572.089844 498.1875 L 589.808594 503.386719 L 605.347656 508.484375 L 618.597656 513.300781 L 629.472656 517.644531 L 637.925781 521.335938 L 643.929688 524.1875 L 647.5 526.019531 Z M 648.675781 526.667969 "/>
    <animateTransform attributeType="xml" attributeName="transform" type="rotate" from="0 360 360" to="360 360 360" dur="6.66666666666667s" additive="sum" repeatCount="indefinite"/>
  </g>
  <g xmlns="http://www.w3.org/2000/svg" id="spiro_3_1_1_81850" transform=" scale(0.31640625 0.31640625) translate(777.777777777778 777.777777777778)">
    <path style="fill:#0B1B2BE5;fill-rule:evenodd; stroke:none;" d="M 648.675781 526.667969 L 647.527344 525.972656 L 644.15625 523.796875 L 638.683594 520.019531 L 631.261719 514.546875 L 622.058594 507.300781 L 611.265625 498.234375 L 599.078125 487.328125 L 585.71875 474.582031 L 571.410156 460.035156 L 556.375 443.75 L 540.84375 425.820313 L 525.042969 406.367188 L 509.195313 385.539063 L 493.503906 363.5 L 478.167969 340.449219 L 463.371094 316.597656 L 449.273438 292.179688 L 436.015625 267.4375 L 423.722656 242.632813 L 412.480469 218.027344 L 402.367188 193.882813 L 393.417969 170.472656 L 385.65625 148.058594 L 379.070313 126.898438 L 373.628906 107.230469 L 369.273438 89.289063 L 365.917969 73.28125 L 363.460938 59.398438 L 361.789063 47.804688 L 360.761719 38.640625 L 360.226563 32.015625 L 360.027344 28.007813 L 360 26.667969 L 359.972656 28.007813 L 359.773438 32.015625 L 359.238281 38.640625 L 358.210938 47.804688 L 356.539063 59.398438 L 354.082031 73.28125 L 350.726563 89.289063 L 346.371094 107.230469 L 340.929688 126.898438 L 334.34375 148.058594 L 326.582031 170.472656 L 317.632813 193.882813 L 307.519531 218.027344 L 296.277344 242.632813 L 283.984375 267.4375 L 270.726563 292.179688 L 256.628906 316.597656 L 241.832031 340.449219 L 226.496094 363.5 L 210.804688 385.539063 L 194.957031 406.367188 L 179.15625 425.820313 L 163.625 443.75 L 148.589844 460.035156 L 134.28125 474.582031 L 120.921875 487.328125 L 108.734375 498.234375 L 97.941406 507.300781 L 88.738281 514.546875 L 81.316406 520.019531 L 75.84375 523.796875 L 72.472656 525.972656 L 71.324219 526.667969 L 72.5 526.019531 L 76.070313 524.1875 L 82.074219 521.335938 L 90.527344 517.644531 L 101.402344 513.300781 L 114.652344 508.484375 L 130.191406 503.386719 L 147.910156 498.1875 L 167.664063 493.066406 L 189.28125 488.191406 L 212.574219 483.703125 L 237.320313 479.746094 L 263.289063 476.4375 L 290.21875 473.867188 L 317.847656 472.113281 L 345.902344 471.222656 L 374.097656 471.222656 L 402.152344 472.113281 L 429.78125 473.867188 L 456.710938 476.4375 L 482.679688 479.746094 L 507.425781 483.703125 L 530.71875 488.191406 L 552.335938 493.066406 L 572.089844 498.1875 L 589.808594 503.386719 L 605.347656 508.484375 L 618.597656 513.300781 L 629.472656 517.644531 L 637.925781 521.335938 L 643.929688 524.1875 L 647.5 526.019531 Z M 648.675781 526.667969 "/>
    <animateTransform attributeType="xml" attributeName="transform" type="rotate" from="0 360 360" to="360 360 360" dur="6s" additive="sum" repeatCount="indefinite"/>
  </g>
  <g xmlns="http://www.w3.org/2000/svg" id="spiro_3_1_1_81850" transform=" scale(0.27401585041617 0.27401585041617) translate(953.792612555948 953.792612555948)">
    <path style="fill:#000000E5;fill-rule:evenodd; stroke:none;" d="M 648.675781 526.667969 L 647.527344 525.972656 L 644.15625 523.796875 L 638.683594 520.019531 L 631.261719 514.546875 L 622.058594 507.300781 L 611.265625 498.234375 L 599.078125 487.328125 L 585.71875 474.582031 L 571.410156 460.035156 L 556.375 443.75 L 540.84375 425.820313 L 525.042969 406.367188 L 509.195313 385.539063 L 493.503906 363.5 L 478.167969 340.449219 L 463.371094 316.597656 L 449.273438 292.179688 L 436.015625 267.4375 L 423.722656 242.632813 L 412.480469 218.027344 L 402.367188 193.882813 L 393.417969 170.472656 L 385.65625 148.058594 L 379.070313 126.898438 L 373.628906 107.230469 L 369.273438 89.289063 L 365.917969 73.28125 L 363.460938 59.398438 L 361.789063 47.804688 L 360.761719 38.640625 L 360.226563 32.015625 L 360.027344 28.007813 L 360 26.667969 L 359.972656 28.007813 L 359.773438 32.015625 L 359.238281 38.640625 L 358.210938 47.804688 L 356.539063 59.398438 L 354.082031 73.28125 L 350.726563 89.289063 L 346.371094 107.230469 L 340.929688 126.898438 L 334.34375 148.058594 L 326.582031 170.472656 L 317.632813 193.882813 L 307.519531 218.027344 L 296.277344 242.632813 L 283.984375 267.4375 L 270.726563 292.179688 L 256.628906 316.597656 L 241.832031 340.449219 L 226.496094 363.5 L 210.804688 385.539063 L 194.957031 406.367188 L 179.15625 425.820313 L 163.625 443.75 L 148.589844 460.035156 L 134.28125 474.582031 L 120.921875 487.328125 L 108.734375 498.234375 L 97.941406 507.300781 L 88.738281 514.546875 L 81.316406 520.019531 L 75.84375 523.796875 L 72.472656 525.972656 L 71.324219 526.667969 L 72.5 526.019531 L 76.070313 524.1875 L 82.074219 521.335938 L 90.527344 517.644531 L 101.402344 513.300781 L 114.652344 508.484375 L 130.191406 503.386719 L 147.910156 498.1875 L 167.664063 493.066406 L 189.28125 488.191406 L 212.574219 483.703125 L 237.320313 479.746094 L 263.289063 476.4375 L 290.21875 473.867188 L 317.847656 472.113281 L 345.902344 471.222656 L 374.097656 471.222656 L 402.152344 472.113281 L 429.78125 473.867188 L 456.710938 476.4375 L 482.679688 479.746094 L 507.425781 483.703125 L 530.71875 488.191406 L 552.335938 493.066406 L 572.089844 498.1875 L 589.808594 503.386719 L 605.347656 508.484375 L 618.597656 513.300781 L 629.472656 517.644531 L 637.925781 521.335938 L 643.929688 524.1875 L 647.5 526.019531 Z M 648.675781 526.667969 "/>
    <animateTransform attributeType="xml" attributeName="transform" type="rotate" from="0 360 360" to="360 360 360" dur="5.45454545454545s" additive="sum" repeatCount="indefinite"/>
  </g>
</svg>
