<?xml version="1.0" encoding="UTF-8"?>
<svg xmlns="http://www.w3.org/2000/svg" xmlns:xlink="http://www.w3.org/1999/xlink" width="100%" height="100%" viewBox="0 0 720 720" version="1.1">
  <g id="spiro_5_1_3.66666666666667_4710">
    <path style="fill:none;stroke-width:0.75;stroke-linecap:round;stroke-linejoin:round;stroke:rgb(25.490196%,41.176471%,88.235294%);stroke-opacity:1;stroke-miterlimit:10;" d="M 677.019531 463.003906 L 676.066406 465.761719 L 675.011719 468.484375 L 673.855469 471.167969 L 672.601563 473.808594 L 671.25 476.410156 L 669.796875 478.964844 L 668.25 481.476563 L 666.605469 483.933594 L 664.867188 486.339844 L 663.035156 488.695313 L 661.109375 490.992188 L 659.097656 493.234375 L 656.992188 495.414063 L 654.800781 497.53125 L 652.523438 499.585938 L 650.164063 501.574219 L 647.71875 503.496094 L 645.195313 505.347656 L 642.589844 507.128906 L 639.910156 508.832031 L 637.152344 510.464844 L 634.320313 512.019531 L 631.414063 513.5 L 628.441406 514.894531 L 625.398438 516.210938 L 622.292969 517.445313 L 619.121094 518.59375 L 615.886719 519.65625 L 612.59375 520.636719 L 609.242188 521.523438 L 605.835938 522.324219 L 602.375 523.03125 L 598.863281 523.648438 L 595.304688 524.175781 L 591.699219 524.605469 L 588.050781 524.941406 L 584.359375 525.183594 L 580.632813 525.328125 L 576.863281 525.378906 L 573.0625 525.328125 L 569.230469 525.179688 L 565.367188 524.933594 L 561.480469 524.589844 L 557.566406 524.144531 L 553.628906 523.597656 L 549.675781 522.953125 L 545.703125 522.207031 L 541.71875 521.363281 L 537.71875 520.414063 L 533.710938 519.367188 L 529.699219 518.214844 L 525.679688 516.964844 L 521.660156 515.617188 L 517.640625 514.164063 L 513.625 512.613281 L 509.617188 510.960938 L 505.613281 509.210938 L 501.625 507.359375 L 497.648438 505.414063 L 493.6875 503.367188 L 489.742188 501.222656 L 485.820313 498.984375 L 481.921875 496.648438 L 478.050781 494.214844 L 474.207031 491.691406 L 470.390625 489.074219 L 466.609375 486.363281 L 462.863281 483.5625 L 459.152344 480.671875 L 455.484375 477.691406 L 451.859375 474.625 L 448.273438 471.472656 L 444.738281 468.234375 L 441.25 464.914063 L 437.8125 461.507813 L 434.425781 458.027344 L 431.09375 454.464844 L 427.820313 450.824219 L 424.605469 447.109375 L 421.453125 443.320313 L 418.359375 439.457031 L 415.332031 435.523438 L 412.371094 431.523438 L 409.476563 427.457031 L 406.652344 423.328125 L 403.898438 419.132813 L 401.21875 414.878906 L 398.613281 410.566406 L 396.082031 406.195313 L 393.628906 401.769531 L 391.253906 397.292969 L 388.960938 392.769531 L 386.746094 388.195313 L 384.617188 383.574219 L 382.570313 378.914063 L 380.605469 374.210938 L 378.730469 369.46875 L 376.941406 364.691406 L 375.238281 359.878906 L 373.625 355.035156 L 372.101563 350.164063 L 370.667969 345.265625 L 369.328125 340.34375 L 368.078125 335.402344 L 366.917969 330.441406 L 365.851563 325.460938 L 364.878906 320.46875 L 364 315.464844 L 363.214844 310.453125 L 362.523438 305.4375 L 361.925781 300.414063 L 361.421875 295.390625 L 361.015625 290.371094 L 360.703125 285.355469 L 360.484375 280.34375 L 360.359375 275.34375 L 360.328125 270.355469 L 360.390625 265.382813 L 360.550781 260.425781 L 360.800781 255.488281 L 361.144531 250.574219 L 361.578125 245.683594 L 362.105469 240.820313 L 362.722656 235.984375 L 363.433594 231.183594 L 364.230469 226.417969 L 365.121094 221.6875 L 366.09375 216.996094 L 367.160156 212.347656 L 368.308594 207.742188 L 369.542969 203.183594 L 370.859375 198.675781 L 372.261719 194.21875 L 373.742188 189.8125 L 375.308594 185.464844 L 376.949219 181.175781 L 378.667969 176.945313 L 380.464844 172.777344 L 382.335938 168.671875 L 384.28125 164.632813 L 386.296875 160.664063 L 388.382813 156.765625 L 390.539063 152.9375 L 392.757813 149.183594 L 395.042969 145.503906 L 397.394531 141.90625 L 399.804688 138.386719 L 402.273438 134.945313 L 404.800781 131.589844 L 407.382813 128.316406 L 410.019531 125.132813 L 412.707031 122.03125 L 415.445313 119.023438 L 418.230469 116.101563 L 421.058594 113.273438 L 423.929688 110.539063 L 426.84375 107.898438 L 429.792969 105.351563 L 432.78125 102.902344 L 435.800781 100.546875 L 438.851563 98.292969 L 441.933594 96.140625 L 445.042969 94.085938 L 448.175781 92.132813 L 451.328125 90.277344 L 454.503906 88.527344 L 457.695313 86.882813 L 460.902344 85.339844 L 464.117188 83.898438 L 467.347656 82.566406 L 470.582031 81.335938 L 473.820313 80.210938 L 477.0625 79.191406 L 480.304688 78.277344 L 483.542969 77.472656 L 486.773438 76.769531 L 490 76.171875 L 493.214844 75.683594 L 496.417969 75.296875 L 499.605469 75.015625 L 502.773438 74.84375 L 505.921875 74.773438 L 509.050781 74.808594 L 512.148438 74.945313 L 515.222656 75.1875 L 518.265625 75.53125 L 521.277344 75.976563 L 524.253906 76.523438 L 527.191406 77.175781 L 530.089844 77.921875 L 532.949219 78.769531 L 535.761719 79.714844 L 538.527344 80.757813 L 541.242188 81.894531 L 543.910156 83.128906 L 546.523438 84.457031 L 549.082031 85.875 L 551.582031 87.382813 L 554.019531 88.984375 L 556.398438 90.671875 L 558.714844 92.449219 L 560.964844 94.308594 L 563.144531 96.253906 L 565.257813 98.277344 L 567.296875 100.386719 L 569.265625 102.570313 L 571.15625 104.835938 L 572.972656 107.171875 L 574.707031 109.585938 L 576.363281 112.070313 L 577.9375 114.621094 L 579.429688 117.242188 L 580.835938 119.929688 L 582.15625 122.679688 L 583.390625 125.492188 L 584.535156 128.367188 L 585.585938 131.292969 L 586.546875 134.277344 L 587.417969 137.316406 L 588.195313 140.40625 L 588.875 143.542969 L 589.460938 146.722656 L 589.945313 149.949219 L 590.335938 153.21875 L 590.628906 156.527344 L 590.824219 159.871094 L 590.914063 163.25 L 590.90625 166.660156 L 590.796875 170.097656 L 590.585938 173.566406 L 590.273438 177.058594 L 589.859375 180.570313 L 589.339844 184.105469 L 588.71875 187.65625 L 587.996094 191.21875 L 587.167969 194.796875 L 586.234375 198.382813 L 585.199219 201.976563 L 584.0625 205.574219 L 582.820313 209.175781 L 581.476563 212.773438 L 580.027344 216.371094 L 578.476563 219.960938 L 576.824219 223.542969 L 575.066406 227.113281 L 573.210938 230.675781 L 571.253906 234.21875 L 569.199219 237.742188 L 567.042969 241.25 L 564.785156 244.730469 L 562.433594 248.1875 L 559.984375 251.617188 L 557.4375 255.015625 L 554.796875 258.382813 L 552.0625 261.714844 L 549.234375 265.011719 L 546.3125 268.269531 L 543.304688 271.484375 L 540.203125 274.65625 L 537.015625 277.78125 L 533.742188 280.859375 L 530.382813 283.886719 L 526.941406 286.859375 L 523.414063 289.78125 L 519.808594 292.648438 L 516.125 295.453125 L 512.363281 298.203125 L 508.527344 300.886719 L 504.617188 303.507813 L 500.636719 306.0625 L 496.585938 308.550781 L 492.464844 310.972656 L 488.28125 313.320313 L 484.03125 315.597656 L 479.71875 317.800781 L 475.347656 319.929688 L 470.917969 321.980469 L 466.433594 323.953125 L 461.898438 325.847656 L 457.308594 327.660156 L 452.671875 329.390625 L 447.988281 331.039063 L 443.257813 332.601563 L 438.488281 334.078125 L 433.679688 335.472656 L 428.832031 336.777344 L 423.949219 337.992188 L 419.035156 339.121094 L 414.09375 340.160156 L 409.121094 341.109375 L 404.125 341.964844 L 399.109375 342.730469 L 394.070313 343.402344 L 389.015625 343.984375 L 383.945313 344.46875 L 378.863281 344.863281 L 373.773438 345.164063 L 368.675781 345.371094 L 363.574219 345.484375 L 358.46875 345.503906 L 353.363281 345.429688 L 348.265625 345.257813 L 343.171875 344.996094 L 338.085938 344.640625 L 333.011719 344.1875 L 327.949219 343.644531 L 322.902344 343.007813 L 317.878906 342.28125 L 312.875 341.460938 L 307.890625 340.550781 L 302.9375 339.546875 L 298.011719 338.457031 L 293.117188 337.273438 L 288.257813 336.003906 L 283.429688 334.648438 L 278.644531 333.203125 L 273.898438 331.671875 L 269.195313 330.058594 L 264.539063 328.359375 L 259.933594 326.582031 L 255.375 324.71875 L 250.867188 322.777344 L 246.417969 320.757813 L 242.023438 318.660156 L 237.6875 316.488281 L 233.414063 314.238281 L 229.199219 311.917969 L 225.054688 309.527344 L 220.976563 307.066406 L 216.964844 304.539063 L 213.027344 301.941406 L 209.160156 299.28125 L 205.367188 296.558594 L 201.652344 293.777344 L 198.015625 290.933594 L 194.460938 288.035156 L 190.984375 285.082031 L 187.589844 282.074219 L 184.28125 279.015625 L 181.0625 275.910156 L 177.925781 272.757813 L 174.878906 269.558594 L 171.921875 266.320313 L 169.058594 263.039063 L 166.285156 259.722656 L 163.605469 256.367188 L 161.023438 252.980469 L 158.535156 249.5625 L 156.144531 246.117188 L 153.847656 242.644531 L 151.652344 239.148438 L 149.554688 235.628906 L 147.558594 232.09375 L 145.664063 228.539063 L 143.867188 224.972656 L 142.171875 221.394531 L 140.582031 217.804688 L 139.09375 214.210938 L 137.707031 210.613281 L 136.421875 207.015625 L 135.242188 203.414063 L 134.164063 199.820313 L 133.191406 196.230469 L 132.324219 192.648438 L 131.558594 189.078125 L 130.894531 185.523438 L 130.335938 181.980469 L 129.878906 178.460938 L 129.523438 174.960938 L 129.273438 171.484375 L 129.125 168.03125 L 129.074219 164.609375 L 129.128906 161.21875 L 129.28125 157.859375 L 129.535156 154.539063 L 129.886719 151.253906 L 130.332031 148.007813 L 130.878906 144.808594 L 131.523438 141.652344 L 132.261719 138.546875 L 133.09375 135.488281 L 134.015625 132.480469 L 135.035156 129.53125 L 136.140625 126.636719 L 137.339844 123.800781 L 138.625 121.023438 L 139.996094 118.3125 L 141.453125 115.664063 L 142.996094 113.082031 L 144.621094 110.570313 L 146.324219 108.128906 L 148.109375 105.761719 L 149.96875 103.46875 L 151.90625 101.25 L 153.917969 99.113281 L 156.003906 97.054688 L 158.15625 95.074219 L 160.378906 93.179688 L 162.667969 91.371094 L 165.019531 89.648438 L 167.4375 88.011719 L 169.914063 86.46875 L 172.449219 85.011719 L 175.039063 83.648438 L 177.683594 82.378906 L 180.382813 81.199219 L 183.128906 80.121094 L 185.921875 79.136719 L 188.761719 78.25 L 191.644531 77.460938 L 194.566406 76.773438 L 197.527344 76.183594 L 200.523438 75.699219 L 203.554688 75.3125 L 206.617188 75.027344 L 209.707031 74.847656 L 212.824219 74.773438 L 215.964844 74.800781 L 219.125 74.933594 L 222.304688 75.171875 L 225.503906 75.515625 L 228.710938 75.964844 L 231.933594 76.519531 L 235.164063 77.175781 L 238.402344 77.941406 L 241.640625 78.8125 L 244.882813 79.792969 L 248.125 80.875 L 251.359375 82.0625 L 254.589844 83.355469 L 257.8125 84.75 L 261.023438 86.253906 L 264.222656 87.859375 L 267.402344 89.566406 L 270.566406 91.378906 L 273.707031 93.292969 L 276.824219 95.304688 L 279.917969 97.421875 L 282.980469 99.636719 L 286.015625 101.949219 L 289.015625 104.359375 L 291.980469 106.867188 L 294.910156 109.46875 L 297.796875 112.167969 L 300.644531 114.960938 L 303.445313 117.84375 L 306.203125 120.816406 L 308.910156 123.882813 L 311.566406 127.03125 L 314.171875 130.269531 L 316.722656 133.59375 L 319.214844 137 L 321.648438 140.488281 L 324.023438 144.054688 L 326.335938 147.703125 L 328.582031 151.425781 L 330.761719 155.222656 L 332.878906 159.09375 L 334.921875 163.035156 L 336.894531 167.046875 L 338.796875 171.125 L 340.621094 175.269531 L 342.371094 179.476563 L 344.046875 183.742188 L 345.640625 188.066406 L 347.15625 192.449219 L 348.589844 196.886719 L 349.941406 201.375 L 351.207031 205.914063 L 352.390625 210.5 L 353.488281 215.132813 L 354.5 219.804688 L 355.421875 224.519531 L 356.257813 229.273438 L 357.003906 234.058594 L 357.65625 238.882813 L 358.222656 243.734375 L 358.695313 248.613281 L 359.074219 253.519531 L 359.363281 258.449219 L 359.554688 263.398438 L 359.65625 268.363281 L 359.664063 273.347656 L 359.578125 278.34375 L 359.398438 283.351563 L 359.121094 288.363281 L 358.75 293.382813 L 358.285156 298.40625 L 357.726563 303.429688 L 357.074219 308.449219 L 356.324219 313.460938 L 355.484375 318.46875 L 354.546875 323.464844 L 353.519531 328.449219 L 352.398438 333.417969 L 351.183594 338.371094 L 349.878906 343.300781 L 348.480469 348.207031 L 346.992188 353.089844 L 345.417969 357.945313 L 343.75 362.769531 L 341.996094 367.5625 L 340.152344 372.316406 L 338.226563 377.035156 L 336.214844 381.714844 L 334.117188 386.351563 L 331.933594 390.945313 L 329.671875 395.488281 L 327.332031 399.988281 L 324.910156 404.433594 L 322.410156 408.824219 L 319.832031 413.160156 L 317.183594 417.4375 L 314.457031 421.65625 L 311.660156 425.8125 L 308.796875 429.90625 L 305.859375 433.933594 L 302.859375 437.894531 L 299.792969 441.78125 L 296.664063 445.601563 L 293.472656 449.347656 L 290.222656 453.015625 L 286.914063 456.609375 L 283.550781 460.125 L 280.132813 463.5625 L 276.664063 466.914063 L 273.144531 470.1875 L 269.582031 473.375 L 265.972656 476.476563 L 262.320313 479.492188 L 258.625 482.417969 L 254.894531 485.253906 L 251.125 488 L 247.324219 490.65625 L 243.492188 493.21875 L 239.628906 495.6875 L 235.742188 498.058594 L 231.828125 500.339844 L 227.894531 502.519531 L 223.9375 504.605469 L 219.96875 506.59375 L 215.984375 508.480469 L 211.984375 510.273438 L 207.980469 511.964844 L 203.964844 513.554688 L 199.949219 515.046875 L 195.925781 516.4375 L 191.910156 517.726563 L 187.890625 518.917969 L 183.882813 520.007813 L 179.878906 520.996094 L 175.890625 521.882813 L 171.910156 522.667969 L 167.949219 523.351563 L 164.007813 523.9375 L 160.082031 524.421875 L 156.183594 524.808594 L 152.3125 525.09375 L 148.464844 525.28125 L 144.652344 525.371094 L 140.871094 525.359375 L 137.125 525.253906 L 133.417969 525.050781 L 129.753906 524.75 L 126.128906 524.359375 L 122.554688 523.871094 L 119.023438 523.289063 L 115.542969 522.617188 L 112.113281 521.855469 L 108.742188 521 L 105.425781 520.058594 L 102.167969 519.03125 L 98.96875 517.914063 L 95.835938 516.714844 L 92.765625 515.433594 L 89.765625 514.066406 L 86.832031 512.621094 L 83.972656 511.097656 L 81.183594 509.496094 L 78.472656 507.820313 L 75.835938 506.066406 L 73.28125 504.246094 L 70.804688 502.351563 L 68.410156 500.390625 L 66.097656 498.363281 L 63.875 496.269531 L 61.734375 494.113281 L 59.683594 491.898438 L 57.726563 489.621094 L 55.855469 487.289063 L 54.082031 484.902344 L 52.398438 482.464844 L 50.8125 479.976563 L 49.320313 477.4375 L 47.925781 474.855469 L 46.632813 472.230469 L 45.4375 469.5625 L 44.34375 466.855469 L 43.351563 464.113281 L 42.457031 461.335938 L 41.671875 458.527344 L 40.984375 455.6875 L 40.40625 452.820313 L 39.929688 449.929688 L 39.5625 447.019531 L 39.296875 444.085938 L 39.140625 441.136719 L 39.085938 438.171875 L 39.144531 435.195313 L 39.304688 432.207031 L 39.574219 429.214844 L 39.953125 426.214844 L 40.4375 423.214844 L 41.027344 420.214844 L 41.726563 417.214844 L 42.53125 414.222656 L 43.445313 411.238281 L 44.464844 408.261719 L 45.585938 405.296875 L 46.816406 402.351563 L 48.152344 399.421875 L 49.589844 396.507813 L 51.132813 393.621094 L 52.78125 390.757813 L 54.53125 387.921875 L 56.378906 385.117188 L 58.332031 382.339844 L 60.382813 379.601563 L 62.53125 376.894531 L 64.777344 374.230469 L 67.121094 371.605469 L 69.5625 369.027344 L 72.09375 366.492188 L 74.722656 364.003906 L 77.4375 361.566406 L 80.246094 359.179688 L 83.144531 356.847656 L 86.128906 354.570313 L 89.199219 352.351563 L 92.351563 350.195313 L 95.589844 348.097656 L 98.90625 346.066406 L 102.304688 344.097656 L 105.777344 342.199219 L 109.328125 340.367188 L 112.949219 338.609375 L 116.644531 336.921875 L 120.40625 335.308594 L 124.238281 333.769531 L 128.136719 332.308594 L 132.097656 330.925781 L 136.121094 329.625 L 140.203125 328.402344 L 144.339844 327.265625 L 148.53125 326.210938 L 152.777344 325.242188 L 157.074219 324.355469 L 161.417969 323.558594 L 165.808594 322.851563 L 170.242188 322.234375 L 174.714844 321.703125 L 179.226563 321.265625 L 183.777344 320.917969 L 188.359375 320.664063 L 192.96875 320.5 L 197.613281 320.433594 L 202.28125 320.460938 L 206.972656 320.582031 L 211.683594 320.796875 L 216.414063 321.105469 L 221.160156 321.515625 L 225.921875 322.015625 L 230.691406 322.613281 L 235.46875 323.308594 L 240.253906 324.097656 L 245.042969 324.984375 L 249.832031 325.96875 L 254.617188 327.046875 L 259.398438 328.21875 L 264.175781 329.488281 L 268.941406 330.851563 L 273.691406 332.308594 L 278.429688 333.859375 L 283.152344 335.503906 L 287.855469 337.242188 L 292.53125 339.074219 L 297.1875 340.992188 L 301.8125 343.007813 L 306.410156 345.109375 L 310.976563 347.296875 L 315.507813 349.574219 L 320.003906 351.941406 L 324.457031 354.390625 L 328.871094 356.925781 L 333.242188 359.546875 L 337.566406 362.246094 L 341.839844 365.027344 L 346.066406 367.890625 L 350.238281 370.828125 L 354.359375 373.84375 L 358.421875 376.933594 L 362.421875 380.097656 L 366.367188 383.332031 L 370.246094 386.640625 L 374.058594 390.011719 L 377.808594 393.453125 L 381.488281 396.960938 L 385.097656 400.527344 L 388.636719 404.15625 L 392.101563 407.847656 L 395.488281 411.59375 L 398.800781 415.390625 L 402.035156 419.246094 L 405.191406 423.152344 L 408.261719 427.105469 L 411.253906 431.105469 L 414.160156 435.148438 L 416.980469 439.234375 L 419.714844 443.359375 L 422.359375 447.523438 L 424.917969 451.722656 L 427.386719 455.957031 L 429.765625 460.21875 L 432.050781 464.507813 L 434.242188 468.824219 L 436.34375 473.164063 L 438.347656 477.527344 L 440.257813 481.90625 L 442.074219 486.300781 L 443.792969 490.707031 L 445.414063 495.125 L 446.941406 499.554688 L 448.371094 503.988281 L 449.699219 508.421875 L 450.933594 512.859375 L 452.066406 517.296875 L 453.105469 521.726563 L 454.042969 526.148438 L 454.882813 530.566406 L 455.625 534.964844 L 456.265625 539.355469 L 456.8125 543.726563 L 457.261719 548.074219 L 457.613281 552.402344 L 457.867188 556.707031 L 458.023438 560.984375 L 458.085938 565.230469 L 458.050781 569.445313 L 457.921875 573.625 L 457.699219 577.769531 L 457.382813 581.871094 L 456.976563 585.933594 L 456.476563 589.949219 L 455.886719 593.921875 L 455.207031 597.839844 L 454.4375 601.710938 L 453.582031 605.527344 L 452.640625 609.289063 L 451.613281 612.992188 L 450.5 616.632813 L 449.308594 620.214844 L 448.03125 623.730469 L 446.679688 627.179688 L 445.246094 630.558594 L 443.734375 633.867188 L 442.152344 637.105469 L 440.496094 640.269531 L 438.765625 643.355469 L 436.964844 646.363281 L 435.097656 649.292969 L 433.164063 652.140625 L 431.167969 654.902344 L 429.105469 657.582031 L 426.984375 660.175781 L 424.804688 662.679688 L 422.566406 665.09375 L 420.277344 667.417969 L 417.933594 669.648438 L 415.539063 671.785156 L 413.09375 673.828125 L 410.605469 675.773438 L 408.074219 677.621094 L 405.5 679.375 L 402.886719 681.023438 L 400.238281 682.574219 L 397.550781 684.023438 L 394.835938 685.371094 L 392.085938 686.617188 L 389.3125 687.753906 L 386.511719 688.792969 L 383.6875 689.722656 L 380.847656 690.546875 L 377.984375 691.265625 L 375.109375 691.878906 L 372.21875 692.382813 L 369.320313 692.78125 L 366.414063 693.074219 L 363.5 693.253906 L 360.582031 693.332031 L 357.667969 693.300781 L 354.753906 693.160156 L 351.84375 692.910156 L 348.9375 692.554688 L 346.046875 692.09375 L 343.164063 691.523438 L 340.296875 690.847656 L 337.445313 690.066406 L 334.613281 689.175781 L 331.804688 688.183594 L 329.019531 687.082031 L 326.261719 685.882813 L 323.53125 684.574219 L 320.832031 683.167969 L 318.167969 681.65625 L 315.539063 680.046875 L 312.949219 678.335938 L 310.402344 676.523438 L 307.894531 674.617188 L 305.433594 672.613281 L 303.019531 670.515625 L 300.65625 668.320313 L 298.34375 666.035156 L 296.082031 663.65625 L 293.878906 661.1875 L 291.734375 658.628906 L 289.648438 655.984375 L 287.625 653.253906 L 285.667969 650.441406 L 283.773438 647.546875 L 281.945313 644.570313 L 280.1875 641.511719 L 278.503906 638.378906 L 276.886719 635.171875 L 275.347656 631.890625 L 273.886719 628.539063 L 272.5 625.117188 L 271.195313 621.628906 L 269.96875 618.074219 L 268.824219 614.457031 L 267.761719 610.777344 L 266.785156 607.039063 L 265.894531 603.246094 L 265.089844 599.394531 L 264.375 595.496094 L 263.75 591.542969 L 263.214844 587.546875 L 262.769531 583.5 L 262.414063 579.414063 L 262.15625 575.289063 L 261.988281 571.121094 L 261.917969 566.921875 L 261.941406 562.6875 L 262.058594 558.421875 L 262.273438 554.128906 L 262.585938 549.808594 L 262.996094 545.46875 L 263.503906 541.105469 L 264.105469 536.722656 L 264.808594 532.328125 L 265.609375 527.917969 L 266.507813 523.496094 L 267.507813 519.070313 L 268.601563 514.636719 L 269.792969 510.199219 L 271.085938 505.761719 L 272.476563 501.328125 L 273.960938 496.898438 L 275.546875 492.472656 L 277.226563 488.0625 L 279.003906 483.660156 L 280.875 479.277344 L 282.84375 474.90625 L 284.90625 470.558594 L 287.0625 466.234375 L 289.308594 461.933594 L 291.652344 457.65625 L 294.082031 453.414063 L 296.605469 449.199219 L 299.214844 445.023438 L 301.914063 440.878906 L 304.703125 436.777344 L 307.574219 432.714844 L 310.53125 428.699219 L 313.570313 424.726563 L 316.691406 420.800781 L 319.894531 416.929688 L 323.175781 413.105469 L 326.535156 409.335938 L 329.96875 405.625 L 333.476563 401.972656 L 337.058594 398.378906 L 340.710938 394.847656 L 344.433594 391.382813 L 348.222656 387.980469 L 352.074219 384.648438 L 355.992188 381.382813 L 359.972656 378.191406 L 364.011719 375.070313 L 368.105469 372.023438 L 372.257813 369.054688 L 376.460938 366.164063 L 380.71875 363.351563 L 385.023438 360.617188 L 389.375 357.964844 L 393.773438 355.394531 L 398.210938 352.910156 L 402.691406 350.511719 L 407.207031 348.199219 L 411.757813 345.972656 L 416.34375 343.835938 L 420.960938 341.789063 L 425.601563 339.832031 L 430.273438 337.964844 L 434.964844 336.1875 L 439.679688 334.507813 L 444.410156 332.917969 L 449.15625 331.421875 L 453.917969 330.019531 L 458.6875 328.714844 L 463.46875 327.503906 L 468.253906 326.386719 L 473.042969 325.367188 L 477.828125 324.441406 L 482.617188 323.613281 L 487.398438 322.878906 L 492.171875 322.242188 L 496.9375 321.703125 L 501.6875 321.257813 L 506.425781 320.910156 L 511.148438 320.65625 L 515.847656 320.496094 L 520.523438 320.433594 L 525.175781 320.464844 L 529.800781 320.585938 L 534.394531 320.804688 L 538.957031 321.113281 L 543.484375 321.515625 L 547.972656 322.011719 L 552.421875 322.59375 L 556.832031 323.265625 L 561.191406 324.027344 L 565.507813 324.875 L 569.773438 325.8125 L 573.988281 326.832031 L 578.148438 327.9375 L 582.253906 329.125 L 586.300781 330.394531 L 590.285156 331.746094 L 594.210938 333.175781 L 598.066406 334.683594 L 601.859375 336.265625 L 605.582031 337.925781 L 609.234375 339.65625 L 612.8125 341.457031 L 616.316406 343.332031 L 619.742188 345.269531 L 623.09375 347.277344 L 626.363281 349.347656 L 629.550781 351.480469 L 632.652344 353.675781 L 635.671875 355.929688 L 638.605469 358.238281 L 641.449219 360.605469 L 644.203125 363.023438 L 646.867188 365.488281 L 649.4375 368.007813 L 651.914063 370.570313 L 654.296875 373.175781 L 656.582031 375.824219 L 658.769531 378.515625 L 660.859375 381.238281 L 662.851563 384 L 664.742188 386.796875 L 666.53125 389.621094 L 668.21875 392.472656 L 669.804688 395.351563 L 671.285156 398.253906 L 672.660156 401.175781 L 673.933594 404.117188 L 675.101563 407.074219 L 676.160156 410.046875 L 677.117188 413.027344 L 677.964844 416.015625 L 678.703125 419.015625 L 679.339844 422.015625 L 679.867188 425.015625 L 680.285156 428.015625 L 680.597656 431.011719 L 680.804688 434 L 680.902344 436.984375 L 680.894531 439.953125 L 680.777344 442.910156 L 680.558594 445.847656 L 680.230469 448.769531 L 679.796875 451.667969 L 679.257813 454.542969 L 678.617188 457.394531 L 677.867188 460.214844 L 677.019531 463.003906 " id="path_1"/>
    <circle id="circle_path_1" cx="" cy="" r="3" fill="#FF0000FF">
      <animateMotion dur="10s" repeatCount="indefinite" begin="0s">
        <mpath href="#path_1"/>
      </animateMotion>
    </circle>
  </g>
</svg>
