<?xml version="1.0" encoding="UTF-8"?>
<svg xmlns="http://www.w3.org/2000/svg" xmlns:xlink="http://www.w3.org/1999/xlink" width="100%" height="100%" viewBox="0 0 720 720" version="1.1">
  <defs id="spiro_rad_def">
    <radialGradient id="backgrad" cx="0.5" cy="0.5" fx="0.5" fy="0.5" r="0.5">
      <stop offset="27%" stop-color="#FFFFFFFF"/>
      <stop offset="34%" stop-color="#000000FF"/>
      <stop offset="93%" stop-color="#000000FF"/>
      <stop offset="100%" stop-color="#FFFFFFFF"/>
    </radialGradient>
  </defs>
  <rect id="spiro_bg" x="0" y="0" width="100%" height="100%" rx="50%" ry="50%" fill="url(#backgrad)" stroke="none"/>
  <g id="spiro_16_5_5_64940">
    <path style=" stroke:none;fill-rule:evenodd;fill:rgb(70.196078%,39.215686%,21.176471%);fill-opacity:0.701961;" d="M 693.332031 360 L 693.191406 360 L 693.015625 359.996094 L 692.769531 359.992188 L 692.449219 359.984375 L 692.0625 359.96875 L 691.601563 359.953125 L 691.074219 359.929688 L 690.476563 359.898438 L 689.808594 359.863281 L 689.070313 359.816406 L 688.261719 359.761719 L 687.386719 359.695313 L 686.441406 359.621094 L 685.429688 359.535156 L 684.347656 359.433594 L 683.199219 359.324219 L 681.984375 359.195313 L 680.703125 359.058594 L 679.351563 358.902344 L 677.9375 358.730469 L 676.457031 358.539063 L 674.914063 358.335938 L 673.304688 358.109375 L 671.632813 357.867188 L 669.894531 357.605469 L 668.097656 357.320313 L 666.238281 357.015625 L 664.316406 356.691406 L 662.335938 356.34375 L 660.292969 355.972656 L 658.191406 355.578125 L 656.03125 355.160156 L 653.8125 354.714844 L 651.539063 354.246094 L 649.207031 353.753906 L 646.824219 353.230469 L 644.382813 352.683594 L 641.886719 352.105469 L 639.339844 351.503906 L 636.742188 350.871094 L 634.09375 350.210938 L 631.390625 349.519531 L 628.640625 348.796875 L 625.84375 348.046875 L 623 347.265625 L 620.105469 346.453125 L 617.167969 345.609375 L 614.1875 344.730469 L 611.164063 343.824219 L 608.097656 342.882813 L 604.988281 341.910156 L 601.839844 340.902344 L 598.648438 339.863281 L 595.421875 338.789063 L 592.160156 337.683594 L 588.859375 336.542969 L 585.527344 335.367188 L 582.15625 334.15625 L 578.757813 332.914063 L 575.324219 331.636719 L 571.859375 330.324219 L 568.367188 328.976563 L 564.847656 327.59375 L 561.300781 326.175781 L 557.726563 324.722656 L 554.128906 323.238281 L 550.507813 321.714844 L 546.863281 320.160156 L 543.199219 318.570313 L 539.515625 316.945313 L 535.8125 315.285156 L 532.089844 313.589844 L 528.355469 311.863281 L 524.601563 310.101563 L 520.835938 308.304688 L 517.054688 306.476563 L 513.265625 304.613281 L 509.464844 302.71875 L 505.65625 300.789063 L 501.835938 298.828125 L 498.011719 296.835938 L 494.179688 294.8125 L 490.347656 292.757813 L 486.507813 290.671875 L 482.667969 288.554688 L 478.824219 286.40625 L 474.984375 284.230469 L 471.144531 282.023438 L 467.308594 279.789063 L 463.476563 277.527344 L 459.648438 275.238281 L 455.824219 272.917969 L 452.007813 270.574219 L 448.203125 268.207031 L 444.40625 265.808594 L 440.617188 263.390625 L 436.839844 260.945313 L 433.078125 258.476563 L 429.328125 255.988281 Z M 693.332031 360 "/>
    <path style=" stroke:none;fill-rule:evenodd;fill:rgb(70.196078%,57.647059%,21.176471%);fill-opacity:0.701961;" d="M 429.328125 255.988281 L 425.59375 253.476563 L 421.875 250.941406 L 418.175781 248.386719 L 414.492188 245.8125 L 410.824219 243.222656 L 407.179688 240.609375 L 403.554688 237.980469 L 399.953125 235.335938 L 396.375 232.675781 L 392.816406 229.996094 L 389.285156 227.308594 L 385.78125 224.601563 L 382.300781 221.886719 L 378.847656 219.160156 L 375.425781 216.421875 L 372.03125 213.671875 L 368.667969 210.914063 L 365.332031 208.148438 L 362.03125 205.378906 L 358.757813 202.601563 L 355.523438 199.816406 L 352.320313 197.03125 L 349.148438 194.242188 L 346.015625 191.449219 L 342.917969 188.65625 L 339.855469 185.863281 L 336.832031 183.074219 L 333.847656 180.285156 L 330.898438 177.5 L 327.988281 174.714844 L 325.121094 171.941406 L 322.289063 169.167969 L 319.5 166.40625 L 316.753906 163.652344 L 314.046875 160.90625 L 311.382813 158.171875 L 308.761719 155.449219 L 306.183594 152.742188 L 303.648438 150.042969 L 301.15625 147.363281 L 298.707031 144.699219 L 296.304688 142.050781 L 293.945313 139.421875 L 291.632813 136.808594 L 289.363281 134.21875 L 287.140625 131.652344 L 284.960938 129.105469 L 282.828125 126.582031 L 280.742188 124.082031 L 278.703125 121.613281 L 276.707031 119.164063 L 274.761719 116.75 L 272.859375 114.359375 L 271.003906 112 L 269.199219 109.671875 L 267.4375 107.378906 L 265.722656 105.117188 L 264.050781 102.886719 L 262.429688 100.695313 L 260.855469 98.535156 L 259.324219 96.417969 L 257.839844 94.335938 L 256.402344 92.292969 L 255.011719 90.289063 L 253.664063 88.328125 L 252.363281 86.410156 L 251.109375 84.535156 L 249.898438 82.703125 L 248.734375 80.914063 L 247.609375 79.171875 L 246.535156 77.476563 L 245.5 75.832031 L 244.511719 74.230469 L 243.5625 72.679688 L 242.660156 71.179688 L 241.796875 69.730469 L 240.976563 68.335938 L 240.195313 66.988281 L 239.460938 65.699219 L 238.761719 64.460938 L 238.105469 63.277344 L 237.484375 62.148438 L 236.90625 61.078125 L 236.367188 60.0625 L 235.863281 59.105469 L 235.398438 58.207031 L 234.96875 57.367188 L 234.21875 55.867188 L 233.898438 55.207031 L 233.609375 54.605469 L 233.355469 54.066406 L 233.132813 53.59375 L 232.941406 53.179688 L 232.785156 52.828125 L 232.65625 52.542969 L 232.558594 52.320313 L 232.492188 52.164063 L 232.449219 52.070313 L 232.4375 52.039063 Z M 429.328125 255.988281 "/>
    <path style=" stroke:none;fill-rule:evenodd;fill:rgb(63.921569%,70.196078%,21.176471%);fill-opacity:0.701961;" d="M 232.4375 52.039063 L 232.453125 52.078125 L 232.496094 52.179688 L 232.5625 52.347656 L 232.652344 52.582031 L 232.769531 52.882813 L 232.90625 53.25 L 233.066406 53.6875 L 233.25 54.1875 L 233.453125 54.757813 L 233.675781 55.390625 L 233.914063 56.097656 L 234.175781 56.867188 L 234.453125 57.703125 L 234.746094 58.609375 L 235.054688 59.582031 L 235.375 60.625 L 235.714844 61.734375 L 236.0625 62.910156 L 236.425781 64.152344 L 236.796875 65.460938 L 237.179688 66.835938 L 237.574219 68.28125 L 237.976563 69.792969 L 238.382813 71.367188 L 238.800781 73.011719 L 239.222656 74.71875 L 239.648438 76.492188 L 240.078125 78.332031 L 240.515625 80.234375 L 240.949219 82.203125 L 241.390625 84.238281 L 241.828125 86.332031 L 242.269531 88.492188 L 242.707031 90.714844 L 243.144531 93 L 243.578125 95.34375 L 244.011719 97.753906 L 244.4375 100.222656 L 244.859375 102.75 L 245.277344 105.335938 L 245.6875 107.984375 L 246.089844 110.691406 L 246.484375 113.453125 L 246.871094 116.273438 L 247.246094 119.148438 L 247.613281 122.078125 L 247.96875 125.066406 L 248.308594 128.105469 L 248.640625 131.199219 L 248.957031 134.34375 L 249.261719 137.539063 L 249.550781 140.789063 L 249.828125 144.085938 L 250.085938 147.433594 L 250.328125 150.828125 L 250.550781 154.269531 L 250.757813 157.757813 L 250.949219 161.289063 L 251.117188 164.867188 L 251.269531 168.488281 L 251.402344 172.152344 L 251.511719 175.855469 L 251.601563 179.601563 L 251.671875 183.382813 L 251.71875 187.207031 L 251.742188 191.066406 L 251.746094 194.960938 L 251.722656 198.890625 L 251.679688 202.855469 L 251.609375 206.851563 L 251.515625 210.878906 L 251.398438 214.9375 L 251.257813 219.023438 L 251.089844 223.140625 L 250.894531 227.28125 L 250.675781 231.453125 L 250.429688 235.644531 L 250.160156 239.859375 L 249.863281 244.097656 L 249.535156 248.359375 L 249.183594 252.636719 L 248.804688 256.933594 L 248.402344 261.25 L 247.96875 265.578125 L 247.507813 269.925781 L 247.019531 274.285156 L 246.503906 278.65625 L 245.960938 283.039063 L 245.390625 287.429688 L 244.792969 291.832031 L 244.167969 296.238281 L 243.515625 300.652344 L 242.835938 305.070313 L 242.128906 309.492188 L 241.394531 313.917969 L 240.632813 318.34375 L 239.84375 322.765625 L 239.027344 327.191406 L 238.1875 331.609375 L 237.320313 336.027344 Z M 232.4375 52.039063 "/>
    <path style=" stroke:none;fill-rule:evenodd;fill:rgb(45.490196%,70.196078%,21.176471%);fill-opacity:0.701961;" d="M 237.320313 336.027344 L 236.425781 340.4375 L 235.507813 344.84375 L 234.5625 349.242188 L 233.59375 353.628906 L 232.597656 358.007813 L 231.578125 362.371094 L 230.535156 366.726563 L 229.46875 371.066406 L 228.378906 375.390625 L 227.265625 379.699219 L 226.128906 383.988281 L 224.96875 388.261719 L 223.789063 392.515625 L 222.589844 396.746094 L 221.371094 400.957031 L 220.128906 405.144531 L 218.867188 409.304688 L 217.585938 413.441406 L 216.289063 417.550781 L 214.972656 421.632813 L 213.640625 425.6875 L 212.289063 429.710938 L 210.925781 433.707031 L 209.542969 437.667969 L 208.148438 441.597656 L 206.742188 445.492188 L 205.316406 449.351563 L 203.882813 453.175781 L 202.4375 456.960938 L 200.980469 460.710938 L 199.511719 464.425781 L 198.035156 468.09375 L 196.546875 471.726563 L 195.054688 475.316406 L 193.554688 478.863281 L 192.046875 482.371094 L 190.535156 485.832031 L 189.015625 489.246094 L 187.496094 492.617188 L 185.972656 495.945313 L 184.445313 499.222656 L 182.921875 502.453125 L 181.394531 505.636719 L 179.867188 508.769531 L 178.34375 511.855469 L 176.820313 514.886719 L 175.300781 517.871094 L 173.789063 520.804688 L 172.277344 523.683594 L 170.773438 526.511719 L 169.277344 529.285156 L 167.792969 532.007813 L 166.3125 534.675781 L 164.84375 537.285156 L 163.386719 539.84375 L 161.941406 542.347656 L 160.507813 544.792969 L 159.089844 547.183594 L 157.683594 549.519531 L 156.296875 551.796875 L 154.921875 554.019531 L 153.570313 556.183594 L 152.234375 558.289063 L 150.917969 560.335938 L 149.621094 562.328125 L 148.347656 564.257813 L 147.097656 566.132813 L 145.867188 567.949219 L 144.664063 569.707031 L 143.484375 571.40625 L 142.332031 573.046875 L 141.210938 574.628906 L 140.113281 576.152344 L 139.042969 577.617188 L 138.007813 579.023438 L 137 580.371094 L 136.023438 581.660156 L 135.082031 582.890625 L 134.171875 584.0625 L 133.300781 585.175781 L 132.460938 586.230469 L 131.65625 587.230469 L 130.890625 588.171875 L 130.164063 589.058594 L 129.472656 589.882813 L 128.824219 590.65625 L 128.214844 591.367188 L 127.644531 592.027344 L 127.117188 592.628906 L 126.636719 593.175781 L 126.195313 593.667969 L 125.796875 594.105469 L 125.445313 594.488281 L 125.140625 594.820313 L 124.878906 595.097656 L 124.667969 595.320313 L 124.503906 595.492188 L 124.386719 595.613281 L 124.296875 595.703125 Z M 237.320313 336.027344 "/>
    <path style=" stroke:none;fill-rule:evenodd;fill:rgb(27.058824%,70.196078%,21.176471%);fill-opacity:0.701961;" d="M 124.296875 595.703125 L 124.410156 595.589844 L 124.542969 595.460938 L 124.730469 595.285156 L 124.96875 595.058594 L 125.257813 594.789063 L 125.601563 594.46875 L 125.996094 594.105469 L 126.449219 593.699219 L 126.957031 593.25 L 127.515625 592.753906 L 128.132813 592.214844 L 128.804688 591.636719 L 129.53125 591.019531 L 130.316406 590.359375 L 131.160156 589.660156 L 132.058594 588.921875 L 133.011719 588.144531 L 134.027344 587.332031 L 135.097656 586.484375 L 136.226563 585.601563 L 137.414063 584.683594 L 138.660156 583.734375 L 139.960938 582.75 L 141.324219 581.738281 L 142.746094 580.691406 L 144.222656 579.617188 L 145.761719 578.511719 L 147.359375 577.378906 L 149.011719 576.222656 L 150.726563 575.035156 L 152.5 573.828125 L 154.328125 572.59375 L 156.21875 571.335938 L 158.164063 570.054688 L 160.171875 568.753906 L 162.234375 567.433594 L 164.355469 566.09375 L 166.53125 564.734375 L 168.765625 563.359375 L 171.058594 561.964844 L 173.40625 560.558594 L 175.8125 559.136719 L 178.273438 557.699219 L 180.789063 556.25 L 183.359375 554.789063 L 185.988281 553.320313 L 188.667969 551.835938 L 191.402344 550.347656 L 194.191406 548.851563 L 197.03125 547.34375 L 199.925781 545.835938 L 202.867188 544.320313 L 205.863281 542.800781 L 208.910156 541.277344 L 212.007813 539.75 L 215.15625 538.226563 L 218.347656 536.699219 L 221.59375 535.171875 L 224.882813 533.644531 L 228.21875 532.125 L 231.601563 530.601563 L 235.03125 529.085938 L 238.503906 527.574219 L 242.019531 526.070313 L 245.578125 524.570313 L 249.175781 523.078125 L 252.820313 521.597656 L 256.5 520.121094 L 260.222656 518.65625 L 263.980469 517.199219 L 267.777344 515.757813 L 271.609375 514.324219 L 275.480469 512.90625 L 279.382813 511.5 L 283.320313 510.109375 L 287.289063 508.730469 L 291.289063 507.371094 L 295.320313 506.023438 L 299.382813 504.695313 L 303.472656 503.382813 L 307.589844 502.089844 L 311.734375 500.816406 L 315.902344 499.558594 L 320.09375 498.324219 L 324.308594 497.109375 L 328.546875 495.914063 L 332.804688 494.738281 L 337.082031 493.585938 L 341.375 492.457031 L 345.6875 491.347656 L 350.019531 490.261719 L 354.359375 489.203125 L 358.71875 488.164063 L 363.085938 487.152344 L 367.46875 486.164063 L 371.859375 485.199219 L 376.257813 484.261719 L 380.664063 483.347656 L 385.074219 482.460938 Z M 124.296875 595.703125 "/>
    <path style=" stroke:none;fill-rule:evenodd;fill:rgb(21.176471%,70.196078%,33.333333%);fill-opacity:0.701961;" d="M 385.074219 482.460938 L 389.492188 481.601563 L 393.914063 480.765625 L 398.339844 479.957031 L 402.765625 479.175781 L 407.1875 478.421875 L 411.613281 477.695313 L 416.035156 476.992188 L 420.453125 476.320313 L 424.863281 475.675781 L 429.269531 475.054688 L 433.667969 474.464844 L 438.058594 473.902344 L 442.4375 473.363281 L 446.808594 472.855469 L 451.164063 472.375 L 455.503906 471.921875 L 459.832031 471.496094 L 464.140625 471.097656 L 468.433594 470.722656 L 472.707031 470.378906 L 476.960938 470.0625 L 481.195313 469.769531 L 485.40625 469.503906 L 489.59375 469.265625 L 493.753906 469.054688 L 497.890625 468.867188 L 502 468.707031 L 506.082031 468.570313 L 510.132813 468.457031 L 514.152344 468.371094 L 518.140625 468.308594 L 522.09375 468.269531 L 526.015625 468.253906 L 529.902344 468.261719 L 533.753906 468.292969 L 537.566406 468.34375 L 541.339844 468.417969 L 545.074219 468.511719 L 548.769531 468.628906 L 552.421875 468.765625 L 556.03125 468.921875 L 559.597656 469.097656 L 563.117188 469.289063 L 566.59375 469.503906 L 570.027344 469.730469 L 573.410156 469.976563 L 576.742188 470.242188 L 580.027344 470.519531 L 583.261719 470.8125 L 586.449219 471.121094 L 589.578125 471.441406 L 592.660156 471.773438 L 595.6875 472.121094 L 598.660156 472.476563 L 601.578125 472.847656 L 604.4375 473.226563 L 607.242188 473.613281 L 609.992188 474.011719 L 612.683594 474.414063 L 615.316406 474.828125 L 617.886719 475.246094 L 620.402344 475.667969 L 622.855469 476.097656 L 625.246094 476.527344 L 627.578125 476.964844 L 629.847656 477.402344 L 632.054688 477.839844 L 634.199219 478.28125 L 636.277344 478.71875 L 638.292969 479.160156 L 640.246094 479.59375 L 642.132813 480.027344 L 643.957031 480.460938 L 645.714844 480.882813 L 647.40625 481.304688 L 649.03125 481.71875 L 650.59375 482.125 L 652.085938 482.527344 L 653.511719 482.917969 L 654.871094 483.296875 L 656.167969 483.667969 L 657.390625 484.027344 L 658.550781 484.371094 L 659.640625 484.707031 L 660.664063 485.027344 L 661.621094 485.328125 L 662.511719 485.617188 L 663.332031 485.890625 L 664.085938 486.144531 L 664.773438 486.382813 L 665.390625 486.601563 L 665.945313 486.796875 L 666.429688 486.972656 L 666.847656 487.128906 L 667.199219 487.261719 L 667.480469 487.371094 L 667.699219 487.457031 L 667.851563 487.515625 L 667.9375 487.550781 L 667.957031 487.5625 Z M 385.074219 482.460938 "/>
    <path style=" stroke:none;fill-rule:evenodd;fill:rgb(21.176471%,70.196078%,51.764706%);fill-opacity:0.701961;" d="M 667.957031 487.5625 L 667.914063 487.542969 L 667.804688 487.496094 L 667.628906 487.417969 L 667.390625 487.316406 L 667.089844 487.179688 L 666.722656 487.011719 L 666.292969 486.816406 L 665.804688 486.585938 L 665.25 486.324219 L 664.636719 486.027344 L 663.960938 485.695313 L 663.222656 485.328125 L 662.429688 484.925781 L 661.574219 484.488281 L 660.660156 484.015625 L 659.6875 483.5 L 658.660156 482.953125 L 657.574219 482.363281 L 656.433594 481.734375 L 655.234375 481.066406 L 653.984375 480.359375 L 652.679688 479.613281 L 651.320313 478.824219 L 649.910156 477.992188 L 648.449219 477.121094 L 646.9375 476.203125 L 645.375 475.246094 L 643.761719 474.246094 L 642.101563 473.199219 L 640.394531 472.113281 L 638.644531 470.980469 L 636.84375 469.804688 L 635 468.582031 L 633.113281 467.316406 L 631.183594 466.003906 L 629.210938 464.644531 L 627.199219 463.242188 L 625.148438 461.792969 L 623.054688 460.296875 L 620.925781 458.757813 L 618.761719 457.167969 L 616.558594 455.535156 L 614.320313 453.855469 L 612.050781 452.128906 L 609.746094 450.355469 L 607.414063 448.535156 L 605.046875 446.667969 L 602.648438 444.757813 L 600.226563 442.796875 L 597.773438 440.792969 L 595.292969 438.738281 L 592.789063 436.640625 L 590.261719 434.5 L 587.710938 432.308594 L 585.136719 430.074219 L 582.539063 427.792969 L 579.925781 425.46875 L 577.289063 423.097656 L 574.636719 420.683594 L 571.96875 418.226563 L 569.28125 415.722656 L 566.582031 413.175781 L 563.871094 410.585938 L 561.144531 407.953125 L 558.40625 405.28125 L 555.660156 402.5625 L 552.902344 399.804688 L 550.136719 397.007813 L 547.367188 394.167969 L 544.589844 391.289063 L 541.804688 388.367188 L 539.019531 385.410156 L 536.230469 382.414063 L 533.4375 379.382813 L 530.644531 376.3125 L 527.851563 373.203125 L 525.0625 370.0625 L 522.273438 366.882813 L 519.484375 363.671875 L 516.703125 360.425781 L 513.929688 357.148438 L 511.160156 353.835938 L 508.394531 350.496094 L 505.640625 347.121094 L 502.894531 343.722656 L 500.160156 340.289063 L 497.433594 336.832031 L 494.71875 333.34375 L 492.019531 329.832031 L 489.332031 326.296875 L 486.660156 322.734375 L 484 319.148438 L 481.359375 315.539063 L 478.734375 311.910156 L 476.128906 308.261719 L 473.539063 304.589844 L 470.972656 300.902344 L 468.421875 297.195313 L 465.894531 293.472656 L 463.386719 289.734375 Z M 667.957031 487.5625 "/>
    <path style=" stroke:none;fill-rule:evenodd;fill:rgb(21.176471%,70.196078%,70.196078%);fill-opacity:0.701961;" d="M 463.386719 289.734375 L 460.902344 285.980469 L 458.441406 282.214844 L 456.003906 278.4375 L 453.589844 274.648438 L 451.199219 270.847656 L 448.835938 267.039063 L 446.5 263.222656 L 444.1875 259.398438 L 441.90625 255.566406 L 439.648438 251.734375 L 437.421875 247.894531 L 435.222656 244.054688 L 433.054688 240.214844 L 430.914063 236.371094 L 428.804688 232.53125 L 426.726563 228.695313 L 424.675781 224.859375 L 422.660156 221.03125 L 420.675781 217.207031 L 418.726563 213.390625 L 416.804688 209.582031 L 414.917969 205.785156 L 413.0625 201.996094 L 411.242188 198.222656 L 409.457031 194.457031 L 407.703125 190.710938 L 405.984375 186.976563 L 404.296875 183.261719 L 402.648438 179.5625 L 401.03125 175.882813 L 399.449219 172.222656 L 397.902344 168.585938 L 396.386719 164.96875 L 394.910156 161.375 L 393.464844 157.808594 L 392.058594 154.269531 L 390.683594 150.757813 L 389.347656 147.269531 L 388.042969 143.816406 L 386.773438 140.390625 L 385.535156 136.996094 L 384.335938 133.636719 L 383.167969 130.3125 L 382.035156 127.019531 L 380.9375 123.765625 L 379.875 120.550781 L 378.84375 117.371094 L 377.84375 114.230469 L 376.878906 111.132813 L 375.945313 108.078125 L 375.046875 105.0625 L 374.175781 102.089844 L 373.339844 99.164063 L 372.535156 96.285156 L 371.761719 93.453125 L 371.019531 90.667969 L 370.304688 87.929688 L 369.621094 85.242188 L 368.96875 82.601563 L 368.34375 80.015625 L 367.746094 77.484375 L 367.179688 75.003906 L 366.636719 72.574219 L 366.121094 70.203125 L 365.632813 67.886719 L 365.171875 65.625 L 364.734375 63.421875 L 364.320313 61.277344 L 363.933594 59.191406 L 363.566406 57.164063 L 363.226563 55.199219 L 362.90625 53.292969 L 362.605469 51.445313 L 362.328125 49.664063 L 362.070313 47.945313 L 361.832031 46.285156 L 361.613281 44.695313 L 361.410156 43.164063 L 361.226563 41.703125 L 361.058594 40.304688 L 360.90625 38.972656 L 360.769531 37.707031 L 360.648438 36.507813 L 360.539063 35.375 L 360.441406 34.3125 L 360.359375 33.316406 L 360.285156 32.386719 L 360.222656 31.527344 L 360.171875 30.738281 L 360.128906 30.019531 L 360.09375 29.367188 L 360.066406 28.785156 L 360.042969 28.277344 L 360.027344 27.835938 L 360.015625 27.464844 L 360.007813 27.164063 L 360.003906 26.933594 L 360 26.773438 L 360 26.667969 Z M 463.386719 289.734375 "/>
    <path style=" stroke:none;fill-rule:evenodd;fill:rgb(21.176471%,51.764706%,70.196078%);fill-opacity:0.701961;" d="M 360 26.667969 L 360 26.84375 L 359.996094 27.039063 L 359.988281 27.304688 L 359.980469 27.640625 L 359.964844 28.046875 L 359.945313 28.523438 L 359.921875 29.070313 L 359.890625 29.683594 L 359.851563 30.371094 L 359.804688 31.125 L 359.746094 31.949219 L 359.679688 32.84375 L 359.601563 33.804688 L 359.511719 34.835938 L 359.410156 35.933594 L 359.292969 37.097656 L 359.164063 38.332031 L 359.019531 39.628906 L 358.859375 40.996094 L 358.683594 42.425781 L 358.492188 43.921875 L 358.28125 45.480469 L 358.050781 47.105469 L 357.804688 48.796875 L 357.535156 50.546875 L 357.246094 52.359375 L 356.9375 54.238281 L 356.605469 56.171875 L 356.253906 58.171875 L 355.875 60.226563 L 355.476563 62.34375 L 355.050781 64.519531 L 354.601563 66.75 L 354.125 69.039063 L 353.625 71.382813 L 353.097656 73.78125 L 352.542969 76.234375 L 351.957031 78.742188 L 351.347656 81.304688 L 350.707031 83.914063 L 350.039063 86.578125 L 349.339844 89.292969 L 348.613281 92.054688 L 347.855469 94.863281 L 347.066406 97.71875 L 346.246094 100.625 L 345.390625 103.570313 L 344.507813 106.5625 L 343.59375 109.601563 L 342.644531 112.675781 L 341.660156 115.796875 L 340.648438 118.957031 L 339.597656 122.152344 L 338.515625 125.390625 L 337.402344 128.660156 L 336.25 131.96875 L 335.066406 135.3125 L 333.851563 138.691406 L 332.597656 142.097656 L 331.3125 145.539063 L 329.988281 149.011719 L 328.632813 152.507813 L 327.242188 156.035156 L 325.816406 159.589844 L 324.355469 163.167969 L 322.859375 166.773438 L 321.328125 170.402344 L 319.765625 174.050781 L 318.164063 177.71875 L 316.53125 181.410156 L 314.863281 185.117188 L 313.160156 188.839844 L 311.425781 192.582031 L 309.65625 196.339844 L 307.851563 200.109375 L 306.011719 203.890625 L 304.144531 207.683594 L 302.238281 211.488281 L 300.304688 215.300781 L 298.335938 219.121094 L 296.335938 222.945313 L 294.300781 226.777344 L 292.238281 230.613281 L 290.144531 234.453125 L 288.019531 238.292969 L 285.867188 242.132813 L 283.683594 245.976563 L 281.46875 249.8125 L 279.226563 253.652344 L 276.957031 257.484375 L 274.660156 261.308594 L 272.335938 265.128906 L 269.984375 268.945313 L 267.609375 272.75 L 265.207031 276.542969 L 262.78125 280.328125 L 260.332031 284.101563 L 257.859375 287.859375 L 255.363281 291.605469 Z M 360 26.667969 "/>
    <path style=" stroke:none;fill-rule:evenodd;fill:rgb(21.176471%,33.333333%,70.196078%);fill-opacity:0.701961;" d="M 255.363281 291.605469 L 252.84375 295.335938 L 250.304688 299.050781 L 247.746094 302.75 L 245.167969 306.425781 L 242.570313 310.089844 L 239.953125 313.726563 L 237.320313 317.347656 L 234.671875 320.945313 L 232.007813 324.519531 L 229.324219 328.066406 L 226.632813 331.59375 L 223.925781 335.089844 L 221.207031 338.5625 L 218.476563 342.007813 L 215.734375 345.425781 L 212.984375 348.8125 L 210.222656 352.171875 L 207.457031 355.496094 L 204.683594 358.789063 L 201.90625 362.054688 L 199.121094 365.28125 L 196.332031 368.476563 L 193.542969 371.636719 L 190.75 374.761719 L 187.960938 377.851563 L 185.167969 380.902344 L 182.375 383.917969 L 179.585938 386.894531 L 176.800781 389.832031 L 174.023438 392.730469 L 171.246094 395.589844 L 168.476563 398.410156 L 165.71875 401.191406 L 162.964844 403.925781 L 160.222656 406.621094 L 157.492188 409.277344 L 154.773438 411.886719 L 152.066406 414.457031 L 149.371094 416.980469 L 146.695313 419.460938 L 144.035156 421.898438 L 141.390625 424.289063 L 138.765625 426.636719 L 136.160156 428.941406 L 133.574219 431.199219 L 131.011719 433.410156 L 128.472656 435.578125 L 125.953125 437.695313 L 123.464844 439.773438 L 120.996094 441.800781 L 118.558594 443.78125 L 116.148438 445.71875 L 113.765625 447.609375 L 111.417969 449.449219 L 109.097656 451.246094 L 106.808594 452.996094 L 104.554688 454.699219 L 102.335938 456.359375 L 100.152344 457.96875 L 98.003906 459.53125 L 95.894531 461.050781 L 93.820313 462.523438 L 91.789063 463.949219 L 89.796875 465.328125 L 87.847656 466.664063 L 85.9375 467.953125 L 84.070313 469.199219 L 82.25 470.398438 L 80.476563 471.550781 L 78.746094 472.664063 L 77.0625 473.730469 L 75.425781 474.75 L 73.839844 475.730469 L 72.300781 476.667969 L 70.8125 477.5625 L 69.378906 478.414063 L 67.992188 479.222656 L 66.660156 479.992188 L 65.382813 480.71875 L 64.160156 481.40625 L 62.988281 482.054688 L 61.875 482.664063 L 60.820313 483.230469 L 59.820313 483.761719 L 58.875 484.257813 L 57.992188 484.710938 L 57.167969 485.132813 L 56.402344 485.515625 L 55.695313 485.863281 L 55.050781 486.179688 L 54.464844 486.457031 L 53.945313 486.703125 L 53.484375 486.917969 L 53.085938 487.101563 L 52.753906 487.25 L 52.480469 487.371094 L 52.273438 487.460938 L 52.132813 487.523438 L 52.054688 487.554688 L 52.042969 487.558594 Z M 255.363281 291.605469 "/>
    <path style=" stroke:none;fill-rule:evenodd;fill:rgb(27.058824%,21.176471%,70.196078%);fill-opacity:0.701961;" d="M 52.042969 487.558594 L 52.097656 487.539063 L 52.214844 487.492188 L 52.402344 487.417969 L 52.652344 487.320313 L 52.96875 487.199219 L 53.355469 487.054688 L 53.804688 486.890625 L 54.324219 486.703125 L 54.910156 486.492188 L 55.5625 486.265625 L 56.28125 486.019531 L 57.070313 485.757813 L 57.925781 485.476563 L 58.847656 485.179688 L 59.835938 484.867188 L 60.894531 484.539063 L 62.019531 484.199219 L 63.210938 483.847656 L 64.472656 483.484375 L 65.796875 483.109375 L 67.191406 482.722656 L 68.652344 482.328125 L 70.179688 481.921875 L 71.773438 481.511719 L 73.429688 481.09375 L 75.15625 480.671875 L 76.945313 480.246094 L 78.800781 479.8125 L 80.722656 479.378906 L 82.707031 478.941406 L 84.753906 478.5 L 86.867188 478.0625 L 89.042969 477.621094 L 91.28125 477.183594 L 93.578125 476.746094 L 95.941406 476.3125 L 98.363281 475.882813 L 100.847656 475.457031 L 103.390625 475.035156 L 105.992188 474.621094 L 108.65625 474.210938 L 111.375 473.8125 L 114.152344 473.417969 L 116.984375 473.035156 L 119.875 472.660156 L 122.820313 472.296875 L 125.820313 471.945313 L 128.875 471.605469 L 131.980469 471.277344 L 135.136719 470.964844 L 138.347656 470.664063 L 141.609375 470.378906 L 144.917969 470.109375 L 148.277344 469.851563 L 151.683594 469.617188 L 155.136719 469.394531 L 158.636719 469.191406 L 162.179688 469.007813 L 165.769531 468.839844 L 169.402344 468.695313 L 173.074219 468.570313 L 176.789063 468.464844 L 180.542969 468.378906 L 184.335938 468.316406 L 188.167969 468.273438 L 192.035156 468.253906 L 195.941406 468.257813 L 199.878906 468.285156 L 203.851563 468.335938 L 207.855469 468.410156 L 211.890625 468.511719 L 215.957031 468.632813 L 220.050781 468.78125 L 224.171875 468.957031 L 228.324219 469.15625 L 232.496094 469.382813 L 236.695313 469.632813 L 240.917969 469.914063 L 245.160156 470.21875 L 249.425781 470.546875 L 253.710938 470.90625 L 258.011719 471.292969 L 262.332031 471.707031 L 266.664063 472.144531 L 271.015625 472.613281 L 275.375 473.105469 L 279.75 473.628906 L 284.136719 474.179688 L 288.527344 474.757813 L 292.933594 475.359375 L 297.339844 475.992188 L 301.757813 476.652344 L 306.175781 477.339844 L 310.597656 478.054688 L 315.023438 478.796875 L 319.449219 479.5625 L 323.875 480.359375 L 328.296875 481.179688 L 332.714844 482.027344 L 337.132813 482.902344 Z M 52.042969 487.558594 "/>
    <path style=" stroke:none;fill-rule:evenodd;fill:rgb(45.490196%,21.176471%,70.196078%);fill-opacity:0.701961;" d="M 337.132813 482.902344 L 341.539063 483.800781 L 345.945313 484.726563 L 350.339844 485.679688 L 354.722656 486.652344 L 359.097656 487.65625 L 363.460938 488.679688 L 367.8125 489.730469 L 372.148438 490.800781 L 376.46875 491.898438 L 380.773438 493.019531 L 385.058594 494.160156 L 389.328125 495.324219 L 393.574219 496.507813 L 397.800781 497.714844 L 402.003906 498.9375 L 406.1875 500.183594 L 410.339844 501.449219 L 414.472656 502.734375 L 418.574219 504.039063 L 422.652344 505.359375 L 426.699219 506.695313 L 430.714844 508.050781 L 434.699219 509.417969 L 438.652344 510.804688 L 442.574219 512.203125 L 446.460938 513.613281 L 450.3125 515.039063 L 454.125 516.476563 L 457.902344 517.925781 L 461.644531 519.386719 L 465.34375 520.855469 L 469.007813 522.335938 L 472.628906 523.824219 L 476.207031 525.320313 L 479.746094 526.824219 L 483.238281 528.332031 L 486.6875 529.84375 L 490.09375 531.363281 L 493.453125 532.882813 L 496.769531 534.410156 L 500.035156 535.933594 L 503.253906 537.460938 L 506.425781 538.988281 L 509.546875 540.515625 L 512.617188 542.039063 L 515.640625 543.558594 L 518.609375 545.078125 L 521.527344 546.589844 L 524.394531 548.097656 L 527.210938 549.597656 L 529.972656 551.09375 L 532.679688 552.578125 L 535.332031 554.054688 L 537.929688 555.519531 L 540.476563 556.976563 L 542.964844 558.417969 L 545.398438 559.847656 L 547.773438 561.265625 L 550.09375 562.664063 L 552.359375 564.050781 L 554.5625 565.417969 L 556.714844 566.765625 L 558.804688 568.097656 L 560.839844 569.410156 L 562.816406 570.699219 L 564.734375 571.96875 L 566.59375 573.214844 L 568.394531 574.433594 L 570.136719 575.632813 L 571.820313 576.804688 L 573.449219 577.949219 L 575.015625 579.066406 L 576.523438 580.15625 L 577.972656 581.21875 L 579.363281 582.246094 L 580.695313 583.246094 L 581.972656 584.214844 L 583.1875 585.148438 L 584.34375 586.046875 L 585.445313 586.914063 L 586.488281 587.746094 L 587.472656 588.539063 L 588.398438 589.292969 L 589.269531 590.011719 L 590.082031 590.691406 L 590.839844 591.332031 L 591.539063 591.933594 L 592.183594 592.488281 L 592.769531 593.007813 L 593.304688 593.480469 L 593.785156 593.910156 L 594.207031 594.292969 L 594.578125 594.632813 L 594.894531 594.929688 L 595.15625 595.175781 L 595.367188 595.378906 L 595.527344 595.53125 L 595.636719 595.636719 L 595.699219 595.699219 Z M 337.132813 482.902344 "/>
    <path style=" stroke:none;fill-rule:evenodd;fill:rgb(63.921569%,21.176471%,70.196078%);fill-opacity:0.701961;" d="M 595.699219 595.699219 L 595.65625 595.65625 L 595.5625 595.558594 L 595.421875 595.414063 L 595.230469 595.214844 L 594.996094 594.964844 L 594.710938 594.660156 L 594.382813 594.304688 L 594.007813 593.894531 L 593.589844 593.429688 L 593.128906 592.910156 L 592.625 592.335938 L 592.074219 591.703125 L 591.484375 591.019531 L 590.855469 590.277344 L 590.1875 589.476563 L 589.476563 588.621094 L 588.730469 587.710938 L 587.945313 586.738281 L 587.125 585.710938 L 586.269531 584.625 L 585.375 583.480469 L 584.449219 582.28125 L 583.492188 581.019531 L 582.5 579.703125 L 581.476563 578.328125 L 580.425781 576.890625 L 579.34375 575.398438 L 578.230469 573.84375 L 577.09375 572.234375 L 575.929688 570.5625 L 574.738281 568.835938 L 573.519531 567.050781 L 572.28125 565.203125 L 571.019531 563.300781 L 569.734375 561.339844 L 568.425781 559.320313 L 567.101563 557.242188 L 565.757813 555.105469 L 564.394531 552.914063 L 563.011719 550.664063 L 561.617188 548.359375 L 560.203125 545.996094 L 558.777344 543.578125 L 557.339844 541.101563 L 555.886719 538.574219 L 554.421875 535.988281 L 552.949219 533.347656 L 551.464844 530.652344 L 549.972656 527.90625 L 548.472656 525.105469 L 546.96875 522.25 L 545.457031 519.34375 L 543.9375 516.386719 L 542.417969 513.378906 L 540.894531 510.320313 L 539.371094 507.210938 L 537.84375 504.050781 L 536.316406 500.84375 L 534.789063 497.589844 L 533.265625 494.289063 L 531.742188 490.9375 L 530.222656 487.546875 L 528.710938 484.105469 L 527.199219 480.621094 L 525.695313 477.097656 L 524.199219 473.527344 L 522.707031 469.917969 L 521.226563 466.265625 L 519.753906 462.574219 L 518.289063 458.84375 L 516.839844 455.074219 L 515.398438 451.269531 L 513.96875 447.425781 L 512.554688 443.546875 L 511.152344 439.636719 L 509.761719 435.691406 L 508.390625 431.714844 L 507.03125 427.703125 L 505.691406 423.664063 L 504.367188 419.597656 L 503.058594 415.5 L 501.769531 411.375 L 500.5 407.226563 L 499.25 403.054688 L 498.019531 398.855469 L 496.808594 394.632813 L 495.617188 390.390625 L 494.449219 386.128906 L 493.300781 381.847656 L 492.175781 377.546875 L 491.074219 373.230469 L 489.996094 368.898438 L 488.941406 364.550781 L 487.910156 360.191406 L 486.902344 355.820313 L 485.917969 351.4375 L 484.960938 347.042969 L 484.03125 342.640625 L 483.125 338.234375 L 482.242188 333.820313 Z M 595.699219 595.699219 "/>
    <path style=" stroke:none;fill-rule:evenodd;fill:rgb(70.196078%,21.176471%,57.647059%);fill-opacity:0.701961;" d="M 482.242188 333.820313 L 481.390625 329.402344 L 480.5625 324.980469 L 479.757813 320.554688 L 478.984375 316.128906 L 478.238281 311.703125 L 477.515625 307.28125 L 476.820313 302.859375 L 476.15625 298.445313 L 475.515625 294.035156 L 474.90625 289.628906 L 474.320313 285.234375 L 473.765625 280.84375 L 473.234375 276.46875 L 472.734375 272.101563 L 472.257813 267.75 L 471.8125 263.414063 L 471.394531 259.089844 L 471 254.785156 L 470.636719 250.496094 L 470.296875 246.226563 L 469.984375 241.976563 L 469.703125 237.75 L 469.441406 233.542969 L 469.210938 229.363281 L 469.003906 225.207031 L 468.824219 221.078125 L 468.667969 216.976563 L 468.539063 212.902344 L 468.433594 208.859375 L 468.351563 204.847656 L 468.296875 200.867188 L 468.261719 196.921875 L 468.253906 193.007813 L 468.265625 189.132813 L 468.300781 185.289063 L 468.359375 181.488281 L 468.441406 177.722656 L 468.539063 174 L 468.660156 170.316406 L 468.804688 166.671875 L 468.964844 163.074219 L 469.144531 159.519531 L 469.34375 156.007813 L 469.558594 152.542969 L 469.792969 149.125 L 470.042969 145.753906 L 470.308594 142.429688 L 470.589844 139.160156 L 470.886719 135.9375 L 471.199219 132.765625 L 471.523438 129.644531 L 471.859375 126.578125 L 472.210938 123.566406 L 472.570313 120.605469 L 472.941406 117.703125 L 473.320313 114.855469 L 473.710938 112.0625 L 474.109375 109.328125 L 474.519531 106.652344 L 474.929688 104.035156 L 475.351563 101.476563 L 475.773438 98.980469 L 476.203125 96.542969 L 476.636719 94.164063 L 477.074219 91.847656 L 477.511719 89.59375 L 477.949219 87.40625 L 478.390625 85.277344 L 478.828125 83.210938 L 479.269531 81.210938 L 479.703125 79.273438 L 480.136719 77.402344 L 480.566406 75.597656 L 480.992188 73.855469 L 481.410156 72.179688 L 481.820313 70.570313 L 482.226563 69.027344 L 482.625 67.550781 L 483.011719 66.140625 L 483.390625 64.796875 L 483.757813 63.519531 L 484.113281 62.3125 L 484.457031 61.171875 L 484.789063 60.097656 L 485.101563 59.089844 L 485.402344 58.148438 L 485.6875 57.277344 L 485.957031 56.472656 L 486.207031 55.734375 L 486.4375 55.066406 L 486.652344 54.464844 L 486.84375 53.929688 L 487.015625 53.460938 L 487.164063 53.058594 L 487.292969 52.726563 L 487.394531 52.457031 L 487.472656 52.253906 L 487.527344 52.121094 L 487.558594 52.050781 L 487.558594 52.046875 Z M 482.242188 333.820313 "/>
    <path style=" stroke:none;fill-rule:evenodd;fill:rgb(70.196078%,21.176471%,39.215686%);fill-opacity:0.701961;" d="M 487.558594 52.046875 L 487.53125 52.109375 L 487.480469 52.234375 L 487.394531 52.425781 L 487.285156 52.679688 L 487.140625 52.996094 L 486.96875 53.378906 L 486.761719 53.824219 L 486.523438 54.328125 L 486.25 54.898438 L 485.945313 55.527344 L 485.605469 56.21875 L 485.230469 56.96875 L 484.820313 57.78125 L 484.375 58.648438 L 483.890625 59.578125 L 483.367188 60.5625 L 482.808594 61.605469 L 482.210938 62.707031 L 481.570313 63.863281 L 480.894531 65.070313 L 480.175781 66.335938 L 479.417969 67.65625 L 478.617188 69.027344 L 477.777344 70.449219 L 476.894531 71.925781 L 475.96875 73.449219 L 475 75.023438 L 473.988281 76.648438 L 472.933594 78.320313 L 471.832031 80.039063 L 470.691406 81.800781 L 469.5 83.613281 L 468.269531 85.46875 L 466.992188 87.363281 L 465.667969 89.304688 L 464.296875 91.285156 L 462.882813 93.308594 L 461.421875 95.371094 L 459.917969 97.472656 L 458.363281 99.609375 L 456.765625 101.785156 L 455.121094 103.996094 L 453.425781 106.242188 L 451.6875 108.523438 L 449.902344 110.832031 L 448.074219 113.175781 L 446.195313 115.550781 L 444.269531 117.953125 L 442.300781 120.386719 L 440.28125 122.84375 L 438.21875 125.328125 L 436.109375 127.839844 L 433.957031 130.375 L 431.753906 132.933594 L 429.507813 135.511719 L 427.21875 138.113281 L 424.882813 140.734375 L 422.5 143.371094 L 420.074219 146.027344 L 417.605469 148.703125 L 415.089844 151.390625 L 412.535156 154.09375 L 409.933594 156.808594 L 407.289063 159.539063 L 404.605469 162.277344 L 401.878906 165.027344 L 399.109375 167.785156 L 396.300781 170.554688 L 393.449219 173.328125 L 390.5625 176.105469 L 387.632813 178.890625 L 384.664063 181.679688 L 381.660156 184.46875 L 378.617188 187.261719 L 375.539063 190.054688 L 372.421875 192.847656 L 369.269531 195.636719 L 366.082031 198.425781 L 362.863281 201.210938 L 359.609375 203.988281 L 356.324219 206.765625 L 353.003906 209.53125 L 349.65625 212.292969 L 346.273438 215.046875 L 342.867188 217.789063 L 339.429688 220.523438 L 335.960938 223.246094 L 332.46875 225.957031 L 328.949219 228.652344 L 325.40625 231.335938 L 321.839844 234.007813 L 318.25 236.660156 L 314.632813 239.296875 L 311 241.917969 L 307.34375 244.519531 L 303.671875 247.105469 L 299.976563 249.667969 L 296.265625 252.210938 L 292.539063 254.734375 L 288.796875 257.234375 Z M 487.558594 52.046875 "/>
    <path style=" stroke:none;fill-rule:evenodd;fill:rgb(70.196078%,21.176471%,21.176471%);fill-opacity:0.701961;" d="M 288.796875 257.234375 L 285.042969 259.714844 L 281.273438 262.171875 L 277.492188 264.601563 L 273.699219 267.011719 L 269.894531 269.394531 L 266.085938 271.75 L 262.265625 274.082031 L 258.441406 276.386719 L 254.609375 278.664063 L 250.773438 280.910156 L 246.933594 283.132813 L 243.09375 285.324219 L 239.253906 287.484375 L 235.414063 289.617188 L 231.574219 291.71875 L 227.734375 293.789063 L 223.902344 295.828125 L 220.074219 297.835938 L 216.253906 299.8125 L 212.4375 301.757813 L 208.632813 303.671875 L 204.835938 305.550781 L 201.050781 307.394531 L 197.28125 309.207031 L 193.519531 310.984375 L 189.773438 312.730469 L 186.046875 314.441406 L 182.332031 316.117188 L 178.640625 317.761719 L 174.964844 319.367188 L 171.3125 320.941406 L 167.679688 322.480469 L 164.070313 323.984375 L 160.484375 325.453125 L 156.921875 326.886719 L 153.386719 328.289063 L 149.882813 329.652344 L 146.402344 330.984375 L 142.957031 332.277344 L 139.539063 333.539063 L 136.15625 334.765625 L 132.804688 335.957031 L 129.484375 337.117188 L 126.203125 338.242188 L 122.957031 339.332031 L 119.75 340.386719 L 116.582031 341.410156 L 113.453125 342.402344 L 110.367188 343.359375 L 107.320313 344.28125 L 104.316406 345.175781 L 101.355469 346.035156 L 98.441406 346.863281 L 95.574219 347.660156 L 92.75 348.425781 L 89.976563 349.160156 L 87.253906 349.867188 L 84.578125 350.542969 L 81.953125 351.191406 L 79.378906 351.808594 L 76.859375 352.398438 L 74.390625 352.960938 L 71.976563 353.496094 L 69.617188 354.003906 L 67.316406 354.484375 L 65.070313 354.941406 L 62.882813 355.371094 L 60.75 355.777344 L 58.679688 356.160156 L 56.667969 356.519531 L 54.714844 356.855469 L 52.824219 357.171875 L 50.996094 357.464844 L 49.226563 357.738281 L 47.523438 357.992188 L 45.882813 358.226563 L 44.304688 358.441406 L 42.792969 358.636719 L 41.347656 358.816406 L 39.964844 358.980469 L 38.648438 359.128906 L 37.398438 359.261719 L 36.21875 359.378906 L 35.101563 359.484375 L 34.054688 359.578125 L 33.078125 359.660156 L 32.167969 359.730469 L 31.324219 359.789063 L 30.554688 359.839844 L 29.851563 359.882813 L 29.214844 359.914063 L 28.652344 359.941406 L 28.160156 359.960938 L 27.734375 359.976563 L 27.382813 359.988281 L 27.101563 359.992188 L 26.886719 359.996094 L 26.746094 360 L 26.675781 360 Z M 288.796875 257.234375 "/>
    <path style=" stroke:none;fill-rule:evenodd;fill:rgb(70.196078%,39.215686%,21.176471%);fill-opacity:0.701961;" d="M 26.675781 360 L 26.746094 360 L 26.886719 360.003906 L 27.101563 360.007813 L 27.382813 360.011719 L 27.734375 360.023438 L 28.160156 360.039063 L 28.652344 360.058594 L 29.214844 360.085938 L 29.851563 360.117188 L 30.554688 360.160156 L 31.324219 360.210938 L 32.167969 360.269531 L 33.078125 360.339844 L 34.054688 360.421875 L 35.101563 360.515625 L 36.21875 360.621094 L 37.398438 360.738281 L 38.648438 360.871094 L 39.964844 361.019531 L 41.347656 361.183594 L 42.792969 361.363281 L 44.304688 361.558594 L 45.882813 361.773438 L 47.523438 362.007813 L 49.226563 362.261719 L 50.996094 362.535156 L 52.824219 362.828125 L 54.714844 363.144531 L 56.667969 363.480469 L 58.679688 363.839844 L 60.75 364.222656 L 62.882813 364.628906 L 65.070313 365.058594 L 67.316406 365.515625 L 69.617188 365.996094 L 71.976563 366.503906 L 74.390625 367.039063 L 76.859375 367.601563 L 79.378906 368.191406 L 81.953125 368.808594 L 84.578125 369.457031 L 87.253906 370.132813 L 89.976563 370.839844 L 92.75 371.574219 L 95.574219 372.339844 L 98.441406 373.136719 L 101.355469 373.964844 L 104.316406 374.824219 L 107.320313 375.71875 L 110.367188 376.640625 L 113.453125 377.597656 L 116.582031 378.589844 L 119.75 379.613281 L 122.957031 380.667969 L 126.203125 381.757813 L 129.484375 382.882813 L 132.804688 384.042969 L 136.15625 385.234375 L 139.539063 386.460938 L 142.957031 387.722656 L 146.402344 389.015625 L 149.882813 390.347656 L 153.386719 391.710938 L 156.921875 393.113281 L 160.484375 394.546875 L 164.070313 396.015625 L 167.679688 397.519531 L 171.3125 399.058594 L 174.964844 400.632813 L 178.640625 402.238281 L 182.332031 403.882813 L 186.046875 405.558594 L 189.773438 407.269531 L 193.519531 409.015625 L 197.28125 410.792969 L 201.050781 412.605469 L 204.835938 414.449219 L 208.632813 416.328125 L 212.4375 418.242188 L 216.253906 420.1875 L 220.074219 422.164063 L 223.902344 424.171875 L 227.734375 426.210938 L 231.574219 428.28125 L 235.414063 430.382813 L 239.253906 432.515625 L 243.09375 434.675781 L 246.933594 436.867188 L 250.773438 439.089844 L 254.609375 441.335938 L 258.441406 443.613281 L 262.265625 445.917969 L 266.085938 448.25 L 269.894531 450.605469 L 273.699219 452.988281 L 277.492188 455.398438 L 281.273438 457.828125 L 285.042969 460.285156 L 288.796875 462.765625 L 292.539063 465.265625 Z M 26.675781 360 "/>
    <path style=" stroke:none;fill-rule:evenodd;fill:rgb(70.196078%,57.647059%,21.176471%);fill-opacity:0.701961;" d="M 292.539063 465.265625 L 296.265625 467.789063 L 299.976563 470.332031 L 303.671875 472.894531 L 307.34375 475.480469 L 311 478.082031 L 314.632813 480.703125 L 318.25 483.339844 L 321.839844 485.992188 L 325.40625 488.664063 L 328.949219 491.347656 L 332.46875 494.042969 L 335.960938 496.753906 L 339.429688 499.476563 L 342.867188 502.210938 L 346.273438 504.953125 L 349.65625 507.707031 L 353.003906 510.46875 L 356.324219 513.234375 L 359.609375 516.011719 L 362.863281 518.789063 L 366.082031 521.574219 L 369.269531 524.363281 L 372.421875 527.152344 L 375.539063 529.945313 L 378.617188 532.738281 L 381.660156 535.53125 L 384.664063 538.320313 L 387.632813 541.109375 L 390.5625 543.894531 L 393.449219 546.671875 L 396.300781 549.445313 L 399.109375 552.214844 L 401.878906 554.972656 L 404.605469 557.722656 L 407.289063 560.460938 L 409.933594 563.191406 L 412.535156 565.90625 L 415.089844 568.609375 L 417.605469 571.296875 L 420.074219 573.972656 L 422.5 576.628906 L 424.882813 579.265625 L 427.21875 581.886719 L 429.507813 584.488281 L 431.753906 587.066406 L 433.957031 589.625 L 436.109375 592.160156 L 438.21875 594.671875 L 440.28125 597.15625 L 442.300781 599.613281 L 444.269531 602.046875 L 446.195313 604.449219 L 448.074219 606.824219 L 449.902344 609.167969 L 451.6875 611.476563 L 453.425781 613.757813 L 455.121094 616.003906 L 456.765625 618.214844 L 458.363281 620.390625 L 459.917969 622.527344 L 461.421875 624.628906 L 462.882813 626.691406 L 464.296875 628.714844 L 465.667969 630.695313 L 466.992188 632.636719 L 468.269531 634.53125 L 469.5 636.386719 L 470.691406 638.199219 L 471.832031 639.960938 L 472.933594 641.679688 L 473.988281 643.351563 L 475 644.976563 L 475.96875 646.550781 L 476.894531 648.074219 L 477.777344 649.550781 L 478.617188 650.972656 L 479.417969 652.34375 L 480.175781 653.664063 L 480.894531 654.929688 L 481.570313 656.136719 L 482.210938 657.292969 L 482.808594 658.394531 L 483.367188 659.4375 L 483.890625 660.421875 L 484.375 661.351563 L 484.820313 662.21875 L 485.230469 663.03125 L 485.605469 663.78125 L 485.945313 664.472656 L 486.25 665.101563 L 486.523438 665.671875 L 486.761719 666.175781 L 486.96875 666.621094 L 487.140625 667.003906 L 487.285156 667.320313 L 487.394531 667.574219 L 487.480469 667.765625 L 487.53125 667.890625 L 487.558594 667.953125 L 487.558594 667.949219 Z M 292.539063 465.265625 "/>
    <path style=" stroke:none;fill-rule:evenodd;fill:rgb(63.921569%,70.196078%,21.176471%);fill-opacity:0.701961;" d="M 487.558594 667.949219 L 487.527344 667.878906 L 487.472656 667.746094 L 487.394531 667.542969 L 487.292969 667.273438 L 487.164063 666.941406 L 487.015625 666.539063 L 486.84375 666.070313 L 486.652344 665.535156 L 486.4375 664.933594 L 486.207031 664.265625 L 485.957031 663.527344 L 485.6875 662.722656 L 485.402344 661.851563 L 485.101563 660.910156 L 484.789063 659.902344 L 484.457031 658.828125 L 484.113281 657.6875 L 483.757813 656.480469 L 483.390625 655.203125 L 483.011719 653.859375 L 482.625 652.449219 L 482.226563 650.972656 L 481.820313 649.429688 L 481.410156 647.820313 L 480.992188 646.144531 L 480.566406 644.402344 L 480.136719 642.597656 L 479.703125 640.726563 L 479.269531 638.789063 L 478.828125 636.789063 L 478.390625 634.722656 L 477.949219 632.59375 L 477.511719 630.40625 L 477.074219 628.152344 L 476.636719 625.835938 L 476.203125 623.457031 L 475.773438 621.019531 L 475.351563 618.523438 L 474.929688 615.964844 L 474.519531 613.347656 L 474.109375 610.671875 L 473.710938 607.9375 L 473.320313 605.144531 L 472.941406 602.296875 L 472.570313 599.394531 L 472.210938 596.433594 L 471.859375 593.421875 L 471.523438 590.355469 L 471.199219 587.234375 L 470.886719 584.0625 L 470.589844 580.839844 L 470.308594 577.570313 L 470.042969 574.246094 L 469.792969 570.875 L 469.558594 567.457031 L 469.34375 563.992188 L 469.144531 560.480469 L 468.964844 556.925781 L 468.804688 553.328125 L 468.660156 549.683594 L 468.539063 546 L 468.441406 542.277344 L 468.359375 538.511719 L 468.300781 534.710938 L 468.265625 530.867188 L 468.253906 526.992188 L 468.261719 523.078125 L 468.296875 519.132813 L 468.351563 515.152344 L 468.433594 511.140625 L 468.539063 507.097656 L 468.667969 503.023438 L 468.824219 498.921875 L 469.003906 494.792969 L 469.210938 490.636719 L 469.441406 486.457031 L 469.703125 482.25 L 469.984375 478.023438 L 470.296875 473.773438 L 470.636719 469.503906 L 471 465.214844 L 471.394531 460.910156 L 471.8125 456.585938 L 472.257813 452.25 L 472.734375 447.898438 L 473.234375 443.53125 L 473.765625 439.15625 L 474.320313 434.765625 L 474.90625 430.371094 L 475.515625 425.964844 L 476.15625 421.554688 L 476.820313 417.140625 L 477.515625 412.71875 L 478.238281 408.296875 L 478.984375 403.871094 L 479.757813 399.445313 L 480.5625 395.019531 L 481.390625 390.597656 L 482.242188 386.179688 L 483.125 381.765625 Z M 487.558594 667.949219 "/>
    <path style=" stroke:none;fill-rule:evenodd;fill:rgb(45.490196%,70.196078%,21.176471%);fill-opacity:0.701961;" d="M 483.125 381.765625 L 484.03125 377.359375 L 484.960938 372.957031 L 485.917969 368.5625 L 486.902344 364.179688 L 487.910156 359.808594 L 488.941406 355.449219 L 489.996094 351.101563 L 491.074219 346.769531 L 492.175781 342.453125 L 493.300781 338.152344 L 494.449219 333.871094 L 495.617188 329.609375 L 496.808594 325.367188 L 498.019531 321.144531 L 499.25 316.945313 L 500.5 312.773438 L 501.769531 308.625 L 503.058594 304.5 L 504.367188 300.402344 L 505.691406 296.335938 L 507.03125 292.296875 L 508.390625 288.285156 L 509.761719 284.308594 L 511.152344 280.363281 L 512.554688 276.453125 L 513.96875 272.574219 L 515.398438 268.730469 L 516.839844 264.925781 L 518.289063 261.15625 L 519.753906 257.425781 L 521.226563 253.734375 L 522.707031 250.082031 L 524.199219 246.472656 L 525.695313 242.902344 L 527.199219 239.378906 L 528.710938 235.894531 L 530.222656 232.453125 L 531.742188 229.0625 L 533.265625 225.710938 L 534.789063 222.410156 L 536.316406 219.15625 L 537.84375 215.949219 L 539.371094 212.789063 L 540.894531 209.679688 L 542.417969 206.621094 L 543.9375 203.613281 L 545.457031 200.65625 L 546.96875 197.75 L 548.472656 194.894531 L 549.972656 192.09375 L 551.464844 189.347656 L 552.949219 186.652344 L 554.421875 184.011719 L 555.886719 181.425781 L 557.339844 178.898438 L 558.777344 176.421875 L 560.203125 174.003906 L 561.617188 171.640625 L 563.011719 169.335938 L 564.394531 167.085938 L 565.757813 164.894531 L 567.101563 162.757813 L 568.425781 160.679688 L 569.734375 158.660156 L 571.019531 156.699219 L 572.28125 154.796875 L 573.519531 152.949219 L 574.738281 151.164063 L 575.929688 149.4375 L 577.09375 147.765625 L 578.230469 146.15625 L 579.34375 144.601563 L 580.425781 143.109375 L 581.476563 141.671875 L 582.5 140.296875 L 583.492188 138.980469 L 584.449219 137.71875 L 585.375 136.519531 L 586.269531 135.375 L 587.125 134.289063 L 587.945313 133.261719 L 588.730469 132.289063 L 589.476563 131.378906 L 590.1875 130.523438 L 590.855469 129.722656 L 591.484375 128.980469 L 592.074219 128.296875 L 592.625 127.664063 L 593.128906 127.089844 L 593.589844 126.570313 L 594.007813 126.105469 L 594.382813 125.695313 L 594.710938 125.339844 L 594.996094 125.035156 L 595.230469 124.785156 L 595.421875 124.585938 L 595.5625 124.441406 L 595.65625 124.34375 L 595.699219 124.300781 L 595.691406 124.308594 Z M 483.125 381.765625 "/>
    <path style=" stroke:none;fill-rule:evenodd;fill:rgb(27.058824%,70.196078%,21.176471%);fill-opacity:0.701961;" d="M 595.691406 124.308594 L 595.636719 124.363281 L 595.527344 124.46875 L 595.367188 124.621094 L 595.15625 124.824219 L 594.894531 125.070313 L 594.578125 125.367188 L 594.207031 125.707031 L 593.785156 126.089844 L 593.304688 126.519531 L 592.769531 126.992188 L 592.183594 127.511719 L 591.539063 128.066406 L 590.839844 128.667969 L 590.082031 129.308594 L 589.269531 129.988281 L 588.398438 130.707031 L 587.472656 131.460938 L 586.488281 132.253906 L 585.445313 133.085938 L 584.34375 133.953125 L 583.1875 134.851563 L 581.972656 135.785156 L 580.695313 136.753906 L 579.363281 137.753906 L 577.972656 138.78125 L 576.523438 139.84375 L 575.015625 140.933594 L 573.449219 142.050781 L 571.820313 143.195313 L 570.136719 144.367188 L 568.394531 145.566406 L 566.59375 146.785156 L 564.734375 148.03125 L 562.816406 149.300781 L 560.839844 150.589844 L 558.804688 151.902344 L 556.714844 153.234375 L 554.5625 154.582031 L 552.359375 155.949219 L 550.09375 157.335938 L 547.773438 158.734375 L 545.398438 160.152344 L 542.964844 161.582031 L 540.476563 163.023438 L 537.929688 164.480469 L 535.332031 165.945313 L 532.679688 167.421875 L 529.972656 168.90625 L 527.210938 170.402344 L 524.394531 171.902344 L 521.527344 173.410156 L 518.609375 174.921875 L 515.640625 176.441406 L 512.617188 177.960938 L 509.546875 179.484375 L 506.425781 181.011719 L 503.253906 182.539063 L 500.035156 184.066406 L 496.769531 185.589844 L 493.453125 187.117188 L 490.09375 188.636719 L 486.6875 190.15625 L 483.238281 191.667969 L 479.746094 193.175781 L 476.207031 194.679688 L 472.628906 196.175781 L 469.007813 197.664063 L 465.34375 199.144531 L 461.644531 200.613281 L 457.902344 202.074219 L 454.125 203.523438 L 450.3125 204.960938 L 446.460938 206.386719 L 442.574219 207.796875 L 438.652344 209.195313 L 434.699219 210.582031 L 430.714844 211.949219 L 426.699219 213.304688 L 422.652344 214.640625 L 418.574219 215.960938 L 414.472656 217.265625 L 410.339844 218.550781 L 406.1875 219.816406 L 402.003906 221.0625 L 397.800781 222.285156 L 393.574219 223.492188 L 389.328125 224.675781 L 385.058594 225.839844 L 380.773438 226.980469 L 376.46875 228.101563 L 372.148438 229.199219 L 367.8125 230.269531 L 363.460938 231.320313 L 359.097656 232.34375 L 354.722656 233.347656 L 350.339844 234.320313 L 345.945313 235.273438 L 341.539063 236.199219 L 337.132813 237.097656 L 332.714844 237.972656 Z M 595.691406 124.308594 "/>
    <path style=" stroke:none;fill-rule:evenodd;fill:rgb(21.176471%,70.196078%,33.333333%);fill-opacity:0.701961;" d="M 332.714844 237.972656 L 328.296875 238.820313 L 323.875 239.640625 L 319.449219 240.4375 L 315.023438 241.203125 L 310.597656 241.945313 L 306.175781 242.660156 L 301.757813 243.347656 L 297.339844 244.007813 L 292.933594 244.640625 L 288.527344 245.242188 L 284.136719 245.820313 L 279.75 246.371094 L 275.375 246.894531 L 271.015625 247.386719 L 266.664063 247.855469 L 262.332031 248.292969 L 258.011719 248.707031 L 253.710938 249.09375 L 249.425781 249.453125 L 245.160156 249.78125 L 240.917969 250.085938 L 236.695313 250.367188 L 232.496094 250.617188 L 228.324219 250.84375 L 224.171875 251.042969 L 220.050781 251.21875 L 215.957031 251.367188 L 211.890625 251.488281 L 207.855469 251.589844 L 203.851563 251.664063 L 199.878906 251.714844 L 195.941406 251.742188 L 192.035156 251.746094 L 188.167969 251.726563 L 184.335938 251.683594 L 180.542969 251.621094 L 176.789063 251.535156 L 173.074219 251.429688 L 169.402344 251.304688 L 165.769531 251.160156 L 162.179688 250.992188 L 158.636719 250.808594 L 155.136719 250.605469 L 151.683594 250.382813 L 148.277344 250.148438 L 144.917969 249.890625 L 141.609375 249.621094 L 138.347656 249.335938 L 135.136719 249.035156 L 131.980469 248.722656 L 128.875 248.394531 L 125.820313 248.054688 L 122.820313 247.703125 L 119.875 247.339844 L 116.984375 246.964844 L 114.152344 246.582031 L 111.375 246.1875 L 108.65625 245.789063 L 105.992188 245.378906 L 103.390625 244.964844 L 100.847656 244.542969 L 98.363281 244.117188 L 95.941406 243.6875 L 93.578125 243.253906 L 91.28125 242.816406 L 89.042969 242.378906 L 86.867188 241.9375 L 84.753906 241.5 L 82.707031 241.058594 L 80.722656 240.621094 L 78.800781 240.1875 L 76.945313 239.753906 L 75.15625 239.328125 L 73.429688 238.90625 L 71.773438 238.488281 L 70.179688 238.078125 L 68.652344 237.671875 L 67.191406 237.277344 L 65.796875 236.890625 L 64.472656 236.515625 L 63.210938 236.152344 L 62.019531 235.800781 L 60.894531 235.460938 L 59.835938 235.132813 L 58.847656 234.820313 L 57.925781 234.523438 L 57.070313 234.242188 L 56.28125 233.980469 L 55.5625 233.734375 L 54.910156 233.507813 L 54.324219 233.296875 L 53.804688 233.109375 L 53.355469 232.945313 L 52.96875 232.800781 L 52.652344 232.679688 L 52.402344 232.582031 L 52.214844 232.507813 L 52.097656 232.460938 L 52.042969 232.441406 L 52.054688 232.445313 Z M 332.714844 237.972656 "/>
    <path style=" stroke:none;fill-rule:evenodd;fill:rgb(21.176471%,70.196078%,51.764706%);fill-opacity:0.701961;" d="M 52.054688 232.445313 L 52.132813 232.476563 L 52.273438 232.539063 L 52.480469 232.628906 L 52.753906 232.75 L 53.085938 232.898438 L 53.484375 233.082031 L 53.945313 233.296875 L 54.464844 233.542969 L 55.050781 233.820313 L 55.695313 234.136719 L 56.402344 234.484375 L 57.167969 234.867188 L 57.992188 235.289063 L 58.875 235.742188 L 59.820313 236.238281 L 60.820313 236.769531 L 61.875 237.335938 L 62.988281 237.945313 L 64.160156 238.59375 L 65.382813 239.28125 L 66.660156 240.007813 L 67.992188 240.777344 L 69.378906 241.585938 L 70.8125 242.4375 L 72.300781 243.332031 L 73.839844 244.269531 L 75.425781 245.25 L 77.0625 246.269531 L 78.746094 247.335938 L 80.476563 248.449219 L 82.25 249.601563 L 84.070313 250.800781 L 85.9375 252.046875 L 87.847656 253.335938 L 89.796875 254.671875 L 91.789063 256.050781 L 93.820313 257.476563 L 95.894531 258.949219 L 98.003906 260.46875 L 100.152344 262.03125 L 102.335938 263.640625 L 104.554688 265.300781 L 106.808594 267.003906 L 109.097656 268.753906 L 111.417969 270.550781 L 113.765625 272.390625 L 116.148438 274.28125 L 118.558594 276.21875 L 120.996094 278.199219 L 123.464844 280.226563 L 125.953125 282.304688 L 128.472656 284.421875 L 131.011719 286.589844 L 133.574219 288.800781 L 136.160156 291.058594 L 138.765625 293.363281 L 141.390625 295.710938 L 144.035156 298.101563 L 146.695313 300.539063 L 149.371094 303.019531 L 152.066406 305.542969 L 154.773438 308.113281 L 157.492188 310.722656 L 160.222656 313.378906 L 162.964844 316.074219 L 165.71875 318.808594 L 168.476563 321.589844 L 171.246094 324.410156 L 174.023438 327.269531 L 176.800781 330.167969 L 179.585938 333.105469 L 182.375 336.082031 L 185.167969 339.097656 L 187.960938 342.148438 L 190.75 345.238281 L 193.542969 348.363281 L 196.332031 351.523438 L 199.121094 354.71875 L 201.90625 357.945313 L 204.683594 361.210938 L 207.457031 364.503906 L 210.222656 367.828125 L 212.984375 371.1875 L 215.734375 374.574219 L 218.476563 377.992188 L 221.207031 381.4375 L 223.925781 384.910156 L 226.632813 388.40625 L 229.324219 391.933594 L 232.007813 395.480469 L 234.671875 399.054688 L 237.320313 402.652344 L 239.953125 406.273438 L 242.570313 409.910156 L 245.167969 413.574219 L 247.746094 417.25 L 250.304688 420.949219 L 252.84375 424.664063 L 255.363281 428.394531 L 257.859375 432.140625 Z M 52.054688 232.445313 "/>
    <path style=" stroke:none;fill-rule:evenodd;fill:rgb(21.176471%,70.196078%,70.196078%);fill-opacity:0.701961;" d="M 257.859375 432.140625 L 260.332031 435.898438 L 262.78125 439.671875 L 265.207031 443.457031 L 267.609375 447.25 L 269.984375 451.054688 L 272.335938 454.871094 L 274.660156 458.691406 L 276.957031 462.515625 L 279.226563 466.347656 L 281.46875 470.1875 L 283.683594 474.023438 L 285.867188 477.867188 L 288.019531 481.707031 L 290.144531 485.546875 L 292.238281 489.386719 L 294.300781 493.222656 L 296.335938 497.054688 L 298.335938 500.878906 L 300.304688 504.699219 L 302.238281 508.511719 L 304.144531 512.316406 L 306.011719 516.109375 L 307.851563 519.890625 L 309.65625 523.660156 L 311.425781 527.417969 L 313.160156 531.160156 L 314.863281 534.882813 L 316.53125 538.589844 L 318.164063 542.28125 L 319.765625 545.949219 L 321.328125 549.597656 L 322.859375 553.226563 L 324.355469 556.832031 L 325.816406 560.410156 L 327.242188 563.964844 L 328.632813 567.492188 L 329.988281 570.988281 L 331.3125 574.460938 L 332.597656 577.902344 L 333.851563 581.308594 L 335.066406 584.6875 L 336.25 588.03125 L 337.402344 591.339844 L 338.515625 594.609375 L 339.597656 597.847656 L 340.648438 601.042969 L 341.660156 604.203125 L 342.644531 607.324219 L 343.59375 610.398438 L 344.507813 613.4375 L 345.390625 616.429688 L 346.246094 619.375 L 347.066406 622.28125 L 347.855469 625.136719 L 348.613281 627.945313 L 349.339844 630.707031 L 350.039063 633.421875 L 350.707031 636.085938 L 351.347656 638.695313 L 351.957031 641.257813 L 352.542969 643.765625 L 353.097656 646.21875 L 353.625 648.617188 L 354.125 650.960938 L 354.601563 653.25 L 355.050781 655.480469 L 355.476563 657.65625 L 355.875 659.773438 L 356.253906 661.828125 L 356.605469 663.828125 L 356.9375 665.761719 L 357.246094 667.640625 L 357.535156 669.453125 L 357.804688 671.203125 L 358.050781 672.894531 L 358.28125 674.519531 L 358.492188 676.078125 L 358.683594 677.574219 L 358.859375 679.003906 L 359.019531 680.371094 L 359.164063 681.667969 L 359.292969 682.902344 L 359.410156 684.066406 L 359.511719 685.164063 L 359.601563 686.195313 L 359.679688 687.15625 L 359.746094 688.050781 L 359.804688 688.875 L 359.851563 689.628906 L 359.890625 690.316406 L 359.921875 690.929688 L 359.945313 691.476563 L 359.964844 691.953125 L 359.980469 692.359375 L 359.988281 692.695313 L 359.996094 692.960938 L 360 693.15625 L 360 693.332031 L 360 693.3125 Z M 257.859375 432.140625 "/>
    <path style=" stroke:none;fill-rule:evenodd;fill:rgb(21.176471%,51.764706%,70.196078%);fill-opacity:0.701961;" d="M 360 693.3125 L 360 693.226563 L 360.003906 693.066406 L 360.007813 692.835938 L 360.015625 692.535156 L 360.027344 692.164063 L 360.042969 691.722656 L 360.066406 691.214844 L 360.09375 690.632813 L 360.128906 689.980469 L 360.171875 689.261719 L 360.222656 688.472656 L 360.285156 687.613281 L 360.359375 686.683594 L 360.441406 685.6875 L 360.539063 684.625 L 360.648438 683.492188 L 360.769531 682.292969 L 360.90625 681.027344 L 361.058594 679.695313 L 361.226563 678.296875 L 361.410156 676.835938 L 361.613281 675.304688 L 361.832031 673.714844 L 362.070313 672.054688 L 362.328125 670.335938 L 362.605469 668.554688 L 362.90625 666.707031 L 363.226563 664.800781 L 363.566406 662.835938 L 363.933594 660.808594 L 364.320313 658.722656 L 364.734375 656.578125 L 365.171875 654.375 L 365.632813 652.113281 L 366.121094 649.796875 L 366.636719 647.425781 L 367.179688 644.996094 L 367.746094 642.515625 L 368.34375 639.984375 L 368.96875 637.398438 L 369.621094 634.757813 L 370.304688 632.070313 L 371.019531 629.332031 L 371.761719 626.546875 L 372.535156 623.714844 L 373.339844 620.835938 L 374.175781 617.910156 L 375.046875 614.9375 L 375.945313 611.921875 L 376.878906 608.867188 L 377.84375 605.769531 L 378.84375 602.628906 L 379.875 599.449219 L 380.9375 596.234375 L 382.035156 592.980469 L 383.167969 589.6875 L 384.335938 586.363281 L 385.535156 583.003906 L 386.773438 579.609375 L 388.042969 576.183594 L 389.347656 572.730469 L 390.683594 569.242188 L 392.058594 565.730469 L 393.464844 562.191406 L 394.910156 558.625 L 396.386719 555.03125 L 397.902344 551.414063 L 399.449219 547.777344 L 401.03125 544.117188 L 402.648438 540.4375 L 404.296875 536.738281 L 405.984375 533.023438 L 407.703125 529.289063 L 409.457031 525.542969 L 411.242188 521.777344 L 413.0625 518.003906 L 414.917969 514.214844 L 416.804688 510.417969 L 418.726563 506.609375 L 420.675781 502.792969 L 422.660156 498.96875 L 424.675781 495.140625 L 426.726563 491.304688 L 428.804688 487.46875 L 430.914063 483.628906 L 433.054688 479.785156 L 435.222656 475.945313 L 437.421875 472.105469 L 439.648438 468.265625 L 441.90625 464.433594 L 444.1875 460.601563 L 446.5 456.777344 L 448.835938 452.960938 L 451.199219 449.152344 L 453.589844 445.351563 L 456.003906 441.5625 L 458.441406 437.785156 L 460.902344 434.019531 L 463.386719 430.265625 L 465.894531 426.527344 Z M 360 693.3125 "/>
    <path style=" stroke:none;fill-rule:evenodd;fill:rgb(21.176471%,33.333333%,70.196078%);fill-opacity:0.701961;" d="M 465.894531 426.527344 L 468.421875 422.804688 L 470.972656 419.097656 L 473.539063 415.410156 L 476.128906 411.738281 L 478.734375 408.089844 L 481.359375 404.460938 L 484 400.851563 L 486.660156 397.265625 L 489.332031 393.703125 L 492.019531 390.167969 L 494.71875 386.65625 L 497.433594 383.167969 L 500.160156 379.710938 L 502.894531 376.277344 L 505.640625 372.878906 L 508.394531 369.503906 L 511.160156 366.164063 L 513.929688 362.851563 L 516.703125 359.574219 L 519.484375 356.328125 L 522.273438 353.117188 L 525.0625 349.9375 L 527.851563 346.796875 L 530.644531 343.6875 L 533.4375 340.617188 L 536.230469 337.585938 L 539.019531 334.589844 L 541.804688 331.632813 L 544.589844 328.710938 L 547.367188 325.832031 L 550.136719 322.992188 L 552.902344 320.195313 L 555.660156 317.4375 L 558.40625 314.71875 L 561.144531 312.046875 L 563.871094 309.414063 L 566.582031 306.824219 L 569.28125 304.277344 L 571.96875 301.773438 L 574.636719 299.316406 L 577.289063 296.902344 L 579.925781 294.53125 L 582.539063 292.207031 L 585.136719 289.925781 L 587.710938 287.691406 L 590.261719 285.5 L 592.789063 283.359375 L 595.292969 281.261719 L 597.773438 279.207031 L 600.226563 277.203125 L 602.648438 275.242188 L 605.046875 273.332031 L 607.414063 271.464844 L 609.746094 269.644531 L 612.050781 267.871094 L 614.320313 266.144531 L 616.558594 264.464844 L 618.761719 262.832031 L 620.925781 261.242188 L 623.054688 259.703125 L 625.148438 258.207031 L 627.199219 256.757813 L 629.210938 255.355469 L 631.183594 253.996094 L 633.113281 252.683594 L 635 251.417969 L 636.84375 250.195313 L 638.644531 249.019531 L 640.394531 247.886719 L 642.101563 246.800781 L 643.761719 245.753906 L 645.375 244.753906 L 646.9375 243.796875 L 648.449219 242.878906 L 649.910156 242.007813 L 651.320313 241.175781 L 652.679688 240.386719 L 653.984375 239.640625 L 655.234375 238.933594 L 656.433594 238.265625 L 657.574219 237.636719 L 658.660156 237.046875 L 659.6875 236.5 L 660.660156 235.984375 L 661.574219 235.511719 L 662.429688 235.074219 L 663.222656 234.671875 L 663.960938 234.304688 L 664.636719 233.972656 L 665.25 233.675781 L 665.804688 233.414063 L 666.292969 233.183594 L 666.722656 232.988281 L 667.089844 232.820313 L 667.390625 232.683594 L 667.628906 232.582031 L 667.804688 232.503906 L 667.914063 232.457031 L 667.957031 232.4375 L 667.9375 232.449219 Z M 465.894531 426.527344 "/>
    <path style=" stroke:none;fill-rule:evenodd;fill:rgb(27.058824%,21.176471%,70.196078%);fill-opacity:0.701961;" d="M 667.9375 232.449219 L 667.851563 232.484375 L 667.699219 232.542969 L 667.480469 232.628906 L 667.199219 232.738281 L 666.847656 232.871094 L 666.429688 233.027344 L 665.945313 233.203125 L 665.390625 233.398438 L 664.773438 233.617188 L 664.085938 233.855469 L 663.332031 234.109375 L 662.511719 234.382813 L 661.621094 234.671875 L 660.664063 234.972656 L 659.640625 235.292969 L 658.550781 235.628906 L 657.390625 235.972656 L 656.167969 236.332031 L 654.871094 236.703125 L 653.511719 237.082031 L 652.085938 237.472656 L 650.59375 237.875 L 649.03125 238.28125 L 647.40625 238.695313 L 645.714844 239.117188 L 643.957031 239.539063 L 642.132813 239.972656 L 640.246094 240.40625 L 638.292969 240.839844 L 636.277344 241.28125 L 634.199219 241.71875 L 632.054688 242.160156 L 629.847656 242.597656 L 627.578125 243.035156 L 625.246094 243.472656 L 622.855469 243.902344 L 620.402344 244.332031 L 617.886719 244.753906 L 615.316406 245.171875 L 612.683594 245.585938 L 609.992188 245.988281 L 607.242188 246.386719 L 604.4375 246.773438 L 601.578125 247.152344 L 598.660156 247.523438 L 595.6875 247.878906 L 592.660156 248.226563 L 589.578125 248.558594 L 586.449219 248.878906 L 583.261719 249.1875 L 580.027344 249.480469 L 576.742188 249.757813 L 573.410156 250.023438 L 570.027344 250.269531 L 566.59375 250.496094 L 563.117188 250.710938 L 559.597656 250.902344 L 556.03125 251.078125 L 552.421875 251.234375 L 548.769531 251.371094 L 545.074219 251.488281 L 541.339844 251.582031 L 537.566406 251.65625 L 533.753906 251.707031 L 529.902344 251.738281 L 526.015625 251.746094 L 522.09375 251.730469 L 518.140625 251.691406 L 514.152344 251.628906 L 510.132813 251.542969 L 506.082031 251.429688 L 502 251.292969 L 497.890625 251.132813 L 493.753906 250.945313 L 489.59375 250.734375 L 485.40625 250.496094 L 481.195313 250.230469 L 476.960938 249.9375 L 472.707031 249.621094 L 468.433594 249.277344 L 464.140625 248.902344 L 459.832031 248.503906 L 455.503906 248.078125 L 451.164063 247.625 L 446.808594 247.144531 L 442.4375 246.636719 L 438.058594 246.097656 L 433.667969 245.535156 L 429.269531 244.945313 L 424.863281 244.324219 L 420.453125 243.679688 L 416.035156 243.007813 L 411.613281 242.304688 L 407.1875 241.578125 L 402.765625 240.824219 L 398.339844 240.042969 L 393.914063 239.234375 L 389.492188 238.398438 L 385.074219 237.539063 L 380.664063 236.652344 Z M 667.9375 232.449219 "/>
    <path style=" stroke:none;fill-rule:evenodd;fill:rgb(45.490196%,21.176471%,70.196078%);fill-opacity:0.701961;" d="M 380.664063 236.652344 L 376.257813 235.738281 L 371.859375 234.800781 L 367.46875 233.835938 L 363.085938 232.847656 L 358.71875 231.835938 L 354.359375 230.796875 L 350.019531 229.738281 L 345.6875 228.652344 L 341.375 227.542969 L 337.082031 226.414063 L 332.804688 225.261719 L 328.546875 224.085938 L 324.308594 222.890625 L 320.09375 221.675781 L 315.902344 220.441406 L 311.734375 219.183594 L 307.589844 217.910156 L 303.472656 216.617188 L 299.382813 215.304688 L 295.320313 213.976563 L 291.289063 212.628906 L 287.289063 211.269531 L 283.320313 209.890625 L 279.382813 208.5 L 275.480469 207.09375 L 271.609375 205.675781 L 267.777344 204.242188 L 263.980469 202.800781 L 260.222656 201.34375 L 256.5 199.878906 L 252.820313 198.402344 L 249.175781 196.921875 L 245.578125 195.429688 L 242.019531 193.929688 L 238.503906 192.425781 L 235.03125 190.914063 L 231.601563 189.398438 L 228.21875 187.875 L 224.882813 186.355469 L 221.59375 184.828125 L 218.347656 183.300781 L 215.15625 181.773438 L 212.007813 180.25 L 208.910156 178.722656 L 205.863281 177.199219 L 202.867188 175.679688 L 199.925781 174.164063 L 197.03125 172.65625 L 194.191406 171.148438 L 191.402344 169.652344 L 188.667969 168.164063 L 185.988281 166.679688 L 183.359375 165.210938 L 180.789063 163.75 L 178.273438 162.300781 L 175.8125 160.863281 L 173.40625 159.441406 L 171.058594 158.035156 L 168.765625 156.640625 L 166.53125 155.265625 L 164.355469 153.90625 L 162.234375 152.566406 L 160.171875 151.246094 L 158.164063 149.945313 L 156.21875 148.664063 L 154.328125 147.40625 L 152.5 146.171875 L 150.726563 144.964844 L 149.011719 143.777344 L 147.359375 142.621094 L 145.761719 141.488281 L 144.222656 140.382813 L 142.746094 139.308594 L 141.324219 138.261719 L 139.960938 137.25 L 138.660156 136.265625 L 137.414063 135.316406 L 136.226563 134.398438 L 135.097656 133.515625 L 134.027344 132.667969 L 133.011719 131.855469 L 132.058594 131.078125 L 131.160156 130.339844 L 130.316406 129.640625 L 129.53125 128.980469 L 128.804688 128.363281 L 128.132813 127.785156 L 127.515625 127.246094 L 126.957031 126.75 L 126.449219 126.300781 L 125.996094 125.894531 L 125.601563 125.53125 L 125.257813 125.210938 L 124.96875 124.941406 L 124.730469 124.714844 L 124.542969 124.539063 L 124.410156 124.410156 L 124.296875 124.296875 L 124.316406 124.316406 Z M 380.664063 236.652344 "/>
    <path style=" stroke:none;fill-rule:evenodd;fill:rgb(63.921569%,21.176471%,70.196078%);fill-opacity:0.701961;" d="M 124.316406 124.316406 L 124.386719 124.386719 L 124.503906 124.507813 L 124.667969 124.679688 L 124.878906 124.902344 L 125.140625 125.179688 L 125.445313 125.511719 L 125.796875 125.894531 L 126.195313 126.332031 L 126.636719 126.824219 L 127.117188 127.371094 L 127.644531 127.972656 L 128.214844 128.632813 L 128.824219 129.34375 L 129.472656 130.117188 L 130.164063 130.941406 L 130.890625 131.828125 L 131.65625 132.769531 L 132.460938 133.769531 L 133.300781 134.824219 L 134.171875 135.9375 L 135.082031 137.109375 L 136.023438 138.339844 L 137 139.628906 L 138.007813 140.976563 L 139.042969 142.382813 L 140.113281 143.847656 L 141.210938 145.371094 L 142.332031 146.953125 L 143.484375 148.59375 L 144.664063 150.292969 L 145.867188 152.050781 L 147.097656 153.867188 L 148.347656 155.742188 L 149.621094 157.671875 L 150.917969 159.664063 L 152.234375 161.710938 L 153.570313 163.816406 L 154.921875 165.980469 L 156.296875 168.203125 L 157.683594 170.480469 L 159.089844 172.816406 L 160.507813 175.207031 L 161.941406 177.652344 L 163.386719 180.15625 L 164.84375 182.714844 L 166.3125 185.324219 L 167.792969 187.992188 L 169.277344 190.714844 L 170.773438 193.488281 L 172.277344 196.316406 L 173.789063 199.195313 L 175.300781 202.128906 L 176.820313 205.113281 L 178.34375 208.144531 L 179.867188 211.230469 L 181.394531 214.363281 L 182.921875 217.546875 L 184.445313 220.777344 L 185.972656 224.054688 L 187.496094 227.382813 L 189.015625 230.753906 L 190.535156 234.167969 L 192.046875 237.628906 L 193.554688 241.136719 L 195.054688 244.683594 L 196.546875 248.273438 L 198.035156 251.90625 L 199.511719 255.574219 L 200.980469 259.289063 L 202.4375 263.039063 L 203.882813 266.824219 L 205.316406 270.648438 L 206.742188 274.507813 L 208.148438 278.402344 L 209.542969 282.332031 L 210.925781 286.292969 L 212.289063 290.289063 L 213.640625 294.3125 L 214.972656 298.367188 L 216.289063 302.449219 L 217.585938 306.558594 L 218.867188 310.695313 L 220.128906 314.855469 L 221.371094 319.042969 L 222.589844 323.253906 L 223.789063 327.484375 L 224.96875 331.738281 L 226.128906 336.011719 L 227.265625 340.300781 L 228.378906 344.609375 L 229.46875 348.933594 L 230.535156 353.273438 L 231.578125 357.628906 L 232.597656 361.992188 L 233.59375 366.371094 L 234.5625 370.757813 L 235.507813 375.15625 L 236.425781 379.5625 L 237.320313 383.972656 L 238.1875 388.390625 Z M 124.316406 124.316406 "/>
    <path style=" stroke:none;fill-rule:evenodd;fill:rgb(70.196078%,21.176471%,57.647059%);fill-opacity:0.701961;" d="M 238.1875 388.390625 L 239.027344 392.808594 L 239.84375 397.234375 L 240.632813 401.65625 L 241.394531 406.082031 L 242.128906 410.507813 L 242.835938 414.929688 L 243.515625 419.347656 L 244.167969 423.761719 L 244.792969 428.167969 L 245.390625 432.570313 L 245.960938 436.960938 L 246.503906 441.34375 L 247.019531 445.714844 L 247.507813 450.074219 L 247.96875 454.421875 L 248.402344 458.75 L 248.804688 463.066406 L 249.183594 467.363281 L 249.535156 471.640625 L 249.863281 475.902344 L 250.160156 480.140625 L 250.429688 484.355469 L 250.675781 488.546875 L 250.894531 492.71875 L 251.089844 496.859375 L 251.257813 500.976563 L 251.398438 505.0625 L 251.515625 509.121094 L 251.609375 513.148438 L 251.679688 517.144531 L 251.722656 521.109375 L 251.746094 525.039063 L 251.742188 528.933594 L 251.71875 532.792969 L 251.671875 536.617188 L 251.601563 540.398438 L 251.511719 544.144531 L 251.402344 547.847656 L 251.269531 551.511719 L 251.117188 555.132813 L 250.949219 558.710938 L 250.757813 562.242188 L 250.550781 565.730469 L 250.328125 569.171875 L 250.085938 572.566406 L 249.828125 575.914063 L 249.550781 579.210938 L 249.261719 582.460938 L 248.957031 585.65625 L 248.640625 588.800781 L 248.308594 591.894531 L 247.96875 594.933594 L 247.613281 597.921875 L 247.246094 600.851563 L 246.871094 603.726563 L 246.484375 606.546875 L 246.089844 609.308594 L 245.6875 612.015625 L 245.277344 614.664063 L 244.859375 617.25 L 244.4375 619.777344 L 244.011719 622.246094 L 243.578125 624.65625 L 243.144531 627 L 242.707031 629.285156 L 242.269531 631.507813 L 241.828125 633.667969 L 241.390625 635.761719 L 240.949219 637.796875 L 240.515625 639.765625 L 240.078125 641.667969 L 239.648438 643.507813 L 239.222656 645.28125 L 238.800781 646.988281 L 238.382813 648.632813 L 237.976563 650.207031 L 237.574219 651.71875 L 237.179688 653.164063 L 236.796875 654.539063 L 236.425781 655.847656 L 236.0625 657.089844 L 235.714844 658.265625 L 235.375 659.375 L 235.054688 660.417969 L 234.746094 661.390625 L 234.453125 662.296875 L 234.175781 663.132813 L 233.914063 663.902344 L 233.675781 664.609375 L 233.453125 665.242188 L 233.25 665.8125 L 233.066406 666.3125 L 232.90625 666.75 L 232.769531 667.117188 L 232.652344 667.417969 L 232.5625 667.652344 L 232.496094 667.820313 L 232.453125 667.921875 L 232.4375 667.960938 L 232.449219 667.929688 Z M 238.1875 388.390625 "/>
    <path style=" stroke:none;fill-rule:evenodd;fill:rgb(70.196078%,21.176471%,39.215686%);fill-opacity:0.701961;" d="M 232.449219 667.929688 L 232.492188 667.835938 L 232.558594 667.679688 L 232.65625 667.457031 L 232.785156 667.171875 L 232.941406 666.820313 L 233.132813 666.40625 L 233.355469 665.933594 L 233.609375 665.394531 L 233.898438 664.792969 L 234.21875 664.132813 L 234.96875 662.632813 L 235.398438 661.792969 L 235.863281 660.894531 L 236.367188 659.9375 L 236.90625 658.921875 L 237.484375 657.851563 L 238.105469 656.722656 L 238.761719 655.539063 L 239.460938 654.300781 L 240.195313 653.011719 L 240.976563 651.664063 L 241.796875 650.269531 L 242.660156 648.820313 L 243.5625 647.320313 L 244.511719 645.769531 L 245.5 644.167969 L 246.535156 642.523438 L 247.609375 640.828125 L 248.734375 639.085938 L 249.898438 637.296875 L 251.109375 635.464844 L 252.363281 633.589844 L 253.664063 631.671875 L 255.011719 629.710938 L 256.402344 627.707031 L 257.839844 625.664063 L 259.324219 623.582031 L 260.855469 621.464844 L 262.429688 619.304688 L 264.050781 617.113281 L 265.722656 614.882813 L 267.4375 612.621094 L 269.199219 610.328125 L 271.003906 608 L 272.859375 605.640625 L 274.761719 603.25 L 276.707031 600.835938 L 278.703125 598.386719 L 280.742188 595.917969 L 282.828125 593.417969 L 284.960938 590.894531 L 287.140625 588.347656 L 289.363281 585.78125 L 291.632813 583.191406 L 293.945313 580.578125 L 296.304688 577.949219 L 298.707031 575.300781 L 301.15625 572.636719 L 303.648438 569.957031 L 306.183594 567.257813 L 308.761719 564.550781 L 311.382813 561.828125 L 314.046875 559.09375 L 316.753906 556.347656 L 319.5 553.59375 L 322.289063 550.832031 L 325.121094 548.058594 L 327.988281 545.285156 L 330.898438 542.5 L 333.847656 539.714844 L 336.832031 536.925781 L 339.855469 534.136719 L 342.917969 531.34375 L 346.015625 528.550781 L 349.148438 525.757813 L 352.320313 522.96875 L 355.523438 520.183594 L 358.757813 517.398438 L 362.03125 514.621094 L 365.332031 511.851563 L 368.667969 509.085938 L 372.03125 506.328125 L 375.425781 503.578125 L 378.847656 500.839844 L 382.300781 498.113281 L 385.78125 495.398438 L 389.285156 492.691406 L 392.816406 490.003906 L 396.375 487.324219 L 399.953125 484.664063 L 403.554688 482.019531 L 407.179688 479.390625 L 410.824219 476.777344 L 414.492188 474.1875 L 418.175781 471.613281 L 421.875 469.058594 L 425.59375 466.523438 L 429.328125 464.011719 L 433.078125 461.523438 Z M 232.449219 667.929688 "/>
    <path style=" stroke:none;fill-rule:evenodd;fill:rgb(70.196078%,21.176471%,21.176471%);fill-opacity:0.701961;" d="M 433.078125 461.523438 L 436.839844 459.054688 L 440.617188 456.609375 L 444.40625 454.191406 L 448.203125 451.792969 L 452.007813 449.425781 L 455.824219 447.082031 L 459.648438 444.761719 L 463.476563 442.472656 L 467.308594 440.210938 L 471.144531 437.976563 L 474.984375 435.769531 L 478.824219 433.59375 L 482.667969 431.445313 L 486.507813 429.328125 L 490.347656 427.242188 L 494.179688 425.1875 L 498.011719 423.164063 L 501.835938 421.171875 L 505.65625 419.210938 L 509.464844 417.28125 L 513.265625 415.386719 L 517.054688 413.523438 L 520.835938 411.695313 L 524.601563 409.898438 L 528.355469 408.136719 L 532.089844 406.410156 L 535.8125 404.714844 L 539.515625 403.054688 L 543.199219 401.429688 L 546.863281 399.839844 L 550.507813 398.285156 L 554.128906 396.761719 L 557.726563 395.277344 L 561.300781 393.824219 L 564.847656 392.40625 L 568.367188 391.023438 L 571.859375 389.675781 L 575.324219 388.363281 L 578.757813 387.085938 L 582.15625 385.84375 L 585.527344 384.632813 L 588.859375 383.457031 L 592.160156 382.316406 L 595.421875 381.210938 L 598.648438 380.136719 L 601.839844 379.097656 L 604.988281 378.089844 L 608.097656 377.117188 L 611.164063 376.175781 L 614.1875 375.269531 L 617.167969 374.390625 L 620.105469 373.546875 L 623 372.734375 L 625.84375 371.953125 L 628.640625 371.203125 L 631.390625 370.480469 L 634.09375 369.789063 L 636.742188 369.128906 L 639.339844 368.496094 L 641.886719 367.894531 L 644.382813 367.316406 L 646.824219 366.769531 L 649.207031 366.246094 L 651.539063 365.753906 L 653.8125 365.285156 L 656.03125 364.839844 L 658.191406 364.421875 L 660.292969 364.027344 L 662.335938 363.65625 L 664.316406 363.308594 L 666.238281 362.984375 L 668.097656 362.679688 L 669.894531 362.394531 L 671.632813 362.132813 L 673.304688 361.890625 L 674.914063 361.664063 L 676.457031 361.460938 L 677.9375 361.269531 L 679.351563 361.097656 L 680.703125 360.941406 L 681.984375 360.804688 L 683.199219 360.675781 L 684.347656 360.566406 L 685.429688 360.464844 L 686.441406 360.378906 L 687.386719 360.304688 L 688.261719 360.238281 L 689.070313 360.183594 L 689.808594 360.136719 L 690.476563 360.101563 L 691.074219 360.070313 L 691.601563 360.046875 L 692.0625 360.03125 L 692.449219 360.015625 L 692.769531 360.007813 L 693.015625 360.003906 L 693.191406 360 L 693.332031 360 Z M 433.078125 461.523438 "/>
  </g>
</svg>
