<?xml version="1.0" encoding="UTF-8"?>
<svg xmlns="http://www.w3.org/2000/svg" xmlns:xlink="http://www.w3.org/1999/xlink" width="100%" height="100%" viewBox="0 0 720 720" version="1.1">
  <g id="spiro_3_1_1_86905">
    <path style=" stroke:none;fill-rule:evenodd;fill:rgb(69.803922%,13.333333%,13.333333%);fill-opacity:0.501961;" d="M 615.347656 574.261719 L 615.339844 574.253906 L 615.308594 574.226563 L 615.257813 574.1875 L 615.1875 574.125 L 615.097656 574.046875 L 614.988281 573.953125 L 614.859375 573.839844 L 614.710938 573.710938 L 614.542969 573.5625 L 614.355469 573.394531 L 614.152344 573.210938 L 613.925781 573.007813 L 613.683594 572.785156 L 613.421875 572.546875 L 613.140625 572.289063 L 612.839844 572.011719 L 612.523438 571.714844 L 612.1875 571.402344 L 611.835938 571.070313 L 611.464844 570.71875 L 611.078125 570.347656 L 610.671875 569.957031 L 610.246094 569.546875 L 609.808594 569.117188 L 609.351563 568.667969 L 608.875 568.203125 L 608.382813 567.714844 L 607.878906 567.207031 L 607.351563 566.679688 L 606.8125 566.136719 L 606.257813 565.570313 L 605.683594 564.984375 L 605.097656 564.378906 L 604.496094 563.753906 L 603.875 563.109375 L 603.242188 562.441406 L 602.59375 561.757813 L 601.929688 561.050781 L 601.253906 560.324219 L 600.558594 559.582031 L 599.851563 558.8125 L 599.132813 558.027344 L 598.398438 557.222656 L 597.648438 556.394531 L 596.886719 555.546875 L 596.109375 554.679688 L 595.324219 553.792969 L 594.519531 552.886719 L 593.707031 551.957031 L 592.878906 551.007813 L 592.039063 550.039063 L 591.1875 549.050781 L 590.324219 548.039063 L 589.449219 547.011719 L 588.5625 545.960938 L 587.664063 544.890625 L 586.753906 543.796875 L 585.835938 542.6875 L 584.902344 541.554688 L 583.960938 540.402344 L 583.007813 539.230469 L 582.046875 538.039063 L 581.074219 536.828125 L 580.089844 535.59375 L 579.097656 534.34375 L 578.097656 533.070313 L 577.085938 531.777344 L 576.066406 530.464844 L 575.039063 529.132813 L 574 527.777344 L 572.957031 526.40625 L 571.902344 525.015625 L 570.839844 523.601563 L 569.773438 522.171875 L 568.695313 520.71875 L 567.609375 519.25 L 566.519531 517.757813 L 565.421875 516.25 L 564.316406 514.722656 L 563.207031 513.171875 L 562.089844 511.605469 L 560.964844 510.019531 L 559.835938 508.414063 L 558.699219 506.792969 L 557.558594 505.148438 L 556.414063 503.488281 L 555.261719 501.808594 L 554.105469 500.109375 L 552.945313 498.394531 L 551.78125 496.660156 L 550.613281 494.90625 L 549.441406 493.132813 L 548.265625 491.34375 L 547.082031 489.539063 L 545.898438 487.714844 L 544.714844 485.871094 L 543.523438 484.011719 L 542.332031 482.136719 L 541.136719 480.242188 L 539.9375 478.328125 L 538.738281 476.402344 L 537.535156 474.457031 L 536.332031 472.496094 L 535.128906 470.519531 L 533.921875 468.523438 L 532.714844 466.515625 L 531.507813 464.488281 L 530.296875 462.445313 L 529.085938 460.386719 L 527.878906 458.3125 L 526.667969 456.226563 L 525.457031 454.121094 L 524.246094 452 L 523.035156 449.867188 L 521.828125 447.71875 L 520.617188 445.554688 L 519.410156 443.378906 L 518.203125 441.1875 L 517 438.980469 L 515.796875 436.761719 L 514.59375 434.527344 L 513.394531 432.28125 L 512.195313 430.019531 L 511 427.746094 L 509.808594 425.460938 L 508.617188 423.164063 L 507.429688 420.851563 L 506.242188 418.527344 L 505.058594 416.191406 L 503.882813 413.847656 L 502.707031 411.488281 L 501.535156 409.117188 L 500.367188 406.734375 L 499.203125 404.34375 L 498.042969 401.9375 L 496.886719 399.523438 L 495.734375 397.101563 L 494.585938 394.664063 L 493.445313 392.21875 L 492.308594 389.765625 L 491.175781 387.300781 L 490.046875 384.828125 L 488.925781 382.347656 L 487.808594 379.855469 L 486.699219 377.355469 L 485.59375 374.847656 L 484.492188 372.332031 L 483.398438 369.808594 L 482.3125 367.277344 L 481.230469 364.738281 L 480.15625 362.191406 L 479.089844 359.640625 L 478.027344 357.078125 L 476.972656 354.511719 L 475.925781 351.941406 L 474.886719 349.363281 L 473.851563 346.78125 L 472.824219 344.191406 L 471.804688 341.59375 L 470.792969 338.996094 L 469.789063 336.390625 L 468.792969 333.785156 L 467.804688 331.171875 L 466.824219 328.554688 L 465.855469 325.933594 L 464.890625 323.3125 L 463.933594 320.683594 L 462.984375 318.054688 L 462.046875 315.421875 L 461.117188 312.789063 L 460.191406 310.152344 L 459.28125 307.511719 L 458.375 304.871094 L 457.480469 302.230469 L 456.589844 299.589844 L 455.714844 296.945313 L 454.84375 294.300781 L 453.984375 291.65625 L 453.132813 289.015625 L 452.292969 286.371094 L 451.460938 283.726563 L 450.636719 281.085938 L 449.824219 278.445313 L 449.019531 275.804688 L 448.226563 273.167969 L 447.441406 270.53125 L 446.664063 267.894531 L 445.898438 265.265625 L 445.144531 262.636719 L 444.398438 260.007813 L 443.664063 257.386719 L 442.9375 254.769531 L 442.21875 252.152344 L 441.515625 249.542969 L 440.816406 246.933594 L 440.132813 244.332031 L 439.453125 241.734375 L 438.789063 239.140625 L 438.132813 236.554688 L 437.484375 233.972656 L 436.851563 231.398438 L 436.222656 228.828125 L 435.609375 226.265625 L 435.003906 223.710938 L 434.40625 221.160156 L 433.820313 218.621094 L 433.246094 216.085938 L 432.679688 213.558594 L 432.125 211.042969 L 431.582031 208.53125 L 431.046875 206.03125 L 430.519531 203.539063 L 430.003906 201.054688 L 429.5 198.582031 L 429.007813 196.117188 L 428.523438 193.660156 L 428.046875 191.21875 L 427.582031 188.78125 L 427.128906 186.359375 L 426.683594 183.945313 L 426.246094 181.546875 L 425.820313 179.15625 L 425.40625 176.777344 L 425 174.410156 L 424.605469 172.058594 L 424.21875 169.714844 L 423.839844 167.386719 L 423.472656 165.070313 L 423.117188 162.769531 L 422.769531 160.476563 L 422.429688 158.203125 L 422.101563 155.941406 L 421.78125 153.691406 L 421.46875 151.457031 L 421.167969 149.238281 L 420.875 147.035156 L 420.589844 144.84375 L 420.316406 142.671875 L 420.050781 140.511719 L 419.792969 138.371094 L 419.542969 136.242188 L 419.304688 134.132813 L 419.070313 132.039063 L 418.847656 129.960938 L 418.632813 127.898438 L 418.425781 125.855469 L 418.230469 123.828125 L 418.039063 121.820313 L 417.855469 119.828125 L 417.683594 117.855469 L 417.515625 115.898438 L 417.359375 113.960938 L 417.207031 112.042969 L 417.0625 110.144531 L 416.925781 108.261719 L 416.796875 106.402344 L 416.675781 104.558594 L 416.5625 102.734375 L 416.453125 100.929688 L 416.351563 99.148438 L 416.257813 97.382813 L 416.167969 95.640625 L 416.089844 93.917969 L 416.011719 92.214844 L 415.945313 90.53125 L 415.882813 88.871094 L 415.824219 87.230469 L 415.773438 85.613281 L 415.730469 84.015625 L 415.6875 82.441406 L 415.65625 80.886719 L 415.625 79.351563 L 415.601563 77.84375 L 415.582031 76.355469 L 415.570313 74.890625 L 415.5625 73.445313 L 415.554688 72.027344 L 415.554688 70.628906 L 415.558594 69.253906 L 415.570313 67.902344 L 415.582031 66.574219 L 415.597656 65.269531 L 415.617188 63.988281 L 415.640625 62.730469 L 415.667969 61.492188 L 415.699219 60.285156 L 415.734375 59.097656 L 415.769531 57.933594 L 415.808594 56.796875 L 415.851563 55.679688 L 415.894531 54.589844 L 415.941406 53.523438 L 415.992188 52.484375 L 416.042969 51.46875 L 416.097656 50.476563 L 416.152344 49.507813 L 416.207031 48.566406 L 416.265625 47.648438 L 416.324219 46.757813 L 416.382813 45.890625 L 416.445313 45.050781 L 416.507813 44.234375 L 416.570313 43.441406 L 416.632813 42.675781 L 416.695313 41.9375 L 416.757813 41.222656 L 416.820313 40.535156 L 416.882813 39.871094 L 416.945313 39.234375 L 417.007813 38.621094 L 417.066406 38.035156 L 417.128906 37.476563 L 417.1875 36.941406 L 417.246094 36.433594 L 417.300781 35.953125 L 417.355469 35.496094 L 417.410156 35.066406 L 417.460938 34.664063 L 417.507813 34.285156 L 417.554688 33.933594 L 417.601563 33.605469 L 417.640625 33.304688 L 417.679688 33.03125 L 417.71875 32.785156 L 417.75 32.5625 L 417.78125 32.367188 L 417.804688 32.199219 L 417.828125 32.054688 L 417.847656 31.9375 L 417.863281 31.847656 L 417.875 31.78125 L 417.878906 31.742188 L 417.882813 31.730469 L 417.878906 31.742188 L 417.875 31.78125 L 417.863281 31.847656 L 417.84375 31.9375 L 417.820313 32.054688 L 417.792969 32.195313 L 417.761719 32.363281 L 417.722656 32.558594 L 417.675781 32.777344 L 417.625 33.023438 L 417.570313 33.292969 L 417.507813 33.589844 L 417.4375 33.910156 L 417.359375 34.257813 L 417.277344 34.628906 L 417.1875 35.027344 L 417.089844 35.449219 L 416.984375 35.898438 L 416.871094 36.367188 L 416.753906 36.867188 L 416.625 37.386719 L 416.492188 37.933594 L 416.347656 38.507813 L 416.195313 39.101563 L 416.039063 39.722656 L 415.871094 40.367188 L 415.695313 41.035156 L 415.507813 41.726563 L 415.316406 42.445313 L 415.113281 43.1875 L 414.898438 43.949219 L 414.679688 44.738281 L 414.449219 45.550781 L 414.207031 46.386719 L 413.957031 47.242188 L 413.699219 48.125 L 413.429688 49.027344 L 413.152344 49.957031 L 412.863281 50.90625 L 412.5625 51.878906 L 412.25 52.875 L 411.929688 53.890625 L 411.601563 54.929688 L 411.257813 55.992188 L 410.90625 57.078125 L 410.542969 58.179688 L 410.167969 59.308594 L 409.785156 60.457031 L 409.386719 61.625 L 408.980469 62.816406 L 408.558594 64.027344 L 408.128906 65.257813 L 407.6875 66.511719 L 407.230469 67.785156 L 406.765625 69.078125 L 406.285156 70.390625 L 405.796875 71.726563 L 405.296875 73.078125 L 404.78125 74.449219 L 404.253906 75.84375 L 403.714844 77.253906 L 403.164063 78.683594 L 402.601563 80.132813 L 402.023438 81.597656 L 401.4375 83.085938 L 400.835938 84.589844 L 400.21875 86.109375 L 399.59375 87.648438 L 398.953125 89.207031 L 398.300781 90.78125 L 397.632813 92.371094 L 396.957031 93.980469 L 396.261719 95.605469 L 395.558594 97.246094 L 394.839844 98.90625 L 394.109375 100.578125 L 393.363281 102.269531 L 392.605469 103.972656 L 391.835938 105.695313 L 391.050781 107.433594 L 390.25 109.183594 L 389.4375 110.949219 L 388.613281 112.730469 L 387.777344 114.523438 L 386.921875 116.332031 L 386.058594 118.15625 L 385.179688 119.992188 L 384.285156 121.84375 L 383.378906 123.707031 L 382.457031 125.582031 L 381.523438 127.472656 L 380.578125 129.371094 L 379.617188 131.285156 L 378.640625 133.210938 L 377.652344 135.148438 L 376.652344 137.097656 L 375.636719 139.058594 L 374.605469 141.03125 L 373.5625 143.011719 L 372.507813 145.003906 L 371.4375 147.007813 L 370.355469 149.019531 L 369.257813 151.042969 L 368.148438 153.074219 L 367.023438 155.117188 L 365.886719 157.167969 L 364.734375 159.226563 L 363.570313 161.296875 L 362.394531 163.371094 L 361.203125 165.457031 L 360 167.550781 L 358.78125 169.648438 L 357.554688 171.757813 L 356.308594 173.871094 L 355.054688 175.992188 L 353.785156 178.121094 L 352.503906 180.257813 L 351.207031 182.398438 L 349.898438 184.542969 L 348.578125 186.695313 L 347.246094 188.855469 L 345.898438 191.015625 L 344.542969 193.183594 L 343.171875 195.355469 L 341.789063 197.53125 L 340.394531 199.714844 L 338.984375 201.898438 L 337.566406 204.085938 L 336.132813 206.277344 L 334.691406 208.472656 L 333.234375 210.667969 L 331.769531 212.871094 L 330.289063 215.070313 L 328.800781 217.277344 L 327.296875 219.484375 L 325.785156 221.691406 L 324.261719 223.902344 L 322.726563 226.113281 L 321.179688 228.324219 L 319.625 230.535156 L 318.058594 232.746094 L 316.480469 234.960938 L 314.890625 237.171875 L 313.292969 239.386719 L 311.683594 241.597656 L 310.0625 243.808594 L 308.433594 246.019531 L 306.792969 248.226563 L 305.144531 250.433594 L 303.488281 252.640625 L 301.820313 254.84375 L 300.144531 257.046875 L 298.457031 259.246094 L 296.761719 261.441406 L 295.058594 263.636719 L 293.347656 265.824219 L 291.625 268.011719 L 289.894531 270.195313 L 288.160156 272.375 L 286.414063 274.550781 L 284.660156 276.722656 L 282.898438 278.890625 L 281.128906 281.050781 L 279.355469 283.207031 L 277.570313 285.359375 L 275.78125 287.507813 L 273.984375 289.648438 L 272.179688 291.785156 L 270.371094 293.914063 L 268.554688 296.039063 L 266.734375 298.15625 L 264.90625 300.265625 L 263.070313 302.367188 L 261.230469 304.464844 L 259.386719 306.554688 L 257.535156 308.636719 L 255.679688 310.710938 L 253.820313 312.777344 L 251.957031 314.835938 L 250.089844 316.886719 L 248.214844 318.929688 L 246.339844 320.964844 L 244.457031 322.988281 L 242.574219 325.003906 L 240.6875 327.011719 L 238.796875 329.007813 L 236.902344 330.996094 L 235.007813 332.976563 L 233.109375 334.945313 L 231.207031 336.902344 L 229.304688 338.851563 L 227.398438 340.792969 L 225.492188 342.71875 L 223.582031 344.636719 L 221.671875 346.542969 L 219.761719 348.4375 L 217.851563 350.324219 L 215.941406 352.195313 L 214.027344 354.058594 L 212.113281 355.90625 L 210.203125 357.746094 L 208.289063 359.574219 L 206.378906 361.386719 L 204.46875 363.191406 L 202.558594 364.980469 L 200.652344 366.757813 L 198.742188 368.523438 L 196.839844 370.277344 L 194.933594 372.015625 L 193.035156 373.742188 L 191.136719 375.457031 L 189.238281 377.160156 L 187.347656 378.847656 L 185.457031 380.519531 L 183.570313 382.179688 L 181.6875 383.828125 L 179.804688 385.460938 L 177.929688 387.082031 L 176.058594 388.6875 L 174.191406 390.277344 L 172.332031 391.855469 L 170.472656 393.417969 L 168.621094 394.96875 L 166.777344 396.503906 L 164.933594 398.023438 L 163.101563 399.527344 L 161.269531 401.019531 L 159.449219 402.496094 L 157.632813 403.957031 L 155.824219 405.402344 L 154.023438 406.832031 L 152.230469 408.25 L 150.441406 409.652344 L 148.664063 411.039063 L 146.890625 412.410156 L 145.128906 413.765625 L 143.375 415.105469 L 141.628906 416.429688 L 139.894531 417.738281 L 138.167969 419.035156 L 136.449219 420.3125 L 134.742188 421.574219 L 133.042969 422.824219 L 131.355469 424.054688 L 129.679688 425.273438 L 128.011719 426.472656 L 126.355469 427.65625 L 124.710938 428.828125 L 123.078125 429.980469 L 121.457031 431.117188 L 119.84375 432.238281 L 118.246094 433.34375 L 116.660156 434.4375 L 115.085938 435.511719 L 113.527344 436.570313 L 111.976563 437.613281 L 110.441406 438.636719 L 108.921875 439.648438 L 107.414063 440.644531 L 105.917969 441.625 L 104.4375 442.589844 L 102.972656 443.535156 L 101.519531 444.46875 L 100.085938 445.382813 L 98.660156 446.285156 L 97.253906 447.167969 L 95.863281 448.039063 L 94.488281 448.890625 L 93.125 449.730469 L 91.78125 450.550781 L 90.453125 451.359375 L 89.140625 452.148438 L 87.84375 452.925781 L 86.566406 453.683594 L 85.300781 454.429688 L 84.058594 455.160156 L 82.828125 455.875 L 81.621094 456.574219 L 80.425781 457.257813 L 79.25 457.925781 L 78.09375 458.578125 L 76.957031 459.214844 L 75.835938 459.839844 L 74.734375 460.449219 L 73.652344 461.042969 L 72.589844 461.621094 L 71.542969 462.1875 L 70.519531 462.734375 L 69.511719 463.269531 L 68.527344 463.792969 L 67.558594 464.296875 L 66.613281 464.789063 L 65.6875 465.269531 L 64.78125 465.730469 L 63.894531 466.183594 L 63.03125 466.617188 L 62.1875 467.039063 L 61.363281 467.449219 L 60.5625 467.84375 L 59.78125 468.226563 L 59.023438 468.59375 L 58.285156 468.945313 L 57.570313 469.289063 L 56.875 469.617188 L 56.203125 469.933594 L 55.550781 470.234375 L 54.925781 470.523438 L 54.320313 470.800781 L 53.734375 471.066406 L 53.175781 471.320313 L 52.636719 471.558594 L 52.121094 471.785156 L 51.628906 472.003906 L 51.160156 472.207031 L 50.714844 472.398438 L 50.292969 472.578125 L 49.894531 472.75 L 49.519531 472.90625 L 49.167969 473.054688 L 48.839844 473.1875 L 48.535156 473.3125 L 48.253906 473.425781 L 47.996094 473.53125 L 47.765625 473.621094 L 47.558594 473.703125 L 47.371094 473.777344 L 47.214844 473.839844 L 47.078125 473.890625 L 46.964844 473.933594 L 46.878906 473.964844 L 46.78125 474.003906 L 46.769531 474.007813 L 46.78125 474.003906 L 46.820313 473.988281 L 46.882813 473.96875 L 46.96875 473.9375 L 47.078125 473.898438 L 47.21875 473.851563 L 47.378906 473.792969 L 47.777344 473.660156 L 48.015625 473.582031 L 48.277344 473.496094 L 48.566406 473.402344 L 48.878906 473.304688 L 49.21875 473.195313 L 49.582031 473.082031 L 49.972656 472.960938 L 50.386719 472.835938 L 50.824219 472.703125 L 51.289063 472.5625 L 51.78125 472.417969 L 52.296875 472.265625 L 52.835938 472.109375 L 53.402344 471.949219 L 53.996094 471.78125 L 54.613281 471.609375 L 55.253906 471.433594 L 55.921875 471.25 L 56.613281 471.0625 L 57.332031 470.875 L 58.074219 470.679688 L 58.84375 470.480469 L 59.636719 470.277344 L 60.453125 470.070313 L 61.296875 469.863281 L 62.164063 469.648438 L 63.058594 469.433594 L 63.976563 469.214844 L 64.917969 468.992188 L 65.886719 468.769531 L 66.878906 468.539063 L 67.894531 468.3125 L 68.9375 468.082031 L 70.003906 467.847656 L 71.09375 467.613281 L 72.207031 467.375 L 73.347656 467.136719 L 74.507813 466.898438 L 75.695313 466.65625 L 76.90625 466.417969 L 78.140625 466.175781 L 79.402344 465.933594 L 80.683594 465.691406 L 81.988281 465.445313 L 83.320313 465.203125 L 84.671875 464.960938 L 86.046875 464.71875 L 87.449219 464.476563 L 88.871094 464.234375 L 90.316406 463.992188 L 91.785156 463.753906 L 93.277344 463.515625 L 94.789063 463.277344 L 96.328125 463.039063 L 97.886719 462.804688 L 99.464844 462.574219 L 101.070313 462.34375 L 102.695313 462.113281 L 104.339844 461.886719 L 106.007813 461.664063 L 107.699219 461.441406 L 109.410156 461.222656 L 111.140625 461.003906 L 112.894531 460.792969 L 114.667969 460.582031 L 116.464844 460.375 L 118.28125 460.171875 L 120.117188 459.972656 L 121.972656 459.773438 L 123.847656 459.582031 L 125.746094 459.394531 L 127.660156 459.210938 L 129.597656 459.03125 L 131.550781 458.855469 L 133.523438 458.683594 L 135.515625 458.515625 L 137.527344 458.355469 L 139.558594 458.199219 L 141.609375 458.046875 L 143.675781 457.898438 L 145.757813 457.757813 L 147.863281 457.625 L 149.980469 457.492188 L 152.121094 457.367188 L 154.273438 457.25 L 156.445313 457.136719 L 158.636719 457.03125 L 160.839844 456.929688 L 163.0625 456.835938 L 165.300781 456.746094 L 167.554688 456.664063 L 169.824219 456.589844 L 172.109375 456.523438 L 174.410156 456.460938 L 176.722656 456.40625 L 179.054688 456.359375 L 181.398438 456.320313 L 183.757813 456.285156 L 186.132813 456.257813 L 188.519531 456.238281 L 190.917969 456.230469 L 193.332031 456.226563 L 195.761719 456.230469 L 198.199219 456.242188 L 200.652344 456.257813 L 203.121094 456.285156 L 205.597656 456.320313 L 208.085938 456.363281 L 210.589844 456.417969 L 213.101563 456.476563 L 215.625 456.542969 L 218.160156 456.617188 L 220.707031 456.703125 L 223.261719 456.796875 L 225.828125 456.894531 L 228.40625 457.003906 L 230.992188 457.125 L 233.585938 457.25 L 236.191406 457.386719 L 238.804688 457.53125 L 241.425781 457.683594 L 244.058594 457.84375 L 246.695313 458.015625 L 249.34375 458.191406 L 251.996094 458.382813 L 254.660156 458.578125 L 257.328125 458.785156 L 260.003906 459 L 262.6875 459.222656 L 265.375 459.457031 L 268.066406 459.699219 L 270.769531 459.949219 L 273.472656 460.210938 L 276.183594 460.480469 L 278.898438 460.757813 L 281.621094 461.046875 L 284.34375 461.34375 L 287.074219 461.648438 L 289.804688 461.964844 L 292.542969 462.289063 L 295.28125 462.621094 L 298.023438 462.964844 L 300.769531 463.316406 L 303.515625 463.675781 L 306.265625 464.046875 L 309.015625 464.421875 L 311.769531 464.8125 L 314.523438 465.207031 L 317.277344 465.613281 L 320.035156 466.027344 L 322.792969 466.453125 L 325.550781 466.886719 L 328.304688 467.328125 L 331.0625 467.777344 L 333.820313 468.238281 L 336.574219 468.703125 L 339.328125 469.179688 L 342.082031 469.667969 L 344.832031 470.160156 L 347.582031 470.664063 L 350.328125 471.175781 L 353.074219 471.695313 L 355.816406 472.222656 L 358.554688 472.757813 L 361.289063 473.304688 L 364.023438 473.855469 L 366.75 474.417969 L 369.472656 474.988281 L 372.195313 475.5625 L 374.910156 476.148438 L 377.621094 476.742188 L 380.324219 477.34375 L 383.023438 477.953125 L 385.71875 478.566406 L 388.40625 479.191406 L 391.085938 479.820313 L 393.761719 480.460938 L 396.433594 481.105469 L 399.09375 481.757813 L 401.746094 482.417969 L 404.394531 483.085938 L 407.035156 483.761719 L 409.664063 484.441406 L 412.289063 485.128906 L 414.902344 485.824219 L 417.507813 486.523438 L 420.105469 487.230469 L 422.695313 487.941406 L 425.273438 488.660156 L 427.839844 489.386719 L 430.398438 490.117188 L 432.945313 490.855469 L 435.484375 491.597656 L 438.011719 492.34375 L 440.527344 493.097656 L 443.035156 493.855469 L 445.527344 494.621094 L 448.011719 495.390625 L 450.480469 496.164063 L 452.9375 496.941406 L 455.386719 497.726563 L 457.820313 498.511719 L 460.238281 499.304688 L 462.648438 500.101563 L 465.042969 500.898438 L 467.425781 501.703125 L 469.792969 502.511719 L 472.148438 503.320313 L 474.488281 504.136719 L 476.8125 504.953125 L 479.125 505.773438 L 481.421875 506.597656 L 483.703125 507.425781 L 485.972656 508.253906 L 488.222656 509.085938 L 490.460938 509.921875 L 492.683594 510.757813 L 494.886719 511.59375 L 497.078125 512.433594 L 499.25 513.277344 L 501.40625 514.121094 L 503.546875 514.964844 L 505.671875 515.808594 L 507.777344 516.65625 L 509.867188 517.503906 L 511.941406 518.351563 L 513.996094 519.199219 L 516.035156 520.050781 L 518.054688 520.898438 L 520.058594 521.746094 L 522.042969 522.597656 L 524.007813 523.445313 L 525.957031 524.292969 L 527.882813 525.136719 L 529.796875 525.984375 L 531.6875 526.828125 L 533.5625 527.671875 L 535.414063 528.511719 L 537.25 529.351563 L 539.066406 530.191406 L 540.863281 531.027344 L 542.640625 531.859375 L 544.394531 532.691406 L 546.132813 533.519531 L 547.851563 534.347656 L 549.546875 535.167969 L 551.222656 535.988281 L 552.882813 536.804688 L 554.519531 537.617188 L 556.132813 538.425781 L 557.730469 539.226563 L 559.304688 540.027344 L 560.859375 540.824219 L 562.390625 541.617188 L 563.902344 542.402344 L 565.394531 543.183594 L 566.863281 543.960938 L 568.3125 544.730469 L 569.738281 545.496094 L 571.144531 546.253906 L 572.53125 547.007813 L 573.894531 547.753906 L 575.234375 548.496094 L 576.554688 549.230469 L 577.851563 549.957031 L 579.128906 550.679688 L 580.382813 551.394531 L 581.613281 552.101563 L 582.824219 552.796875 L 584.011719 553.488281 L 585.179688 554.171875 L 586.324219 554.847656 L 587.445313 555.515625 L 588.546875 556.171875 L 589.625 556.824219 L 590.679688 557.464844 L 591.710938 558.09375 L 592.722656 558.71875 L 593.710938 559.332031 L 594.679688 559.933594 L 595.621094 560.527344 L 596.542969 561.113281 L 597.445313 561.683594 L 598.320313 562.25 L 599.175781 562.800781 L 600.007813 563.34375 L 600.816406 563.875 L 601.605469 564.394531 L 602.371094 564.902344 L 603.113281 565.398438 L 603.835938 565.882813 L 604.53125 566.359375 L 605.207031 566.820313 L 605.863281 567.269531 L 606.492188 567.707031 L 607.101563 568.128906 L 607.691406 568.542969 L 608.253906 568.941406 L 608.796875 569.328125 L 609.320313 569.699219 L 609.816406 570.058594 L 610.292969 570.40625 L 610.75 570.734375 L 611.183594 571.054688 L 611.59375 571.359375 L 611.984375 571.648438 L 612.351563 571.921875 L 612.695313 572.183594 L 613.019531 572.429688 L 613.324219 572.664063 L 613.605469 572.878906 L 613.863281 573.082031 L 614.105469 573.265625 L 614.320313 573.4375 L 614.519531 573.59375 L 614.691406 573.730469 L 614.847656 573.855469 L 614.980469 573.960938 L 615.09375 574.054688 L 615.183594 574.128906 L 615.257813 574.1875 L 615.308594 574.230469 L 615.339844 574.253906 Z M 615.347656 574.261719 "/>
  </g>
</svg>
