<?xml version="1.0" encoding="UTF-8"?>
<svg xmlns="http://www.w3.org/2000/svg" xmlns:xlink="http://www.w3.org/1999/xlink" width="100%" height="100%" viewBox="0 0 720 720" version="1.1">
  <g id="spiro_3_1_1_74485">
    <path style=" stroke:none;fill-rule:evenodd;fill:rgb(60%,19.607843%,80%);fill-opacity:0.501961;" d="M 417.882813 688.269531 L 417.878906 688.257813 L 417.875 688.21875 L 417.863281 688.152344 L 417.847656 688.0625 L 417.828125 687.945313 L 417.804688 687.800781 L 417.78125 687.632813 L 417.75 687.4375 L 417.71875 687.214844 L 417.679688 686.96875 L 417.640625 686.695313 L 417.601563 686.394531 L 417.554688 686.066406 L 417.507813 685.714844 L 417.460938 685.335938 L 417.410156 684.933594 L 417.355469 684.503906 L 417.300781 684.046875 L 417.246094 683.566406 L 417.1875 683.058594 L 417.128906 682.523438 L 417.066406 681.964844 L 417.007813 681.378906 L 416.945313 680.765625 L 416.882813 680.128906 L 416.820313 679.464844 L 416.757813 678.777344 L 416.695313 678.0625 L 416.632813 677.324219 L 416.570313 676.558594 L 416.507813 675.765625 L 416.445313 674.949219 L 416.382813 674.109375 L 416.324219 673.242188 L 416.265625 672.351563 L 416.207031 671.433594 L 416.152344 670.492188 L 416.097656 669.523438 L 416.042969 668.53125 L 415.992188 667.515625 L 415.941406 666.476563 L 415.894531 665.410156 L 415.851563 664.320313 L 415.808594 663.203125 L 415.769531 662.066406 L 415.734375 660.902344 L 415.699219 659.714844 L 415.667969 658.507813 L 415.640625 657.269531 L 415.617188 656.011719 L 415.597656 654.730469 L 415.582031 653.425781 L 415.570313 652.097656 L 415.558594 650.746094 L 415.554688 649.371094 L 415.554688 647.972656 L 415.5625 646.554688 L 415.570313 645.109375 L 415.582031 643.644531 L 415.601563 642.15625 L 415.625 640.648438 L 415.65625 639.113281 L 415.6875 637.558594 L 415.730469 635.984375 L 415.773438 634.386719 L 415.824219 632.769531 L 415.882813 631.128906 L 415.945313 629.46875 L 416.011719 627.785156 L 416.089844 626.082031 L 416.167969 624.359375 L 416.257813 622.617188 L 416.351563 620.851563 L 416.453125 619.070313 L 416.5625 617.265625 L 416.675781 615.441406 L 416.796875 613.597656 L 416.925781 611.738281 L 417.0625 609.855469 L 417.207031 607.957031 L 417.359375 606.039063 L 417.515625 604.101563 L 417.683594 602.144531 L 417.855469 600.171875 L 418.039063 598.179688 L 418.230469 596.171875 L 418.425781 594.144531 L 418.632813 592.101563 L 418.847656 590.039063 L 419.070313 587.960938 L 419.304688 585.867188 L 419.542969 583.757813 L 419.792969 581.628906 L 420.050781 579.488281 L 420.316406 577.328125 L 420.589844 575.15625 L 420.875 572.964844 L 421.167969 570.761719 L 421.46875 568.542969 L 421.78125 566.308594 L 422.101563 564.058594 L 422.429688 561.796875 L 422.769531 559.523438 L 423.117188 557.230469 L 423.472656 554.929688 L 423.839844 552.613281 L 424.21875 550.285156 L 424.605469 547.941406 L 425 545.589844 L 425.40625 543.222656 L 425.820313 540.84375 L 426.246094 538.453125 L 426.683594 536.054688 L 427.128906 533.640625 L 427.582031 531.21875 L 428.046875 528.78125 L 428.523438 526.339844 L 429.007813 523.882813 L 429.5 521.417969 L 430.003906 518.945313 L 430.519531 516.460938 L 431.046875 513.96875 L 431.582031 511.46875 L 432.125 508.957031 L 432.679688 506.441406 L 433.246094 503.914063 L 433.820313 501.378906 L 434.40625 498.839844 L 435.003906 496.289063 L 435.609375 493.734375 L 436.222656 491.171875 L 436.851563 488.601563 L 437.484375 486.027344 L 438.132813 483.445313 L 438.789063 480.859375 L 439.453125 478.265625 L 440.132813 475.667969 L 440.816406 473.066406 L 441.515625 470.457031 L 442.21875 467.847656 L 442.9375 465.230469 L 443.664063 462.613281 L 444.398438 459.992188 L 445.144531 457.363281 L 445.898438 454.734375 L 446.664063 452.105469 L 447.441406 449.46875 L 448.226563 446.832031 L 449.019531 444.195313 L 449.824219 441.554688 L 450.636719 438.914063 L 451.460938 436.273438 L 452.292969 433.628906 L 453.132813 430.984375 L 453.984375 428.34375 L 454.84375 425.699219 L 455.714844 423.054688 L 456.589844 420.410156 L 457.480469 417.769531 L 458.375 415.128906 L 459.28125 412.488281 L 460.191406 409.847656 L 461.117188 407.210938 L 462.046875 404.578125 L 462.984375 401.945313 L 463.933594 399.316406 L 464.890625 396.6875 L 465.855469 394.066406 L 466.824219 391.445313 L 467.804688 388.828125 L 468.792969 386.214844 L 469.789063 383.609375 L 470.792969 381.003906 L 471.804688 378.40625 L 472.824219 375.808594 L 473.851563 373.21875 L 474.886719 370.636719 L 475.925781 368.058594 L 476.972656 365.488281 L 478.027344 362.921875 L 479.089844 360.359375 L 480.15625 357.808594 L 481.230469 355.261719 L 482.3125 352.722656 L 483.398438 350.191406 L 484.492188 347.667969 L 485.59375 345.152344 L 486.699219 342.644531 L 487.808594 340.144531 L 488.925781 337.652344 L 490.046875 335.171875 L 491.175781 332.699219 L 492.308594 330.234375 L 493.445313 327.78125 L 494.585938 325.335938 L 495.734375 322.898438 L 496.886719 320.476563 L 498.042969 318.0625 L 499.203125 315.65625 L 500.367188 313.265625 L 501.535156 310.882813 L 502.707031 308.511719 L 503.882813 306.152344 L 505.058594 303.808594 L 506.242188 301.472656 L 507.429688 299.148438 L 508.617188 296.835938 L 509.808594 294.539063 L 511 292.253906 L 512.195313 289.980469 L 513.394531 287.71875 L 514.59375 285.472656 L 515.796875 283.238281 L 517 281.019531 L 518.203125 278.8125 L 519.410156 276.621094 L 520.617188 274.445313 L 521.828125 272.28125 L 523.035156 270.132813 L 524.246094 268 L 525.457031 265.878906 L 526.667969 263.773438 L 527.878906 261.6875 L 529.085938 259.613281 L 530.296875 257.554688 L 531.507813 255.511719 L 532.714844 253.484375 L 533.921875 251.476563 L 535.128906 249.480469 L 536.332031 247.503906 L 537.535156 245.542969 L 538.738281 243.597656 L 539.9375 241.671875 L 541.136719 239.757813 L 542.332031 237.863281 L 543.523438 235.988281 L 544.714844 234.128906 L 545.898438 232.285156 L 547.082031 230.460938 L 548.265625 228.65625 L 549.441406 226.867188 L 550.613281 225.09375 L 551.78125 223.339844 L 552.945313 221.605469 L 554.105469 219.890625 L 555.261719 218.191406 L 556.414063 216.511719 L 557.558594 214.851563 L 558.699219 213.207031 L 559.835938 211.585938 L 560.964844 209.980469 L 562.089844 208.394531 L 563.207031 206.828125 L 564.316406 205.277344 L 565.421875 203.75 L 566.519531 202.242188 L 567.609375 200.75 L 568.695313 199.28125 L 569.773438 197.828125 L 570.839844 196.398438 L 571.902344 194.984375 L 572.957031 193.59375 L 574 192.222656 L 575.039063 190.867188 L 576.066406 189.535156 L 577.085938 188.222656 L 578.097656 186.929688 L 579.097656 185.65625 L 580.089844 184.40625 L 581.074219 183.171875 L 582.046875 181.960938 L 583.007813 180.769531 L 583.960938 179.597656 L 584.902344 178.445313 L 585.835938 177.3125 L 586.753906 176.203125 L 587.664063 175.109375 L 588.5625 174.039063 L 589.449219 172.988281 L 590.324219 171.960938 L 591.1875 170.949219 L 592.039063 169.960938 L 592.878906 168.992188 L 593.707031 168.042969 L 594.519531 167.113281 L 595.324219 166.207031 L 596.109375 165.320313 L 596.886719 164.453125 L 597.648438 163.605469 L 598.398438 162.777344 L 599.132813 161.972656 L 599.851563 161.1875 L 600.558594 160.417969 L 601.253906 159.675781 L 601.929688 158.949219 L 602.59375 158.242188 L 603.242188 157.558594 L 603.875 156.890625 L 604.496094 156.246094 L 605.097656 155.621094 L 605.683594 155.015625 L 606.257813 154.429688 L 606.8125 153.863281 L 607.351563 153.320313 L 607.878906 152.792969 L 608.382813 152.285156 L 608.875 151.796875 L 609.351563 151.332031 L 609.808594 150.882813 L 610.246094 150.453125 L 610.671875 150.042969 L 611.078125 149.652344 L 611.464844 149.28125 L 611.835938 148.929688 L 612.1875 148.597656 L 612.523438 148.285156 L 612.839844 147.988281 L 613.140625 147.710938 L 613.421875 147.453125 L 613.683594 147.214844 L 613.925781 146.992188 L 614.152344 146.789063 L 614.355469 146.605469 L 614.542969 146.4375 L 614.710938 146.289063 L 614.859375 146.160156 L 614.988281 146.046875 L 615.097656 145.953125 L 615.1875 145.875 L 615.257813 145.8125 L 615.308594 145.773438 L 615.339844 145.746094 L 615.347656 145.738281 L 615.339844 145.746094 L 615.308594 145.769531 L 615.257813 145.8125 L 615.183594 145.871094 L 615.09375 145.945313 L 614.980469 146.039063 L 614.847656 146.144531 L 614.691406 146.269531 L 614.519531 146.40625 L 614.320313 146.5625 L 614.105469 146.734375 L 613.863281 146.917969 L 613.605469 147.121094 L 613.324219 147.335938 L 613.019531 147.570313 L 612.695313 147.816406 L 612.351563 148.078125 L 611.984375 148.351563 L 611.59375 148.640625 L 611.183594 148.945313 L 610.75 149.265625 L 610.292969 149.59375 L 609.816406 149.941406 L 609.320313 150.300781 L 608.796875 150.671875 L 608.253906 151.058594 L 607.691406 151.457031 L 607.101563 151.871094 L 606.492188 152.292969 L 605.863281 152.730469 L 605.207031 153.179688 L 604.53125 153.640625 L 603.835938 154.117188 L 603.113281 154.601563 L 602.371094 155.097656 L 601.605469 155.605469 L 600.816406 156.125 L 600.007813 156.65625 L 599.175781 157.199219 L 598.320313 157.75 L 597.445313 158.316406 L 596.542969 158.886719 L 595.621094 159.472656 L 594.679688 160.066406 L 593.710938 160.667969 L 592.722656 161.28125 L 591.710938 161.90625 L 590.679688 162.535156 L 589.625 163.175781 L 588.546875 163.828125 L 587.445313 164.484375 L 586.324219 165.152344 L 585.179688 165.828125 L 584.011719 166.511719 L 582.824219 167.203125 L 581.613281 167.898438 L 580.382813 168.605469 L 579.128906 169.320313 L 577.851563 170.042969 L 576.554688 170.769531 L 575.234375 171.503906 L 573.894531 172.246094 L 572.53125 172.992188 L 571.144531 173.746094 L 569.738281 174.503906 L 568.3125 175.269531 L 566.863281 176.039063 L 565.394531 176.816406 L 563.902344 177.597656 L 562.390625 178.382813 L 560.859375 179.175781 L 559.304688 179.972656 L 557.730469 180.773438 L 556.132813 181.574219 L 554.519531 182.382813 L 552.882813 183.195313 L 551.222656 184.011719 L 549.546875 184.832031 L 547.851563 185.652344 L 546.132813 186.480469 L 544.394531 187.308594 L 542.640625 188.140625 L 540.863281 188.972656 L 539.066406 189.808594 L 537.25 190.648438 L 535.414063 191.488281 L 533.5625 192.328125 L 531.6875 193.171875 L 529.796875 194.015625 L 527.882813 194.863281 L 525.957031 195.707031 L 524.007813 196.554688 L 522.042969 197.402344 L 520.058594 198.253906 L 518.054688 199.101563 L 516.035156 199.949219 L 513.996094 200.800781 L 511.941406 201.648438 L 509.867188 202.496094 L 507.777344 203.34375 L 505.671875 204.191406 L 503.546875 205.035156 L 501.40625 205.878906 L 499.25 206.722656 L 497.078125 207.566406 L 494.886719 208.40625 L 492.683594 209.242188 L 490.460938 210.078125 L 488.222656 210.914063 L 485.972656 211.746094 L 483.703125 212.574219 L 481.421875 213.402344 L 479.125 214.226563 L 476.8125 215.046875 L 474.488281 215.863281 L 472.148438 216.679688 L 469.792969 217.488281 L 467.425781 218.296875 L 465.042969 219.101563 L 462.648438 219.898438 L 460.238281 220.695313 L 457.820313 221.488281 L 455.386719 222.273438 L 452.9375 223.058594 L 450.480469 223.835938 L 448.011719 224.609375 L 445.527344 225.378906 L 443.035156 226.144531 L 440.527344 226.902344 L 438.011719 227.65625 L 435.484375 228.402344 L 432.945313 229.144531 L 430.398438 229.882813 L 427.839844 230.613281 L 425.273438 231.339844 L 422.695313 232.058594 L 420.105469 232.769531 L 417.507813 233.476563 L 414.902344 234.175781 L 412.289063 234.871094 L 409.664063 235.558594 L 407.035156 236.238281 L 404.394531 236.914063 L 401.746094 237.582031 L 399.09375 238.242188 L 396.433594 238.894531 L 393.761719 239.539063 L 391.085938 240.179688 L 388.40625 240.808594 L 385.71875 241.433594 L 383.023438 242.046875 L 380.324219 242.65625 L 377.621094 243.257813 L 374.910156 243.851563 L 372.195313 244.4375 L 369.472656 245.011719 L 366.75 245.582031 L 364.023438 246.144531 L 361.289063 246.695313 L 358.554688 247.242188 L 355.816406 247.777344 L 353.074219 248.304688 L 350.328125 248.824219 L 347.582031 249.335938 L 344.832031 249.839844 L 342.082031 250.332031 L 339.328125 250.820313 L 336.574219 251.296875 L 333.820313 251.761719 L 331.0625 252.222656 L 328.304688 252.671875 L 325.550781 253.113281 L 322.792969 253.546875 L 320.035156 253.972656 L 317.277344 254.386719 L 314.523438 254.792969 L 311.769531 255.1875 L 309.015625 255.578125 L 306.265625 255.953125 L 303.515625 256.324219 L 300.769531 256.683594 L 298.023438 257.035156 L 295.28125 257.378906 L 292.542969 257.710938 L 289.804688 258.035156 L 287.074219 258.351563 L 284.34375 258.65625 L 281.621094 258.953125 L 278.898438 259.242188 L 276.183594 259.519531 L 273.472656 259.789063 L 270.769531 260.050781 L 268.066406 260.300781 L 265.375 260.542969 L 262.6875 260.777344 L 260.003906 261 L 257.328125 261.214844 L 254.660156 261.421875 L 251.996094 261.617188 L 249.34375 261.808594 L 246.695313 261.984375 L 244.058594 262.15625 L 241.425781 262.316406 L 238.804688 262.46875 L 236.191406 262.613281 L 233.585938 262.75 L 230.992188 262.875 L 228.40625 262.996094 L 225.828125 263.105469 L 223.261719 263.203125 L 220.707031 263.296875 L 218.160156 263.382813 L 215.625 263.457031 L 213.101563 263.523438 L 210.589844 263.582031 L 208.085938 263.636719 L 205.597656 263.679688 L 203.121094 263.714844 L 200.652344 263.742188 L 198.199219 263.757813 L 195.761719 263.769531 L 193.332031 263.773438 L 190.917969 263.769531 L 188.519531 263.761719 L 186.132813 263.742188 L 183.757813 263.714844 L 181.398438 263.679688 L 179.054688 263.640625 L 176.722656 263.59375 L 174.410156 263.539063 L 172.109375 263.476563 L 169.824219 263.410156 L 167.554688 263.335938 L 165.300781 263.253906 L 163.0625 263.164063 L 160.839844 263.070313 L 158.636719 262.96875 L 156.445313 262.863281 L 154.273438 262.75 L 152.121094 262.632813 L 149.980469 262.507813 L 147.863281 262.375 L 145.757813 262.242188 L 143.675781 262.101563 L 141.609375 261.953125 L 139.558594 261.800781 L 137.527344 261.644531 L 135.515625 261.484375 L 133.523438 261.316406 L 131.550781 261.144531 L 129.597656 260.96875 L 127.660156 260.789063 L 125.746094 260.605469 L 123.847656 260.417969 L 121.972656 260.226563 L 120.117188 260.027344 L 118.28125 259.828125 L 116.464844 259.625 L 114.667969 259.417969 L 112.894531 259.207031 L 111.140625 258.996094 L 109.410156 258.777344 L 107.699219 258.558594 L 106.007813 258.335938 L 104.339844 258.113281 L 102.695313 257.886719 L 101.070313 257.65625 L 99.464844 257.425781 L 97.886719 257.195313 L 96.328125 256.960938 L 94.789063 256.722656 L 93.277344 256.484375 L 91.785156 256.246094 L 90.316406 256.007813 L 88.871094 255.765625 L 87.449219 255.523438 L 86.046875 255.28125 L 84.671875 255.039063 L 83.320313 254.796875 L 81.988281 254.554688 L 80.683594 254.308594 L 79.402344 254.066406 L 78.140625 253.824219 L 76.90625 253.582031 L 75.695313 253.34375 L 74.507813 253.101563 L 73.347656 252.863281 L 72.207031 252.625 L 71.09375 252.386719 L 70.003906 252.152344 L 68.9375 251.917969 L 67.894531 251.6875 L 66.878906 251.460938 L 65.886719 251.230469 L 64.917969 251.007813 L 63.976563 250.785156 L 63.058594 250.566406 L 62.164063 250.351563 L 61.296875 250.136719 L 60.453125 249.929688 L 59.636719 249.722656 L 58.84375 249.519531 L 58.074219 249.320313 L 57.332031 249.125 L 56.613281 248.9375 L 55.921875 248.75 L 55.253906 248.566406 L 54.613281 248.390625 L 53.996094 248.21875 L 53.402344 248.050781 L 52.835938 247.890625 L 52.296875 247.734375 L 51.78125 247.582031 L 51.289063 247.4375 L 50.824219 247.296875 L 50.386719 247.164063 L 49.972656 247.039063 L 49.582031 246.917969 L 49.21875 246.804688 L 48.878906 246.695313 L 48.566406 246.597656 L 48.277344 246.503906 L 48.015625 246.417969 L 47.777344 246.339844 L 47.378906 246.207031 L 47.21875 246.148438 L 47.078125 246.101563 L 46.96875 246.0625 L 46.882813 246.03125 L 46.820313 246.011719 L 46.78125 245.996094 L 46.769531 245.992188 L 46.78125 245.996094 L 46.878906 246.035156 L 46.964844 246.066406 L 47.078125 246.109375 L 47.214844 246.160156 L 47.371094 246.222656 L 47.558594 246.296875 L 47.765625 246.378906 L 47.996094 246.46875 L 48.253906 246.574219 L 48.535156 246.6875 L 48.839844 246.8125 L 49.167969 246.945313 L 49.519531 247.09375 L 49.894531 247.25 L 50.292969 247.421875 L 50.714844 247.601563 L 51.160156 247.792969 L 51.628906 247.996094 L 52.121094 248.214844 L 52.636719 248.441406 L 53.175781 248.679688 L 53.734375 248.933594 L 54.320313 249.199219 L 54.925781 249.476563 L 55.550781 249.765625 L 56.203125 250.066406 L 56.875 250.382813 L 57.570313 250.710938 L 58.285156 251.054688 L 59.023438 251.40625 L 59.78125 251.773438 L 60.5625 252.15625 L 61.363281 252.550781 L 62.1875 252.960938 L 63.03125 253.382813 L 63.894531 253.816406 L 64.78125 254.269531 L 65.6875 254.730469 L 66.613281 255.210938 L 67.558594 255.703125 L 68.527344 256.207031 L 69.511719 256.730469 L 70.519531 257.265625 L 71.542969 257.8125 L 72.589844 258.378906 L 73.652344 258.957031 L 74.734375 259.550781 L 75.835938 260.160156 L 76.957031 260.785156 L 78.09375 261.421875 L 79.25 262.074219 L 80.425781 262.742188 L 81.621094 263.425781 L 82.828125 264.125 L 84.058594 264.839844 L 85.300781 265.570313 L 86.566406 266.316406 L 87.84375 267.074219 L 89.140625 267.851563 L 90.453125 268.640625 L 91.78125 269.449219 L 93.125 270.269531 L 94.488281 271.109375 L 95.863281 271.960938 L 97.253906 272.832031 L 98.660156 273.714844 L 100.085938 274.617188 L 101.519531 275.53125 L 102.972656 276.464844 L 104.4375 277.410156 L 105.917969 278.375 L 107.414063 279.355469 L 108.921875 280.351563 L 110.441406 281.363281 L 111.976563 282.386719 L 113.527344 283.429688 L 115.085938 284.488281 L 116.660156 285.5625 L 118.246094 286.65625 L 119.84375 287.761719 L 121.457031 288.882813 L 123.078125 290.019531 L 124.710938 291.171875 L 126.355469 292.34375 L 128.011719 293.527344 L 129.679688 294.726563 L 131.355469 295.945313 L 133.042969 297.175781 L 134.742188 298.425781 L 136.449219 299.6875 L 138.167969 300.964844 L 139.894531 302.261719 L 141.628906 303.570313 L 143.375 304.894531 L 145.128906 306.234375 L 146.890625 307.589844 L 148.664063 308.960938 L 150.441406 310.347656 L 152.230469 311.75 L 154.023438 313.167969 L 155.824219 314.597656 L 157.632813 316.042969 L 159.449219 317.503906 L 161.269531 318.980469 L 163.101563 320.472656 L 164.933594 321.976563 L 166.777344 323.496094 L 168.621094 325.03125 L 170.472656 326.582031 L 172.332031 328.144531 L 174.191406 329.722656 L 176.058594 331.3125 L 177.929688 332.917969 L 179.804688 334.539063 L 181.6875 336.171875 L 183.570313 337.820313 L 185.457031 339.480469 L 187.347656 341.152344 L 189.238281 342.839844 L 191.136719 344.542969 L 193.035156 346.257813 L 194.933594 347.984375 L 196.839844 349.722656 L 198.742188 351.476563 L 200.652344 353.242188 L 202.558594 355.019531 L 204.46875 356.808594 L 206.378906 358.613281 L 208.289063 360.425781 L 210.203125 362.253906 L 212.113281 364.09375 L 214.027344 365.941406 L 215.941406 367.804688 L 217.851563 369.675781 L 219.761719 371.5625 L 221.671875 373.457031 L 223.582031 375.363281 L 225.492188 377.28125 L 227.398438 379.207031 L 229.304688 381.148438 L 231.207031 383.097656 L 233.109375 385.054688 L 235.007813 387.023438 L 236.902344 389.003906 L 238.796875 390.992188 L 240.6875 392.988281 L 242.574219 394.996094 L 244.457031 397.011719 L 246.339844 399.035156 L 248.214844 401.070313 L 250.089844 403.113281 L 251.957031 405.164063 L 253.820313 407.222656 L 255.679688 409.289063 L 257.535156 411.363281 L 259.386719 413.445313 L 261.230469 415.535156 L 263.070313 417.632813 L 264.90625 419.734375 L 266.734375 421.84375 L 268.554688 423.960938 L 270.371094 426.085938 L 272.179688 428.214844 L 273.984375 430.351563 L 275.78125 432.492188 L 277.570313 434.640625 L 279.355469 436.792969 L 281.128906 438.949219 L 282.898438 441.109375 L 284.660156 443.277344 L 286.414063 445.449219 L 288.160156 447.625 L 289.894531 449.804688 L 291.625 451.988281 L 293.347656 454.175781 L 295.058594 456.363281 L 296.761719 458.558594 L 298.457031 460.753906 L 300.144531 462.953125 L 301.820313 465.15625 L 303.488281 467.359375 L 305.144531 469.566406 L 306.792969 471.773438 L 308.433594 473.980469 L 310.0625 476.191406 L 311.683594 478.402344 L 313.292969 480.613281 L 314.890625 482.828125 L 316.480469 485.039063 L 318.058594 487.253906 L 319.625 489.464844 L 321.179688 491.675781 L 322.726563 493.886719 L 324.261719 496.097656 L 325.785156 498.308594 L 327.296875 500.515625 L 328.800781 502.722656 L 330.289063 504.929688 L 331.769531 507.128906 L 333.234375 509.332031 L 334.691406 511.527344 L 336.132813 513.722656 L 337.566406 515.914063 L 338.984375 518.101563 L 340.394531 520.285156 L 341.789063 522.46875 L 343.171875 524.644531 L 344.542969 526.816406 L 345.898438 528.984375 L 347.246094 531.144531 L 348.578125 533.304688 L 349.898438 535.457031 L 351.207031 537.601563 L 352.503906 539.742188 L 353.785156 541.878906 L 355.054688 544.007813 L 356.308594 546.128906 L 357.554688 548.242188 L 358.78125 550.351563 L 360 552.449219 L 361.203125 554.542969 L 362.394531 556.628906 L 363.570313 558.703125 L 364.734375 560.773438 L 365.886719 562.832031 L 367.023438 564.882813 L 368.148438 566.925781 L 369.257813 568.957031 L 370.355469 570.980469 L 371.4375 572.992188 L 372.507813 574.996094 L 373.5625 576.988281 L 374.605469 578.96875 L 375.636719 580.941406 L 376.652344 582.902344 L 377.652344 584.851563 L 378.640625 586.789063 L 379.617188 588.714844 L 380.578125 590.628906 L 381.523438 592.527344 L 382.457031 594.417969 L 383.378906 596.292969 L 384.285156 598.15625 L 385.179688 600.007813 L 386.058594 601.84375 L 386.921875 603.667969 L 387.777344 605.476563 L 388.613281 607.269531 L 389.4375 609.050781 L 390.25 610.816406 L 391.050781 612.566406 L 391.835938 614.304688 L 392.605469 616.027344 L 393.363281 617.730469 L 394.109375 619.421875 L 394.839844 621.09375 L 395.558594 622.753906 L 396.261719 624.394531 L 396.957031 626.019531 L 397.632813 627.628906 L 398.300781 629.21875 L 398.953125 630.792969 L 399.59375 632.351563 L 400.21875 633.890625 L 400.835938 635.410156 L 401.4375 636.914063 L 402.023438 638.402344 L 402.601563 639.867188 L 403.164063 641.316406 L 403.714844 642.746094 L 404.253906 644.15625 L 404.78125 645.550781 L 405.296875 646.921875 L 405.796875 648.273438 L 406.285156 649.609375 L 406.765625 650.921875 L 407.230469 652.214844 L 407.6875 653.488281 L 408.128906 654.742188 L 408.558594 655.972656 L 408.980469 657.183594 L 409.386719 658.375 L 409.785156 659.542969 L 410.167969 660.691406 L 410.542969 661.820313 L 410.90625 662.921875 L 411.257813 664.007813 L 411.601563 665.070313 L 411.929688 666.109375 L 412.25 667.125 L 412.5625 668.121094 L 412.863281 669.09375 L 413.152344 670.042969 L 413.429688 670.972656 L 413.699219 671.875 L 413.957031 672.757813 L 414.207031 673.613281 L 414.449219 674.449219 L 414.679688 675.261719 L 414.898438 676.050781 L 415.113281 676.8125 L 415.316406 677.554688 L 415.507813 678.273438 L 415.695313 678.964844 L 415.871094 679.632813 L 416.039063 680.277344 L 416.195313 680.898438 L 416.347656 681.492188 L 416.492188 682.066406 L 416.625 682.613281 L 416.753906 683.132813 L 416.871094 683.632813 L 416.984375 684.101563 L 417.089844 684.550781 L 417.1875 684.972656 L 417.277344 685.371094 L 417.359375 685.742188 L 417.4375 686.089844 L 417.507813 686.410156 L 417.570313 686.707031 L 417.625 686.976563 L 417.675781 687.222656 L 417.722656 687.441406 L 417.761719 687.636719 L 417.792969 687.804688 L 417.820313 687.945313 L 417.84375 688.0625 L 417.863281 688.152344 L 417.875 688.21875 L 417.878906 688.257813 Z M 417.882813 688.269531 "/>
  </g>
</svg>
