<?xml version="1.0" encoding="UTF-8"?>
<svg xmlns="http://www.w3.org/2000/svg" xmlns:xlink="http://www.w3.org/1999/xlink" width="100%" height="100%" viewBox="0 0 720 720" version="1.1">
  <g id="spiro_7_-1_3_7997">
    <path style=" stroke:none;fill-rule:evenodd;fill:rgb(60%,19.607843%,80%);fill-opacity:1;" d="M 693.332031 360 L 693.214844 366.097656 L 692.855469 372.183594 L 692.257813 378.246094 L 691.421875 384.273438 L 690.351563 390.253906 L 689.050781 396.175781 L 687.519531 402.03125 L 685.761719 407.804688 L 683.78125 413.488281 L 681.585938 419.074219 L 679.179688 424.542969 L 676.570313 429.894531 L 673.757813 435.113281 L 670.757813 440.191406 L 667.570313 445.117188 L 664.203125 449.886719 L 660.671875 454.492188 L 656.976563 458.917969 L 653.132813 463.164063 L 649.144531 467.21875 L 645.023438 471.082031 L 640.78125 474.742188 L 636.421875 478.191406 L 631.964844 481.433594 L 627.417969 484.457031 L 622.789063 487.257813 L 618.089844 489.839844 L 613.332031 492.191406 L 608.53125 494.316406 L 603.691406 496.207031 L 598.832031 497.871094 L 593.957031 499.300781 L 589.085938 500.5 L 584.222656 501.464844 L 579.382813 502.203125 L 574.578125 502.714844 L 569.816406 502.996094 L 565.113281 503.058594 L 560.476563 502.898438 L 555.921875 502.527344 L 551.453125 501.941406 L 547.082031 501.152344 L 542.824219 500.164063 L 538.683594 498.984375 L 534.671875 497.617188 L 530.800781 496.066406 L 527.074219 494.347656 L 523.5 492.460938 L 520.09375 490.421875 L 516.855469 488.234375 L 513.792969 485.910156 L 510.917969 483.457031 L 508.230469 480.886719 L 505.738281 478.207031 L 503.445313 475.429688 L 501.359375 472.5625 L 499.484375 469.621094 L 497.820313 466.613281 L 496.371094 463.554688 L 495.140625 460.449219 L 494.128906 457.3125 L 493.339844 454.15625 L 492.769531 450.992188 L 492.421875 447.828125 L 492.292969 444.679688 L 492.382813 441.558594 L 492.691406 438.472656 L 493.21875 435.4375 L 493.953125 432.460938 L 494.898438 429.550781 L 496.050781 426.726563 L 497.402344 423.992188 L 498.949219 421.363281 L 500.683594 418.84375 L 502.605469 416.449219 L 504.703125 414.183594 L 506.96875 412.058594 L 509.398438 410.085938 L 511.984375 408.265625 L 514.714844 406.617188 L 517.582031 405.136719 L 520.578125 403.839844 L 523.695313 402.730469 L 526.917969 401.8125 L 530.242188 401.09375 L 533.65625 400.578125 L 537.148438 400.273438 L 540.707031 400.175781 L 544.320313 400.296875 L 547.980469 400.636719 L 551.675781 401.199219 L 555.394531 401.984375 L 559.121094 402.992188 L 562.847656 404.222656 L 566.566406 405.679688 L 570.257813 407.363281 L 573.914063 409.265625 L 577.523438 411.394531 L 581.078125 413.738281 L 584.5625 416.300781 L 587.96875 419.074219 L 591.28125 422.054688 L 594.492188 425.242188 L 597.59375 428.628906 L 600.570313 432.210938 L 603.417969 435.980469 L 606.121094 439.929688 L 608.675781 444.054688 L 611.070313 448.34375 L 613.296875 452.792969 L 615.347656 457.390625 L 617.214844 462.132813 L 618.890625 467.007813 L 620.371094 472.003906 L 621.644531 477.117188 L 622.710938 482.328125 L 623.5625 487.636719 L 624.195313 493.027344 L 624.601563 498.488281 L 624.78125 504.007813 L 624.734375 509.578125 L 624.449219 515.1875 L 623.933594 520.824219 L 623.179688 526.472656 L 622.191406 532.125 L 620.964844 537.773438 L 619.503906 543.398438 L 617.804688 548.992188 L 615.875 554.542969 L 613.710938 560.039063 L 611.316406 565.46875 L 608.699219 570.824219 L 605.859375 576.089844 L 602.800781 581.257813 L 599.527344 586.316406 L 596.050781 591.257813 L 592.371094 596.066406 L 588.496094 600.738281 L 584.433594 605.257813 L 580.191406 609.625 L 575.777344 613.824219 L 571.195313 617.847656 L 566.460938 621.6875 L 561.578125 625.34375 L 556.558594 628.796875 L 551.410156 632.050781 L 546.144531 635.097656 L 540.773438 637.929688 L 535.304688 640.539063 L 529.746094 642.929688 L 524.117188 645.089844 L 518.421875 647.023438 L 512.675781 648.71875 L 506.886719 650.183594 L 501.066406 651.410156 L 495.230469 652.398438 L 489.390625 653.148438 L 483.550781 653.660156 L 477.730469 653.933594 L 471.9375 653.976563 L 466.1875 653.78125 L 460.484375 653.355469 L 454.84375 652.703125 L 449.28125 651.824219 L 443.796875 650.726563 L 438.410156 649.410156 L 433.128906 647.886719 L 427.964844 646.15625 L 422.921875 644.230469 L 418.015625 642.109375 L 413.253906 639.808594 L 408.644531 637.328125 L 404.191406 634.679688 L 399.910156 631.867188 L 395.804688 628.90625 L 391.882813 625.804688 L 388.148438 622.570313 L 384.613281 619.210938 L 381.277344 615.742188 L 378.144531 612.167969 L 375.226563 608.503906 L 372.519531 604.757813 L 370.035156 600.945313 L 367.769531 597.070313 L 365.726563 593.152344 L 363.90625 589.195313 L 362.3125 585.21875 L 360.949219 581.226563 L 359.808594 577.234375 L 358.894531 573.25 L 358.203125 569.292969 L 357.738281 565.363281 L 357.492188 561.484375 L 357.460938 557.65625 L 357.644531 553.898438 L 358.039063 550.21875 L 358.640625 546.625 L 359.441406 543.132813 L 360.433594 539.746094 L 361.617188 536.480469 L 362.980469 533.34375 L 364.523438 530.339844 L 366.230469 527.484375 L 368.09375 524.785156 L 370.113281 522.246094 L 372.269531 519.875 L 374.5625 517.683594 L 376.980469 515.671875 L 379.507813 513.851563 L 382.140625 512.226563 L 384.871094 510.800781 L 387.679688 509.578125 L 390.558594 508.566406 L 393.503906 507.765625 L 396.496094 507.179688 L 399.527344 506.808594 L 402.585938 506.660156 L 405.660156 506.730469 L 408.738281 507.019531 L 411.808594 507.53125 L 414.859375 508.261719 L 417.882813 509.214844 L 420.863281 510.378906 L 423.789063 511.761719 L 426.652344 513.355469 L 429.441406 515.160156 L 432.144531 517.167969 L 434.75 519.375 L 437.25 521.777344 L 439.632813 524.367188 L 441.886719 527.144531 L 444.007813 530.09375 L 445.980469 533.214844 L 447.800781 536.5 L 449.457031 539.9375 L 450.945313 543.523438 L 452.253906 547.242188 L 453.378906 551.09375 L 454.308594 555.0625 L 455.042969 559.136719 L 455.574219 563.3125 L 455.894531 567.578125 L 456.003906 571.921875 L 455.894531 576.328125 L 455.566406 580.796875 L 455.011719 585.304688 L 454.234375 589.847656 L 453.226563 594.414063 L 451.988281 598.992188 L 450.519531 603.566406 L 448.824219 608.128906 L 446.898438 612.667969 L 444.742188 617.171875 L 442.359375 621.628906 L 439.753906 626.027344 L 436.921875 630.355469 L 433.875 634.605469 L 430.613281 638.761719 L 427.144531 642.8125 L 423.46875 646.753906 L 419.589844 650.574219 L 415.519531 654.257813 L 411.265625 657.800781 L 406.828125 661.191406 L 402.21875 664.417969 L 397.445313 667.480469 L 392.511719 670.363281 L 387.433594 673.0625 L 382.21875 675.566406 L 376.871094 677.871094 L 371.40625 679.972656 L 365.832031 681.863281 L 360.15625 683.535156 L 354.394531 684.988281 L 348.554688 686.214844 L 342.648438 687.210938 L 336.6875 687.976563 L 330.683594 688.503906 L 324.644531 688.796875 L 318.585938 688.851563 L 312.515625 688.664063 L 306.449219 688.242188 L 300.398438 687.578125 L 294.371094 686.675781 L 288.378906 685.535156 L 282.4375 684.164063 L 276.554688 682.554688 L 270.746094 680.722656 L 265.015625 678.660156 L 259.378906 676.382813 L 253.847656 673.882813 L 248.429688 671.175781 L 243.132813 668.265625 L 237.972656 665.152344 L 232.953125 661.851563 L 228.085938 658.363281 L 223.378906 654.703125 L 218.84375 650.871094 L 214.484375 646.878906 L 210.308594 642.734375 L 206.320313 638.453125 L 202.535156 634.035156 L 198.949219 629.5 L 195.574219 624.851563 L 192.414063 620.097656 L 189.472656 615.257813 L 186.753906 610.335938 L 184.261719 605.347656 L 181.996094 600.304688 L 179.960938 595.210938 L 178.15625 590.085938 L 176.585938 584.9375 L 175.25 579.777344 L 174.148438 574.621094 L 173.28125 569.472656 L 172.644531 564.351563 L 172.234375 559.261719 L 172.054688 554.21875 L 172.097656 549.238281 L 172.363281 544.320313 L 172.84375 539.484375 L 173.539063 534.738281 L 174.4375 530.09375 L 175.539063 525.558594 L 176.835938 521.144531 L 178.320313 516.859375 L 179.988281 512.714844 L 181.828125 508.71875 L 183.832031 504.875 L 185.992188 501.195313 L 188.304688 497.6875 L 190.753906 494.359375 L 193.332031 491.214844 L 196.03125 488.261719 L 198.839844 485.507813 L 201.75 482.953125 L 204.746094 480.601563 L 207.820313 478.464844 L 210.964844 476.539063 L 214.160156 474.832031 L 217.402344 473.339844 L 220.675781 472.070313 L 223.972656 471.023438 L 227.28125 470.195313 L 230.585938 469.589844 L 233.875 469.207031 L 237.144531 469.046875 L 240.375 469.101563 L 243.558594 469.375 L 246.6875 469.859375 L 249.742188 470.554688 L 252.71875 471.457031 L 255.605469 472.558594 L 258.390625 473.855469 L 261.0625 475.347656 L 263.617188 477.019531 L 266.039063 478.871094 L 268.324219 480.894531 L 270.457031 483.078125 L 272.4375 485.417969 L 274.25 487.90625 L 275.894531 490.535156 L 277.355469 493.289063 L 278.632813 496.164063 L 279.71875 499.152344 L 280.609375 502.238281 L 281.296875 505.410156 L 281.773438 508.664063 L 282.042969 511.988281 L 282.097656 515.367188 L 281.933594 518.792969 L 281.550781 522.253906 L 280.945313 525.738281 L 280.121094 529.234375 L 279.070313 532.730469 L 277.796875 536.214844 L 276.300781 539.679688 L 274.582031 543.105469 L 272.644531 546.488281 L 270.488281 549.816406 L 268.117188 553.074219 L 265.539063 556.253906 L 262.75 559.339844 L 259.757813 562.332031 L 256.566406 565.207031 L 253.1875 567.964844 L 249.617188 570.589844 L 245.871094 573.074219 L 241.953125 575.410156 L 237.867188 577.589844 L 233.625 579.597656 L 229.234375 581.433594 L 224.703125 583.085938 L 220.039063 584.550781 L 215.253906 585.816406 L 210.359375 586.882813 L 205.363281 587.738281 L 200.273438 588.378906 L 195.101563 588.804688 L 189.863281 589.007813 L 184.566406 588.984375 L 179.21875 588.730469 L 173.835938 588.246094 L 168.429688 587.53125 L 163.007813 586.578125 L 157.585938 585.390625 L 152.171875 583.96875 L 146.78125 582.3125 L 141.421875 580.421875 L 136.105469 578.296875 L 130.847656 575.945313 L 125.65625 573.363281 L 120.542969 570.558594 L 115.519531 567.53125 L 110.597656 564.289063 L 105.785156 560.835938 L 101.09375 557.179688 L 96.53125 553.320313 L 92.109375 549.269531 L 87.839844 545.035156 L 83.726563 540.617188 L 79.78125 536.03125 L 76.011719 531.28125 L 72.425781 526.378906 L 69.03125 521.332031 L 65.835938 516.148438 L 62.839844 510.835938 L 60.058594 505.410156 L 57.488281 499.882813 L 55.140625 494.253906 L 53.015625 488.546875 L 51.121094 482.761719 L 49.457031 476.917969 L 48.027344 471.019531 L 46.832031 465.085938 L 45.875 459.125 L 45.15625 453.144531 L 44.679688 447.164063 L 44.4375 441.1875 L 44.4375 435.230469 L 44.667969 429.304688 L 45.136719 423.417969 L 45.839844 417.589844 L 46.769531 411.820313 L 47.925781 406.128906 L 49.300781 400.523438 L 50.890625 395.015625 L 52.695313 389.613281 L 54.703125 384.332031 L 56.910156 379.175781 L 59.3125 374.152344 L 61.894531 369.277344 L 64.65625 364.558594 L 67.589844 360 L 70.679688 355.613281 L 73.921875 351.402344 L 77.308594 347.378906 L 80.828125 343.546875 L 84.46875 339.910156 L 88.226563 336.476563 L 92.082031 333.253906 L 96.03125 330.242188 L 100.0625 327.445313 L 104.160156 324.871094 L 108.320313 322.519531 L 112.523438 320.390625 L 116.765625 318.488281 L 121.03125 316.816406 L 125.308594 315.371094 L 129.589844 314.152344 L 133.855469 313.164063 L 138.105469 312.398438 L 142.316406 311.859375 L 146.484375 311.542969 L 150.597656 311.445313 L 154.644531 311.5625 L 158.613281 311.890625 L 162.492188 312.425781 L 166.273438 313.164063 L 169.949219 314.097656 L 173.503906 315.222656 L 176.929688 316.53125 L 180.21875 318.015625 L 183.363281 319.667969 L 186.351563 321.480469 L 189.179688 323.449219 L 191.839844 325.558594 L 194.320313 327.804688 L 196.617188 330.171875 L 198.726563 332.65625 L 200.644531 335.25 L 202.359375 337.933594 L 203.867188 340.703125 L 205.171875 343.546875 L 206.261719 346.453125 L 207.136719 349.410156 L 207.796875 352.40625 L 208.238281 355.433594 L 208.457031 358.476563 L 208.457031 361.523438 L 208.238281 364.566406 L 207.796875 367.59375 L 207.136719 370.589844 L 206.261719 373.546875 L 205.171875 376.453125 L 203.867188 379.296875 L 202.359375 382.066406 L 200.644531 384.75 L 198.726563 387.34375 L 196.617188 389.828125 L 194.320313 392.195313 L 191.839844 394.441406 L 189.179688 396.550781 L 186.351563 398.519531 L 183.363281 400.332031 L 180.21875 401.984375 L 176.929688 403.46875 L 173.503906 404.777344 L 169.949219 405.902344 L 166.273438 406.835938 L 162.492188 407.574219 L 158.613281 408.109375 L 154.644531 408.4375 L 150.597656 408.554688 L 146.484375 408.457031 L 142.316406 408.140625 L 138.105469 407.601563 L 133.855469 406.835938 L 129.589844 405.847656 L 125.308594 404.628906 L 121.03125 403.183594 L 116.765625 401.511719 L 112.523438 399.609375 L 108.320313 397.480469 L 104.160156 395.128906 L 100.0625 392.554688 L 96.03125 389.757813 L 92.082031 386.746094 L 88.226563 383.523438 L 84.46875 380.089844 L 80.828125 376.453125 L 77.308594 372.621094 L 73.921875 368.597656 L 70.679688 364.386719 L 67.589844 360 L 64.65625 355.441406 L 61.894531 350.722656 L 59.3125 345.847656 L 56.910156 340.824219 L 54.703125 335.667969 L 52.695313 330.386719 L 50.890625 324.984375 L 49.300781 319.476563 L 47.925781 313.871094 L 46.769531 308.179688 L 45.839844 302.410156 L 45.136719 296.582031 L 44.667969 290.695313 L 44.4375 284.769531 L 44.4375 278.8125 L 44.679688 272.835938 L 45.15625 266.855469 L 45.875 260.875 L 46.832031 254.914063 L 48.027344 248.980469 L 49.457031 243.082031 L 51.121094 237.238281 L 53.015625 231.453125 L 55.140625 225.746094 L 57.488281 220.117188 L 60.058594 214.589844 L 62.839844 209.164063 L 65.835938 203.851563 L 69.03125 198.667969 L 72.425781 193.621094 L 76.011719 188.71875 L 79.78125 183.96875 L 83.726563 179.382813 L 87.839844 174.964844 L 92.109375 170.730469 L 96.53125 166.679688 L 101.09375 162.820313 L 105.785156 159.164063 L 110.597656 155.710938 L 115.519531 152.46875 L 120.542969 149.441406 L 125.65625 146.636719 L 130.847656 144.054688 L 136.105469 141.703125 L 141.421875 139.578125 L 146.78125 137.6875 L 152.171875 136.03125 L 157.585938 134.609375 L 163.007813 133.421875 L 168.429688 132.46875 L 173.835938 131.753906 L 179.21875 131.269531 L 184.566406 131.015625 L 189.863281 130.992188 L 195.101563 131.195313 L 200.273438 131.621094 L 205.363281 132.261719 L 210.359375 133.117188 L 215.253906 134.183594 L 220.039063 135.449219 L 224.703125 136.914063 L 229.234375 138.566406 L 233.625 140.402344 L 237.867188 142.410156 L 241.953125 144.589844 L 245.871094 146.925781 L 249.617188 149.410156 L 253.1875 152.035156 L 256.566406 154.792969 L 259.757813 157.667969 L 262.75 160.660156 L 265.539063 163.746094 L 268.117188 166.925781 L 270.488281 170.183594 L 272.644531 173.511719 L 274.582031 176.894531 L 276.300781 180.320313 L 277.796875 183.785156 L 279.070313 187.269531 L 280.121094 190.765625 L 280.945313 194.261719 L 281.550781 197.746094 L 281.933594 201.207031 L 282.097656 204.632813 L 282.042969 208.011719 L 281.773438 211.335938 L 281.296875 214.589844 L 280.609375 217.761719 L 279.71875 220.847656 L 278.632813 223.835938 L 277.355469 226.710938 L 275.894531 229.464844 L 274.25 232.09375 L 272.4375 234.582031 L 270.457031 236.921875 L 268.324219 239.105469 L 266.039063 241.128906 L 263.617188 242.980469 L 261.0625 244.652344 L 258.390625 246.144531 L 255.605469 247.441406 L 252.71875 248.542969 L 249.742188 249.445313 L 246.6875 250.140625 L 243.558594 250.625 L 240.375 250.898438 L 237.144531 250.953125 L 233.875 250.792969 L 230.585938 250.410156 L 227.28125 249.804688 L 223.972656 248.976563 L 220.675781 247.929688 L 217.402344 246.660156 L 214.160156 245.167969 L 210.964844 243.460938 L 207.820313 241.535156 L 204.746094 239.398438 L 201.75 237.046875 L 198.839844 234.492188 L 196.03125 231.738281 L 193.332031 228.785156 L 190.753906 225.640625 L 188.304688 222.3125 L 185.992188 218.804688 L 183.832031 215.125 L 181.828125 211.28125 L 179.988281 207.285156 L 178.320313 203.140625 L 176.835938 198.855469 L 175.539063 194.441406 L 174.4375 189.90625 L 173.539063 185.261719 L 172.84375 180.515625 L 172.363281 175.679688 L 172.097656 170.761719 L 172.054688 165.78125 L 172.234375 160.738281 L 172.644531 155.648438 L 173.28125 150.527344 L 174.148438 145.378906 L 175.25 140.222656 L 176.585938 135.0625 L 178.15625 129.914063 L 179.960938 124.789063 L 181.996094 119.695313 L 184.261719 114.652344 L 186.753906 109.664063 L 189.472656 104.742188 L 192.414063 99.902344 L 195.574219 95.148438 L 198.949219 90.5 L 202.535156 85.964844 L 206.320313 81.546875 L 210.308594 77.265625 L 214.484375 73.121094 L 218.84375 69.128906 L 223.378906 65.296875 L 228.085938 61.636719 L 232.953125 58.148438 L 237.972656 54.847656 L 243.132813 51.734375 L 248.429688 48.824219 L 253.847656 46.117188 L 259.378906 43.617188 L 265.015625 41.339844 L 270.746094 39.277344 L 276.554688 37.445313 L 282.4375 35.835938 L 288.378906 34.464844 L 294.371094 33.324219 L 300.398438 32.421875 L 306.449219 31.757813 L 312.515625 31.335938 L 318.585938 31.148438 L 324.644531 31.203125 L 330.683594 31.496094 L 336.6875 32.023438 L 342.648438 32.789063 L 348.554688 33.785156 L 354.394531 35.011719 L 360.15625 36.464844 L 365.832031 38.136719 L 371.40625 40.027344 L 376.871094 42.128906 L 382.21875 44.433594 L 387.433594 46.9375 L 392.511719 49.636719 L 397.445313 52.519531 L 402.21875 55.582031 L 406.828125 58.808594 L 411.265625 62.199219 L 415.519531 65.742188 L 419.589844 69.425781 L 423.46875 73.246094 L 427.144531 77.1875 L 430.613281 81.238281 L 433.875 85.394531 L 436.921875 89.644531 L 439.753906 93.972656 L 442.359375 98.371094 L 444.742188 102.828125 L 446.898438 107.332031 L 448.824219 111.871094 L 450.519531 116.433594 L 451.988281 121.007813 L 453.226563 125.585938 L 454.234375 130.152344 L 455.011719 134.695313 L 455.566406 139.203125 L 455.894531 143.671875 L 456.003906 148.078125 L 455.894531 152.421875 L 455.574219 156.6875 L 455.042969 160.863281 L 454.308594 164.9375 L 453.378906 168.90625 L 452.253906 172.757813 L 450.945313 176.476563 L 449.457031 180.0625 L 447.800781 183.5 L 445.980469 186.785156 L 444.007813 189.90625 L 441.886719 192.855469 L 439.632813 195.632813 L 437.25 198.222656 L 434.75 200.625 L 432.144531 202.832031 L 429.441406 204.839844 L 426.652344 206.644531 L 423.789063 208.238281 L 420.863281 209.621094 L 417.882813 210.785156 L 414.859375 211.738281 L 411.808594 212.46875 L 408.738281 212.980469 L 405.660156 213.269531 L 402.585938 213.339844 L 399.527344 213.191406 L 396.496094 212.820313 L 393.503906 212.234375 L 390.558594 211.433594 L 387.679688 210.421875 L 384.871094 209.199219 L 382.140625 207.773438 L 379.507813 206.148438 L 376.980469 204.328125 L 374.5625 202.316406 L 372.269531 200.125 L 370.113281 197.753906 L 368.09375 195.214844 L 366.230469 192.515625 L 364.523438 189.660156 L 362.980469 186.65625 L 361.617188 183.519531 L 360.433594 180.253906 L 359.441406 176.867188 L 358.640625 173.375 L 358.039063 169.78125 L 357.644531 166.101563 L 357.460938 162.34375 L 357.492188 158.515625 L 357.738281 154.636719 L 358.203125 150.707031 L 358.894531 146.75 L 359.808594 142.765625 L 360.949219 138.773438 L 362.3125 134.78125 L 363.90625 130.804688 L 365.726563 126.847656 L 367.769531 122.929688 L 370.035156 119.054688 L 372.519531 115.242188 L 375.226563 111.496094 L 378.144531 107.832031 L 381.277344 104.257813 L 384.613281 100.789063 L 388.148438 97.429688 L 391.882813 94.195313 L 395.804688 91.09375 L 399.910156 88.132813 L 404.191406 85.320313 L 408.644531 82.671875 L 413.253906 80.191406 L 418.015625 77.890625 L 422.921875 75.769531 L 427.964844 73.84375 L 433.128906 72.113281 L 438.410156 70.589844 L 443.796875 69.273438 L 449.28125 68.175781 L 454.84375 67.296875 L 460.484375 66.644531 L 466.1875 66.21875 L 471.9375 66.023438 L 477.730469 66.066406 L 483.550781 66.339844 L 489.390625 66.851563 L 495.230469 67.601563 L 501.066406 68.589844 L 506.886719 69.816406 L 512.675781 71.28125 L 518.421875 72.976563 L 524.117188 74.910156 L 529.746094 77.070313 L 535.304688 79.460938 L 540.773438 82.070313 L 546.144531 84.902344 L 551.410156 87.949219 L 556.558594 91.203125 L 561.578125 94.65625 L 566.460938 98.3125 L 571.195313 102.152344 L 575.777344 106.175781 L 580.191406 110.375 L 584.433594 114.742188 L 588.496094 119.261719 L 592.371094 123.933594 L 596.050781 128.742188 L 599.527344 133.683594 L 602.800781 138.742188 L 605.859375 143.910156 L 608.699219 149.175781 L 611.316406 154.53125 L 613.710938 159.960938 L 615.875 165.457031 L 617.804688 171.007813 L 619.503906 176.601563 L 620.964844 182.226563 L 622.191406 187.875 L 623.179688 193.527344 L 623.933594 199.175781 L 624.449219 204.8125 L 624.734375 210.421875 L 624.78125 215.992188 L 624.601563 221.511719 L 624.195313 226.972656 L 623.5625 232.363281 L 622.710938 237.671875 L 621.644531 242.882813 L 620.371094 247.996094 L 618.890625 252.992188 L 617.214844 257.867188 L 615.347656 262.609375 L 613.296875 267.207031 L 611.070313 271.65625 L 608.675781 275.945313 L 606.121094 280.070313 L 603.417969 284.019531 L 600.570313 287.789063 L 597.59375 291.371094 L 594.492188 294.757813 L 591.28125 297.945313 L 587.96875 300.925781 L 584.5625 303.699219 L 581.078125 306.261719 L 577.523438 308.605469 L 573.914063 310.734375 L 570.257813 312.636719 L 566.566406 314.320313 L 562.847656 315.777344 L 559.121094 317.007813 L 555.394531 318.015625 L 551.675781 318.800781 L 547.980469 319.363281 L 544.320313 319.703125 L 540.707031 319.824219 L 537.148438 319.726563 L 533.65625 319.421875 L 530.242188 318.90625 L 526.917969 318.1875 L 523.695313 317.269531 L 520.578125 316.160156 L 517.582031 314.863281 L 514.714844 313.382813 L 511.984375 311.734375 L 509.398438 309.914063 L 506.96875 307.941406 L 504.703125 305.816406 L 502.605469 303.550781 L 500.683594 301.15625 L 498.949219 298.636719 L 497.402344 296.007813 L 496.050781 293.273438 L 494.898438 290.449219 L 493.953125 287.539063 L 493.21875 284.5625 L 492.691406 281.527344 L 492.382813 278.441406 L 492.292969 275.320313 L 492.421875 272.171875 L 492.769531 269.007813 L 493.339844 265.84375 L 494.128906 262.6875 L 495.140625 259.550781 L 496.371094 256.445313 L 497.820313 253.386719 L 499.484375 250.378906 L 501.359375 247.4375 L 503.445313 244.570313 L 505.738281 241.792969 L 508.230469 239.113281 L 510.917969 236.542969 L 513.792969 234.089844 L 516.855469 231.765625 L 520.09375 229.578125 L 523.5 227.539063 L 527.074219 225.652344 L 530.800781 223.933594 L 534.671875 222.382813 L 538.683594 221.015625 L 542.824219 219.835938 L 547.082031 218.847656 L 551.453125 218.058594 L 555.921875 217.472656 L 560.476563 217.101563 L 565.113281 216.941406 L 569.816406 217.003906 L 574.578125 217.285156 L 579.382813 217.796875 L 584.222656 218.535156 L 589.085938 219.5 L 593.957031 220.699219 L 598.832031 222.128906 L 603.691406 223.792969 L 608.53125 225.683594 L 613.332031 227.808594 L 618.089844 230.160156 L 622.789063 232.742188 L 627.417969 235.542969 L 631.964844 238.566406 L 636.421875 241.808594 L 640.78125 245.257813 L 645.023438 248.917969 L 649.144531 252.78125 L 653.132813 256.835938 L 656.976563 261.082031 L 660.671875 265.507813 L 664.203125 270.113281 L 667.570313 274.882813 L 670.757813 279.808594 L 673.757813 284.886719 L 676.570313 290.105469 L 679.179688 295.457031 L 681.585938 300.925781 L 683.78125 306.511719 L 685.761719 312.195313 L 687.519531 317.96875 L 689.050781 323.824219 L 690.351563 329.746094 L 691.421875 335.726563 L 692.257813 341.753906 L 692.855469 347.816406 L 693.214844 353.902344 Z M 693.332031 360 "/>
  </g>
</svg>
