<?xml version="1.0" encoding="UTF-8"?>
<svg xmlns="http://www.w3.org/2000/svg" xmlns:xlink="http://www.w3.org/1999/xlink" width="100%" height="100%" viewBox="0 0 720 720" version="1.1">
  <g id="spiro_3_1_1_75779">
    <path style=" stroke:none;fill-rule:evenodd;fill:rgb(69.803922%,13.333333%,13.333333%);fill-opacity:1;" d="M 526.667969 648.675781 L 526.660156 648.664063 L 526.640625 648.628906 L 526.609375 648.570313 L 526.5625 648.492188 L 526.503906 648.386719 L 526.433594 648.261719 L 526.351563 648.109375 L 526.257813 647.9375 L 526.152344 647.742188 L 526.03125 647.519531 L 525.902344 647.277344 L 525.761719 647.007813 L 525.605469 646.71875 L 525.441406 646.402344 L 525.265625 646.066406 L 525.082031 645.703125 L 524.882813 645.316406 L 524.675781 644.90625 L 524.457031 644.472656 L 524.230469 644.015625 L 523.992188 643.535156 L 523.746094 643.027344 L 523.488281 642.5 L 523.21875 641.945313 L 522.941406 641.367188 L 522.65625 640.765625 L 522.363281 640.140625 L 522.058594 639.492188 L 521.746094 638.816406 L 521.425781 638.117188 L 521.097656 637.398438 L 520.761719 636.652344 L 520.414063 635.882813 L 520.0625 635.085938 L 519.703125 634.269531 L 519.332031 633.425781 L 518.957031 632.5625 L 518.578125 631.671875 L 518.1875 630.757813 L 517.792969 629.820313 L 517.390625 628.859375 L 516.980469 627.875 L 516.566406 626.863281 L 516.144531 625.832031 L 515.71875 624.773438 L 515.285156 623.695313 L 514.847656 622.589844 L 514.40625 621.464844 L 513.957031 620.3125 L 513.507813 619.140625 L 513.050781 617.941406 L 512.585938 616.71875 L 512.121094 615.476563 L 511.652344 614.207031 L 511.175781 612.917969 L 510.699219 611.605469 L 510.214844 610.269531 L 509.730469 608.910156 L 509.242188 607.527344 L 508.753906 606.125 L 508.257813 604.695313 L 507.761719 603.246094 L 507.261719 601.773438 L 506.761719 600.28125 L 506.257813 598.765625 L 505.75 597.226563 L 505.242188 595.664063 L 504.734375 594.082031 L 504.222656 592.480469 L 503.710938 590.851563 L 503.199219 589.207031 L 502.683594 587.539063 L 502.171875 585.847656 L 501.65625 584.136719 L 501.140625 582.40625 L 500.625 580.652344 L 500.109375 578.878906 L 499.59375 577.085938 L 499.078125 575.269531 L 498.5625 573.4375 L 498.046875 571.582031 L 497.535156 569.707031 L 497.023438 567.8125 L 496.511719 565.898438 L 496 563.964844 L 495.492188 562.011719 L 494.984375 560.039063 L 494.480469 558.046875 L 493.976563 556.039063 L 493.476563 554.011719 L 492.976563 551.964844 L 492.480469 549.898438 L 491.988281 547.8125 L 491.496094 545.710938 L 491.007813 543.59375 L 490.523438 541.457031 L 490.039063 539.300781 L 489.5625 537.128906 L 489.085938 534.941406 L 488.617188 532.734375 L 488.148438 530.515625 L 487.683594 528.277344 L 487.222656 526.019531 L 486.765625 523.75 L 486.316406 521.464844 L 485.867188 519.164063 L 485.425781 516.84375 L 484.988281 514.511719 L 484.554688 512.164063 L 484.128906 509.800781 L 483.703125 507.425781 L 483.285156 505.035156 L 482.875 502.628906 L 482.46875 500.210938 L 482.066406 497.777344 L 481.671875 495.332031 L 481.28125 492.871094 L 480.894531 490.398438 L 480.519531 487.914063 L 480.148438 485.417969 L 479.78125 482.90625 L 479.421875 480.386719 L 479.070313 477.851563 L 478.722656 475.308594 L 478.382813 472.75 L 478.050781 470.183594 L 477.722656 467.605469 L 477.40625 465.015625 L 477.09375 462.417969 L 476.789063 459.808594 L 476.492188 457.191406 L 476.199219 454.5625 L 475.917969 451.925781 L 475.640625 449.277344 L 475.371094 446.621094 L 475.113281 443.957031 L 474.859375 441.285156 L 474.613281 438.605469 L 474.378906 435.917969 L 474.148438 433.222656 L 473.925781 430.519531 L 473.714844 427.8125 L 473.507813 425.09375 L 473.308594 422.371094 L 473.121094 419.644531 L 472.941406 416.910156 L 472.769531 414.167969 L 472.605469 411.421875 L 472.449219 408.671875 L 472.300781 405.917969 L 472.160156 403.15625 L 472.03125 400.390625 L 471.910156 397.625 L 471.796875 394.851563 L 471.691406 392.078125 L 471.59375 389.296875 L 471.507813 386.515625 L 471.429688 383.730469 L 471.359375 380.945313 L 471.296875 378.15625 L 471.242188 375.367188 L 471.199219 372.574219 L 471.164063 369.78125 L 471.136719 366.988281 L 471.121094 364.191406 L 471.113281 361.398438 L 471.113281 358.601563 L 471.121094 355.808594 L 471.136719 353.011719 L 471.164063 350.21875 L 471.199219 347.425781 L 471.242188 344.632813 L 471.296875 341.84375 L 471.359375 339.054688 L 471.429688 336.269531 L 471.507813 333.484375 L 471.59375 330.703125 L 471.691406 327.921875 L 471.796875 325.148438 L 471.910156 322.375 L 472.03125 319.609375 L 472.160156 316.84375 L 472.300781 314.082031 L 472.449219 311.328125 L 472.605469 308.578125 L 472.769531 305.832031 L 472.941406 303.089844 L 473.121094 300.355469 L 473.308594 297.628906 L 473.507813 294.90625 L 473.714844 292.1875 L 473.925781 289.480469 L 474.148438 286.777344 L 474.378906 284.082031 L 474.613281 281.394531 L 474.859375 278.714844 L 475.113281 276.042969 L 475.371094 273.378906 L 475.640625 270.722656 L 475.917969 268.074219 L 476.199219 265.4375 L 476.492188 262.808594 L 476.789063 260.191406 L 477.09375 257.582031 L 477.40625 254.984375 L 477.722656 252.394531 L 478.050781 249.816406 L 478.382813 247.25 L 478.722656 244.691406 L 479.070313 242.148438 L 479.421875 239.613281 L 479.78125 237.09375 L 480.148438 234.582031 L 480.519531 232.085938 L 480.894531 229.601563 L 481.28125 227.128906 L 481.671875 224.667969 L 482.066406 222.222656 L 482.46875 219.789063 L 482.875 217.371094 L 483.285156 214.964844 L 483.703125 212.574219 L 484.128906 210.199219 L 484.554688 207.835938 L 484.988281 205.488281 L 485.425781 203.15625 L 485.867188 200.835938 L 486.316406 198.535156 L 486.765625 196.25 L 487.222656 193.980469 L 487.683594 191.722656 L 488.148438 189.484375 L 488.617188 187.265625 L 489.085938 185.058594 L 489.5625 182.871094 L 490.039063 180.699219 L 490.523438 178.542969 L 491.007813 176.40625 L 491.496094 174.289063 L 491.988281 172.1875 L 492.480469 170.101563 L 492.976563 168.035156 L 493.476563 165.988281 L 493.976563 163.960938 L 494.480469 161.953125 L 494.984375 159.960938 L 495.492188 157.988281 L 496 156.035156 L 496.511719 154.101563 L 497.023438 152.1875 L 497.535156 150.292969 L 498.046875 148.417969 L 498.5625 146.5625 L 499.078125 144.730469 L 499.59375 142.914063 L 500.109375 141.121094 L 500.625 139.347656 L 501.140625 137.59375 L 501.65625 135.863281 L 502.171875 134.152344 L 502.683594 132.460938 L 503.199219 130.792969 L 503.710938 129.148438 L 504.222656 127.519531 L 504.734375 125.917969 L 505.242188 124.335938 L 505.75 122.773438 L 506.257813 121.234375 L 506.761719 119.71875 L 507.261719 118.226563 L 507.761719 116.753906 L 508.257813 115.304688 L 508.753906 113.875 L 509.242188 112.472656 L 509.730469 111.089844 L 510.214844 109.730469 L 510.699219 108.394531 L 511.175781 107.082031 L 511.652344 105.792969 L 512.121094 104.523438 L 512.585938 103.28125 L 513.050781 102.058594 L 513.507813 100.859375 L 513.957031 99.6875 L 514.40625 98.535156 L 514.847656 97.410156 L 515.285156 96.304688 L 515.71875 95.226563 L 516.144531 94.167969 L 516.566406 93.136719 L 516.980469 92.125 L 517.390625 91.140625 L 517.792969 90.179688 L 518.1875 89.242188 L 518.578125 88.328125 L 518.957031 87.4375 L 519.332031 86.574219 L 519.703125 85.730469 L 520.0625 84.914063 L 520.414063 84.117188 L 520.761719 83.347656 L 521.097656 82.601563 L 521.425781 81.882813 L 521.746094 81.183594 L 522.058594 80.507813 L 522.363281 79.859375 L 522.65625 79.234375 L 522.941406 78.632813 L 523.21875 78.054688 L 523.488281 77.5 L 523.746094 76.972656 L 523.992188 76.464844 L 524.230469 75.984375 L 524.457031 75.527344 L 524.675781 75.09375 L 524.882813 74.683594 L 525.082031 74.296875 L 525.265625 73.933594 L 525.441406 73.597656 L 525.605469 73.28125 L 525.761719 72.992188 L 525.902344 72.722656 L 526.03125 72.480469 L 526.152344 72.257813 L 526.257813 72.0625 L 526.351563 71.890625 L 526.433594 71.738281 L 526.503906 71.613281 L 526.5625 71.507813 L 526.609375 71.429688 L 526.640625 71.371094 L 526.660156 71.335938 L 526.667969 71.324219 L 526.660156 71.335938 L 526.640625 71.371094 L 526.605469 71.425781 L 526.558594 71.507813 L 526.5 71.609375 L 526.425781 71.734375 L 526.335938 71.878906 L 526.234375 72.046875 L 526.117188 72.238281 L 525.984375 72.453125 L 525.839844 72.6875 L 525.675781 72.941406 L 525.5 73.222656 L 525.3125 73.519531 L 525.105469 73.84375 L 524.886719 74.183594 L 524.648438 74.546875 L 524.398438 74.933594 L 524.132813 75.339844 L 523.847656 75.765625 L 523.238281 76.679688 L 522.90625 77.167969 L 522.5625 77.675781 L 522.199219 78.203125 L 521.820313 78.75 L 521.425781 79.320313 L 521.015625 79.90625 L 520.589844 80.515625 L 520.144531 81.140625 L 519.683594 81.785156 L 519.207031 82.453125 L 518.710938 83.136719 L 518.203125 83.839844 L 517.671875 84.558594 L 517.128906 85.300781 L 516.566406 86.058594 L 515.988281 86.832031 L 515.390625 87.625 L 514.777344 88.4375 L 514.144531 89.265625 L 513.496094 90.113281 L 512.828125 90.976563 L 512.144531 91.859375 L 511.441406 92.753906 L 510.722656 93.671875 L 509.984375 94.601563 L 509.230469 95.546875 L 508.457031 96.511719 L 507.667969 97.492188 L 506.859375 98.484375 L 506.03125 99.496094 L 505.1875 100.519531 L 504.324219 101.5625 L 503.445313 102.617188 L 502.546875 103.6875 L 501.632813 104.773438 L 500.695313 105.875 L 499.742188 106.988281 L 498.773438 108.113281 L 497.785156 109.257813 L 496.777344 110.410156 L 495.753906 111.582031 L 494.707031 112.761719 L 493.648438 113.957031 L 492.566406 115.164063 L 491.46875 116.382813 L 490.355469 117.617188 L 489.222656 118.859375 L 488.070313 120.117188 L 486.898438 121.382813 L 485.710938 122.664063 L 484.503906 123.953125 L 483.28125 125.253906 L 482.039063 126.566406 L 480.777344 127.890625 L 479.5 129.222656 L 478.207031 130.566406 L 476.890625 131.921875 L 475.558594 133.28125 L 474.210938 134.65625 L 472.84375 136.039063 L 471.460938 137.429688 L 470.058594 138.828125 L 468.636719 140.238281 L 467.203125 141.652344 L 465.746094 143.078125 L 464.273438 144.511719 L 462.785156 145.953125 L 461.28125 147.402344 L 459.757813 148.855469 L 458.214844 150.320313 L 456.65625 151.789063 L 455.082031 153.265625 L 453.492188 154.746094 L 451.882813 156.234375 L 450.257813 157.730469 L 448.617188 159.230469 L 446.960938 160.738281 L 445.285156 162.246094 L 443.597656 163.765625 L 441.890625 165.285156 L 440.167969 166.8125 L 438.429688 168.339844 L 436.675781 169.875 L 434.902344 171.414063 L 433.117188 172.957031 L 431.316406 174.5 L 429.5 176.050781 L 427.667969 177.601563 L 425.820313 179.15625 L 423.960938 180.714844 L 422.082031 182.273438 L 420.191406 183.835938 L 418.285156 185.398438 L 416.363281 186.964844 L 414.429688 188.53125 L 412.480469 190.101563 L 410.519531 191.671875 L 408.539063 193.242188 L 406.550781 194.8125 L 404.546875 196.386719 L 402.527344 197.957031 L 400.496094 199.53125 L 398.453125 201.101563 L 396.398438 202.671875 L 394.328125 204.246094 L 392.246094 205.816406 L 390.148438 207.386719 L 388.042969 208.953125 L 385.925781 210.519531 L 383.792969 212.085938 L 381.648438 213.652344 L 379.496094 215.214844 L 377.332031 216.773438 L 375.152344 218.332031 L 372.964844 219.886719 L 370.765625 221.4375 L 368.558594 222.988281 L 366.339844 224.535156 L 364.109375 226.078125 L 361.871094 227.617188 L 359.621094 229.152344 L 357.359375 230.683594 L 355.089844 232.210938 L 352.8125 233.738281 L 350.527344 235.257813 L 348.230469 236.769531 L 345.925781 238.28125 L 343.613281 239.785156 L 341.292969 241.289063 L 338.964844 242.78125 L 336.628906 244.273438 L 334.285156 245.757813 L 331.933594 247.234375 L 329.574219 248.707031 L 327.210938 250.175781 L 324.839844 251.632813 L 322.460938 253.089844 L 320.074219 254.535156 L 317.6875 255.976563 L 315.289063 257.410156 L 312.890625 258.835938 L 310.480469 260.257813 L 308.070313 261.671875 L 305.65625 263.074219 L 303.234375 264.472656 L 300.808594 265.863281 L 298.378906 267.246094 L 295.945313 268.621094 L 293.511719 269.984375 L 291.070313 271.34375 L 288.628906 272.691406 L 286.183594 274.035156 L 283.734375 275.367188 L 281.28125 276.691406 L 278.832031 278.003906 L 276.375 279.3125 L 273.917969 280.609375 L 271.460938 281.894531 L 269.003906 283.175781 L 266.546875 284.445313 L 264.085938 285.703125 L 261.625 286.953125 L 259.164063 288.195313 L 256.707031 289.425781 L 254.246094 290.644531 L 251.785156 291.855469 L 249.328125 293.054688 L 246.871094 294.246094 L 244.417969 295.425781 L 241.964844 296.597656 L 239.511719 297.757813 L 237.0625 298.90625 L 234.617188 300.042969 L 232.175781 301.171875 L 229.734375 302.289063 L 227.296875 303.394531 L 224.863281 304.492188 L 222.433594 305.574219 L 220.007813 306.648438 L 217.585938 307.710938 L 215.167969 308.761719 L 212.757813 309.804688 L 210.351563 310.832031 L 207.949219 311.851563 L 205.554688 312.855469 L 203.164063 313.851563 L 200.78125 314.835938 L 198.402344 315.808594 L 196.03125 316.769531 L 193.667969 317.71875 L 191.3125 318.660156 L 188.964844 319.585938 L 186.621094 320.5 L 184.289063 321.402344 L 181.964844 322.296875 L 179.648438 323.175781 L 177.339844 324.046875 L 175.042969 324.902344 L 172.753906 325.746094 L 170.472656 326.582031 L 168.203125 327.402344 L 165.945313 328.214844 L 163.695313 329.011719 L 161.457031 329.800781 L 159.226563 330.574219 L 157.011719 331.339844 L 154.804688 332.089844 L 152.609375 332.832031 L 150.425781 333.5625 L 148.257813 334.277344 L 146.097656 334.984375 L 143.953125 335.679688 L 141.820313 336.359375 L 139.699219 337.03125 L 137.59375 337.691406 L 135.5 338.339844 L 133.421875 338.976563 L 131.355469 339.601563 L 129.304688 340.214844 L 127.265625 340.820313 L 125.242188 341.410156 L 123.238281 341.992188 L 121.246094 342.5625 L 119.265625 343.117188 L 117.304688 343.664063 L 115.359375 344.203125 L 113.429688 344.726563 L 111.515625 345.242188 L 109.621094 345.746094 L 107.742188 346.238281 L 105.878906 346.71875 L 104.03125 347.191406 L 102.203125 347.652344 L 100.390625 348.101563 L 98.597656 348.542969 L 96.820313 348.972656 L 95.0625 349.390625 L 93.324219 349.800781 L 91.605469 350.199219 L 89.902344 350.589844 L 88.21875 350.96875 L 86.554688 351.339844 L 84.910156 351.699219 L 83.285156 352.046875 L 81.679688 352.390625 L 80.097656 352.71875 L 78.53125 353.042969 L 76.984375 353.355469 L 75.460938 353.660156 L 73.957031 353.953125 L 72.476563 354.238281 L 71.011719 354.515625 L 69.570313 354.785156 L 68.152344 355.042969 L 66.753906 355.292969 L 65.378906 355.535156 L 64.023438 355.769531 L 62.691406 355.996094 L 61.378906 356.214844 L 60.09375 356.425781 L 58.824219 356.628906 L 57.582031 356.824219 L 56.363281 357.011719 L 55.164063 357.191406 L 53.988281 357.363281 L 52.839844 357.53125 L 51.710938 357.691406 L 50.605469 357.84375 L 49.523438 357.988281 L 48.464844 358.125 L 47.433594 358.257813 L 46.421875 358.382813 L 45.4375 358.503906 L 44.476563 358.617188 L 43.539063 358.726563 L 42.625 358.828125 L 41.734375 358.925781 L 40.871094 359.015625 L 40.03125 359.101563 L 39.21875 359.183594 L 38.429688 359.261719 L 37.664063 359.332031 L 36.925781 359.398438 L 36.210938 359.460938 L 35.519531 359.515625 L 34.855469 359.570313 L 34.21875 359.621094 L 33.605469 359.664063 L 33.019531 359.707031 L 32.457031 359.746094 L 31.921875 359.78125 L 31.410156 359.8125 L 30.925781 359.839844 L 30.464844 359.863281 L 30.035156 359.886719 L 29.625 359.90625 L 29.246094 359.925781 L 28.890625 359.9375 L 28.5625 359.953125 L 28.261719 359.964844 L 27.984375 359.972656 L 27.734375 359.980469 L 27.511719 359.984375 L 27.3125 359.992188 L 27.140625 359.992188 L 26.996094 359.996094 L 26.878906 360 L 26.667969 360 L 26.878906 360 L 26.996094 360.003906 L 27.140625 360.007813 L 27.3125 360.007813 L 27.511719 360.015625 L 27.734375 360.019531 L 27.984375 360.027344 L 28.261719 360.035156 L 28.5625 360.046875 L 28.890625 360.0625 L 29.246094 360.074219 L 29.625 360.09375 L 30.035156 360.113281 L 30.464844 360.136719 L 30.925781 360.160156 L 31.410156 360.1875 L 31.921875 360.21875 L 32.457031 360.253906 L 33.019531 360.292969 L 33.605469 360.335938 L 34.21875 360.378906 L 34.855469 360.429688 L 35.519531 360.484375 L 36.210938 360.539063 L 36.925781 360.601563 L 37.664063 360.667969 L 38.429688 360.738281 L 39.21875 360.816406 L 40.03125 360.898438 L 40.871094 360.984375 L 41.734375 361.074219 L 42.625 361.171875 L 43.539063 361.273438 L 44.476563 361.382813 L 45.4375 361.496094 L 46.421875 361.617188 L 47.433594 361.742188 L 48.464844 361.875 L 49.523438 362.011719 L 50.605469 362.15625 L 51.710938 362.308594 L 52.839844 362.46875 L 53.988281 362.636719 L 55.164063 362.808594 L 56.363281 362.988281 L 57.582031 363.175781 L 58.824219 363.371094 L 60.09375 363.574219 L 61.378906 363.785156 L 62.691406 364.003906 L 64.023438 364.230469 L 65.378906 364.464844 L 66.753906 364.707031 L 68.152344 364.957031 L 69.570313 365.214844 L 71.011719 365.484375 L 72.476563 365.761719 L 73.957031 366.046875 L 75.460938 366.339844 L 76.984375 366.644531 L 78.53125 366.957031 L 80.097656 367.28125 L 81.679688 367.609375 L 83.285156 367.953125 L 84.910156 368.300781 L 86.554688 368.660156 L 88.21875 369.03125 L 89.902344 369.410156 L 91.605469 369.800781 L 93.324219 370.199219 L 95.0625 370.609375 L 96.820313 371.027344 L 98.597656 371.457031 L 100.390625 371.898438 L 102.203125 372.347656 L 104.03125 372.808594 L 105.878906 373.28125 L 107.742188 373.761719 L 109.621094 374.253906 L 111.515625 374.757813 L 113.429688 375.273438 L 115.359375 375.796875 L 117.304688 376.335938 L 119.265625 376.882813 L 121.246094 377.4375 L 123.238281 378.007813 L 125.242188 378.589844 L 127.265625 379.179688 L 129.304688 379.785156 L 131.355469 380.398438 L 133.421875 381.023438 L 135.5 381.660156 L 137.59375 382.308594 L 139.699219 382.96875 L 141.820313 383.640625 L 143.953125 384.320313 L 146.097656 385.015625 L 148.257813 385.722656 L 150.425781 386.4375 L 152.609375 387.167969 L 154.804688 387.910156 L 157.011719 388.660156 L 159.226563 389.425781 L 161.457031 390.199219 L 163.695313 390.988281 L 165.945313 391.785156 L 168.203125 392.597656 L 170.472656 393.417969 L 172.753906 394.253906 L 175.042969 395.097656 L 177.339844 395.953125 L 179.648438 396.824219 L 181.964844 397.703125 L 184.289063 398.597656 L 186.621094 399.5 L 188.964844 400.414063 L 191.3125 401.339844 L 193.667969 402.28125 L 196.03125 403.230469 L 198.402344 404.191406 L 200.78125 405.164063 L 203.164063 406.148438 L 205.554688 407.144531 L 207.949219 408.148438 L 210.351563 409.167969 L 212.757813 410.195313 L 215.167969 411.238281 L 217.585938 412.289063 L 220.007813 413.351563 L 222.433594 414.425781 L 224.863281 415.507813 L 227.296875 416.605469 L 229.734375 417.710938 L 232.175781 418.828125 L 234.617188 419.957031 L 237.0625 421.09375 L 239.511719 422.242188 L 241.964844 423.402344 L 244.417969 424.574219 L 246.871094 425.753906 L 249.328125 426.945313 L 251.785156 428.144531 L 254.246094 429.355469 L 256.707031 430.574219 L 259.164063 431.804688 L 261.625 433.046875 L 264.085938 434.296875 L 266.546875 435.554688 L 269.003906 436.824219 L 271.460938 438.105469 L 273.917969 439.390625 L 276.375 440.6875 L 278.832031 441.996094 L 281.28125 443.308594 L 283.734375 444.632813 L 286.183594 445.964844 L 288.628906 447.308594 L 291.070313 448.65625 L 293.511719 450.015625 L 295.945313 451.378906 L 298.378906 452.753906 L 300.808594 454.136719 L 303.234375 455.527344 L 305.65625 456.925781 L 308.070313 458.328125 L 310.480469 459.742188 L 312.890625 461.164063 L 315.289063 462.589844 L 317.6875 464.023438 L 320.074219 465.464844 L 322.460938 466.910156 L 324.839844 468.367188 L 327.210938 469.824219 L 329.574219 471.292969 L 331.933594 472.765625 L 334.285156 474.242188 L 336.628906 475.726563 L 338.964844 477.21875 L 341.292969 478.710938 L 343.613281 480.214844 L 345.925781 481.71875 L 348.230469 483.230469 L 350.527344 484.742188 L 352.8125 486.261719 L 355.089844 487.789063 L 357.359375 489.316406 L 359.621094 490.847656 L 361.871094 492.382813 L 364.109375 493.921875 L 366.339844 495.464844 L 368.558594 497.011719 L 370.765625 498.5625 L 372.964844 500.113281 L 375.152344 501.667969 L 377.332031 503.226563 L 379.496094 504.785156 L 381.648438 506.347656 L 383.792969 507.914063 L 385.925781 509.480469 L 388.042969 511.046875 L 390.148438 512.613281 L 392.246094 514.183594 L 394.328125 515.753906 L 396.398438 517.328125 L 398.453125 518.898438 L 400.496094 520.46875 L 402.527344 522.042969 L 404.546875 523.613281 L 406.550781 525.1875 L 408.539063 526.757813 L 410.519531 528.328125 L 412.480469 529.898438 L 414.429688 531.46875 L 416.363281 533.035156 L 418.285156 534.601563 L 420.191406 536.164063 L 422.082031 537.726563 L 423.960938 539.285156 L 425.820313 540.84375 L 427.667969 542.398438 L 429.5 543.949219 L 431.316406 545.5 L 433.117188 547.042969 L 434.902344 548.585938 L 436.675781 550.125 L 438.429688 551.660156 L 440.167969 553.1875 L 441.890625 554.714844 L 443.597656 556.234375 L 445.285156 557.753906 L 446.960938 559.261719 L 448.617188 560.769531 L 450.257813 562.269531 L 451.882813 563.765625 L 453.492188 565.253906 L 455.082031 566.734375 L 456.65625 568.210938 L 458.214844 569.679688 L 459.757813 571.144531 L 461.28125 572.597656 L 462.785156 574.046875 L 464.273438 575.488281 L 465.746094 576.921875 L 467.203125 578.347656 L 468.636719 579.761719 L 470.058594 581.171875 L 471.460938 582.570313 L 472.84375 583.960938 L 474.210938 585.34375 L 475.558594 586.71875 L 476.890625 588.078125 L 478.207031 589.433594 L 479.5 590.777344 L 480.777344 592.109375 L 482.039063 593.433594 L 483.28125 594.746094 L 484.503906 596.046875 L 485.710938 597.335938 L 486.898438 598.617188 L 488.070313 599.882813 L 489.222656 601.140625 L 490.355469 602.382813 L 491.46875 603.617188 L 492.566406 604.835938 L 493.648438 606.042969 L 494.707031 607.238281 L 495.753906 608.417969 L 496.777344 609.589844 L 497.785156 610.742188 L 498.773438 611.886719 L 499.742188 613.011719 L 500.695313 614.125 L 501.632813 615.226563 L 502.546875 616.3125 L 503.445313 617.382813 L 504.324219 618.4375 L 505.1875 619.480469 L 506.03125 620.503906 L 506.859375 621.515625 L 507.667969 622.507813 L 508.457031 623.488281 L 509.230469 624.453125 L 509.984375 625.398438 L 510.722656 626.328125 L 511.441406 627.246094 L 512.144531 628.140625 L 512.828125 629.023438 L 513.496094 629.886719 L 514.144531 630.734375 L 514.777344 631.5625 L 515.390625 632.375 L 515.988281 633.167969 L 516.566406 633.941406 L 517.128906 634.699219 L 517.671875 635.441406 L 518.203125 636.160156 L 518.710938 636.863281 L 519.207031 637.546875 L 519.683594 638.214844 L 520.144531 638.859375 L 520.589844 639.484375 L 521.015625 640.09375 L 521.425781 640.679688 L 521.820313 641.25 L 522.199219 641.796875 L 522.5625 642.324219 L 522.90625 642.832031 L 523.238281 643.320313 L 523.847656 644.234375 L 524.132813 644.660156 L 524.398438 645.066406 L 524.648438 645.453125 L 524.886719 645.816406 L 525.105469 646.15625 L 525.3125 646.480469 L 525.5 646.777344 L 525.675781 647.058594 L 525.839844 647.3125 L 525.984375 647.546875 L 526.117188 647.761719 L 526.234375 647.953125 L 526.335938 648.121094 L 526.425781 648.265625 L 526.5 648.390625 L 526.558594 648.492188 L 526.605469 648.574219 L 526.640625 648.628906 L 526.660156 648.664063 Z M 526.667969 648.675781 "/>
  </g>
</svg>
