<?xml version="1.0" encoding="UTF-8"?>
<svg xmlns="http://www.w3.org/2000/svg" xmlns:xlink="http://www.w3.org/1999/xlink" width="100%" height="100%" viewBox="0 0 720 720" version="1.1">
  <g id="spiro_3_1_2_53147">
    <path style=" stroke:none;fill-rule:evenodd;fill:rgb(25.490196%,41.176471%,88.235294%);fill-opacity:1;" d="M 693.332031 360 L 693.316406 361.046875 L 693.265625 362.097656 L 693.183594 363.144531 L 693.070313 364.191406 L 692.921875 365.234375 L 692.738281 366.277344 L 692.527344 367.320313 L 692.277344 368.359375 L 692 369.398438 L 691.6875 370.433594 L 691.339844 371.464844 L 690.964844 372.496094 L 690.554688 373.519531 L 690.109375 374.542969 L 689.632813 375.5625 L 689.125 376.574219 L 688.585938 377.582031 L 688.011719 378.585938 L 687.40625 379.585938 L 686.769531 380.578125 L 686.101563 381.566406 L 685.398438 382.546875 L 684.664063 383.523438 L 683.902344 384.492188 L 683.105469 385.453125 L 682.277344 386.410156 L 681.414063 387.355469 L 680.523438 388.296875 L 679.601563 389.226563 L 678.648438 390.152344 L 677.664063 391.066406 L 676.648438 391.972656 L 675.601563 392.871094 L 674.523438 393.757813 L 673.417969 394.636719 L 672.28125 395.503906 L 671.113281 396.363281 L 669.914063 397.210938 L 668.6875 398.050781 L 667.429688 398.875 L 666.144531 399.691406 L 664.828125 400.496094 L 663.484375 401.289063 L 662.109375 402.070313 L 660.707031 402.839844 L 659.273438 403.597656 L 657.816406 404.339844 L 656.328125 405.074219 L 654.8125 405.792969 L 653.269531 406.496094 L 651.695313 407.1875 L 650.097656 407.867188 L 648.472656 408.53125 L 646.820313 409.179688 L 645.140625 409.816406 L 643.433594 410.4375 L 641.699219 411.042969 L 639.941406 411.632813 L 638.15625 412.210938 L 636.347656 412.769531 L 634.511719 413.316406 L 632.652344 413.84375 L 630.769531 414.355469 L 628.859375 414.855469 L 626.925781 415.335938 L 624.964844 415.796875 L 622.984375 416.246094 L 620.976563 416.675781 L 618.949219 417.085938 L 616.898438 417.484375 L 614.824219 417.859375 L 612.726563 418.222656 L 610.605469 418.5625 L 608.464844 418.886719 L 606.300781 419.195313 L 604.117188 419.480469 L 601.914063 419.75 L 599.6875 420 L 597.441406 420.234375 L 595.171875 420.445313 L 592.886719 420.640625 L 590.582031 420.8125 L 588.253906 420.96875 L 585.910156 421.105469 L 583.546875 421.21875 L 581.167969 421.316406 L 578.765625 421.390625 L 576.347656 421.449219 L 573.914063 421.484375 L 571.464844 421.5 L 568.996094 421.496094 L 566.511719 421.472656 L 564.007813 421.425781 L 561.492188 421.359375 L 558.960938 421.273438 L 556.414063 421.164063 L 553.851563 421.035156 L 551.273438 420.886719 L 548.683594 420.71875 L 546.078125 420.523438 L 543.460938 420.3125 L 540.828125 420.078125 L 538.183594 419.824219 L 535.527344 419.546875 L 532.859375 419.246094 L 530.179688 418.925781 L 527.488281 418.585938 L 524.785156 418.222656 L 522.074219 417.835938 L 519.347656 417.429688 L 516.617188 417.003906 L 513.871094 416.554688 L 511.121094 416.082031 L 508.359375 415.589844 L 505.589844 415.074219 L 502.808594 414.535156 L 500.023438 413.976563 L 497.230469 413.398438 L 494.429688 412.792969 L 491.621094 412.171875 L 488.808594 411.523438 L 485.988281 410.855469 L 483.164063 410.167969 L 480.332031 409.457031 L 477.496094 408.722656 L 474.65625 407.96875 L 471.8125 407.191406 L 468.960938 406.394531 L 466.109375 405.574219 L 463.253906 404.734375 L 460.398438 403.871094 L 457.535156 402.984375 L 454.671875 402.078125 L 451.808594 401.152344 L 448.941406 400.203125 L 446.074219 399.234375 L 443.207031 398.246094 L 440.339844 397.234375 L 437.472656 396.199219 L 434.605469 395.148438 L 431.738281 394.074219 L 428.875 392.976563 L 426.011719 391.863281 L 423.148438 390.726563 L 420.289063 389.570313 L 417.429688 388.390625 L 414.578125 387.195313 L 411.726563 385.976563 L 408.878906 384.742188 L 406.035156 383.484375 L 403.195313 382.207031 L 400.363281 380.910156 L 397.53125 379.59375 L 394.707031 378.257813 L 391.890625 376.90625 L 389.078125 375.53125 L 386.273438 374.140625 L 383.472656 372.726563 L 380.679688 371.296875 L 377.894531 369.851563 L 375.121094 368.382813 L 372.351563 366.898438 L 369.589844 365.398438 L 366.839844 363.875 L 364.097656 362.339844 L 361.363281 360.785156 L 358.640625 359.210938 L 355.925781 357.621094 L 353.222656 356.015625 L 350.53125 354.394531 L 347.847656 352.753906 L 345.179688 351.097656 L 342.519531 349.425781 L 339.875 347.738281 L 337.242188 346.035156 L 334.621094 344.316406 L 332.011719 342.582031 L 329.414063 340.835938 L 326.832031 339.070313 L 324.265625 337.292969 L 321.710938 335.5 L 319.171875 333.695313 L 316.644531 331.875 L 314.136719 330.039063 L 311.640625 328.191406 L 309.160156 326.332031 L 306.695313 324.460938 L 304.25 322.574219 L 301.816406 320.675781 L 299.402344 318.765625 L 297.003906 316.84375 L 294.621094 314.910156 L 292.257813 312.964844 L 289.914063 311.007813 L 287.585938 309.039063 L 285.273438 307.0625 L 282.984375 305.074219 L 280.710938 303.074219 L 278.457031 301.066406 L 276.222656 299.050781 L 274.003906 297.023438 L 271.808594 294.988281 L 269.632813 292.945313 L 267.476563 290.894531 L 265.339844 288.832031 L 263.226563 286.765625 L 261.128906 284.6875 L 259.058594 282.605469 L 257.003906 280.515625 L 254.972656 278.421875 L 252.960938 276.320313 L 250.972656 274.210938 L 249.007813 272.097656 L 247.0625 269.976563 L 245.140625 267.851563 L 243.242188 265.722656 L 241.363281 263.589844 L 239.511719 261.453125 L 237.679688 259.3125 L 235.871094 257.167969 L 234.085938 255.019531 L 232.324219 252.867188 L 230.589844 250.714844 L 228.875 248.558594 L 227.183594 246.402344 L 225.519531 244.242188 L 223.878906 242.082031 L 222.261719 239.921875 L 220.667969 237.761719 L 219.101563 235.597656 L 217.554688 233.4375 L 216.039063 231.273438 L 214.542969 229.113281 L 213.078125 226.953125 L 211.632813 224.796875 L 210.214844 222.640625 L 208.824219 220.484375 L 207.457031 218.332031 L 206.113281 216.183594 L 204.800781 214.035156 L 203.507813 211.894531 L 202.246094 209.753906 L 201.007813 207.617188 L 199.796875 205.488281 L 198.609375 203.359375 L 197.449219 201.238281 L 196.316406 199.121094 L 195.207031 197.011719 L 194.125 194.90625 L 193.070313 192.808594 L 192.042969 190.71875 L 191.042969 188.632813 L 190.066406 186.554688 L 189.117188 184.488281 L 188.195313 182.425781 L 187.296875 180.371094 L 186.429688 178.328125 L 185.585938 176.292969 L 184.769531 174.265625 L 183.980469 172.25 L 183.214844 170.242188 L 182.480469 168.246094 L 181.769531 166.261719 L 181.085938 164.285156 L 180.429688 162.324219 L 179.796875 160.371094 L 179.195313 158.433594 L 178.617188 156.503906 L 178.066406 154.589844 L 177.542969 152.6875 L 177.042969 150.796875 L 176.570313 148.921875 L 176.125 147.0625 L 175.707031 145.214844 L 175.3125 143.378906 L 174.945313 141.5625 L 174.605469 139.757813 L 174.289063 137.96875 L 174 136.199219 L 173.734375 134.441406 L 173.496094 132.699219 L 173.285156 130.976563 L 173.097656 129.269531 L 172.9375 127.582031 L 172.800781 125.910156 L 172.691406 124.253906 L 172.605469 122.617188 L 172.546875 121 L 172.511719 119.402344 L 172.5 117.820313 L 172.515625 116.257813 L 172.554688 114.71875 L 172.617188 113.195313 L 172.703125 111.695313 L 172.816406 110.210938 L 172.953125 108.75 L 173.109375 107.308594 L 173.292969 105.890625 L 173.503906 104.492188 L 173.734375 103.117188 L 173.988281 101.761719 L 174.265625 100.429688 L 174.5625 99.117188 L 174.886719 97.832031 L 175.234375 96.566406 L 175.601563 95.324219 L 175.992188 94.105469 L 176.402344 92.910156 L 176.839844 91.738281 L 177.296875 90.59375 L 177.773438 89.46875 L 178.273438 88.371094 L 178.792969 87.296875 L 179.335938 86.25 L 179.898438 85.226563 L 180.480469 84.226563 L 181.082031 83.253906 L 181.707031 82.308594 L 182.351563 81.386719 L 183.015625 80.492188 L 183.695313 79.625 L 184.398438 78.78125 L 185.121094 77.96875 L 185.859375 77.179688 L 186.621094 76.417969 L 187.398438 75.683594 L 188.191406 74.976563 L 189.003906 74.300781 L 189.835938 73.648438 L 190.683594 73.023438 L 191.550781 72.429688 L 192.433594 71.863281 L 193.332031 71.324219 L 194.25 70.816406 L 195.179688 70.332031 L 196.128906 69.882813 L 197.09375 69.457031 L 198.074219 69.0625 L 199.066406 68.699219 L 200.078125 68.363281 L 201.101563 68.058594 L 202.140625 67.78125 L 203.191406 67.535156 L 204.257813 67.316406 L 205.339844 67.128906 L 206.433594 66.972656 L 207.539063 66.84375 L 208.660156 66.75 L 209.789063 66.679688 L 210.933594 66.644531 L 212.089844 66.640625 L 213.257813 66.664063 L 214.4375 66.71875 L 215.628906 66.804688 L 216.828125 66.921875 L 218.039063 67.070313 L 219.261719 67.246094 L 220.492188 67.457031 L 221.734375 67.695313 L 222.984375 67.96875 L 224.242188 68.269531 L 225.511719 68.601563 L 226.789063 68.96875 L 228.074219 69.363281 L 229.363281 69.789063 L 230.664063 70.246094 L 231.972656 70.734375 L 233.289063 71.253906 L 234.609375 71.804688 L 235.9375 72.386719 L 237.269531 73 L 238.609375 73.644531 L 239.953125 74.320313 L 241.304688 75.023438 L 242.65625 75.761719 L 244.015625 76.53125 L 245.378906 77.328125 L 246.746094 78.160156 L 248.117188 79.023438 L 249.492188 79.914063 L 250.871094 80.835938 L 252.25 81.789063 L 253.632813 82.773438 L 255.019531 83.789063 L 256.40625 84.835938 L 257.792969 85.910156 L 259.183594 87.015625 L 260.570313 88.15625 L 261.960938 89.320313 L 263.355469 90.519531 L 264.746094 91.746094 L 266.136719 93.003906 L 267.527344 94.289063 L 268.914063 95.605469 L 270.304688 96.953125 L 271.691406 98.328125 L 273.074219 99.734375 L 274.457031 101.171875 L 275.839844 102.632813 L 277.21875 104.128906 L 278.59375 105.648438 L 279.964844 107.199219 L 281.332031 108.777344 L 282.699219 110.386719 L 284.058594 112.023438 L 285.414063 113.6875 L 286.765625 115.378906 L 288.113281 117.097656 L 289.453125 118.847656 L 290.789063 120.621094 L 292.117188 122.425781 L 293.441406 124.253906 L 294.761719 126.109375 L 296.070313 127.996094 L 297.375 129.90625 L 298.671875 131.839844 L 299.960938 133.804688 L 301.246094 135.792969 L 302.519531 137.804688 L 303.785156 139.847656 L 305.042969 141.910156 L 306.289063 144 L 307.53125 146.117188 L 308.761719 148.257813 L 309.980469 150.421875 L 311.191406 152.609375 L 312.394531 154.824219 L 313.585938 157.058594 L 314.765625 159.320313 L 315.933594 161.601563 L 317.09375 163.910156 L 318.242188 166.238281 L 319.378906 168.589844 L 320.5 170.964844 L 321.613281 173.359375 L 322.714844 175.777344 L 323.804688 178.214844 L 324.878906 180.675781 L 325.941406 183.15625 L 326.992188 185.65625 L 328.027344 188.179688 L 329.054688 190.722656 L 330.0625 193.285156 L 331.058594 195.867188 L 332.039063 198.464844 L 333.007813 201.085938 L 333.960938 203.722656 L 334.902344 206.378906 L 335.824219 209.054688 L 336.734375 211.746094 L 337.628906 214.457031 L 338.507813 217.183594 L 339.371094 219.925781 L 340.21875 222.6875 L 341.046875 225.460938 L 341.863281 228.253906 L 342.664063 231.0625 L 343.445313 233.882813 L 344.214844 236.722656 L 344.964844 239.574219 L 345.695313 242.4375 L 346.414063 245.320313 L 347.113281 248.210938 L 347.792969 251.121094 L 348.457031 254.039063 L 349.105469 256.972656 L 349.734375 259.914063 L 350.347656 262.871094 L 350.941406 265.839844 L 351.515625 268.816406 L 352.074219 271.804688 L 352.613281 274.804688 L 353.136719 277.816406 L 353.636719 280.835938 L 354.121094 283.863281 L 354.589844 286.902344 L 355.035156 289.949219 L 355.464844 293.003906 L 355.871094 296.066406 L 356.261719 299.136719 L 356.632813 302.214844 L 356.988281 305.300781 L 357.320313 308.390625 L 357.632813 311.488281 L 357.929688 314.589844 L 358.203125 317.699219 L 358.457031 320.8125 L 358.695313 323.929688 L 358.910156 327.050781 L 359.109375 330.179688 L 359.285156 333.308594 L 359.445313 336.441406 L 359.582031 339.578125 L 359.699219 342.714844 L 359.800781 345.855469 L 359.878906 348.996094 L 359.9375 352.140625 L 359.976563 355.28125 L 359.996094 358.425781 L 359.996094 361.574219 L 359.976563 364.71875 L 359.9375 367.859375 L 359.878906 371.003906 L 359.800781 374.144531 L 359.699219 377.285156 L 359.582031 380.421875 L 359.445313 383.558594 L 359.285156 386.691406 L 359.109375 389.820313 L 358.910156 392.949219 L 358.695313 396.070313 L 358.457031 399.1875 L 358.203125 402.300781 L 357.929688 405.410156 L 357.632813 408.511719 L 357.320313 411.609375 L 356.988281 414.699219 L 356.632813 417.785156 L 356.261719 420.863281 L 355.871094 423.933594 L 355.464844 426.996094 L 355.035156 430.050781 L 354.589844 433.097656 L 354.121094 436.136719 L 353.636719 439.164063 L 353.136719 442.183594 L 352.613281 445.195313 L 352.074219 448.195313 L 351.515625 451.183594 L 350.941406 454.160156 L 350.347656 457.128906 L 349.734375 460.085938 L 349.105469 463.027344 L 348.457031 465.960938 L 347.792969 468.878906 L 347.113281 471.789063 L 346.414063 474.679688 L 345.695313 477.5625 L 344.964844 480.425781 L 344.214844 483.277344 L 343.445313 486.117188 L 342.664063 488.9375 L 341.863281 491.746094 L 341.046875 494.539063 L 340.21875 497.3125 L 339.371094 500.074219 L 338.507813 502.816406 L 337.628906 505.542969 L 336.734375 508.253906 L 335.824219 510.945313 L 334.902344 513.621094 L 333.960938 516.277344 L 333.007813 518.914063 L 332.039063 521.535156 L 331.058594 524.132813 L 330.0625 526.714844 L 329.054688 529.277344 L 328.027344 531.820313 L 326.992188 534.34375 L 325.941406 536.84375 L 324.878906 539.324219 L 323.804688 541.785156 L 322.714844 544.222656 L 321.613281 546.640625 L 320.5 549.035156 L 319.378906 551.410156 L 318.242188 553.761719 L 317.09375 556.089844 L 315.933594 558.398438 L 314.765625 560.679688 L 313.585938 562.941406 L 312.394531 565.175781 L 311.191406 567.390625 L 309.980469 569.578125 L 308.761719 571.742188 L 307.53125 573.882813 L 306.289063 576 L 305.042969 578.089844 L 303.785156 580.152344 L 302.519531 582.195313 L 301.246094 584.207031 L 299.960938 586.195313 L 298.671875 588.160156 L 297.375 590.09375 L 296.070313 592.003906 L 294.761719 593.890625 L 293.441406 595.746094 L 292.117188 597.574219 L 290.789063 599.378906 L 289.453125 601.152344 L 288.113281 602.902344 L 286.765625 604.621094 L 285.414063 606.3125 L 284.058594 607.976563 L 282.699219 609.613281 L 281.332031 611.222656 L 279.964844 612.800781 L 278.59375 614.351563 L 277.21875 615.871094 L 275.839844 617.367188 L 274.457031 618.828125 L 273.074219 620.265625 L 271.691406 621.671875 L 270.304688 623.046875 L 268.914063 624.394531 L 267.527344 625.710938 L 266.136719 626.996094 L 264.746094 628.253906 L 263.355469 629.480469 L 261.960938 630.679688 L 260.570313 631.84375 L 259.183594 632.984375 L 257.792969 634.089844 L 256.40625 635.164063 L 255.019531 636.210938 L 253.632813 637.226563 L 252.25 638.210938 L 250.871094 639.164063 L 249.492188 640.085938 L 248.117188 640.976563 L 246.746094 641.839844 L 245.378906 642.671875 L 244.015625 643.46875 L 242.65625 644.238281 L 241.304688 644.976563 L 239.953125 645.679688 L 238.609375 646.355469 L 237.269531 647 L 235.9375 647.613281 L 234.609375 648.195313 L 233.289063 648.746094 L 231.972656 649.265625 L 230.664063 649.753906 L 229.363281 650.210938 L 228.074219 650.636719 L 226.789063 651.03125 L 225.511719 651.398438 L 224.242188 651.730469 L 222.984375 652.03125 L 221.734375 652.304688 L 220.492188 652.542969 L 219.261719 652.753906 L 218.039063 652.929688 L 216.828125 653.078125 L 215.628906 653.195313 L 214.4375 653.28125 L 213.257813 653.335938 L 212.089844 653.359375 L 210.933594 653.355469 L 209.789063 653.320313 L 208.660156 653.25 L 207.539063 653.15625 L 206.433594 653.027344 L 205.339844 652.871094 L 204.257813 652.683594 L 203.191406 652.464844 L 202.140625 652.21875 L 201.101563 651.941406 L 200.078125 651.636719 L 199.066406 651.300781 L 198.074219 650.9375 L 197.09375 650.542969 L 196.128906 650.117188 L 195.179688 649.667969 L 194.25 649.183594 L 193.332031 648.675781 L 192.433594 648.136719 L 191.550781 647.570313 L 190.683594 646.976563 L 189.835938 646.351563 L 189.003906 645.699219 L 188.191406 645.023438 L 187.398438 644.316406 L 186.621094 643.582031 L 185.859375 642.820313 L 185.121094 642.03125 L 184.398438 641.21875 L 183.695313 640.375 L 183.015625 639.507813 L 182.351563 638.613281 L 181.707031 637.691406 L 181.082031 636.746094 L 180.480469 635.773438 L 179.898438 634.773438 L 179.335938 633.75 L 178.792969 632.703125 L 178.273438 631.628906 L 177.773438 630.53125 L 177.296875 629.40625 L 176.839844 628.261719 L 176.402344 627.089844 L 175.992188 625.894531 L 175.601563 624.675781 L 175.234375 623.433594 L 174.886719 622.167969 L 174.5625 620.882813 L 174.265625 619.570313 L 173.988281 618.238281 L 173.734375 616.882813 L 173.503906 615.507813 L 173.292969 614.109375 L 173.109375 612.691406 L 172.953125 611.25 L 172.816406 609.789063 L 172.703125 608.304688 L 172.617188 606.804688 L 172.554688 605.28125 L 172.515625 603.742188 L 172.5 602.179688 L 172.511719 600.597656 L 172.546875 599 L 172.605469 597.382813 L 172.691406 595.746094 L 172.800781 594.089844 L 172.9375 592.417969 L 173.097656 590.730469 L 173.285156 589.023438 L 173.496094 587.300781 L 173.734375 585.558594 L 174 583.800781 L 174.289063 582.03125 L 174.605469 580.242188 L 174.945313 578.4375 L 175.3125 576.621094 L 175.707031 574.785156 L 176.125 572.9375 L 176.570313 571.078125 L 177.042969 569.203125 L 177.542969 567.3125 L 178.066406 565.410156 L 178.617188 563.496094 L 179.195313 561.566406 L 179.796875 559.628906 L 180.429688 557.675781 L 181.085938 555.714844 L 181.769531 553.738281 L 182.480469 551.753906 L 183.214844 549.757813 L 183.980469 547.75 L 184.769531 545.734375 L 185.585938 543.707031 L 186.429688 541.671875 L 187.296875 539.628906 L 188.195313 537.574219 L 189.117188 535.511719 L 190.066406 533.445313 L 191.042969 531.367188 L 192.042969 529.28125 L 193.070313 527.191406 L 194.125 525.09375 L 195.207031 522.988281 L 196.316406 520.878906 L 197.449219 518.761719 L 198.609375 516.640625 L 199.796875 514.511719 L 201.007813 512.382813 L 202.246094 510.246094 L 203.507813 508.105469 L 204.800781 505.964844 L 206.113281 503.816406 L 207.457031 501.667969 L 208.824219 499.515625 L 210.214844 497.359375 L 211.632813 495.203125 L 213.078125 493.046875 L 214.542969 490.886719 L 216.039063 488.726563 L 217.554688 486.5625 L 219.101563 484.402344 L 220.667969 482.238281 L 222.261719 480.078125 L 223.878906 477.917969 L 225.519531 475.757813 L 227.183594 473.597656 L 228.875 471.441406 L 230.589844 469.285156 L 232.324219 467.132813 L 234.085938 464.980469 L 235.871094 462.832031 L 237.679688 460.6875 L 239.511719 458.546875 L 241.363281 456.410156 L 243.242188 454.277344 L 245.140625 452.148438 L 247.0625 450.023438 L 249.007813 447.902344 L 250.972656 445.789063 L 252.960938 443.679688 L 254.972656 441.578125 L 257.003906 439.484375 L 259.058594 437.394531 L 261.128906 435.3125 L 263.226563 433.234375 L 265.339844 431.167969 L 267.476563 429.105469 L 269.632813 427.054688 L 271.808594 425.011719 L 274.003906 422.976563 L 276.222656 420.949219 L 278.457031 418.933594 L 280.710938 416.925781 L 282.984375 414.925781 L 285.273438 412.9375 L 287.585938 410.960938 L 289.914063 408.992188 L 292.257813 407.035156 L 294.621094 405.089844 L 297.003906 403.15625 L 299.402344 401.234375 L 301.816406 399.324219 L 304.25 397.425781 L 306.695313 395.539063 L 309.160156 393.667969 L 311.640625 391.808594 L 314.136719 389.960938 L 316.644531 388.125 L 319.171875 386.304688 L 321.710938 384.5 L 324.265625 382.707031 L 326.832031 380.929688 L 329.414063 379.164063 L 332.011719 377.417969 L 334.621094 375.683594 L 337.242188 373.964844 L 339.875 372.261719 L 342.519531 370.574219 L 345.179688 368.902344 L 347.847656 367.246094 L 350.53125 365.605469 L 353.222656 363.984375 L 355.925781 362.378906 L 358.640625 360.789063 L 361.363281 359.214844 L 364.097656 357.660156 L 366.839844 356.125 L 369.589844 354.601563 L 372.351563 353.101563 L 375.121094 351.617188 L 377.894531 350.148438 L 380.679688 348.703125 L 383.472656 347.273438 L 386.273438 345.859375 L 389.078125 344.46875 L 391.890625 343.09375 L 394.707031 341.742188 L 397.53125 340.40625 L 400.363281 339.089844 L 403.195313 337.792969 L 406.035156 336.515625 L 408.878906 335.257813 L 411.726563 334.023438 L 414.578125 332.804688 L 417.429688 331.609375 L 420.289063 330.429688 L 423.148438 329.273438 L 426.011719 328.136719 L 428.875 327.023438 L 431.738281 325.925781 L 434.605469 324.851563 L 437.472656 323.800781 L 440.339844 322.765625 L 443.207031 321.753906 L 446.074219 320.765625 L 448.941406 319.796875 L 451.808594 318.847656 L 454.671875 317.921875 L 457.535156 317.015625 L 460.398438 316.128906 L 463.253906 315.265625 L 466.109375 314.425781 L 468.960938 313.605469 L 471.8125 312.808594 L 474.65625 312.03125 L 477.496094 311.277344 L 480.332031 310.542969 L 483.164063 309.832031 L 485.988281 309.144531 L 488.808594 308.476563 L 491.621094 307.828125 L 494.429688 307.207031 L 497.230469 306.601563 L 500.023438 306.023438 L 502.808594 305.464844 L 505.589844 304.925781 L 508.359375 304.410156 L 511.121094 303.917969 L 513.871094 303.445313 L 516.617188 302.996094 L 519.347656 302.570313 L 522.074219 302.164063 L 524.785156 301.777344 L 527.488281 301.414063 L 530.179688 301.074219 L 532.859375 300.753906 L 535.527344 300.453125 L 538.183594 300.175781 L 540.828125 299.921875 L 543.460938 299.6875 L 546.078125 299.476563 L 548.683594 299.28125 L 551.273438 299.113281 L 553.851563 298.964844 L 556.414063 298.835938 L 558.960938 298.726563 L 561.492188 298.640625 L 564.007813 298.574219 L 566.511719 298.527344 L 568.996094 298.503906 L 571.464844 298.5 L 573.914063 298.515625 L 576.347656 298.550781 L 578.765625 298.609375 L 581.167969 298.683594 L 583.546875 298.78125 L 585.910156 298.894531 L 588.253906 299.03125 L 590.582031 299.1875 L 592.886719 299.359375 L 595.171875 299.554688 L 597.441406 299.765625 L 599.6875 300 L 601.914063 300.25 L 604.117188 300.519531 L 606.300781 300.804688 L 608.464844 301.113281 L 610.605469 301.4375 L 612.726563 301.777344 L 614.824219 302.140625 L 616.898438 302.515625 L 618.949219 302.914063 L 620.976563 303.324219 L 622.984375 303.753906 L 624.964844 304.203125 L 626.925781 304.664063 L 628.859375 305.144531 L 630.769531 305.644531 L 632.652344 306.15625 L 634.511719 306.683594 L 636.347656 307.230469 L 638.15625 307.789063 L 639.941406 308.367188 L 641.699219 308.957031 L 643.433594 309.5625 L 645.140625 310.183594 L 646.820313 310.820313 L 648.472656 311.46875 L 650.097656 312.132813 L 651.695313 312.8125 L 653.269531 313.503906 L 654.8125 314.207031 L 656.328125 314.925781 L 657.816406 315.660156 L 659.273438 316.402344 L 660.707031 317.160156 L 662.109375 317.929688 L 663.484375 318.710938 L 664.828125 319.503906 L 666.144531 320.308594 L 667.429688 321.125 L 668.6875 321.949219 L 669.914063 322.789063 L 671.113281 323.636719 L 672.28125 324.496094 L 673.417969 325.363281 L 674.523438 326.242188 L 675.601563 327.128906 L 676.648438 328.027344 L 677.664063 328.933594 L 678.648438 329.847656 L 679.601563 330.773438 L 680.523438 331.703125 L 681.414063 332.644531 L 682.277344 333.589844 L 683.105469 334.546875 L 683.902344 335.507813 L 684.664063 336.476563 L 685.398438 337.453125 L 686.101563 338.433594 L 686.769531 339.421875 L 687.40625 340.414063 L 688.011719 341.414063 L 688.585938 342.417969 L 689.125 343.425781 L 689.632813 344.4375 L 690.109375 345.457031 L 690.554688 346.480469 L 690.964844 347.503906 L 691.339844 348.535156 L 691.6875 349.566406 L 692 350.601563 L 692.277344 351.640625 L 692.527344 352.679688 L 692.738281 353.722656 L 692.921875 354.765625 L 693.070313 355.808594 L 693.183594 356.855469 L 693.265625 357.902344 L 693.316406 358.953125 Z M 693.332031 360 "/>
  </g>
</svg>
