<?xml version="1.0" encoding="UTF-8"?>
<svg xmlns="http://www.w3.org/2000/svg" xmlns:xlink="http://www.w3.org/1999/xlink" width="100%" height="100%" viewBox="0 0 720 720" version="1.1">
  <g id="spiro_1.73205080756888_1_1_1722">
    <path style=" stroke:none;fill-rule:evenodd;fill:rgb(25.490196%,41.176471%,88.235294%);fill-opacity:1;" d="M 693.332031 360 L 669.285156 360.957031 L 600.945313 367.316406 L 499.070313 382.820313 L 379.535156 408.296875 L 260.667969 441.082031 L 160.183594 475.289063 L 92.308594 502.917969 L 65.558594 515.546875 L 81.597656 506.320313 L 135.277344 471.753906 L 215.863281 412.976563 L 309.164063 336.109375 L 400.144531 251.652344 L 475.53125 172.890625 L 525.941406 113.652344 L 547.125 85.746094 L 540.222656 96.648438 L 510.980469 147.808594 L 468.132813 233.980469 L 421.394531 343.746094 L 379.394531 461.183594 L 348.058594 568.382813 L 329.675781 648.425781 L 322.863281 688.261719 L 323.375 681.003906 L 325.523438 627.15625 L 323.882813 534.644531 L 314.894531 417.507813 L 297.984375 293.605469 L 275.898438 181.644531 L 254.257813 98.101563 L 240.292969 54.570313 L 241.117188 56 L 261.863281 100.105469 L 304.121094 178.019531 L 365.007813 276.070313 L 437.175781 378.285156 L 509.757813 469.175781 L 570.15625 536.304688 L 606.332031 572.144531 L 609.199219 574.964844 L 574.613281 548.59375 L 504.566406 501.21875 L 407.308594 443.453125 L 296.308594 386.097656 L 188.203125 338.109375 L 100.085938 305.046875 L 46.582031 288.421875 L 37.257813 285.917969 L 74.855469 292.429688 L 154.636719 301.679688 L 265.050781 307.964844 L 389.554688 307.6875 L 509.332031 300.335938 L 606.363281 288.613281 L 666.414063 277.796875 L 681.296875 274.378906 L 650.101563 284.324219 L 579.164063 311.332031 L 480.796875 355.53125 L 371.046875 412.855469 L 266.882813 475.355469 L 183.355469 532.425781 L 131.207031 572.691406 L 115.382813 586.273438 L 134.585938 566.921875 L 182.039063 513.652344 L 247.105469 431.414063 L 317.535156 330.722656 L 381.800781 226.191406 L 431.132813 134.203125 L 460.824219 70.132813 L 470.617188 45.621094 L 464.191406 66.371094 L 447.8125 130.960938 L 428.589844 230.808594 L 412.664063 351.445313 L 403.75 474.8125 L 402.34375 582.191406 L 405.753906 657.316406 L 408.949219 689.042969 L 406.019531 673.164063 L 391.875 613.019531 L 363.867188 518.804688 L 322.875 405.761719 L 273.625 291.507813 L 224.117188 193.082031 L 184.230469 124.15625 L 163.761719 92.957031 L 170.296875 101.21875 L 207.351563 144.289063 L 273.144531 212.394531 L 360.394531 292.671875 L 457.136719 371.65625 L 548.523438 437.679688 L 619.304688 482.742188 L 656.53125 503.578125 L 652.007813 501.691406 L 603.988281 482.460938 L 517.792969 453.5625 L 405.214844 423.050781 L 282.738281 397.511719 L 168.894531 380.714844 L 81.226563 373 L 33.324219 371.535156 L 32.566406 371.320313 L 78.878906 366.734375 L 164.765625 353.25 L 276.621094 328.886719 L 397.046875 295.101563 L 507.796875 256.839844 L 592.773438 221.765625 L 640.601563 198.71875 L 646.289063 195.792969 L 611.75 218.347656 L 545.09375 267.453125 L 458.90625 339.105469 L 367.828125 424.410156 L 285.90625 510.769531 L 224.261719 583.929688 L 189.429688 630.488281 L 182.648438 640.417969 L 200.242188 609.144531 L 234.84375 538.710938 L 277.273438 437.808594 L 318.59375 320.636719 L 351.929688 204.679688 L 373.675781 107.882813 L 383.910156 45.636719 L 385.902344 28.117188 L 384.925781 58.542969 L 386.601563 132.523438 L 395.234375 238.785156 L 412.472656 361.027344 L 436.617188 480.640625 L 462.800781 579.785156 L 483.925781 644.3125 L 492.292969 665.949219 L 481.476563 643.484375 L 448.101563 582.667969 L 393.078125 494.949219 L 322.035156 395.269531 L 244.757813 299.378906 L 173.710938 221.148438 L 121.875 170.367188 L 100.296875 151.414063 L 115.835938 162.992188 L 169.535156 198.910156 L 255.980469 249.722656 L 363.820313 304.839844 L 477.402344 354.660156 L 579.246094 392.335938 L 652.988281 414.8125 L 686.191406 422.945313 L 672.574219 420.804688 L 613.230469 414.242188 L 516.566406 409.1875 L 397.003906 409.980469 L 272.625 418.167969 L 162.207031 432.023438 L 82.113281 446.878906 L 43.667969 456.277344 L 51.375 453.59375 L 102.371094 433.855469 L 187.136719 395.296875 L 291.292969 340.304688 L 398.203125 275.511719 L 491.832031 210.914063 L 559.363281 158.214844 L 593.128906 128.628906 L 591.519531 130.578125 L 558.773438 167.765625 L 503.71875 238.023438 L 437.792969 333.171875 L 372.730469 440.054688 L 318.375 542.519531 L 281.074219 624.078125 L 262.875 670.773438 L 261.699219 673.683594 L 272.332031 630.660156 L 288.046875 546.910156 L 302.398438 434.324219 L 310.851563 309.625 L 311.867188 191.640625 L 307.171875 98.230469 L 301.222656 43.3125 L 299.960938 34.632813 L 309.136719 72.535156 L 332.585938 150.058594 L 370.894531 254.238281 L 420.71875 368.433594 L 475.007813 475.167969 L 524.089844 559.050781 L 557.472656 609.199219 L 566 620.792969 L 543.90625 595.484375 L 490.414063 540.644531 L 410.398438 467.6875 L 314.046875 389.726563 L 215.433594 319.15625 L 130.285156 265.507813 L 73.257813 234.050781 L 55.289063 225.304688 L 81.480469 235.546875 L 149.921875 258.113281 L 251.722656 285.210938 L 372.28125 309.796875 L 493.582031 327.140625 L 597.113281 335.761719 L 666.976563 337.492188 L 692.5 336.757813 L 670.035156 339.203125 L 603.527344 349.988281 L 503.773438 372.191406 L 386.5625 405.636719 L 269.964844 446.5 L 171.3125 487.753906 L 104.382813 520.460938 L 77.292969 535.59375 L 91.425781 526.109375 L 141.59375 488.746094 L 217.304688 425.21875 L 304.878906 342.464844 L 390.039063 251.894531 L 460.371094 167.636719 L 507.332031 104.167969 L 527.351563 73.683594 L 521.941406 83.734375 L 496.820313 135.574219 L 460.296875 223.5625 L 421.269531 335.816406 L 387.3125 455.941406 L 363.183594 565.671875 L 350.105469 647.890625 L 345.878906 689.507813 L 345.84375 683.722656 L 344.363281 631.210938 L 336.527344 540.03125 L 319.683594 424.296875 L 294.386719 301.785156 L 264.59375 191 L 236.988281 108.09375 L 219.578125 64.320313 L 219.855469 64.339844 L 242.882813 105.722656 L 289.765625 179.6875 L 356.824219 272.902344 L 435.753906 369.960938 L 514.707031 456.113281 L 580.265625 519.703125 L 619.828125 553.890625 L 624.070313 557.414063 L 588.945313 534.234375 L 516.800781 492.285156 L 416.425781 441.546875 L 301.867188 391.902344 L 190.304688 351.199219 L 99.207031 323.917969 L 43.394531 310.660156 L 32.453125 308.542969 L 68.984375 312.332031 L 148.058594 316.085938 L 257.933594 314.863281 L 381.976563 306.144531 L 501.386719 290.621094 L 598.3125 272.160156 L 658.753906 256.972656 L 674.78125 252.097656 L 645.683594 263.613281 L 577.832031 294.882813 L 483.371094 345.300781 L 377.960938 409.824219 L 277.992188 479.457031 L 197.847656 542.609375 L 147.609375 587.167969 L 131.699219 602.835938 L 148.582031 583.324219 L 191.546875 527.929688 L 250.410156 442.140625 L 313.6875 337.148438 L 370.839844 228.242188 L 414.148438 132.371094 L 439.855469 65.28125 L 448.402344 38.765625 L 443.753906 58.472656 L 432.027344 122.773438 L 419.738281 222.824219 L 412.066406 343.910156 L 411.550781 467.8125 L 417.480469 575.796875 L 426.121094 651.699219 L 431.71875 684.5625 L 428.066406 670.363281 L 410.25 612.566406 L 376.230469 521.347656 L 327.828125 411.738281 L 270.863281 300.957031 L 214.429688 205.515625 L 169.308594 138.507813 L 145.902344 107.636719 L 152.007813 114.308594 L 190.960938 153.808594 L 260.5 216.625 L 352.621094 290.488281 L 454.570313 362.769531 L 550.773438 422.773438 L 625.421875 463.453125 L 665.25 482.308594 L 662 481.28125 L 614.082031 465.78125 L 527.125 443.066406 L 413.277344 420.378906 L 289.332031 403.214844 L 174.035156 394.140625 L 84.984375 392.382813 L 35.714844 394.230469 L 33.457031 394.21875 L 77.972656 386.722656 L 161.691406 367.675781 L 271.042969 335.945313 L 388.851563 294.074219 L 497.222656 248.175781 L 580.527344 206.964844 L 627.851563 180.050781 L 634.578125 175.925781 L 602.78125 199.925781 L 540.476563 252.71875 L 459.84375 329.59375 L 374.847656 420.796875 L 298.691406 512.871094 L 241.59375 590.820313 L 209.289063 640.75 L 202.472656 652.417969 L 217.273438 621.316406 L 246.566406 549.777344 L 281.808594 446.921875 L 315.027344 327.390625 L 340.488281 209.058594 L 355.75 110.117188 L 361.851563 46.03125 L 362.699219 26.941406 L 363.746094 55.90625 L 370.335938 128.394531 L 386.050781 233.039063 L 411.496094 353.582031 L 443.792969 471.589844 L 476.921875 569.539063 L 502.851563 633.640625 L 513.304688 655.984375 L 501.703125 635.589844 L 464.945313 578.234375 L 404.589844 495.140625 L 327.144531 400.761719 L 243.363281 310.152344 L 166.59375 236.378906 L 110.503906 188.449219 L 86.523438 170.132813 L 101.578125 179.808594 L 156.480469 211.351563 L 245.367188 255.773438 L 356.351563 303.289063 L 473.226563 345.34375 L 578.101563 376.226563 L 654.34375 393.902344 L 689.441406 400 L 677.195313 398.945313 L 618.859375 396.488281 L 523.03125 397.996094 L 404.246094 406.875 L 280.589844 423.507813 L 170.703125 444.957031 L 90.710938 465.5 L 51.640625 477.925781 L 57.757813 475.269531 L 106.070313 452.679688 L 187.132813 408.929688 L 286.875 347.265625 L 389.1875 275.328125 L 478.695313 204.136719 L 543.300781 146.25 L 575.957031 113.445313 L 575.46875 114.371094 L 546.164063 152.609375 L 496.601563 225.570313 L 437.589844 324.480469 L 379.941406 435.523438 L 332.445313 541.945313 L 300.402344 626.824219 L 285.011719 675.953125 L 283.679688 680.390625 L 291.117188 638.125 L 300.976563 554.59375 L 307.609375 441.933594 L 307.578125 317.027344 L 300.550781 198.757813 L 289.402344 104.898438 L 279.5 49.199219 L 277.296875 39.171875 L 288.605469 75 L 316.863281 149.679688 L 361.871094 250.378906 L 419.269531 360.796875 L 480.898438 463.964844 L 536.089844 545.089844 L 573.601563 593.890625 L 583.875 606 L 561.128906 583.277344 L 504.921875 532.996094 L 420.730469 466.109375 L 319.480469 394.996094 L 215.996094 331.09375 L 126.625 282.933594 L 66.433594 254.886719 L 46.539063 246.84375 L 71.976563 254.832031 L 140.601563 272.394531 L 243.207031 292.359375 L 364.878906 308.664063 L 487.367188 317.753906 L 592.074219 319.332031 L 663.128906 316.257813 L 690 313.640625 L 669.207031 317.359375 L 604.820313 332.355469 L 507.640625 361.035156 L 393.300781 402.246094 L 279.535156 451.019531 L 183.222656 499.226563 L 117.632813 537 L 90.425781 554.738281 L 102.695313 545.210938 L 149.21875 505.367188 L 219.773438 437.484375 L 301.246094 349.277344 L 380.160156 253.007813 L 445.027344 163.59375 L 488.1875 96.109375 L 506.785156 63.085938 L 502.714844 72.136719 L 481.675781 124.324219 L 451.523438 213.664063 L 420.335938 327.847656 L 394.597656 450.097656 L 377.882813 561.855469 L 370.316406 645.878906 L 368.886719 689.09375 L 368.507813 684.820313 L 363.589844 633.886719 L 349.734375 544.46875 L 325.183594 430.671875 L 291.621094 310.136719 L 254.179688 201.070313 L 220.601563 119.25 L 199.65625 75.511719 L 199.203125 74.207031 L 224.238281 112.761719 L 275.398438 182.503906 L 348.25 270.484375 L 433.558594 361.929688 L 518.5625 442.882813 L 589.066406 502.53125 L 631.945313 534.765625 L 637.667969 538.808594 L 602.277344 518.769531 L 528.457031 482.320313 L 425.476563 438.773438 L 307.914063 397.058594 L 193.398438 363.894531 L 99.714844 342.652344 L 41.824219 333.003906 L 29.28125 331.480469 L 64.554688 332.722656 L 142.53125 331.117188 L 251.351563 322.492188 L 374.339844 305.394531 L 492.8125 281.71875 L 589.144531 256.488281 L 649.644531 236.828125 L 666.683594 230.328125 L 639.75 243.179688 L 575.238281 278.40625 L 485.082031 334.707031 L 384.496094 406.101563 L 289.226563 482.570313 L 212.917969 551.597656 L 164.941406 600.363281 L 149.171875 618.1875 L 163.792969 598.742188 L 202.199219 541.585938 L 254.675781 452.71875 L 310.535156 343.949219 L 360.269531 231.167969 L 397.246094 131.824219 L 418.691406 61.976563 L 425.757813 33.523438 L 422.714844 52.046875 L 415.53125 115.71875 L 410.117188 215.480469 L 410.683594 336.433594 Z M 693.332031 360 "/>
  </g>
</svg>
