<?xml version="1.0" encoding="UTF-8"?>
<svg xmlns="http://www.w3.org/2000/svg" xmlns:xlink="http://www.w3.org/1999/xlink" width="100%" height="100%" viewBox="0 0 720 720" version="1.1">
  <g id="spiro_6_5_5_68993">
    <path style=" stroke:none;fill-rule:evenodd;fill:rgb(100%,0%,0%);fill-opacity:1;" d="M 693.332031 360 L 693.234375 360 L 693.191406 360.003906 L 693.140625 360.003906 L 693.078125 360.007813 L 693.011719 360.007813 L 692.9375 360.011719 L 692.855469 360.015625 L 692.761719 360.019531 L 692.664063 360.023438 L 692.558594 360.03125 L 692.441406 360.039063 L 692.320313 360.046875 L 692.1875 360.058594 L 692.050781 360.066406 L 691.90625 360.078125 L 691.75 360.09375 L 691.589844 360.105469 L 691.421875 360.121094 L 691.242188 360.140625 L 691.058594 360.160156 L 690.867188 360.179688 L 690.664063 360.203125 L 690.457031 360.226563 L 690.242188 360.253906 L 690.019531 360.28125 L 689.789063 360.308594 L 689.550781 360.34375 L 689.304688 360.375 L 689.050781 360.414063 L 688.789063 360.449219 L 688.519531 360.492188 L 688.246094 360.535156 L 687.960938 360.582031 L 687.671875 360.628906 L 687.371094 360.679688 L 687.066406 360.730469 L 686.753906 360.789063 L 686.433594 360.847656 L 686.105469 360.90625 L 685.773438 360.972656 L 685.429688 361.039063 L 685.082031 361.109375 L 684.726563 361.183594 L 684.363281 361.257813 L 683.992188 361.339844 L 683.617188 361.421875 L 683.230469 361.507813 L 682.839844 361.597656 L 682.441406 361.691406 L 682.039063 361.785156 L 681.625 361.886719 L 681.207031 361.988281 L 680.78125 362.097656 L 680.351563 362.207031 L 679.914063 362.320313 L 679.46875 362.441406 L 679.015625 362.5625 L 678.558594 362.6875 L 678.09375 362.816406 L 677.621094 362.953125 L 677.144531 363.089844 L 676.660156 363.230469 L 676.171875 363.378906 L 675.675781 363.527344 L 675.171875 363.683594 L 674.664063 363.84375 L 674.148438 364.007813 L 673.628906 364.175781 L 673.101563 364.347656 L 672.570313 364.523438 L 672.03125 364.707031 L 671.488281 364.890625 L 670.9375 365.082031 L 670.378906 365.277344 L 669.820313 365.476563 L 669.253906 365.683594 Z M 693.332031 360 "/>
    <path style=" stroke:none;fill-rule:evenodd;fill:rgb(100%,50.196078%,0%);fill-opacity:1;" d="M 669.253906 365.683594 L 668.679688 365.894531 L 668.101563 366.109375 L 667.519531 366.328125 L 666.929688 366.550781 L 666.335938 366.78125 L 665.734375 367.015625 L 665.128906 367.257813 L 664.519531 367.5 L 663.90625 367.75 L 663.285156 368.007813 L 662.660156 368.269531 L 662.03125 368.535156 L 661.394531 368.804688 L 660.757813 369.082031 L 660.113281 369.363281 L 659.464844 369.648438 L 658.808594 369.941406 L 658.152344 370.242188 L 657.488281 370.546875 L 656.824219 370.855469 L 656.152344 371.167969 L 655.476563 371.488281 L 654.796875 371.816406 L 654.113281 372.148438 L 653.425781 372.484375 L 652.730469 372.828125 L 652.035156 373.179688 L 651.335938 373.53125 L 650.632813 373.894531 L 649.925781 374.257813 L 649.214844 374.632813 L 648.5 375.011719 L 647.78125 375.394531 L 647.058594 375.785156 L 646.335938 376.179688 L 645.605469 376.582031 L 644.875 376.988281 L 644.140625 377.402344 L 643.402344 377.824219 L 642.660156 378.25 L 641.917969 378.679688 L 640.417969 379.5625 L 639.667969 380.015625 L 638.910156 380.46875 L 638.152344 380.933594 L 637.394531 381.402344 L 636.628906 381.875 L 635.863281 382.355469 L 635.097656 382.84375 L 634.328125 383.335938 L 633.554688 383.835938 L 632.78125 384.339844 L 632.003906 384.851563 L 631.226563 385.371094 L 630.445313 385.894531 L 629.664063 386.425781 L 628.878906 386.960938 L 628.09375 387.503906 L 627.304688 388.054688 L 626.519531 388.609375 L 625.726563 389.171875 L 624.9375 389.738281 L 624.144531 390.3125 L 623.347656 390.890625 L 622.554688 391.476563 L 621.757813 392.070313 L 620.957031 392.667969 L 620.160156 393.273438 L 619.359375 393.882813 L 618.5625 394.5 L 617.761719 395.125 L 616.957031 395.753906 L 616.15625 396.390625 L 615.351563 397.03125 L 614.550781 397.679688 L 613.746094 398.332031 L 612.941406 398.992188 L 612.136719 399.660156 L 611.332031 400.332031 Z M 669.253906 365.683594 "/>
    <path style=" stroke:none;fill-rule:evenodd;fill:rgb(100%,100%,0%);fill-opacity:1;" d="M 611.332031 400.332031 L 610.53125 401.011719 L 609.726563 401.695313 L 608.921875 402.382813 L 608.117188 403.082031 L 607.3125 403.785156 L 606.507813 404.492188 L 605.707031 405.207031 L 604.902344 405.925781 L 604.101563 406.652344 L 603.296875 407.382813 L 602.496094 408.121094 L 601.695313 408.867188 L 600.894531 409.617188 L 600.097656 410.371094 L 599.296875 411.132813 L 598.5 411.898438 L 597.707031 412.671875 L 596.910156 413.449219 L 596.117188 414.234375 L 595.324219 415.023438 L 594.53125 415.820313 L 593.742188 416.621094 L 592.953125 417.425781 L 592.167969 418.238281 L 591.382813 419.054688 L 590.597656 419.878906 L 589.816406 420.707031 L 589.035156 421.539063 L 588.257813 422.378906 L 587.480469 423.222656 L 585.933594 424.925781 L 585.164063 425.785156 L 584.394531 426.652344 L 583.628906 427.523438 L 582.863281 428.398438 L 582.105469 429.277344 L 581.34375 430.164063 L 580.589844 431.054688 L 579.835938 431.949219 L 579.082031 432.847656 L 577.589844 434.660156 L 576.84375 435.574219 L 575.367188 437.417969 L 574.632813 438.347656 L 573.902344 439.277344 L 573.171875 440.214844 L 572.449219 441.15625 L 571.726563 442.105469 L 571.007813 443.054688 L 570.292969 444.007813 L 569.578125 444.96875 L 568.871094 445.929688 L 568.164063 446.898438 L 567.464844 447.867188 L 566.765625 448.84375 L 566.070313 449.824219 L 565.378906 450.804688 L 564.691406 451.792969 L 564.007813 452.785156 L 563.328125 453.777344 L 562.652344 454.777344 L 561.980469 455.777344 L 561.3125 456.78125 L 560.648438 457.792969 L 559.988281 458.804688 L 559.332031 459.820313 L 558.679688 460.839844 L 558.035156 461.859375 L 557.390625 462.886719 L 556.75 463.914063 L 556.117188 464.945313 L 555.484375 465.980469 L 554.859375 467.019531 L 554.238281 468.058594 L 553.621094 469.101563 L 553.007813 470.148438 L 552.398438 471.199219 Z M 611.332031 400.332031 "/>
    <path style=" stroke:none;fill-rule:evenodd;fill:rgb(50.196078%,100%,0%);fill-opacity:1;" d="M 552.398438 471.199219 L 551.796875 472.25 L 551.195313 473.304688 L 550.601563 474.359375 L 550.011719 475.421875 L 549.429688 476.480469 L 548.847656 477.546875 L 548.273438 478.609375 L 547.703125 479.679688 L 547.136719 480.75 L 546.578125 481.820313 L 546.019531 482.894531 L 545.46875 483.972656 L 544.382813 486.128906 L 543.847656 487.210938 L 543.316406 488.296875 L 542.792969 489.378906 L 542.269531 490.464844 L 541.753906 491.554688 L 541.246094 492.640625 L 540.742188 493.734375 L 540.242188 494.824219 L 539.746094 495.917969 L 539.257813 497.011719 L 538.773438 498.105469 L 538.292969 499.199219 L 537.820313 500.296875 L 537.351563 501.394531 L 536.890625 502.492188 L 536.433594 503.589844 L 535.980469 504.6875 L 535.535156 505.789063 L 535.09375 506.886719 L 534.65625 507.988281 L 534.226563 509.089844 L 533.804688 510.1875 L 533.382813 511.289063 L 532.96875 512.390625 L 532.5625 513.492188 L 532.160156 514.589844 L 531.761719 515.691406 L 531.371094 516.792969 L 530.984375 517.890625 L 530.601563 518.992188 L 530.226563 520.089844 L 529.859375 521.1875 L 529.496094 522.285156 L 529.136719 523.382813 L 528.78125 524.480469 L 528.433594 525.574219 L 528.09375 526.667969 L 527.757813 527.761719 L 527.425781 528.855469 L 527.101563 529.945313 L 526.78125 531.035156 L 526.46875 532.125 L 526.160156 533.210938 L 525.855469 534.296875 L 525.558594 535.382813 L 525.265625 536.464844 L 524.980469 537.546875 L 524.699219 538.625 L 524.421875 539.703125 L 524.152344 540.777344 L 523.886719 541.851563 L 523.628906 542.921875 L 523.375 543.992188 L 523.125 545.058594 L 522.882813 546.125 L 522.644531 547.1875 L 522.414063 548.246094 L 522.1875 549.304688 L 521.964844 550.359375 L 521.75 551.414063 L 521.539063 552.460938 L 521.332031 553.507813 L 521.132813 554.554688 L 520.9375 555.59375 L 520.75 556.632813 L 520.566406 557.667969 Z M 552.398438 471.199219 "/>
    <path style=" stroke:none;fill-rule:evenodd;fill:rgb(0%,100%,0%);fill-opacity:1;" d="M 520.566406 557.667969 L 520.386719 558.699219 L 520.210938 559.730469 L 520.042969 560.753906 L 519.878906 561.777344 L 519.71875 562.796875 L 519.566406 563.8125 L 519.417969 564.824219 L 519.273438 565.832031 L 519.136719 566.835938 L 519.003906 567.835938 L 518.875 568.835938 L 518.75 569.828125 L 518.632813 570.816406 L 518.519531 571.804688 L 518.410156 572.785156 L 518.304688 573.761719 L 518.203125 574.734375 L 518.109375 575.703125 L 518.019531 576.667969 L 517.933594 577.628906 L 517.851563 578.582031 L 517.777344 579.535156 L 517.703125 580.480469 L 517.636719 581.421875 L 517.574219 582.359375 L 517.515625 583.289063 L 517.460938 584.21875 L 517.410156 585.140625 L 517.367188 586.058594 L 517.324219 586.972656 L 517.289063 587.878906 L 517.253906 588.78125 L 517.226563 589.679688 L 517.199219 590.570313 L 517.179688 591.457031 L 517.164063 592.339844 L 517.152344 593.214844 L 517.140625 594.085938 L 517.136719 594.949219 L 517.136719 596.664063 L 517.144531 597.511719 L 517.152344 598.355469 L 517.167969 599.191406 L 517.183594 600.019531 L 517.203125 600.847656 L 517.226563 601.664063 L 517.253906 602.476563 L 517.285156 603.285156 L 517.316406 604.085938 L 517.355469 604.882813 L 517.394531 605.667969 L 517.4375 606.453125 L 517.484375 607.226563 L 517.535156 608 L 517.585938 608.761719 L 517.640625 609.519531 L 517.699219 610.269531 L 517.757813 611.011719 L 517.824219 611.75 L 517.886719 612.484375 L 517.957031 613.207031 L 518.027344 613.925781 L 518.101563 614.636719 L 518.179688 615.339844 L 518.257813 616.039063 L 518.335938 616.730469 L 518.417969 617.414063 L 518.503906 618.089844 L 518.59375 618.761719 L 518.679688 619.425781 L 518.773438 620.082031 L 518.867188 620.730469 L 518.960938 621.371094 L 519.058594 622.007813 L 519.15625 622.636719 L 519.253906 623.257813 L 519.359375 623.871094 L 519.460938 624.476563 L 519.566406 625.078125 Z M 520.566406 557.667969 "/>
    <path style=" stroke:none;fill-rule:evenodd;fill:rgb(0%,100%,50.196078%);fill-opacity:1;" d="M 519.566406 625.078125 L 519.671875 625.671875 L 519.777344 626.253906 L 519.886719 626.832031 L 519.996094 627.402344 L 520.109375 627.96875 L 520.222656 628.523438 L 520.335938 629.070313 L 520.449219 629.613281 L 520.5625 630.144531 L 520.679688 630.671875 L 520.796875 631.191406 L 520.914063 631.703125 L 521.03125 632.207031 L 521.148438 632.703125 L 521.269531 633.191406 L 521.386719 633.671875 L 521.507813 634.144531 L 521.625 634.613281 L 521.746094 635.070313 L 521.867188 635.519531 L 521.988281 635.964844 L 522.105469 636.398438 L 522.226563 636.828125 L 522.347656 637.25 L 522.464844 637.660156 L 522.585938 638.066406 L 522.703125 638.464844 L 522.824219 638.855469 L 522.941406 639.234375 L 523.058594 639.609375 L 523.175781 639.976563 L 523.292969 640.335938 L 523.40625 640.6875 L 523.519531 641.03125 L 523.632813 641.367188 L 523.746094 641.695313 L 523.859375 642.015625 L 523.96875 642.328125 L 524.078125 642.632813 L 524.183594 642.929688 L 524.292969 643.222656 L 524.398438 643.503906 L 524.5 643.777344 L 524.601563 644.042969 L 524.703125 644.304688 L 524.800781 644.554688 L 524.898438 644.800781 L 524.992188 645.035156 L 525.085938 645.265625 L 525.175781 645.484375 L 525.265625 645.699219 L 525.355469 645.90625 L 525.4375 646.105469 L 525.519531 646.292969 L 525.601563 646.476563 L 525.679688 646.652344 L 525.753906 646.824219 L 525.828125 646.984375 L 525.898438 647.136719 L 525.964844 647.28125 L 526.03125 647.421875 L 526.09375 647.550781 L 526.152344 647.675781 L 526.210938 647.792969 L 526.261719 647.902344 L 526.3125 648.003906 L 526.363281 648.097656 L 526.40625 648.183594 L 526.445313 648.265625 L 526.484375 648.335938 L 526.519531 648.402344 L 526.550781 648.460938 L 526.578125 648.511719 L 526.601563 648.558594 L 526.621094 648.59375 L 526.636719 648.625 L 526.652344 648.648438 L 526.664063 648.671875 L 526.667969 648.675781 Z M 519.566406 625.078125 "/>
    <path style=" stroke:none;fill-rule:evenodd;fill:rgb(0%,100%,100%);fill-opacity:1;" d="M 526.667969 648.675781 L 526.664063 648.671875 L 526.65625 648.660156 L 526.644531 648.640625 L 526.632813 648.617188 L 526.613281 648.585938 L 526.589844 648.546875 L 526.5625 648.5 L 526.527344 648.449219 L 526.492188 648.390625 L 526.453125 648.328125 L 526.40625 648.253906 L 526.355469 648.175781 L 526.300781 648.09375 L 526.242188 648.003906 L 526.175781 647.90625 L 526.105469 647.804688 L 526.03125 647.695313 L 525.953125 647.578125 L 525.871094 647.457031 L 525.78125 647.328125 L 525.6875 647.195313 L 525.585938 647.054688 L 525.480469 646.910156 L 525.371094 646.757813 L 525.257813 646.601563 L 525.136719 646.4375 L 525.011719 646.269531 L 524.878906 646.09375 L 524.742188 645.914063 L 524.601563 645.726563 L 524.453125 645.535156 L 524.300781 645.339844 L 524.140625 645.136719 L 523.976563 644.929688 L 523.804688 644.71875 L 523.628906 644.5 L 523.449219 644.273438 L 523.257813 644.046875 L 523.066406 643.8125 L 522.867188 643.574219 L 522.660156 643.332031 L 522.449219 643.082031 L 522.230469 642.828125 L 522.007813 642.570313 L 521.777344 642.304688 L 521.539063 642.039063 L 521.296875 641.765625 L 521.050781 641.488281 L 520.792969 641.207031 L 520.53125 640.921875 L 520.265625 640.632813 L 519.992188 640.335938 L 519.710938 640.039063 L 519.421875 639.734375 L 519.128906 639.425781 L 518.832031 639.117188 L 518.523438 638.800781 L 518.210938 638.480469 L 517.890625 638.160156 L 517.566406 637.832031 L 517.234375 637.5 L 516.894531 637.167969 L 516.546875 636.828125 L 516.195313 636.488281 L 515.835938 636.140625 L 515.46875 635.792969 L 515.097656 635.441406 L 514.71875 635.085938 L 514.332031 634.730469 L 513.9375 634.367188 L 513.539063 634.003906 L 513.128906 633.636719 L 512.71875 633.265625 L 512.296875 632.890625 L 511.867188 632.515625 L 511.433594 632.136719 L 510.992188 631.757813 L 510.542969 631.371094 L 510.089844 630.984375 L 509.625 630.597656 Z M 526.667969 648.675781 "/>
    <path style=" stroke:none;fill-rule:evenodd;fill:rgb(0%,50.196078%,100%);fill-opacity:1;" d="M 509.625 630.597656 L 509.15625 630.207031 L 508.679688 629.8125 L 508.199219 629.417969 L 507.707031 629.019531 L 507.210938 628.617188 L 506.707031 628.214844 L 506.195313 627.8125 L 505.675781 627.40625 L 505.152344 626.996094 L 504.621094 626.589844 L 504.082031 626.175781 L 503.535156 625.765625 L 502.980469 625.351563 L 502.421875 624.933594 L 501.851563 624.515625 L 501.277344 624.097656 L 500.695313 623.679688 L 500.109375 623.257813 L 499.511719 622.835938 L 498.910156 622.414063 L 498.300781 621.988281 L 497.683594 621.5625 L 497.0625 621.136719 L 496.429688 620.710938 L 495.792969 620.285156 L 495.148438 619.855469 L 494.496094 619.429688 L 493.839844 619 L 493.171875 618.570313 L 492.5 618.140625 L 491.820313 617.710938 L 491.136719 617.28125 L 490.441406 616.851563 L 489.742188 616.421875 L 489.035156 615.992188 L 488.324219 615.5625 L 487.601563 615.132813 L 486.875 614.703125 L 486.140625 614.273438 L 485.402344 613.84375 L 484.65625 613.417969 L 483.902344 612.988281 L 483.140625 612.5625 L 482.371094 612.132813 L 481.597656 611.707031 L 480.820313 611.285156 L 480.03125 610.859375 L 479.238281 610.4375 L 478.4375 610.015625 L 477.628906 609.59375 L 476.816406 609.171875 L 475.996094 608.753906 L 475.171875 608.335938 L 474.339844 607.917969 L 473.5 607.503906 L 472.65625 607.089844 L 471.804688 606.679688 L 470.945313 606.269531 L 470.082031 605.859375 L 469.210938 605.453125 L 468.335938 605.046875 L 467.453125 604.644531 L 466.566406 604.242188 L 465.671875 603.84375 L 464.769531 603.445313 L 463.863281 603.050781 L 462.953125 602.65625 L 462.035156 602.265625 L 461.109375 601.878906 L 460.179688 601.492188 L 459.246094 601.105469 L 458.304688 600.726563 L 456.40625 599.96875 L 455.445313 599.597656 L 454.484375 599.222656 L 453.515625 598.855469 L 452.539063 598.492188 L 451.558594 598.128906 L 450.574219 597.765625 Z M 509.625 630.597656 "/>
    <path style=" stroke:none;fill-rule:evenodd;fill:rgb(0%,0%,100%);fill-opacity:1;" d="M 450.574219 597.765625 L 448.589844 597.054688 L 446.582031 596.359375 L 445.570313 596.011719 L 444.554688 595.671875 L 443.53125 595.332031 L 442.507813 595 L 441.476563 594.667969 L 440.441406 594.339844 L 439.398438 594.015625 L 438.355469 593.695313 L 437.304688 593.378906 L 436.25 593.0625 L 435.191406 592.753906 L 434.128906 592.445313 L 431.988281 591.84375 L 430.910156 591.550781 L 428.746094 590.972656 L 427.65625 590.691406 L 426.5625 590.410156 L 425.464844 590.136719 L 424.363281 589.863281 L 423.257813 589.597656 L 422.148438 589.335938 L 421.035156 589.078125 L 419.921875 588.824219 L 418.800781 588.574219 L 417.675781 588.328125 L 416.550781 588.085938 L 415.417969 587.851563 L 414.285156 587.621094 L 413.148438 587.390625 L 412.007813 587.167969 L 410.863281 586.949219 L 409.71875 586.734375 L 408.570313 586.527344 L 407.417969 586.324219 L 406.261719 586.121094 L 405.101563 585.925781 L 403.941406 585.738281 L 402.777344 585.550781 L 401.613281 585.371094 L 400.441406 585.195313 L 399.269531 585.023438 L 398.097656 584.855469 L 396.921875 584.695313 L 395.742188 584.539063 L 394.5625 584.386719 L 392.195313 584.097656 L 391.007813 583.960938 L 389.820313 583.832031 L 388.628906 583.703125 L 387.4375 583.582031 L 386.242188 583.464844 L 385.046875 583.355469 L 383.851563 583.25 L 382.652344 583.148438 L 381.453125 583.050781 L 380.25 582.960938 L 379.046875 582.875 L 377.84375 582.796875 L 376.640625 582.722656 L 375.433594 582.652344 L 374.226563 582.585938 L 373.019531 582.527344 L 371.808594 582.472656 L 370.601563 582.425781 L 369.390625 582.382813 L 368.179688 582.34375 L 366.96875 582.308594 L 365.757813 582.28125 L 364.546875 582.257813 L 363.335938 582.242188 L 362.121094 582.230469 L 360.910156 582.222656 L 359.695313 582.222656 Z M 450.574219 597.765625 "/>
    <path style=" stroke:none;fill-rule:evenodd;fill:rgb(50.196078%,0%,100%);fill-opacity:1;" d="M 359.695313 582.222656 L 358.484375 582.226563 L 357.273438 582.234375 L 356.058594 582.25 L 354.847656 582.269531 L 352.425781 582.324219 L 351.214844 582.359375 L 350.003906 582.402344 L 348.792969 582.449219 L 347.585938 582.5 L 346.378906 582.554688 L 345.171875 582.617188 L 342.757813 582.757813 L 341.554688 582.835938 L 340.351563 582.917969 L 339.148438 583.007813 L 337.949219 583.101563 L 336.75 583.199219 L 335.550781 583.300781 L 334.355469 583.410156 L 333.160156 583.523438 L 330.777344 583.765625 L 329.585938 583.894531 L 327.210938 584.167969 L 326.027344 584.3125 L 324.847656 584.460938 L 323.667969 584.617188 L 322.492188 584.773438 L 321.316406 584.9375 L 318.972656 585.28125 L 317.804688 585.460938 L 316.640625 585.644531 L 315.476563 585.832031 L 314.316406 586.023438 L 313.160156 586.222656 L 312.007813 586.425781 L 310.855469 586.632813 L 309.707031 586.84375 L 308.5625 587.058594 L 306.28125 587.503906 L 305.148438 587.734375 L 304.015625 587.96875 L 302.886719 588.207031 L 301.761719 588.449219 L 299.519531 588.949219 L 298.40625 589.207031 L 297.296875 589.464844 L 296.1875 589.730469 L 295.085938 590 L 293.984375 590.273438 L 292.890625 590.550781 L 291.800781 590.832031 L 290.710938 591.117188 L 289.628906 591.40625 L 288.550781 591.699219 L 287.476563 591.996094 L 286.40625 592.296875 L 285.339844 592.601563 L 284.28125 592.90625 L 283.222656 593.21875 L 282.171875 593.535156 L 281.121094 593.855469 L 280.078125 594.175781 L 278.007813 594.832031 L 276.980469 595.167969 L 275.957031 595.503906 L 274.9375 595.84375 L 273.925781 596.183594 L 272.914063 596.53125 L 271.910156 596.878906 L 270.914063 597.234375 L 269.921875 597.589844 L 268.933594 597.945313 Z M 359.695313 582.222656 "/>
    <path style=" stroke:none;fill-rule:evenodd;fill:rgb(100%,0%,100%);fill-opacity:1;" d="M 268.933594 597.945313 L 267.949219 598.308594 L 266.972656 598.671875 L 266 599.039063 L 265.035156 599.410156 L 264.074219 599.78125 L 263.117188 600.15625 L 262.167969 600.535156 L 261.226563 600.914063 L 260.285156 601.296875 L 258.425781 602.070313 L 257.503906 602.460938 L 256.589844 602.855469 L 255.679688 603.246094 L 254.777344 603.644531 L 253.878906 604.042969 L 252.988281 604.445313 L 252.105469 604.847656 L 251.226563 605.25 L 250.351563 605.65625 L 249.484375 606.0625 L 248.625 606.472656 L 247.769531 606.886719 L 246.921875 607.296875 L 246.078125 607.710938 L 244.414063 608.542969 L 243.589844 608.964844 L 242.773438 609.382813 L 241.964844 609.804688 L 241.160156 610.226563 L 240.363281 610.648438 L 239.574219 611.070313 L 238.789063 611.496094 L 238.011719 611.921875 L 237.242188 612.347656 L 236.480469 612.773438 L 235.722656 613.203125 L 234.972656 613.628906 L 234.226563 614.058594 L 233.488281 614.488281 L 232.757813 614.917969 L 232.035156 615.347656 L 231.320313 615.777344 L 230.609375 616.207031 L 229.90625 616.636719 L 229.210938 617.066406 L 228.519531 617.496094 L 227.835938 617.925781 L 227.160156 618.355469 L 226.492188 618.785156 L 225.832031 619.214844 L 225.175781 619.644531 L 224.527344 620.070313 L 223.886719 620.5 L 223.253906 620.925781 L 222.625 621.351563 L 222.007813 621.777344 L 221.394531 622.199219 L 220.789063 622.625 L 220.1875 623.046875 L 219.597656 623.46875 L 219.011719 623.890625 L 218.433594 624.308594 L 217.863281 624.726563 L 217.300781 625.140625 L 216.742188 625.558594 L 216.191406 625.972656 L 215.648438 626.382813 L 215.113281 626.792969 L 214.585938 627.203125 L 214.0625 627.609375 L 213.546875 628.015625 L 213.039063 628.417969 L 212.539063 628.820313 L 212.046875 629.21875 L 211.558594 629.613281 L 211.078125 630.007813 L 210.605469 630.402344 L 210.140625 630.792969 Z M 268.933594 597.945313 "/>
    <path style=" stroke:none;fill-rule:evenodd;fill:rgb(100%,0%,50.196078%);fill-opacity:1;" d="M 210.140625 630.792969 L 209.683594 631.179688 L 209.230469 631.566406 L 208.785156 631.949219 L 208.347656 632.328125 L 207.917969 632.703125 L 207.492188 633.078125 L 207.074219 633.453125 L 206.664063 633.820313 L 206.261719 634.1875 L 205.863281 634.550781 L 205.476563 634.910156 L 205.09375 635.265625 L 204.714844 635.617188 L 204.347656 635.96875 L 203.984375 636.316406 L 203.628906 636.660156 L 203.277344 637 L 202.933594 637.335938 L 202.597656 637.667969 L 202.269531 637.996094 L 201.949219 638.320313 L 201.632813 638.640625 L 201.320313 638.960938 L 201.019531 639.273438 L 200.722656 639.582031 L 200.433594 639.886719 L 200.148438 640.1875 L 199.871094 640.484375 L 199.601563 640.777344 L 199.335938 641.066406 L 199.078125 641.347656 L 198.824219 641.628906 L 198.582031 641.902344 L 198.339844 642.171875 L 198.109375 642.4375 L 197.878906 642.699219 L 197.660156 642.957031 L 197.445313 643.207031 L 197.234375 643.453125 L 197.035156 643.695313 L 196.835938 643.929688 L 196.644531 644.160156 L 196.460938 644.386719 L 196.28125 644.609375 L 196.109375 644.824219 L 195.941406 645.035156 L 195.777344 645.238281 L 195.621094 645.4375 L 195.472656 645.632813 L 195.328125 645.820313 L 195.1875 646.003906 L 195.054688 646.183594 L 194.925781 646.355469 L 194.800781 646.519531 L 194.683594 646.679688 L 194.570313 646.835938 L 194.464844 646.984375 L 194.363281 647.125 L 194.265625 647.261719 L 194.175781 647.394531 L 194.085938 647.519531 L 194.007813 647.636719 L 193.929688 647.75 L 193.859375 647.855469 L 193.789063 647.957031 L 193.730469 648.050781 L 193.671875 648.136719 L 193.617188 648.21875 L 193.570313 648.292969 L 193.527344 648.359375 L 193.488281 648.421875 L 193.453125 648.476563 L 193.425781 648.523438 L 193.398438 648.566406 L 193.378906 648.601563 L 193.359375 648.628906 L 193.347656 648.652344 L 193.339844 648.664063 L 193.335938 648.671875 L 193.332031 648.675781 Z M 210.140625 630.792969 "/>
    <path style=" stroke:none;fill-rule:evenodd;fill:rgb(100%,0%,0%);fill-opacity:1;" d="M 193.332031 648.675781 L 193.335938 648.667969 L 193.34375 648.65625 L 193.355469 648.636719 L 193.371094 648.609375 L 193.386719 648.578125 L 193.410156 648.535156 L 193.4375 648.488281 L 193.496094 648.371094 L 193.535156 648.300781 L 193.574219 648.226563 L 193.617188 648.140625 L 193.660156 648.050781 L 193.710938 647.953125 L 193.761719 647.847656 L 193.816406 647.734375 L 193.875 647.613281 L 193.9375 647.488281 L 194 647.351563 L 194.066406 647.210938 L 194.136719 647.0625 L 194.207031 646.902344 L 194.28125 646.738281 L 194.359375 646.566406 L 194.4375 646.386719 L 194.519531 646.199219 L 194.601563 646.003906 L 194.691406 645.804688 L 194.777344 645.59375 L 194.867188 645.375 L 194.960938 645.152344 L 195.054688 644.917969 L 195.148438 644.679688 L 195.246094 644.429688 L 195.347656 644.175781 L 195.449219 643.914063 L 195.550781 643.640625 L 195.65625 643.363281 L 195.761719 643.078125 L 195.867188 642.785156 L 195.976563 642.480469 L 196.085938 642.171875 L 196.199219 641.855469 L 196.308594 641.53125 L 196.421875 641.199219 L 196.535156 640.859375 L 196.652344 640.511719 L 196.765625 640.15625 L 196.882813 639.792969 L 197 639.425781 L 197.117188 639.046875 L 197.238281 638.660156 L 197.355469 638.265625 L 197.472656 637.863281 L 197.59375 637.457031 L 197.714844 637.039063 L 197.832031 636.617188 L 197.953125 636.183594 L 198.074219 635.742188 L 198.195313 635.296875 L 198.3125 634.84375 L 198.433594 634.378906 L 198.554688 633.910156 L 198.671875 633.433594 L 198.792969 632.949219 L 198.910156 632.457031 L 199.027344 631.957031 L 199.144531 631.449219 L 199.261719 630.933594 L 199.378906 630.410156 L 199.492188 629.878906 L 199.609375 629.34375 L 199.722656 628.796875 L 199.835938 628.246094 L 199.945313 627.6875 L 200.058594 627.121094 L 200.167969 626.546875 L 200.273438 625.964844 L 200.382813 625.375 L 200.488281 624.777344 Z M 193.332031 648.675781 "/>
    <path style=" stroke:none;fill-rule:evenodd;fill:rgb(100%,50.196078%,0%);fill-opacity:1;" d="M 200.488281 624.777344 L 200.589844 624.175781 L 200.695313 623.566406 L 200.792969 622.949219 L 200.894531 622.324219 L 200.992188 621.691406 L 201.085938 621.050781 L 201.179688 620.40625 L 201.273438 619.753906 L 201.363281 619.09375 L 201.453125 618.425781 L 201.539063 617.753906 L 201.621094 617.070313 L 201.703125 616.382813 L 201.785156 615.691406 L 201.859375 614.988281 L 201.933594 614.28125 L 202.007813 613.566406 L 202.078125 612.84375 L 202.144531 612.117188 L 202.210938 611.382813 L 202.273438 610.640625 L 202.332031 609.894531 L 202.386719 609.140625 L 202.441406 608.378906 L 202.492188 607.613281 L 202.539063 606.839844 L 202.582031 606.0625 L 202.625 605.277344 L 202.664063 604.484375 L 202.699219 603.6875 L 202.730469 602.882813 L 202.761719 602.074219 L 202.785156 601.257813 L 202.808594 600.433594 L 202.824219 599.605469 L 202.839844 598.773438 L 202.851563 597.933594 L 202.859375 597.089844 L 202.863281 596.238281 L 202.863281 594.519531 L 202.855469 593.648438 L 202.84375 592.777344 L 202.828125 591.898438 L 202.808594 591.015625 L 202.785156 590.125 L 202.761719 589.230469 L 202.730469 588.332031 L 202.695313 587.425781 L 202.65625 586.515625 L 202.613281 585.601563 L 202.5625 584.679688 L 202.511719 583.753906 L 202.457031 582.824219 L 202.394531 581.890625 L 202.328125 580.953125 L 202.257813 580.007813 L 202.183594 579.058594 L 202.105469 578.105469 L 202.023438 577.148438 L 201.9375 576.183594 L 201.84375 575.21875 L 201.746094 574.25 L 201.644531 573.273438 L 201.425781 571.3125 L 201.308594 570.324219 L 201.1875 569.332031 L 201.0625 568.335938 L 200.929688 567.335938 L 200.792969 566.335938 L 200.652344 565.328125 L 200.507813 564.316406 L 200.355469 563.304688 L 200.199219 562.289063 L 200.039063 561.265625 L 199.875 560.242188 L 199.703125 559.214844 L 199.527344 558.183594 L 199.34375 557.152344 Z M 200.488281 624.777344 "/>
    <path style=" stroke:none;fill-rule:evenodd;fill:rgb(100%,100%,0%);fill-opacity:1;" d="M 199.34375 557.152344 L 199.15625 556.113281 L 198.964844 555.074219 L 198.765625 554.03125 L 198.5625 552.984375 L 198.355469 551.9375 L 198.144531 550.886719 L 197.925781 549.832031 L 197.699219 548.777344 L 197.472656 547.71875 L 196.996094 545.59375 L 196.75 544.527344 L 196.5 543.457031 L 196.242188 542.386719 L 195.980469 541.316406 L 195.714844 540.238281 L 195.441406 539.164063 L 195.164063 538.085938 L 194.878906 537.003906 L 194.589844 535.921875 L 194.292969 534.839844 L 193.992188 533.753906 L 193.6875 532.667969 L 193.375 531.582031 L 193.058594 530.492188 L 192.738281 529.402344 L 192.410156 528.308594 L 191.738281 526.121094 L 191.390625 525.027344 L 191.042969 523.929688 L 190.6875 522.835938 L 190.324219 521.738281 L 189.957031 520.640625 L 189.585938 519.539063 L 189.207031 518.441406 L 188.824219 517.34375 L 188.433594 516.242188 L 188.039063 515.140625 L 187.640625 514.042969 L 187.234375 512.941406 L 186.824219 511.839844 L 186.40625 510.738281 L 185.984375 509.640625 L 185.558594 508.539063 L 185.125 507.4375 L 184.6875 506.339844 L 184.242188 505.238281 L 183.792969 504.140625 L 183.339844 503.039063 L 182.878906 501.941406 L 182.414063 500.84375 L 181.941406 499.75 L 181.46875 498.652344 L 180.5 496.464844 L 180.007813 495.371094 L 179.511719 494.277344 L 179.007813 493.1875 L 178.5 492.097656 L 177.988281 491.007813 L 177.46875 489.921875 L 176.945313 488.835938 L 176.417969 487.753906 L 175.886719 486.671875 L 175.347656 485.589844 L 174.804688 484.511719 L 174.253906 483.433594 L 173.703125 482.359375 L 173.144531 481.285156 L 172.582031 480.214844 L 172.011719 479.144531 L 171.441406 478.078125 L 170.863281 477.011719 L 170.28125 475.949219 L 169.101563 473.832031 L 168.503906 472.777344 L 167.902344 471.722656 L 167.296875 470.675781 Z M 199.34375 557.152344 "/>
    <path style=" stroke:none;fill-rule:evenodd;fill:rgb(50.196078%,100%,0%);fill-opacity:1;" d="M 167.296875 470.675781 L 166.6875 469.625 L 165.453125 467.539063 L 164.828125 466.5 L 164.199219 465.464844 L 163.566406 464.429688 L 162.929688 463.402344 L 162.289063 462.375 L 161.644531 461.351563 L 160.992188 460.328125 L 160.339844 459.3125 L 159.683594 458.296875 L 158.355469 456.28125 L 157.683594 455.277344 L 157.007813 454.277344 L 156.332031 453.28125 L 155.648438 452.289063 L 154.964844 451.300781 L 154.277344 450.3125 L 153.582031 449.332031 L 152.886719 448.355469 L 152.1875 447.382813 L 151.484375 446.414063 L 150.773438 445.449219 L 150.066406 444.488281 L 149.351563 443.53125 L 148.632813 442.578125 L 147.914063 441.628906 L 147.191406 440.6875 L 146.460938 439.746094 L 145.734375 438.8125 L 145 437.882813 L 144.265625 436.957031 L 143.523438 436.035156 L 142.785156 435.117188 L 142.039063 434.207031 L 141.292969 433.300781 L 140.542969 432.398438 L 139.789063 431.5 L 139.035156 430.605469 L 138.277344 429.71875 L 137.515625 428.835938 L 136.753906 427.957031 L 135.988281 427.085938 L 135.222656 426.21875 L 134.453125 425.355469 L 133.679688 424.5 L 132.90625 423.648438 L 132.132813 422.800781 L 131.355469 421.957031 L 130.574219 421.121094 L 129.011719 419.464844 L 128.226563 418.644531 L 127.441406 417.832031 L 126.652344 417.023438 L 125.863281 416.21875 L 125.074219 415.421875 L 124.28125 414.628906 L 123.488281 413.839844 L 122.691406 413.058594 L 121.898438 412.285156 L 121.101563 411.515625 L 120.300781 410.75 L 119.503906 409.992188 L 117.902344 408.492188 L 117.101563 407.753906 L 116.300781 407.019531 L 115.5 406.289063 L 114.695313 405.566406 L 113.894531 404.847656 L 113.089844 404.136719 L 112.285156 403.429688 L 111.480469 402.730469 L 110.675781 402.039063 L 109.871094 401.351563 L 109.066406 400.671875 L 108.265625 399.996094 Z M 167.296875 470.675781 "/>
    <path style=" stroke:none;fill-rule:evenodd;fill:rgb(0%,100%,0%);fill-opacity:1;" d="M 108.265625 399.996094 L 107.460938 399.324219 L 105.851563 398.003906 L 105.046875 397.355469 L 104.246094 396.710938 L 103.441406 396.070313 L 102.640625 395.4375 L 101.839844 394.8125 L 101.039063 394.191406 L 100.238281 393.578125 L 99.441406 392.96875 L 98.640625 392.367188 L 97.84375 391.773438 L 97.050781 391.183594 L 96.253906 390.601563 L 95.460938 390.023438 L 94.667969 389.453125 L 93.878906 388.886719 L 93.085938 388.332031 L 92.300781 387.777344 L 91.511719 387.234375 L 90.730469 386.691406 L 89.945313 386.160156 L 89.164063 385.632813 L 88.386719 385.109375 L 86.832031 384.085938 L 86.058594 383.585938 L 85.289063 383.089844 L 84.519531 382.597656 L 82.988281 381.636719 L 82.226563 381.164063 L 81.46875 380.699219 L 80.710938 380.242188 L 79.957031 379.789063 L 79.203125 379.339844 L 78.457031 378.898438 L 77.710938 378.464844 L 76.96875 378.035156 L 76.230469 377.613281 L 75.492188 377.195313 L 74.757813 376.785156 L 74.027344 376.378906 L 73.300781 375.980469 L 72.578125 375.589844 L 71.859375 375.203125 L 71.140625 374.820313 L 70.429688 374.445313 L 69.71875 374.074219 L 69.015625 373.710938 L 68.3125 373.355469 L 67.613281 373.003906 L 66.921875 372.65625 L 66.230469 372.316406 L 65.546875 371.980469 L 64.863281 371.652344 L 64.1875 371.328125 L 63.511719 371.011719 L 62.84375 370.699219 L 62.179688 370.394531 L 61.519531 370.089844 L 60.863281 369.796875 L 60.210938 369.507813 L 59.566406 369.222656 L 58.921875 368.941406 L 58.285156 368.667969 L 57.652344 368.398438 L 57.027344 368.136719 L 56.402344 367.878906 L 55.785156 367.625 L 55.171875 367.378906 L 54.566406 367.136719 L 53.964844 366.898438 L 53.367188 366.667969 L 52.777344 366.441406 L 52.191406 366.21875 L 51.609375 366 L 51.035156 365.789063 L 50.464844 365.582031 Z M 108.265625 399.996094 "/>
    <path style=" stroke:none;fill-rule:evenodd;fill:rgb(0%,100%,50.196078%);fill-opacity:1;" d="M 50.464844 365.582031 L 49.898438 365.378906 L 49.339844 365.179688 L 48.789063 364.988281 L 48.242188 364.796875 L 47.699219 364.613281 L 47.164063 364.433594 L 46.632813 364.261719 L 46.109375 364.089844 L 45.59375 363.925781 L 45.082031 363.761719 L 44.574219 363.605469 L 44.078125 363.453125 L 43.582031 363.304688 L 43.097656 363.160156 L 42.617188 363.019531 L 42.140625 362.882813 L 41.210938 362.625 L 40.757813 362.5 L 40.308594 362.378906 L 39.867188 362.265625 L 39.433594 362.152344 L 39.003906 362.042969 L 38.582031 361.9375 L 38.167969 361.835938 L 37.757813 361.738281 L 37.359375 361.644531 L 36.964844 361.550781 L 36.574219 361.464844 L 36.195313 361.378906 L 35.820313 361.296875 L 35.457031 361.21875 L 35.09375 361.144531 L 34.742188 361.074219 L 34.398438 361.003906 L 34.058594 360.941406 L 33.730469 360.875 L 33.40625 360.816406 L 33.089844 360.757813 L 32.78125 360.703125 L 32.476563 360.652344 L 32.183594 360.605469 L 31.894531 360.558594 L 31.617188 360.511719 L 31.34375 360.472656 L 31.078125 360.429688 L 30.824219 360.394531 L 30.574219 360.359375 L 30.332031 360.324219 L 30.097656 360.292969 L 29.867188 360.265625 L 29.648438 360.238281 L 29.4375 360.214844 L 29.234375 360.191406 L 29.039063 360.167969 L 28.847656 360.148438 L 28.667969 360.132813 L 28.496094 360.113281 L 28.328125 360.097656 L 28.171875 360.085938 L 28.019531 360.074219 L 27.878906 360.0625 L 27.746094 360.050781 L 27.617188 360.042969 L 27.5 360.035156 L 27.390625 360.027344 L 27.285156 360.023438 L 27.191406 360.015625 L 27.105469 360.011719 L 27.023438 360.011719 L 26.953125 360.007813 L 26.890625 360.003906 L 26.835938 360.003906 L 26.785156 360 L 26.667969 360 Z M 50.464844 365.582031 "/>
    <path style=" stroke:none;fill-rule:evenodd;fill:rgb(0%,100%,100%);fill-opacity:1;" d="M 26.667969 360 L 26.785156 360 L 26.835938 359.996094 L 26.890625 359.996094 L 26.953125 359.992188 L 27.023438 359.988281 L 27.105469 359.988281 L 27.191406 359.984375 L 27.285156 359.976563 L 27.390625 359.972656 L 27.5 359.964844 L 27.617188 359.957031 L 27.746094 359.949219 L 27.878906 359.9375 L 28.019531 359.925781 L 28.171875 359.914063 L 28.328125 359.902344 L 28.496094 359.886719 L 28.667969 359.867188 L 28.847656 359.851563 L 29.039063 359.832031 L 29.234375 359.808594 L 29.4375 359.785156 L 29.648438 359.761719 L 29.867188 359.734375 L 30.097656 359.707031 L 30.332031 359.675781 L 30.574219 359.640625 L 30.824219 359.605469 L 31.078125 359.570313 L 31.34375 359.527344 L 31.617188 359.488281 L 31.894531 359.441406 L 32.183594 359.394531 L 32.476563 359.347656 L 32.78125 359.296875 L 33.089844 359.242188 L 33.40625 359.183594 L 33.730469 359.125 L 34.058594 359.058594 L 34.398438 358.996094 L 34.742188 358.925781 L 35.09375 358.855469 L 35.457031 358.78125 L 35.820313 358.703125 L 36.195313 358.621094 L 36.574219 358.535156 L 36.964844 358.449219 L 37.359375 358.355469 L 37.757813 358.261719 L 38.167969 358.164063 L 38.582031 358.0625 L 39.003906 357.957031 L 39.433594 357.847656 L 39.867188 357.734375 L 40.308594 357.621094 L 40.757813 357.5 L 41.210938 357.375 L 42.140625 357.117188 L 42.617188 356.980469 L 43.097656 356.839844 L 43.582031 356.695313 L 44.078125 356.546875 L 44.574219 356.394531 L 45.082031 356.238281 L 45.59375 356.074219 L 46.109375 355.910156 L 46.632813 355.738281 L 47.164063 355.566406 L 47.699219 355.386719 L 48.242188 355.203125 L 48.789063 355.011719 L 49.339844 354.820313 L 49.898438 354.621094 L 50.464844 354.417969 L 51.035156 354.210938 Z M 26.667969 360 "/>
    <path style=" stroke:none;fill-rule:evenodd;fill:rgb(0%,50.196078%,100%);fill-opacity:1;" d="M 51.035156 354.210938 L 51.609375 354 L 52.191406 353.78125 L 52.777344 353.558594 L 53.367188 353.332031 L 53.964844 353.101563 L 54.566406 352.863281 L 55.171875 352.621094 L 55.785156 352.375 L 56.402344 352.121094 L 57.027344 351.863281 L 57.652344 351.601563 L 58.285156 351.332031 L 58.921875 351.058594 L 59.566406 350.777344 L 60.210938 350.492188 L 60.863281 350.203125 L 61.519531 349.910156 L 62.179688 349.605469 L 62.84375 349.300781 L 63.511719 348.988281 L 64.1875 348.671875 L 64.863281 348.347656 L 65.546875 348.019531 L 66.230469 347.683594 L 66.921875 347.34375 L 67.613281 346.996094 L 68.3125 346.644531 L 69.015625 346.289063 L 69.71875 345.925781 L 70.429688 345.554688 L 71.140625 345.179688 L 71.859375 344.796875 L 72.578125 344.410156 L 73.300781 344.019531 L 74.027344 343.621094 L 74.757813 343.214844 L 75.492188 342.804688 L 76.230469 342.386719 L 76.96875 341.964844 L 77.710938 341.535156 L 78.457031 341.101563 L 79.203125 340.660156 L 79.957031 340.210938 L 80.710938 339.757813 L 81.46875 339.300781 L 82.226563 338.835938 L 82.988281 338.363281 L 84.519531 337.402344 L 85.289063 336.910156 L 86.058594 336.414063 L 86.832031 335.914063 L 88.386719 334.890625 L 89.164063 334.367188 L 89.945313 333.839844 L 90.730469 333.308594 L 91.511719 332.765625 L 92.300781 332.222656 L 93.085938 331.667969 L 93.878906 331.113281 L 94.667969 330.546875 L 95.460938 329.976563 L 96.253906 329.398438 L 97.050781 328.816406 L 97.84375 328.226563 L 98.640625 327.632813 L 99.441406 327.03125 L 100.238281 326.421875 L 101.039063 325.808594 L 101.839844 325.1875 L 102.640625 324.5625 L 103.441406 323.929688 L 104.246094 323.289063 L 105.046875 322.644531 L 105.851563 321.996094 L 107.460938 320.675781 L 108.265625 320.003906 L 109.066406 319.328125 Z M 51.035156 354.210938 "/>
    <path style=" stroke:none;fill-rule:evenodd;fill:rgb(0%,0%,100%);fill-opacity:1;" d="M 109.066406 319.328125 L 109.871094 318.648438 L 110.675781 317.960938 L 111.480469 317.269531 L 112.285156 316.570313 L 113.089844 315.863281 L 113.894531 315.152344 L 114.695313 314.433594 L 115.5 313.710938 L 116.300781 312.980469 L 117.101563 312.246094 L 117.902344 311.507813 L 119.503906 310.007813 L 120.300781 309.25 L 121.101563 308.484375 L 121.898438 307.714844 L 122.691406 306.941406 L 123.488281 306.160156 L 124.28125 305.371094 L 125.074219 304.578125 L 125.863281 303.78125 L 126.652344 302.976563 L 127.441406 302.167969 L 128.226563 301.355469 L 129.011719 300.535156 L 130.574219 298.878906 L 131.355469 298.042969 L 132.132813 297.199219 L 132.90625 296.351563 L 133.679688 295.5 L 134.453125 294.644531 L 135.222656 293.78125 L 135.988281 292.914063 L 136.753906 292.042969 L 137.515625 291.164063 L 138.277344 290.28125 L 139.035156 289.394531 L 139.789063 288.5 L 140.542969 287.601563 L 141.292969 286.699219 L 142.039063 285.792969 L 142.785156 284.882813 L 143.523438 283.964844 L 144.265625 283.042969 L 145 282.117188 L 145.734375 281.1875 L 146.460938 280.253906 L 147.191406 279.3125 L 147.914063 278.371094 L 148.632813 277.421875 L 149.351563 276.46875 L 150.066406 275.511719 L 150.773438 274.550781 L 151.484375 273.585938 L 152.1875 272.617188 L 152.886719 271.644531 L 153.582031 270.667969 L 154.277344 269.6875 L 154.964844 268.699219 L 155.648438 267.710938 L 156.332031 266.71875 L 157.007813 265.722656 L 157.683594 264.722656 L 158.355469 263.71875 L 159.683594 261.703125 L 160.339844 260.6875 L 160.992188 259.671875 L 161.644531 258.648438 L 162.289063 257.625 L 162.929688 256.597656 L 163.566406 255.570313 L 164.199219 254.535156 L 164.828125 253.5 L 165.453125 252.460938 L 166.6875 250.375 L 167.296875 249.324219 L 167.902344 248.277344 Z M 109.066406 319.328125 "/>
    <path style=" stroke:none;fill-rule:evenodd;fill:rgb(50.196078%,0%,100%);fill-opacity:1;" d="M 167.902344 248.277344 L 168.503906 247.222656 L 169.101563 246.167969 L 170.28125 244.050781 L 170.863281 242.988281 L 171.441406 241.921875 L 172.011719 240.855469 L 172.582031 239.785156 L 173.144531 238.714844 L 173.703125 237.640625 L 174.253906 236.566406 L 174.804688 235.488281 L 175.347656 234.410156 L 175.886719 233.328125 L 176.417969 232.246094 L 176.945313 231.164063 L 177.46875 230.078125 L 177.988281 228.992188 L 178.5 227.902344 L 179.007813 226.8125 L 179.511719 225.722656 L 180.007813 224.628906 L 180.5 223.535156 L 181.46875 221.347656 L 181.941406 220.25 L 182.414063 219.15625 L 182.878906 218.058594 L 183.339844 216.960938 L 183.792969 215.859375 L 184.242188 214.761719 L 184.6875 213.660156 L 185.125 212.5625 L 185.558594 211.460938 L 185.984375 210.359375 L 186.40625 209.261719 L 186.824219 208.160156 L 187.234375 207.058594 L 187.640625 205.957031 L 188.039063 204.859375 L 188.433594 203.757813 L 188.824219 202.65625 L 189.207031 201.558594 L 189.585938 200.460938 L 189.957031 199.359375 L 190.324219 198.261719 L 190.6875 197.164063 L 191.042969 196.070313 L 191.390625 194.972656 L 191.738281 193.878906 L 192.410156 191.691406 L 192.738281 190.597656 L 193.058594 189.507813 L 193.375 188.417969 L 193.6875 187.332031 L 193.992188 186.246094 L 194.292969 185.160156 L 194.589844 184.078125 L 194.878906 182.996094 L 195.164063 181.914063 L 195.441406 180.835938 L 195.714844 179.761719 L 195.980469 178.683594 L 196.242188 177.613281 L 196.5 176.542969 L 196.75 175.472656 L 196.996094 174.40625 L 197.472656 172.28125 L 197.699219 171.222656 L 197.925781 170.167969 L 198.144531 169.113281 L 198.355469 168.0625 L 198.5625 167.015625 L 198.765625 165.96875 L 198.964844 164.925781 L 199.15625 163.886719 L 199.34375 162.847656 L 199.527344 161.816406 Z M 167.902344 248.277344 "/>
    <path style=" stroke:none;fill-rule:evenodd;fill:rgb(100%,0%,100%);fill-opacity:1;" d="M 199.527344 161.816406 L 199.703125 160.785156 L 199.875 159.757813 L 200.039063 158.734375 L 200.199219 157.710938 L 200.355469 156.695313 L 200.507813 155.683594 L 200.652344 154.671875 L 200.792969 153.664063 L 200.929688 152.664063 L 201.0625 151.664063 L 201.1875 150.667969 L 201.308594 149.675781 L 201.425781 148.6875 L 201.644531 146.726563 L 201.746094 145.75 L 201.84375 144.78125 L 201.9375 143.816406 L 202.023438 142.851563 L 202.105469 141.894531 L 202.183594 140.941406 L 202.257813 139.992188 L 202.328125 139.046875 L 202.394531 138.109375 L 202.457031 137.175781 L 202.511719 136.246094 L 202.5625 135.320313 L 202.613281 134.398438 L 202.65625 133.484375 L 202.695313 132.574219 L 202.730469 131.667969 L 202.761719 130.769531 L 202.785156 129.875 L 202.808594 128.984375 L 202.828125 128.101563 L 202.84375 127.222656 L 202.855469 126.351563 L 202.863281 125.480469 L 202.863281 123.761719 L 202.859375 122.910156 L 202.851563 122.066406 L 202.839844 121.226563 L 202.824219 120.394531 L 202.808594 119.566406 L 202.785156 118.742188 L 202.761719 117.925781 L 202.730469 117.117188 L 202.699219 116.3125 L 202.664063 115.515625 L 202.625 114.722656 L 202.582031 113.9375 L 202.539063 113.160156 L 202.492188 112.386719 L 202.441406 111.621094 L 202.386719 110.859375 L 202.332031 110.105469 L 202.273438 109.359375 L 202.210938 108.617188 L 202.144531 107.882813 L 202.078125 107.15625 L 202.007813 106.433594 L 201.933594 105.71875 L 201.859375 105.011719 L 201.785156 104.308594 L 201.703125 103.617188 L 201.621094 102.929688 L 201.539063 102.246094 L 201.453125 101.574219 L 201.363281 100.90625 L 201.273438 100.246094 L 201.179688 99.59375 L 201.085938 98.949219 L 200.992188 98.308594 L 200.894531 97.675781 L 200.792969 97.050781 L 200.695313 96.433594 L 200.589844 95.824219 L 200.488281 95.222656 L 200.382813 94.625 Z M 199.527344 161.816406 "/>
    <path style=" stroke:none;fill-rule:evenodd;fill:rgb(100%,0%,50.196078%);fill-opacity:1;" d="M 200.382813 94.625 L 200.273438 94.035156 L 200.167969 93.453125 L 200.058594 92.878906 L 199.945313 92.3125 L 199.835938 91.753906 L 199.722656 91.203125 L 199.609375 90.65625 L 199.492188 90.121094 L 199.378906 89.589844 L 199.261719 89.066406 L 199.144531 88.550781 L 199.027344 88.042969 L 198.910156 87.542969 L 198.792969 87.050781 L 198.671875 86.566406 L 198.554688 86.089844 L 198.433594 85.621094 L 198.3125 85.15625 L 198.195313 84.703125 L 198.074219 84.257813 L 197.953125 83.816406 L 197.832031 83.382813 L 197.714844 82.960938 L 197.59375 82.542969 L 197.472656 82.136719 L 197.355469 81.734375 L 197.238281 81.339844 L 197.117188 80.953125 L 197 80.574219 L 196.882813 80.207031 L 196.765625 79.84375 L 196.652344 79.488281 L 196.535156 79.140625 L 196.421875 78.800781 L 196.308594 78.46875 L 196.199219 78.144531 L 196.085938 77.828125 L 195.976563 77.519531 L 195.867188 77.214844 L 195.761719 76.921875 L 195.65625 76.636719 L 195.550781 76.359375 L 195.449219 76.085938 L 195.347656 75.824219 L 195.246094 75.570313 L 195.148438 75.320313 L 195.054688 75.082031 L 194.960938 74.847656 L 194.867188 74.625 L 194.777344 74.40625 L 194.691406 74.195313 L 194.601563 73.996094 L 194.519531 73.800781 L 194.4375 73.613281 L 194.359375 73.433594 L 194.28125 73.261719 L 194.207031 73.097656 L 194.136719 72.9375 L 194.066406 72.789063 L 194 72.648438 L 193.9375 72.511719 L 193.875 72.386719 L 193.816406 72.265625 L 193.761719 72.152344 L 193.710938 72.046875 L 193.660156 71.949219 L 193.617188 71.859375 L 193.574219 71.773438 L 193.535156 71.699219 L 193.496094 71.628906 L 193.4375 71.511719 L 193.410156 71.464844 L 193.386719 71.421875 L 193.371094 71.390625 L 193.355469 71.363281 L 193.34375 71.34375 L 193.335938 71.332031 L 193.332031 71.324219 L 193.335938 71.328125 Z M 200.382813 94.625 "/>
    <path style=" stroke:none;fill-rule:evenodd;fill:rgb(100%,0%,0%);fill-opacity:1;" d="M 193.335938 71.328125 L 193.339844 71.335938 L 193.347656 71.347656 L 193.359375 71.371094 L 193.378906 71.398438 L 193.398438 71.433594 L 193.425781 71.476563 L 193.453125 71.523438 L 193.488281 71.578125 L 193.527344 71.640625 L 193.570313 71.707031 L 193.617188 71.78125 L 193.671875 71.863281 L 193.730469 71.949219 L 193.789063 72.042969 L 193.859375 72.144531 L 193.929688 72.25 L 194.007813 72.363281 L 194.085938 72.480469 L 194.175781 72.605469 L 194.265625 72.738281 L 194.363281 72.875 L 194.464844 73.015625 L 194.570313 73.164063 L 194.683594 73.320313 L 194.800781 73.480469 L 194.925781 73.644531 L 195.054688 73.816406 L 195.1875 73.996094 L 195.328125 74.179688 L 195.472656 74.367188 L 195.621094 74.5625 L 195.777344 74.761719 L 195.941406 74.964844 L 196.109375 75.175781 L 196.28125 75.390625 L 196.460938 75.613281 L 196.644531 75.839844 L 196.835938 76.070313 L 197.035156 76.304688 L 197.234375 76.546875 L 197.445313 76.792969 L 197.660156 77.042969 L 197.878906 77.300781 L 198.109375 77.5625 L 198.339844 77.828125 L 198.582031 78.097656 L 198.824219 78.371094 L 199.078125 78.652344 L 199.335938 78.933594 L 199.601563 79.222656 L 199.871094 79.515625 L 200.148438 79.8125 L 200.433594 80.113281 L 200.722656 80.417969 L 201.019531 80.726563 L 201.320313 81.039063 L 201.632813 81.359375 L 201.949219 81.679688 L 202.269531 82.003906 L 202.597656 82.332031 L 202.933594 82.664063 L 203.277344 83 L 203.628906 83.339844 L 203.984375 83.683594 L 204.347656 84.03125 L 204.714844 84.382813 L 205.09375 84.734375 L 205.476563 85.089844 L 205.863281 85.449219 L 206.261719 85.8125 L 206.664063 86.179688 L 207.074219 86.546875 L 207.492188 86.921875 L 207.917969 87.296875 L 208.347656 87.671875 L 208.785156 88.050781 L 209.230469 88.433594 L 209.683594 88.820313 L 210.140625 89.207031 L 210.605469 89.597656 Z M 193.335938 71.328125 "/>
    <path style=" stroke:none;fill-rule:evenodd;fill:rgb(100%,50.196078%,0%);fill-opacity:1;" d="M 210.605469 89.597656 L 211.078125 89.992188 L 211.558594 90.386719 L 212.046875 90.78125 L 212.539063 91.179688 L 213.039063 91.582031 L 213.546875 91.984375 L 214.0625 92.390625 L 214.585938 92.796875 L 215.113281 93.207031 L 215.648438 93.617188 L 216.191406 94.027344 L 216.742188 94.441406 L 217.300781 94.859375 L 217.863281 95.273438 L 218.433594 95.691406 L 219.011719 96.109375 L 219.597656 96.53125 L 220.1875 96.953125 L 220.789063 97.375 L 221.394531 97.800781 L 222.007813 98.222656 L 222.625 98.648438 L 223.253906 99.074219 L 223.886719 99.5 L 224.527344 99.929688 L 225.175781 100.355469 L 225.832031 100.785156 L 226.492188 101.214844 L 227.160156 101.644531 L 227.835938 102.074219 L 228.519531 102.503906 L 229.210938 102.933594 L 229.90625 103.363281 L 230.609375 103.792969 L 231.320313 104.222656 L 232.035156 104.652344 L 232.757813 105.082031 L 233.488281 105.511719 L 234.226563 105.941406 L 234.972656 106.371094 L 235.722656 106.796875 L 236.480469 107.226563 L 237.242188 107.652344 L 238.011719 108.078125 L 238.789063 108.503906 L 239.574219 108.929688 L 240.363281 109.351563 L 241.160156 109.773438 L 241.964844 110.195313 L 242.773438 110.617188 L 243.589844 111.035156 L 244.414063 111.457031 L 246.078125 112.289063 L 246.921875 112.703125 L 247.769531 113.113281 L 248.625 113.527344 L 249.484375 113.9375 L 250.351563 114.34375 L 251.226563 114.75 L 252.105469 115.152344 L 252.988281 115.554688 L 253.878906 115.957031 L 254.777344 116.355469 L 255.679688 116.753906 L 256.589844 117.144531 L 257.503906 117.539063 L 258.425781 117.929688 L 260.285156 118.703125 L 261.226563 119.085938 L 262.167969 119.464844 L 263.117188 119.84375 L 264.074219 120.21875 L 265.035156 120.589844 L 266 120.960938 L 266.972656 121.328125 L 267.949219 121.691406 L 268.933594 122.054688 L 269.921875 122.410156 Z M 210.605469 89.597656 "/>
    <path style=" stroke:none;fill-rule:evenodd;fill:rgb(100%,100%,0%);fill-opacity:1;" d="M 269.921875 122.410156 L 270.914063 122.765625 L 271.910156 123.121094 L 272.914063 123.46875 L 273.925781 123.816406 L 274.9375 124.15625 L 275.957031 124.496094 L 276.980469 124.832031 L 278.007813 125.167969 L 280.078125 125.824219 L 281.121094 126.144531 L 282.171875 126.464844 L 283.222656 126.78125 L 284.28125 127.09375 L 285.339844 127.398438 L 286.40625 127.703125 L 287.476563 128.003906 L 288.550781 128.300781 L 289.628906 128.59375 L 290.710938 128.882813 L 291.800781 129.167969 L 292.890625 129.449219 L 293.984375 129.726563 L 295.085938 130 L 296.1875 130.269531 L 297.296875 130.535156 L 298.40625 130.792969 L 299.519531 131.050781 L 301.761719 131.550781 L 302.886719 131.792969 L 304.015625 132.03125 L 305.148438 132.265625 L 306.28125 132.496094 L 308.5625 132.941406 L 309.707031 133.15625 L 310.855469 133.367188 L 312.007813 133.574219 L 313.160156 133.777344 L 314.316406 133.976563 L 315.476563 134.167969 L 316.640625 134.355469 L 317.804688 134.539063 L 318.972656 134.71875 L 321.316406 135.0625 L 322.492188 135.226563 L 323.667969 135.382813 L 324.847656 135.539063 L 326.027344 135.6875 L 327.210938 135.832031 L 329.585938 136.105469 L 330.777344 136.234375 L 333.160156 136.476563 L 334.355469 136.589844 L 335.550781 136.699219 L 336.75 136.800781 L 337.949219 136.898438 L 339.148438 136.992188 L 340.351563 137.082031 L 341.554688 137.164063 L 342.757813 137.242188 L 345.171875 137.382813 L 346.378906 137.445313 L 347.585938 137.5 L 348.792969 137.550781 L 350.003906 137.597656 L 351.214844 137.640625 L 352.425781 137.675781 L 354.847656 137.730469 L 356.058594 137.75 L 357.273438 137.765625 L 358.484375 137.773438 L 359.695313 137.777344 L 360.910156 137.777344 Z M 269.921875 122.410156 "/>
    <path style=" stroke:none;fill-rule:evenodd;fill:rgb(50.196078%,100%,0%);fill-opacity:1;" d="M 360.910156 137.777344 L 362.121094 137.769531 L 363.335938 137.757813 L 364.546875 137.742188 L 365.757813 137.71875 L 366.96875 137.691406 L 368.179688 137.65625 L 369.390625 137.617188 L 370.601563 137.574219 L 371.808594 137.527344 L 373.019531 137.472656 L 374.226563 137.414063 L 375.433594 137.347656 L 376.640625 137.277344 L 377.84375 137.203125 L 379.046875 137.125 L 380.25 137.039063 L 381.453125 136.949219 L 382.652344 136.851563 L 383.851563 136.75 L 385.046875 136.644531 L 386.242188 136.535156 L 387.4375 136.417969 L 388.628906 136.296875 L 389.820313 136.167969 L 391.007813 136.039063 L 392.195313 135.902344 L 394.5625 135.613281 L 395.742188 135.460938 L 396.921875 135.304688 L 398.097656 135.144531 L 399.269531 134.976563 L 400.441406 134.804688 L 401.613281 134.628906 L 402.777344 134.449219 L 403.941406 134.261719 L 405.101563 134.074219 L 406.261719 133.878906 L 407.417969 133.675781 L 408.570313 133.472656 L 409.71875 133.265625 L 410.863281 133.050781 L 412.007813 132.832031 L 413.148438 132.609375 L 414.285156 132.378906 L 415.417969 132.148438 L 416.550781 131.914063 L 417.675781 131.671875 L 418.800781 131.425781 L 419.921875 131.175781 L 421.035156 130.921875 L 422.148438 130.664063 L 423.257813 130.402344 L 424.363281 130.136719 L 425.464844 129.863281 L 426.5625 129.589844 L 427.65625 129.308594 L 428.746094 129.027344 L 430.910156 128.449219 L 431.988281 128.15625 L 434.128906 127.554688 L 435.191406 127.246094 L 436.25 126.9375 L 437.304688 126.621094 L 438.355469 126.304688 L 439.398438 125.984375 L 440.441406 125.660156 L 441.476563 125.332031 L 442.507813 125 L 443.53125 124.667969 L 444.554688 124.328125 L 445.570313 123.988281 L 446.582031 123.640625 L 448.589844 122.945313 L 450.574219 122.234375 L 451.558594 121.871094 Z M 360.910156 137.777344 "/>
    <path style=" stroke:none;fill-rule:evenodd;fill:rgb(0%,100%,0%);fill-opacity:1;" d="M 451.558594 121.871094 L 452.539063 121.507813 L 453.515625 121.144531 L 454.484375 120.777344 L 455.445313 120.402344 L 456.40625 120.03125 L 458.304688 119.273438 L 459.246094 118.894531 L 460.179688 118.507813 L 461.109375 118.121094 L 462.035156 117.734375 L 462.953125 117.34375 L 463.863281 116.949219 L 464.769531 116.554688 L 465.671875 116.15625 L 466.566406 115.757813 L 467.453125 115.355469 L 468.335938 114.953125 L 469.210938 114.546875 L 470.082031 114.140625 L 470.945313 113.730469 L 471.804688 113.320313 L 472.65625 112.910156 L 473.5 112.496094 L 474.339844 112.082031 L 475.171875 111.664063 L 475.996094 111.246094 L 476.816406 110.828125 L 477.628906 110.40625 L 478.4375 109.984375 L 479.238281 109.5625 L 480.03125 109.140625 L 480.820313 108.714844 L 481.597656 108.292969 L 482.371094 107.867188 L 483.140625 107.4375 L 483.902344 107.011719 L 484.65625 106.582031 L 485.402344 106.15625 L 486.140625 105.726563 L 486.875 105.296875 L 487.601563 104.867188 L 488.324219 104.4375 L 489.035156 104.007813 L 489.742188 103.578125 L 490.441406 103.148438 L 491.136719 102.71875 L 491.820313 102.289063 L 492.5 101.859375 L 493.171875 101.429688 L 493.839844 101 L 494.496094 100.570313 L 495.148438 100.144531 L 495.792969 99.714844 L 496.429688 99.289063 L 497.0625 98.863281 L 497.683594 98.4375 L 498.300781 98.011719 L 498.910156 97.585938 L 499.511719 97.164063 L 500.109375 96.742188 L 500.695313 96.320313 L 501.277344 95.902344 L 501.851563 95.484375 L 502.421875 95.066406 L 502.980469 94.648438 L 503.535156 94.234375 L 504.082031 93.824219 L 504.621094 93.410156 L 505.152344 93.003906 L 505.675781 92.59375 L 506.195313 92.1875 L 506.707031 91.785156 L 507.210938 91.382813 L 507.707031 90.980469 L 508.199219 90.582031 L 508.679688 90.1875 L 509.15625 89.792969 L 509.625 89.402344 L 510.089844 89.015625 Z M 451.558594 121.871094 "/>
    <path style=" stroke:none;fill-rule:evenodd;fill:rgb(0%,100%,50.196078%);fill-opacity:1;" d="M 510.089844 89.015625 L 510.542969 88.628906 L 510.992188 88.242188 L 511.433594 87.863281 L 511.867188 87.484375 L 512.296875 87.109375 L 512.71875 86.734375 L 513.128906 86.363281 L 513.539063 85.996094 L 513.9375 85.632813 L 514.332031 85.269531 L 514.71875 84.914063 L 515.097656 84.558594 L 515.46875 84.207031 L 515.835938 83.859375 L 516.195313 83.511719 L 516.546875 83.171875 L 516.894531 82.832031 L 517.234375 82.5 L 517.566406 82.167969 L 517.890625 81.839844 L 518.210938 81.519531 L 518.523438 81.199219 L 518.832031 80.882813 L 519.128906 80.574219 L 519.421875 80.265625 L 519.710938 79.960938 L 519.992188 79.664063 L 520.265625 79.367188 L 520.53125 79.078125 L 520.792969 78.792969 L 521.050781 78.511719 L 521.296875 78.234375 L 521.539063 77.960938 L 521.777344 77.695313 L 522.007813 77.429688 L 522.230469 77.171875 L 522.449219 76.917969 L 522.660156 76.667969 L 522.867188 76.425781 L 523.066406 76.1875 L 523.257813 75.953125 L 523.449219 75.726563 L 523.628906 75.5 L 523.804688 75.28125 L 523.976563 75.070313 L 524.140625 74.863281 L 524.300781 74.660156 L 524.453125 74.464844 L 524.601563 74.273438 L 524.742188 74.085938 L 524.878906 73.90625 L 525.011719 73.730469 L 525.136719 73.5625 L 525.257813 73.398438 L 525.371094 73.242188 L 525.480469 73.089844 L 525.585938 72.945313 L 525.6875 72.804688 L 525.78125 72.671875 L 525.871094 72.542969 L 525.953125 72.421875 L 526.03125 72.304688 L 526.105469 72.195313 L 526.175781 72.09375 L 526.242188 71.996094 L 526.300781 71.90625 L 526.355469 71.824219 L 526.40625 71.746094 L 526.453125 71.671875 L 526.492188 71.609375 L 526.527344 71.550781 L 526.5625 71.5 L 526.589844 71.453125 L 526.613281 71.414063 L 526.632813 71.382813 L 526.644531 71.359375 L 526.65625 71.339844 L 526.664063 71.328125 L 526.667969 71.324219 L 526.664063 71.328125 Z M 510.089844 89.015625 "/>
    <path style=" stroke:none;fill-rule:evenodd;fill:rgb(0%,100%,100%);fill-opacity:1;" d="M 526.664063 71.328125 L 526.652344 71.351563 L 526.636719 71.375 L 526.621094 71.40625 L 526.601563 71.441406 L 526.578125 71.488281 L 526.550781 71.539063 L 526.519531 71.597656 L 526.484375 71.664063 L 526.445313 71.734375 L 526.40625 71.816406 L 526.363281 71.902344 L 526.3125 71.996094 L 526.261719 72.097656 L 526.210938 72.207031 L 526.152344 72.324219 L 526.09375 72.449219 L 526.03125 72.578125 L 525.964844 72.71875 L 525.898438 72.863281 L 525.828125 73.015625 L 525.753906 73.175781 L 525.679688 73.347656 L 525.601563 73.523438 L 525.519531 73.707031 L 525.4375 73.894531 L 525.355469 74.09375 L 525.265625 74.300781 L 525.175781 74.515625 L 525.085938 74.734375 L 524.992188 74.964844 L 524.898438 75.199219 L 524.800781 75.445313 L 524.703125 75.695313 L 524.601563 75.957031 L 524.5 76.222656 L 524.398438 76.496094 L 524.292969 76.777344 L 524.183594 77.070313 L 524.078125 77.367188 L 523.96875 77.671875 L 523.859375 77.984375 L 523.746094 78.304688 L 523.632813 78.632813 L 523.519531 78.96875 L 523.40625 79.3125 L 523.292969 79.664063 L 523.175781 80.023438 L 523.058594 80.390625 L 522.941406 80.765625 L 522.824219 81.144531 L 522.703125 81.535156 L 522.585938 81.933594 L 522.464844 82.339844 L 522.347656 82.75 L 522.226563 83.171875 L 522.105469 83.601563 L 521.988281 84.035156 L 521.867188 84.480469 L 521.746094 84.929688 L 521.625 85.386719 L 521.507813 85.855469 L 521.386719 86.328125 L 521.269531 86.808594 L 521.148438 87.296875 L 521.03125 87.792969 L 520.914063 88.296875 L 520.796875 88.808594 L 520.679688 89.328125 L 520.5625 89.855469 L 520.449219 90.386719 L 520.335938 90.929688 L 520.222656 91.476563 L 520.109375 92.03125 L 519.996094 92.597656 L 519.886719 93.167969 L 519.777344 93.746094 L 519.671875 94.328125 L 519.566406 94.921875 L 519.460938 95.523438 Z M 526.664063 71.328125 "/>
    <path style=" stroke:none;fill-rule:evenodd;fill:rgb(0%,50.196078%,100%);fill-opacity:1;" d="M 519.460938 95.523438 L 519.359375 96.128906 L 519.253906 96.742188 L 519.15625 97.363281 L 519.058594 97.992188 L 518.960938 98.628906 L 518.867188 99.269531 L 518.773438 99.917969 L 518.679688 100.574219 L 518.59375 101.238281 L 518.503906 101.910156 L 518.417969 102.585938 L 518.335938 103.269531 L 518.257813 103.960938 L 518.179688 104.660156 L 518.101563 105.363281 L 518.027344 106.074219 L 517.957031 106.792969 L 517.886719 107.515625 L 517.824219 108.25 L 517.757813 108.988281 L 517.699219 109.730469 L 517.640625 110.480469 L 517.585938 111.238281 L 517.535156 112 L 517.484375 112.773438 L 517.4375 113.546875 L 517.394531 114.332031 L 517.355469 115.117188 L 517.316406 115.914063 L 517.285156 116.714844 L 517.253906 117.523438 L 517.226563 118.335938 L 517.203125 119.152344 L 517.183594 119.980469 L 517.167969 120.808594 L 517.152344 121.644531 L 517.144531 122.488281 L 517.136719 123.335938 L 517.136719 125.050781 L 517.140625 125.914063 L 517.152344 126.785156 L 517.164063 127.660156 L 517.179688 128.542969 L 517.199219 129.429688 L 517.226563 130.320313 L 517.253906 131.21875 L 517.289063 132.121094 L 517.324219 133.027344 L 517.367188 133.941406 L 517.410156 134.859375 L 517.460938 135.78125 L 517.515625 136.710938 L 517.574219 137.640625 L 517.636719 138.578125 L 517.703125 139.519531 L 517.777344 140.464844 L 517.851563 141.417969 L 517.933594 142.371094 L 518.019531 143.332031 L 518.109375 144.296875 L 518.203125 145.265625 L 518.304688 146.238281 L 518.410156 147.214844 L 518.519531 148.195313 L 518.632813 149.183594 L 518.75 150.171875 L 518.875 151.164063 L 519.003906 152.164063 L 519.136719 153.164063 L 519.273438 154.167969 L 519.417969 155.175781 L 519.566406 156.1875 L 519.71875 157.203125 L 519.878906 158.222656 L 520.042969 159.246094 L 520.210938 160.269531 L 520.386719 161.300781 L 520.566406 162.332031 L 520.75 163.367188 Z M 519.460938 95.523438 "/>
    <path style=" stroke:none;fill-rule:evenodd;fill:rgb(0%,0%,100%);fill-opacity:1;" d="M 520.75 163.367188 L 520.9375 164.40625 L 521.132813 165.445313 L 521.332031 166.492188 L 521.539063 167.539063 L 521.75 168.585938 L 521.964844 169.640625 L 522.1875 170.695313 L 522.414063 171.753906 L 522.644531 172.8125 L 522.882813 173.875 L 523.125 174.941406 L 523.375 176.007813 L 523.628906 177.078125 L 523.886719 178.148438 L 524.152344 179.222656 L 524.421875 180.296875 L 524.699219 181.375 L 524.980469 182.453125 L 525.265625 183.535156 L 525.558594 184.617188 L 525.855469 185.703125 L 526.160156 186.789063 L 526.46875 187.875 L 526.78125 188.964844 L 527.101563 190.054688 L 527.425781 191.144531 L 527.757813 192.238281 L 528.09375 193.332031 L 528.433594 194.425781 L 528.78125 195.519531 L 529.136719 196.617188 L 529.496094 197.714844 L 529.859375 198.8125 L 530.226563 199.910156 L 530.601563 201.007813 L 530.984375 202.109375 L 531.371094 203.207031 L 531.761719 204.308594 L 532.160156 205.410156 L 532.5625 206.507813 L 532.96875 207.609375 L 533.382813 208.710938 L 533.804688 209.8125 L 534.226563 210.910156 L 534.65625 212.011719 L 535.09375 213.113281 L 535.535156 214.210938 L 535.980469 215.3125 L 536.433594 216.410156 L 536.890625 217.507813 L 537.351563 218.605469 L 537.820313 219.703125 L 538.292969 220.800781 L 538.773438 221.894531 L 539.257813 222.988281 L 539.746094 224.082031 L 540.242188 225.175781 L 540.742188 226.265625 L 541.246094 227.359375 L 541.753906 228.445313 L 542.269531 229.535156 L 542.792969 230.621094 L 543.316406 231.703125 L 543.847656 232.789063 L 544.382813 233.871094 L 545.46875 236.027344 L 546.019531 237.105469 L 546.578125 238.179688 L 547.136719 239.25 L 547.703125 240.320313 L 548.273438 241.390625 L 548.847656 242.453125 L 549.429688 243.519531 L 550.011719 244.578125 L 550.601563 245.640625 L 551.195313 246.695313 L 551.796875 247.75 L 552.398438 248.800781 L 553.007813 249.851563 Z M 520.75 163.367188 "/>
    <path style=" stroke:none;fill-rule:evenodd;fill:rgb(50.196078%,0%,100%);fill-opacity:1;" d="M 553.007813 249.851563 L 553.621094 250.898438 L 554.238281 251.941406 L 554.859375 252.980469 L 555.484375 254.019531 L 556.117188 255.054688 L 556.75 256.085938 L 557.390625 257.113281 L 558.035156 258.140625 L 558.679688 259.160156 L 559.332031 260.179688 L 559.988281 261.195313 L 560.648438 262.207031 L 561.3125 263.21875 L 561.980469 264.222656 L 562.652344 265.222656 L 563.328125 266.222656 L 564.007813 267.214844 L 564.691406 268.207031 L 565.378906 269.195313 L 566.070313 270.175781 L 566.765625 271.15625 L 567.464844 272.132813 L 568.164063 273.101563 L 568.871094 274.070313 L 569.578125 275.03125 L 570.292969 275.992188 L 571.007813 276.945313 L 571.726563 277.894531 L 572.449219 278.84375 L 573.171875 279.785156 L 573.902344 280.722656 L 574.632813 281.652344 L 575.367188 282.582031 L 576.84375 284.425781 L 577.589844 285.339844 L 579.082031 287.152344 L 579.835938 288.050781 L 580.589844 288.945313 L 581.34375 289.835938 L 582.105469 290.722656 L 582.863281 291.601563 L 583.628906 292.476563 L 584.394531 293.347656 L 585.164063 294.214844 L 585.933594 295.074219 L 587.480469 296.777344 L 588.257813 297.621094 L 589.035156 298.460938 L 589.816406 299.292969 L 590.597656 300.121094 L 591.382813 300.945313 L 592.167969 301.761719 L 592.953125 302.574219 L 593.742188 303.378906 L 594.53125 304.179688 L 595.324219 304.976563 L 596.117188 305.765625 L 596.910156 306.550781 L 597.707031 307.328125 L 598.5 308.101563 L 599.296875 308.867188 L 600.097656 309.628906 L 600.894531 310.382813 L 601.695313 311.132813 L 602.496094 311.878906 L 603.296875 312.617188 L 604.101563 313.347656 L 604.902344 314.074219 L 605.707031 314.792969 L 606.507813 315.507813 L 607.3125 316.214844 L 608.117188 316.917969 L 608.921875 317.617188 L 609.726563 318.304688 L 610.53125 318.988281 L 611.332031 319.667969 L 612.136719 320.339844 Z M 553.007813 249.851563 "/>
    <path style=" stroke:none;fill-rule:evenodd;fill:rgb(100%,0%,100%);fill-opacity:1;" d="M 612.136719 320.339844 L 612.941406 321.007813 L 613.746094 321.667969 L 614.550781 322.320313 L 615.351563 322.96875 L 616.15625 323.609375 L 616.957031 324.246094 L 617.761719 324.875 L 618.5625 325.5 L 619.359375 326.117188 L 620.160156 326.726563 L 620.957031 327.332031 L 621.757813 327.929688 L 622.554688 328.523438 L 623.347656 329.109375 L 624.144531 329.6875 L 624.9375 330.261719 L 625.726563 330.828125 L 626.519531 331.390625 L 627.304688 331.945313 L 628.09375 332.496094 L 628.878906 333.039063 L 629.664063 333.574219 L 630.445313 334.105469 L 631.226563 334.628906 L 632.003906 335.148438 L 632.78125 335.660156 L 633.554688 336.164063 L 634.328125 336.664063 L 635.097656 337.15625 L 635.863281 337.644531 L 636.628906 338.125 L 637.394531 338.597656 L 638.152344 339.066406 L 638.910156 339.53125 L 639.667969 339.984375 L 640.417969 340.4375 L 641.917969 341.320313 L 642.660156 341.75 L 643.402344 342.175781 L 644.140625 342.597656 L 644.875 343.011719 L 645.605469 343.417969 L 646.335938 343.820313 L 647.058594 344.214844 L 647.78125 344.605469 L 648.5 344.988281 L 649.214844 345.367188 L 649.925781 345.742188 L 650.632813 346.105469 L 651.335938 346.46875 L 652.035156 346.820313 L 652.730469 347.171875 L 653.425781 347.515625 L 654.113281 347.851563 L 654.796875 348.183594 L 655.476563 348.511719 L 656.152344 348.832031 L 656.824219 349.144531 L 657.488281 349.453125 L 658.152344 349.757813 L 658.808594 350.058594 L 659.464844 350.351563 L 660.113281 350.636719 L 660.757813 350.917969 L 661.394531 351.195313 L 662.03125 351.464844 L 662.660156 351.730469 L 663.285156 351.992188 L 663.90625 352.25 L 664.519531 352.5 L 665.128906 352.742188 L 665.734375 352.984375 L 666.335938 353.21875 L 666.929688 353.449219 L 667.519531 353.671875 L 668.101563 353.890625 L 668.679688 354.105469 L 669.253906 354.316406 L 669.820313 354.523438 Z M 612.136719 320.339844 "/>
    <path style=" stroke:none;fill-rule:evenodd;fill:rgb(100%,0%,50.196078%);fill-opacity:1;" d="M 669.820313 354.523438 L 670.378906 354.722656 L 670.9375 354.917969 L 671.488281 355.109375 L 672.03125 355.292969 L 672.570313 355.476563 L 673.101563 355.652344 L 673.628906 355.824219 L 674.148438 355.992188 L 674.664063 356.15625 L 675.171875 356.316406 L 675.675781 356.472656 L 676.171875 356.621094 L 676.660156 356.769531 L 677.144531 356.910156 L 677.621094 357.046875 L 678.09375 357.183594 L 678.558594 357.3125 L 679.015625 357.4375 L 679.46875 357.558594 L 679.914063 357.679688 L 680.351563 357.792969 L 680.78125 357.902344 L 681.207031 358.011719 L 681.625 358.113281 L 682.039063 358.214844 L 682.441406 358.308594 L 682.839844 358.402344 L 683.230469 358.492188 L 683.617188 358.578125 L 683.992188 358.660156 L 684.363281 358.742188 L 684.726563 358.816406 L 685.082031 358.890625 L 685.429688 358.960938 L 685.773438 359.027344 L 686.105469 359.09375 L 686.433594 359.152344 L 686.753906 359.210938 L 687.066406 359.269531 L 687.371094 359.320313 L 687.671875 359.371094 L 687.960938 359.417969 L 688.246094 359.464844 L 688.519531 359.507813 L 688.789063 359.550781 L 689.050781 359.585938 L 689.304688 359.625 L 689.550781 359.65625 L 689.789063 359.691406 L 690.019531 359.71875 L 690.242188 359.746094 L 690.457031 359.773438 L 690.664063 359.796875 L 690.867188 359.820313 L 691.058594 359.839844 L 691.242188 359.859375 L 691.421875 359.878906 L 691.589844 359.894531 L 691.75 359.90625 L 691.90625 359.921875 L 692.050781 359.933594 L 692.1875 359.941406 L 692.320313 359.953125 L 692.441406 359.960938 L 692.558594 359.96875 L 692.664063 359.976563 L 692.761719 359.980469 L 692.855469 359.984375 L 692.9375 359.988281 L 693.011719 359.992188 L 693.078125 359.992188 L 693.140625 359.996094 L 693.191406 359.996094 L 693.234375 360 L 693.332031 360 Z M 669.820313 354.523438 "/>
  </g>
</svg>
