<?xml version="1.0" encoding="UTF-8"?>
<svg xmlns="http://www.w3.org/2000/svg" xmlns:xlink="http://www.w3.org/1999/xlink" width="100%" height="100%" viewBox="0 0 720 720" version="1.1">
  <g id="spiro_5_3_3_77355">
    <path style=" stroke:none;fill-rule:evenodd;fill:rgb(25.490196%,41.176471%,88.235294%);fill-opacity:1;" d="M 360 693.332031 L 359.914063 689.316406 L 359.324219 677.371094 L 357.753906 657.839844 L 354.769531 631.269531 L 350.027344 598.394531 L 343.269531 560.136719 L 334.34375 517.546875 L 323.238281 471.789063 L 310.050781 424.109375 L 295.019531 375.773438 L 278.507813 328.0625 L 260.992188 282.203125 L 243.050781 239.34375 L 225.335938 200.527344 L 208.5625 166.652344 L 193.476563 138.457031 L 180.8125 116.488281 L 171.285156 101.09375 L 165.550781 92.4375 L 164.167969 90.457031 L 167.589844 94.917969 L 176.125 105.394531 L 189.9375 121.304688 L 209.011719 141.929688 L 233.164063 166.445313 L 262.027344 193.945313 L 295.0625 223.488281 L 331.574219 254.121094 L 370.726563 284.902344 L 411.546875 314.957031 L 452.984375 343.488281 L 493.917969 369.800781 L 533.207031 393.332031 L 569.703125 413.65625 L 602.324219 430.488281 L 630.050781 443.703125 L 651.984375 453.324219 L 667.378906 459.507813 L 675.648438 462.539063 L 676.40625 462.8125 L 669.472656 460.796875 L 654.890625 457.035156 L 632.917969 452.09375 L 604.027344 446.542969 L 568.894531 440.9375 L 528.378906 435.777344 L 483.503906 431.503906 L 435.414063 428.453125 L 385.359375 426.867188 L 334.640625 426.867188 L 284.585938 428.453125 L 236.496094 431.503906 L 191.621094 435.777344 L 151.105469 440.9375 L 115.972656 446.542969 L 87.082031 452.09375 L 65.109375 457.035156 L 50.527344 460.796875 L 43.59375 462.8125 L 44.351563 462.539063 L 52.621094 459.507813 L 68.015625 453.324219 L 89.949219 443.703125 L 117.675781 430.488281 L 150.296875 413.65625 L 186.792969 393.332031 L 226.082031 369.800781 L 267.015625 343.488281 L 308.453125 314.957031 L 349.273438 284.902344 L 388.425781 254.121094 L 424.9375 223.488281 L 457.972656 193.945313 L 486.835938 166.445313 L 510.988281 141.929688 L 530.0625 121.304688 L 543.875 105.394531 L 552.410156 94.917969 L 555.832031 90.457031 L 554.449219 92.4375 L 548.714844 101.09375 L 539.1875 116.488281 L 526.523438 138.457031 L 511.4375 166.652344 L 494.664063 200.527344 L 476.949219 239.34375 L 459.007813 282.203125 L 441.492188 328.0625 L 424.980469 375.773438 L 409.949219 424.109375 L 396.761719 471.789063 L 385.65625 517.546875 L 376.730469 560.136719 L 369.972656 598.394531 L 365.230469 631.269531 L 362.246094 657.839844 L 360.675781 677.371094 L 360.085938 689.316406 Z M 360 693.332031 "/>
    <animateTransform attributeType="xml" attributeName="transform" type="rotate" from="0 360 277.2" to="360 360 277.2" dur="12s" additive="sum" repeatCount="indefinite"/>
    <circle fill="red"
cx="360"
cy="277.2"
r = "6"/>
  </g>
</svg>
