<?xml version="1.0" encoding="UTF-8"?>
<svg xmlns="http://www.w3.org/2000/svg" xmlns:xlink="http://www.w3.org/1999/xlink" width="100%" height="100%" viewBox="0 0 720 720" version="1.1">
  <g id="spiro_5_1_3.66666666666667_43723">
    <path style="fill:none;stroke-width:0.75;stroke-linecap:round;stroke-linejoin:round;stroke:rgb(100%,100%,100%);stroke-opacity:1;stroke-miterlimit:10;" d="M 346.214844 355.523438 L 344.925781 359.394531 L 343.578125 363.25 L 342.175781 367.082031 L 340.71875 370.890625 L 339.203125 374.679688 L 337.632813 378.441406 L 336.007813 382.175781 L 334.332031 385.882813 L 332.601563 389.566406 L 330.816406 393.214844 L 328.984375 396.835938 L 327.097656 400.425781 L 325.160156 403.980469 L 323.171875 407.5 L 321.136719 410.988281 L 319.050781 414.4375 L 316.921875 417.851563 L 314.742188 421.226563 L 312.515625 424.558594 L 310.246094 427.855469 L 307.933594 431.109375 L 305.574219 434.316406 L 303.171875 437.484375 L 300.730469 440.609375 L 298.246094 443.683594 L 295.726563 446.714844 L 293.164063 449.699219 L 290.5625 452.636719 L 287.925781 455.523438 L 285.253906 458.359375 L 282.546875 461.148438 L 279.804688 463.882813 L 277.03125 466.566406 L 274.226563 469.195313 L 271.390625 471.773438 L 268.523438 474.296875 L 265.628906 476.761719 L 262.707031 479.175781 L 259.761719 481.53125 L 256.789063 483.828125 L 253.792969 486.070313 L 250.773438 488.253906 L 247.730469 490.375 L 244.671875 492.441406 L 241.589844 494.445313 L 238.492188 496.390625 L 235.378906 498.273438 L 232.25 500.097656 L 229.105469 501.859375 L 225.949219 503.558594 L 222.78125 505.195313 L 219.601563 506.769531 L 216.414063 508.28125 L 213.21875 509.730469 L 210.019531 511.117188 L 206.8125 512.4375 L 203.601563 513.695313 L 200.386719 514.890625 L 197.171875 516.019531 L 193.957031 517.082031 L 190.742188 518.085938 L 187.53125 519.019531 L 184.324219 519.890625 L 181.121094 520.699219 L 177.925781 521.441406 L 174.734375 522.121094 L 171.558594 522.734375 L 168.386719 523.28125 L 165.230469 523.765625 L 162.085938 524.1875 L 158.957031 524.542969 L 155.839844 524.835938 L 152.742188 525.066406 L 149.660156 525.234375 L 146.601563 525.335938 L 143.558594 525.375 L 140.542969 525.355469 L 137.546875 525.269531 L 134.574219 525.125 L 131.628906 524.917969 L 128.710938 524.648438 L 125.816406 524.320313 L 122.957031 523.929688 L 120.125 523.480469 L 117.324219 522.972656 L 114.554688 522.410156 L 111.820313 521.785156 L 109.121094 521.101563 L 106.460938 520.363281 L 103.835938 519.570313 L 101.246094 518.71875 L 98.699219 517.816406 L 96.191406 516.855469 L 93.726563 515.84375 L 91.304688 514.78125 L 88.921875 513.664063 L 86.589844 512.496094 L 84.300781 511.277344 L 82.058594 510.011719 L 79.863281 508.695313 L 77.714844 507.328125 L 75.621094 505.917969 L 73.574219 504.460938 L 71.578125 502.957031 L 69.636719 501.414063 L 67.746094 499.824219 L 65.910156 498.191406 L 64.128906 496.519531 L 62.402344 494.804688 L 60.734375 493.050781 L 59.121094 491.261719 L 57.566406 489.433594 L 56.070313 487.566406 L 54.636719 485.667969 L 53.257813 483.734375 L 51.941406 481.769531 L 50.6875 479.769531 L 49.492188 477.742188 L 48.359375 475.683594 L 47.292969 473.597656 L 46.289063 471.484375 L 45.347656 469.347656 L 44.46875 467.183594 L 43.65625 464.992188 L 42.910156 462.785156 L 42.226563 460.550781 L 41.613281 458.300781 L 41.0625 456.03125 L 40.582031 453.742188 L 40.164063 451.441406 L 39.816406 449.121094 L 39.535156 446.789063 L 39.324219 444.441406 L 39.179688 442.085938 L 39.101563 439.71875 L 39.09375 437.34375 L 39.152344 434.960938 L 39.28125 432.574219 L 39.476563 430.179688 L 39.742188 427.785156 L 40.074219 425.382813 L 40.480469 422.984375 L 40.949219 420.582031 L 41.488281 418.183594 L 42.097656 415.789063 L 42.773438 413.394531 L 43.519531 411.007813 L 44.332031 408.628906 L 45.210938 406.257813 L 46.160156 403.894531 L 47.175781 401.539063 L 48.257813 399.199219 L 49.40625 396.871094 L 50.621094 394.554688 L 51.902344 392.257813 L 53.25 389.976563 L 54.664063 387.710938 L 56.140625 385.464844 L 57.683594 383.238281 L 59.289063 381.035156 L 60.960938 378.855469 L 62.695313 376.699219 L 64.488281 374.566406 L 66.347656 372.457031 L 68.265625 370.378906 L 70.246094 368.328125 L 72.285156 366.308594 L 74.382813 364.316406 L 76.539063 362.355469 L 78.753906 360.429688 L 81.027344 358.539063 L 83.359375 356.679688 L 85.742188 354.859375 L 88.183594 353.074219 L 90.675781 351.328125 L 93.226563 349.617188 L 95.824219 347.949219 L 98.476563 346.324219 L 101.179688 344.738281 L 103.929688 343.195313 L 106.730469 341.695313 L 109.582031 340.242188 L 112.476563 338.832031 L 115.417969 337.46875 L 118.40625 336.152344 L 121.4375 334.882813 L 124.511719 333.664063 L 127.625 332.496094 L 130.78125 331.375 L 133.980469 330.304688 L 137.214844 329.289063 L 140.484375 328.320313 L 143.792969 327.410156 L 147.140625 326.550781 L 150.515625 325.746094 L 153.929688 324.996094 L 157.371094 324.300781 L 160.84375 323.660156 L 164.347656 323.078125 L 167.878906 322.550781 L 171.4375 322.082031 L 175.019531 321.671875 L 178.628906 321.316406 L 182.257813 321.023438 L 185.914063 320.789063 L 189.585938 320.609375 L 193.28125 320.496094 L 196.992188 320.4375 L 200.71875 320.441406 L 204.464844 320.503906 L 208.222656 320.628906 L 211.996094 320.8125 L 215.777344 321.058594 L 219.570313 321.367188 L 223.375 321.734375 L 227.183594 322.164063 L 231.003906 322.65625 L 234.824219 323.210938 L 238.652344 323.824219 L 242.480469 324.5 L 246.308594 325.234375 L 250.140625 326.035156 L 253.96875 326.894531 L 257.792969 327.8125 L 261.617188 328.796875 L 265.433594 329.835938 L 269.242188 330.941406 L 273.046875 332.101563 L 276.835938 333.328125 L 280.621094 334.609375 L 284.390625 335.953125 L 288.148438 337.355469 L 291.890625 338.816406 L 295.617188 340.335938 L 299.328125 341.914063 L 303.023438 343.546875 L 306.695313 345.242188 L 310.347656 346.988281 L 313.980469 348.796875 L 317.585938 350.65625 L 321.171875 352.574219 L 324.730469 354.542969 L 328.261719 356.570313 L 331.765625 358.648438 L 335.238281 360.78125 L 338.683594 362.964844 L 342.097656 365.199219 L 345.480469 367.484375 L 348.828125 369.820313 L 352.140625 372.207031 " id="pathdot_1"/>
    <path style="fill:none;stroke-width:0.75;stroke-linecap:round;stroke-linejoin:round;stroke:rgb(100%,100%,100%);stroke-opacity:1;stroke-miterlimit:10;" d="M 352.140625 372.207031 L 355.417969 374.640625 L 358.660156 377.121094 L 361.863281 379.648438 L 365.03125 382.222656 L 368.15625 384.84375 L 371.238281 387.507813 L 374.28125 390.214844 L 377.28125 392.964844 L 380.238281 395.753906 L 383.152344 398.585938 L 386.019531 401.460938 L 388.839844 404.371094 L 391.613281 407.320313 L 394.339844 410.304688 L 397.015625 413.324219 L 399.640625 416.378906 L 402.21875 419.46875 L 404.746094 422.589844 L 407.21875 425.742188 L 409.640625 428.925781 L 412.007813 432.136719 L 414.320313 435.378906 L 416.578125 438.644531 L 418.785156 441.9375 L 420.933594 445.253906 L 423.023438 448.597656 L 425.058594 451.957031 L 427.035156 455.34375 L 428.957031 458.746094 L 430.816406 462.167969 L 432.617188 465.609375 L 434.359375 469.0625 L 436.042969 472.535156 L 437.667969 476.019531 L 439.230469 479.515625 L 440.730469 483.019531 L 442.167969 486.539063 L 443.546875 490.0625 L 444.863281 493.597656 L 446.121094 497.132813 L 447.3125 500.675781 L 448.441406 504.222656 L 449.511719 507.773438 L 450.515625 511.320313 L 451.457031 514.871094 L 452.339844 518.414063 L 453.15625 521.957031 L 453.910156 525.496094 L 454.601563 529.03125 L 455.230469 532.554688 L 455.792969 536.074219 L 456.296875 539.582031 L 456.738281 543.078125 L 457.117188 546.5625 L 457.429688 550.03125 L 457.683594 553.488281 L 457.875 556.925781 L 458.003906 560.347656 L 458.074219 563.75 L 458.082031 567.132813 L 458.027344 570.496094 L 457.914063 573.832031 L 457.738281 577.148438 L 457.503906 580.4375 L 457.210938 583.703125 L 456.859375 586.9375 L 456.449219 590.148438 L 455.980469 593.324219 L 455.453125 596.46875 L 454.871094 599.585938 L 454.234375 602.664063 L 453.539063 605.710938 L 452.789063 608.722656 L 451.984375 611.695313 L 451.125 614.628906 L 450.210938 617.527344 L 449.246094 620.382813 L 448.230469 623.199219 L 447.164063 625.96875 L 446.046875 628.699219 L 444.878906 631.382813 L 443.664063 634.023438 L 442.398438 636.613281 L 441.089844 639.160156 L 439.730469 641.65625 L 438.328125 644.105469 L 436.882813 646.5 L 435.390625 648.847656 L 433.859375 651.140625 L 432.28125 653.382813 L 430.667969 655.570313 L 429.011719 657.703125 L 427.316406 659.777344 L 425.585938 661.800781 L 423.816406 663.765625 L 422.011719 665.671875 L 420.171875 667.519531 L 418.300781 669.308594 L 416.394531 671.035156 L 414.460938 672.703125 L 412.492188 674.3125 L 410.496094 675.855469 L 408.472656 677.339844 L 406.421875 678.761719 L 404.347656 680.117188 L 402.246094 681.410156 L 400.121094 682.640625 L 397.976563 683.804688 L 395.808594 684.902344 L 393.621094 685.933594 L 391.417969 686.902344 L 389.195313 687.800781 L 386.957031 688.632813 L 384.703125 689.402344 L 382.4375 690.097656 L 380.15625 690.730469 L 377.867188 691.292969 L 375.566406 691.789063 L 373.257813 692.214844 L 370.941406 692.574219 L 368.621094 692.863281 L 366.296875 693.082031 L 363.964844 693.234375 L 361.632813 693.316406 L 359.300781 693.332031 L 356.96875 693.273438 L 354.636719 693.152344 L 352.308594 692.957031 L 349.984375 692.695313 L 347.667969 692.367188 L 345.355469 691.96875 L 343.050781 691.5 L 340.757813 690.964844 L 338.472656 690.359375 L 336.203125 689.6875 L 333.941406 688.949219 L 331.699219 688.144531 L 329.46875 687.269531 L 327.257813 686.328125 L 325.0625 685.324219 L 322.886719 684.25 L 320.734375 683.113281 L 318.601563 681.910156 L 316.492188 680.644531 L 314.40625 679.3125 L 312.34375 677.917969 L 310.308594 676.457031 L 308.300781 674.9375 L 306.324219 673.355469 L 304.375 671.710938 L 302.457031 670.003906 L 300.570313 668.242188 L 298.71875 666.417969 L 296.902344 664.535156 L 295.117188 662.59375 L 293.371094 660.59375 L 291.660156 658.539063 L 289.992188 656.429688 L 288.359375 654.261719 L 286.765625 652.042969 L 285.21875 649.769531 L 283.710938 647.445313 L 282.246094 645.070313 L 280.824219 642.640625 L 279.449219 640.164063 L 278.117188 637.636719 L 276.835938 635.066406 L 275.601563 632.445313 L 274.414063 629.777344 L 273.277344 627.066406 L 272.1875 624.3125 L 271.152344 621.511719 L 270.167969 618.675781 L 269.234375 615.792969 L 268.355469 612.875 L 267.527344 609.914063 L 266.753906 606.921875 L 266.039063 603.886719 L 265.375 600.820313 L 264.769531 597.71875 L 264.222656 594.585938 L 263.730469 591.421875 L 263.296875 588.226563 L 262.921875 585 L 262.605469 581.746094 L 262.347656 578.46875 L 262.148438 575.164063 L 262.011719 571.832031 L 261.933594 568.480469 L 261.914063 565.105469 L 261.960938 561.710938 L 262.066406 558.296875 L 262.230469 554.863281 L 262.460938 551.414063 L 262.75 547.949219 L 263.101563 544.472656 L 263.519531 540.980469 L 263.996094 537.476563 L 264.535156 533.964844 L 265.140625 530.441406 L 265.804688 526.910156 L 266.535156 523.375 L 267.328125 519.832031 L 268.183594 516.289063 L 269.097656 512.742188 L 270.078125 509.191406 L 271.121094 505.644531 L 272.226563 502.09375 L 273.394531 498.550781 L 274.625 495.011719 L 275.917969 491.476563 L 277.269531 487.945313 L 278.6875 484.425781 L 280.164063 480.914063 L 281.703125 477.414063 L 283.300781 473.925781 L 284.957031 470.449219 L 286.675781 466.988281 L 288.457031 463.542969 L 290.292969 460.113281 L 292.1875 456.703125 L 294.144531 453.308594 L 296.15625 449.9375 L 298.222656 446.589844 L 300.351563 443.261719 L 302.53125 439.960938 L 304.769531 436.679688 L 307.0625 433.429688 L 309.40625 430.207031 L 311.808594 427.011719 L 314.261719 423.847656 L 316.765625 420.714844 L 319.320313 417.609375 L 321.929688 414.542969 L 324.585938 411.507813 L 327.292969 408.507813 L 330.046875 405.546875 L 332.847656 402.621094 L 335.695313 399.730469 L 338.589844 396.882813 L 341.53125 394.074219 L 344.511719 391.308594 L 347.539063 388.585938 L 350.605469 385.902344 L 353.714844 383.265625 L 356.863281 380.671875 L 360.054688 378.125 L 363.28125 375.625 L 366.542969 373.171875 L 369.84375 370.769531 " id="pathdot_2"/>
    <path style="fill:none;stroke-width:0.75;stroke-linecap:round;stroke-linejoin:round;stroke:rgb(100%,100%,100%);stroke-opacity:1;stroke-miterlimit:10;" d="M 369.84375 370.769531 L 373.175781 368.414063 L 376.546875 366.105469 L 379.945313 363.851563 L 383.378906 361.648438 L 386.84375 359.496094 L 390.335938 357.394531 L 393.855469 355.347656 L 397.402344 353.355469 L 400.976563 351.417969 L 404.574219 349.535156 L 408.195313 347.707031 L 411.839844 345.933594 L 415.507813 344.21875 L 419.191406 342.558594 L 422.894531 340.960938 L 426.617188 339.417969 L 430.351563 337.933594 L 434.105469 336.507813 L 437.871094 335.140625 L 441.648438 333.832031 L 445.4375 332.585938 L 449.234375 331.398438 L 453.042969 330.269531 L 456.855469 329.203125 L 460.675781 328.199219 L 464.5 327.253906 L 468.328125 326.371094 L 472.15625 325.546875 L 475.988281 324.785156 L 479.816406 324.085938 L 483.644531 323.449219 L 487.46875 322.871094 L 491.289063 322.355469 L 495.101563 321.898438 L 498.90625 321.507813 L 502.707031 321.175781 L 506.492188 320.90625 L 510.269531 320.695313 L 514.035156 320.546875 L 517.785156 320.460938 L 521.519531 320.433594 L 525.238281 320.464844 L 528.9375 320.558594 L 532.621094 320.710938 L 536.28125 320.921875 L 539.921875 321.191406 L 543.539063 321.523438 L 547.132813 321.910156 L 550.703125 322.355469 L 554.242188 322.859375 L 557.757813 323.421875 L 561.242188 324.035156 L 564.699219 324.710938 L 568.121094 325.4375 L 571.515625 326.222656 L 574.871094 327.058594 L 578.195313 327.949219 L 581.480469 328.894531 L 584.730469 329.890625 L 587.945313 330.941406 L 591.117188 332.039063 L 594.25 333.191406 L 597.339844 334.390625 L 600.386719 335.640625 L 603.390625 336.9375 L 606.351563 338.28125 L 609.265625 339.671875 L 612.132813 341.109375 L 614.953125 342.589844 L 617.726563 344.117188 L 620.449219 345.683594 L 623.121094 347.292969 L 625.742188 348.945313 L 628.308594 350.640625 L 630.824219 352.371094 L 633.289063 354.140625 L 635.695313 355.945313 L 638.046875 357.789063 L 640.34375 359.667969 L 642.582031 361.582031 L 644.761719 363.527344 L 646.882813 365.507813 L 648.945313 367.515625 L 650.949219 369.554688 L 652.894531 371.625 L 654.773438 373.71875 L 656.59375 375.839844 L 658.355469 377.988281 L 660.046875 380.160156 L 661.679688 382.355469 L 663.25 384.574219 L 664.753906 386.808594 L 666.191406 389.066406 L 667.566406 391.34375 L 668.875 393.636719 L 670.117188 395.941406 L 671.292969 398.265625 L 672.402344 400.601563 L 673.441406 402.949219 L 674.417969 405.308594 L 675.324219 407.679688 L 676.164063 410.054688 L 676.9375 412.441406 L 677.640625 414.832031 L 678.277344 417.226563 L 678.84375 419.621094 L 679.339844 422.023438 L 679.769531 424.421875 L 680.132813 426.824219 L 680.425781 429.222656 L 680.648438 431.617188 L 680.804688 434.007813 L 680.890625 436.394531 L 680.910156 438.769531 L 680.859375 441.140625 L 680.742188 443.5 L 680.558594 445.851563 L 680.304688 448.1875 L 679.984375 450.515625 L 679.59375 452.824219 L 679.136719 455.117188 L 678.617188 457.394531 L 678.027344 459.652344 L 677.371094 461.894531 L 676.652344 464.113281 L 675.863281 466.308594 L 675.011719 468.484375 L 674.097656 470.632813 L 673.117188 472.757813 L 672.074219 474.855469 L 670.96875 476.921875 L 669.796875 478.964844 L 668.566406 480.972656 L 667.277344 482.953125 L 665.921875 484.898438 L 664.511719 486.8125 L 663.039063 488.691406 L 661.507813 490.535156 L 659.917969 492.339844 L 658.269531 494.109375 L 656.566406 495.835938 L 654.808594 497.527344 L 652.996094 499.175781 L 651.125 500.78125 L 649.203125 502.34375 L 647.230469 503.867188 L 645.203125 505.339844 L 643.128906 506.769531 L 641 508.152344 L 638.828125 509.488281 L 636.601563 510.777344 L 634.332031 512.015625 L 632.015625 513.203125 L 629.652344 514.339844 L 627.25 515.425781 L 624.800781 516.457031 L 622.308594 517.4375 L 619.777344 518.367188 L 617.207031 519.238281 L 614.59375 520.054688 L 611.945313 520.8125 L 609.261719 521.519531 L 606.542969 522.164063 L 603.789063 522.753906 L 601 523.285156 L 598.179688 523.757813 L 595.332031 524.171875 L 592.449219 524.523438 L 589.542969 524.816406 L 586.605469 525.046875 L 583.644531 525.21875 L 580.660156 525.328125 L 577.648438 525.375 L 574.617188 525.359375 L 571.566406 525.28125 L 568.492188 525.140625 L 565.402344 524.9375 L 562.292969 524.667969 L 559.167969 524.339844 L 556.027344 523.941406 L 552.875 523.484375 L 549.710938 522.960938 L 546.535156 522.371094 L 543.351563 521.71875 L 540.160156 521.003906 L 536.957031 520.222656 L 533.753906 519.375 L 530.542969 518.464844 L 527.328125 517.492188 L 524.113281 516.453125 L 520.898438 515.347656 L 517.683594 514.179688 L 514.472656 512.949219 L 511.265625 511.652344 L 508.058594 510.292969 L 504.863281 508.871094 L 501.671875 507.382813 L 498.488281 505.832031 L 495.316406 504.222656 L 492.15625 502.546875 L 489.007813 500.808594 L 485.871094 499.011719 L 482.75 497.152344 L 479.644531 495.230469 L 476.558594 493.25 L 473.492188 491.210938 L 470.441406 489.109375 L 467.414063 486.949219 L 464.40625 484.730469 L 461.425781 482.457031 L 458.46875 480.125 L 455.535156 477.734375 L 452.628906 475.289063 L 449.753906 472.789063 L 446.90625 470.234375 L 444.085938 467.625 L 441.300781 464.960938 L 438.546875 462.25 L 435.824219 459.480469 L 433.136719 456.664063 L 430.488281 453.796875 L 427.871094 450.878906 L 425.296875 447.914063 L 422.757813 444.902344 L 420.257813 441.84375 L 417.796875 438.738281 L 415.382813 435.589844 L 413.007813 432.398438 L 410.675781 429.160156 L 408.386719 425.882813 L 406.144531 422.5625 L 403.945313 419.207031 L 401.792969 415.808594 L 399.691406 412.371094 L 397.636719 408.902344 L 395.628906 405.394531 L 393.671875 401.851563 L 391.765625 398.277344 L 389.910156 394.667969 L 388.105469 391.027344 L 386.355469 387.359375 L 384.65625 383.664063 L 383.011719 379.9375 L 381.417969 376.1875 L 379.882813 372.410156 L 378.402344 368.609375 L 376.976563 364.785156 L 375.605469 360.9375 L 374.292969 357.074219 L 373.035156 353.1875 " id="pathdot_3"/>
    <path style="fill:none;stroke-width:0.75;stroke-linecap:round;stroke-linejoin:round;stroke:rgb(100%,100%,100%);stroke-opacity:1;stroke-miterlimit:10;" d="M 373.035156 353.1875 L 371.839844 349.285156 L 370.699219 345.367188 L 369.613281 341.433594 L 368.589844 337.484375 L 367.625 333.523438 L 366.71875 329.550781 L 365.875 325.566406 L 365.085938 321.574219 L 364.359375 317.578125 L 363.691406 313.570313 L 363.085938 309.5625 L 362.539063 305.546875 L 362.050781 301.53125 L 361.625 297.511719 L 361.257813 293.496094 L 360.953125 289.480469 L 360.707031 285.46875 L 360.523438 281.460938 L 360.398438 277.460938 L 360.335938 273.464844 L 360.332031 269.476563 L 360.390625 265.5 L 360.507813 261.53125 L 360.683594 257.578125 L 360.917969 253.636719 L 361.210938 249.710938 L 361.566406 245.800781 L 361.980469 241.90625 L 362.449219 238.035156 L 362.980469 234.179688 L 363.566406 230.347656 L 364.210938 226.535156 L 364.914063 222.75 L 365.667969 218.988281 L 366.484375 215.25 L 367.351563 211.542969 L 368.277344 207.863281 L 369.253906 204.210938 L 370.289063 200.59375 L 371.375 197.003906 L 372.511719 193.449219 L 373.703125 189.929688 L 374.945313 186.449219 L 376.238281 183 L 377.582031 179.589844 L 378.972656 176.21875 L 380.414063 172.890625 L 381.902344 169.601563 L 383.441406 166.351563 L 385.023438 163.148438 L 386.648438 159.988281 L 388.324219 156.875 L 390.039063 153.804688 L 391.796875 150.78125 L 393.601563 147.808594 L 395.441406 144.882813 L 397.324219 142.007813 L 399.246094 139.1875 L 401.207031 136.414063 L 403.203125 133.691406 L 405.238281 131.027344 L 407.304688 128.414063 L 409.410156 125.855469 L 411.546875 123.355469 L 413.714844 120.910156 L 415.914063 118.519531 L 418.144531 116.191406 L 420.402344 113.917969 L 422.6875 111.707031 L 425 109.554688 L 427.335938 107.460938 L 429.699219 105.429688 L 432.085938 103.460938 L 434.492188 101.550781 L 436.921875 99.707031 L 439.367188 97.925781 L 441.835938 96.207031 L 444.316406 94.554688 L 446.816406 92.964844 L 449.332031 91.4375 L 451.859375 89.980469 L 454.398438 88.585938 L 456.949219 87.257813 L 459.507813 85.996094 L 462.078125 84.800781 L 464.652344 83.671875 L 467.234375 82.609375 L 469.824219 81.613281 L 472.414063 80.6875 L 475.003906 79.828125 L 477.597656 79.035156 L 480.191406 78.308594 L 482.78125 77.652344 L 485.367188 77.0625 L 487.953125 76.539063 L 490.53125 76.085938 L 493.101563 75.699219 L 495.664063 75.378906 L 498.21875 75.125 L 500.761719 74.941406 L 503.292969 74.824219 L 505.808594 74.773438 L 508.3125 74.789063 L 510.800781 74.871094 L 513.269531 75.019531 L 515.722656 75.234375 L 518.152344 75.515625 L 520.566406 75.863281 L 522.957031 76.273438 L 525.320313 76.75 L 527.664063 77.289063 L 529.980469 77.890625 L 532.269531 78.558594 L 534.53125 79.289063 L 536.765625 80.082031 L 538.96875 80.933594 L 541.140625 81.847656 L 543.277344 82.824219 L 545.382813 83.859375 L 547.453125 84.957031 L 549.484375 86.109375 L 551.480469 87.324219 L 553.441406 88.59375 L 555.359375 89.917969 L 557.238281 91.300781 L 559.078125 92.738281 L 560.875 94.230469 L 562.625 95.777344 L 564.335938 97.375 L 565.996094 99.027344 L 567.613281 100.726563 L 569.183594 102.480469 L 570.707031 104.28125 L 572.179688 106.132813 L 573.601563 108.03125 L 574.976563 109.972656 L 576.296875 111.964844 L 577.566406 113.996094 L 578.78125 116.074219 L 579.941406 118.195313 L 581.050781 120.359375 L 582.101563 122.5625 L 583.097656 124.804688 L 584.039063 127.085938 L 584.917969 129.402344 L 585.742188 131.757813 L 586.507813 134.148438 L 587.214844 136.570313 L 587.859375 139.027344 L 588.445313 141.515625 L 588.972656 144.035156 L 589.433594 146.582031 L 589.835938 149.15625 L 590.175781 151.761719 L 590.453125 154.390625 L 590.667969 157.042969 L 590.816406 159.71875 L 590.902344 162.417969 L 590.921875 165.136719 L 590.878906 167.875 L 590.773438 170.632813 L 590.601563 173.40625 L 590.363281 176.195313 L 590.058594 179 L 589.6875 181.816406 L 589.253906 184.648438 L 588.75 187.488281 L 588.183594 190.335938 L 587.550781 193.195313 L 586.851563 196.058594 L 586.085938 198.929688 L 585.253906 201.804688 L 584.355469 204.683594 L 583.390625 207.5625 L 582.359375 210.441406 L 581.261719 213.320313 L 580.097656 216.195313 L 578.871094 219.066406 L 577.578125 221.9375 L 576.21875 224.796875 L 574.792969 227.652344 L 573.304688 230.5 L 571.753906 233.335938 L 570.136719 236.160156 L 568.453125 238.972656 L 566.710938 241.773438 L 564.902344 244.558594 L 563.03125 247.324219 L 561.097656 250.078125 L 559.105469 252.808594 L 557.050781 255.523438 L 554.933594 258.214844 L 552.757813 260.882813 L 550.519531 263.53125 L 548.226563 266.152344 L 545.871094 268.75 L 543.460938 271.320313 L 540.992188 273.859375 L 538.46875 276.375 L 535.886719 278.855469 L 533.25 281.308594 L 530.5625 283.726563 L 527.816406 286.113281 L 525.023438 288.464844 L 522.171875 290.78125 L 519.273438 293.0625 L 516.324219 295.304688 L 513.324219 297.511719 L 510.277344 299.675781 L 507.183594 301.800781 L 504.042969 303.886719 L 500.855469 305.925781 L 497.621094 307.925781 L 494.34375 309.878906 L 491.027344 311.789063 L 487.667969 313.65625 L 484.265625 315.472656 L 480.824219 317.246094 L 477.34375 318.96875 L 473.828125 320.644531 L 470.273438 322.269531 L 466.6875 323.84375 L 463.0625 325.367188 L 459.40625 326.84375 L 455.71875 328.261719 L 452 329.632813 L 448.253906 330.945313 L 444.476563 332.207031 L 440.671875 333.414063 L 436.84375 334.566406 L 432.988281 335.664063 L 429.109375 336.703125 L 425.210938 337.6875 L 421.289063 338.617188 L 417.347656 339.488281 L 413.386719 340.300781 L 409.410156 341.054688 L 405.417969 341.75 L 401.410156 342.390625 L 397.390625 342.96875 L 393.359375 343.488281 L 389.3125 343.949219 L 385.261719 344.351563 L 381.199219 344.695313 L 377.132813 344.976563 L 373.058594 345.199219 L 368.980469 345.363281 L 364.898438 345.464844 L 360.816406 345.507813 L 356.734375 345.488281 " id="pathdot_4"/>
    <path style="fill:none;stroke-width:0.75;stroke-linecap:round;stroke-linejoin:round;stroke:rgb(100%,100%,100%);stroke-opacity:1;stroke-miterlimit:10;" d="M 356.734375 345.488281 L 352.652344 345.410156 L 348.574219 345.273438 L 344.496094 345.074219 L 340.425781 344.816406 L 336.363281 344.496094 L 332.304688 344.117188 L 328.257813 343.679688 L 324.222656 343.183594 L 320.195313 342.628906 L 316.183594 342.015625 L 312.183594 341.339844 L 308.199219 340.609375 L 304.234375 339.820313 L 300.285156 338.972656 L 296.355469 338.066406 L 292.449219 337.105469 L 288.558594 336.085938 L 284.695313 335.011719 L 280.855469 333.882813 L 277.042969 332.699219 L 273.253906 331.457031 L 269.496094 330.164063 L 265.765625 328.816406 L 262.0625 327.417969 L 258.394531 325.964844 L 254.757813 324.460938 L 251.15625 322.90625 L 247.589844 321.300781 L 244.058594 319.644531 L 240.5625 317.941406 L 237.105469 316.1875 L 233.6875 314.390625 L 230.3125 312.542969 L 226.976563 310.648438 L 223.683594 308.714844 L 220.433594 306.730469 L 217.226563 304.707031 L 214.066406 302.640625 L 210.953125 300.53125 L 207.886719 298.382813 L 204.871094 296.191406 L 201.898438 293.964844 L 198.980469 291.699219 L 196.113281 289.398438 L 193.292969 287.058594 L 190.53125 284.6875 L 187.816406 282.28125 L 185.160156 279.839844 L 182.558594 277.371094 L 180.011719 274.871094 L 177.519531 272.339844 L 175.085938 269.78125 L 172.707031 267.195313 L 170.390625 264.582031 L 168.128906 261.945313 L 165.929688 259.285156 L 163.789063 256.601563 L 161.710938 253.894531 L 159.691406 251.171875 L 157.734375 248.429688 L 155.839844 245.667969 L 154.003906 242.886719 L 152.234375 240.09375 L 150.53125 237.289063 L 148.886719 234.46875 L 147.308594 231.636719 L 145.792969 228.792969 L 144.34375 225.941406 L 142.957031 223.082031 L 141.636719 220.214844 L 140.382813 217.34375 L 139.195313 214.46875 L 138.074219 211.59375 L 137.015625 208.710938 L 136.023438 205.832031 L 135.097656 202.957031 L 134.242188 200.078125 L 133.449219 197.207031 L 132.722656 194.339844 L 132.0625 191.480469 L 131.46875 188.625 L 130.941406 185.78125 L 130.476563 182.949219 L 130.082031 180.125 L 129.753906 177.316406 L 129.488281 174.519531 L 129.289063 171.738281 L 129.15625 168.976563 L 129.085938 166.230469 L 129.082031 163.5 L 129.140625 160.792969 L 129.265625 158.109375 L 129.453125 155.445313 L 129.707031 152.808594 L 130.019531 150.195313 L 130.398438 147.609375 L 130.835938 145.050781 L 131.335938 142.519531 L 131.898438 140.019531 L 132.519531 137.550781 L 133.203125 135.113281 L 133.941406 132.710938 L 134.742188 130.339844 L 135.601563 128.007813 L 136.519531 125.710938 L 137.492188 123.453125 L 138.523438 121.234375 L 139.609375 119.058594 L 140.746094 116.917969 L 141.941406 114.824219 L 143.191406 112.773438 L 144.492188 110.765625 L 145.84375 108.800781 L 147.246094 106.886719 L 148.699219 105.015625 L 150.203125 103.195313 L 151.75 101.421875 L 153.351563 99.699219 L 154.996094 98.03125 L 156.683594 96.410156 L 158.421875 94.84375 L 160.199219 93.328125 L 162.019531 91.871094 L 163.882813 90.464844 L 165.785156 89.117188 L 167.730469 87.824219 L 169.710938 86.589844 L 171.730469 85.410156 L 173.785156 84.292969 L 175.875 83.230469 L 178 82.230469 L 180.160156 81.292969 L 182.351563 80.414063 L 184.570313 79.597656 L 186.820313 78.84375 L 189.101563 78.152344 L 191.40625 77.523438 L 193.738281 76.957031 L 196.09375 76.457031 L 198.476563 76.019531 L 200.878906 75.648438 L 203.304688 75.339844 L 205.746094 75.097656 L 208.210938 74.921875 L 210.691406 74.8125 L 213.1875 74.769531 L 215.699219 74.796875 L 218.226563 74.886719 L 220.765625 75.042969 L 223.3125 75.269531 L 225.871094 75.5625 L 228.441406 75.921875 L 231.015625 76.347656 L 233.597656 76.84375 L 236.183594 77.40625 L 238.773438 78.039063 L 241.363281 78.734375 L 243.957031 79.5 L 246.550781 80.335938 L 249.140625 81.234375 L 251.730469 82.203125 L 254.3125 83.238281 L 256.890625 84.339844 L 259.464844 85.507813 L 262.027344 86.746094 L 264.582031 88.046875 L 267.128906 89.414063 L 269.660156 90.847656 L 272.179688 92.347656 L 274.683594 93.910156 L 277.175781 95.539063 L 279.648438 97.230469 L 282.101563 98.988281 L 284.539063 100.808594 L 286.953125 102.691406 L 289.347656 104.632813 L 291.71875 106.640625 L 294.066406 108.710938 L 296.390625 110.839844 L 298.6875 113.027344 L 300.957031 115.273438 L 303.199219 117.582031 L 305.410156 119.945313 L 307.589844 122.371094 L 309.738281 124.847656 L 311.855469 127.382813 L 313.9375 129.976563 L 315.988281 132.621094 L 318 135.320313 L 319.972656 138.070313 L 321.910156 140.875 L 323.808594 143.726563 L 325.667969 146.632813 L 327.484375 149.585938 L 329.261719 152.589844 L 330.996094 155.640625 L 332.6875 158.738281 L 334.332031 161.878906 L 335.933594 165.066406 L 337.488281 168.296875 L 338.996094 171.570313 L 340.457031 174.882813 L 341.867188 178.238281 L 343.230469 181.632813 L 344.542969 185.0625 L 345.804688 188.535156 L 347.019531 192.039063 L 348.175781 195.578125 L 349.285156 199.152344 L 350.339844 202.761719 L 351.339844 206.398438 L 352.285156 210.066406 L 353.175781 213.765625 L 354.011719 217.488281 L 354.792969 221.242188 L 355.515625 225.019531 L 356.183594 228.820313 L 356.792969 232.644531 L 357.34375 236.488281 L 357.839844 240.355469 L 358.273438 244.242188 L 358.652344 248.144531 L 358.972656 252.066406 L 359.230469 256 L 359.429688 259.949219 L 359.570313 263.910156 L 359.652344 267.882813 L 359.671875 271.867188 L 359.632813 275.859375 L 359.53125 279.859375 L 359.371094 283.867188 L 359.152344 287.875 L 358.871094 291.890625 L 358.527344 295.90625 L 358.128906 299.921875 L 357.664063 303.941406 L 357.140625 307.957031 L 356.558594 311.96875 L 355.914063 315.976563 L 355.210938 319.976563 L 354.449219 323.972656 L 353.625 327.957031 L 352.742188 331.933594 L 351.800781 335.902344 L 350.800781 339.855469 L 349.742188 343.792969 L 348.625 347.71875 L 347.449219 351.628906 L 346.214844 355.523438 " id="pathdot_5"/>
    <circle id="circle_pathdot_1" cx="" cy="" r="3" fill="#FF0000FF">
      <animateMotion dur="2s" repeatCount="indefinite" begin="0s">
        <mpath href="#pathdot_1"/>
      </animateMotion>
    </circle>
    <circle id="circle_pathdot_2" cx="" cy="" r="3" fill="#FF0000FF">
      <animateMotion dur="2s" repeatCount="indefinite" begin="0s">
        <mpath href="#pathdot_2"/>
      </animateMotion>
    </circle>
    <circle id="circle_pathdot_3" cx="" cy="" r="3" fill="#FF0000FF">
      <animateMotion dur="2s" repeatCount="indefinite" begin="0s">
        <mpath href="#pathdot_3"/>
      </animateMotion>
    </circle>
    <circle id="circle_pathdot_4" cx="" cy="" r="3" fill="#FF0000FF">
      <animateMotion dur="2s" repeatCount="indefinite" begin="0s">
        <mpath href="#pathdot_4"/>
      </animateMotion>
    </circle>
    <circle id="circle_pathdot_5" cx="" cy="" r="3" fill="#FF0000FF">
      <animateMotion dur="2s" repeatCount="indefinite" begin="0s">
        <mpath href="#pathdot_5"/>
      </animateMotion>
    </circle>
    <circle id="circle_pathdot_1" cx="" cy="" r="3" fill="#FF0000FF">
      <animateMotion dur="3s" repeatCount="indefinite" begin="0s">
        <mpath href="#pathdot_1"/>
      </animateMotion>
    </circle>
    <circle id="circle_pathdot_2" cx="" cy="" r="3" fill="#FF0000FF">
      <animateMotion dur="3s" repeatCount="indefinite" begin="0s">
        <mpath href="#pathdot_2"/>
      </animateMotion>
    </circle>
    <circle id="circle_pathdot_3" cx="" cy="" r="3" fill="#FF0000FF">
      <animateMotion dur="3s" repeatCount="indefinite" begin="0s">
        <mpath href="#pathdot_3"/>
      </animateMotion>
    </circle>
    <circle id="circle_pathdot_4" cx="" cy="" r="3" fill="#FF0000FF">
      <animateMotion dur="3s" repeatCount="indefinite" begin="0s">
        <mpath href="#pathdot_4"/>
      </animateMotion>
    </circle>
    <circle id="circle_pathdot_5" cx="" cy="" r="3" fill="#FF0000FF">
      <animateMotion dur="3s" repeatCount="indefinite" begin="0s">
        <mpath href="#pathdot_5"/>
      </animateMotion>
    </circle>
    <circle id="circle_pathdot_1" cx="" cy="" r="3" fill="#FF0000FF">
      <animateMotion dur="4s" repeatCount="indefinite" begin="0s">
        <mpath href="#pathdot_1"/>
      </animateMotion>
    </circle>
    <circle id="circle_pathdot_2" cx="" cy="" r="3" fill="#FF0000FF">
      <animateMotion dur="4s" repeatCount="indefinite" begin="0s">
        <mpath href="#pathdot_2"/>
      </animateMotion>
    </circle>
    <circle id="circle_pathdot_3" cx="" cy="" r="3" fill="#FF0000FF">
      <animateMotion dur="4s" repeatCount="indefinite" begin="0s">
        <mpath href="#pathdot_3"/>
      </animateMotion>
    </circle>
    <circle id="circle_pathdot_4" cx="" cy="" r="3" fill="#FF0000FF">
      <animateMotion dur="4s" repeatCount="indefinite" begin="0s">
        <mpath href="#pathdot_4"/>
      </animateMotion>
    </circle>
    <circle id="circle_pathdot_5" cx="" cy="" r="3" fill="#FF0000FF">
      <animateMotion dur="4s" repeatCount="indefinite" begin="0s">
        <mpath href="#pathdot_5"/>
      </animateMotion>
    </circle>
    <circle id="circle_pathdot_1" cx="" cy="" r="3" fill="#FF0000FF">
      <animateMotion dur="5s" repeatCount="indefinite" begin="0s">
        <mpath href="#pathdot_1"/>
      </animateMotion>
    </circle>
    <circle id="circle_pathdot_2" cx="" cy="" r="3" fill="#FF0000FF">
      <animateMotion dur="5s" repeatCount="indefinite" begin="0s">
        <mpath href="#pathdot_2"/>
      </animateMotion>
    </circle>
    <circle id="circle_pathdot_3" cx="" cy="" r="3" fill="#FF0000FF">
      <animateMotion dur="5s" repeatCount="indefinite" begin="0s">
        <mpath href="#pathdot_3"/>
      </animateMotion>
    </circle>
    <circle id="circle_pathdot_4" cx="" cy="" r="3" fill="#FF0000FF">
      <animateMotion dur="5s" repeatCount="indefinite" begin="0s">
        <mpath href="#pathdot_4"/>
      </animateMotion>
    </circle>
    <circle id="circle_pathdot_5" cx="" cy="" r="3" fill="#FF0000FF">
      <animateMotion dur="5s" repeatCount="indefinite" begin="0s">
        <mpath href="#pathdot_5"/>
      </animateMotion>
    </circle>
    <circle id="circle_pathdot_1" cx="" cy="" r="3" fill="#FF0000FF">
      <animateMotion dur="6s" repeatCount="indefinite" begin="0s">
        <mpath href="#pathdot_1"/>
      </animateMotion>
    </circle>
    <circle id="circle_pathdot_2" cx="" cy="" r="3" fill="#FF0000FF">
      <animateMotion dur="6s" repeatCount="indefinite" begin="0s">
        <mpath href="#pathdot_2"/>
      </animateMotion>
    </circle>
    <circle id="circle_pathdot_3" cx="" cy="" r="3" fill="#FF0000FF">
      <animateMotion dur="6s" repeatCount="indefinite" begin="0s">
        <mpath href="#pathdot_3"/>
      </animateMotion>
    </circle>
    <circle id="circle_pathdot_4" cx="" cy="" r="3" fill="#FF0000FF">
      <animateMotion dur="6s" repeatCount="indefinite" begin="0s">
        <mpath href="#pathdot_4"/>
      </animateMotion>
    </circle>
    <circle id="circle_pathdot_5" cx="" cy="" r="3" fill="#FF0000FF">
      <animateMotion dur="6s" repeatCount="indefinite" begin="0s">
        <mpath href="#pathdot_5"/>
      </animateMotion>
    </circle>
  </g>
</svg>
