<?xml version="1.0" encoding="UTF-8"?>
<svg xmlns="http://www.w3.org/2000/svg" xmlns:xlink="http://www.w3.org/1999/xlink" width="100%" height="100%" viewBox="0 0 720 720" version="1.1">
  <g id="spiro_5_1_3.66666666666667_88785">
    <path style="fill:none;stroke-width:0.75;stroke-linecap:round;stroke-linejoin:round;stroke:rgb(25.490196%,41.176471%,88.235294%);stroke-opacity:1;stroke-miterlimit:10;" d="M 677.019531 463.003906 L 675.011719 468.488281 L 672.597656 473.820313 L 669.789063 478.980469 L 666.589844 483.953125 L 663.015625 488.71875 L 659.070313 493.261719 L 654.769531 497.5625 L 650.125 501.605469 L 645.148438 505.378906 L 639.855469 508.867188 L 634.257813 512.054688 L 628.371094 514.929688 L 622.210938 517.476563 L 615.792969 519.6875 L 609.140625 521.550781 L 602.265625 523.054688 L 595.183594 524.191406 L 587.917969 524.953125 L 580.488281 525.332031 L 572.910156 525.324219 L 565.207031 524.921875 L 557.394531 524.121094 L 549.492188 522.921875 L 541.527344 521.316406 L 533.511719 519.308594 L 525.472656 516.898438 L 517.425781 514.082031 L 509.390625 510.867188 L 501.394531 507.25 L 493.449219 503.238281 L 485.578125 498.839844 L 477.804688 494.058594 L 470.140625 488.898438 L 462.609375 483.367188 L 455.230469 477.480469 L 448.015625 471.242188 L 440.992188 464.664063 L 434.171875 457.757813 L 427.566406 450.535156 L 421.203125 443.011719 L 415.085938 435.199219 L 409.234375 427.113281 L 403.664063 418.769531 L 398.386719 410.179688 L 393.410156 401.371094 L 388.753906 392.347656 L 384.417969 383.136719 L 380.421875 373.753906 L 376.769531 364.21875 L 373.46875 354.550781 L 370.527344 344.765625 L 367.949219 334.886719 L 365.742188 324.933594 L 363.910156 314.925781 L 362.453125 304.882813 L 361.375 294.828125 L 360.671875 284.78125 L 360.351563 274.765625 L 360.40625 264.796875 L 360.835938 254.894531 L 361.636719 245.085938 L 362.808594 235.386719 L 364.339844 225.816406 L 366.226563 216.398438 L 368.464844 207.148438 L 371.039063 198.082031 L 373.949219 189.226563 L 377.179688 180.59375 L 380.71875 172.203125 L 384.558594 164.070313 L 388.683594 156.214844 L 393.085938 148.648438 L 397.742188 141.386719 L 402.644531 134.441406 L 407.777344 127.832031 L 413.121094 121.566406 L 418.664063 115.660156 L 424.382813 110.121094 L 430.265625 104.957031 L 436.289063 100.179688 L 442.4375 95.800781 L 448.691406 91.820313 L 455.035156 88.25 L 461.441406 85.089844 L 467.894531 82.347656 L 474.378906 80.027344 L 480.867188 78.128906 L 487.34375 76.65625 L 493.789063 75.605469 L 500.179688 74.976563 L 506.496094 74.769531 L 512.71875 74.980469 L 518.832031 75.605469 L 524.808594 76.640625 L 530.636719 78.074219 L 536.296875 79.90625 L 541.765625 82.128906 L 547.03125 84.726563 L 552.070313 87.695313 L 556.867188 91.019531 L 561.410156 94.695313 L 565.679688 98.703125 L 569.660156 103.03125 L 573.339844 107.671875 L 576.703125 112.601563 L 579.734375 117.808594 L 582.429688 123.28125 L 584.769531 128.996094 L 586.746094 134.9375 L 588.351563 141.09375 L 589.574219 147.4375 L 590.410156 153.957031 L 590.851563 160.632813 L 590.890625 167.441406 L 590.523438 174.367188 L 589.75 181.390625 L 588.558594 188.488281 L 586.957031 195.644531 L 584.9375 202.832031 L 582.503906 210.039063 L 579.660156 217.242188 L 576.402344 224.417969 L 572.738281 231.550781 L 568.671875 238.617188 L 564.207031 245.597656 L 559.351563 252.480469 L 554.109375 259.234375 L 548.492188 265.851563 L 542.511719 272.308594 L 536.171875 278.585938 L 529.488281 284.671875 L 522.46875 290.546875 L 515.132813 296.191406 L 507.484375 301.597656 L 499.546875 306.742188 L 491.332031 311.617188 L 482.851563 316.210938 L 474.128906 320.503906 L 465.175781 324.488281 L 456.011719 328.152344 L 446.65625 331.488281 L 437.125 334.484375 L 427.4375 337.132813 L 417.613281 339.429688 L 407.671875 341.367188 L 397.636719 342.9375 L 387.523438 344.136719 L 377.355469 344.964844 L 367.152344 345.414063 L 356.933594 345.492188 L 346.722656 345.1875 L 336.539063 344.511719 L 326.402344 343.460938 L 316.332031 342.039063 L 306.351563 340.25 L 296.476563 338.097656 L 286.734375 335.585938 L 277.136719 332.726563 L 267.707031 329.527344 L 258.464844 325.992188 L 249.425781 322.132813 L 240.609375 317.964844 L 232.03125 313.488281 L 223.707031 308.726563 L 215.65625 303.6875 L 207.890625 298.382813 L 200.429688 292.832031 L 193.28125 287.046875 L 186.460938 281.046875 L 179.984375 274.839844 L 173.855469 268.453125 L 168.09375 261.898438 L 162.699219 255.195313 L 157.691406 248.363281 L 153.066406 241.421875 L 148.839844 234.386719 L 145.015625 227.277344 L 141.59375 220.117188 L 138.582031 212.921875 L 135.984375 205.714844 L 133.800781 198.515625 L 132.03125 191.34375 L 130.679688 184.222656 L 129.738281 177.167969 L 129.207031 170.199219 L 129.082031 163.339844 L 129.363281 156.609375 L 130.042969 150.027344 L 131.113281 143.609375 L 132.566406 137.375 L 134.394531 131.347656 L 136.59375 125.535156 L 139.144531 119.96875 L 142.042969 114.652344 L 145.277344 109.609375 L 148.832031 104.851563 L 152.691406 100.398438 L 156.847656 96.257813 L 161.285156 92.449219 L 165.980469 88.984375 L 170.925781 85.871094 L 176.101563 83.121094 L 181.492188 80.75 L 187.078125 78.761719 L 192.839844 77.167969 L 198.761719 75.972656 L 204.820313 75.183594 L 211.003906 74.804688 L 217.285156 74.84375 L 223.648438 75.304688 L 230.074219 76.183594 L 236.539063 77.488281 L 243.027344 79.21875 L 249.511719 81.371094 L 255.980469 83.941406 L 262.410156 86.933594 L 268.78125 90.339844 L 275.070313 94.160156 L 281.265625 98.378906 L 287.34375 103 L 293.28125 108.007813 L 299.070313 113.398438 L 304.683594 119.160156 L 310.109375 125.285156 L 315.328125 131.757813 L 320.324219 138.570313 L 325.082031 145.707031 L 329.585938 153.152344 L 333.824219 160.894531 L 337.78125 168.917969 L 341.441406 177.207031 L 344.796875 185.746094 L 347.835938 194.515625 L 350.546875 203.496094 L 352.917969 212.675781 L 354.949219 222.03125 L 356.621094 231.542969 L 357.9375 241.191406 L 358.886719 250.960938 L 359.46875 260.824219 L 359.671875 270.769531 L 359.5 280.769531 L 358.953125 290.808594 L 358.023438 300.863281 L 356.71875 310.910156 L 355.035156 320.933594 L 352.976563 330.910156 L 350.546875 340.824219 L 347.75 350.648438 L 344.59375 360.367188 L 341.082031 369.957031 L 337.21875 379.40625 L 333.019531 388.6875 L 328.492188 397.785156 L 323.640625 406.683594 L 318.484375 415.363281 L 313.027344 423.804688 L 307.285156 431.996094 L 301.277344 439.921875 L 295.007813 447.5625 L 288.496094 454.90625 L 281.761719 461.941406 L 274.816406 468.652344 L 267.675781 475.027344 L 260.363281 481.054688 L 252.890625 486.730469 L 245.277344 492.039063 L 237.542969 496.972656 L 229.710938 501.527344 L 221.792969 505.691406 L 213.8125 509.46875 L 205.792969 512.84375 L 197.75 515.820313 L 189.703125 518.394531 L 181.675781 520.5625 L 173.6875 522.328125 L 165.757813 523.691406 L 157.90625 524.648438 L 150.15625 525.210938 L 142.527344 525.375 L 135.035156 525.152344 L 127.699219 524.539063 L 120.542969 523.550781 L 113.585938 522.195313 L 106.839844 520.472656 L 100.328125 518.402344 L 94.0625 515.988281 L 88.066406 513.242188 L 82.347656 510.179688 L 76.929688 506.808594 L 71.824219 503.148438 L 67.046875 499.210938 L 62.605469 495.011719 L 58.519531 490.5625 L 54.796875 485.886719 L 51.445313 480.992188 L 48.480469 475.90625 L 45.90625 470.640625 L 43.734375 465.214844 L 41.972656 459.648438 L 40.625 453.960938 L 39.695313 448.171875 L 39.1875 442.296875 L 39.109375 436.359375 L 39.457031 430.378906 L 40.238281 424.375 L 41.445313 418.367188 L 43.082031 412.378906 L 45.148438 406.425781 L 47.632813 400.527344 L 50.539063 394.707031 L 53.863281 388.980469 L 57.589844 383.371094 L 61.722656 377.894531 L 66.246094 372.570313 L 71.15625 367.414063 L 76.4375 362.449219 L 82.082031 357.6875 L 88.082031 353.144531 L 94.417969 348.84375 L 101.082031 344.792969 L 108.058594 341.011719 L 115.332031 337.507813 L 122.886719 334.300781 L 130.710938 331.398438 L 138.78125 328.816406 L 147.082031 326.5625 L 155.597656 324.648438 L 164.308594 323.082031 L 173.195313 321.871094 L 182.242188 321.023438 L 191.421875 320.546875 L 200.722656 320.441406 L 210.121094 320.714844 L 219.597656 321.371094 L 229.132813 322.410156 L 238.703125 323.832031 L 248.285156 325.640625 L 257.867188 327.832031 L 267.421875 330.40625 L 276.933594 333.359375 L 286.375 336.6875 L 295.734375 340.382813 L 304.988281 344.445313 L 314.113281 348.863281 L 323.09375 353.632813 L 331.914063 358.738281 L 340.550781 364.179688 L 348.992188 369.9375 L 357.214844 376.003906 L 365.203125 382.367188 L 372.941406 389.011719 L 380.417969 395.925781 L 387.617188 403.097656 L 394.519531 410.503906 L 401.117188 418.136719 L 407.398438 425.972656 L 413.347656 434 L 418.957031 442.199219 L 424.214844 450.550781 L 429.117188 459.035156 L 433.652344 467.636719 L 437.8125 476.335938 L 441.59375 485.109375 L 444.988281 493.9375 L 448 502.804688 L 450.617188 511.6875 L 452.839844 520.5625 L 454.671875 529.414063 L 456.109375 538.222656 L 457.15625 546.960938 L 457.808594 555.613281 L 458.078125 564.160156 L 457.964844 572.582031 L 457.472656 580.855469 L 456.609375 588.964844 L 455.378906 596.886719 L 453.796875 604.609375 L 451.867188 612.105469 L 449.597656 619.367188 L 447.003906 626.367188 L 444.097656 633.097656 L 440.886719 639.539063 L 437.386719 645.679688 L 433.613281 651.496094 L 429.578125 656.984375 L 425.296875 662.125 L 420.789063 666.90625 L 416.070313 671.320313 L 411.152344 675.355469 L 406.058594 679.003906 L 400.808594 682.25 L 395.414063 685.09375 L 389.898438 687.523438 L 384.28125 689.535156 L 378.578125 691.125 L 372.8125 692.289063 L 367 693.023438 L 361.167969 693.324219 L 355.328125 693.195313 L 349.507813 692.632813 L 343.722656 691.644531 L 337.992188 690.222656 L 332.339844 688.378906 L 326.777344 686.117188 L 321.332031 683.4375 L 316.023438 680.351563 L 310.863281 676.863281 L 305.875 672.980469 L 301.074219 668.71875 L 296.476563 664.082031 L 292.105469 659.082031 L 287.972656 653.730469 L 284.089844 648.042969 L 280.480469 642.03125 L 277.152344 635.710938 L 274.121094 629.09375 L 271.398438 622.199219 L 269 615.039063 L 266.933594 607.632813 L 265.210938 600 L 263.839844 592.15625 L 262.828125 584.121094 L 262.1875 575.910156 L 261.921875 567.546875 L 262.035156 559.046875 L 262.535156 550.433594 L 263.425781 541.726563 L 264.707031 532.945313 L 266.378906 524.109375 L 268.445313 515.238281 L 270.90625 506.355469 L 273.761719 497.484375 L 277.003906 488.636719 L 280.628906 479.835938 L 284.640625 471.105469 L 289.027344 462.464844 L 293.78125 453.929688 L 298.898438 445.523438 L 304.367188 437.261719 L 310.183594 429.164063 L 316.332031 421.246094 L 322.804688 413.53125 L 329.585938 406.03125 L 336.667969 398.765625 L 344.035156 391.746094 L 351.671875 384.992188 L 359.5625 378.515625 L 367.691406 372.328125 L 376.046875 366.445313 L 384.605469 360.875 L 393.355469 355.632813 L 402.273438 350.730469 L 411.347656 346.171875 L 420.550781 341.964844 L 429.867188 338.121094 L 439.28125 334.644531 L 448.765625 331.542969 L 458.304688 328.816406 L 467.878906 326.46875 L 477.464844 324.507813 L 487.042969 322.929688 L 496.59375 321.738281 L 506.09375 320.929688 L 515.527344 320.503906 L 524.871094 320.457031 L 534.101563 320.789063 L 543.203125 321.488281 L 552.15625 322.554688 L 560.941406 323.980469 L 569.535156 325.757813 L 577.925781 327.875 L 586.089844 330.328125 L 594.015625 333.101563 L 601.675781 336.1875 L 609.066406 339.574219 L 616.164063 343.246094 L 622.953125 347.191406 L 629.421875 351.394531 L 635.558594 355.84375 L 641.347656 360.519531 L 646.777344 365.40625 L 651.835938 370.484375 L 656.515625 375.746094 L 660.804688 381.164063 L 664.695313 386.722656 L 668.179688 392.402344 L 671.253906 398.1875 L 673.910156 404.058594 L 676.144531 409.992188 L 677.949219 415.96875 L 679.332031 421.972656 L 680.28125 427.980469 L 680.804688 433.972656 L 680.894531 439.929688 L 680.558594 445.832031 L 679.796875 451.65625 L 678.617188 457.386719 L 677.019531 463.003906 " id="pathdot_1"/>
    <circle id="circle_pathdot_1" cx="" cy="" r="3" fill="#FF0000FF">
      <animateMotion dur="10s" repeatCount="indefinite" begin="0s">
        <mpath href="#pathdot_1"/>
      </animateMotion>
    </circle>
  </g>
</svg>
