<?xml version="1.0" encoding="UTF-8"?>
<svg xmlns="http://www.w3.org/2000/svg" xmlns:xlink="http://www.w3.org/1999/xlink" width="100%" height="100%" viewBox="0 0 720 720" version="1.1">
  <g id="spiro_16_15_1.5_98695">
    <path style="fill:none;stroke-width:3;stroke-linecap:round;stroke-linejoin:round;stroke:rgb(62.745098%,12.54902%,94.117647%);stroke-opacity:1;stroke-miterlimit:10;" d="M 693.332031 360 L 692.738281 348.699219 L 690.949219 337.507813 L 687.992188 326.539063 L 683.886719 315.902344 L 678.671875 305.699219 L 672.394531 296.039063 L 665.105469 287.011719 L 656.875 278.710938 L 647.769531 271.226563 L 637.875 264.628906 L 627.273438 258.988281 L 616.066406 254.371094 L 604.34375 250.828125 L 592.214844 248.398438 L 579.78125 247.121094 L 567.160156 247.007813 L 554.457031 248.082031 L 541.785156 250.339844 L 529.253906 253.773438 L 516.976563 258.363281 L 505.0625 264.078125 L 493.613281 270.878906 L 482.726563 278.714844 L 472.503906 287.53125 L 463.03125 297.257813 L 454.386719 307.820313 L 446.65625 319.136719 L 439.898438 331.113281 L 434.171875 343.660156 L 429.527344 356.671875 L 426.003906 370.042969 L 423.632813 383.667969 L 422.425781 397.441406 L 422.402344 411.242188 L 423.550781 424.964844 L 425.863281 438.496094 L 429.316406 451.726563 L 433.875 464.550781 L 439.5 476.863281 L 446.132813 488.566406 L 453.714844 499.566406 L 462.175781 509.777344 L 471.4375 519.117188 L 481.414063 527.515625 L 492.015625 534.910156 L 503.144531 541.242188 L 514.695313 546.464844 L 526.5625 550.550781 L 538.644531 553.464844 L 550.820313 555.195313 L 562.984375 555.738281 L 575.023438 555.097656 L 586.828125 553.292969 L 598.289063 550.347656 L 609.300781 546.296875 L 619.761719 541.191406 L 629.570313 535.085938 L 638.644531 528.046875 L 646.890625 520.140625 L 654.238281 511.453125 L 660.613281 502.074219 L 665.960938 492.09375 L 670.222656 481.609375 L 673.355469 470.726563 L 675.335938 459.554688 L 676.132813 448.199219 L 675.742188 436.777344 L 674.15625 425.394531 L 671.390625 414.164063 L 667.460938 403.195313 L 662.398438 392.601563 L 656.242188 382.480469 L 649.046875 372.933594 L 640.867188 364.054688 L 631.769531 355.9375 L 621.835938 348.660156 L 611.140625 342.296875 L 599.785156 336.917969 L 587.855469 332.578125 L 575.457031 329.324219 L 562.695313 327.199219 L 549.671875 326.226563 L 536.507813 326.429688 L 523.304688 327.816406 L 510.179688 330.378906 L 497.246094 334.109375 L 484.605469 338.980469 L 472.371094 344.960938 L 460.644531 352.003906 L 449.519531 360.0625 L 439.097656 369.066406 L 429.457031 378.949219 L 420.683594 389.632813 L 412.847656 401.03125 L 406.011719 413.050781 L 400.226563 425.59375 L 395.546875 438.5625 L 392 451.84375 L 389.613281 465.332031 L 388.402344 478.917969 L 388.371094 492.484375 L 389.511719 505.925781 L 391.808594 519.128906 L 395.234375 531.988281 L 399.753906 544.390625 L 405.316406 556.242188 L 411.871094 567.441406 L 419.347656 577.902344 L 427.671875 587.535156 L 436.765625 596.269531 L 446.542969 604.027344 L 456.90625 610.753906 L 467.753906 616.398438 L 478.988281 620.917969 L 490.5 624.28125 L 502.175781 626.464844 L 513.910156 627.460938 L 525.585938 627.265625 L 537.09375 625.886719 L 548.324219 623.351563 L 559.171875 619.6875 L 569.53125 614.933594 L 579.296875 609.144531 L 588.382813 602.375 L 596.695313 594.695313 L 604.15625 586.179688 L 610.6875 576.917969 L 616.222656 566.992188 L 620.707031 556.503906 L 624.09375 545.550781 L 626.339844 534.238281 L 627.425781 522.675781 L 627.324219 510.976563 L 626.03125 499.246094 L 623.550781 487.601563 L 619.894531 476.148438 L 615.09375 465.003906 L 609.171875 454.265625 L 602.183594 444.039063 L 594.171875 434.425781 L 585.210938 425.515625 L 575.363281 417.394531 L 564.710938 410.144531 L 553.335938 403.832031 L 541.339844 398.523438 L 528.8125 394.273438 L 515.859375 391.128906 L 502.585938 389.117188 L 489.101563 388.269531 L 475.515625 388.59375 L 461.945313 390.101563 L 448.5 392.777344 L 435.285156 396.613281 L 422.414063 401.574219 L 409.992188 407.621094 L 398.121094 414.714844 L 386.890625 422.792969 L 376.402344 431.789063 L 366.730469 441.632813 L 357.957031 452.238281 L 350.148438 463.523438 L 343.363281 475.386719 L 337.65625 487.730469 L 333.070313 500.453125 L 329.628906 513.449219 L 327.359375 526.601563 L 326.269531 539.804688 L 326.359375 552.945313 L 327.621094 565.914063 L 330.03125 578.59375 L 333.5625 590.886719 L 338.167969 602.679688 L 343.796875 613.882813 L 350.394531 624.390625 L 357.890625 634.125 L 366.207031 643 L 375.257813 650.941406 L 384.957031 657.882813 L 395.207031 663.769531 L 405.90625 668.550781 L 416.949219 672.191406 L 428.230469 674.664063 L 439.632813 675.953125 L 451.050781 676.046875 L 462.367188 674.949219 L 473.480469 672.679688 L 484.269531 669.257813 L 494.636719 664.722656 L 504.480469 659.113281 L 513.695313 652.488281 L 522.195313 644.910156 L 529.890625 636.449219 L 536.703125 627.183594 L 542.566406 617.203125 L 547.410156 606.59375 L 551.1875 595.460938 L 553.851563 583.90625 L 555.367188 572.03125 L 555.714844 559.953125 L 554.875 547.773438 L 552.847656 535.609375 L 549.636719 523.574219 L 545.265625 511.773438 L 539.761719 500.316406 L 533.160156 489.3125 L 525.507813 478.859375 L 516.867188 469.050781 L 507.300781 459.980469 L 496.886719 451.734375 L 485.699219 444.382813 L 473.835938 437.996094 L 461.386719 432.632813 L 448.453125 428.347656 L 435.136719 425.179688 L 421.546875 423.15625 L 407.792969 422.296875 L 393.988281 422.617188 L 380.246094 424.117188 L 366.671875 426.777344 L 353.378906 430.585938 L 340.476563 435.503906 L 328.0625 441.492188 L 316.242188 448.5 L 305.109375 456.464844 L 294.746094 465.324219 L 285.242188 474.992188 L 276.664063 485.390625 L 269.078125 496.425781 L 262.542969 508.003906 L 257.109375 520.019531 L 252.804688 532.367188 L 249.664063 544.941406 L 247.703125 557.632813 L 246.925781 570.328125 L 247.332031 582.914063 L 248.898438 595.277344 L 251.613281 607.316406 L 255.429688 618.917969 L 260.304688 629.984375 L 266.191406 640.417969 L 273.015625 650.125 L 280.714844 659.015625 L 289.203125 667.019531 L 298.398438 674.0625 L 308.203125 680.078125 L 318.523438 685.019531 L 329.253906 688.839844 L 340.289063 691.507813 L 351.515625 692.996094 L 362.828125 693.296875 L 374.113281 692.402344 L 385.261719 690.320313 L 396.15625 687.074219 L 406.695313 682.6875 L 416.769531 677.203125 L 426.28125 670.664063 L 435.132813 663.132813 L 443.238281 654.675781 L 450.511719 645.367188 L 456.875 635.285156 L 462.261719 624.527344 L 466.617188 613.179688 L 469.886719 601.34375 L 472.027344 589.128906 L 473.019531 576.640625 L 472.832031 563.988281 L 471.464844 551.28125 L 468.910156 538.632813 L 465.1875 526.15625 L 460.3125 513.960938 L 454.324219 502.152344 L 447.257813 490.835938 L 439.167969 480.105469 L 430.117188 470.0625 L 420.175781 460.789063 L 409.417969 452.367188 L 397.925781 444.871094 L 385.800781 438.367188 L 373.128906 432.90625 L 360.015625 428.539063 L 346.570313 425.300781 L 332.898438 423.21875 L 319.109375 422.3125 L 305.316406 422.578125 L 291.628906 424.019531 L 278.164063 426.621094 L 265.027344 430.355469 L 252.320313 435.183594 L 240.152344 441.0625 L 228.617188 447.941406 L 217.804688 455.75 L 207.804688 464.417969 L 198.691406 473.867188 L 190.539063 484.011719 L 183.40625 494.753906 L 177.347656 505.996094 L 172.40625 517.636719 L 168.613281 529.570313 L 165.992188 541.683594 L 164.558594 553.867188 L 164.3125 566.011719 L 165.246094 578.003906 L 167.339844 589.730469 L 170.5625 601.089844 L 174.882813 611.972656 L 180.242188 622.277344 L 186.589844 631.910156 L 193.851563 640.785156 L 201.960938 648.816406 L 210.828125 655.925781 L 220.371094 662.050781 L 230.484375 667.128906 L 241.078125 671.113281 L 252.042969 673.960938 L 263.269531 675.648438 L 274.652344 676.148438 L 286.078125 675.457031 L 297.433594 673.578125 L 308.605469 670.515625 L 319.492188 666.300781 L 329.980469 660.960938 L 339.964844 654.539063 L 349.355469 647.089844 L 358.050781 638.675781 L 365.964844 629.363281 L 373.019531 619.230469 L 379.140625 608.363281 L 384.269531 596.851563 L 388.339844 584.796875 L 391.3125 572.296875 L 393.152344 559.457031 L 393.832031 546.390625 L 393.332031 533.207031 L 391.652344 520.011719 L 388.796875 506.925781 L 384.777344 494.050781 L 379.625 481.503906 L 373.375 469.386719 L 366.074219 457.800781 L 357.773438 446.84375 L 348.542969 436.609375 L 338.449219 427.179688 L 327.582031 418.632813 L 316.019531 411.042969 L 303.859375 404.464844 L 291.199219 398.953125 L 278.144531 394.550781 L 264.800781 391.292969 L 251.277344 389.199219 L 237.683594 388.285156 L 224.136719 388.546875 L 210.746094 389.976563 L 197.617188 392.5625 L 184.867188 396.265625 L 172.589844 401.050781 L 160.894531 406.867188 L 149.871094 413.65625 L 139.609375 421.351563 L 130.191406 429.875 L 121.699219 439.148438 L 114.191406 449.082031 L 107.730469 459.574219 L 102.363281 470.53125 L 98.132813 481.84375 L 95.0625 493.40625 L 93.175781 505.109375 L 92.476563 516.835938 L 92.96875 528.480469 L 94.636719 539.933594 L 97.460938 551.078125 L 101.398438 561.8125 L 106.417969 572.03125 L 112.457031 581.636719 L 119.460938 590.539063 L 127.359375 598.644531 L 136.066406 605.878906 L 145.507813 612.164063 L 155.582031 617.445313 L 166.195313 621.660156 L 177.25 624.761719 L 188.632813 626.722656 L 200.238281 627.511719 L 211.957031 627.109375 L 223.675781 625.519531 L 235.285156 622.746094 L 246.671875 618.800781 L 257.726563 613.714844 L 268.34375 607.523438 L 278.425781 600.273438 L 287.871094 592.019531 L 296.59375 582.828125 L 304.503906 572.769531 L 311.523438 561.929688 L 317.589844 550.390625 L 322.636719 538.253906 L 326.617188 525.609375 L 329.484375 512.566406 L 331.203125 499.230469 L 331.761719 485.710938 L 331.140625 472.121094 L 329.339844 458.570313 L 326.371094 445.167969 L 322.253906 432.03125 L 317.015625 419.261719 L 310.699219 406.96875 L 303.355469 395.25 L 295.042969 384.195313 L 285.824219 373.902344 L 275.785156 364.449219 L 265 355.910156 L 253.5625 348.351563 L 241.570313 341.835938 L 229.117188 336.40625 L 216.316406 332.101563 L 203.273438 328.953125 L 190.097656 326.976563 L 176.898438 326.183594 L 163.792969 326.566406 L 150.886719 328.117188 L 138.292969 330.8125 L 126.113281 334.613281 L 114.460938 339.480469 L 103.421875 345.359375 L 93.097656 352.1875 L 83.574219 359.894531 L 74.925781 368.402344 L 67.226563 377.628906 L 60.546875 387.472656 L 54.929688 397.84375 L 50.429688 408.640625 L 47.078125 419.753906 L 44.902344 431.074219 L 43.914063 442.492188 L 44.117188 453.894531 L 45.507813 465.171875 L 48.066406 476.210938 L 51.773438 486.90625 L 56.582031 497.152344 L 62.449219 506.84375 L 69.316406 515.890625 L 77.125 524.195313 L 85.796875 531.679688 L 95.246094 538.261719 L 105.394531 543.875 L 116.140625 548.457031 L 127.390625 551.960938 L 139.035156 554.339844 L 150.972656 555.566406 L 163.089844 555.613281 L 175.273438 554.476563 L 187.414063 552.152344 L 199.402344 548.652344 L 211.128906 543.996094 L 222.480469 538.210938 L 233.355469 531.34375 L 243.65625 523.4375 L 253.289063 514.558594 L 262.160156 504.773438 L 270.191406 494.160156 L 277.308594 482.796875 L 283.441406 470.773438 L 288.539063 458.195313 L 292.550781 445.15625 L 295.4375 431.761719 L 297.167969 418.121094 L 297.734375 404.34375 L 297.117188 390.542969 L 295.328125 376.832031 L 292.375 363.316406 L 288.289063 350.113281 L 283.097656 337.320313 L 276.851563 325.046875 L 269.597656 313.390625 L 261.398438 302.441406 L 252.332031 292.285156 L 242.472656 283.007813 L 231.90625 274.671875 L 220.726563 267.34375 L 209.03125 261.082031 L 196.921875 255.925781 L 184.503906 251.910156 L 171.890625 249.0625 L 159.1875 247.398438 L 146.511719 246.917969 L 133.972656 247.613281 L 121.675781 249.472656 L 109.738281 252.464844 L 98.261719 256.550781 L 87.34375 261.683594 L 77.085938 267.8125 L 67.574219 274.863281 L 58.894531 282.765625 L 51.128906 291.441406 L 44.335938 300.796875 L 38.582031 310.738281 L 33.917969 321.171875 L 30.382813 331.988281 L 28.007813 343.082031 L 26.816406 354.34375 L 26.816406 365.65625 L 28.007813 376.917969 L 30.382813 388.011719 L 33.917969 398.828125 L 38.582031 409.261719 L 44.335938 419.203125 L 51.128906 428.558594 L 58.894531 437.234375 L 67.574219 445.136719 L 77.085938 452.1875 L 87.34375 458.316406 L 98.261719 463.449219 L 109.738281 467.535156 L 121.675781 470.527344 L 133.972656 472.386719 L 146.511719 473.082031 L 159.1875 472.601563 L 171.890625 470.9375 L 184.503906 468.089844 L 196.921875 464.074219 L 209.03125 458.917969 L 220.726563 452.65625 L 231.90625 445.328125 L 242.472656 436.992188 L 252.332031 427.714844 L 261.398438 417.558594 L 269.597656 406.609375 L 276.851563 394.953125 L 283.097656 382.679688 L 288.289063 369.886719 L 292.375 356.683594 L 295.328125 343.167969 L 297.117188 329.457031 L 297.734375 315.65625 L 297.167969 301.878906 L 295.4375 288.238281 L 292.550781 274.84375 L 288.539063 261.804688 L 283.441406 249.226563 L 277.308594 237.203125 L 270.191406 225.839844 L 262.160156 215.226563 L 253.289063 205.441406 L 243.65625 196.5625 L 233.355469 188.65625 L 222.480469 181.789063 L 211.128906 176.003906 L 199.402344 171.347656 L 187.414063 167.847656 L 175.273438 165.523438 L 163.089844 164.386719 L 150.972656 164.433594 L 139.035156 165.660156 L 127.390625 168.039063 L 116.140625 171.542969 L 105.394531 176.125 L 95.246094 181.738281 L 85.796875 188.320313 L 77.125 195.804688 L 69.316406 204.109375 L 62.449219 213.15625 L 56.582031 222.847656 L 51.773438 233.09375 L 48.066406 243.789063 L 45.507813 254.828125 L 44.117188 266.105469 L 43.914063 277.507813 L 44.902344 288.925781 L 47.078125 300.246094 L 50.429688 311.359375 L 54.929688 322.15625 L 60.546875 332.527344 L 67.226563 342.371094 L 74.925781 351.597656 L 83.574219 360.105469 L 93.097656 367.8125 L 103.421875 374.640625 L 114.460938 380.519531 L 126.113281 385.386719 L 138.292969 389.1875 L 150.886719 391.882813 L 163.792969 393.433594 L 176.898438 393.816406 L 190.097656 393.023438 L 203.273438 391.046875 L 216.316406 387.898438 L 229.117188 383.59375 L 241.570313 378.164063 L 253.5625 371.648438 L 265 364.089844 L 275.785156 355.550781 L 285.824219 346.097656 L 295.042969 335.804688 L 303.355469 324.75 L 310.699219 313.03125 L 317.015625 300.738281 L 322.253906 287.96875 L 326.371094 274.832031 L 329.339844 261.429688 L 331.140625 247.878906 L 331.761719 234.289063 L 331.203125 220.769531 L 329.484375 207.433594 L 326.617188 194.390625 L 322.636719 181.746094 L 317.589844 169.609375 L 311.523438 158.070313 L 304.503906 147.230469 L 296.59375 137.171875 L 287.871094 127.980469 L 278.425781 119.726563 L 268.34375 112.476563 L 257.726563 106.285156 L 246.671875 101.199219 L 235.285156 97.253906 L 223.675781 94.480469 L 211.957031 92.890625 L 200.238281 92.488281 L 188.632813 93.277344 L 177.25 95.238281 L 166.195313 98.339844 L 155.582031 102.554688 L 145.507813 107.835938 L 136.066406 114.121094 L 127.359375 121.355469 L 119.460938 129.460938 L 112.457031 138.363281 L 106.417969 147.96875 L 101.398438 158.1875 L 97.460938 168.921875 L 94.636719 180.066406 L 92.96875 191.519531 L 92.476563 203.164063 L 93.175781 214.890625 L 95.0625 226.59375 L 98.132813 238.15625 L 102.363281 249.46875 L 107.730469 260.425781 L 114.191406 270.917969 L 121.699219 280.851563 L 130.191406 290.125 L 139.609375 298.648438 L 149.871094 306.34375 L 160.894531 313.132813 L 172.589844 318.949219 L 184.867188 323.734375 L 197.617188 327.4375 L 210.746094 330.023438 L 224.136719 331.453125 L 237.683594 331.714844 L 251.277344 330.800781 L 264.800781 328.707031 L 278.144531 325.449219 L 291.199219 321.046875 L 303.859375 315.535156 L 316.019531 308.957031 L 327.582031 301.367188 L 338.449219 292.820313 L 348.542969 283.390625 L 357.773438 273.15625 L 366.074219 262.199219 L 373.375 250.613281 L 379.625 238.496094 L 384.777344 225.949219 L 388.796875 213.074219 L 391.652344 199.988281 L 393.332031 186.792969 L 393.832031 173.609375 L 393.152344 160.542969 L 391.3125 147.703125 L 388.339844 135.203125 L 384.269531 123.148438 L 379.140625 111.636719 L 373.019531 100.769531 L 365.964844 90.636719 L 358.050781 81.324219 L 349.355469 72.910156 L 339.964844 65.460938 L 329.980469 59.039063 L 319.492188 53.699219 L 308.605469 49.484375 L 297.433594 46.421875 L 286.078125 44.542969 L 274.652344 43.851563 L 263.269531 44.351563 L 252.042969 46.039063 L 241.078125 48.886719 L 230.484375 52.871094 L 220.371094 57.949219 L 210.828125 64.074219 L 201.960938 71.183594 L 193.851563 79.214844 L 186.589844 88.089844 L 180.242188 97.722656 L 174.882813 108.027344 L 170.5625 118.910156 L 167.339844 130.269531 L 165.246094 141.996094 L 164.3125 153.988281 L 164.558594 166.132813 L 165.992188 178.316406 L 168.613281 190.429688 L 172.40625 202.363281 L 177.347656 214.003906 L 183.40625 225.246094 L 190.539063 235.988281 L 198.691406 246.132813 L 207.804688 255.582031 L 217.804688 264.25 L 228.617188 272.058594 L 240.152344 278.9375 L 252.320313 284.816406 L 265.027344 289.644531 L 278.164063 293.378906 L 291.628906 295.980469 L 305.316406 297.421875 L 319.109375 297.6875 L 332.898438 296.78125 L 346.570313 294.699219 L 360.015625 291.460938 L 373.128906 287.09375 L 385.800781 281.632813 L 397.925781 275.128906 L 409.417969 267.632813 L 420.175781 259.210938 L 430.117188 249.9375 L 439.167969 239.894531 L 447.257813 229.164063 L 454.324219 217.847656 L 460.3125 206.039063 L 465.1875 193.84375 L 468.910156 181.367188 L 471.464844 168.71875 L 472.832031 156.011719 L 473.019531 143.359375 L 472.027344 130.871094 L 469.886719 118.65625 L 466.617188 106.820313 L 462.261719 95.472656 L 456.875 84.714844 L 450.511719 74.632813 L 443.238281 65.324219 L 435.132813 56.867188 L 426.28125 49.335938 L 416.769531 42.796875 L 406.695313 37.3125 L 396.15625 32.925781 L 385.261719 29.679688 L 374.113281 27.597656 L 362.828125 26.703125 L 351.515625 27.003906 L 340.289063 28.492188 L 329.253906 31.160156 L 318.523438 34.980469 L 308.203125 39.921875 L 298.398438 45.9375 L 289.203125 52.980469 L 280.714844 60.984375 L 273.015625 69.875 L 266.191406 79.582031 L 260.304688 90.015625 L 255.429688 101.082031 L 251.613281 112.683594 L 248.898438 124.722656 L 247.332031 137.085938 L 246.925781 149.671875 L 247.703125 162.367188 L 249.664063 175.058594 L 252.804688 187.632813 L 257.109375 199.980469 L 262.542969 211.996094 L 269.078125 223.574219 L 276.664063 234.609375 L 285.242188 245.007813 L 294.746094 254.675781 L 305.109375 263.535156 L 316.242188 271.5 L 328.0625 278.507813 L 340.476563 284.496094 L 353.378906 289.414063 L 366.671875 293.222656 L 380.246094 295.882813 L 393.988281 297.382813 L 407.792969 297.703125 L 421.546875 296.84375 L 435.136719 294.820313 L 448.453125 291.652344 L 461.386719 287.367188 L 473.835938 282.003906 L 485.699219 275.617188 L 496.886719 268.265625 L 507.300781 260.019531 L 516.867188 250.949219 L 525.507813 241.140625 L 533.160156 230.6875 L 539.761719 219.683594 L 545.265625 208.226563 L 549.636719 196.425781 L 552.847656 184.390625 L 554.875 172.226563 L 555.714844 160.046875 L 555.367188 147.96875 L 553.851563 136.09375 L 551.1875 124.539063 L 547.410156 113.40625 L 542.566406 102.796875 L 536.703125 92.816406 L 529.890625 83.550781 L 522.195313 75.089844 L 513.695313 67.511719 L 504.480469 60.886719 L 494.636719 55.277344 L 484.269531 50.742188 L 473.480469 47.320313 L 462.367188 45.050781 L 451.050781 43.953125 L 439.632813 44.046875 L 428.230469 45.335938 L 416.949219 47.808594 L 405.90625 51.449219 L 395.207031 56.230469 L 384.957031 62.117188 L 375.257813 69.058594 L 366.207031 77 L 357.890625 85.875 L 350.394531 95.609375 L 343.796875 106.117188 L 338.167969 117.320313 L 333.5625 129.113281 L 330.03125 141.40625 L 327.621094 154.085938 L 326.359375 167.054688 L 326.269531 180.195313 L 327.359375 193.398438 L 329.628906 206.550781 L 333.070313 219.546875 L 337.65625 232.269531 L 343.363281 244.613281 L 350.148438 256.476563 L 357.957031 267.761719 L 366.730469 278.367188 L 376.402344 288.210938 L 386.890625 297.207031 L 398.121094 305.285156 L 409.992188 312.378906 L 422.414063 318.425781 L 435.285156 323.386719 L 448.5 327.222656 L 461.945313 329.898438 L 475.515625 331.40625 L 489.101563 331.730469 L 502.585938 330.882813 L 515.859375 328.871094 L 528.8125 325.726563 L 541.339844 321.476563 L 553.335938 316.167969 L 564.710938 309.855469 L 575.363281 302.605469 L 585.210938 294.484375 L 594.171875 285.574219 L 602.183594 275.960938 L 609.171875 265.734375 L 615.09375 254.996094 L 619.894531 243.851563 L 623.550781 232.398438 L 626.03125 220.753906 L 627.324219 209.023438 L 627.425781 197.324219 L 626.339844 185.761719 L 624.09375 174.449219 L 620.707031 163.496094 L 616.222656 153.007813 L 610.6875 143.082031 L 604.15625 133.820313 L 596.695313 125.304688 L 588.382813 117.625 L 579.296875 110.855469 L 569.53125 105.066406 L 559.171875 100.3125 L 548.324219 96.648438 L 537.09375 94.113281 L 525.585938 92.734375 L 513.910156 92.539063 L 502.175781 93.535156 L 490.5 95.71875 L 478.988281 99.082031 L 467.753906 103.601563 L 456.90625 109.246094 L 446.542969 115.972656 L 436.765625 123.730469 L 427.671875 132.464844 L 419.347656 142.097656 L 411.871094 152.558594 L 405.316406 163.757813 L 399.753906 175.609375 L 395.234375 188.011719 L 391.808594 200.871094 L 389.511719 214.074219 L 388.371094 227.515625 L 388.402344 241.082031 L 389.613281 254.667969 L 392 268.15625 L 395.546875 281.4375 L 400.226563 294.40625 L 406.011719 306.949219 L 412.847656 318.96875 L 420.683594 330.367188 L 429.457031 341.050781 L 439.097656 350.933594 L 449.519531 359.9375 L 460.644531 367.996094 L 472.371094 375.039063 L 484.605469 381.019531 L 497.246094 385.890625 L 510.179688 389.621094 L 523.304688 392.183594 L 536.507813 393.570313 L 549.671875 393.773438 L 562.695313 392.800781 L 575.457031 390.675781 L 587.855469 387.421875 L 599.785156 383.082031 L 611.140625 377.703125 L 621.835938 371.339844 L 631.769531 364.0625 L 640.867188 355.945313 L 649.046875 347.066406 L 656.242188 337.519531 L 662.398438 327.398438 L 667.460938 316.804688 L 671.390625 305.835938 L 674.15625 294.605469 L 675.742188 283.222656 L 676.132813 271.800781 L 675.335938 260.445313 L 673.355469 249.273438 L 670.222656 238.390625 L 665.960938 227.90625 L 660.613281 217.925781 L 654.238281 208.546875 L 646.890625 199.859375 L 638.644531 191.953125 L 629.570313 184.914063 L 619.761719 178.808594 L 609.300781 173.703125 L 598.289063 169.652344 L 586.828125 166.707031 L 575.023438 164.902344 L 562.984375 164.261719 L 550.820313 164.804688 L 538.644531 166.535156 L 526.5625 169.449219 L 514.695313 173.535156 L 503.144531 178.757813 L 492.015625 185.089844 L 481.414063 192.484375 L 471.4375 200.882813 L 462.175781 210.222656 L 453.714844 220.433594 L 446.132813 231.433594 L 439.5 243.136719 L 433.875 255.449219 L 429.316406 268.273438 L 425.863281 281.503906 L 423.550781 295.035156 L 422.402344 308.757813 L 422.425781 322.558594 L 423.632813 336.332031 L 426.003906 349.957031 L 429.527344 363.328125 L 434.171875 376.339844 L 439.898438 388.886719 L 446.65625 400.863281 L 454.386719 412.179688 L 463.03125 422.742188 L 472.503906 432.46875 L 482.726563 441.285156 L 493.613281 449.121094 L 505.0625 455.921875 L 516.976563 461.636719 L 529.253906 466.226563 L 541.785156 469.660156 L 554.457031 471.917969 L 567.160156 472.992188 L 579.78125 472.878906 L 592.214844 471.601563 L 604.34375 469.171875 L 616.066406 465.628906 L 627.273438 461.011719 L 637.875 455.371094 L 647.769531 448.773438 L 656.875 441.289063 L 665.105469 432.988281 L 672.394531 423.960938 L 678.671875 414.300781 L 683.886719 404.097656 L 687.992188 393.460938 L 690.949219 382.492188 L 692.738281 371.300781 L 693.332031 360 "/>
  </g>
</svg>
