<?xml version="1.0" encoding="UTF-8"?>
<svg xmlns="http://www.w3.org/2000/svg" xmlns:xlink="http://www.w3.org/1999/xlink" width="100%" height="100%" viewBox="0 0 720 720" version="1.1">
  <g id="spiro_3_1_1_3411">
    <path style=" stroke:none;fill-rule:evenodd;fill:rgb(25.490196%,41.176471%,88.235294%);fill-opacity:1;" d="M 693.332031 360 L 691.992188 359.972656 L 687.984375 359.773438 L 681.359375 359.238281 L 672.195313 358.210938 L 660.601563 356.539063 L 646.71875 354.082031 L 630.710938 350.726563 L 612.769531 346.371094 L 593.101563 340.929688 L 571.941406 334.34375 L 549.527344 326.582031 L 526.117188 317.632813 L 501.972656 307.519531 L 477.367188 296.277344 L 452.5625 283.984375 L 427.820313 270.726563 L 403.402344 256.628906 L 379.550781 241.832031 L 356.5 226.496094 L 334.460938 210.804688 L 313.632813 194.957031 L 294.179688 179.15625 L 276.25 163.625 L 259.964844 148.589844 L 245.417969 134.28125 L 232.671875 120.921875 L 221.765625 108.734375 L 212.699219 97.941406 L 205.453125 88.738281 L 199.980469 81.316406 L 196.203125 75.84375 L 194.027344 72.472656 L 193.332031 71.324219 L 193.980469 72.5 L 195.8125 76.070313 L 198.664063 82.074219 L 202.355469 90.527344 L 206.699219 101.402344 L 211.515625 114.652344 L 216.613281 130.191406 L 221.8125 147.910156 L 226.933594 167.664063 L 231.808594 189.28125 L 236.296875 212.574219 L 240.253906 237.320313 L 243.5625 263.289063 L 246.132813 290.21875 L 247.886719 317.847656 L 248.777344 345.902344 L 248.777344 374.097656 L 247.886719 402.152344 L 246.132813 429.78125 L 243.5625 456.710938 L 240.253906 482.679688 L 236.296875 507.425781 L 231.808594 530.71875 L 226.933594 552.335938 L 221.8125 572.089844 L 216.613281 589.808594 L 211.515625 605.347656 L 206.699219 618.597656 L 202.355469 629.472656 L 198.664063 637.925781 L 195.8125 643.929688 L 193.980469 647.5 L 193.332031 648.675781 L 194.027344 647.527344 L 196.203125 644.15625 L 199.980469 638.683594 L 205.453125 631.261719 L 212.699219 622.058594 L 221.765625 611.265625 L 232.671875 599.078125 L 245.417969 585.71875 L 259.964844 571.410156 L 276.25 556.375 L 294.179688 540.84375 L 313.632813 525.042969 L 334.460938 509.195313 L 356.5 493.503906 L 379.550781 478.167969 L 403.402344 463.371094 L 427.820313 449.273438 L 452.5625 436.015625 L 477.367188 423.722656 L 501.972656 412.480469 L 526.117188 402.367188 L 549.527344 393.417969 L 571.941406 385.65625 L 593.101563 379.070313 L 612.769531 373.628906 L 630.710938 369.273438 L 646.71875 365.917969 L 660.601563 363.460938 L 672.195313 361.789063 L 681.359375 360.761719 L 687.984375 360.226563 L 691.992188 360.027344 Z M 693.332031 360 "/>
  </g>
  <g xmlns="http://www.w3.org/2000/svg" id="spiro_3_1_1_37533">
    <path style=" stroke:none;fill-rule:evenodd;fill:rgb(69.803922%,13.333333%,13.333333%);fill-opacity:1;" d="M 526.667969 648.675781 L 526.019531 647.5 L 524.1875 643.929688 L 521.335938 637.925781 L 517.644531 629.472656 L 513.300781 618.597656 L 508.484375 605.347656 L 503.386719 589.808594 L 498.1875 572.089844 L 493.066406 552.335938 L 488.191406 530.71875 L 483.703125 507.425781 L 479.746094 482.679688 L 476.4375 456.710938 L 473.867188 429.78125 L 472.113281 402.152344 L 471.222656 374.097656 L 471.222656 345.902344 L 472.113281 317.847656 L 473.867188 290.21875 L 476.4375 263.289063 L 479.746094 237.320313 L 483.703125 212.574219 L 488.191406 189.28125 L 493.066406 167.664063 L 498.1875 147.910156 L 503.386719 130.191406 L 508.484375 114.652344 L 513.300781 101.402344 L 517.644531 90.527344 L 521.335938 82.074219 L 524.1875 76.070313 L 526.019531 72.5 L 526.667969 71.324219 L 525.972656 72.472656 L 523.796875 75.84375 L 520.019531 81.316406 L 514.546875 88.738281 L 507.300781 97.941406 L 498.234375 108.734375 L 487.328125 120.921875 L 474.582031 134.28125 L 460.035156 148.589844 L 443.75 163.625 L 425.820313 179.15625 L 406.367188 194.957031 L 385.539063 210.804688 L 363.5 226.496094 L 340.449219 241.832031 L 316.597656 256.628906 L 292.179688 270.726563 L 267.4375 283.984375 L 242.632813 296.277344 L 218.027344 307.519531 L 193.882813 317.632813 L 170.472656 326.582031 L 148.058594 334.34375 L 126.898438 340.929688 L 107.230469 346.371094 L 89.289063 350.726563 L 73.28125 354.082031 L 59.398438 356.539063 L 47.804688 358.210938 L 38.640625 359.238281 L 32.015625 359.773438 L 28.007813 359.972656 L 26.667969 360 L 28.007813 360.027344 L 32.015625 360.226563 L 38.640625 360.761719 L 47.804688 361.789063 L 59.398438 363.460938 L 73.28125 365.917969 L 89.289063 369.273438 L 107.230469 373.628906 L 126.898438 379.070313 L 148.058594 385.65625 L 170.472656 393.417969 L 193.882813 402.367188 L 218.027344 412.480469 L 242.632813 423.722656 L 267.4375 436.015625 L 292.179688 449.273438 L 316.597656 463.371094 L 340.449219 478.167969 L 363.5 493.503906 L 385.539063 509.195313 L 406.367188 525.042969 L 425.820313 540.84375 L 443.75 556.375 L 460.035156 571.410156 L 474.582031 585.71875 L 487.328125 599.078125 L 498.234375 611.265625 L 507.300781 622.058594 L 514.546875 631.261719 L 520.019531 638.683594 L 523.796875 644.15625 L 525.972656 647.527344 Z M 526.667969 648.675781 "/>
  </g>
</svg>
