<?xml version="1.0" encoding="UTF-8"?>
<svg xmlns="http://www.w3.org/2000/svg" xmlns:xlink="http://www.w3.org/1999/xlink" width="100%" height="100%" viewBox="0 0 720 720" version="1.1">
  <g id="spiro_7_6_2_8511">
    <path style="fill:none;stroke-width:0.75;stroke-linecap:round;stroke-linejoin:round;stroke:rgb(25.490196%,41.176471%,88.235294%);stroke-opacity:1;stroke-miterlimit:10;" d="M 693.332031 360 L 693 354.410156 L 691.996094 348.871094 L 690.332031 343.425781 L 688.015625 338.117188 L 685.058594 333 L 681.476563 328.113281 L 677.292969 323.5 L 672.523438 319.207031 L 667.199219 315.269531 L 661.34375 311.722656 L 654.996094 308.609375 L 648.183594 305.960938 L 640.945313 303.804688 L 633.320313 302.167969 L 625.351563 301.078125 L 617.078125 300.558594 L 608.546875 300.621094 L 599.800781 301.285156 L 590.886719 302.5625 L 581.855469 304.460938 L 572.75 306.980469 L 563.621094 310.125 L 554.515625 313.894531 L 545.484375 318.273438 L 536.570313 323.261719 L 527.820313 328.839844 L 519.277344 334.992188 L 510.992188 341.695313 L 503 348.933594 L 495.34375 356.671875 L 488.058594 364.882813 L 481.1875 373.535156 L 474.753906 382.597656 L 468.796875 392.023438 L 463.339844 401.78125 L 458.40625 411.828125 L 454.023438 422.117188 L 450.203125 432.605469 L 446.960938 443.246094 L 444.308594 453.992188 L 442.257813 464.800781 L 440.808594 475.617188 L 439.960938 486.394531 L 439.714844 497.089844 L 440.0625 507.648438 L 440.992188 518.027344 L 442.492188 528.179688 L 444.546875 538.058594 L 447.128906 547.625 L 450.222656 556.832031 L 453.796875 565.640625 L 457.820313 574.015625 L 462.265625 581.921875 L 467.097656 589.324219 L 472.273438 596.191406 L 477.757813 602.5 L 483.511719 608.222656 L 489.488281 613.339844 L 495.644531 617.835938 L 501.933594 621.695313 L 508.308594 624.902344 L 514.726563 627.457031 L 521.136719 629.355469 L 527.492188 630.589844 L 533.746094 631.175781 L 539.851563 631.109375 L 545.761719 630.410156 L 551.429688 629.089844 L 556.816406 627.164063 L 561.871094 624.652344 L 566.5625 621.585938 L 570.847656 617.988281 L 574.6875 613.886719 L 578.050781 609.316406 L 580.902344 604.316406 L 583.222656 598.917969 L 584.972656 593.164063 L 586.140625 587.097656 L 586.703125 580.761719 L 586.640625 574.195313 L 585.945313 567.453125 L 584.605469 560.578125 L 582.617188 553.617188 L 579.976563 546.613281 L 576.6875 539.621094 L 572.75 532.6875 L 568.179688 525.855469 L 562.984375 519.175781 L 557.183594 512.6875 L 550.792969 506.4375 L 543.835938 500.472656 L 536.335938 494.828125 L 528.328125 489.539063 L 519.835938 484.652344 L 510.898438 480.191406 L 501.554688 476.195313 L 491.835938 472.6875 L 481.785156 469.691406 L 471.453125 467.238281 L 460.871094 465.339844 L 450.097656 464.011719 L 439.167969 463.269531 L 428.140625 463.121094 L 417.054688 463.570313 L 405.960938 464.617188 L 394.90625 466.265625 L 383.945313 468.503906 L 373.121094 471.328125 L 362.476563 474.71875 L 352.0625 478.664063 L 341.921875 483.144531 L 332.09375 488.136719 L 322.625 493.613281 L 313.550781 499.546875 L 304.90625 505.90625 L 296.730469 512.65625 L 289.046875 519.761719 L 281.890625 527.183594 L 275.285156 534.875 L 269.25 542.800781 L 263.808594 550.914063 L 258.972656 559.171875 L 254.753906 567.519531 L 251.164063 575.917969 L 248.210938 584.320313 L 245.886719 592.671875 L 244.195313 600.929688 L 243.128906 609.042969 L 242.679688 616.96875 L 242.835938 624.660156 L 243.578125 632.070313 L 244.886719 639.160156 L 246.738281 645.878906 L 249.109375 652.195313 L 251.96875 658.070313 L 255.289063 663.46875 L 259.03125 668.351563 L 263.160156 672.695313 L 267.636719 676.46875 L 272.417969 679.652344 L 277.464844 682.222656 L 282.734375 684.15625 L 288.175781 685.449219 L 293.75 686.085938 L 299.40625 686.054688 L 305.09375 685.359375 L 310.769531 683.996094 L 316.386719 681.96875 L 321.894531 679.28125 L 327.253906 675.953125 L 332.410156 671.992188 L 337.328125 667.414063 L 341.957031 662.246094 L 346.261719 656.507813 L 350.199219 650.226563 L 353.734375 643.433594 L 356.835938 636.164063 L 359.464844 628.453125 L 361.597656 620.332031 L 363.207031 611.847656 L 364.265625 603.039063 L 364.757813 593.953125 L 364.667969 584.628906 L 363.980469 575.117188 L 362.683594 565.460938 L 360.773438 555.710938 L 358.246094 545.917969 L 355.105469 536.121094 L 351.355469 526.378906 L 347 516.730469 L 342.054688 507.226563 L 336.535156 497.910156 L 330.457031 488.828125 L 323.84375 480.027344 L 316.722656 471.539063 L 309.117188 463.414063 L 301.0625 455.679688 L 292.589844 448.375 L 283.734375 441.535156 L 274.539063 435.183594 L 265.039063 429.347656 L 255.28125 424.054688 L 245.304688 419.320313 L 235.15625 415.164063 L 224.886719 411.601563 L 214.539063 408.636719 L 204.160156 406.277344 L 193.804688 404.527344 L 183.511719 403.382813 L 173.335938 402.84375 L 163.324219 402.898438 L 153.519531 403.539063 L 143.96875 404.746094 L 134.714844 406.503906 L 125.808594 408.789063 L 117.28125 411.574219 L 109.175781 414.835938 L 101.527344 418.542969 L 94.371094 422.65625 L 87.738281 427.148438 L 81.660156 431.976563 L 76.160156 437.097656 L 71.257813 442.476563 L 66.980469 448.0625 L 63.335938 453.816406 L 60.339844 459.691406 L 58 465.636719 L 56.324219 471.609375 L 55.3125 477.558594 L 54.964844 483.441406 L 55.273438 489.207031 L 56.226563 494.808594 L 57.820313 500.203125 L 60.03125 505.34375 L 62.839844 510.191406 L 66.226563 514.695313 L 70.167969 518.824219 L 74.628906 522.539063 L 79.582031 525.800781 L 84.992188 528.578125 L 90.824219 530.84375 L 97.035156 532.5625 L 103.589844 533.71875 L 110.441406 534.289063 L 117.542969 534.25 L 124.859375 533.59375 L 132.335938 532.304688 L 139.929688 530.378906 L 147.589844 527.8125 L 155.269531 524.597656 L 162.921875 520.75 L 170.5 516.265625 L 177.953125 511.160156 L 185.242188 505.445313 L 192.320313 499.140625 L 199.140625 492.265625 L 205.664063 484.847656 L 211.851563 476.90625 L 217.664063 468.476563 L 223.066406 459.59375 L 228.027344 450.285156 L 232.515625 440.597656 L 236.503906 430.5625 L 239.964844 420.230469 L 242.886719 409.636719 L 245.242188 398.828125 L 247.023438 387.855469 L 248.214844 376.761719 L 248.8125 365.59375 L 248.8125 354.40625 L 248.214844 343.238281 L 247.023438 332.144531 L 245.242188 321.171875 L 242.886719 310.363281 L 239.964844 299.769531 L 236.503906 289.4375 L 232.515625 279.402344 L 228.027344 269.714844 L 223.066406 260.40625 L 217.664063 251.523438 L 211.851563 243.09375 L 205.664063 235.152344 L 199.140625 227.734375 L 192.320313 220.859375 L 185.242188 214.554688 L 177.953125 208.839844 L 170.5 203.734375 L 162.921875 199.25 L 155.269531 195.402344 L 147.589844 192.1875 L 139.929688 189.621094 L 132.335938 187.695313 L 124.859375 186.40625 L 117.542969 185.75 L 110.441406 185.710938 L 103.589844 186.28125 L 97.035156 187.4375 L 90.824219 189.15625 L 84.992188 191.421875 L 79.582031 194.199219 L 74.628906 197.460938 L 70.167969 201.175781 L 66.226563 205.304688 L 62.839844 209.808594 L 60.03125 214.65625 L 57.820313 219.796875 L 56.226563 225.191406 L 55.273438 230.792969 L 54.964844 236.558594 L 55.3125 242.441406 L 56.324219 248.390625 L 58 254.363281 L 60.339844 260.308594 L 63.335938 266.183594 L 66.980469 271.9375 L 71.257813 277.523438 L 76.160156 282.902344 L 81.660156 288.023438 L 87.738281 292.851563 L 94.371094 297.34375 L 101.527344 301.457031 L 109.175781 305.164063 L 117.28125 308.425781 L 125.808594 311.210938 L 134.714844 313.496094 L 143.96875 315.253906 L 153.519531 316.460938 L 163.324219 317.101563 L 173.335938 317.15625 L 183.511719 316.617188 L 193.804688 315.472656 L 204.160156 313.722656 L 214.539063 311.363281 L 224.886719 308.398438 L 235.15625 304.835938 L 245.304688 300.679688 L 255.28125 295.945313 L 265.039063 290.652344 L 274.539063 284.816406 L 283.734375 278.464844 L 292.589844 271.625 L 301.0625 264.320313 L 309.117188 256.585938 L 316.722656 248.460938 L 323.84375 239.972656 L 330.457031 231.171875 L 336.535156 222.089844 L 342.054688 212.773438 L 347 203.269531 L 351.355469 193.621094 L 355.105469 183.878906 L 358.246094 174.082031 L 360.773438 164.289063 L 362.683594 154.539063 L 363.980469 144.882813 L 364.667969 135.371094 L 364.757813 126.046875 L 364.265625 116.960938 L 363.207031 108.152344 L 361.597656 99.667969 L 359.464844 91.546875 L 356.835938 83.835938 L 353.734375 76.566406 L 350.199219 69.773438 L 346.261719 63.492188 L 341.957031 57.753906 L 337.328125 52.585938 L 332.410156 48.007813 L 327.253906 44.046875 L 321.894531 40.71875 L 316.386719 38.03125 L 310.769531 36.003906 L 305.09375 34.640625 L 299.40625 33.945313 L 293.75 33.914063 L 288.175781 34.550781 L 282.734375 35.84375 L 277.464844 37.777344 L 272.417969 40.347656 L 267.636719 43.53125 L 263.160156 47.304688 L 259.03125 51.648438 L 255.289063 56.53125 L 251.96875 61.929688 L 249.109375 67.804688 L 246.738281 74.121094 L 244.886719 80.839844 L 243.578125 87.929688 L 242.835938 95.339844 L 242.679688 103.03125 L 243.128906 110.957031 L 244.195313 119.070313 L 245.886719 127.328125 L 248.210938 135.679688 L 251.164063 144.082031 L 254.753906 152.480469 L 258.972656 160.828125 L 263.808594 169.085938 L 269.25 177.199219 L 275.285156 185.125 L 281.890625 192.816406 L 289.046875 200.238281 L 296.730469 207.34375 L 304.90625 214.09375 L 313.550781 220.453125 L 322.625 226.386719 L 332.09375 231.863281 L 341.921875 236.855469 L 352.0625 241.335938 L 362.476563 245.28125 L 373.121094 248.671875 L 383.945313 251.496094 L 394.90625 253.734375 L 405.960938 255.382813 L 417.054688 256.429688 L 428.140625 256.878906 L 439.167969 256.730469 L 450.097656 255.988281 L 460.871094 254.660156 L 471.453125 252.761719 L 481.785156 250.308594 L 491.835938 247.3125 L 501.554688 243.804688 L 510.898438 239.808594 L 519.835938 235.347656 L 528.328125 230.460938 L 536.335938 225.171875 L 543.835938 219.527344 L 550.792969 213.5625 L 557.183594 207.3125 L 562.984375 200.824219 L 568.179688 194.144531 L 572.75 187.3125 L 576.6875 180.378906 L 579.976563 173.386719 L 582.617188 166.382813 L 584.605469 159.421875 L 585.945313 152.546875 L 586.640625 145.804688 L 586.703125 139.238281 L 586.140625 132.902344 L 584.972656 126.835938 L 583.222656 121.082031 L 580.902344 115.683594 L 578.050781 110.683594 L 574.6875 106.113281 L 570.847656 102.011719 L 566.5625 98.414063 L 561.871094 95.347656 L 556.816406 92.835938 L 551.429688 90.910156 L 545.761719 89.589844 L 539.851563 88.890625 L 533.746094 88.824219 L 527.492188 89.410156 L 521.136719 90.644531 L 514.726563 92.542969 L 508.308594 95.097656 L 501.933594 98.304688 L 495.644531 102.164063 L 489.488281 106.660156 L 483.511719 111.777344 L 477.757813 117.5 L 472.273438 123.808594 L 467.097656 130.675781 L 462.265625 138.078125 L 457.820313 145.984375 L 453.796875 154.359375 L 450.222656 163.167969 L 447.128906 172.375 L 444.546875 181.941406 L 442.492188 191.820313 L 440.992188 201.972656 L 440.0625 212.351563 L 439.714844 222.910156 L 439.960938 233.605469 L 440.808594 244.382813 L 442.257813 255.199219 L 444.308594 266.007813 L 446.960938 276.753906 L 450.203125 287.394531 L 454.023438 297.882813 L 458.40625 308.171875 L 463.339844 318.21875 L 468.796875 327.976563 L 474.753906 337.402344 L 481.1875 346.464844 L 488.058594 355.117188 L 495.34375 363.328125 L 503 371.066406 L 510.992188 378.304688 L 519.277344 385.007813 L 527.820313 391.160156 L 536.570313 396.738281 L 545.484375 401.726563 L 554.515625 406.105469 L 563.621094 409.875 L 572.75 413.019531 L 581.855469 415.539063 L 590.886719 417.4375 L 599.800781 418.714844 L 608.546875 419.378906 L 617.078125 419.441406 L 625.351563 418.921875 L 633.320313 417.832031 L 640.945313 416.195313 L 648.183594 414.039063 L 654.996094 411.390625 L 661.34375 408.277344 L 667.199219 404.730469 L 672.523438 400.792969 L 677.292969 396.5 L 681.476563 391.886719 L 685.058594 387 L 688.015625 381.882813 L 690.332031 376.574219 L 691.996094 371.128906 L 693 365.589844 L 693.332031 360 "/>
  </g>
</svg>
