<?xml version="1.0" encoding="UTF-8"?>
<svg xmlns="http://www.w3.org/2000/svg" xmlns:xlink="http://www.w3.org/1999/xlink" width="100%" height="100%" viewBox="0 0 720 720" version="1.1">
  <g id="spiro_6_5_5_9361">
    <path style=" stroke:none;fill-rule:evenodd;fill:rgb(0%,0%,100%);fill-opacity:1;" d="M 693.332031 360 L 692.503906 360.035156 L 690.035156 360.277344 L 685.972656 360.933594 L 680.40625 362.191406 L 673.453125 364.230469 L 665.25 367.210938 L 655.96875 371.257813 L 645.796875 376.476563 L 634.9375 382.945313 L 623.609375 390.703125 L 612.023438 399.753906 L 600.410156 410.074219 L 588.976563 421.601563 L 577.929688 434.246094 L 567.457031 447.878906 L 557.726563 462.351563 L 548.878906 477.488281 L 541.035156 493.089844 L 534.28125 508.957031 L 528.660156 524.859375 L 524.203125 540.578125 L 520.886719 555.886719 L 518.660156 570.570313 L 517.449219 584.417969 L 517.140625 597.242188 L 517.59375 608.875 L 518.648438 619.171875 L 520.117188 628.015625 L 521.8125 635.320313 L 523.523438 641.039063 L 525.039063 645.148438 L 526.152344 647.671875 L 526.65625 648.65625 L 526.359375 648.1875 L 525.09375 646.378906 L 522.695313 643.375 L 519.042969 639.335938 L 514.03125 634.457031 L 507.597656 628.929688 L 499.695313 622.964844 L 490.332031 616.78125 L 479.535156 610.59375 L 467.371094 604.605469 L 453.9375 599.015625 L 439.367188 594.003906 L 423.8125 589.730469 L 407.457031 586.328125 L 390.496094 583.90625 L 373.140625 582.535156 L 355.617188 582.257813 L 338.148438 583.085938 L 320.960938 584.988281 L 304.277344 587.914063 L 288.296875 591.765625 L 273.214844 596.429688 L 259.195313 601.75 L 246.382813 607.5625 L 234.890625 613.675781 L 224.804688 619.886719 L 216.171875 625.988281 L 209.003906 631.757813 L 203.285156 636.988281 L 198.964844 641.472656 L 195.957031 645.015625 L 194.140625 647.441406 L 193.378906 648.597656 L 193.507813 648.351563 L 194.34375 646.605469 L 195.679688 643.292969 L 197.320313 638.378906 L 199.050781 631.863281 L 200.65625 623.78125 L 201.945313 614.199219 L 202.71875 603.21875 L 202.808594 590.96875 L 202.0625 577.609375 L 200.359375 563.320313 L 197.597656 548.296875 L 193.710938 532.753906 L 188.671875 516.917969 L 182.480469 501.003906 L 175.171875 485.242188 L 166.816406 469.847656 L 157.511719 455.019531 L 147.390625 440.945313 L 136.609375 427.792969 L 125.34375 415.691406 L 113.792969 404.757813 L 102.164063 395.066406 L 90.679688 386.660156 L 79.558594 379.550781 L 69.019531 373.714844 L 59.265625 369.089844 L 50.503906 365.59375 L 42.90625 363.105469 L 36.628906 361.476563 L 31.800781 360.542969 L 28.527344 360.117188 L 26.875 360.003906 L 26.875 359.996094 Z M 693.332031 360 "/>
    <path style=" stroke:none;fill-rule:evenodd;fill:rgb(0%,0%,0%);fill-opacity:1;" d="M 26.875 359.996094 L 28.527344 359.882813 L 31.800781 359.457031 L 36.628906 358.523438 L 42.90625 356.894531 L 50.503906 354.40625 L 59.265625 350.910156 L 69.019531 346.285156 L 79.558594 340.449219 L 90.679688 333.339844 L 102.164063 324.933594 L 113.792969 315.242188 L 125.34375 304.308594 L 136.609375 292.207031 L 147.390625 279.054688 L 157.511719 264.980469 L 166.816406 250.152344 L 175.171875 234.757813 L 182.480469 218.996094 L 188.671875 203.082031 L 193.710938 187.246094 L 197.597656 171.703125 L 200.359375 156.679688 L 202.0625 142.390625 L 202.808594 129.03125 L 202.71875 116.78125 L 201.945313 105.800781 L 200.65625 96.21875 L 199.050781 88.136719 L 197.320313 81.621094 L 195.679688 76.707031 L 194.34375 73.394531 L 193.507813 71.648438 L 193.378906 71.402344 L 194.140625 72.558594 L 195.957031 74.984375 L 198.964844 78.527344 L 203.285156 83.011719 L 209.003906 88.242188 L 216.171875 94.011719 L 224.804688 100.113281 L 234.890625 106.324219 L 246.382813 112.4375 L 259.195313 118.25 L 273.214844 123.570313 L 288.296875 128.234375 L 304.277344 132.085938 L 320.960938 135.011719 L 338.148438 136.914063 L 355.617188 137.742188 L 373.140625 137.464844 L 390.496094 136.09375 L 407.457031 133.671875 L 423.8125 130.269531 L 439.367188 125.996094 L 453.9375 120.984375 L 467.371094 115.394531 L 479.535156 109.40625 L 490.332031 103.21875 L 499.695313 97.035156 L 507.597656 91.070313 L 514.03125 85.542969 L 519.042969 80.664063 L 522.695313 76.625 L 525.09375 73.621094 L 526.359375 71.8125 L 526.65625 71.34375 L 526.152344 72.328125 L 525.039063 74.851563 L 523.523438 78.960938 L 521.8125 84.679688 L 520.117188 91.984375 L 518.648438 100.828125 L 517.59375 111.125 L 517.140625 122.757813 L 517.449219 135.582031 L 518.660156 149.429688 L 520.886719 164.113281 L 524.203125 179.421875 L 528.660156 195.140625 L 534.28125 211.042969 L 541.035156 226.910156 L 548.878906 242.511719 L 557.726563 257.648438 L 567.457031 272.121094 L 577.929688 285.753906 L 588.976563 298.398438 L 600.410156 309.925781 L 612.023438 320.246094 L 623.609375 329.296875 L 634.9375 337.054688 L 645.796875 343.523438 L 655.96875 348.742188 L 665.25 352.789063 L 673.453125 355.769531 L 680.40625 357.808594 L 685.972656 359.066406 L 690.035156 359.722656 L 692.503906 359.964844 L 693.332031 360 Z M 26.875 359.996094 "/>
  </g>
</svg>
