<?xml version="1.0" encoding="UTF-8"?>
<svg xmlns="http://www.w3.org/2000/svg" xmlns:xlink="http://www.w3.org/1999/xlink" width="504" height="504" viewBox="0 0 504 504">
<defs>
<g>
<g id="glyph-0-0">
<path d="M 0.90625 0 L 0.90625 -7.902344 L 6.238281 -7.902344 L 6.238281 -6.96875 L 1.953125 -6.96875 L 1.953125 -4.523438 L 5.660156 -4.523438 L 5.660156 -3.589844 L 1.953125 -3.589844 L 1.953125 0 Z M 0.90625 0 "/>
</g>
<g id="glyph-0-1">
<path d="M 0.734375 -6.785156 L 0.734375 -7.902344 L 1.703125 -7.902344 L 1.703125 -6.785156 L 0.734375 -6.785156 M 0.734375 0 L 0.734375 -5.726562 L 1.703125 -5.726562 L 1.703125 0 Z M 0.734375 0 "/>
</g>
<g id="glyph-0-2">
<path d="M 0.0820312 0 L 2.171875 -2.976562 L 0.238281 -5.726562 L 1.449219 -5.726562 L 2.328125 -4.382812 C 2.492188 -4.128906 2.625 -3.914062 2.726562 -3.742188 C 2.886719 -3.976562 3.03125 -4.1875 3.164062 -4.371094 L 4.128906 -5.726562 L 5.289062 -5.726562 L 3.308594 -3.03125 L 5.4375 0 L 4.246094 0 L 3.074219 -1.777344 L 2.761719 -2.257812 L 1.257812 0 Z M 0.0820312 0 "/>
</g>
<g id="glyph-0-3">
<path d="M 4.648438 -1.84375 L 5.648438 -1.71875 C 5.492188 -1.132812 5.199219 -0.679688 4.769531 -0.355469 C 4.34375 -0.03125 3.796875 0.128906 3.132812 0.128906 C 2.292969 0.128906 1.628906 -0.128906 1.140625 -0.644531 C 0.648438 -1.160156 0.402344 -1.882812 0.402344 -2.8125 C 0.402344 -3.777344 0.652344 -4.523438 1.148438 -5.054688 C 1.644531 -5.589844 2.289062 -5.855469 3.078125 -5.855469 C 3.84375 -5.855469 4.46875 -5.59375 4.953125 -5.074219 C 5.4375 -4.550781 5.679688 -3.816406 5.679688 -2.875 C 5.679688 -2.816406 5.679688 -2.730469 5.675781 -2.613281 L 1.40625 -2.613281 C 1.441406 -1.984375 1.621094 -1.503906 1.941406 -1.167969 C 2.261719 -0.835938 2.660156 -0.667969 3.136719 -0.667969 C 3.492188 -0.667969 3.796875 -0.761719 4.046875 -0.949219 C 4.300781 -1.136719 4.5 -1.433594 4.648438 -1.84375 M 1.460938 -3.414062 L 4.65625 -3.414062 C 4.613281 -3.894531 4.492188 -4.253906 4.289062 -4.496094 C 3.980469 -4.871094 3.582031 -5.054688 3.089844 -5.054688 C 2.644531 -5.054688 2.269531 -4.90625 1.964844 -4.609375 C 1.660156 -4.3125 1.492188 -3.910156 1.460938 -3.414062 Z M 1.460938 -3.414062 "/>
</g>
<g id="glyph-0-4">
<path d="M 4.441406 0 L 4.441406 -0.722656 C 4.078125 -0.15625 3.546875 0.128906 2.839844 0.128906 C 2.382812 0.128906 1.964844 0.00390625 1.582031 -0.246094 C 1.199219 -0.5 0.902344 -0.851562 0.691406 -1.300781 C 0.484375 -1.753906 0.378906 -2.269531 0.378906 -2.855469 C 0.378906 -3.429688 0.472656 -3.945312 0.664062 -4.410156 C 0.851562 -4.878906 1.140625 -5.234375 1.519531 -5.480469 C 1.902344 -5.730469 2.328125 -5.855469 2.796875 -5.855469 C 3.144531 -5.855469 3.449219 -5.78125 3.71875 -5.636719 C 3.988281 -5.488281 4.207031 -5.300781 4.378906 -5.066406 L 4.378906 -7.902344 L 5.34375 -7.902344 L 5.34375 0 L 4.441406 0 M 1.375 -2.855469 C 1.375 -2.125 1.527344 -1.574219 1.839844 -1.210938 C 2.148438 -0.851562 2.511719 -0.667969 2.933594 -0.667969 C 3.355469 -0.667969 3.714844 -0.84375 4.011719 -1.1875 C 4.308594 -1.535156 4.457031 -2.066406 4.457031 -2.777344 C 4.457031 -3.558594 4.308594 -4.132812 4.003906 -4.5 C 3.703125 -4.867188 3.332031 -5.050781 2.890625 -5.050781 C 2.457031 -5.050781 2.097656 -4.875 1.808594 -4.523438 C 1.519531 -4.171875 1.375 -3.613281 1.375 -2.855469 Z M 1.375 -2.855469 "/>
</g>
<g id="glyph-0-5">
<path d="M 0.867188 0 L 0.867188 -7.902344 L 4.371094 -7.902344 C 5.074219 -7.902344 5.613281 -7.832031 5.976562 -7.691406 C 6.34375 -7.546875 6.636719 -7.296875 6.855469 -6.9375 C 7.074219 -6.578125 7.183594 -6.179688 7.183594 -5.746094 C 7.183594 -5.1875 7.003906 -4.714844 6.640625 -4.328125 C 6.277344 -3.945312 5.71875 -3.699219 4.960938 -3.59375 C 5.234375 -3.460938 5.445312 -3.332031 5.589844 -3.203125 C 5.894531 -2.921875 6.183594 -2.570312 6.457031 -2.152344 L 7.832031 0 L 6.515625 0 L 5.472656 -1.644531 C 5.164062 -2.117188 4.914062 -2.480469 4.714844 -2.734375 C 4.519531 -2.984375 4.34375 -3.160156 4.1875 -3.261719 C 4.03125 -3.363281 3.871094 -3.433594 3.707031 -3.472656 C 3.589844 -3.496094 3.394531 -3.507812 3.125 -3.507812 L 1.914062 -3.507812 L 1.914062 0 L 0.867188 0 M 1.914062 -4.414062 L 4.160156 -4.414062 C 4.640625 -4.414062 5.011719 -4.464844 5.28125 -4.5625 C 5.550781 -4.660156 5.757812 -4.820312 5.898438 -5.039062 C 6.039062 -5.253906 6.105469 -5.492188 6.105469 -5.746094 C 6.105469 -6.121094 5.972656 -6.425781 5.699219 -6.667969 C 5.429688 -6.910156 5 -7.027344 4.414062 -7.027344 L 1.914062 -7.027344 Z M 1.914062 -4.414062 "/>
</g>
<g id="glyph-0-6">
<path d="M 4.464844 -0.707031 C 4.105469 -0.402344 3.757812 -0.183594 3.425781 -0.0585938 C 3.09375 0.0664062 2.738281 0.128906 2.355469 0.128906 C 1.726562 0.128906 1.242188 -0.0234375 0.90625 -0.332031 C 0.566406 -0.640625 0.398438 -1.03125 0.398438 -1.507812 C 0.398438 -1.789062 0.460938 -2.046875 0.589844 -2.277344 C 0.71875 -2.507812 0.886719 -2.695312 1.089844 -2.835938 C 1.296875 -2.976562 1.53125 -3.082031 1.789062 -3.152344 C 1.980469 -3.203125 2.269531 -3.253906 2.652344 -3.300781 C 3.433594 -3.390625 4.011719 -3.503906 4.382812 -3.632812 C 4.386719 -3.765625 4.386719 -3.851562 4.386719 -3.886719 C 4.386719 -4.28125 4.296875 -4.558594 4.113281 -4.722656 C 3.863281 -4.941406 3.496094 -5.050781 3.007812 -5.050781 C 2.550781 -5.050781 2.214844 -4.972656 1.996094 -4.8125 C 1.78125 -4.652344 1.617188 -4.367188 1.515625 -3.960938 L 0.566406 -4.089844 C 0.652344 -4.496094 0.792969 -4.824219 0.992188 -5.074219 C 1.191406 -5.324219 1.476562 -5.515625 1.847656 -5.652344 C 2.222656 -5.785156 2.65625 -5.855469 3.148438 -5.855469 C 3.636719 -5.855469 4.035156 -5.796875 4.339844 -5.679688 C 4.644531 -5.566406 4.871094 -5.421875 5.011719 -5.246094 C 5.15625 -5.074219 5.257812 -4.851562 5.316406 -4.585938 C 5.347656 -4.421875 5.363281 -4.125 5.363281 -3.691406 L 5.363281 -2.398438 C 5.363281 -1.496094 5.382812 -0.925781 5.425781 -0.6875 C 5.46875 -0.449219 5.546875 -0.21875 5.671875 0 L 4.65625 0 C 4.558594 -0.203125 4.492188 -0.4375 4.464844 -0.707031 M 4.382812 -2.875 C 4.03125 -2.730469 3.503906 -2.605469 2.796875 -2.507812 C 2.398438 -2.449219 2.117188 -2.382812 1.953125 -2.3125 C 1.785156 -2.242188 1.660156 -2.136719 1.570312 -1.996094 C 1.480469 -1.859375 1.433594 -1.707031 1.433594 -1.535156 C 1.433594 -1.277344 1.53125 -1.0625 1.726562 -0.890625 C 1.921875 -0.71875 2.210938 -0.628906 2.585938 -0.628906 C 2.960938 -0.628906 3.292969 -0.710938 3.585938 -0.875 C 3.875 -1.039062 4.089844 -1.261719 4.226562 -1.546875 C 4.332031 -1.765625 4.382812 -2.089844 4.382812 -2.515625 Z M 4.382812 -2.875 "/>
</g>
<g id="glyph-0-7">
<path d="M 4.480469 0 L 4.480469 -0.839844 C 4.035156 -0.195312 3.429688 0.128906 2.664062 0.128906 C 2.324219 0.128906 2.007812 0.0664062 1.71875 -0.0664062 C 1.425781 -0.195312 1.207031 -0.355469 1.066406 -0.550781 C 0.921875 -0.75 0.824219 -0.988281 0.765625 -1.273438 C 0.726562 -1.460938 0.707031 -1.765625 0.707031 -2.179688 L 0.707031 -5.726562 L 1.675781 -5.726562 L 1.675781 -2.550781 C 1.675781 -2.042969 1.695312 -1.703125 1.734375 -1.527344 C 1.796875 -1.269531 1.925781 -1.070312 2.125 -0.925781 C 2.320312 -0.777344 2.566406 -0.707031 2.855469 -0.707031 C 3.148438 -0.707031 3.421875 -0.78125 3.675781 -0.929688 C 3.929688 -1.078125 4.113281 -1.28125 4.21875 -1.539062 C 4.324219 -1.796875 4.378906 -2.167969 4.378906 -2.65625 L 4.378906 -5.726562 L 5.347656 -5.726562 L 5.347656 0 Z M 4.480469 0 "/>
</g>
<g id="glyph-0-8">
<path d="M 0.339844 -1.707031 L 1.300781 -1.859375 C 1.351562 -1.476562 1.503906 -1.179688 1.75 -0.976562 C 1.996094 -0.769531 2.339844 -0.667969 2.78125 -0.667969 C 3.226562 -0.667969 3.558594 -0.757812 3.773438 -0.941406 C 3.988281 -1.121094 4.097656 -1.335938 4.097656 -1.578125 C 4.097656 -1.796875 4 -1.972656 3.8125 -2.097656 C 3.679688 -2.183594 3.347656 -2.292969 2.820312 -2.425781 C 2.109375 -2.605469 1.613281 -2.761719 1.339844 -2.890625 C 1.066406 -3.023438 0.855469 -3.203125 0.714844 -3.4375 C 0.574219 -3.667969 0.5 -3.925781 0.5 -4.203125 C 0.5 -4.460938 0.558594 -4.695312 0.675781 -4.914062 C 0.792969 -5.128906 0.953125 -5.3125 1.152344 -5.457031 C 1.304688 -5.566406 1.511719 -5.660156 1.769531 -5.738281 C 2.03125 -5.816406 2.3125 -5.855469 2.609375 -5.855469 C 3.058594 -5.855469 3.453125 -5.789062 3.792969 -5.660156 C 4.132812 -5.53125 4.382812 -5.355469 4.542969 -5.132812 C 4.707031 -4.914062 4.816406 -4.617188 4.878906 -4.246094 L 3.929688 -4.117188 C 3.886719 -4.414062 3.761719 -4.644531 3.554688 -4.808594 C 3.347656 -4.972656 3.054688 -5.054688 2.679688 -5.054688 C 2.234375 -5.054688 1.914062 -4.984375 1.726562 -4.835938 C 1.535156 -4.6875 1.4375 -4.515625 1.4375 -4.316406 C 1.4375 -4.191406 1.480469 -4.078125 1.558594 -3.976562 C 1.636719 -3.875 1.761719 -3.789062 1.929688 -3.71875 C 2.027344 -3.683594 2.3125 -3.601562 2.785156 -3.472656 C 3.472656 -3.289062 3.953125 -3.136719 4.222656 -3.019531 C 4.496094 -2.90625 4.707031 -2.734375 4.863281 -2.511719 C 5.015625 -2.289062 5.09375 -2.011719 5.09375 -1.683594 C 5.09375 -1.359375 5 -1.054688 4.8125 -0.769531 C 4.621094 -0.484375 4.351562 -0.261719 3.996094 -0.105469 C 3.636719 0.0507812 3.234375 0.128906 2.785156 0.128906 C 2.042969 0.128906 1.476562 -0.0234375 1.085938 -0.335938 C 0.695312 -0.644531 0.449219 -1.101562 0.339844 -1.707031 Z M 0.339844 -1.707031 "/>
</g>
<g id="glyph-0-9">
<path d="M 6.488281 -2.769531 L 7.535156 -2.507812 C 7.316406 -1.648438 6.921875 -0.992188 6.351562 -0.542969 C 5.78125 -0.0898438 5.085938 0.132812 4.265625 0.132812 C 3.414062 0.132812 2.71875 -0.0390625 2.1875 -0.386719 C 1.652344 -0.730469 1.246094 -1.234375 0.96875 -1.890625 C 0.6875 -2.550781 0.550781 -3.253906 0.550781 -4.011719 C 0.550781 -4.832031 0.707031 -5.550781 1.023438 -6.164062 C 1.335938 -6.777344 1.785156 -7.242188 2.363281 -7.558594 C 2.945312 -7.878906 3.582031 -8.039062 4.28125 -8.039062 C 5.070312 -8.039062 5.734375 -7.835938 6.273438 -7.433594 C 6.8125 -7.03125 7.1875 -6.464844 7.402344 -5.734375 L 6.371094 -5.492188 C 6.1875 -6.066406 5.921875 -6.488281 5.574219 -6.75 C 5.226562 -7.011719 4.785156 -7.140625 4.257812 -7.140625 C 3.652344 -7.140625 3.144531 -6.996094 2.734375 -6.707031 C 2.328125 -6.414062 2.042969 -6.023438 1.875 -5.535156 C 1.710938 -5.042969 1.628906 -4.535156 1.628906 -4.015625 C 1.628906 -3.34375 1.726562 -2.757812 1.921875 -2.257812 C 2.117188 -1.753906 2.421875 -1.378906 2.835938 -1.132812 C 3.25 -0.882812 3.695312 -0.761719 4.175781 -0.761719 C 4.761719 -0.761719 5.257812 -0.929688 5.664062 -1.265625 C 6.070312 -1.605469 6.347656 -2.105469 6.488281 -2.769531 Z M 6.488281 -2.769531 "/>
</g>
<g id="glyph-0-10">
<path d="M 0.683594 2.203125 L 0.578125 1.292969 C 0.789062 1.351562 0.972656 1.378906 1.132812 1.378906 C 1.347656 1.378906 1.519531 1.34375 1.648438 1.273438 C 1.777344 1.199219 1.886719 1.101562 1.96875 0.96875 C 2.027344 0.875 2.128906 0.632812 2.265625 0.246094 C 2.28125 0.195312 2.3125 0.113281 2.351562 0.0117188 L 0.179688 -5.726562 L 1.222656 -5.726562 L 2.414062 -2.410156 C 2.570312 -1.988281 2.707031 -1.546875 2.828125 -1.082031 C 2.941406 -1.527344 3.074219 -1.964844 3.230469 -2.386719 L 4.453125 -5.726562 L 5.421875 -5.726562 L 3.246094 0.0976562 C 3.011719 0.726562 2.828125 1.160156 2.699219 1.394531 C 2.527344 1.714844 2.332031 1.949219 2.109375 2.097656 C 1.886719 2.25 1.617188 2.324219 1.308594 2.324219 C 1.121094 2.324219 0.914062 2.285156 0.683594 2.203125 Z M 0.683594 2.203125 "/>
</g>
<g id="glyph-0-11">
<path d="M 4.464844 -2.097656 L 5.417969 -1.972656 C 5.3125 -1.316406 5.046875 -0.800781 4.617188 -0.429688 C 4.1875 -0.0546875 3.660156 0.128906 3.035156 0.128906 C 2.25 0.128906 1.621094 -0.125 1.144531 -0.640625 C 0.667969 -1.152344 0.429688 -1.886719 0.429688 -2.839844 C 0.429688 -3.457031 0.535156 -4 0.738281 -4.464844 C 0.941406 -4.925781 1.253906 -5.273438 1.671875 -5.507812 C 2.09375 -5.738281 2.546875 -5.855469 3.039062 -5.855469 C 3.660156 -5.855469 4.171875 -5.695312 4.566406 -5.382812 C 4.960938 -5.066406 5.214844 -4.621094 5.324219 -4.042969 L 4.382812 -3.898438 C 4.292969 -4.28125 4.132812 -4.570312 3.90625 -4.765625 C 3.675781 -4.960938 3.402344 -5.054688 3.078125 -5.054688 C 2.589844 -5.054688 2.191406 -4.882812 1.886719 -4.53125 C 1.582031 -4.179688 1.429688 -3.625 1.429688 -2.867188 C 1.429688 -2.097656 1.574219 -1.539062 1.871094 -1.191406 C 2.164062 -0.84375 2.550781 -0.667969 3.023438 -0.667969 C 3.40625 -0.667969 3.722656 -0.785156 3.976562 -1.019531 C 4.234375 -1.253906 4.394531 -1.613281 4.464844 -2.097656 Z M 4.464844 -2.097656 "/>
</g>
<g id="glyph-0-12">
<path d="M 0.707031 0 L 0.707031 -7.902344 L 1.675781 -7.902344 L 1.675781 0 Z M 0.707031 0 "/>
</g>
<g id="glyph-0-13">
<path d="M 0.726562 0 L 0.726562 -5.726562 L 1.601562 -5.726562 L 1.601562 -4.910156 C 2.019531 -5.539062 2.628906 -5.855469 3.421875 -5.855469 C 3.769531 -5.855469 4.085938 -5.792969 4.375 -5.667969 C 4.664062 -5.542969 4.878906 -5.382812 5.023438 -5.179688 C 5.167969 -4.980469 5.269531 -4.738281 5.324219 -4.464844 C 5.363281 -4.285156 5.378906 -3.96875 5.378906 -3.519531 L 5.378906 0 L 4.410156 0 L 4.410156 -3.480469 C 4.410156 -3.878906 4.371094 -4.171875 4.296875 -4.367188 C 4.222656 -4.566406 4.085938 -4.722656 3.894531 -4.839844 C 3.703125 -4.953125 3.476562 -5.011719 3.21875 -5.011719 C 2.804688 -5.011719 2.449219 -4.882812 2.148438 -4.621094 C 1.847656 -4.355469 1.699219 -3.859375 1.699219 -3.125 L 1.699219 0 Z M 0.726562 0 "/>
</g>
<g id="glyph-0-14">
<path d="M 0.550781 0.472656 L 1.492188 0.613281 C 1.53125 0.90625 1.640625 1.117188 1.820312 1.25 C 2.0625 1.429688 2.390625 1.519531 2.808594 1.519531 C 3.257812 1.519531 3.605469 1.429688 3.847656 1.25 C 4.09375 1.070312 4.257812 0.820312 4.34375 0.496094 C 4.394531 0.296875 4.417969 -0.117188 4.414062 -0.75 C 3.992188 -0.25 3.460938 0 2.828125 0 C 2.042969 0 1.433594 -0.285156 1.003906 -0.851562 C 0.570312 -1.417969 0.355469 -2.101562 0.355469 -2.894531 C 0.355469 -3.441406 0.453125 -3.945312 0.652344 -4.40625 C 0.851562 -4.867188 1.136719 -5.226562 1.511719 -5.476562 C 1.886719 -5.726562 2.328125 -5.855469 2.835938 -5.855469 C 3.511719 -5.855469 4.066406 -5.582031 4.507812 -5.035156 L 4.507812 -5.726562 L 5.402344 -5.726562 L 5.402344 -0.777344 C 5.402344 0.113281 5.308594 0.746094 5.128906 1.117188 C 4.949219 1.492188 4.660156 1.785156 4.265625 2 C 3.875 2.214844 3.390625 2.324219 2.8125 2.324219 C 2.132812 2.324219 1.578125 2.167969 1.160156 1.863281 C 0.738281 1.554688 0.535156 1.09375 0.550781 0.472656 M 1.351562 -2.964844 C 1.351562 -2.214844 1.503906 -1.664062 1.800781 -1.320312 C 2.097656 -0.976562 2.472656 -0.804688 2.921875 -0.804688 C 3.367188 -0.804688 3.742188 -0.976562 4.042969 -1.316406 C 4.34375 -1.660156 4.496094 -2.199219 4.496094 -2.933594 C 4.496094 -3.632812 4.339844 -4.160156 4.03125 -4.515625 C 3.71875 -4.871094 3.34375 -5.050781 2.90625 -5.050781 C 2.472656 -5.050781 2.109375 -4.875 1.804688 -4.523438 C 1.503906 -4.175781 1.351562 -3.65625 1.351562 -2.964844 Z M 1.351562 -2.964844 "/>
</g>
<g id="glyph-0-15">
<path d="M 0.851562 0 L 0.851562 -7.902344 L 3.832031 -7.902344 C 4.355469 -7.902344 4.757812 -7.878906 5.035156 -7.828125 C 5.421875 -7.761719 5.746094 -7.640625 6.011719 -7.457031 C 6.273438 -7.277344 6.484375 -7.023438 6.644531 -6.695312 C 6.804688 -6.367188 6.882812 -6.007812 6.882812 -5.617188 C 6.882812 -4.945312 6.667969 -4.375 6.242188 -3.910156 C 5.816406 -3.445312 5.042969 -3.210938 3.925781 -3.210938 L 1.898438 -3.210938 L 1.898438 0 L 0.851562 0 M 1.898438 -4.144531 L 3.941406 -4.144531 C 4.617188 -4.144531 5.097656 -4.269531 5.378906 -4.523438 C 5.664062 -4.773438 5.804688 -5.128906 5.804688 -5.585938 C 5.804688 -5.914062 5.722656 -6.199219 5.554688 -6.433594 C 5.386719 -6.667969 5.167969 -6.824219 4.894531 -6.898438 C 4.71875 -6.945312 4.394531 -6.96875 3.917969 -6.96875 L 1.898438 -6.96875 Z M 1.898438 -4.144531 "/>
</g>
<g id="glyph-0-16">
<path d="M 0.851562 0 L 0.851562 -7.902344 L 3.574219 -7.902344 C 4.1875 -7.902344 4.65625 -7.863281 4.980469 -7.789062 C 5.433594 -7.683594 5.820312 -7.496094 6.140625 -7.222656 C 6.554688 -6.871094 6.867188 -6.421875 7.074219 -5.871094 C 7.28125 -5.324219 7.386719 -4.699219 7.386719 -3.996094 C 7.386719 -3.394531 7.316406 -2.863281 7.175781 -2.398438 C 7.035156 -1.933594 6.855469 -1.550781 6.636719 -1.246094 C 6.417969 -0.945312 6.175781 -0.707031 5.917969 -0.53125 C 5.65625 -0.355469 5.339844 -0.222656 4.972656 -0.132812 C 4.605469 -0.0429688 4.179688 0 3.703125 0 L 0.851562 0 M 1.898438 -0.933594 L 3.585938 -0.933594 C 4.105469 -0.933594 4.515625 -0.980469 4.8125 -1.078125 C 5.109375 -1.175781 5.34375 -1.3125 5.519531 -1.488281 C 5.769531 -1.734375 5.960938 -2.070312 6.097656 -2.488281 C 6.238281 -2.90625 6.308594 -3.414062 6.308594 -4.011719 C 6.308594 -4.835938 6.171875 -5.472656 5.898438 -5.917969 C 5.628906 -6.359375 5.296875 -6.65625 4.910156 -6.808594 C 4.628906 -6.914062 4.179688 -6.96875 3.558594 -6.96875 L 1.898438 -6.96875 Z M 1.898438 -0.933594 "/>
</g>
<g id="glyph-0-17">
<path d="M 2.847656 -0.867188 L 2.984375 -0.0117188 C 2.714844 0.046875 2.46875 0.0742188 2.253906 0.0742188 C 1.902344 0.0742188 1.628906 0.0195312 1.433594 -0.0898438 C 1.238281 -0.203125 1.101562 -0.347656 1.023438 -0.53125 C 0.945312 -0.710938 0.90625 -1.09375 0.90625 -1.675781 L 0.90625 -4.96875 L 0.195312 -4.96875 L 0.195312 -5.726562 L 0.90625 -5.726562 L 0.90625 -7.140625 L 1.871094 -7.722656 L 1.871094 -5.726562 L 2.847656 -5.726562 L 2.847656 -4.96875 L 1.871094 -4.96875 L 1.871094 -1.621094 C 1.871094 -1.347656 1.886719 -1.167969 1.921875 -1.089844 C 1.957031 -1.011719 2.011719 -0.945312 2.089844 -0.898438 C 2.167969 -0.851562 2.277344 -0.832031 2.421875 -0.832031 C 2.527344 -0.832031 2.671875 -0.84375 2.847656 -0.867188 Z M 2.847656 -0.867188 "/>
</g>
</g>
</defs>
<rect x="-50.4" y="-50.4" width="604.8" height="604.8" fill="rgb(100%, 100%, 100%)" fill-opacity="1"/>
<path fill="none" stroke-width="1.066978" stroke-linecap="round" stroke-linejoin="round" stroke="rgb(0%, 0%, 0%)" stroke-opacity="1" stroke-miterlimit="10" d="M 220.402344 54.507812 L 221.640625 54.511719 L 222.882812 54.523438 L 224.125 54.542969 L 225.363281 54.570312 L 226.605469 54.605469 L 227.84375 54.648438 L 229.085938 54.699219 L 230.324219 54.757812 L 231.5625 54.824219 L 232.800781 54.898438 L 234.039062 54.980469 L 235.277344 55.070312 L 236.515625 55.167969 L 237.75 55.269531 L 238.988281 55.382812 L 240.222656 55.503906 L 241.457031 55.632812 L 242.691406 55.769531 L 243.921875 55.914062 L 245.152344 56.066406 L 246.382812 56.222656 L 247.613281 56.390625 L 248.84375 56.566406 L 250.070312 56.75 L 251.296875 56.9375 L 252.519531 57.136719 L 253.746094 57.34375 L 254.96875 57.554688 L 256.1875 57.777344 L 257.40625 58.007812 L 258.625 58.242188 L 259.84375 58.484375 L 261.058594 58.738281 L 262.269531 58.996094 L 263.484375 59.265625 L 264.691406 59.539062 L 265.902344 59.820312 L 267.109375 60.109375 L 268.3125 60.40625 L 269.515625 60.710938 L 270.714844 61.023438 L 271.914062 61.34375 L 273.113281 61.671875 L 274.308594 62.007812 L 275.5 62.347656 L 276.691406 62.699219 L 277.878906 63.058594 L 279.066406 63.421875 L 280.25 63.792969 L 281.429688 64.171875 L 282.609375 64.5625 L 283.785156 64.957031 L 284.960938 65.359375 L 286.128906 65.765625 L 287.300781 66.183594 L 288.464844 66.605469 L 289.628906 67.039062 L 290.789062 67.476562 L 291.949219 67.921875 L 293.101562 68.375 L 294.253906 68.835938 L 295.40625 69.304688 L 296.550781 69.78125 L 297.695312 70.261719 L 298.835938 70.75 L 299.972656 71.246094 L 301.105469 71.75 L 302.238281 72.261719 L 303.363281 72.777344 L 304.488281 73.304688 L 305.609375 73.835938 L 306.726562 74.375 L 307.84375 74.921875 L 308.953125 75.472656 L 310.0625 76.03125 L 312.265625 77.171875 L 313.363281 77.753906 L 314.453125 78.34375 L 315.542969 78.9375 L 316.628906 79.539062 L 317.710938 80.144531 L 318.789062 80.761719 L 319.863281 81.382812 L 320.933594 82.011719 L 322 82.644531 L 323.0625 83.285156 L 324.117188 83.933594 L 325.171875 84.589844 L 326.222656 85.25 L 327.269531 85.921875 L 328.308594 86.59375 L 329.347656 87.277344 L 330.378906 87.964844 L 331.410156 88.65625 L 332.433594 89.359375 L 333.453125 90.066406 L 334.46875 90.78125 L 335.476562 91.5 L 336.484375 92.226562 L 337.484375 92.957031 L 338.484375 93.695312 L 339.476562 94.441406 L 340.460938 95.191406 L 341.445312 95.949219 L 342.421875 96.714844 L 343.398438 97.484375 L 344.367188 98.261719 L 345.328125 99.042969 L 346.289062 99.828125 L 347.242188 100.625 L 348.191406 101.421875 L 349.132812 102.230469 L 350.070312 103.042969 L 351.003906 103.859375 L 351.933594 104.683594 L 352.855469 105.511719 L 353.773438 106.347656 L 354.6875 107.1875 L 355.59375 108.035156 L 356.496094 108.886719 L 357.390625 109.746094 L 358.285156 110.609375 L 359.167969 111.476562 L 360.050781 112.351562 L 360.925781 113.230469 L 361.792969 114.117188 L 362.65625 115.007812 L 363.515625 115.90625 L 364.367188 116.808594 L 365.214844 117.714844 L 366.054688 118.628906 L 366.890625 119.542969 L 367.71875 120.46875 L 368.542969 121.394531 L 369.359375 122.328125 L 370.171875 123.269531 L 370.976562 124.210938 L 371.777344 125.160156 L 372.570312 126.113281 L 373.359375 127.074219 L 374.140625 128.035156 L 374.917969 129.003906 L 375.6875 129.976562 L 376.449219 130.957031 L 377.207031 131.9375 L 377.960938 132.925781 L 378.703125 133.917969 L 379.441406 134.914062 L 380.175781 135.917969 L 380.902344 136.921875 L 381.621094 137.933594 L 382.335938 138.949219 L 383.042969 139.96875 L 383.742188 140.992188 L 384.4375 142.019531 L 385.125 143.054688 L 385.804688 144.089844 L 386.480469 145.132812 L 387.148438 146.179688 L 387.8125 147.226562 L 388.464844 148.28125 L 389.113281 149.339844 L 389.757812 150.402344 L 390.390625 151.46875 L 391.019531 152.539062 L 391.640625 153.613281 L 392.253906 154.691406 L 392.863281 155.773438 L 393.464844 156.859375 L 394.058594 157.945312 L 394.648438 159.039062 L 395.226562 160.136719 L 395.800781 161.238281 L 396.367188 162.339844 L 396.929688 163.449219 L 397.480469 164.558594 L 398.027344 165.671875 L 398.566406 166.789062 L 399.097656 167.910156 L 399.621094 169.035156 L 400.140625 170.164062 L 400.652344 171.296875 L 401.152344 172.429688 L 401.652344 173.566406 L 402.140625 174.707031 L 402.621094 175.851562 L 403.097656 176.996094 L 403.5625 178.144531 L 404.023438 179.296875 L 404.476562 180.453125 L 404.925781 181.613281 L 405.363281 182.773438 L 405.792969 183.9375 L 406.21875 185.101562 L 406.632812 186.269531 L 407.042969 187.441406 L 407.445312 188.617188 L 407.839844 189.792969 L 408.226562 190.972656 L 408.605469 192.152344 L 408.980469 193.335938 L 409.34375 194.523438 L 409.703125 195.710938 L 410.050781 196.902344 L 410.394531 198.09375 L 410.730469 199.289062 L 411.054688 200.484375 L 411.375 201.683594 L 411.6875 202.886719 L 411.992188 204.089844 L 412.289062 205.292969 L 412.582031 206.5 L 412.863281 207.707031 L 413.136719 208.917969 L 413.402344 210.128906 L 413.664062 211.34375 L 413.914062 212.558594 L 414.160156 213.777344 L 414.394531 214.992188 L 414.625 216.214844 L 414.84375 217.433594 L 415.058594 218.65625 L 415.265625 219.878906 L 415.460938 221.105469 L 415.652344 222.332031 L 415.835938 223.558594 L 416.007812 224.789062 L 416.175781 226.015625 L 416.335938 227.246094 L 416.488281 228.480469 L 416.632812 229.710938 L 416.769531 230.945312 L 416.894531 232.179688 L 417.015625 233.414062 L 417.128906 234.648438 L 417.234375 235.886719 L 417.332031 237.125 L 417.421875 238.359375 L 417.503906 239.597656 L 417.578125 240.839844 L 417.644531 242.078125 L 417.703125 243.316406 L 417.753906 244.554688 L 417.796875 245.796875 L 417.832031 247.035156 L 417.859375 248.277344 L 417.878906 249.519531 L 417.890625 250.757812 L 417.894531 252 L 417.890625 253.242188 L 417.878906 254.480469 L 417.859375 255.722656 L 417.832031 256.964844 L 417.796875 258.203125 L 417.753906 259.445312 L 417.703125 260.683594 L 417.644531 261.921875 L 417.578125 263.160156 L 417.503906 264.402344 L 417.421875 265.640625 L 417.332031 266.875 L 417.234375 268.113281 L 417.128906 269.351562 L 417.015625 270.585938 L 416.894531 271.820312 L 416.769531 273.054688 L 416.632812 274.289062 L 416.488281 275.519531 L 416.335938 276.753906 L 416.175781 277.984375 L 416.007812 279.210938 L 415.835938 280.441406 L 415.652344 281.667969 L 415.460938 282.894531 L 415.265625 284.121094 L 415.058594 285.34375 L 414.84375 286.566406 L 414.625 287.785156 L 414.394531 289.007812 L 414.160156 290.222656 L 413.914062 291.441406 L 413.664062 292.65625 L 413.402344 293.871094 L 413.136719 295.082031 L 412.863281 296.292969 L 412.582031 297.5 L 412.289062 298.707031 L 411.992188 299.910156 L 411.6875 301.113281 L 411.375 302.316406 L 411.054688 303.515625 L 410.730469 304.710938 L 410.394531 305.90625 L 410.050781 307.097656 L 409.703125 308.289062 L 409.34375 309.476562 L 408.980469 310.664062 L 408.605469 311.847656 L 408.226562 313.027344 L 407.839844 314.207031 L 407.445312 315.382812 L 407.042969 316.558594 L 406.632812 317.730469 L 406.21875 318.898438 L 405.792969 320.0625 L 405.363281 321.226562 L 404.925781 322.386719 L 404.476562 323.546875 L 404.023438 324.703125 L 403.5625 325.855469 L 403.097656 327.003906 L 402.621094 328.148438 L 402.140625 329.292969 L 401.652344 330.433594 L 401.152344 331.570312 L 400.652344 332.703125 L 400.140625 333.835938 L 399.621094 334.964844 L 399.097656 336.089844 L 398.566406 337.210938 L 398.027344 338.328125 L 397.480469 339.441406 L 396.929688 340.550781 L 396.367188 341.660156 L 395.800781 342.761719 L 395.226562 343.863281 L 394.648438 344.960938 L 394.058594 346.054688 L 393.464844 347.140625 L 392.863281 348.226562 L 392.253906 349.308594 L 391.640625 350.386719 L 391.019531 351.460938 L 390.390625 352.53125 L 389.757812 353.597656 L 389.113281 354.660156 L 388.464844 355.71875 L 387.8125 356.773438 L 387.148438 357.820312 L 386.480469 358.867188 L 385.804688 359.910156 L 385.125 360.945312 L 384.4375 361.980469 L 383.742188 363.007812 L 383.042969 364.03125 L 382.335938 365.050781 L 381.621094 366.066406 L 380.902344 367.078125 L 380.175781 368.082031 L 379.441406 369.085938 L 378.703125 370.082031 L 377.960938 371.074219 L 377.207031 372.0625 L 376.449219 373.042969 L 375.6875 374.023438 L 374.917969 374.996094 L 374.140625 375.964844 L 373.359375 376.925781 L 372.570312 377.886719 L 371.777344 378.839844 L 370.976562 379.789062 L 370.171875 380.730469 L 369.359375 381.671875 L 368.542969 382.605469 L 367.71875 383.53125 L 366.890625 384.457031 L 366.054688 385.371094 L 365.214844 386.285156 L 364.367188 387.191406 L 363.515625 388.09375 L 362.65625 388.992188 L 361.792969 389.882812 L 360.925781 390.769531 L 360.050781 391.648438 L 359.167969 392.523438 L 358.285156 393.390625 L 357.390625 394.253906 L 356.496094 395.113281 L 355.59375 395.964844 L 354.6875 396.8125 L 353.773438 397.652344 L 352.855469 398.488281 L 351.933594 399.316406 L 351.003906 400.140625 L 350.070312 400.957031 L 349.132812 401.769531 L 348.191406 402.578125 L 347.242188 403.375 L 346.289062 404.171875 L 345.328125 404.957031 L 344.367188 405.738281 L 343.398438 406.515625 L 342.421875 407.285156 L 341.445312 408.050781 L 340.460938 408.808594 L 339.476562 409.558594 L 338.484375 410.304688 L 337.484375 411.042969 L 336.484375 411.773438 L 335.476562 412.5 L 334.46875 413.21875 L 333.453125 413.933594 L 332.433594 414.640625 L 331.410156 415.34375 L 330.378906 416.035156 L 329.347656 416.722656 L 328.308594 417.40625 L 327.269531 418.078125 L 326.222656 418.75 L 325.171875 419.410156 L 324.117188 420.066406 L 323.0625 420.714844 L 322 421.355469 L 320.933594 421.988281 L 319.863281 422.617188 L 318.789062 423.238281 L 317.710938 423.855469 L 316.628906 424.460938 L 315.542969 425.0625 L 314.453125 425.65625 L 313.363281 426.246094 L 312.265625 426.828125 L 310.0625 427.96875 L 308.953125 428.527344 L 307.84375 429.078125 L 306.726562 429.625 L 305.609375 430.164062 L 304.488281 430.695312 L 303.363281 431.222656 L 302.238281 431.738281 L 301.105469 432.25 L 299.972656 432.753906 L 298.835938 433.25 L 297.695312 433.738281 L 296.550781 434.21875 L 295.40625 434.695312 L 294.253906 435.164062 L 293.101562 435.625 L 291.949219 436.078125 L 290.789062 436.523438 L 289.628906 436.960938 L 288.464844 437.394531 L 287.300781 437.816406 L 286.128906 438.234375 L 284.960938 438.640625 L 283.785156 439.042969 L 282.609375 439.4375 L 281.429688 439.828125 L 280.25 440.207031 L 279.066406 440.578125 L 277.878906 440.941406 L 276.691406 441.300781 L 275.5 441.652344 L 274.308594 441.992188 L 273.113281 442.328125 L 271.914062 442.65625 L 270.714844 442.976562 L 269.515625 443.289062 L 268.3125 443.59375 L 267.109375 443.890625 L 265.902344 444.179688 L 264.691406 444.460938 L 263.484375 444.734375 L 262.269531 445.003906 L 261.058594 445.261719 L 259.84375 445.515625 L 258.625 445.757812 L 257.40625 445.992188 L 256.1875 446.222656 L 254.96875 446.445312 L 253.746094 446.65625 L 252.519531 446.863281 L 251.296875 447.0625 L 250.070312 447.25 L 248.84375 447.433594 L 247.613281 447.609375 L 246.382812 447.777344 L 245.152344 447.933594 L 243.921875 448.085938 L 242.691406 448.230469 L 241.457031 448.367188 L 240.222656 448.496094 L 238.988281 448.617188 L 237.75 448.730469 L 236.515625 448.832031 L 235.277344 448.929688 L 234.039062 449.019531 L 232.800781 449.101562 L 231.5625 449.175781 L 230.324219 449.242188 L 229.085938 449.300781 L 227.84375 449.351562 L 226.605469 449.394531 L 225.363281 449.429688 L 224.125 449.457031 L 222.882812 449.476562 L 221.640625 449.488281 L 220.402344 449.492188 L 219.160156 449.488281 L 217.917969 449.476562 L 216.679688 449.457031 L 215.4375 449.429688 L 214.199219 449.394531 L 212.957031 449.351562 L 211.71875 449.300781 L 210.476562 449.242188 L 209.238281 449.175781 L 208 449.101562 L 206.761719 449.019531 L 205.523438 448.929688 L 204.289062 448.832031 L 203.050781 448.730469 L 201.816406 448.617188 L 200.582031 448.496094 L 199.347656 448.367188 L 198.113281 448.230469 L 196.878906 448.085938 L 195.648438 447.933594 L 194.417969 447.777344 L 193.1875 447.609375 L 191.960938 447.433594 L 190.734375 447.25 L 189.507812 447.0625 L 188.28125 446.863281 L 187.058594 446.65625 L 185.835938 446.445312 L 184.613281 446.222656 L 183.394531 445.992188 L 182.175781 445.757812 L 180.960938 445.515625 L 179.746094 445.261719 L 178.53125 445.003906 L 177.320312 444.734375 L 176.109375 444.460938 L 174.902344 444.179688 L 173.695312 443.890625 L 172.488281 443.59375 L 171.285156 443.289062 L 170.085938 442.976562 L 168.886719 442.65625 L 167.691406 442.328125 L 166.496094 441.992188 L 165.300781 441.652344 L 164.113281 441.300781 L 162.925781 440.941406 L 161.738281 440.578125 L 160.554688 440.207031 L 159.371094 439.828125 L 158.195312 439.4375 L 157.015625 439.042969 L 155.84375 438.640625 L 154.671875 438.234375 L 153.503906 437.816406 L 152.335938 437.394531 L 151.171875 436.960938 L 150.011719 436.523438 L 148.855469 436.078125 L 147.699219 435.625 L 146.546875 435.164062 L 145.398438 434.695312 L 144.25 434.21875 L 143.109375 433.738281 L 141.96875 433.25 L 140.832031 432.753906 L 139.695312 432.25 L 138.566406 431.738281 L 137.4375 431.222656 L 136.3125 430.695312 L 135.191406 430.164062 L 134.074219 429.625 L 132.960938 429.078125 L 131.847656 428.527344 L 130.742188 427.96875 L 129.636719 427.398438 L 128.539062 426.828125 L 127.441406 426.246094 L 126.347656 425.65625 L 125.257812 425.0625 L 124.171875 424.460938 L 123.089844 423.855469 L 122.011719 423.238281 L 120.941406 422.617188 L 119.871094 421.988281 L 118.804688 421.355469 L 117.742188 420.714844 L 116.683594 420.066406 L 115.628906 419.410156 L 114.578125 418.75 L 112.492188 417.40625 L 111.457031 416.722656 L 110.421875 416.035156 L 109.394531 415.34375 L 108.371094 414.640625 L 107.351562 413.933594 L 106.335938 413.21875 L 105.324219 412.5 L 104.316406 411.773438 L 103.316406 411.042969 L 102.320312 410.304688 L 101.328125 409.558594 L 100.339844 408.808594 L 99.355469 408.050781 L 98.378906 407.285156 L 97.40625 406.515625 L 96.4375 405.738281 L 95.472656 404.957031 L 94.515625 404.171875 L 93.5625 403.375 L 92.613281 402.578125 L 91.667969 401.769531 L 90.730469 400.957031 L 89.796875 400.140625 L 88.867188 399.316406 L 87.945312 398.488281 L 87.027344 397.652344 L 86.117188 396.8125 L 85.207031 395.964844 L 84.308594 395.113281 L 83.410156 394.253906 L 82.519531 393.390625 L 81.632812 392.523438 L 80.753906 391.648438 L 79.878906 390.769531 L 79.007812 389.882812 L 78.144531 388.992188 L 77.289062 388.09375 L 76.4375 387.191406 L 75.589844 386.285156 L 74.75 385.371094 L 73.914062 384.457031 L 73.082031 383.53125 L 72.261719 382.605469 L 71.441406 381.671875 L 70.628906 380.730469 L 69.824219 379.789062 L 69.023438 378.839844 L 68.230469 377.886719 L 67.441406 376.925781 L 66.660156 375.964844 L 65.886719 374.996094 L 65.117188 374.023438 L 64.351562 373.042969 L 63.59375 372.0625 L 62.84375 371.074219 L 62.097656 370.082031 L 61.359375 369.085938 L 60.625 368.082031 L 59.902344 367.078125 L 59.179688 366.066406 L 58.46875 365.050781 L 57.761719 364.03125 L 57.058594 363.007812 L 56.363281 361.980469 L 55.675781 360.945312 L 54.996094 359.910156 L 54.320312 358.867188 L 53.652344 357.820312 L 52.992188 356.773438 L 52.335938 355.71875 L 51.6875 354.660156 L 51.046875 353.597656 L 50.410156 352.53125 L 49.78125 351.460938 L 49.160156 350.386719 L 48.546875 349.308594 L 47.9375 348.226562 L 47.335938 347.140625 L 46.742188 346.054688 L 46.15625 344.960938 L 45.574219 343.863281 L 45 342.761719 L 44.433594 341.660156 L 43.875 340.550781 L 43.320312 339.441406 L 42.777344 338.328125 L 42.238281 337.210938 L 41.703125 336.089844 L 41.179688 334.964844 L 40.664062 333.835938 L 40.152344 332.703125 L 39.648438 331.570312 L 39.152344 330.433594 L 38.664062 329.292969 L 38.179688 328.148438 L 37.707031 327.003906 L 37.238281 325.855469 L 36.777344 324.703125 L 36.324219 323.546875 L 35.878906 322.386719 L 35.441406 321.226562 L 35.007812 320.0625 L 34.585938 318.898438 L 34.167969 317.730469 L 33.757812 316.558594 L 33.355469 315.382812 L 32.960938 314.207031 L 32.574219 313.027344 L 32.195312 311.847656 L 31.824219 310.664062 L 31.457031 309.476562 L 31.101562 308.289062 L 30.75 307.097656 L 30.410156 305.90625 L 30.074219 304.710938 L 29.746094 303.515625 L 29.425781 302.316406 L 29.113281 301.113281 L 28.808594 299.910156 L 28.511719 298.707031 L 28.222656 297.5 L 27.941406 296.292969 L 27.664062 295.082031 L 27.398438 293.871094 L 27.140625 292.65625 L 26.886719 291.441406 L 26.644531 290.222656 L 26.40625 289.007812 L 26.179688 287.785156 L 25.957031 286.566406 L 25.746094 285.34375 L 25.539062 284.121094 L 25.339844 282.894531 L 25.148438 281.667969 L 24.96875 280.441406 L 24.792969 279.210938 L 24.625 277.984375 L 24.464844 276.753906 L 24.316406 275.519531 L 24.171875 274.289062 L 24.035156 273.054688 L 23.90625 271.820312 L 23.785156 270.585938 L 23.671875 269.351562 L 23.566406 268.113281 L 23.46875 266.875 L 23.378906 265.640625 L 23.296875 264.402344 L 23.226562 263.160156 L 23.160156 261.921875 L 23.101562 260.683594 L 23.050781 259.445312 L 23.007812 258.203125 L 22.972656 256.964844 L 22.945312 255.722656 L 22.925781 254.480469 L 22.914062 253.242188 L 22.910156 252 L 22.914062 250.757812 L 22.925781 249.519531 L 22.945312 248.277344 L 22.972656 247.035156 L 23.007812 245.796875 L 23.050781 244.554688 L 23.101562 243.316406 L 23.160156 242.078125 L 23.226562 240.839844 L 23.296875 239.597656 L 23.378906 238.359375 L 23.46875 237.125 L 23.566406 235.886719 L 23.671875 234.648438 L 23.785156 233.414062 L 23.90625 232.179688 L 24.035156 230.945312 L 24.171875 229.710938 L 24.316406 228.480469 L 24.464844 227.246094 L 24.625 226.015625 L 24.792969 224.789062 L 24.96875 223.558594 L 25.148438 222.332031 L 25.339844 221.105469 L 25.539062 219.878906 L 25.746094 218.65625 L 25.957031 217.433594 L 26.179688 216.214844 L 26.40625 214.992188 L 26.644531 213.777344 L 26.886719 212.558594 L 27.140625 211.34375 L 27.398438 210.128906 L 27.664062 208.917969 L 27.941406 207.707031 L 28.222656 206.5 L 28.511719 205.292969 L 28.808594 204.089844 L 29.113281 202.886719 L 29.425781 201.683594 L 29.746094 200.484375 L 30.074219 199.289062 L 30.410156 198.09375 L 30.75 196.902344 L 31.101562 195.710938 L 31.457031 194.523438 L 31.824219 193.335938 L 32.195312 192.152344 L 32.574219 190.972656 L 32.960938 189.792969 L 33.355469 188.617188 L 33.757812 187.441406 L 34.167969 186.269531 L 34.585938 185.101562 L 35.007812 183.9375 L 35.441406 182.773438 L 35.878906 181.613281 L 36.324219 180.453125 L 36.777344 179.296875 L 37.238281 178.144531 L 37.707031 176.996094 L 38.179688 175.851562 L 38.664062 174.707031 L 39.152344 173.566406 L 39.648438 172.429688 L 40.152344 171.296875 L 40.664062 170.164062 L 41.179688 169.035156 L 41.703125 167.910156 L 42.238281 166.789062 L 42.777344 165.671875 L 43.320312 164.558594 L 43.875 163.449219 L 44.433594 162.339844 L 45 161.238281 L 45.574219 160.136719 L 46.15625 159.039062 L 46.742188 157.945312 L 47.335938 156.859375 L 47.9375 155.773438 L 48.546875 154.691406 L 49.160156 153.613281 L 49.78125 152.539062 L 50.410156 151.46875 L 51.046875 150.402344 L 51.6875 149.339844 L 52.335938 148.28125 L 52.992188 147.226562 L 53.652344 146.179688 L 54.320312 145.132812 L 54.996094 144.089844 L 55.675781 143.054688 L 56.363281 142.019531 L 57.058594 140.992188 L 57.761719 139.96875 L 58.46875 138.949219 L 59.179688 137.933594 L 59.902344 136.921875 L 60.625 135.917969 L 61.359375 134.914062 L 62.097656 133.917969 L 62.84375 132.925781 L 63.59375 131.9375 L 64.351562 130.957031 L 65.117188 129.976562 L 65.886719 129.003906 L 66.660156 128.035156 L 67.441406 127.074219 L 68.230469 126.113281 L 69.023438 125.160156 L 69.824219 124.210938 L 70.628906 123.269531 L 71.441406 122.328125 L 72.261719 121.394531 L 73.082031 120.46875 L 73.914062 119.542969 L 74.75 118.628906 L 75.589844 117.714844 L 76.4375 116.808594 L 77.289062 115.90625 L 78.144531 115.007812 L 79.007812 114.117188 L 79.878906 113.230469 L 80.753906 112.351562 L 81.632812 111.476562 L 82.519531 110.609375 L 83.410156 109.746094 L 84.308594 108.886719 L 85.207031 108.035156 L 86.117188 107.1875 L 87.027344 106.347656 L 87.945312 105.511719 L 88.867188 104.683594 L 89.796875 103.859375 L 90.730469 103.042969 L 91.667969 102.230469 L 92.613281 101.421875 L 93.5625 100.625 L 94.515625 99.828125 L 95.472656 99.042969 L 96.4375 98.261719 L 97.40625 97.484375 L 98.378906 96.714844 L 99.355469 95.949219 L 100.339844 95.191406 L 101.328125 94.441406 L 102.320312 93.695312 L 103.316406 92.957031 L 104.316406 92.226562 L 105.324219 91.5 L 106.335938 90.78125 L 107.351562 90.066406 L 108.371094 89.359375 L 109.394531 88.65625 L 110.421875 87.964844 L 111.457031 87.277344 L 112.492188 86.59375 L 114.578125 85.25 L 115.628906 84.589844 L 116.683594 83.933594 L 117.742188 83.285156 L 118.804688 82.644531 L 119.871094 82.011719 L 120.941406 81.382812 L 122.011719 80.761719 L 123.089844 80.144531 L 124.171875 79.539062 L 125.257812 78.9375 L 126.347656 78.34375 L 127.441406 77.753906 L 128.539062 77.171875 L 129.636719 76.601562 L 130.742188 76.03125 L 131.847656 75.472656 L 132.960938 74.921875 L 134.074219 74.375 L 135.191406 73.835938 L 136.3125 73.304688 L 137.4375 72.777344 L 138.566406 72.261719 L 139.695312 71.75 L 140.832031 71.246094 L 141.96875 70.75 L 143.109375 70.261719 L 144.25 69.78125 L 145.398438 69.304688 L 146.546875 68.835938 L 147.699219 68.375 L 148.855469 67.921875 L 150.011719 67.476562 L 151.171875 67.039062 L 152.335938 66.605469 L 153.503906 66.183594 L 154.671875 65.765625 L 155.84375 65.359375 L 157.015625 64.957031 L 158.195312 64.5625 L 159.371094 64.171875 L 160.554688 63.792969 L 161.738281 63.421875 L 162.925781 63.058594 L 164.113281 62.699219 L 165.300781 62.347656 L 166.496094 62.007812 L 167.691406 61.671875 L 168.886719 61.34375 L 170.085938 61.023438 L 171.285156 60.710938 L 172.488281 60.40625 L 173.695312 60.109375 L 174.902344 59.820312 L 176.109375 59.539062 L 177.320312 59.265625 L 178.53125 58.996094 L 179.746094 58.738281 L 180.960938 58.484375 L 182.175781 58.242188 L 183.394531 58.007812 L 184.613281 57.777344 L 185.835938 57.554688 L 187.058594 57.34375 L 188.28125 57.136719 L 189.507812 56.9375 L 190.734375 56.75 L 191.960938 56.566406 L 193.1875 56.390625 L 194.417969 56.222656 L 195.648438 56.066406 L 196.878906 55.914062 L 198.113281 55.769531 L 199.347656 55.632812 L 200.582031 55.503906 L 201.816406 55.382812 L 203.050781 55.269531 L 204.289062 55.167969 L 205.523438 55.070312 L 206.761719 54.980469 L 208 54.898438 L 209.238281 54.824219 L 210.476562 54.757812 L 211.71875 54.699219 L 212.957031 54.648438 L 214.199219 54.605469 L 215.4375 54.570312 L 216.679688 54.542969 L 217.917969 54.523438 L 219.160156 54.511719 Z M 220.402344 54.507812 "/>
<path fill="none" stroke-width="1.066978" stroke-linecap="round" stroke-linejoin="round" stroke="rgb(25.490196%, 41.176471%, 88.235294%)" stroke-opacity="1" stroke-miterlimit="10" d="M 352.0625 186.167969 L 353.304688 186.179688 L 353.71875 186.191406 L 354.128906 186.203125 L 354.542969 186.214844 L 355.785156 186.273438 L 356.195312 186.300781 L 357.023438 186.355469 L 357.433594 186.390625 L 357.847656 186.421875 L 358.667969 186.5 L 359.082031 186.542969 L 359.902344 186.636719 L 360.3125 186.6875 L 361.132812 186.796875 L 361.542969 186.855469 L 361.953125 186.917969 L 362.359375 186.980469 L 362.769531 187.046875 L 363.175781 187.113281 L 363.585938 187.183594 L 363.992188 187.257812 L 364.804688 187.414062 L 365.210938 187.496094 L 365.613281 187.578125 L 366.019531 187.664062 L 366.421875 187.753906 L 366.828125 187.847656 L 367.632812 188.035156 L 368.03125 188.136719 L 368.835938 188.339844 L 370.03125 188.667969 L 370.429688 188.78125 L 370.824219 188.898438 L 371.222656 189.019531 L 371.617188 189.140625 L 372.40625 189.390625 L 372.796875 189.519531 L 373.191406 189.652344 L 373.582031 189.785156 L 373.972656 189.921875 L 374.363281 190.0625 L 374.75 190.203125 L 375.136719 190.347656 L 375.527344 190.492188 L 375.910156 190.640625 L 376.296875 190.792969 L 376.679688 190.945312 L 377.0625 191.101562 L 377.828125 191.421875 L 378.207031 191.582031 L 378.964844 191.917969 L 379.339844 192.085938 L 379.71875 192.257812 L 380.09375 192.433594 L 380.464844 192.613281 L 380.839844 192.792969 L 381.210938 192.972656 L 381.582031 193.15625 L 381.949219 193.34375 L 382.316406 193.535156 L 382.683594 193.722656 L 383.050781 193.917969 L 383.414062 194.113281 L 384.140625 194.511719 L 384.5 194.714844 L 384.859375 194.921875 L 385.214844 195.128906 L 385.574219 195.335938 L 385.929688 195.546875 L 386.28125 195.761719 L 386.636719 195.976562 L 386.988281 196.195312 L 388.03125 196.863281 L 388.378906 197.09375 L 388.722656 197.320312 L 389.066406 197.550781 L 389.40625 197.785156 L 390.085938 198.261719 L 390.421875 198.5 L 390.757812 198.742188 L 391.089844 198.984375 L 391.421875 199.230469 L 391.753906 199.480469 L 392.082031 199.730469 L 392.738281 200.238281 L 393.0625 200.496094 L 393.382812 200.753906 L 393.707031 201.015625 L 394.023438 201.277344 L 394.34375 201.542969 L 394.660156 201.808594 L 395.285156 202.347656 L 395.597656 202.621094 L 395.90625 202.894531 L 396.214844 203.171875 L 396.519531 203.449219 L 396.824219 203.730469 L 397.125 204.011719 L 397.726562 204.582031 L 398.320312 205.160156 L 398.613281 205.449219 L 398.902344 205.742188 L 399.480469 206.335938 L 400.050781 206.9375 L 400.332031 207.238281 L 400.613281 207.542969 L 400.890625 207.847656 L 401.167969 208.15625 L 401.441406 208.464844 L 401.714844 208.777344 L 402.253906 209.402344 L 402.519531 209.71875 L 402.785156 210.039062 L 403.308594 210.679688 L 403.566406 211 L 403.824219 211.324219 L 404.332031 211.980469 L 404.582031 212.308594 L 404.832031 212.640625 L 405.078125 212.972656 L 405.320312 213.304688 L 405.804688 213.976562 L 406.039062 214.316406 L 406.277344 214.65625 L 406.511719 214.996094 L 406.742188 215.339844 L 406.96875 215.683594 L 407.199219 216.03125 L 407.867188 217.074219 L 408.085938 217.425781 L 408.300781 217.78125 L 408.515625 218.132812 L 408.726562 218.488281 L 408.933594 218.847656 L 409.144531 219.203125 L 409.347656 219.5625 L 409.550781 219.925781 L 409.75 220.285156 L 409.949219 220.648438 L 410.144531 221.011719 L 410.339844 221.378906 L 410.53125 221.746094 L 410.71875 222.113281 L 410.90625 222.484375 L 411.089844 222.851562 L 411.269531 223.222656 L 411.449219 223.597656 L 411.628906 223.96875 L 411.804688 224.34375 L 411.976562 224.722656 L 412.144531 225.097656 L 412.480469 225.855469 L 412.640625 226.234375 L 412.804688 226.617188 L 413.117188 227.382812 L 413.269531 227.765625 L 413.421875 228.152344 L 413.570312 228.539062 L 413.859375 229.3125 L 414 229.699219 L 414.140625 230.089844 L 414.277344 230.480469 L 414.410156 230.871094 L 414.542969 231.265625 L 414.671875 231.65625 L 414.921875 232.445312 L 415.042969 232.839844 L 415.164062 233.238281 L 415.28125 233.632812 L 415.394531 234.03125 L 415.722656 235.226562 L 415.925781 236.03125 L 416.027344 236.429688 L 416.214844 237.234375 L 416.308594 237.640625 L 416.398438 238.042969 L 416.484375 238.449219 L 416.566406 238.851562 L 416.648438 239.257812 L 416.804688 240.070312 L 416.878906 240.476562 L 416.949219 240.886719 L 417.015625 241.292969 L 417.082031 241.703125 L 417.144531 242.109375 L 417.207031 242.519531 L 417.265625 242.929688 L 417.375 243.75 L 417.425781 244.160156 L 417.519531 244.980469 L 417.5625 245.394531 L 417.640625 246.214844 L 417.675781 246.628906 L 417.707031 247.042969 L 417.734375 247.453125 L 417.789062 248.28125 L 417.808594 248.691406 L 417.847656 249.519531 L 417.859375 249.933594 L 417.871094 250.34375 L 417.882812 250.757812 L 417.894531 252 L 417.882812 253.242188 L 417.871094 253.65625 L 417.859375 254.066406 L 417.847656 254.480469 L 417.808594 255.308594 L 417.789062 255.71875 L 417.734375 256.546875 L 417.707031 256.957031 L 417.675781 257.371094 L 417.640625 257.785156 L 417.5625 258.605469 L 417.519531 259.019531 L 417.425781 259.839844 L 417.375 260.25 L 417.265625 261.070312 L 417.207031 261.480469 L 417.144531 261.890625 L 417.082031 262.296875 L 417.015625 262.707031 L 416.949219 263.113281 L 416.878906 263.523438 L 416.804688 263.929688 L 416.648438 264.742188 L 416.566406 265.148438 L 416.484375 265.550781 L 416.398438 265.957031 L 416.308594 266.359375 L 416.214844 266.765625 L 416.027344 267.570312 L 415.925781 267.96875 L 415.722656 268.773438 L 415.394531 269.96875 L 415.28125 270.367188 L 415.164062 270.761719 L 415.042969 271.160156 L 414.921875 271.554688 L 414.671875 272.34375 L 414.542969 272.734375 L 414.410156 273.128906 L 414.277344 273.519531 L 414.140625 273.910156 L 414 274.300781 L 413.859375 274.6875 L 413.570312 275.460938 L 413.421875 275.847656 L 413.269531 276.234375 L 413.117188 276.617188 L 412.804688 277.382812 L 412.640625 277.765625 L 412.480469 278.144531 L 412.144531 278.902344 L 411.976562 279.277344 L 411.804688 279.65625 L 411.628906 280.03125 L 411.449219 280.402344 L 411.269531 280.777344 L 411.089844 281.148438 L 410.90625 281.515625 L 410.71875 281.886719 L 410.53125 282.253906 L 410.339844 282.621094 L 410.144531 282.988281 L 409.949219 283.351562 L 409.75 283.714844 L 409.550781 284.074219 L 409.347656 284.4375 L 409.144531 284.796875 L 408.933594 285.152344 L 408.726562 285.511719 L 408.515625 285.867188 L 408.300781 286.21875 L 408.085938 286.574219 L 407.867188 286.925781 L 407.199219 287.96875 L 406.96875 288.316406 L 406.742188 288.660156 L 406.511719 289.003906 L 406.277344 289.34375 L 406.039062 289.683594 L 405.804688 290.023438 L 405.320312 290.695312 L 405.078125 291.027344 L 404.832031 291.359375 L 404.582031 291.691406 L 404.332031 292.019531 L 403.824219 292.675781 L 403.566406 293 L 403.308594 293.320312 L 402.785156 293.960938 L 402.519531 294.28125 L 402.253906 294.597656 L 401.714844 295.222656 L 401.441406 295.535156 L 401.167969 295.84375 L 400.890625 296.152344 L 400.613281 296.457031 L 400.332031 296.761719 L 400.050781 297.0625 L 399.480469 297.664062 L 398.902344 298.257812 L 398.613281 298.550781 L 398.320312 298.839844 L 397.726562 299.417969 L 397.125 299.988281 L 396.824219 300.269531 L 396.519531 300.550781 L 396.214844 300.828125 L 395.90625 301.105469 L 395.597656 301.378906 L 395.285156 301.652344 L 394.660156 302.191406 L 394.34375 302.457031 L 394.023438 302.722656 L 393.707031 302.984375 L 393.382812 303.246094 L 393.0625 303.503906 L 392.738281 303.761719 L 392.082031 304.269531 L 391.753906 304.519531 L 391.421875 304.769531 L 391.089844 305.015625 L 390.757812 305.257812 L 390.421875 305.5 L 390.085938 305.738281 L 389.40625 306.214844 L 389.066406 306.449219 L 388.722656 306.679688 L 388.378906 306.90625 L 388.03125 307.136719 L 386.988281 307.804688 L 386.636719 308.023438 L 386.28125 308.238281 L 385.929688 308.453125 L 385.574219 308.664062 L 385.214844 308.871094 L 384.859375 309.078125 L 384.5 309.285156 L 384.140625 309.488281 L 383.414062 309.886719 L 383.050781 310.082031 L 382.683594 310.277344 L 382.316406 310.464844 L 381.949219 310.65625 L 381.582031 310.84375 L 381.210938 311.027344 L 380.839844 311.207031 L 380.464844 311.386719 L 380.09375 311.566406 L 379.71875 311.742188 L 379.339844 311.914062 L 378.964844 312.082031 L 378.207031 312.417969 L 377.828125 312.578125 L 377.0625 312.898438 L 376.679688 313.054688 L 376.296875 313.207031 L 375.910156 313.359375 L 375.527344 313.507812 L 375.136719 313.652344 L 374.75 313.796875 L 374.363281 313.9375 L 373.972656 314.078125 L 373.582031 314.214844 L 373.191406 314.347656 L 372.796875 314.480469 L 372.40625 314.609375 L 371.617188 314.859375 L 371.222656 314.980469 L 370.824219 315.101562 L 370.429688 315.21875 L 370.03125 315.332031 L 368.835938 315.660156 L 368.03125 315.863281 L 367.632812 315.964844 L 366.828125 316.152344 L 366.421875 316.246094 L 366.019531 316.335938 L 365.613281 316.421875 L 365.210938 316.503906 L 364.804688 316.585938 L 363.992188 316.742188 L 363.585938 316.816406 L 363.175781 316.886719 L 362.769531 316.953125 L 362.359375 317.019531 L 361.953125 317.082031 L 361.542969 317.144531 L 361.132812 317.203125 L 360.3125 317.3125 L 359.902344 317.363281 L 359.082031 317.457031 L 358.667969 317.5 L 357.847656 317.578125 L 357.433594 317.609375 L 357.023438 317.644531 L 356.195312 317.699219 L 355.785156 317.726562 L 354.542969 317.785156 L 354.128906 317.796875 L 353.71875 317.808594 L 353.304688 317.820312 L 352.0625 317.832031 L 350.820312 317.820312 L 350.410156 317.808594 L 349.582031 317.785156 L 348.753906 317.746094 L 348.34375 317.726562 L 347.515625 317.671875 L 347.105469 317.644531 L 346.691406 317.609375 L 346.28125 317.578125 L 345.867188 317.539062 L 345.457031 317.5 L 345.042969 317.457031 L 344.222656 317.363281 L 343.8125 317.3125 L 342.992188 317.203125 L 342.582031 317.144531 L 342.171875 317.082031 L 341.765625 317.019531 L 341.355469 316.953125 L 340.949219 316.886719 L 340.539062 316.816406 L 340.132812 316.742188 L 339.320312 316.585938 L 338.914062 316.503906 L 338.511719 316.421875 L 338.105469 316.335938 L 337.703125 316.246094 L 337.296875 316.152344 L 336.492188 315.964844 L 336.09375 315.863281 L 335.289062 315.660156 L 334.09375 315.332031 L 333.695312 315.21875 L 333.300781 315.101562 L 332.902344 314.980469 L 332.507812 314.859375 L 331.71875 314.609375 L 331.328125 314.480469 L 330.933594 314.347656 L 330.542969 314.214844 L 330.152344 314.078125 L 329.761719 313.9375 L 329.375 313.796875 L 328.601562 313.507812 L 328.214844 313.359375 L 327.828125 313.207031 L 327.445312 313.054688 L 327.0625 312.898438 L 326.296875 312.578125 L 325.917969 312.417969 L 325.160156 312.082031 L 324.785156 311.914062 L 324.40625 311.742188 L 324.035156 311.566406 L 323.285156 311.207031 L 322.914062 311.027344 L 322.546875 310.84375 L 322.175781 310.65625 L 321.808594 310.464844 L 321.441406 310.277344 L 321.074219 310.082031 L 320.710938 309.886719 L 320.347656 309.6875 L 319.988281 309.488281 L 319.625 309.285156 L 319.265625 309.078125 L 318.910156 308.871094 L 318.550781 308.664062 L 318.195312 308.453125 L 317.84375 308.238281 L 317.488281 308.023438 L 317.140625 307.804688 L 316.789062 307.582031 L 316.09375 307.136719 L 315.746094 306.90625 L 315.402344 306.679688 L 315.058594 306.449219 L 314.71875 306.214844 L 314.039062 305.738281 L 313.703125 305.5 L 313.367188 305.257812 L 313.035156 305.015625 L 312.703125 304.769531 L 312.371094 304.519531 L 312.042969 304.269531 L 311.386719 303.761719 L 311.0625 303.503906 L 310.742188 303.246094 L 310.101562 302.722656 L 309.78125 302.457031 L 309.464844 302.191406 L 308.839844 301.652344 L 308.527344 301.378906 L 308.21875 301.105469 L 307.910156 300.828125 L 307.605469 300.550781 L 307.300781 300.269531 L 307 299.988281 L 306.398438 299.417969 L 306.101562 299.128906 L 305.808594 298.839844 L 305.511719 298.550781 L 305.222656 298.257812 L 304.644531 297.664062 L 304.074219 297.0625 L 303.792969 296.761719 L 303.511719 296.457031 L 303.234375 296.152344 L 302.957031 295.84375 L 302.683594 295.535156 L 302.410156 295.222656 L 301.871094 294.597656 L 301.605469 294.28125 L 301.339844 293.960938 L 300.816406 293.320312 L 300.558594 293 L 300.300781 292.675781 L 299.792969 292.019531 L 299.542969 291.691406 L 299.296875 291.359375 L 299.046875 291.027344 L 298.804688 290.695312 L 298.5625 290.359375 L 298.324219 290.023438 L 297.847656 289.34375 L 297.617188 289.003906 L 297.382812 288.660156 L 297.15625 288.316406 L 296.925781 287.96875 L 296.257812 286.925781 L 296.042969 286.574219 L 295.824219 286.21875 L 295.609375 285.867188 L 295.398438 285.511719 L 295.191406 285.152344 L 294.984375 284.796875 L 294.777344 284.4375 L 294.574219 284.074219 L 294.375 283.714844 L 294.175781 283.351562 L 293.980469 282.988281 L 293.40625 281.886719 L 293.21875 281.515625 L 293.035156 281.148438 L 292.855469 280.777344 L 292.675781 280.402344 L 292.496094 280.03125 L 292.324219 279.65625 L 292.148438 279.277344 L 291.980469 278.902344 L 291.644531 278.144531 L 291.484375 277.765625 L 291.164062 277 L 291.007812 276.617188 L 290.855469 276.234375 L 290.703125 275.847656 L 290.554688 275.460938 L 290.265625 274.6875 L 290.125 274.300781 L 289.984375 273.910156 L 289.847656 273.519531 L 289.714844 273.128906 L 289.582031 272.734375 L 289.453125 272.34375 L 289.203125 271.554688 L 289.082031 271.160156 L 288.960938 270.761719 L 288.847656 270.367188 L 288.730469 269.96875 L 288.402344 268.773438 L 288.199219 267.96875 L 288.097656 267.570312 L 287.910156 266.765625 L 287.816406 266.359375 L 287.726562 265.957031 L 287.640625 265.550781 L 287.558594 265.148438 L 287.476562 264.742188 L 287.320312 263.929688 L 287.25 263.523438 L 287.175781 263.113281 L 287.109375 262.707031 L 287.042969 262.296875 L 286.980469 261.890625 L 286.917969 261.480469 L 286.859375 261.070312 L 286.75 260.25 L 286.699219 259.839844 L 286.605469 259.019531 L 286.5625 258.605469 L 286.523438 258.195312 L 286.488281 257.785156 L 286.417969 256.957031 L 286.390625 256.546875 L 286.335938 255.71875 L 286.316406 255.308594 L 286.277344 254.480469 L 286.265625 254.066406 L 286.253906 253.65625 L 286.242188 253.242188 L 286.230469 252 L 286.242188 250.757812 L 286.253906 250.34375 L 286.265625 249.933594 L 286.277344 249.519531 L 286.316406 248.691406 L 286.335938 248.28125 L 286.390625 247.453125 L 286.417969 247.042969 L 286.488281 246.214844 L 286.523438 245.804688 L 286.5625 245.394531 L 286.605469 244.980469 L 286.699219 244.160156 L 286.75 243.75 L 286.859375 242.929688 L 286.917969 242.519531 L 286.980469 242.109375 L 287.042969 241.703125 L 287.109375 241.292969 L 287.175781 240.886719 L 287.25 240.476562 L 287.320312 240.070312 L 287.476562 239.257812 L 287.558594 238.851562 L 287.640625 238.449219 L 287.726562 238.042969 L 287.816406 237.640625 L 287.910156 237.234375 L 288.097656 236.429688 L 288.199219 236.03125 L 288.402344 235.226562 L 288.730469 234.03125 L 288.847656 233.632812 L 288.960938 233.238281 L 289.082031 232.839844 L 289.203125 232.445312 L 289.453125 231.65625 L 289.582031 231.265625 L 289.714844 230.871094 L 289.847656 230.480469 L 289.984375 230.089844 L 290.125 229.699219 L 290.265625 229.3125 L 290.554688 228.539062 L 290.703125 228.152344 L 290.855469 227.765625 L 291.007812 227.382812 L 291.164062 227 L 291.484375 226.234375 L 291.644531 225.855469 L 291.980469 225.097656 L 292.148438 224.722656 L 292.324219 224.34375 L 292.496094 223.96875 L 292.675781 223.597656 L 292.855469 223.222656 L 293.035156 222.851562 L 293.21875 222.484375 L 293.40625 222.113281 L 293.980469 221.011719 L 294.175781 220.648438 L 294.375 220.285156 L 294.574219 219.925781 L 294.777344 219.5625 L 294.984375 219.203125 L 295.191406 218.847656 L 295.398438 218.488281 L 295.609375 218.132812 L 295.824219 217.78125 L 296.042969 217.425781 L 296.257812 217.074219 L 296.925781 216.03125 L 297.15625 215.683594 L 297.382812 215.339844 L 297.617188 214.996094 L 297.847656 214.65625 L 298.324219 213.976562 L 298.5625 213.640625 L 298.804688 213.304688 L 299.046875 212.972656 L 299.296875 212.640625 L 299.542969 212.308594 L 299.792969 211.980469 L 300.300781 211.324219 L 300.558594 211 L 300.816406 210.679688 L 301.339844 210.039062 L 301.605469 209.71875 L 301.871094 209.402344 L 302.410156 208.777344 L 302.683594 208.464844 L 302.957031 208.15625 L 303.234375 207.847656 L 303.511719 207.542969 L 303.792969 207.238281 L 304.074219 206.9375 L 304.644531 206.335938 L 305.222656 205.742188 L 305.511719 205.449219 L 305.808594 205.160156 L 306.101562 204.871094 L 306.398438 204.582031 L 307 204.011719 L 307.300781 203.730469 L 307.605469 203.449219 L 307.910156 203.171875 L 308.21875 202.894531 L 308.527344 202.621094 L 308.839844 202.347656 L 309.464844 201.808594 L 309.78125 201.542969 L 310.101562 201.277344 L 310.742188 200.753906 L 311.0625 200.496094 L 311.386719 200.238281 L 312.042969 199.730469 L 312.371094 199.480469 L 312.703125 199.230469 L 313.035156 198.984375 L 313.367188 198.742188 L 313.703125 198.5 L 314.039062 198.261719 L 314.71875 197.785156 L 315.058594 197.550781 L 315.402344 197.320312 L 315.746094 197.09375 L 316.09375 196.863281 L 316.789062 196.417969 L 317.140625 196.195312 L 317.488281 195.976562 L 317.84375 195.761719 L 318.195312 195.546875 L 318.550781 195.335938 L 318.910156 195.128906 L 319.265625 194.921875 L 319.625 194.714844 L 319.988281 194.511719 L 320.347656 194.3125 L 320.710938 194.113281 L 321.074219 193.917969 L 321.441406 193.722656 L 321.808594 193.535156 L 322.175781 193.34375 L 322.546875 193.15625 L 322.914062 192.972656 L 323.285156 192.792969 L 324.035156 192.433594 L 324.40625 192.257812 L 324.785156 192.085938 L 325.160156 191.917969 L 325.917969 191.582031 L 326.296875 191.421875 L 327.0625 191.101562 L 327.445312 190.945312 L 327.828125 190.792969 L 328.214844 190.640625 L 328.601562 190.492188 L 329.375 190.203125 L 329.761719 190.0625 L 330.152344 189.921875 L 330.542969 189.785156 L 330.933594 189.652344 L 331.328125 189.519531 L 331.71875 189.390625 L 332.507812 189.140625 L 332.902344 189.019531 L 333.300781 188.898438 L 333.695312 188.78125 L 334.09375 188.667969 L 335.289062 188.339844 L 336.09375 188.136719 L 336.492188 188.035156 L 337.296875 187.847656 L 337.703125 187.753906 L 338.105469 187.664062 L 338.511719 187.578125 L 338.914062 187.496094 L 339.320312 187.414062 L 340.132812 187.257812 L 340.539062 187.183594 L 340.949219 187.113281 L 341.355469 187.046875 L 341.765625 186.980469 L 342.171875 186.917969 L 342.582031 186.855469 L 342.992188 186.796875 L 343.8125 186.6875 L 344.222656 186.636719 L 345.042969 186.542969 L 345.457031 186.5 L 345.867188 186.460938 L 346.28125 186.421875 L 346.691406 186.390625 L 347.105469 186.355469 L 347.515625 186.328125 L 348.34375 186.273438 L 348.753906 186.253906 L 349.582031 186.214844 L 350.410156 186.191406 L 350.820312 186.179688 Z M 352.0625 186.167969 "/>
<g fill="rgb(0%, 0%, 0%)" fill-opacity="1">
<use xlink:href="#glyph-0-0" x="108.160156" y="247.515625"/>
<use xlink:href="#glyph-0-1" x="114.903626" y="247.515625"/>
<use xlink:href="#glyph-0-2" x="117.356287" y="247.515625"/>
<use xlink:href="#glyph-0-3" x="122.876122" y="247.515625"/>
<use xlink:href="#glyph-0-4" x="129.01586" y="247.515625"/>
</g>
<g fill="rgb(0%, 0%, 0%)" fill-opacity="1">
<use xlink:href="#glyph-0-5" x="104.472656" y="263.414062"/>
<use xlink:href="#glyph-0-6" x="112.445152" y="263.414062"/>
<use xlink:href="#glyph-0-4" x="118.58489" y="263.414062"/>
<use xlink:href="#glyph-0-1" x="124.724628" y="263.414062"/>
<use xlink:href="#glyph-0-7" x="127.177289" y="263.414062"/>
<use xlink:href="#glyph-0-8" x="133.317027" y="263.414062"/>
</g>
<g fill="rgb(25.490196%, 41.176471%, 88.235294%)" fill-opacity="1">
<use xlink:href="#glyph-0-9" x="301.050781" y="247.515625"/>
<use xlink:href="#glyph-0-10" x="309.023277" y="247.515625"/>
<use xlink:href="#glyph-0-11" x="314.543111" y="247.515625"/>
<use xlink:href="#glyph-0-12" x="320.062946" y="247.515625"/>
<use xlink:href="#glyph-0-1" x="322.515607" y="247.515625"/>
<use xlink:href="#glyph-0-13" x="324.968268" y="247.515625"/>
<use xlink:href="#glyph-0-14" x="331.108006" y="247.515625"/>
</g>
<g fill="rgb(25.490196%, 41.176471%, 88.235294%)" fill-opacity="1">
<use xlink:href="#glyph-0-5" x="301.964844" y="263.414062"/>
<use xlink:href="#glyph-0-6" x="309.937339" y="263.414062"/>
<use xlink:href="#glyph-0-4" x="316.077077" y="263.414062"/>
<use xlink:href="#glyph-0-1" x="322.216815" y="263.414062"/>
<use xlink:href="#glyph-0-7" x="324.669476" y="263.414062"/>
<use xlink:href="#glyph-0-8" x="330.809214" y="263.414062"/>
</g>
<path fill-rule="nonzero" fill="rgb(100%, 100%, 100%)" fill-opacity="1" d="M 395.417969 266.734375 L 440.371094 266.734375 L 440.289062 266.734375 L 440.609375 266.722656 L 440.921875 266.65625 L 441.222656 266.542969 L 441.5 266.382812 L 441.746094 266.179688 L 441.960938 265.941406 L 442.128906 265.671875 L 442.253906 265.378906 L 442.332031 265.066406 L 442.359375 264.75 L 442.359375 237.277344 L 442.332031 236.957031 L 442.253906 236.648438 L 442.128906 236.351562 L 441.960938 236.082031 L 441.746094 235.84375 L 441.5 235.640625 L 441.222656 235.480469 L 440.921875 235.367188 L 440.609375 235.304688 L 440.371094 235.289062 L 395.417969 235.289062 L 395.65625 235.304688 L 395.335938 235.292969 L 395.019531 235.328125 L 394.710938 235.417969 L 394.421875 235.554688 L 394.160156 235.738281 L 393.929688 235.957031 L 393.738281 236.214844 L 393.589844 236.496094 L 393.488281 236.800781 L 393.433594 237.117188 L 393.429688 237.277344 L 393.429688 264.75 L 393.433594 264.589844 L 393.433594 264.910156 L 393.488281 265.222656 L 393.589844 265.527344 L 393.738281 265.808594 L 393.929688 266.066406 L 394.160156 266.289062 L 394.421875 266.46875 L 394.710938 266.605469 L 395.019531 266.695312 L 395.335938 266.734375 Z M 395.417969 266.734375 "/>
<g fill="rgb(69.803922%, 13.333333%, 13.333333%)" fill-opacity="1">
<use xlink:href="#glyph-0-15" x="408.074219" y="247.515625"/>
<use xlink:href="#glyph-0-3" x="415.437592" y="247.515625"/>
<use xlink:href="#glyph-0-13" x="421.57733" y="247.515625"/>
</g>
<g fill="rgb(69.803922%, 13.333333%, 13.333333%)" fill-opacity="1">
<use xlink:href="#glyph-0-16" x="396.417969" y="263.414062"/>
<use xlink:href="#glyph-0-1" x="404.390464" y="263.414062"/>
<use xlink:href="#glyph-0-8" x="406.843125" y="263.414062"/>
<use xlink:href="#glyph-0-17" x="412.36296" y="263.414062"/>
<use xlink:href="#glyph-0-6" x="415.430134" y="263.414062"/>
<use xlink:href="#glyph-0-13" x="421.569872" y="263.414062"/>
<use xlink:href="#glyph-0-11" x="427.709609" y="263.414062"/>
<use xlink:href="#glyph-0-3" x="433.229444" y="263.414062"/>
</g>
<path fill="none" stroke-width="1.066978" stroke-linecap="butt" stroke-linejoin="miter" stroke="rgb(0%, 0%, 0%)" stroke-opacity="1" stroke-miterlimit="10" d="M 220.402344 252 L 25.542969 252 "/>
<path fill-rule="nonzero" fill="rgb(0%, 0%, 0%)" fill-opacity="1" stroke-width="1.066978" stroke-linecap="butt" stroke-linejoin="miter" stroke="rgb(0%, 0%, 0%)" stroke-opacity="1" stroke-miterlimit="10" d="M 36.035156 249.1875 L 25.542969 252 L 36.035156 254.8125 Z M 36.035156 249.1875 "/>
<path fill="none" stroke-width="1.066978" stroke-linecap="butt" stroke-linejoin="miter" stroke="rgb(25.490196%, 41.176471%, 88.235294%)" stroke-opacity="1" stroke-miterlimit="10" d="M 352.0625 252 L 288.863281 252 "/>
<path fill-rule="nonzero" fill="rgb(25.490196%, 41.176471%, 88.235294%)" fill-opacity="1" stroke-width="1.066978" stroke-linecap="butt" stroke-linejoin="miter" stroke="rgb(25.490196%, 41.176471%, 88.235294%)" stroke-opacity="1" stroke-miterlimit="10" d="M 299.355469 249.1875 L 288.863281 252 L 299.355469 254.8125 Z M 299.355469 249.1875 "/>
<path fill="none" stroke-width="1.066978" stroke-linecap="butt" stroke-linejoin="miter" stroke="rgb(69.803922%, 13.333333%, 13.333333%)" stroke-opacity="1" stroke-miterlimit="10" d="M 352.0625 252 L 481.089844 252 "/>
<path fill-rule="nonzero" fill="rgb(69.803922%, 13.333333%, 13.333333%)" fill-opacity="1" stroke-width="1.066978" stroke-linecap="butt" stroke-linejoin="miter" stroke="rgb(69.803922%, 13.333333%, 13.333333%)" stroke-opacity="1" stroke-miterlimit="10" d="M 470.597656 254.8125 L 481.089844 252 L 470.597656 249.1875 Z M 470.597656 254.8125 "/>
<path fill-rule="nonzero" fill="rgb(25.490196%, 41.176471%, 88.235294%)" fill-opacity="1" stroke-width="0.708661" stroke-linecap="round" stroke-linejoin="round" stroke="rgb(25.490196%, 41.176471%, 88.235294%)" stroke-opacity="1" stroke-miterlimit="10" d="M 354.015625 252 C 354.015625 254.605469 350.109375 254.605469 350.109375 252 C 350.109375 249.394531 354.015625 249.394531 354.015625 252 "/>
</svg>
