<?xml version="1.0" encoding="UTF-8"?>
<svg xmlns="http://www.w3.org/2000/svg" xmlns:xlink="http://www.w3.org/1999/xlink" width="100%" height="100%" viewBox="0 0 720 720" version="1.1">
  <g id="spiro_15_14_1.5_33089">
    <path style="fill:none;stroke-width:3;stroke-linecap:round;stroke-linejoin:round;stroke:rgb(0%,0%,0%);stroke-opacity:1;stroke-miterlimit:10;" d="M 693.332031 360 L 692.8125 349.53125 L 691.253906 339.15625 L 688.671875 328.960938 L 685.085938 319.035156 L 680.519531 309.464844 L 675.011719 300.335938 L 668.605469 291.726563 L 661.34375 283.714844 L 653.292969 276.371094 L 644.503906 269.761719 L 635.050781 263.949219 L 625.003906 258.988281 L 614.441406 254.921875 L 603.445313 251.800781 L 592.097656 249.652344 L 580.488281 248.503906 L 568.703125 248.375 L 556.832031 249.273438 L 544.96875 251.207031 L 533.203125 254.164063 L 521.628906 258.136719 L 510.324219 263.101563 L 499.386719 269.027344 L 488.890625 275.882813 L 478.925781 283.621094 L 469.558594 292.195313 L 460.863281 301.542969 L 452.90625 311.601563 L 445.746094 322.308594 L 439.441406 333.589844 L 434.03125 345.359375 L 429.5625 357.546875 L 426.066406 370.054688 L 423.566406 382.808594 L 422.078125 395.710938 L 421.617188 408.671875 L 422.175781 421.601563 L 423.757813 434.410156 L 426.339844 447.007813 L 429.90625 459.304688 L 434.425781 471.21875 L 439.855469 482.660156 L 446.15625 493.558594 L 453.277344 503.828125 L 461.15625 513.410156 L 469.730469 522.230469 L 478.933594 530.234375 L 488.691406 537.367188 L 498.925781 543.585938 L 509.546875 548.851563 L 520.480469 553.128906 L 531.632813 556.394531 L 542.914063 558.636719 L 554.234375 559.839844 L 565.503906 560.011719 L 576.632813 559.15625 L 587.527344 557.289063 L 598.105469 554.433594 L 608.277344 550.621094 L 617.964844 545.894531 L 627.085938 540.292969 L 635.566406 533.871094 L 643.335938 526.6875 L 650.335938 518.808594 L 656.503906 510.300781 L 661.785156 501.246094 L 666.144531 491.714844 L 669.535156 481.796875 L 671.933594 471.570313 L 673.308594 461.132813 L 673.65625 450.5625 L 672.960938 439.960938 L 671.226563 429.414063 L 668.464844 419.011719 L 664.691406 408.84375 L 659.929688 398.996094 L 654.210938 389.558594 L 647.578125 380.609375 L 640.078125 372.226563 L 631.761719 364.484375 L 622.691406 357.449219 L 612.933594 351.1875 L 602.554688 345.753906 L 591.632813 341.199219 L 580.246094 337.566406 L 568.484375 334.894531 L 556.425781 333.210938 L 544.160156 332.535156 L 531.78125 332.882813 L 519.378906 334.261719 L 507.042969 336.664063 L 494.859375 340.085938 L 482.925781 344.5 L 471.324219 349.890625 L 460.140625 356.214844 L 449.453125 363.4375 L 439.34375 371.511719 L 429.882813 380.375 L 421.140625 389.972656 L 413.175781 400.242188 L 406.042969 411.101563 L 399.796875 422.480469 L 394.476563 434.300781 L 390.121094 446.472656 L 386.753906 458.914063 L 384.394531 471.535156 L 383.0625 484.242188 L 382.753906 496.953125 L 383.46875 509.566406 L 385.195313 522 L 387.917969 534.160156 L 391.601563 545.960938 L 396.214844 557.324219 L 401.714844 568.160156 L 408.058594 578.398438 L 415.179688 587.960938 L 423.027344 596.789063 L 431.527344 604.816406 L 440.609375 611.988281 L 450.199219 618.257813 L 460.210938 623.578125 L 470.5625 627.925781 L 481.164063 631.265625 L 491.933594 633.578125 L 502.777344 634.859375 L 513.601563 635.097656 L 524.320313 634.304688 L 534.84375 632.492188 L 545.078125 629.675781 L 554.9375 625.890625 L 564.34375 621.171875 L 573.214844 615.558594 L 581.472656 609.101563 L 589.046875 601.859375 L 595.871094 593.898438 L 601.890625 585.277344 L 607.042969 576.078125 L 611.289063 566.371094 L 614.582031 556.246094 L 616.890625 545.777344 L 618.195313 535.0625 L 618.46875 524.183594 L 617.707031 513.234375 L 615.910156 502.308594 L 613.078125 491.488281 L 609.230469 480.871094 L 604.390625 470.539063 L 598.582031 460.585938 L 591.847656 451.085938 L 584.230469 442.125 L 575.777344 433.773438 L 566.550781 426.109375 L 556.613281 419.1875 L 546.035156 413.074219 L 534.886719 407.820313 L 523.25 403.46875 L 511.207031 400.066406 L 498.839844 397.636719 L 486.238281 396.210938 L 473.492188 395.796875 L 460.691406 396.414063 L 447.925781 398.050781 L 435.289063 400.710938 L 422.867188 404.371094 L 410.75 409.011719 L 399.023438 414.597656 L 387.769531 421.09375 L 377.070313 428.457031 L 366.992188 436.628906 L 357.613281 445.554688 L 348.992188 455.171875 L 341.1875 465.40625 L 334.257813 476.1875 L 328.238281 487.429688 L 323.175781 499.058594 L 319.09375 510.980469 L 316.019531 523.113281 L 313.96875 535.367188 L 312.945313 547.648438 L 312.949219 559.867188 L 313.976563 571.933594 L 316.003906 583.757813 L 319.007813 595.25 L 322.960938 606.328125 L 327.816406 616.910156 L 333.535156 626.917969 L 340.058594 636.277344 L 347.332031 644.917969 L 355.285156 652.777344 L 363.851563 659.800781 L 372.953125 665.933594 L 382.511719 671.132813 L 392.441406 675.363281 L 402.660156 678.597656 L 413.078125 680.808594 L 423.605469 681.984375 L 434.152344 682.121094 L 444.625 681.21875 L 454.933594 679.289063 L 464.992188 676.351563 L 474.710938 672.425781 L 484.007813 667.550781 L 492.800781 661.765625 L 501.007813 655.121094 L 508.5625 647.664063 L 515.394531 639.460938 L 521.441406 630.574219 L 526.644531 621.078125 L 530.957031 611.046875 L 534.339844 600.566406 L 536.75 589.710938 L 538.164063 578.574219 L 538.558594 567.242188 L 537.921875 555.804688 L 536.253906 544.351563 L 533.550781 532.976563 L 529.832031 521.769531 L 525.109375 510.816406 L 519.414063 500.207031 L 512.777344 490.023438 L 505.25 480.347656 L 496.867188 471.257813 L 487.695313 462.820313 L 477.792969 455.109375 L 467.226563 448.179688 L 456.066406 442.09375 L 444.394531 436.894531 L 432.285156 432.625 L 419.828125 429.320313 L 407.105469 427.007813 L 394.210938 425.707031 L 381.234375 425.425781 L 368.261719 426.171875 L 355.386719 427.9375 L 342.703125 430.710938 L 330.296875 434.46875 L 318.25 439.1875 L 306.652344 444.832031 L 295.582031 451.355469 L 285.113281 458.707031 L 275.324219 466.835938 L 266.269531 475.675781 L 258.019531 485.15625 L 250.625 495.210938 L 244.132813 505.753906 L 238.585938 516.714844 L 234.015625 528 L 230.449219 539.523438 L 227.902344 551.199219 L 226.382813 562.933594 L 225.902344 574.640625 L 226.445313 586.222656 L 228 597.59375 L 230.550781 608.667969 L 234.058594 619.355469 L 238.492188 629.574219 L 243.808594 639.246094 L 249.953125 648.292969 L 256.871094 656.644531 L 264.5 664.238281 L 272.769531 671.011719 L 281.601563 676.914063 L 290.925781 681.898438 L 300.65625 685.925781 L 310.710938 688.964844 L 320.996094 690.984375 L 331.429688 691.976563 L 341.914063 691.929688 L 352.363281 690.84375 L 362.6875 688.722656 L 372.792969 685.582031 L 382.59375 681.449219 L 392.003906 676.351563 L 400.945313 670.328125 L 409.332031 663.421875 L 417.09375 655.691406 L 424.15625 647.1875 L 430.464844 637.976563 L 435.949219 628.132813 L 440.566406 617.726563 L 444.265625 606.835938 L 447.015625 595.542969 L 448.777344 583.9375 L 449.53125 572.105469 L 449.261719 560.136719 L 447.960938 548.117188 L 445.628906 536.144531 L 442.277344 524.308594 L 437.921875 512.695313 L 432.585938 501.394531 L 426.300781 490.488281 L 419.105469 480.0625 L 411.046875 470.195313 L 402.179688 460.957031 L 392.5625 452.421875 L 382.261719 444.648438 L 371.34375 437.695313 L 359.886719 431.617188 L 347.96875 426.453125 L 335.675781 422.242188 L 323.09375 419.015625 L 310.304688 416.792969 L 297.40625 415.589844 L 284.484375 415.414063 L 271.632813 416.261719 L 258.941406 418.121094 L 246.5 420.976563 L 234.390625 424.800781 L 222.707031 429.566406 L 211.523438 435.226563 L 200.917969 441.734375 L 190.96875 449.042969 L 181.742188 457.082031 L 173.296875 465.792969 L 165.691406 475.097656 L 158.976563 484.929688 L 153.199219 495.199219 L 148.386719 505.828125 L 144.574219 516.730469 L 141.78125 527.816406 L 140.015625 538.996094 L 139.292969 550.175781 L 139.597656 561.269531 L 140.929688 572.183594 L 143.261719 582.828125 L 146.570313 593.121094 L 150.824219 602.976563 L 155.976563 612.3125 L 161.980469 621.050781 L 168.78125 629.121094 L 176.320313 636.453125 L 184.527344 642.992188 L 193.332031 648.675781 L 202.660156 653.457031 L 212.421875 657.296875 L 222.542969 660.160156 L 232.933594 662.015625 L 243.503906 662.847656 L 254.164063 662.640625 L 264.824219 661.394531 L 275.394531 659.117188 L 285.78125 655.8125 L 295.898438 651.507813 L 305.65625 646.226563 L 314.976563 640.007813 L 323.777344 632.890625 L 331.980469 624.929688 L 339.515625 616.175781 L 346.316406 606.695313 L 352.320313 596.554688 L 357.476563 585.824219 L 361.734375 574.585938 L 365.054688 562.917969 L 367.402344 550.90625 L 368.753906 538.636719 L 369.089844 526.199219 L 368.402344 513.683594 L 366.683594 501.179688 L 363.945313 488.78125 L 360.195313 476.578125 L 355.460938 464.65625 L 349.765625 453.105469 L 343.152344 442.003906 L 335.660156 431.433594 L 327.34375 421.472656 L 318.257813 412.1875 L 308.464844 403.644531 L 298.035156 395.90625 L 287.042969 389.023438 L 275.5625 383.046875 L 263.679688 378.011719 L 251.476563 373.949219 L 239.042969 370.886719 L 226.46875 368.84375 L 213.84375 367.828125 L 201.257813 367.835938 L 188.800781 368.863281 L 176.566406 370.898438 L 164.636719 373.914063 L 153.105469 377.882813 L 142.046875 382.765625 L 131.546875 388.519531 L 121.675781 395.085938 L 112.507813 402.414063 L 104.101563 410.441406 L 96.519531 419.089844 L 89.816406 428.292969 L 84.03125 437.964844 L 79.210938 448.03125 L 75.378906 458.402344 L 72.5625 468.988281 L 70.777344 479.703125 L 70.03125 490.457031 L 70.320313 501.15625 L 71.640625 511.710938 L 73.976563 522.035156 L 77.300781 532.035156 L 81.582031 541.628906 L 86.785156 550.734375 L 92.859375 559.269531 L 99.753906 567.167969 L 107.410156 574.355469 L 115.761719 580.769531 L 124.742188 586.351563 L 134.269531 591.050781 L 144.273438 594.824219 L 154.660156 597.632813 L 165.355469 599.449219 L 176.261719 600.246094 L 187.296875 600.015625 L 198.363281 598.746094 L 209.371094 596.441406 L 220.234375 593.113281 L 230.863281 588.773438 L 241.167969 583.453125 L 251.0625 577.183594 L 260.464844 570 L 269.304688 561.957031 L 277.5 553.105469 L 284.988281 543.503906 L 291.703125 533.222656 L 297.59375 522.324219 L 302.601563 510.894531 L 306.6875 499.007813 L 309.816406 486.75 L 311.960938 474.207031 L 313.09375 461.464844 L 313.207031 448.617188 L 312.292969 435.75 L 310.359375 422.960938 L 307.410156 410.332031 L 303.472656 397.960938 L 298.5625 385.929688 L 292.722656 374.324219 L 285.992188 363.226563 L 278.414063 352.707031 L 270.050781 342.847656 L 260.960938 333.710938 L 251.210938 325.359375 L 240.871094 317.851563 L 230.019531 311.230469 L 218.738281 305.542969 L 207.105469 300.820313 L 195.214844 297.097656 L 183.152344 294.386719 L 171.007813 292.703125 L 158.871094 292.046875 L 146.835938 292.421875 L 134.988281 293.808594 L 123.421875 296.1875 L 112.21875 299.535156 L 101.46875 303.816406 L 91.246094 308.984375 L 81.628906 314.992188 L 72.691406 321.785156 L 64.496094 329.300781 L 57.105469 337.46875 L 50.578125 346.21875 L 44.957031 355.476563 L 40.285156 365.152344 L 36.59375 375.171875 L 33.914063 385.441406 L 32.261719 395.875 L 31.648438 406.382813 L 32.074219 416.871094 L 33.535156 427.25 L 36.019531 437.429688 L 39.503906 447.324219 L 43.957031 456.84375 L 49.347656 465.910156 L 55.632813 474.4375 L 62.757813 482.351563 L 70.664063 489.585938 L 79.292969 496.070313 L 88.578125 501.75 L 98.441406 506.5625 L 108.804688 510.46875 L 119.589844 513.429688 L 130.707031 515.40625 L 142.074219 516.378906 L 153.601563 516.328125 L 165.191406 515.242188 L 176.761719 513.125 L 188.21875 509.980469 L 199.472656 505.824219 L 210.433594 500.679688 L 221.019531 494.574219 L 231.144531 487.546875 L 240.726563 479.644531 L 249.699219 470.917969 L 257.984375 461.421875 L 265.523438 451.222656 L 272.25 440.386719 L 278.121094 428.996094 L 283.082031 417.121094 L 287.101563 404.847656 L 290.140625 392.257813 L 292.179688 379.445313 L 293.207031 366.496094 L 293.207031 353.503906 L 292.179688 340.554688 L 290.140625 327.742188 L 287.101563 315.152344 L 283.082031 302.878906 L 278.121094 291.003906 L 272.25 279.613281 L 265.523438 268.777344 L 257.984375 258.578125 L 249.699219 249.082031 L 240.726563 240.355469 L 231.144531 232.453125 L 221.019531 225.425781 L 210.433594 219.320313 L 199.472656 214.175781 L 188.21875 210.019531 L 176.761719 206.875 L 165.191406 204.757813 L 153.601563 203.671875 L 142.074219 203.621094 L 130.707031 204.59375 L 119.589844 206.570313 L 108.804688 209.53125 L 98.441406 213.4375 L 88.578125 218.25 L 79.292969 223.929688 L 70.664063 230.414063 L 62.757813 237.648438 L 55.632813 245.5625 L 49.347656 254.089844 L 43.957031 263.15625 L 39.503906 272.675781 L 36.019531 282.570313 L 33.535156 292.75 L 32.074219 303.128906 L 31.648438 313.617188 L 32.261719 324.125 L 33.914063 334.558594 L 36.59375 344.828125 L 40.285156 354.847656 L 44.957031 364.523438 L 50.578125 373.78125 L 57.105469 382.53125 L 64.496094 390.699219 L 72.691406 398.214844 L 81.628906 405.007813 L 91.246094 411.015625 L 101.46875 416.183594 L 112.21875 420.464844 L 123.421875 423.8125 L 134.988281 426.191406 L 146.835938 427.578125 L 158.871094 427.953125 L 171.007813 427.296875 L 183.152344 425.613281 L 195.214844 422.902344 L 207.105469 419.179688 L 218.738281 414.457031 L 230.019531 408.769531 L 240.871094 402.148438 L 251.210938 394.640625 L 260.960938 386.289063 L 270.050781 377.152344 L 278.414063 367.292969 L 285.992188 356.773438 L 292.722656 345.675781 L 298.5625 334.070313 L 303.472656 322.039063 L 307.410156 309.667969 L 310.359375 297.039063 L 312.292969 284.25 L 313.207031 271.382813 L 313.09375 258.535156 L 311.960938 245.792969 L 309.816406 233.25 L 306.6875 220.992188 L 302.601563 209.105469 L 297.59375 197.675781 L 291.703125 186.777344 L 284.988281 176.496094 L 277.5 166.894531 L 269.304688 158.042969 L 260.464844 150 L 251.0625 142.816406 L 241.167969 136.546875 L 230.863281 131.226563 L 220.234375 126.886719 L 209.371094 123.558594 L 198.363281 121.253906 L 187.296875 119.984375 L 176.261719 119.753906 L 165.355469 120.550781 L 154.660156 122.367188 L 144.273438 125.175781 L 134.269531 128.949219 L 124.742188 133.648438 L 115.761719 139.230469 L 107.410156 145.644531 L 99.753906 152.832031 L 92.859375 160.730469 L 86.785156 169.265625 L 81.582031 178.371094 L 77.300781 187.964844 L 73.976563 197.964844 L 71.640625 208.289063 L 70.320313 218.84375 L 70.03125 229.542969 L 70.777344 240.296875 L 72.5625 251.011719 L 75.378906 261.597656 L 79.210938 271.96875 L 84.03125 282.035156 L 89.816406 291.707031 L 96.519531 300.910156 L 104.101563 309.558594 L 112.507813 317.585938 L 121.675781 324.914063 L 131.546875 331.480469 L 142.046875 337.234375 L 153.105469 342.117188 L 164.636719 346.085938 L 176.566406 349.101563 L 188.800781 351.136719 L 201.257813 352.164063 L 213.84375 352.171875 L 226.46875 351.15625 L 239.042969 349.113281 L 251.476563 346.050781 L 263.679688 341.988281 L 275.5625 336.953125 L 287.042969 330.976563 L 298.035156 324.09375 L 308.464844 316.355469 L 318.257813 307.8125 L 327.34375 298.527344 L 335.660156 288.566406 L 343.152344 277.996094 L 349.765625 266.894531 L 355.460938 255.34375 L 360.195313 243.421875 L 363.945313 231.21875 L 366.683594 218.820313 L 368.402344 206.316406 L 369.089844 193.800781 L 368.753906 181.363281 L 367.402344 169.09375 L 365.054688 157.082031 L 361.734375 145.414063 L 357.476563 134.175781 L 352.320313 123.445313 L 346.316406 113.304688 L 339.515625 103.824219 L 331.980469 95.070313 L 323.777344 87.109375 L 314.976563 79.992188 L 305.65625 73.773438 L 295.898438 68.492188 L 285.78125 64.1875 L 275.394531 60.882813 L 264.824219 58.605469 L 254.164063 57.359375 L 243.503906 57.152344 L 232.933594 57.984375 L 222.542969 59.839844 L 212.421875 62.703125 L 202.660156 66.542969 L 193.332031 71.324219 L 184.527344 77.007813 L 176.320313 83.546875 L 168.78125 90.878906 L 161.980469 98.949219 L 155.976563 107.6875 L 150.824219 117.023438 L 146.570313 126.878906 L 143.261719 137.171875 L 140.929688 147.816406 L 139.597656 158.730469 L 139.292969 169.824219 L 140.015625 181.003906 L 141.78125 192.183594 L 144.574219 203.269531 L 148.386719 214.171875 L 153.199219 224.800781 L 158.976563 235.070313 L 165.691406 244.902344 L 173.296875 254.207031 L 181.742188 262.917969 L 190.96875 270.957031 L 200.917969 278.265625 L 211.523438 284.773438 L 222.707031 290.433594 L 234.390625 295.199219 L 246.5 299.023438 L 258.941406 301.878906 L 271.632813 303.738281 L 284.484375 304.585938 L 297.40625 304.410156 L 310.304688 303.207031 L 323.09375 300.984375 L 335.675781 297.757813 L 347.96875 293.546875 L 359.886719 288.382813 L 371.34375 282.304688 L 382.261719 275.351563 L 392.5625 267.578125 L 402.179688 259.042969 L 411.046875 249.804688 L 419.105469 239.9375 L 426.300781 229.511719 L 432.585938 218.605469 L 437.921875 207.304688 L 442.277344 195.691406 L 445.628906 183.855469 L 447.960938 171.882813 L 449.261719 159.863281 L 449.53125 147.894531 L 448.777344 136.0625 L 447.015625 124.457031 L 444.265625 113.164063 L 440.566406 102.273438 L 435.949219 91.867188 L 430.464844 82.023438 L 424.15625 72.8125 L 417.09375 64.308594 L 409.332031 56.578125 L 400.945313 49.671875 L 392.003906 43.648438 L 382.59375 38.550781 L 372.792969 34.417969 L 362.6875 31.277344 L 352.363281 29.15625 L 341.914063 28.070313 L 331.429688 28.023438 L 320.996094 29.015625 L 310.710938 31.035156 L 300.65625 34.074219 L 290.925781 38.101563 L 281.601563 43.085938 L 272.769531 48.988281 L 264.5 55.761719 L 256.871094 63.355469 L 249.953125 71.707031 L 243.808594 80.753906 L 238.492188 90.425781 L 234.058594 100.644531 L 230.550781 111.332031 L 228 122.40625 L 226.445313 133.777344 L 225.902344 145.359375 L 226.382813 157.066406 L 227.902344 168.800781 L 230.449219 180.476563 L 234.015625 192 L 238.585938 203.285156 L 244.132813 214.246094 L 250.625 224.789063 L 258.019531 234.84375 L 266.269531 244.324219 L 275.324219 253.164063 L 285.113281 261.292969 L 295.582031 268.644531 L 306.652344 275.167969 L 318.25 280.8125 L 330.296875 285.53125 L 342.703125 289.289063 L 355.386719 292.0625 L 368.261719 293.828125 L 381.234375 294.574219 L 394.210938 294.292969 L 407.105469 292.992188 L 419.828125 290.679688 L 432.285156 287.375 L 444.394531 283.105469 L 456.066406 277.90625 L 467.226563 271.820313 L 477.792969 264.890625 L 487.695313 257.179688 L 496.867188 248.742188 L 505.25 239.652344 L 512.777344 229.976563 L 519.414063 219.792969 L 525.109375 209.183594 L 529.832031 198.230469 L 533.550781 187.023438 L 536.253906 175.648438 L 537.921875 164.195313 L 538.558594 152.757813 L 538.164063 141.425781 L 536.75 130.289063 L 534.339844 119.433594 L 530.957031 108.953125 L 526.644531 98.921875 L 521.441406 89.425781 L 515.394531 80.539063 L 508.5625 72.335938 L 501.007813 64.878906 L 492.800781 58.234375 L 484.007813 52.449219 L 474.710938 47.574219 L 464.992188 43.648438 L 454.933594 40.710938 L 444.625 38.78125 L 434.152344 37.878906 L 423.605469 38.015625 L 413.078125 39.191406 L 402.660156 41.402344 L 392.441406 44.636719 L 382.511719 48.867188 L 372.953125 54.066406 L 363.851563 60.199219 L 355.285156 67.222656 L 347.332031 75.082031 L 340.058594 83.722656 L 333.535156 93.082031 L 327.816406 103.089844 L 322.960938 113.671875 L 319.007813 124.75 L 316.003906 136.242188 L 313.976563 148.066406 L 312.949219 160.132813 L 312.945313 172.351563 L 313.96875 184.632813 L 316.019531 196.886719 L 319.09375 209.019531 L 323.175781 220.941406 L 328.238281 232.570313 L 334.257813 243.8125 L 341.1875 254.59375 L 348.992188 264.828125 L 357.613281 274.445313 L 366.992188 283.371094 L 377.070313 291.542969 L 387.769531 298.90625 L 399.023438 305.402344 L 410.75 310.988281 L 422.867188 315.628906 L 435.289063 319.289063 L 447.925781 321.949219 L 460.691406 323.585938 L 473.492188 324.203125 L 486.238281 323.789063 L 498.839844 322.363281 L 511.207031 319.933594 L 523.25 316.53125 L 534.886719 312.179688 L 546.035156 306.925781 L 556.613281 300.8125 L 566.550781 293.890625 L 575.777344 286.226563 L 584.230469 277.875 L 591.847656 268.914063 L 598.582031 259.414063 L 604.390625 249.460938 L 609.230469 239.128906 L 613.078125 228.511719 L 615.910156 217.691406 L 617.707031 206.765625 L 618.46875 195.816406 L 618.195313 184.9375 L 616.890625 174.222656 L 614.582031 163.753906 L 611.289063 153.628906 L 607.042969 143.921875 L 601.890625 134.722656 L 595.871094 126.101563 L 589.046875 118.140625 L 581.472656 110.898438 L 573.214844 104.441406 L 564.34375 98.828125 L 554.9375 94.109375 L 545.078125 90.324219 L 534.84375 87.507813 L 524.320313 85.695313 L 513.601563 84.902344 L 502.777344 85.140625 L 491.933594 86.421875 L 481.164063 88.734375 L 470.5625 92.074219 L 460.210938 96.421875 L 450.199219 101.742188 L 440.609375 108.011719 L 431.527344 115.183594 L 423.027344 123.210938 L 415.179688 132.039063 L 408.058594 141.601563 L 401.714844 151.839844 L 396.214844 162.675781 L 391.601563 174.039063 L 387.917969 185.839844 L 385.195313 198 L 383.46875 210.433594 L 382.753906 223.046875 L 383.0625 235.757813 L 384.394531 248.464844 L 386.753906 261.085938 L 390.121094 273.527344 L 394.476563 285.699219 L 399.796875 297.519531 L 406.042969 308.898438 L 413.175781 319.757813 L 421.140625 330.027344 L 429.882813 339.625 L 439.34375 348.488281 L 449.453125 356.5625 L 460.140625 363.785156 L 471.324219 370.109375 L 482.925781 375.5 L 494.859375 379.914063 L 507.042969 383.335938 L 519.378906 385.738281 L 531.78125 387.117188 L 544.160156 387.464844 L 556.425781 386.789063 L 568.484375 385.105469 L 580.246094 382.433594 L 591.632813 378.800781 L 602.554688 374.246094 L 612.933594 368.8125 L 622.691406 362.550781 L 631.761719 355.515625 L 640.078125 347.773438 L 647.578125 339.390625 L 654.210938 330.441406 L 659.929688 321.003906 L 664.691406 311.15625 L 668.464844 300.988281 L 671.226563 290.585938 L 672.960938 280.039063 L 673.65625 269.4375 L 673.308594 258.867188 L 671.933594 248.429688 L 669.535156 238.203125 L 666.144531 228.285156 L 661.785156 218.753906 L 656.503906 209.699219 L 650.335938 201.191406 L 643.335938 193.3125 L 635.566406 186.128906 L 627.085938 179.707031 L 617.964844 174.105469 L 608.277344 169.378906 L 598.105469 165.566406 L 587.527344 162.710938 L 576.632813 160.84375 L 565.503906 159.988281 L 554.234375 160.160156 L 542.914063 161.363281 L 531.632813 163.605469 L 520.480469 166.871094 L 509.546875 171.148438 L 498.925781 176.414063 L 488.691406 182.632813 L 478.933594 189.765625 L 469.730469 197.769531 L 461.15625 206.589844 L 453.277344 216.171875 L 446.15625 226.441406 L 439.855469 237.339844 L 434.425781 248.78125 L 429.90625 260.695313 L 426.339844 272.992188 L 423.757813 285.589844 L 422.175781 298.398438 L 421.617188 311.328125 L 422.078125 324.289063 L 423.566406 337.191406 L 426.066406 349.945313 L 429.5625 362.453125 L 434.03125 374.640625 L 439.441406 386.410156 L 445.746094 397.691406 L 452.90625 408.398438 L 460.863281 418.457031 L 469.558594 427.804688 L 478.925781 436.378906 L 488.890625 444.117188 L 499.386719 450.972656 L 510.324219 456.898438 L 521.628906 461.863281 L 533.203125 465.835938 L 544.96875 468.792969 L 556.832031 470.726563 L 568.703125 471.625 L 580.488281 471.496094 L 592.097656 470.347656 L 603.445313 468.199219 L 614.441406 465.078125 L 625.003906 461.011719 L 635.050781 456.050781 L 644.503906 450.238281 L 653.292969 443.628906 L 661.34375 436.285156 L 668.605469 428.273438 L 675.011719 419.664063 L 680.519531 410.535156 L 685.085938 400.964844 L 688.671875 391.039063 L 691.253906 380.84375 L 692.8125 370.46875 L 693.332031 360 "/>
  </g>
</svg>
