<?xml version="1.0" encoding="UTF-8"?>
<svg xmlns="http://www.w3.org/2000/svg" xmlns:xlink="http://www.w3.org/1999/xlink" width="100%" height="100%" viewBox="0 0 720 720" version="1.1">
  <defs id="spiro_rad_def">
    <radialGradient id="backgrad" cx="0.5" cy="0.5" fx="0.5" fy="0.5" r="0.5">
      <stop offset="27%" stop-color="#FFFFFFFF"/>
      <stop offset="34%" stop-color="#000000FF"/>
      <stop offset="93%" stop-color="#000000FF"/>
      <stop offset="100%" stop-color="#FFFFFFFF"/>
    </radialGradient>
  </defs>
  <rect id="spiro_bg" x="0" y="0" width="100%" height="100%" rx="50%" ry="50%" fill="url(#backgrad)" stroke="none"/>
  <g id="spiro_16_5_5_89179">
    <path style=" stroke:none;fill-rule:evenodd;fill:rgb(70.196078%,39.215686%,21.176471%);fill-opacity:0.701961;" d="M 693.332031 360 L 693.191406 360 L 692.765625 359.992188 L 692.0625 359.96875 L 691.074219 359.929688 L 689.804688 359.863281 L 688.257813 359.761719 L 686.4375 359.621094 L 684.34375 359.433594 L 681.976563 359.195313 L 679.34375 358.898438 L 676.449219 358.539063 L 673.292969 358.109375 L 669.882813 357.601563 L 666.222656 357.015625 L 662.316406 356.339844 L 658.167969 355.574219 L 653.789063 354.710938 L 649.183594 353.746094 L 644.351563 352.675781 L 639.308594 351.496094 L 634.058594 350.199219 L 628.605469 348.789063 L 622.957031 347.253906 L 617.125 345.59375 L 611.117188 343.808594 L 604.9375 341.894531 L 598.59375 339.84375 L 592.101563 337.664063 L 585.464844 335.34375 L 578.691406 332.890625 L 571.792969 330.296875 L 564.777344 327.566406 L 557.652344 324.695313 L 550.429688 321.683594 L 543.121094 318.535156 L 535.730469 315.246094 L 528.269531 311.820313 L 520.746094 308.261719 L 513.171875 304.566406 L 505.558594 300.742188 L 497.914063 296.785156 L 490.246094 292.703125 L 482.5625 288.496094 L 474.878906 284.171875 L 467.199219 279.726563 L 459.535156 275.171875 L 451.898438 270.507813 L 444.289063 265.738281 L 436.726563 260.871094 L 429.210938 255.910156 Z M 693.332031 360 "/>
    <path style=" stroke:none;fill-rule:evenodd;fill:rgb(70.196078%,57.647059%,21.176471%);fill-opacity:0.701961;" d="M 429.210938 255.910156 L 421.757813 250.859375 L 414.371094 245.730469 L 407.058594 240.523438 L 399.832031 235.246094 L 392.695313 229.90625 L 385.660156 224.507813 L 378.726563 219.0625 L 371.910156 213.570313 L 365.210938 208.046875 L 358.636719 202.496094 L 352.199219 196.925781 L 345.894531 191.339844 L 339.738281 185.753906 L 333.726563 180.171875 L 327.871094 174.601563 L 322.175781 169.054688 L 316.640625 163.535156 L 311.269531 158.058594 L 306.074219 152.625 L 301.046875 147.246094 L 296.199219 141.933594 L 291.527344 136.691406 L 287.039063 131.535156 L 282.730469 126.464844 L 278.609375 121.496094 L 274.667969 116.632813 L 270.917969 111.886719 L 267.351563 107.265625 L 263.972656 102.777344 L 260.777344 98.429688 L 257.765625 94.230469 L 254.941406 90.1875 L 252.296875 86.3125 L 249.835938 82.605469 L 247.550781 79.082031 L 245.445313 75.742188 L 243.511719 72.597656 L 241.75 69.652344 L 240.15625 66.917969 L 238.722656 64.390625 L 237.453125 62.085938 L 236.335938 60.007813 L 235.371094 58.15625 L 234.554688 56.542969 L 233.878906 55.167969 L 233.339844 54.039063 L 232.933594 53.15625 L 232.648438 52.527344 L 232.488281 52.15625 L 232.4375 52.039063 Z M 429.210938 255.910156 "/>
    <path style=" stroke:none;fill-rule:evenodd;fill:rgb(63.921569%,70.196078%,21.176471%);fill-opacity:0.701961;" d="M 232.4375 52.039063 L 232.5 52.1875 L 232.660156 52.601563 L 232.917969 53.277344 L 233.261719 54.222656 L 233.691406 55.4375 L 234.191406 56.921875 L 234.765625 58.671875 L 235.398438 60.699219 L 236.085938 62.992188 L 236.824219 65.554688 L 237.601563 68.382813 L 238.414063 71.480469 L 239.25 74.839844 L 240.109375 78.464844 L 240.980469 82.347656 L 241.859375 86.488281 L 242.738281 90.878906 L 243.609375 95.519531 L 244.46875 100.40625 L 245.308594 105.535156 L 246.121094 110.898438 L 246.898438 116.488281 L 247.640625 122.308594 L 248.335938 128.34375 L 248.984375 134.59375 L 249.574219 141.046875 L 250.105469 147.699219 L 250.570313 154.546875 L 250.964844 161.578125 L 251.28125 168.785156 L 251.519531 176.160156 L 251.675781 183.699219 L 251.742188 191.386719 L 251.722656 199.222656 L 251.601563 207.191406 L 251.386719 215.285156 L 251.074219 223.496094 L 250.65625 231.8125 L 250.132813 240.226563 L 249.507813 248.730469 L 248.773438 257.3125 L 247.925781 265.964844 L 246.972656 274.675781 L 245.910156 283.433594 L 244.738281 292.230469 L 243.453125 301.054688 L 242.0625 309.898438 L 240.558594 318.75 L 238.949219 327.601563 L 237.238281 336.441406 Z M 232.4375 52.039063 "/>
    <path style=" stroke:none;fill-rule:evenodd;fill:rgb(45.490196%,70.196078%,21.176471%);fill-opacity:0.701961;" d="M 237.238281 336.441406 L 235.417969 345.257813 L 233.5 354.046875 L 231.480469 362.789063 L 229.363281 371.484375 L 227.15625 380.117188 L 224.855469 388.679688 L 222.472656 397.160156 L 220.003906 405.554688 L 217.460938 413.851563 L 214.839844 422.042969 L 212.152344 430.117188 L 209.402344 438.066406 L 206.597656 445.886719 L 203.734375 453.566406 L 200.828125 461.097656 L 197.878906 468.472656 L 194.898438 475.6875 L 191.886719 482.734375 L 188.855469 489.605469 L 185.8125 496.296875 L 182.757813 502.796875 L 179.703125 509.105469 L 176.65625 515.214844 L 173.621094 521.121094 L 170.609375 526.816406 L 167.628906 532.304688 L 164.683594 537.574219 L 161.78125 542.621094 L 158.929688 547.449219 L 156.140625 552.050781 L 153.417969 556.421875 L 150.769531 560.566406 L 148.203125 564.476563 L 145.726563 568.15625 L 143.351563 571.597656 L 141.078125 574.808594 L 138.921875 577.785156 L 136.882813 580.523438 L 134.972656 583.03125 L 133.199219 585.304688 L 131.5625 587.347656 L 130.078125 589.160156 L 128.746094 590.742188 L 127.578125 592.101563 L 126.578125 593.238281 L 125.753906 594.15625 L 125.105469 594.855469 L 124.644531 595.34375 L 124.375 595.625 L 124.300781 595.699219 Z M 237.238281 336.441406 "/>
    <path style=" stroke:none;fill-rule:evenodd;fill:rgb(27.058824%,70.196078%,21.176471%);fill-opacity:0.701961;" d="M 124.300781 595.699219 L 124.425781 595.578125 L 124.757813 595.257813 L 125.296875 594.75 L 126.050781 594.058594 L 127.023438 593.1875 L 128.214844 592.144531 L 129.632813 590.933594 L 131.273438 589.566406 L 133.140625 588.042969 L 135.242188 586.371094 L 137.574219 584.5625 L 140.140625 582.617188 L 142.9375 580.550781 L 145.972656 578.363281 L 149.238281 576.0625 L 152.742188 573.660156 L 156.480469 571.164063 L 160.449219 568.578125 L 164.648438 565.910156 L 169.078125 563.167969 L 173.738281 560.363281 L 178.621094 557.5 L 183.722656 554.585938 L 189.046875 551.628906 L 194.585938 548.636719 L 200.335938 545.621094 L 206.292969 542.582031 L 212.453125 539.535156 L 218.8125 536.480469 L 225.359375 533.425781 L 232.09375 530.382813 L 239.011719 527.355469 L 246.097656 524.355469 L 253.355469 521.378906 L 260.769531 518.441406 L 268.339844 515.546875 L 276.054688 512.695313 L 283.910156 509.902344 L 291.890625 507.167969 L 299.996094 504.496094 L 308.210938 501.898438 L 316.535156 499.371094 L 324.953125 496.925781 L 333.457031 494.5625 L 342.035156 492.285156 L 350.683594 490.097656 L 359.390625 488.007813 L 368.148438 486.011719 L 376.941406 484.117188 L 385.765625 482.324219 Z M 124.300781 595.699219 "/>
    <path style=" stroke:none;fill-rule:evenodd;fill:rgb(21.176471%,70.196078%,33.333333%);fill-opacity:0.701961;" d="M 385.765625 482.324219 L 394.609375 480.636719 L 403.460938 479.054688 L 412.3125 477.582031 L 421.152344 476.214844 L 429.972656 474.960938 L 438.761719 473.8125 L 447.507813 472.777344 L 456.203125 471.851563 L 464.839844 471.035156 L 473.402344 470.324219 L 481.882813 469.726563 L 490.277344 469.230469 L 498.570313 468.839844 L 506.75 468.546875 L 514.816406 468.359375 L 522.75 468.265625 L 530.546875 468.265625 L 538.199219 468.355469 L 545.699219 468.53125 L 553.03125 468.789063 L 560.195313 469.128906 L 567.183594 469.539063 L 573.980469 470.023438 L 580.585938 470.566406 L 586.988281 471.171875 L 593.1875 471.832031 L 599.167969 472.542969 L 604.929688 473.292969 L 610.464844 474.082031 L 615.769531 474.898438 L 620.835938 475.742188 L 625.664063 476.605469 L 630.242188 477.480469 L 634.570313 478.359375 L 638.648438 479.238281 L 642.464844 480.105469 L 646.023438 480.960938 L 649.320313 481.792969 L 652.347656 482.597656 L 655.113281 483.363281 L 657.609375 484.089844 L 659.832031 484.765625 L 661.789063 485.382813 L 663.476563 485.941406 L 664.890625 486.425781 L 666.039063 486.832031 L 666.917969 487.15625 L 667.527344 487.390625 L 667.875 487.527344 L 667.957031 487.558594 Z M 385.765625 482.324219 "/>
    <path style=" stroke:none;fill-rule:evenodd;fill:rgb(21.176471%,70.196078%,51.764706%);fill-opacity:0.701961;" d="M 667.957031 487.558594 L 667.777344 487.484375 L 667.339844 487.292969 L 666.648438 486.976563 L 665.703125 486.539063 L 664.511719 485.964844 L 663.078125 485.253906 L 661.402344 484.402344 L 659.496094 483.398438 L 657.359375 482.246094 L 654.996094 480.933594 L 652.417969 479.460938 L 649.628906 477.824219 L 646.632813 476.019531 L 643.441406 474.042969 L 640.054688 471.894531 L 636.484375 469.566406 L 632.734375 467.058594 L 628.816406 464.371094 L 624.734375 461.5 L 620.496094 458.441406 L 616.113281 455.203125 L 611.589844 451.773438 L 606.9375 448.160156 L 602.160156 444.363281 L 597.269531 440.378906 L 592.277344 436.210938 L 587.183594 431.855469 L 582.003906 427.320313 L 576.746094 422.605469 L 571.414063 417.710938 L 566.023438 412.644531 L 560.578125 407.402344 L 555.085938 401.992188 L 549.558594 396.417969 L 544.007813 390.679688 L 538.433594 384.785156 L 532.847656 378.738281 L 527.261719 372.542969 L 521.679688 366.207031 L 516.113281 359.730469 L 510.570313 353.125 L 505.050781 346.398438 L 499.574219 339.550781 L 494.136719 332.59375 L 488.753906 325.527344 L 483.429688 318.371094 L 478.167969 311.121094 L 472.980469 303.789063 L 467.867188 296.382813 L 462.839844 288.914063 Z M 667.957031 487.558594 "/>
    <path style=" stroke:none;fill-rule:evenodd;fill:rgb(21.176471%,70.196078%,70.196078%);fill-opacity:0.701961;" d="M 462.839844 288.914063 L 457.902344 281.386719 L 453.0625 273.8125 L 448.316406 266.195313 L 443.679688 258.550781 L 439.152344 250.882813 L 434.738281 243.199219 L 430.441406 235.515625 L 426.265625 227.835938 L 422.214844 220.171875 L 418.289063 212.535156 L 414.496094 204.929688 L 410.835938 197.367188 L 407.308594 189.859375 L 403.917969 182.417969 L 400.664063 175.042969 L 397.550781 167.753906 L 394.574219 160.554688 L 391.738281 153.457031 L 389.042969 146.472656 L 386.484375 139.601563 L 384.0625 132.863281 L 381.777344 126.261719 L 379.628906 119.804688 L 377.613281 113.503906 L 375.730469 107.367188 L 373.976563 101.398438 L 372.351563 95.613281 L 370.847656 90.015625 L 369.464844 84.609375 L 368.199219 79.410156 L 367.046875 74.417969 L 366.003906 69.644531 L 365.0625 65.09375 L 364.226563 60.773438 L 363.484375 56.683594 L 362.832031 52.839844 L 362.261719 49.242188 L 361.777344 45.894531 L 361.363281 42.804688 L 361.019531 39.972656 L 360.738281 37.40625 L 360.515625 35.109375 L 360.339844 33.082031 L 360.210938 31.328125 L 360.117188 29.851563 L 360.058594 28.652344 L 360.023438 27.734375 L 360.007813 27.101563 L 360 26.746094 L 360 26.675781 Z M 462.839844 288.914063 "/>
    <path style=" stroke:none;fill-rule:evenodd;fill:rgb(21.176471%,51.764706%,70.196078%);fill-opacity:0.701961;" d="M 360 26.675781 L 359.996094 26.886719 L 359.988281 27.382813 L 359.960938 28.160156 L 359.914063 29.21875 L 359.839844 30.554688 L 359.730469 32.171875 L 359.578125 34.0625 L 359.378906 36.222656 L 359.128906 38.65625 L 358.816406 41.355469 L 358.4375 44.316406 L 357.988281 47.535156 L 357.464844 51.011719 L 356.855469 54.734375 L 356.15625 58.699219 L 355.367188 62.902344 L 354.480469 67.339844 L 353.488281 72.003906 L 352.390625 76.886719 L 351.183594 81.984375 L 349.859375 87.289063 L 348.414063 92.789063 L 346.851563 98.484375 L 345.160156 104.359375 L 343.34375 110.414063 L 341.394531 116.632813 L 339.3125 123.015625 L 337.097656 129.542969 L 334.746094 136.214844 L 332.253906 143.019531 L 329.625 149.949219 L 326.859375 156.992188 L 323.953125 164.144531 L 320.910156 171.390625 L 317.726563 178.722656 L 314.402344 186.128906 L 310.945313 193.609375 L 307.351563 201.144531 L 303.625 208.726563 L 299.765625 216.347656 L 295.777344 224.003906 L 291.664063 231.675781 L 287.425781 239.355469 L 283.070313 247.042969 L 278.597656 254.71875 L 274.015625 262.375 L 269.324219 270.007813 L 264.53125 277.605469 L 259.640625 285.15625 L 254.65625 292.65625 Z M 360 26.675781 "/>
    <path style=" stroke:none;fill-rule:evenodd;fill:rgb(21.176471%,33.333333%,70.196078%);fill-opacity:0.701961;" d="M 254.65625 292.65625 L 249.585938 300.09375 L 244.433594 307.464844 L 239.210938 314.753906 L 233.917969 321.960938 L 228.5625 329.074219 L 223.152344 336.085938 L 217.691406 342.988281 L 212.195313 349.777344 L 206.660156 356.445313 L 201.105469 362.984375 L 195.53125 369.390625 L 189.945313 375.65625 L 184.359375 381.78125 L 178.777344 387.75 L 173.214844 393.566406 L 167.671875 399.226563 L 162.164063 404.71875 L 156.695313 410.042969 L 151.273438 415.199219 L 145.910156 420.179688 L 140.617188 424.984375 L 135.394531 429.613281 L 130.257813 434.054688 L 125.214844 438.316406 L 120.269531 442.394531 L 115.4375 446.285156 L 110.722656 449.992188 L 106.132813 453.511719 L 101.675781 456.84375 L 97.367188 459.992188 L 93.207031 462.957031 L 89.203125 465.738281 L 85.371094 468.335938 L 81.707031 470.75 L 78.230469 472.992188 L 74.9375 475.054688 L 71.84375 476.945313 L 68.949219 478.664063 L 66.265625 480.21875 L 63.796875 481.609375 L 61.546875 482.839844 L 59.523438 483.917969 L 57.730469 484.84375 L 56.175781 485.628906 L 54.863281 486.269531 L 53.792969 486.773438 L 52.976563 487.148438 L 52.410156 487.402344 L 52.101563 487.535156 L 52.054688 487.554688 Z M 254.65625 292.65625 "/>
    <path style=" stroke:none;fill-rule:evenodd;fill:rgb(27.058824%,21.176471%,70.196078%);fill-opacity:0.701961;" d="M 52.054688 487.554688 L 52.265625 487.46875 L 52.746094 487.285156 L 53.488281 487.003906 L 54.5 486.636719 L 55.78125 486.191406 L 57.332031 485.671875 L 59.152344 485.082031 L 61.246094 484.433594 L 63.605469 483.734375 L 66.234375 482.984375 L 69.132813 482.199219 L 72.296875 481.378906 L 75.722656 480.535156 L 79.410156 479.671875 L 83.359375 478.796875 L 87.5625 477.917969 L 92.015625 477.042969 L 96.71875 476.171875 L 101.667969 475.320313 L 106.851563 474.488281 L 112.273438 473.683594 L 117.921875 472.914063 L 123.796875 472.183594 L 129.886719 471.496094 L 136.1875 470.863281 L 142.691406 470.289063 L 149.394531 469.773438 L 156.289063 469.324219 L 163.363281 468.949219 L 170.613281 468.652344 L 178.03125 468.433594 L 185.605469 468.296875 L 193.332031 468.253906 L 201.203125 468.300781 L 209.203125 468.441406 L 217.324219 468.679688 L 225.5625 469.019531 L 233.90625 469.464844 L 242.347656 470.011719 L 250.871094 470.667969 L 259.472656 471.429688 L 268.136719 472.300781 L 276.859375 473.28125 L 285.628906 474.371094 L 294.433594 475.574219 L 303.265625 476.882813 L 312.113281 478.304688 L 320.964844 479.832031 L 329.8125 481.46875 L 338.648438 483.207031 Z M 52.054688 487.554688 "/>
    <path style=" stroke:none;fill-rule:evenodd;fill:rgb(45.490196%,21.176471%,70.196078%);fill-opacity:0.701961;" d="M 338.648438 483.207031 L 347.457031 485.050781 L 356.234375 486.996094 L 364.96875 489.039063 L 373.648438 491.179688 L 382.261719 493.410156 L 390.808594 495.730469 L 399.269531 498.136719 L 407.640625 500.625 L 415.910156 503.1875 L 424.070313 505.824219 L 432.117188 508.527344 L 440.035156 511.292969 L 447.820313 514.113281 L 455.460938 516.988281 L 462.957031 519.90625 L 470.292969 522.863281 L 477.46875 525.851563 L 484.46875 528.867188 L 491.296875 531.902344 L 497.9375 534.953125 L 504.390625 538.007813 L 510.652344 541.058594 L 516.710938 544.105469 L 522.5625 547.132813 L 528.210938 550.136719 L 533.640625 553.113281 L 538.855469 556.046875 L 543.851563 558.9375 L 548.621094 561.773438 L 553.164063 564.546875 L 557.480469 567.253906 L 561.566406 569.878906 L 565.417969 572.425781 L 569.039063 574.875 L 572.421875 577.226563 L 575.574219 579.46875 L 578.492188 581.597656 L 581.171875 583.605469 L 583.621094 585.484375 L 585.835938 587.222656 L 587.820313 588.820313 L 589.578125 590.269531 L 591.105469 591.558594 L 592.40625 592.6875 L 593.488281 593.644531 L 594.351563 594.425781 L 595 595.027344 L 595.433594 595.441406 L 595.664063 595.664063 L 595.6875 595.6875 Z M 338.648438 483.207031 "/>
    <path style=" stroke:none;fill-rule:evenodd;fill:rgb(63.921569%,21.176471%,70.196078%);fill-opacity:0.701961;" d="M 595.6875 595.6875 L 595.515625 595.511719 L 595.148438 595.128906 L 594.59375 594.535156 L 593.855469 593.726563 L 592.941406 592.699219 L 591.855469 591.453125 L 590.605469 589.980469 L 589.199219 588.28125 L 587.636719 586.355469 L 585.933594 584.195313 L 584.089844 581.804688 L 582.113281 579.183594 L 580.015625 576.324219 L 577.796875 573.234375 L 575.472656 569.90625 L 573.046875 566.34375 L 570.523438 562.550781 L 567.917969 558.523438 L 565.230469 554.265625 L 562.472656 549.777344 L 559.652344 545.0625 L 556.773438 540.125 L 553.851563 534.964844 L 550.882813 529.585938 L 547.886719 523.996094 L 544.863281 518.191406 L 541.820313 512.183594 L 538.769531 505.976563 L 535.714844 499.570313 L 532.664063 492.972656 L 529.625 486.191406 L 526.605469 479.234375 L 523.605469 472.101563 L 520.640625 464.804688 L 517.714844 457.351563 L 514.828125 449.742188 L 511.992188 441.992188 L 509.214844 434.109375 L 506.496094 426.09375 L 503.839844 417.960938 L 501.257813 409.714844 L 498.753906 401.371094 L 496.324219 392.929688 L 493.984375 384.40625 L 491.730469 375.808594 L 489.566406 367.144531 L 487.5 358.421875 L 485.527344 349.65625 L 483.660156 340.855469 L 481.894531 332.023438 Z M 595.6875 595.6875 "/>
    <path style=" stroke:none;fill-rule:evenodd;fill:rgb(70.196078%,21.176471%,57.647059%);fill-opacity:0.701961;" d="M 481.894531 332.023438 L 480.230469 323.179688 L 478.675781 314.324219 L 477.230469 305.476563 L 475.890625 296.640625 L 474.664063 287.828125 L 473.542969 279.046875 L 472.535156 270.3125 L 471.636719 261.632813 L 470.847656 253.015625 L 470.164063 244.46875 L 469.589844 236.007813 L 469.121094 227.640625 L 468.757813 219.375 L 468.492188 211.222656 L 468.324219 203.1875 L 468.257813 195.289063 L 468.277344 187.523438 L 468.390625 179.910156 L 468.589844 172.453125 L 468.867188 165.160156 L 469.226563 158.039063 L 469.65625 151.101563 L 470.152344 144.347656 L 470.714844 137.792969 L 471.332031 131.441406 L 472.007813 125.296875 L 472.726563 119.371094 L 473.488281 113.664063 L 474.28125 108.1875 L 475.109375 102.941406 L 475.957031 97.933594 L 476.824219 93.167969 L 477.699219 88.652344 L 478.578125 84.386719 L 479.453125 80.375 L 480.320313 76.621094 L 481.171875 73.128906 L 481.996094 69.898438 L 482.792969 66.933594 L 483.550781 64.238281 L 484.265625 61.808594 L 484.925781 59.652344 L 485.527344 57.761719 L 486.066406 56.144531 L 486.535156 54.796875 L 486.921875 53.714844 L 487.222656 52.90625 L 487.433594 52.359375 L 487.542969 52.082031 L 487.550781 52.066406 Z M 481.894531 332.023438 "/>
    <path style=" stroke:none;fill-rule:evenodd;fill:rgb(70.196078%,21.176471%,39.215686%);fill-opacity:0.701961;" d="M 487.550781 52.066406 L 487.445313 52.308594 L 487.226563 52.808594 L 486.878906 53.566406 L 486.40625 54.570313 L 485.800781 55.824219 L 485.054688 57.320313 L 484.164063 59.054688 L 483.125 61.019531 L 481.933594 63.210938 L 480.582031 65.628906 L 479.066406 68.257813 L 477.390625 71.101563 L 475.542969 74.144531 L 473.523438 77.386719 L 471.328125 80.820313 L 468.957031 84.4375 L 466.402344 88.230469 L 463.667969 92.191406 L 460.75 96.3125 L 457.648438 100.585938 L 454.363281 105.003906 L 450.890625 109.5625 L 447.230469 114.246094 L 443.382813 119.050781 L 439.351563 123.96875 L 435.136719 128.988281 L 430.738281 134.101563 L 426.160156 139.304688 L 421.398438 144.582031 L 416.460938 149.925781 L 411.351563 155.332031 L 406.066406 160.792969 L 400.613281 166.292969 L 394.996094 171.828125 L 389.21875 177.386719 L 383.285156 182.960938 L 377.203125 188.546875 L 370.972656 194.132813 L 364.597656 199.710938 L 358.09375 205.273438 L 351.457031 210.8125 L 344.695313 216.320313 L 337.820313 221.789063 L 330.835938 227.214844 L 323.746094 232.582031 L 316.566406 237.894531 L 309.292969 243.136719 L 301.945313 248.304688 L 294.523438 253.394531 L 287.039063 258.402344 Z M 487.550781 52.066406 "/>
    <path style=" stroke:none;fill-rule:evenodd;fill:rgb(70.196078%,21.176471%,21.176471%);fill-opacity:0.701961;" d="M 287.039063 258.402344 L 279.496094 263.316406 L 271.910156 268.132813 L 264.285156 272.851563 L 256.632813 277.460938 L 248.960938 281.960938 L 241.277344 286.347656 L 233.59375 290.617188 L 225.917969 294.761719 L 218.261719 298.78125 L 210.628906 302.671875 L 203.035156 306.429688 L 195.484375 310.058594 L 187.992188 313.550781 L 180.566406 316.90625 L 173.214844 320.125 L 165.945313 323.207031 L 158.773438 326.148438 L 151.699219 328.949219 L 144.742188 331.609375 L 137.90625 334.136719 L 131.199219 336.523438 L 124.632813 338.769531 L 118.214844 340.886719 L 111.953125 342.867188 L 105.859375 344.71875 L 99.9375 346.441406 L 94.195313 348.035156 L 88.644531 349.507813 L 83.292969 350.863281 L 78.144531 352.097656 L 73.203125 353.222656 L 68.484375 354.242188 L 63.992188 355.15625 L 59.726563 355.96875 L 55.703125 356.6875 L 51.917969 357.320313 L 48.382813 357.867188 L 45.097656 358.332031 L 42.070313 358.726563 L 39.304688 359.054688 L 36.808594 359.324219 L 34.574219 359.535156 L 32.617188 359.695313 L 30.933594 359.816406 L 29.527344 359.898438 L 28.398438 359.953125 L 27.550781 359.984375 L 26.984375 359.996094 L 26.703125 360 Z M 287.039063 258.402344 "/>
    <path style=" stroke:none;fill-rule:evenodd;fill:rgb(70.196078%,39.215686%,21.176471%);fill-opacity:0.701961;" d="M 26.703125 360 L 26.984375 360.003906 L 27.550781 360.015625 L 28.398438 360.046875 L 29.527344 360.101563 L 30.933594 360.183594 L 32.617188 360.304688 L 34.574219 360.464844 L 36.808594 360.675781 L 39.304688 360.945313 L 42.070313 361.273438 L 45.097656 361.667969 L 48.382813 362.132813 L 51.917969 362.679688 L 55.703125 363.3125 L 59.726563 364.03125 L 63.992188 364.84375 L 68.484375 365.757813 L 73.203125 366.777344 L 78.144531 367.902344 L 83.292969 369.136719 L 88.644531 370.492188 L 94.195313 371.964844 L 99.9375 373.558594 L 105.859375 375.28125 L 111.953125 377.132813 L 118.214844 379.113281 L 124.632813 381.230469 L 131.199219 383.476563 L 137.90625 385.863281 L 144.742188 388.390625 L 151.699219 391.050781 L 158.773438 393.851563 L 165.945313 396.792969 L 173.214844 399.875 L 180.566406 403.09375 L 187.992188 406.449219 L 195.484375 409.941406 L 203.035156 413.570313 L 210.628906 417.328125 L 218.261719 421.21875 L 225.917969 425.238281 L 233.59375 429.382813 L 241.277344 433.652344 L 248.960938 438.039063 L 256.632813 442.539063 L 264.285156 447.148438 L 271.910156 451.867188 L 279.496094 456.683594 L 287.039063 461.597656 L 294.523438 466.605469 Z M 26.703125 360 "/>
    <path style=" stroke:none;fill-rule:evenodd;fill:rgb(70.196078%,57.647059%,21.176471%);fill-opacity:0.701961;" d="M 294.523438 466.605469 L 301.945313 471.695313 L 309.292969 476.863281 L 316.566406 482.105469 L 323.746094 487.417969 L 330.835938 492.785156 L 337.820313 498.210938 L 344.695313 503.679688 L 351.457031 509.1875 L 358.09375 514.726563 L 364.597656 520.289063 L 370.972656 525.867188 L 377.203125 531.453125 L 383.285156 537.039063 L 389.21875 542.613281 L 394.996094 548.171875 L 400.613281 553.707031 L 406.066406 559.207031 L 411.351563 564.667969 L 416.460938 570.074219 L 421.398438 575.417969 L 426.160156 580.695313 L 430.738281 585.898438 L 435.136719 591.011719 L 439.351563 596.03125 L 443.382813 600.949219 L 447.230469 605.753906 L 450.890625 610.4375 L 454.363281 614.996094 L 457.648438 619.414063 L 460.75 623.6875 L 463.667969 627.808594 L 466.402344 631.769531 L 468.957031 635.5625 L 471.328125 639.179688 L 473.523438 642.613281 L 475.542969 645.855469 L 477.390625 648.898438 L 479.066406 651.742188 L 480.582031 654.371094 L 481.933594 656.789063 L 483.125 658.980469 L 484.164063 660.945313 L 485.054688 662.679688 L 485.800781 664.175781 L 486.40625 665.429688 L 486.878906 666.433594 L 487.226563 667.191406 L 487.445313 667.691406 L 487.550781 667.933594 L 487.542969 667.917969 Z M 294.523438 466.605469 "/>
    <path style=" stroke:none;fill-rule:evenodd;fill:rgb(63.921569%,70.196078%,21.176471%);fill-opacity:0.701961;" d="M 487.542969 667.917969 L 487.433594 667.640625 L 487.222656 667.09375 L 486.921875 666.285156 L 486.535156 665.203125 L 486.066406 663.855469 L 485.527344 662.238281 L 484.925781 660.347656 L 484.265625 658.191406 L 483.550781 655.761719 L 482.792969 653.066406 L 481.996094 650.101563 L 481.171875 646.871094 L 480.320313 643.378906 L 479.453125 639.625 L 478.578125 635.613281 L 477.699219 631.347656 L 476.824219 626.832031 L 475.957031 622.066406 L 475.109375 617.058594 L 474.28125 611.8125 L 473.488281 606.335938 L 472.726563 600.628906 L 472.007813 594.703125 L 471.332031 588.558594 L 470.714844 582.207031 L 470.152344 575.652344 L 469.65625 568.898438 L 469.226563 561.960938 L 468.867188 554.839844 L 468.589844 547.546875 L 468.390625 540.089844 L 468.277344 532.476563 L 468.257813 524.710938 L 468.324219 516.8125 L 468.492188 508.777344 L 468.757813 500.625 L 469.121094 492.359375 L 469.589844 483.992188 L 470.164063 475.53125 L 470.847656 466.984375 L 471.636719 458.367188 L 472.535156 449.6875 L 473.542969 440.953125 L 474.664063 432.171875 L 475.890625 423.359375 L 477.230469 414.523438 L 478.675781 405.675781 L 480.230469 396.820313 L 481.894531 387.976563 L 483.660156 379.144531 Z M 487.542969 667.917969 "/>
    <path style=" stroke:none;fill-rule:evenodd;fill:rgb(45.490196%,70.196078%,21.176471%);fill-opacity:0.701961;" d="M 483.660156 379.144531 L 485.527344 370.34375 L 487.5 361.578125 L 489.566406 352.855469 L 491.730469 344.191406 L 493.984375 335.59375 L 496.324219 327.070313 L 498.753906 318.628906 L 501.257813 310.285156 L 503.839844 302.039063 L 506.496094 293.90625 L 509.214844 285.890625 L 511.992188 278.007813 L 514.828125 270.257813 L 517.714844 262.648438 L 520.640625 255.195313 L 523.605469 247.898438 L 526.605469 240.765625 L 529.625 233.808594 L 532.664063 227.027344 L 535.714844 220.429688 L 538.769531 214.023438 L 541.820313 207.816406 L 544.863281 201.808594 L 547.886719 196.003906 L 550.882813 190.414063 L 553.851563 185.035156 L 556.773438 179.875 L 559.652344 174.9375 L 562.472656 170.222656 L 565.230469 165.734375 L 567.917969 161.476563 L 570.523438 157.449219 L 573.046875 153.65625 L 575.472656 150.09375 L 577.796875 146.765625 L 580.015625 143.675781 L 582.113281 140.816406 L 584.089844 138.195313 L 585.933594 135.804688 L 587.636719 133.644531 L 589.199219 131.71875 L 590.605469 130.019531 L 591.855469 128.546875 L 592.941406 127.300781 L 593.855469 126.273438 L 594.59375 125.464844 L 595.148438 124.871094 L 595.515625 124.488281 L 595.6875 124.3125 L 595.664063 124.335938 Z M 483.660156 379.144531 "/>
    <path style=" stroke:none;fill-rule:evenodd;fill:rgb(27.058824%,70.196078%,21.176471%);fill-opacity:0.701961;" d="M 595.664063 124.335938 L 595.433594 124.558594 L 595 124.972656 L 594.351563 125.574219 L 593.488281 126.355469 L 592.40625 127.3125 L 591.105469 128.441406 L 589.578125 129.730469 L 587.820313 131.179688 L 585.835938 132.777344 L 583.621094 134.515625 L 581.171875 136.394531 L 578.492188 138.402344 L 575.574219 140.53125 L 572.421875 142.773438 L 569.039063 145.125 L 565.417969 147.574219 L 561.566406 150.121094 L 557.480469 152.746094 L 553.164063 155.453125 L 548.621094 158.226563 L 543.851563 161.0625 L 538.855469 163.953125 L 533.640625 166.886719 L 528.210938 169.863281 L 522.5625 172.867188 L 516.710938 175.894531 L 510.652344 178.941406 L 504.390625 181.992188 L 497.9375 185.046875 L 491.296875 188.097656 L 484.46875 191.132813 L 477.46875 194.148438 L 470.292969 197.136719 L 462.957031 200.09375 L 455.460938 203.011719 L 447.820313 205.886719 L 440.035156 208.707031 L 432.117188 211.472656 L 424.070313 214.175781 L 415.910156 216.8125 L 407.640625 219.375 L 399.269531 221.863281 L 390.808594 224.269531 L 382.261719 226.589844 L 373.648438 228.820313 L 364.96875 230.960938 L 356.234375 233.003906 L 347.457031 234.949219 L 338.648438 236.792969 L 329.8125 238.53125 Z M 595.664063 124.335938 "/>
    <path style=" stroke:none;fill-rule:evenodd;fill:rgb(21.176471%,70.196078%,33.333333%);fill-opacity:0.701961;" d="M 329.8125 238.53125 L 320.964844 240.167969 L 312.113281 241.695313 L 303.265625 243.117188 L 294.433594 244.425781 L 285.628906 245.628906 L 276.859375 246.71875 L 268.136719 247.699219 L 259.472656 248.570313 L 250.871094 249.332031 L 242.347656 249.988281 L 233.90625 250.535156 L 225.5625 250.980469 L 217.324219 251.320313 L 209.203125 251.558594 L 201.203125 251.699219 L 193.332031 251.746094 L 185.605469 251.703125 L 178.03125 251.566406 L 170.613281 251.347656 L 163.363281 251.050781 L 156.289063 250.675781 L 149.394531 250.226563 L 142.691406 249.710938 L 136.1875 249.136719 L 129.886719 248.503906 L 123.796875 247.816406 L 117.921875 247.085938 L 112.273438 246.316406 L 106.851563 245.511719 L 101.667969 244.679688 L 96.71875 243.828125 L 92.015625 242.957031 L 87.5625 242.082031 L 83.359375 241.203125 L 79.410156 240.328125 L 75.722656 239.464844 L 72.296875 238.621094 L 69.132813 237.800781 L 66.234375 237.015625 L 63.605469 236.265625 L 61.246094 235.566406 L 59.152344 234.917969 L 57.332031 234.328125 L 55.78125 233.808594 L 54.5 233.363281 L 53.488281 232.996094 L 52.746094 232.714844 L 52.265625 232.53125 L 52.054688 232.445313 L 52.101563 232.464844 Z M 329.8125 238.53125 "/>
    <path style=" stroke:none;fill-rule:evenodd;fill:rgb(21.176471%,70.196078%,51.764706%);fill-opacity:0.701961;" d="M 52.101563 232.464844 L 52.410156 232.597656 L 52.976563 232.851563 L 53.792969 233.226563 L 54.863281 233.730469 L 56.175781 234.371094 L 57.730469 235.15625 L 59.523438 236.082031 L 61.546875 237.160156 L 63.796875 238.390625 L 66.265625 239.78125 L 68.949219 241.335938 L 71.84375 243.054688 L 74.9375 244.945313 L 78.230469 247.007813 L 81.707031 249.25 L 85.371094 251.664063 L 89.203125 254.261719 L 93.207031 257.042969 L 97.367188 260.007813 L 101.675781 263.15625 L 106.132813 266.488281 L 110.722656 270.007813 L 115.4375 273.714844 L 120.269531 277.605469 L 125.214844 281.683594 L 130.257813 285.945313 L 135.394531 290.386719 L 140.617188 295.015625 L 145.910156 299.820313 L 151.273438 304.800781 L 156.695313 309.957031 L 162.164063 315.28125 L 167.671875 320.773438 L 173.214844 326.433594 L 178.777344 332.25 L 184.359375 338.21875 L 189.945313 344.34375 L 195.53125 350.609375 L 201.105469 357.015625 L 206.660156 363.554688 L 212.195313 370.222656 L 217.691406 377.011719 L 223.152344 383.914063 L 228.5625 390.925781 L 233.917969 398.039063 L 239.210938 405.246094 L 244.433594 412.535156 L 249.585938 419.90625 L 254.65625 427.34375 L 259.640625 434.84375 Z M 52.101563 232.464844 "/>
    <path style=" stroke:none;fill-rule:evenodd;fill:rgb(21.176471%,70.196078%,70.196078%);fill-opacity:0.701961;" d="M 259.640625 434.84375 L 264.53125 442.394531 L 269.324219 449.992188 L 274.015625 457.625 L 278.597656 465.28125 L 283.070313 472.957031 L 287.425781 480.644531 L 291.664063 488.324219 L 295.777344 495.996094 L 299.765625 503.652344 L 303.625 511.273438 L 307.351563 518.855469 L 310.945313 526.390625 L 314.402344 533.871094 L 317.726563 541.277344 L 320.910156 548.609375 L 323.953125 555.855469 L 326.859375 563.007813 L 329.625 570.050781 L 332.253906 576.980469 L 334.746094 583.785156 L 337.097656 590.457031 L 339.3125 596.984375 L 341.394531 603.367188 L 343.34375 609.585938 L 345.160156 615.640625 L 346.851563 621.515625 L 348.414063 627.210938 L 349.859375 632.710938 L 351.183594 638.015625 L 352.390625 643.113281 L 353.488281 647.996094 L 354.480469 652.660156 L 355.367188 657.097656 L 356.15625 661.300781 L 356.855469 665.265625 L 357.464844 668.988281 L 357.988281 672.464844 L 358.4375 675.683594 L 358.816406 678.644531 L 359.128906 681.34375 L 359.378906 683.777344 L 359.578125 685.9375 L 359.730469 687.828125 L 359.839844 689.445313 L 359.914063 690.78125 L 359.960938 691.839844 L 359.988281 692.617188 L 359.996094 693.113281 L 360 693.324219 L 360 693.253906 Z M 259.640625 434.84375 "/>
    <path style=" stroke:none;fill-rule:evenodd;fill:rgb(21.176471%,51.764706%,70.196078%);fill-opacity:0.701961;" d="M 360 693.253906 L 360.007813 692.898438 L 360.023438 692.265625 L 360.058594 691.347656 L 360.117188 690.148438 L 360.210938 688.671875 L 360.339844 686.917969 L 360.515625 684.890625 L 360.738281 682.59375 L 361.019531 680.027344 L 361.363281 677.195313 L 361.777344 674.105469 L 362.261719 670.757813 L 362.832031 667.160156 L 363.484375 663.316406 L 364.226563 659.226563 L 365.0625 654.90625 L 366.003906 650.355469 L 367.046875 645.582031 L 368.199219 640.589844 L 369.464844 635.390625 L 370.847656 629.984375 L 372.351563 624.386719 L 373.976563 618.601563 L 375.730469 612.632813 L 377.613281 606.496094 L 379.628906 600.195313 L 381.777344 593.738281 L 384.0625 587.136719 L 386.484375 580.398438 L 389.042969 573.527344 L 391.738281 566.542969 L 394.574219 559.445313 L 397.550781 552.246094 L 400.664063 544.957031 L 403.917969 537.582031 L 407.308594 530.140625 L 410.835938 522.632813 L 414.496094 515.070313 L 418.289063 507.464844 L 422.214844 499.828125 L 426.265625 492.164063 L 430.441406 484.484375 L 434.738281 476.800781 L 439.152344 469.117188 L 443.679688 461.449219 L 448.316406 453.804688 L 453.0625 446.1875 L 457.902344 438.613281 L 462.839844 431.085938 L 467.867188 423.617188 Z M 360 693.253906 "/>
    <path style=" stroke:none;fill-rule:evenodd;fill:rgb(21.176471%,33.333333%,70.196078%);fill-opacity:0.701961;" d="M 467.867188 423.617188 L 472.980469 416.210938 L 478.167969 408.878906 L 483.429688 401.628906 L 488.753906 394.472656 L 494.136719 387.40625 L 499.574219 380.449219 L 505.050781 373.601563 L 510.570313 366.875 L 516.113281 360.269531 L 521.679688 353.792969 L 527.261719 347.457031 L 532.847656 341.261719 L 538.433594 335.214844 L 544.007813 329.320313 L 549.558594 323.582031 L 555.085938 318.007813 L 560.578125 312.597656 L 566.023438 307.355469 L 571.414063 302.289063 L 576.746094 297.394531 L 582.003906 292.679688 L 587.183594 288.144531 L 592.277344 283.789063 L 597.269531 279.621094 L 602.160156 275.636719 L 606.9375 271.839844 L 611.589844 268.226563 L 616.113281 264.796875 L 620.496094 261.558594 L 624.734375 258.5 L 628.816406 255.628906 L 632.734375 252.941406 L 636.484375 250.433594 L 640.054688 248.105469 L 643.441406 245.957031 L 646.632813 243.980469 L 649.628906 242.175781 L 652.417969 240.539063 L 654.996094 239.066406 L 657.359375 237.753906 L 659.496094 236.601563 L 661.402344 235.597656 L 663.078125 234.746094 L 664.511719 234.035156 L 665.703125 233.460938 L 666.648438 233.023438 L 667.339844 232.707031 L 667.777344 232.515625 L 667.957031 232.441406 L 667.875 232.472656 Z M 467.867188 423.617188 "/>
    <path style=" stroke:none;fill-rule:evenodd;fill:rgb(27.058824%,21.176471%,70.196078%);fill-opacity:0.701961;" d="M 667.875 232.472656 L 667.527344 232.609375 L 666.917969 232.84375 L 666.039063 233.167969 L 664.890625 233.574219 L 663.476563 234.058594 L 661.789063 234.617188 L 659.832031 235.234375 L 657.609375 235.910156 L 655.113281 236.636719 L 652.347656 237.402344 L 649.320313 238.207031 L 646.023438 239.039063 L 642.464844 239.894531 L 638.648438 240.761719 L 634.570313 241.640625 L 630.242188 242.519531 L 625.664063 243.394531 L 620.835938 244.257813 L 615.769531 245.101563 L 610.464844 245.917969 L 604.929688 246.707031 L 599.167969 247.457031 L 593.1875 248.167969 L 586.988281 248.828125 L 580.585938 249.433594 L 573.980469 249.976563 L 567.183594 250.460938 L 560.195313 250.871094 L 553.03125 251.210938 L 545.699219 251.46875 L 538.199219 251.644531 L 530.546875 251.734375 L 522.75 251.734375 L 514.816406 251.640625 L 506.75 251.453125 L 498.570313 251.160156 L 490.277344 250.769531 L 481.882813 250.273438 L 473.402344 249.675781 L 464.839844 248.964844 L 456.203125 248.148438 L 447.507813 247.222656 L 438.761719 246.1875 L 429.972656 245.039063 L 421.152344 243.785156 L 412.3125 242.417969 L 403.460938 240.945313 L 394.609375 239.363281 L 385.765625 237.675781 L 376.941406 235.882813 Z M 667.875 232.472656 "/>
    <path style=" stroke:none;fill-rule:evenodd;fill:rgb(45.490196%,21.176471%,70.196078%);fill-opacity:0.701961;" d="M 376.941406 235.882813 L 368.148438 233.988281 L 359.390625 231.992188 L 350.683594 229.902344 L 342.035156 227.714844 L 333.457031 225.4375 L 324.953125 223.074219 L 316.535156 220.628906 L 308.210938 218.101563 L 299.996094 215.503906 L 291.890625 212.832031 L 283.910156 210.097656 L 276.054688 207.304688 L 268.339844 204.453125 L 260.769531 201.558594 L 253.355469 198.621094 L 246.097656 195.644531 L 239.011719 192.644531 L 232.09375 189.617188 L 225.359375 186.574219 L 218.8125 183.519531 L 212.453125 180.464844 L 206.292969 177.417969 L 200.335938 174.378906 L 194.585938 171.363281 L 189.046875 168.371094 L 183.722656 165.414063 L 178.621094 162.5 L 173.738281 159.636719 L 169.078125 156.832031 L 164.648438 154.089844 L 160.449219 151.421875 L 156.480469 148.835938 L 152.742188 146.339844 L 149.238281 143.9375 L 145.972656 141.636719 L 142.9375 139.449219 L 140.140625 137.382813 L 137.574219 135.4375 L 135.242188 133.628906 L 133.140625 131.957031 L 131.273438 130.433594 L 129.632813 129.066406 L 128.214844 127.855469 L 127.023438 126.8125 L 126.050781 125.941406 L 125.296875 125.25 L 124.757813 124.742188 L 124.425781 124.421875 L 124.300781 124.300781 L 124.375 124.375 Z M 376.941406 235.882813 "/>
    <path style=" stroke:none;fill-rule:evenodd;fill:rgb(63.921569%,21.176471%,70.196078%);fill-opacity:0.701961;" d="M 124.375 124.375 L 124.644531 124.65625 L 125.105469 125.144531 L 125.753906 125.84375 L 126.578125 126.761719 L 127.578125 127.898438 L 128.746094 129.257813 L 130.078125 130.839844 L 131.5625 132.652344 L 133.199219 134.695313 L 134.972656 136.96875 L 136.882813 139.476563 L 138.921875 142.214844 L 141.078125 145.191406 L 143.351563 148.402344 L 145.726563 151.84375 L 148.203125 155.523438 L 150.769531 159.433594 L 153.417969 163.578125 L 156.140625 167.949219 L 158.929688 172.550781 L 161.78125 177.378906 L 164.683594 182.425781 L 167.628906 187.695313 L 170.609375 193.183594 L 173.621094 198.878906 L 176.65625 204.785156 L 179.703125 210.894531 L 182.757813 217.203125 L 185.8125 223.703125 L 188.855469 230.394531 L 191.886719 237.265625 L 194.898438 244.3125 L 197.878906 251.527344 L 200.828125 258.902344 L 203.734375 266.433594 L 206.597656 274.113281 L 209.402344 281.933594 L 212.152344 289.882813 L 214.839844 297.957031 L 217.460938 306.148438 L 220.003906 314.445313 L 222.472656 322.839844 L 224.855469 331.320313 L 227.15625 339.882813 L 229.363281 348.515625 L 231.480469 357.210938 L 233.5 365.953125 L 235.417969 374.742188 L 237.238281 383.558594 L 238.949219 392.398438 Z M 124.375 124.375 "/>
    <path style=" stroke:none;fill-rule:evenodd;fill:rgb(70.196078%,21.176471%,57.647059%);fill-opacity:0.701961;" d="M 238.949219 392.398438 L 240.558594 401.25 L 242.0625 410.101563 L 243.453125 418.945313 L 244.738281 427.769531 L 245.910156 436.566406 L 246.972656 445.324219 L 247.925781 454.035156 L 248.773438 462.6875 L 249.507813 471.269531 L 250.132813 479.773438 L 250.65625 488.1875 L 251.074219 496.503906 L 251.386719 504.714844 L 251.601563 512.808594 L 251.722656 520.777344 L 251.742188 528.613281 L 251.675781 536.300781 L 251.519531 543.839844 L 251.28125 551.214844 L 250.964844 558.421875 L 250.570313 565.453125 L 250.105469 572.300781 L 249.574219 578.953125 L 248.984375 585.40625 L 248.335938 591.65625 L 247.640625 597.691406 L 246.898438 603.511719 L 246.121094 609.101563 L 245.308594 614.464844 L 244.46875 619.59375 L 243.609375 624.480469 L 242.738281 629.121094 L 241.859375 633.511719 L 240.980469 637.652344 L 240.109375 641.535156 L 239.25 645.160156 L 238.414063 648.519531 L 237.601563 651.617188 L 236.824219 654.445313 L 236.085938 657.007813 L 235.398438 659.300781 L 234.765625 661.328125 L 234.191406 663.078125 L 233.691406 664.5625 L 233.261719 665.777344 L 232.917969 666.722656 L 232.660156 667.398438 L 232.5 667.8125 L 232.4375 667.960938 L 232.488281 667.84375 Z M 238.949219 392.398438 "/>
    <path style=" stroke:none;fill-rule:evenodd;fill:rgb(70.196078%,21.176471%,39.215686%);fill-opacity:0.701961;" d="M 232.488281 667.84375 L 232.648438 667.472656 L 232.933594 666.84375 L 233.339844 665.960938 L 233.878906 664.832031 L 234.554688 663.457031 L 235.371094 661.84375 L 236.335938 659.992188 L 237.453125 657.914063 L 238.722656 655.609375 L 240.15625 653.082031 L 241.75 650.347656 L 243.511719 647.402344 L 245.445313 644.257813 L 247.550781 640.917969 L 249.835938 637.394531 L 252.296875 633.6875 L 254.941406 629.8125 L 257.765625 625.769531 L 260.777344 621.570313 L 263.972656 617.222656 L 267.351563 612.734375 L 270.917969 608.113281 L 274.667969 603.367188 L 278.609375 598.503906 L 282.730469 593.535156 L 287.039063 588.464844 L 291.527344 583.308594 L 296.199219 578.066406 L 301.046875 572.753906 L 306.074219 567.375 L 311.269531 561.941406 L 316.640625 556.464844 L 322.175781 550.945313 L 327.871094 545.398438 L 333.726563 539.828125 L 339.738281 534.246094 L 345.894531 528.660156 L 352.199219 523.074219 L 358.636719 517.503906 L 365.210938 511.953125 L 371.910156 506.429688 L 378.726563 500.9375 L 385.660156 495.492188 L 392.695313 490.09375 L 399.832031 484.753906 L 407.058594 479.476563 L 414.371094 474.269531 L 421.757813 469.140625 L 429.210938 464.089844 L 436.726563 459.128906 Z M 232.488281 667.84375 "/>
    <path style=" stroke:none;fill-rule:evenodd;fill:rgb(70.196078%,21.176471%,21.176471%);fill-opacity:0.701961;" d="M 436.726563 459.128906 L 444.289063 454.261719 L 451.898438 449.492188 L 459.535156 444.828125 L 467.199219 440.273438 L 474.878906 435.828125 L 482.5625 431.503906 L 490.246094 427.296875 L 497.914063 423.214844 L 505.558594 419.257813 L 513.171875 415.433594 L 520.746094 411.738281 L 528.269531 408.179688 L 535.730469 404.753906 L 543.121094 401.464844 L 550.429688 398.316406 L 557.652344 395.304688 L 564.777344 392.433594 L 571.792969 389.703125 L 578.691406 387.109375 L 585.464844 384.65625 L 592.101563 382.335938 L 598.59375 380.15625 L 604.9375 378.105469 L 611.117188 376.191406 L 617.125 374.40625 L 622.957031 372.746094 L 628.605469 371.210938 L 634.058594 369.800781 L 639.308594 368.503906 L 644.351563 367.324219 L 649.183594 366.253906 L 653.789063 365.289063 L 658.167969 364.425781 L 662.316406 363.660156 L 666.222656 362.984375 L 669.882813 362.398438 L 673.292969 361.890625 L 676.449219 361.460938 L 679.34375 361.101563 L 681.976563 360.804688 L 684.34375 360.566406 L 686.4375 360.378906 L 688.257813 360.238281 L 689.804688 360.136719 L 691.074219 360.070313 L 692.0625 360.03125 L 692.765625 360.007813 L 693.191406 360 L 693.332031 360 Z M 436.726563 459.128906 "/>
  </g>
</svg>
