<?xml version="1.0" encoding="UTF-8"?>
<svg xmlns="http://www.w3.org/2000/svg" xmlns:xlink="http://www.w3.org/1999/xlink" width="100%" height="100%" viewBox="0 0 720 720" version="1.1">
  <g id="spiro_1.73205080756888_1_1_24551">
    <path style=" stroke:none;fill-rule:evenodd;fill:rgb(25.490196%,41.176471%,88.235294%);fill-opacity:1;" d="M 693.332031 360 L 689.164063 360.070313 L 676.765625 360.546875 L 656.484375 361.820313 L 628.871094 364.238281 L 594.679688 368.082031 L 554.847656 373.5625 L 510.453125 380.789063 L 462.695313 389.78125 L 412.851563 400.449219 L 362.253906 412.597656 L 312.230469 425.921875 L 264.082031 440.03125 L 219.042969 454.449219 L 178.242188 468.632813 L 142.675781 481.992188 L 113.175781 493.910156 L 90.394531 503.773438 L 74.785156 510.988281 L 66.59375 515.015625 L 65.859375 515.378906 L 72.402344 511.714844 L 85.859375 503.753906 L 105.675781 491.367188 L 131.132813 474.574219 L 161.378906 453.527344 L 195.457031 428.542969 L 232.328125 400.085938 L 270.914063 368.753906 L 310.121094 335.273438 L 348.882813 300.476563 L 386.1875 265.28125 L 421.105469 230.667969 L 452.816406 197.640625 L 480.628906 167.199219 L 504 140.316406 L 522.542969 117.890625 L 536.035156 100.734375 L 544.417969 89.523438 L 547.789063 84.792969 L 546.390625 86.902344 L 540.609375 96.027344 L 530.929688 112.144531 L 517.941406 135.027344 L 502.289063 164.25 L 484.667969 199.199219 L 465.78125 239.082031 L 446.324219 282.941406 L 426.953125 329.691406 L 408.269531 378.148438 L 390.789063 427.042969 L 374.945313 475.089844 L 361.054688 520.988281 L 349.332031 563.496094 L 339.871094 601.433594 L 332.65625 633.742188 L 327.566406 659.5 L 324.386719 677.96875 L 322.820313 688.59375 L 322.507813 691.042969 L 323.046875 685.195313 L 324.019531 671.171875 L 325.003906 649.308594 L 325.601563 620.164063 L 325.449219 584.496094 L 324.253906 543.242188 L 321.796875 497.492188 L 317.945313 448.457031 L 312.664063 397.433594 L 306.023438 345.765625 L 298.183594 294.816406 L 289.417969 245.910156 L 280.074219 200.308594 L 270.578125 159.171875 L 261.417969 123.527344 L 253.117188 94.234375 L 246.210938 71.96875 L 241.234375 57.210938 L 238.691406 50.21875 L 239.03125 51.039063 L 242.632813 59.492188 L 249.769531 75.203125 L 260.609375 97.597656 L 275.199219 125.929688 L 293.4375 159.304688 L 315.101563 196.714844 L 339.816406 237.066406 L 367.082031 279.203125 L 396.277344 321.960938 L 426.675781 364.195313 L 457.453125 404.804688 L 487.746094 442.78125 L 516.632813 477.214844 L 543.203125 507.339844 L 566.558594 532.535156 L 585.859375 552.359375 L 600.347656 566.523438 L 609.378906 574.9375 L 612.449219 577.671875 L 609.195313 574.960938 L 599.445313 567.191406 L 583.203125 554.878906 L 560.664063 538.652344 L 532.21875 519.214844 L 498.4375 497.335938 L 460.066406 473.8125 L 418 449.429688 L 373.269531 424.964844 L 327.007813 401.128906 L 280.421875 378.566406 L 234.757813 357.828125 L 191.253906 339.355469 L 151.121094 323.472656 L 115.5 310.382813 L 85.417969 300.167969 L 61.777344 292.78125 L 45.300781 288.074219 L 36.527344 285.789063 L 35.792969 285.601563 L 43.207031 287.109375 L 58.65625 289.875 L 81.804688 293.441406 L 112.105469 297.34375 L 148.800781 301.15625 L 190.960938 304.484375 L 237.496094 307.003906 L 287.199219 308.460938 L 338.765625 308.699219 L 390.84375 307.648438 L 442.066406 305.34375 L 491.09375 301.925781 L 536.644531 297.613281 L 577.546875 292.71875 L 612.757813 287.621094 L 641.390625 282.75 L 662.757813 278.574219 L 676.367188 275.566406 L 681.945313 274.199219 L 679.449219 274.902344 L 669.054688 278.058594 L 651.144531 283.964844 L 626.316406 292.835938 L 595.335938 304.769531 L 559.128906 319.753906 L 518.757813 337.648438 L 475.363281 358.175781 L 430.152344 380.949219 L 384.359375 405.453125 L 339.203125 431.078125 L 295.84375 457.117188 L 255.378906 482.804688 L 218.773438 507.328125 L 186.875 529.863281 L 160.355469 549.597656 L 139.722656 565.753906 L 125.304688 577.628906 L 117.226563 584.613281 L 115.4375 586.21875 L 119.710938 582.101563 L 129.644531 572.070313 L 144.703125 556.113281 L 164.21875 534.386719 L 187.421875 507.234375 L 213.472656 475.175781 L 241.5 438.894531 L 270.609375 399.21875 L 299.925781 357.113281 L 328.628906 313.640625 L 355.949219 269.9375 L 381.230469 227.1875 L 403.910156 186.570313 L 423.558594 149.246094 L 439.871094 116.304688 L 452.6875 88.742188 L 461.96875 67.421875 L 467.8125 53.046875 L 470.429688 46.152344 L 470.132813 47.050781 L 467.320313 55.863281 L 462.453125 72.480469 L 456.027344 96.574219 L 448.570313 127.609375 L 440.585938 164.839844 L 432.5625 207.355469 L 424.9375 254.082031 L 418.078125 303.816406 L 412.277344 355.273438 L 407.726563 407.105469 L 404.527344 457.949219 L 402.679688 506.46875 L 402.082031 551.378906 L 402.539063 591.503906 L 403.777344 625.789063 L 405.453125 653.351563 L 407.171875 673.484375 L 408.515625 685.695313 L 409.046875 689.703125 L 408.339844 685.464844 L 406.015625 673.15625 L 401.742188 653.167969 L 395.25 626.109375 L 386.382813 592.769531 L 375.066406 554.105469 L 361.351563 511.199219 L 345.394531 465.246094 L 327.484375 417.5 L 308.003906 369.242188 L 287.449219 321.742188 L 266.40625 276.234375 L 245.527344 233.863281 L 225.511719 195.664063 L 207.097656 162.53125 L 191.007813 135.195313 L 177.953125 114.214844 L 168.578125 99.941406 L 163.460938 92.535156 L 163.0625 91.964844 L 167.730469 97.996094 L 177.664063 110.222656 L 192.910156 128.078125 L 213.34375 150.855469 L 238.683594 177.734375 L 268.472656 207.808594 L 302.097656 240.117188 L 338.808594 273.683594 L 377.71875 307.535156 L 417.851563 340.738281 L 458.144531 372.429688 L 497.496094 401.835938 L 534.792969 428.292969 L 568.9375 451.265625 L 598.898438 470.367188 L 623.722656 485.347656 L 642.582031 496.101563 L 654.800781 502.683594 L 659.863281 505.261719 L 657.457031 504.136719 L 647.464844 499.714844 L 629.992188 492.472656 L 605.339844 482.960938 L 574.035156 471.761719 L 536.789063 459.460938 L 494.496094 446.644531 L 448.199219 433.855469 L 399.070313 421.585938 L 348.382813 410.25 L 297.453125 400.175781 L 247.625 391.597656 L 200.226563 384.636719 L 156.523438 379.320313 L 117.6875 375.566406 L 84.765625 373.203125 L 58.644531 371.976563 L 40.027344 371.554688 L 29.410156 371.574219 L 27.070313 371.621094 L 33.058594 371.289063 L 47.195313 370.171875 L 69.078125 367.910156 L 98.09375 364.1875 L 133.4375 358.761719 L 174.140625 351.480469 L 219.089844 342.292969 L 267.058594 331.238281 L 316.769531 318.484375 L 366.890625 304.292969 L 416.109375 289.03125 L 463.152344 273.15625 L 506.820313 257.210938 L 546.039063 241.777344 L 579.863281 227.496094 L 607.515625 215.003906 L 628.414063 204.9375 L 642.171875 197.894531 L 648.601563 194.410156 L 647.734375 194.929688 L 639.796875 199.800781 L 625.210938 209.242188 L 604.570313 223.328125 L 578.621094 241.996094 L 548.230469 265.011719 L 514.367188 292 L 478.066406 322.429688 L 440.386719 355.636719 L 402.390625 390.828125 L 365.109375 427.117188 L 329.5 463.53125 L 296.441406 499.058594 L 266.6875 532.664063 L 240.863281 563.324219 L 219.445313 590.066406 L 202.75 611.992188 L 190.945313 628.320313 L 184.023438 638.394531 L 181.839844 641.726563 L 184.109375 638 L 190.417969 627.105469 L 200.253906 609.125 L 213.03125 584.34375 L 228.097656 553.257813 L 244.789063 516.546875 L 262.421875 475.0625 L 280.347656 429.820313 L 297.957031 381.945313 L 314.710938 332.671875 L 330.148438 283.28125 L 343.914063 235.085938 L 355.757813 189.386719 L 365.527344 147.417969 L 373.203125 110.339844 L 378.851563 79.183594 L 382.652344 54.820313 L 384.863281 37.945313 L 385.8125 29.058594 L 385.882813 28.425781 L 385.476563 36.105469 L 385.015625 51.914063 L 384.90625 75.449219 L 385.515625 106.09375 L 387.160156 143.042969 L 390.09375 185.304688 L 394.472656 231.761719 L 400.367188 281.171875 L 407.742188 332.226563 L 416.460938 383.578125 L 426.289063 433.878906 L 436.894531 481.824219 L 447.867188 526.183594 L 458.71875 565.839844 L 468.929688 599.824219 L 477.9375 627.328125 L 485.179688 647.734375 L 490.117188 660.636719 L 492.246094 665.839844 L 491.128906 663.359375 L 486.425781 653.429688 L 477.886719 636.484375 L 465.402344 613.136719 L 448.976563 584.171875 L 428.773438 550.503906 L 405.085938 513.152344 L 378.355469 473.222656 L 349.144531 431.839844 L 318.148438 390.15625 L 286.148438 349.28125 L 254.019531 310.261719 L 222.675781 274.0625 L 193.066406 241.527344 L 166.128906 213.359375 L 142.769531 190.113281 L 123.828125 172.164063 L 110.042969 159.730469 L 102.035156 152.851563 L 100.28125 151.402344 L 105.082031 155.097656 L 116.566406 163.515625 L 134.667969 176.121094 L 159.121094 192.273438 L 189.472656 211.265625 L 225.089844 232.34375 L 265.164063 254.742188 L 308.734375 277.699219 L 354.722656 300.496094 L 401.957031 322.46875 L 449.191406 343.039063 L 495.171875 361.722656 L 538.632813 378.144531 L 578.378906 392.046875 L 613.28125 403.296875 L 642.335938 411.875 L 664.683594 417.882813 L 679.640625 421.511719 L 686.726563 423.058594 L 685.667969 422.875 L 676.414063 421.371094 L 659.144531 418.992188 L 634.257813 416.179688 L 602.363281 413.371094 L 564.273438 410.960938 L 520.96875 409.296875 L 473.578125 408.644531 L 423.34375 409.199219 L 371.578125 411.050781 L 319.652344 414.195313 L 268.917969 418.53125 L 220.703125 423.855469 L 176.257813 429.878906 L 136.71875 436.234375 L 103.085938 442.5 L 76.175781 448.199219 L 56.628906 452.84375 L 44.871094 455.941406 L 41.101563 457.023438 L 45.3125 455.664063 L 57.261719 451.507813 L 76.507813 444.289063 L 102.410156 433.839844 L 134.164063 420.113281 L 170.808594 403.183594 L 211.277344 383.261719 L 254.414063 360.683594 L 299.019531 335.910156 L 343.882813 309.523438 L 387.816406 282.195313 L 429.695313 254.6875 L 468.480469 227.816406 L 503.253906 202.429688 L 533.238281 179.378906 L 557.820313 159.5 L 576.5625 143.5625 L 589.210938 132.265625 L 595.6875 126.195313 L 596.105469 125.804688 L 590.742188 131.402344 L 580.03125 143.121094 L 564.542969 160.917969 L 544.964844 184.570313 L 522.066406 213.664063 L 496.671875 247.621094 L 469.640625 285.691406 L 441.835938 326.980469 L 414.085938 370.476563 L 387.167969 415.066406 L 361.777344 459.574219 L 338.515625 502.792969 L 317.878906 543.53125 L 300.226563 580.621094 L 285.789063 612.984375 L 274.679688 639.652344 L 266.863281 659.785156 L 262.199219 672.722656 L 260.433594 677.992188 L 261.226563 675.328125 L 264.160156 664.675781 L 268.773438 646.207031 L 274.566406 620.320313 L 281.046875 587.609375 L 287.734375 548.875 L 294.179688 505.085938 L 300.003906 457.359375 L 304.898438 406.933594 L 308.632813 355.113281 L 311.082031 303.265625 L 312.21875 252.75 L 312.113281 204.894531 L 310.925781 160.949219 L 308.914063 122.070313 L 306.402344 89.257813 L 303.777344 63.351563 L 301.460938 44.992188 L 299.894531 34.617188 L 299.523438 32.433594 L 300.761719 38.429688 L 303.976563 52.363281 L 309.472656 73.78125 L 317.464844 102.035156 L 328.070313 136.28125 L 341.296875 175.535156 L 357.039063 218.691406 L 375.0625 264.546875 L 395.015625 311.851563 L 416.449219 359.332031 L 438.792969 405.742188 L 461.414063 449.894531 L 483.601563 490.6875 L 504.613281 527.132813 L 523.683594 558.402344 L 540.0625 583.828125 L 553.035156 602.917969 L 561.960938 615.386719 L 566.28125 621.132813 L 565.558594 620.253906 L 559.492188 613.027344 L 547.925781 599.90625 L 530.871094 581.484375 L 508.511719 558.5 L 481.203125 531.777344 L 449.464844 502.21875 L 413.972656 470.769531 L 375.546875 438.378906 L 335.121094 405.980469 L 293.738281 374.460938 L 252.488281 344.632813 L 212.511719 317.199219 L 174.941406 292.761719 L 140.875 271.785156 L 111.351563 254.59375 L 87.292969 241.371094 L 69.507813 232.152344 L 58.632813 226.847656 L 55.128906 225.234375 L 59.265625 226.976563 L 71.085938 231.652344 L 90.429688 238.769531 L 116.925781 247.785156 L 149.984375 258.132813 L 188.832031 269.246094 L 232.523438 280.582031 L 279.960938 291.648438 L 329.933594 302.007813 Z M 693.332031 360 "/>
  </g>
</svg>
