<?xml version="1.0" encoding="UTF-8"?>
<svg xmlns="http://www.w3.org/2000/svg" xmlns:xlink="http://www.w3.org/1999/xlink" width="100%" height="100%" viewBox="0 0 720 720" version="1.1">
  <g id="spiro_6_5_5_59721">
    <path style=" stroke:none;fill-rule:evenodd;fill:rgb(100%,0%,0%);fill-opacity:1;" d="M 693.332031 360 L 693.242188 360 L 693.128906 360.003906 L 692.96875 360.011719 L 692.761719 360.019531 L 692.511719 360.035156 L 692.214844 360.054688 L 691.875 360.082031 L 691.488281 360.117188 L 691.054688 360.160156 L 690.582031 360.210938 L 690.0625 360.273438 L 689.496094 360.347656 L 688.890625 360.4375 L 688.238281 360.535156 L 687.546875 360.648438 L 686.8125 360.777344 L 686.035156 360.921875 L 685.214844 361.082031 L 684.355469 361.261719 L 683.453125 361.457031 L 682.511719 361.671875 L 681.53125 361.910156 L 680.511719 362.164063 L 679.453125 362.441406 L 678.359375 362.742188 L 677.226563 363.066406 L 676.054688 363.414063 L 674.851563 363.785156 L 673.609375 364.179688 L 672.335938 364.601563 L 671.027344 365.050781 L 669.683594 365.527344 L 668.308594 366.03125 L 666.90625 366.5625 L 665.46875 367.121094 L 664.003906 367.710938 L 662.507813 368.332031 L 660.984375 368.984375 L 659.433594 369.664063 L 657.855469 370.375 L 656.253906 371.121094 L 654.625 371.898438 L 652.972656 372.707031 L 651.300781 373.550781 L 649.601563 374.429688 L 647.886719 375.339844 L 646.148438 376.28125 L 644.390625 377.261719 L 642.617188 378.273438 L 640.824219 379.324219 L 639.015625 380.40625 L 637.195313 381.523438 L 635.355469 382.679688 L 633.503906 383.867188 L 631.640625 385.09375 L 629.769531 386.355469 L 627.882813 387.652344 L 625.988281 388.984375 L 624.085938 390.351563 L 622.179688 391.753906 L 620.261719 393.195313 L 618.339844 394.671875 L 616.417969 396.183594 L 614.488281 397.730469 L 612.558594 399.308594 L 610.628906 400.925781 L 608.695313 402.578125 L 606.765625 404.265625 L 604.835938 405.984375 L 602.910156 407.738281 L 600.988281 409.527344 L 599.070313 411.351563 L 597.160156 413.207031 L 595.253906 415.09375 L 593.355469 417.011719 L 591.46875 418.964844 L 589.589844 420.949219 L 587.71875 422.960938 L 585.863281 425.007813 L 584.015625 427.082031 L 582.183594 429.183594 L 580.363281 431.316406 L 578.558594 433.480469 L 576.773438 435.667969 L 575 437.882813 L 573.246094 440.125 L 571.507813 442.390625 L 569.789063 444.683594 L 568.089844 447 L 566.414063 449.339844 L 564.753906 451.703125 L 563.121094 454.085938 L 561.507813 456.492188 L 559.914063 458.917969 L 558.347656 461.363281 L 556.804688 463.824219 L 555.289063 466.308594 L 553.796875 468.804688 L 552.328125 471.320313 Z M 693.332031 360 "/>
    <path style=" stroke:none;fill-rule:evenodd;fill:rgb(100%,50.196078%,0%);fill-opacity:1;" d="M 552.328125 471.320313 L 550.890625 473.851563 L 549.476563 476.394531 L 548.089844 478.953125 L 546.730469 481.523438 L 545.402344 484.105469 L 544.101563 486.695313 L 542.832031 489.296875 L 541.589844 491.910156 L 540.375 494.527344 L 539.195313 497.152344 L 538.042969 499.78125 L 536.921875 502.414063 L 535.832031 505.054688 L 534.773438 507.695313 L 533.746094 510.335938 L 532.75 512.980469 L 531.785156 515.621094 L 530.855469 518.261719 L 529.953125 520.902344 L 529.085938 523.535156 L 528.25 526.167969 L 527.445313 528.792969 L 526.671875 531.410156 L 525.933594 534.019531 L 525.222656 536.621094 L 524.546875 539.214844 L 523.902344 541.796875 L 523.285156 544.363281 L 522.703125 546.921875 L 522.152344 549.464844 L 521.632813 551.992188 L 521.144531 554.503906 L 520.683594 557 L 520.253906 559.480469 L 519.855469 561.9375 L 519.484375 564.378906 L 519.140625 566.796875 L 518.828125 569.195313 L 518.542969 571.570313 L 518.289063 573.921875 L 518.058594 576.246094 L 517.855469 578.550781 L 517.679688 580.824219 L 517.527344 583.074219 L 517.402344 585.296875 L 517.304688 587.488281 L 517.226563 589.652344 L 517.171875 591.785156 L 517.144531 593.890625 L 517.136719 595.960938 L 517.148438 597.996094 L 517.183594 600.003906 L 517.238281 601.972656 L 517.308594 603.910156 L 517.402344 605.8125 L 517.511719 607.675781 L 517.640625 609.507813 L 517.78125 611.296875 L 517.941406 613.050781 L 518.117188 614.769531 L 518.304688 616.445313 L 518.503906 618.082031 L 518.714844 619.679688 L 518.941406 621.238281 L 519.175781 622.757813 L 519.417969 624.234375 L 519.671875 625.667969 L 519.929688 627.058594 L 520.199219 628.410156 L 520.472656 629.71875 L 520.75 630.984375 L 521.03125 632.207031 L 521.316406 633.386719 L 521.601563 634.519531 L 521.890625 635.613281 L 522.179688 636.660156 L 522.46875 637.664063 L 522.753906 638.625 L 523.035156 639.539063 L 523.316406 640.410156 L 523.589844 641.238281 L 523.859375 642.019531 L 524.121094 642.757813 L 524.378906 643.453125 L 524.625 644.101563 L 524.859375 644.707031 L 525.089844 645.269531 L 525.304688 645.785156 L 525.507813 646.261719 L 525.695313 646.691406 L 525.871094 647.078125 L 526.03125 647.425781 L 526.175781 647.726563 L 526.414063 648.203125 L 526.507813 648.378906 L 526.578125 648.515625 L 526.628906 648.609375 L 526.660156 648.660156 L 526.667969 648.675781 Z M 552.328125 471.320313 "/>
    <path style=" stroke:none;fill-rule:evenodd;fill:rgb(100%,100%,0%);fill-opacity:1;" d="M 526.667969 648.675781 L 526.652344 648.648438 L 526.613281 648.582031 L 526.546875 648.480469 L 526.457031 648.335938 L 526.34375 648.15625 L 526.199219 647.941406 L 526.03125 647.6875 L 525.832031 647.402344 L 525.601563 647.078125 L 525.34375 646.71875 L 525.054688 646.328125 L 524.738281 645.90625 L 524.386719 645.449219 L 524 644.960938 L 523.585938 644.441406 L 523.132813 643.894531 L 522.648438 643.316406 L 522.128906 642.710938 L 521.574219 642.078125 L 520.984375 641.417969 L 520.355469 640.730469 L 519.695313 640.019531 L 518.992188 639.285156 L 518.253906 638.527344 L 517.480469 637.746094 L 516.664063 636.941406 L 515.8125 636.121094 L 514.921875 635.277344 L 513.992188 634.414063 L 513.019531 633.535156 L 512.011719 632.640625 L 510.960938 631.730469 L 509.871094 630.800781 L 508.742188 629.863281 L 507.570313 628.910156 L 506.363281 627.941406 L 505.109375 626.964844 L 503.820313 625.980469 L 502.488281 624.984375 L 501.117188 623.980469 L 499.703125 622.96875 L 498.25 621.953125 L 496.757813 620.933594 L 495.222656 619.90625 L 493.648438 618.878906 L 492.035156 617.847656 L 490.382813 616.8125 L 488.6875 615.78125 L 486.957031 614.75 L 485.183594 613.71875 L 483.375 612.691406 L 481.527344 611.667969 L 479.640625 610.648438 L 477.714844 609.636719 L 475.753906 608.628906 L 473.753906 607.628906 L 471.71875 606.636719 L 469.648438 605.65625 L 467.539063 604.683594 L 465.398438 603.722656 L 463.222656 602.773438 L 461.011719 601.835938 L 458.769531 600.914063 L 456.492188 600.003906 L 454.183594 599.109375 L 451.84375 598.230469 L 449.472656 597.371094 L 447.070313 596.527344 L 444.640625 595.703125 L 442.183594 594.894531 L 439.695313 594.105469 L 437.179688 593.339844 L 434.640625 592.59375 L 432.074219 591.871094 L 429.480469 591.167969 L 426.867188 590.488281 L 424.226563 589.832031 L 421.566406 589.199219 L 418.882813 588.59375 L 416.179688 588.011719 L 413.457031 587.453125 L 410.71875 586.921875 L 407.957031 586.417969 L 405.183594 585.941406 L 402.390625 585.492188 L 399.582031 585.066406 L 396.761719 584.671875 L 393.929688 584.308594 L 391.082031 583.972656 L 388.226563 583.664063 L 385.359375 583.382813 L 382.480469 583.132813 L 379.597656 582.914063 L 376.707031 582.726563 L 373.808594 582.566406 L 370.910156 582.4375 L 368.003906 582.335938 L 365.09375 582.269531 L 362.183594 582.230469 L 359.273438 582.222656 Z M 526.667969 648.675781 "/>
    <path style=" stroke:none;fill-rule:evenodd;fill:rgb(50.196078%,100%,0%);fill-opacity:1;" d="M 359.273438 582.222656 L 356.359375 582.246094 L 353.453125 582.300781 L 350.542969 582.382813 L 347.640625 582.496094 L 344.742188 582.640625 L 341.847656 582.816406 L 338.957031 583.019531 L 336.078125 583.253906 L 333.207031 583.519531 L 330.34375 583.8125 L 327.492188 584.136719 L 324.652344 584.488281 L 321.824219 584.867188 L 319.011719 585.277344 L 316.210938 585.710938 L 313.429688 586.175781 L 310.660156 586.667969 L 307.910156 587.183594 L 305.179688 587.726563 L 302.464844 588.296875 L 299.773438 588.894531 L 297.101563 589.511719 L 294.449219 590.15625 L 291.824219 590.824219 L 289.21875 591.515625 L 286.640625 592.230469 L 284.085938 592.964844 L 281.558594 593.722656 L 279.058594 594.5 L 276.585938 595.296875 L 274.140625 596.113281 L 271.722656 596.945313 L 269.339844 597.800781 L 266.984375 598.667969 L 264.65625 599.554688 L 262.367188 600.457031 L 260.105469 601.371094 L 257.878906 602.304688 L 255.683594 603.246094 L 253.527344 604.203125 L 251.402344 605.167969 L 249.3125 606.144531 L 247.257813 607.132813 L 245.242188 608.128906 L 243.261719 609.132813 L 241.320313 610.140625 L 239.414063 611.160156 L 237.546875 612.179688 L 235.714844 613.207031 L 233.925781 614.234375 L 232.171875 615.265625 L 230.460938 616.296875 L 228.785156 617.328125 L 227.152344 618.363281 L 225.558594 619.390625 L 224.003906 620.417969 L 222.492188 621.445313 L 221.019531 622.460938 L 219.585938 623.476563 L 218.191406 624.484375 L 216.839844 625.484375 L 215.53125 626.472656 L 214.257813 627.457031 L 213.027344 628.425781 L 211.839844 629.386719 L 210.6875 630.335938 L 209.578125 631.269531 L 208.507813 632.1875 L 207.480469 633.089844 L 206.488281 633.980469 L 205.539063 634.847656 L 204.628906 635.699219 L 203.757813 636.535156 L 202.921875 637.347656 L 202.128906 638.136719 L 201.371094 638.910156 L 200.652344 639.65625 L 199.96875 640.378906 L 199.324219 641.078125 L 198.714844 641.75 L 198.144531 642.398438 L 197.605469 643.019531 L 197.105469 643.609375 L 196.636719 644.171875 L 196.203125 644.707031 L 195.800781 645.210938 L 195.433594 645.679688 L 195.097656 646.121094 L 194.796875 646.527344 L 194.523438 646.902344 L 194.28125 647.242188 L 194.066406 647.550781 L 193.882813 647.820313 L 193.726563 648.054688 L 193.597656 648.253906 L 193.492188 648.414063 L 193.417969 648.535156 L 193.367188 648.621094 L 193.339844 648.667969 L 193.335938 648.671875 Z M 359.273438 582.222656 "/>
    <path style=" stroke:none;fill-rule:evenodd;fill:rgb(0%,100%,0%);fill-opacity:1;" d="M 193.335938 648.671875 L 193.351563 648.640625 L 193.394531 648.566406 L 193.457031 648.453125 L 193.535156 648.296875 L 193.636719 648.101563 L 193.757813 647.863281 L 193.890625 647.582031 L 194.046875 647.257813 L 194.214844 646.890625 L 194.398438 646.480469 L 194.59375 646.03125 L 194.804688 645.535156 L 195.023438 644.992188 L 195.257813 644.410156 L 195.5 643.78125 L 195.75 643.109375 L 196.007813 642.394531 L 196.273438 641.632813 L 196.546875 640.828125 L 196.824219 639.980469 L 197.105469 639.085938 L 197.390625 638.148438 L 197.675781 637.167969 L 197.964844 636.140625 L 198.253906 635.074219 L 198.539063 633.957031 L 198.828125 632.800781 L 199.109375 631.601563 L 199.390625 630.355469 L 199.664063 629.070313 L 199.9375 627.742188 L 200.199219 626.371094 L 200.457031 624.957031 L 200.703125 623.5 L 200.945313 622.003906 L 201.171875 620.464844 L 201.390625 618.886719 L 201.597656 617.269531 L 201.792969 615.613281 L 201.972656 613.914063 L 202.140625 612.179688 L 202.289063 610.40625 L 202.425781 608.597656 L 202.542969 606.75 L 202.644531 604.867188 L 202.730469 602.945313 L 202.792969 600.992188 L 202.835938 599.003906 L 202.859375 596.984375 L 202.863281 594.929688 L 202.84375 592.839844 L 202.804688 590.722656 L 202.738281 588.574219 L 202.648438 586.398438 L 202.535156 584.1875 L 202.398438 581.953125 L 202.234375 579.691406 L 202.046875 577.402344 L 201.828125 575.085938 L 201.585938 572.746094 L 201.316406 570.382813 L 201.019531 568 L 200.691406 565.589844 L 200.335938 563.160156 L 199.949219 560.710938 L 199.535156 558.242188 L 199.089844 555.753906 L 198.617188 553.25 L 198.109375 550.730469 L 197.574219 548.195313 L 197.007813 545.644531 L 196.410156 543.082031 L 195.78125 540.507813 L 195.117188 537.917969 L 194.425781 535.324219 L 193.703125 532.714844 L 192.945313 530.101563 L 192.15625 527.480469 L 191.335938 524.851563 L 190.484375 522.21875 L 189.597656 519.582031 L 188.683594 516.941406 L 187.734375 514.300781 L 186.753906 511.660156 L 185.742188 509.015625 L 184.699219 506.375 L 183.625 503.734375 L 182.519531 501.097656 L 181.386719 498.464844 L 180.21875 495.835938 L 179.019531 493.214844 L 177.792969 490.601563 L 176.539063 487.996094 L 175.25 485.398438 L 173.9375 482.8125 L 172.59375 480.238281 L 171.222656 477.671875 L 169.820313 475.121094 L 168.394531 472.585938 L 166.941406 470.0625 Z M 193.335938 648.671875 "/>
    <path style=" stroke:none;fill-rule:evenodd;fill:rgb(0%,100%,50.196078%);fill-opacity:1;" d="M 166.941406 470.0625 L 165.460938 467.554688 L 163.957031 465.066406 L 162.425781 462.589844 L 160.871094 460.136719 L 159.292969 457.703125 L 157.691406 455.285156 L 156.066406 452.890625 L 154.417969 450.515625 L 152.75 448.167969 L 151.0625 445.839844 L 149.351563 443.535156 L 147.625 441.253906 L 145.878906 439 L 144.117188 436.769531 L 142.335938 434.570313 L 140.539063 432.394531 L 138.726563 430.25 L 136.902344 428.128906 L 135.0625 426.039063 L 133.210938 423.980469 L 131.347656 421.953125 L 129.472656 419.953125 L 127.589844 417.984375 L 125.695313 416.050781 L 123.792969 414.144531 L 121.886719 412.273438 L 119.972656 410.433594 L 118.050781 408.628906 L 116.125 406.859375 L 114.199219 405.121094 L 112.269531 403.417969 L 110.339844 401.75 L 108.40625 400.113281 L 106.476563 398.515625 L 104.546875 396.949219 L 102.621094 395.421875 L 100.699219 393.929688 L 98.777344 392.472656 L 96.867188 391.050781 L 94.960938 389.664063 L 93.0625 388.3125 L 91.171875 387 L 89.292969 385.71875 L 87.425781 384.476563 L 85.566406 383.269531 L 83.722656 382.097656 L 81.894531 380.960938 L 80.078125 379.859375 L 78.277344 378.792969 L 76.492188 377.761719 L 74.726563 376.765625 L 72.980469 375.804688 L 71.253906 374.878906 L 69.546875 373.984375 L 67.859375 373.125 L 66.195313 372.300781 L 64.558594 371.507813 L 62.941406 370.746094 L 61.351563 370.015625 L 59.789063 369.320313 L 58.25 368.652344 L 56.742188 368.019531 L 55.261719 367.414063 L 53.808594 366.839844 L 52.386719 366.292969 L 51 365.773438 L 49.640625 365.285156 L 48.316406 364.824219 L 47.023438 364.386719 L 45.765625 363.980469 L 44.542969 363.59375 L 43.355469 363.238281 L 42.203125 362.902344 L 41.089844 362.589844 L 40.011719 362.300781 L 38.972656 362.035156 L 37.972656 361.789063 L 37.011719 361.5625 L 36.089844 361.355469 L 35.210938 361.167969 L 34.371094 361 L 33.574219 360.847656 L 32.816406 360.710938 L 32.101563 360.589844 L 31.429688 360.484375 L 30.800781 360.390625 L 30.214844 360.3125 L 29.675781 360.242188 L 29.175781 360.183594 L 28.722656 360.136719 L 28.3125 360.097656 L 27.949219 360.066406 L 27.632813 360.042969 L 27.359375 360.027344 L 27.128906 360.015625 L 26.945313 360.007813 L 26.808594 360.003906 L 26.71875 360 L 26.671875 360 Z M 166.941406 470.0625 "/>
    <path style=" stroke:none;fill-rule:evenodd;fill:rgb(0%,100%,100%);fill-opacity:1;" d="M 26.671875 360 L 26.71875 360 L 26.808594 359.996094 L 26.945313 359.992188 L 27.128906 359.984375 L 27.359375 359.972656 L 27.632813 359.957031 L 27.949219 359.933594 L 28.3125 359.902344 L 28.722656 359.863281 L 29.175781 359.816406 L 29.675781 359.757813 L 30.214844 359.6875 L 30.800781 359.609375 L 31.429688 359.515625 L 32.101563 359.410156 L 32.816406 359.289063 L 33.574219 359.152344 L 34.371094 359 L 35.210938 358.832031 L 36.089844 358.644531 L 37.011719 358.4375 L 37.972656 358.210938 L 38.972656 357.964844 L 40.011719 357.699219 L 41.089844 357.410156 L 42.203125 357.097656 L 43.355469 356.761719 L 44.542969 356.40625 L 45.765625 356.019531 L 47.023438 355.613281 L 48.316406 355.175781 L 49.640625 354.714844 L 51 354.226563 L 52.386719 353.707031 L 53.808594 353.160156 L 55.261719 352.585938 L 56.742188 351.980469 L 58.25 351.347656 L 59.789063 350.679688 L 61.351563 349.984375 L 62.941406 349.253906 L 64.558594 348.492188 L 66.195313 347.699219 L 67.859375 346.875 L 69.546875 346.015625 L 71.253906 345.121094 L 72.980469 344.195313 L 74.726563 343.234375 L 76.492188 342.238281 L 78.277344 341.207031 L 80.078125 340.140625 L 81.894531 339.039063 L 83.722656 337.902344 L 85.566406 336.730469 L 87.425781 335.523438 L 89.292969 334.28125 L 91.171875 333 L 93.0625 331.6875 L 94.960938 330.335938 L 96.867188 328.949219 L 98.777344 327.527344 L 100.699219 326.070313 L 102.621094 324.578125 L 104.546875 323.050781 L 106.476563 321.484375 L 108.40625 319.886719 L 110.339844 318.25 L 112.269531 316.582031 L 114.199219 314.878906 L 116.125 313.140625 L 118.050781 311.371094 L 119.972656 309.566406 L 121.886719 307.726563 L 123.792969 305.855469 L 125.695313 303.949219 L 127.589844 302.015625 L 129.472656 300.046875 L 131.347656 298.046875 L 133.210938 296.019531 L 135.0625 293.960938 L 136.902344 291.871094 L 138.726563 289.75 L 140.539063 287.605469 L 142.335938 285.429688 L 144.117188 283.230469 L 145.878906 281 L 147.625 278.746094 L 149.351563 276.464844 L 151.0625 274.160156 L 152.75 271.832031 L 154.417969 269.484375 L 156.066406 267.109375 L 157.691406 264.714844 L 159.292969 262.296875 L 160.871094 259.863281 L 162.425781 257.410156 L 163.957031 254.933594 L 165.460938 252.445313 L 166.941406 249.9375 L 168.394531 247.414063 Z M 26.671875 360 "/>
    <path style=" stroke:none;fill-rule:evenodd;fill:rgb(0%,50.196078%,100%);fill-opacity:1;" d="M 168.394531 247.414063 L 169.820313 244.878906 L 171.222656 242.328125 L 172.59375 239.761719 L 173.9375 237.1875 L 175.25 234.601563 L 176.539063 232.003906 L 177.792969 229.398438 L 179.019531 226.785156 L 180.21875 224.164063 L 181.386719 221.535156 L 182.519531 218.902344 L 183.625 216.265625 L 184.699219 213.625 L 185.742188 210.984375 L 186.753906 208.339844 L 187.734375 205.699219 L 188.683594 203.058594 L 189.597656 200.417969 L 190.484375 197.78125 L 191.335938 195.148438 L 192.15625 192.519531 L 192.945313 189.898438 L 193.703125 187.285156 L 194.425781 184.675781 L 195.117188 182.082031 L 195.78125 179.492188 L 196.410156 176.917969 L 197.007813 174.355469 L 197.574219 171.804688 L 198.109375 169.269531 L 198.617188 166.75 L 199.089844 164.246094 L 199.535156 161.757813 L 199.949219 159.289063 L 200.335938 156.839844 L 200.691406 154.410156 L 201.019531 152 L 201.316406 149.617188 L 201.585938 147.253906 L 201.828125 144.914063 L 202.046875 142.597656 L 202.234375 140.308594 L 202.398438 138.046875 L 202.535156 135.8125 L 202.648438 133.601563 L 202.738281 131.425781 L 202.804688 129.277344 L 202.84375 127.160156 L 202.863281 125.070313 L 202.859375 123.015625 L 202.835938 120.996094 L 202.792969 119.007813 L 202.730469 117.054688 L 202.644531 115.132813 L 202.542969 113.25 L 202.425781 111.402344 L 202.289063 109.59375 L 202.140625 107.820313 L 201.972656 106.085938 L 201.792969 104.386719 L 201.597656 102.730469 L 201.390625 101.113281 L 201.171875 99.535156 L 200.945313 97.996094 L 200.703125 96.5 L 200.457031 95.042969 L 200.199219 93.628906 L 199.9375 92.257813 L 199.664063 90.929688 L 199.390625 89.644531 L 199.109375 88.398438 L 198.828125 87.199219 L 198.539063 86.042969 L 198.253906 84.925781 L 197.964844 83.859375 L 197.675781 82.832031 L 197.390625 81.851563 L 197.105469 80.914063 L 196.824219 80.019531 L 196.546875 79.171875 L 196.273438 78.367188 L 196.007813 77.605469 L 195.75 76.890625 L 195.5 76.21875 L 195.257813 75.589844 L 195.023438 75.007813 L 194.804688 74.464844 L 194.59375 73.96875 L 194.398438 73.519531 L 194.214844 73.109375 L 194.046875 72.742188 L 193.890625 72.417969 L 193.757813 72.136719 L 193.636719 71.898438 L 193.535156 71.703125 L 193.457031 71.546875 L 193.394531 71.433594 L 193.351563 71.359375 L 193.335938 71.328125 L 193.339844 71.332031 Z M 168.394531 247.414063 "/>
    <path style=" stroke:none;fill-rule:evenodd;fill:rgb(0%,0%,100%);fill-opacity:1;" d="M 193.339844 71.332031 L 193.367188 71.378906 L 193.417969 71.464844 L 193.492188 71.585938 L 193.597656 71.746094 L 193.726563 71.945313 L 193.882813 72.179688 L 194.066406 72.449219 L 194.28125 72.757813 L 194.523438 73.097656 L 194.796875 73.472656 L 195.097656 73.878906 L 195.433594 74.320313 L 195.800781 74.789063 L 196.203125 75.292969 L 196.636719 75.828125 L 197.105469 76.390625 L 197.605469 76.980469 L 198.144531 77.601563 L 198.714844 78.25 L 199.324219 78.921875 L 199.96875 79.621094 L 200.652344 80.34375 L 201.371094 81.089844 L 202.128906 81.863281 L 202.921875 82.652344 L 203.757813 83.464844 L 204.628906 84.300781 L 205.539063 85.152344 L 206.488281 86.019531 L 207.480469 86.910156 L 208.507813 87.8125 L 209.578125 88.730469 L 210.6875 89.664063 L 211.839844 90.613281 L 213.027344 91.574219 L 214.257813 92.542969 L 215.53125 93.527344 L 216.839844 94.515625 L 218.191406 95.515625 L 219.585938 96.523438 L 221.019531 97.539063 L 222.492188 98.554688 L 224.003906 99.582031 L 225.558594 100.609375 L 227.152344 101.636719 L 228.785156 102.671875 L 230.460938 103.703125 L 232.171875 104.734375 L 233.925781 105.765625 L 235.714844 106.792969 L 237.546875 107.820313 L 239.414063 108.839844 L 241.320313 109.859375 L 243.261719 110.867188 L 245.242188 111.871094 L 247.257813 112.867188 L 249.3125 113.855469 L 251.402344 114.832031 L 253.527344 115.796875 L 255.683594 116.753906 L 257.878906 117.695313 L 260.105469 118.628906 L 262.367188 119.542969 L 264.65625 120.445313 L 266.984375 121.332031 L 269.339844 122.199219 L 271.722656 123.054688 L 274.140625 123.886719 L 276.585938 124.703125 L 279.058594 125.5 L 281.558594 126.277344 L 284.085938 127.035156 L 286.640625 127.769531 L 289.21875 128.484375 L 291.824219 129.175781 L 294.449219 129.84375 L 297.101563 130.488281 L 299.773438 131.105469 L 302.464844 131.703125 L 305.179688 132.273438 L 307.910156 132.816406 L 310.660156 133.332031 L 313.429688 133.824219 L 316.210938 134.289063 L 319.011719 134.722656 L 321.824219 135.132813 L 324.652344 135.511719 L 327.492188 135.863281 L 330.34375 136.1875 L 333.207031 136.480469 L 336.078125 136.746094 L 338.957031 136.980469 L 341.847656 137.183594 L 344.742188 137.359375 L 347.640625 137.503906 L 350.542969 137.617188 L 353.453125 137.699219 L 356.359375 137.753906 L 359.273438 137.777344 L 362.183594 137.769531 Z M 193.339844 71.332031 "/>
    <path style=" stroke:none;fill-rule:evenodd;fill:rgb(50.196078%,0%,100%);fill-opacity:1;" d="M 362.183594 137.769531 L 365.09375 137.730469 L 368.003906 137.664063 L 370.910156 137.5625 L 373.808594 137.433594 L 376.707031 137.273438 L 379.597656 137.085938 L 382.480469 136.867188 L 385.359375 136.617188 L 388.226563 136.335938 L 391.082031 136.027344 L 393.929688 135.691406 L 396.761719 135.328125 L 399.582031 134.933594 L 402.390625 134.507813 L 405.183594 134.058594 L 407.957031 133.582031 L 410.71875 133.078125 L 413.457031 132.546875 L 416.179688 131.988281 L 418.882813 131.40625 L 421.566406 130.800781 L 424.226563 130.167969 L 426.867188 129.511719 L 429.480469 128.832031 L 432.074219 128.128906 L 434.640625 127.40625 L 437.179688 126.660156 L 439.695313 125.894531 L 442.183594 125.105469 L 444.640625 124.296875 L 447.070313 123.472656 L 449.472656 122.628906 L 451.84375 121.769531 L 454.183594 120.890625 L 456.492188 119.996094 L 458.769531 119.085938 L 461.011719 118.164063 L 463.222656 117.226563 L 465.398438 116.277344 L 467.539063 115.316406 L 469.648438 114.34375 L 471.71875 113.363281 L 473.753906 112.371094 L 475.753906 111.371094 L 477.714844 110.363281 L 479.640625 109.351563 L 481.527344 108.332031 L 483.375 107.308594 L 485.183594 106.28125 L 486.957031 105.25 L 488.6875 104.21875 L 490.382813 103.1875 L 492.035156 102.152344 L 493.648438 101.121094 L 495.222656 100.09375 L 496.757813 99.066406 L 498.25 98.046875 L 499.703125 97.03125 L 501.117188 96.019531 L 502.488281 95.015625 L 503.820313 94.019531 L 505.109375 93.035156 L 506.363281 92.058594 L 507.570313 91.089844 L 508.742188 90.136719 L 509.871094 89.199219 L 510.960938 88.269531 L 512.011719 87.359375 L 513.019531 86.464844 L 513.992188 85.585938 L 514.921875 84.722656 L 515.8125 83.878906 L 516.664063 83.058594 L 517.480469 82.253906 L 518.253906 81.472656 L 518.992188 80.714844 L 519.695313 79.980469 L 520.355469 79.269531 L 520.984375 78.582031 L 521.574219 77.921875 L 522.128906 77.289063 L 522.648438 76.683594 L 523.132813 76.105469 L 523.585938 75.558594 L 524 75.039063 L 524.386719 74.550781 L 524.738281 74.09375 L 525.054688 73.671875 L 525.34375 73.28125 L 525.601563 72.921875 L 525.832031 72.597656 L 526.03125 72.3125 L 526.199219 72.058594 L 526.34375 71.84375 L 526.457031 71.664063 L 526.546875 71.519531 L 526.613281 71.417969 L 526.652344 71.351563 L 526.667969 71.324219 L 526.660156 71.339844 Z M 362.183594 137.769531 "/>
    <path style=" stroke:none;fill-rule:evenodd;fill:rgb(100%,0%,100%);fill-opacity:1;" d="M 526.660156 71.339844 L 526.628906 71.390625 L 526.578125 71.484375 L 526.507813 71.621094 L 526.414063 71.796875 L 526.175781 72.273438 L 526.03125 72.574219 L 525.871094 72.921875 L 525.695313 73.308594 L 525.507813 73.738281 L 525.304688 74.214844 L 525.089844 74.730469 L 524.859375 75.292969 L 524.625 75.898438 L 524.378906 76.546875 L 524.121094 77.242188 L 523.859375 77.980469 L 523.589844 78.761719 L 523.316406 79.589844 L 523.035156 80.460938 L 522.753906 81.375 L 522.46875 82.335938 L 522.179688 83.339844 L 521.890625 84.386719 L 521.601563 85.480469 L 521.316406 86.613281 L 521.03125 87.792969 L 520.75 89.015625 L 520.472656 90.28125 L 520.199219 91.589844 L 519.929688 92.941406 L 519.671875 94.332031 L 519.417969 95.765625 L 519.175781 97.242188 L 518.941406 98.761719 L 518.714844 100.320313 L 518.503906 101.917969 L 518.304688 103.554688 L 518.117188 105.230469 L 517.941406 106.949219 L 517.78125 108.703125 L 517.640625 110.492188 L 517.511719 112.324219 L 517.402344 114.1875 L 517.308594 116.089844 L 517.238281 118.027344 L 517.183594 119.996094 L 517.148438 122.003906 L 517.136719 124.039063 L 517.144531 126.109375 L 517.171875 128.214844 L 517.226563 130.347656 L 517.304688 132.511719 L 517.402344 134.703125 L 517.527344 136.925781 L 517.679688 139.175781 L 517.855469 141.449219 L 518.058594 143.753906 L 518.289063 146.078125 L 518.542969 148.429688 L 518.828125 150.804688 L 519.140625 153.203125 L 519.484375 155.621094 L 519.855469 158.0625 L 520.253906 160.519531 L 520.683594 163 L 521.144531 165.496094 L 521.632813 168.007813 L 522.152344 170.535156 L 522.703125 173.078125 L 523.285156 175.636719 L 523.902344 178.203125 L 524.546875 180.785156 L 525.222656 183.378906 L 525.933594 185.980469 L 526.671875 188.589844 L 527.445313 191.207031 L 528.25 193.832031 L 529.085938 196.464844 L 529.953125 199.097656 L 530.855469 201.738281 L 531.785156 204.378906 L 532.75 207.019531 L 533.746094 209.664063 L 534.773438 212.304688 L 535.832031 214.945313 L 536.921875 217.585938 L 538.042969 220.21875 L 539.195313 222.847656 L 540.375 225.472656 L 541.589844 228.089844 L 542.832031 230.703125 L 544.101563 233.304688 L 545.402344 235.894531 L 546.730469 238.476563 L 548.089844 241.046875 L 549.476563 243.605469 L 550.890625 246.148438 L 552.328125 248.679688 L 553.796875 251.195313 Z M 526.660156 71.339844 "/>
    <path style=" stroke:none;fill-rule:evenodd;fill:rgb(100%,0%,50.196078%);fill-opacity:1;" d="M 553.796875 251.195313 L 555.289063 253.691406 L 556.804688 256.175781 L 558.347656 258.636719 L 559.914063 261.082031 L 561.507813 263.507813 L 563.121094 265.914063 L 564.753906 268.296875 L 566.414063 270.660156 L 568.089844 273 L 569.789063 275.316406 L 571.507813 277.609375 L 573.246094 279.875 L 575 282.117188 L 576.773438 284.332031 L 578.558594 286.519531 L 580.363281 288.683594 L 582.183594 290.816406 L 584.015625 292.917969 L 585.863281 294.992188 L 587.71875 297.039063 L 589.589844 299.050781 L 591.46875 301.035156 L 593.355469 302.988281 L 595.253906 304.90625 L 597.160156 306.792969 L 599.070313 308.648438 L 600.988281 310.472656 L 602.910156 312.261719 L 604.835938 314.015625 L 606.765625 315.734375 L 608.695313 317.421875 L 610.628906 319.074219 L 612.558594 320.691406 L 614.488281 322.269531 L 616.417969 323.816406 L 618.339844 325.328125 L 620.261719 326.804688 L 622.179688 328.246094 L 624.085938 329.648438 L 625.988281 331.015625 L 627.882813 332.347656 L 629.769531 333.644531 L 631.640625 334.90625 L 633.503906 336.132813 L 635.355469 337.320313 L 637.195313 338.476563 L 639.015625 339.59375 L 640.824219 340.675781 L 642.617188 341.726563 L 644.390625 342.738281 L 646.148438 343.71875 L 647.886719 344.660156 L 649.601563 345.570313 L 651.300781 346.449219 L 652.972656 347.292969 L 654.625 348.101563 L 656.253906 348.878906 L 657.855469 349.625 L 659.433594 350.335938 L 660.984375 351.015625 L 662.507813 351.667969 L 664.003906 352.289063 L 665.46875 352.878906 L 666.90625 353.4375 L 668.308594 353.96875 L 669.683594 354.472656 L 671.027344 354.949219 L 672.335938 355.398438 L 673.609375 355.820313 L 674.851563 356.214844 L 676.054688 356.585938 L 677.226563 356.933594 L 678.359375 357.257813 L 679.453125 357.558594 L 680.511719 357.835938 L 681.53125 358.089844 L 682.511719 358.328125 L 683.453125 358.542969 L 684.355469 358.738281 L 685.214844 358.917969 L 686.035156 359.078125 L 686.8125 359.222656 L 687.546875 359.351563 L 688.238281 359.464844 L 688.890625 359.5625 L 689.496094 359.652344 L 690.0625 359.726563 L 690.582031 359.789063 L 691.054688 359.839844 L 691.488281 359.882813 L 691.875 359.917969 L 692.214844 359.945313 L 692.511719 359.964844 L 692.761719 359.980469 L 692.96875 359.988281 L 693.128906 359.996094 L 693.242188 360 L 693.332031 360 Z M 553.796875 251.195313 "/>
  </g>
</svg>
