<?xml version="1.0" encoding="UTF-8"?>
<svg xmlns="http://www.w3.org/2000/svg" xmlns:xlink="http://www.w3.org/1999/xlink" width="100%" height="100%" viewBox="0 0 720 720" id="second_event_horizon.svg">
  <defs id="spiro_rad_def">
    <radialGradient id="backgrad" cx="0.5" cy="0.5" fx="0.5" fy="0.5" r="0.707106781186548">
      <stop offset="61%" stop-color="#F2F2F2"/>
      <stop offset="65%" stop-color="#3455B6"/>
      <stop offset="66%" stop-color="#282829"/>
      <stop offset="66.5%" stop-color="#282829"/>
      <stop offset="68.5%" stop-color="#7E1818"/>
      <stop offset="69%" stop-color="#282829"/>
    </radialGradient>
  </defs>
  <rect id="spiro_bg" x="0" y="0" width="100%" height="100%" rx="0%" ry="0%" fill="url(#backgrad)" stroke="none"/>
  <g id="second_event_horizon_stop" transform="translate(684, 684)" style="cursor: pointer;">
    <circle fill="#282829" r="20"/>
    <text fill="#bbb" text-anchor="middle" alignment-baseline="central" style="font-family:inherit;font-size:14pt">Stop</text>
  </g>
  <g id="second_event_horizon_start" transform="translate(36, 684)" style="cursor: pointer;">
    <circle fill="#282829" r="20"/>
    <text fill="#bbb" text-anchor="middle" alignment-baseline="central" style="font-family:inherit;font-size:14pt">Start</text>
  </g>
  <g xmlns="http://www.w3.org/2000/svg" gspiro="path" id="spiro_2.64575131106459_2.23606797749979_0.55_12625" transform=" scale(0.95 0.95) translate(18.9473684210527 18.9473684210527) rotate(-1 360 360)">
    <path fill-rule="evenodd" fill="#282829" d="M 693.332031 360 L 691.574219 343.558594 L 686.332031 327.632812 L 677.726562 312.71875 L 665.957031 299.292969 L 651.285156 287.796875 L 634.046875 278.625 L 614.628906 272.117188 L 593.464844 268.542969 L 571.035156 268.117188 L 547.839844 270.960938 L 524.394531 277.132812 L 501.21875 286.601562 L 478.824219 299.257812 L 457.695312 314.917969 L 438.285156 333.328125 L 421.007812 354.167969 L 406.222656 377.050781 L 394.214844 401.546875 L 385.21875 427.183594 L 379.378906 453.464844 L 376.777344 479.867188 L 377.402344 505.878906 L 381.171875 530.972656 L 387.917969 554.664062 L 397.414062 576.484375 L 409.347656 596.015625 L 423.359375 612.882812 L 439.035156 626.785156 L 455.914062 637.472656 L 473.511719 644.78125 L 491.316406 648.621094 L 508.8125 648.984375 L 525.496094 645.9375 L 540.867188 639.625 L 554.46875 630.273438 L 565.867188 618.171875 L 574.699219 603.675781 L 580.644531 587.183594 L 583.457031 569.15625 L 582.957031 550.070312 L 579.050781 530.433594 L 571.714844 510.765625 L 561.011719 491.578125 L 547.082031 473.371094 L 530.132812 456.613281 L 510.449219 441.746094 L 488.386719 429.148438 L 464.339844 419.15625 L 438.761719 412.03125 L 412.132812 407.96875 L 384.96875 407.082031 L 357.789062 409.417969 L 331.113281 414.929688 L 305.445312 423.496094 L 281.277344 434.929688 L 259.054688 448.953125 L 239.179688 465.246094 L 222.003906 483.414062 L 207.804688 503.019531 L 196.796875 523.589844 L 189.121094 544.628906 L 184.835938 565.613281 L 183.921875 586.035156 L 186.277344 605.378906 L 191.722656 623.167969 L 200.019531 638.945312 L 210.84375 652.300781 L 223.828125 662.890625 L 238.542969 670.414062 L 254.53125 674.65625 L 271.292969 675.46875 L 288.324219 672.777344 L 305.105469 666.597656 L 321.136719 657.015625 L 335.921875 644.203125 L 349.011719 628.394531 L 359.992188 609.90625 L 368.496094 589.101562 L 374.222656 566.40625 L 376.9375 542.28125 L 376.480469 517.21875 L 372.769531 491.738281 L 365.800781 466.351562 L 355.644531 441.585938 L 342.460938 417.933594 L 326.472656 395.867188 L 307.980469 375.816406 L 287.335938 358.160156 L 264.957031 343.222656 L 241.296875 331.257812 L 216.84375 322.449219 L 192.109375 316.898438 L 167.613281 314.640625 L 143.875 315.613281 L 121.394531 319.691406 L 100.648438 326.667969 L 82.070312 336.269531 L 66.058594 348.148438 L 52.941406 361.914062 L 42.980469 377.125 L 36.378906 393.304688 L 33.253906 409.953125 L 33.640625 426.558594 L 37.507812 442.601562 L 44.730469 457.589844 L 55.113281 471.042969 L 68.398438 482.527344 L 84.246094 491.640625 L 102.269531 498.046875 L 122.035156 501.472656 L 143.066406 501.714844 L 164.863281 498.640625 L 186.910156 492.207031 L 208.6875 482.433594 L 229.691406 469.433594 L 249.429688 453.394531 L 267.457031 434.566406 L 283.359375 413.28125 L 296.78125 389.914062 L 307.433594 364.902344 L 315.089844 338.714844 L 319.597656 311.855469 L 320.890625 284.839844 L 318.972656 258.1875 L 313.933594 232.421875 L 305.933594 208.027344 L 295.210938 185.476562 L 282.074219 165.183594 L 266.886719 147.527344 L 250.0625 132.808594 L 232.066406 121.269531 L 213.382812 113.082031 L 194.519531 108.332031 L 176 107.03125 L 158.328125 109.113281 L 141.996094 114.425781 L 127.472656 122.75 L 115.183594 133.792969 L 105.496094 147.207031 L 98.734375 162.582031 L 95.136719 179.46875 L 94.882812 197.382812 L 98.070312 215.816406 L 104.722656 234.261719 L 114.777344 252.199219 L 128.09375 269.136719 L 144.460938 284.597656 L 163.59375 298.152344 L 185.140625 309.410156 L 208.703125 318.050781 L 233.832031 323.808594 L 260.039062 326.488281 L 286.816406 325.976562 L 313.648438 322.234375 L 340.007812 315.308594 L 365.386719 305.320312 L 389.304688 292.464844 L 411.316406 277.007812 L 431.011719 259.285156 L 448.046875 239.691406 L 462.140625 218.65625 L 473.078125 196.660156 L 480.726562 174.203125 L 485.027344 151.804688 L 485.996094 129.980469 L 483.734375 109.234375 L 478.421875 90.058594 L 470.304688 72.902344 L 459.699219 58.175781 L 446.980469 46.230469 L 432.574219 37.355469 L 416.941406 31.78125 L 400.574219 29.644531 L 383.984375 31.023438 L 367.683594 35.90625 L 352.179688 44.199219 L 337.957031 55.742188 L 325.476562 70.289062 L 315.144531 87.53125 L 307.328125 107.101562 L 302.328125 128.582031 L 300.371094 151.503906 L 301.625 175.378906 L 306.167969 199.691406 L 314 223.921875 L 325.046875 247.554688 L 339.15625 270.09375 L 356.09375 291.070312 L 375.566406 310.050781 L 397.210938 326.65625 L 420.617188 340.574219 L 445.328125 351.542969 L 470.851562 359.386719 L 496.679688 364 L 522.285156 365.355469 L 547.15625 363.507812 L 570.785156 358.589844 L 592.699219 350.808594 L 612.457031 340.445312 L 629.671875 327.835938 L 644.007812 313.382812 L 655.199219 297.523438 L 663.050781 280.734375 L 667.441406 263.519531 L 668.332031 246.394531 L 665.761719 229.867188 L 659.847656 214.441406 L 650.789062 200.589844 L 638.84375 188.757812 L 624.347656 179.335938 L 607.691406 172.660156 L 589.304688 169.007812 L 569.660156 168.578125 L 549.265625 171.507812 L 528.628906 177.835938 L 508.269531 187.542969 L 488.691406 200.515625 L 470.382812 216.566406 L 453.792969 235.4375 L 439.332031 256.808594 L 427.347656 280.292969 L 418.136719 305.460938 L 411.917969 331.835938 L 408.84375 358.921875 L 408.976562 386.195312 L 412.3125 413.136719 L 418.761719 439.230469 L 428.15625 463.980469 L 440.257812 486.925781 L 454.761719 507.644531 L 471.296875 525.765625 L 489.449219 540.976562 L 508.757812 553.046875 L 528.730469 561.800781 L 548.855469 567.152344 L 568.617188 569.089844 L 587.507812 567.679688 L 605.027344 563.078125 L 620.71875 555.5 L 634.148438 545.238281 L 644.945312 532.640625 L 652.796875 518.121094 L 657.453125 502.125 L 658.734375 485.140625 L 656.550781 467.664062 L 650.875 450.214844 L 641.769531 433.304688 L 629.371094 417.429688 L 613.898438 403.0625 L 595.636719 390.628906 L 574.925781 380.519531 L 552.175781 373.054688 L 527.828125 368.503906 L 502.378906 367.046875 L 476.324219 368.808594 L 450.191406 373.816406 L 424.5 382.027344 L 399.753906 393.320312 L 376.441406 407.492188 L 355.007812 424.28125 L 335.851562 443.34375 L 319.320312 464.289062 L 305.695312 486.683594 L 295.191406 510.046875 L 287.9375 533.875 L 283.996094 557.648438 L 283.347656 580.855469 L 285.886719 602.980469 L 291.433594 623.542969 L 299.742188 642.082031 L 310.496094 658.195312 L 323.320312 671.523438 L 337.789062 681.78125 L 353.441406 688.742188 L 369.777344 692.253906 L 386.296875 692.253906 L 402.476562 688.75 L 417.816406 681.832031 L 431.828125 671.664062 L 444.058594 658.484375 L 454.09375 642.605469 L 461.570312 624.398438 L 466.195312 604.273438 L 467.726562 582.703125 L 466.015625 560.171875 L 460.976562 537.195312 L 452.605469 514.292969 L 440.988281 491.976562 L 426.273438 470.746094 L 408.695312 451.070312 L 388.550781 433.371094 L 366.199219 418.03125 L 342.058594 405.363281 L 316.585938 395.625 L 290.269531 388.996094 L 263.625 385.574219 L 237.171875 385.382812 L 211.429688 388.371094 L 186.898438 394.402344 L 164.0625 403.265625 L 143.355469 414.6875 L 125.167969 428.316406 L 109.832031 443.761719 L 97.617188 460.578125 L 88.71875 478.285156 L 83.253906 496.382812 L 81.265625 514.355469 L 82.714844 531.691406 L 87.480469 547.890625 L 95.371094 562.472656 L 106.121094 575.003906 L 119.398438 585.082031 L 134.816406 592.375 L 151.941406 596.609375 L 170.296875 597.578125 L 189.390625 595.15625 L 208.699219 589.292969 L 227.714844 580.015625 L 245.929688 567.4375 L 262.859375 551.746094 L 278.058594 533.195312 L 291.113281 512.109375 L 301.679688 488.878906 L 309.460938 463.925781 L 314.246094 437.734375 L 315.878906 410.800781 L 314.300781 383.640625 L 309.519531 356.777344 L 301.621094 330.726562 L 290.78125 305.984375 L 277.238281 283.011719 L 261.296875 262.234375 L 243.328125 244.015625 L 223.753906 228.664062 L 203.035156 216.425781 L 181.664062 207.460938 L 160.152344 201.859375 L 139.015625 199.632812 L 118.769531 200.710938 L 99.902344 204.945312 L 82.890625 212.113281 L 68.148438 221.921875 L 56.058594 234.023438 L 46.9375 248.011719 L 41.023438 263.429688 L 38.503906 279.800781 L 39.472656 296.617188 L 43.949219 313.367188 L 51.875 329.542969 L 63.109375 344.640625 L 77.4375 358.195312 L 94.582031 369.773438 L 114.191406 378.996094 L 135.859375 385.539062 L 159.144531 389.136719 L 183.558594 389.605469 L 208.59375 386.828125 L 233.730469 380.777344 L 258.453125 371.492188 L 282.253906 359.105469 L 304.644531 343.808594 L 325.1875 325.882812 L 343.476562 305.65625 L 359.171875 283.527344 L 371.988281 259.933594 L 381.722656 235.359375 L 388.234375 210.300781 L 391.46875 185.277344 L 391.453125 160.816406 L 388.28125 137.417969 L 382.140625 115.578125 L 373.277344 95.746094 L 362.011719 78.328125 L 348.714844 63.683594 L 333.820312 52.105469 L 317.785156 43.8125 L 301.105469 38.957031 L 284.292969 37.609375 L 267.859375 39.753906 L 252.3125 45.308594 L 238.132812 54.105469 L 225.785156 65.902344 L 215.675781 80.390625 L 208.167969 97.207031 L 203.554688 115.929688 L 202.074219 136.097656 L 203.878906 157.21875 L 209.054688 178.785156 L 217.597656 200.273438 L 229.429688 221.171875 L 244.390625 240.992188 L 262.257812 259.257812 L 282.722656 275.546875 L 305.429688 289.488281 L 329.964844 300.757812 L 355.863281 309.109375 L 382.636719 314.367188 L 409.773438 316.425781 L 436.746094 315.265625 L 463.046875 310.945312 L 488.160156 303.601562 L 511.613281 293.445312 L 532.96875 280.753906 L 551.835938 265.875 L 567.882812 249.203125 L 580.839844 231.191406 L 590.511719 212.3125 L 596.78125 193.074219 L 599.605469 173.988281 L 599.027344 155.566406 L 595.164062 138.316406 L 588.203125 122.714844 L 578.421875 109.199219 L 566.140625 98.160156 L 551.75 89.945312 L 535.683594 84.820312 L 518.417969 82.992188 L 500.445312 84.585938 L 482.285156 89.65625 L 464.449219 98.171875 L 447.4375 110.019531 L 431.738281 125.011719 L 417.796875 142.898438 L 406.015625 163.34375 L 396.75 185.972656 L 390.285156 210.351562 L 386.839844 236.003906 L 386.558594 262.429688 L 389.503906 289.113281 L 395.667969 315.53125 L 404.953125 341.167969 L 417.195312 365.53125 L 432.144531 388.160156 L 449.496094 408.628906 L 468.875 426.574219 L 489.867188 441.6875 L 512 453.730469 L 534.789062 462.535156 L 557.714844 468.015625 L 580.261719 470.164062 L 601.914062 469.046875 L 622.179688 464.8125 L 640.585938 457.691406 L 656.714844 447.96875 L 670.183594 436 L 680.679688 422.1875 L 687.953125 406.988281 L 691.832031 390.882812 L 692.210938 374.375 L 689.070312 357.976562 L 682.472656 342.203125 L 672.558594 327.542969 L 659.535156 314.472656 L 643.691406 303.417969 L 625.371094 294.757812 L 604.976562 288.824219 L 582.957031 285.867188 L 559.792969 286.082031 L 535.996094 289.574219 L 512.078125 296.378906 L 488.566406 306.445312 L 465.957031 319.652344 L 444.738281 335.792969 L 425.347656 354.597656 L 408.191406 375.726562 L 393.609375 398.789062 L 381.878906 423.335938 L 373.207031 448.894531 L 367.730469 474.957031 L 365.5 501.007812 L 366.496094 526.519531 L 370.609375 550.984375 L 377.664062 573.914062 L 387.40625 594.859375 L 399.511719 613.40625 L 413.609375 629.199219 L 429.273438 641.945312 L 446.035156 651.425781 L 463.402344 657.488281 L 480.863281 660.0625 L 497.902344 659.15625 L 514.011719 654.863281 L 528.710938 647.347656 L 541.542969 636.847656 L 552.089844 623.667969 L 560 608.183594 L 564.964844 590.804688 L 566.765625 572 L 565.234375 552.253906 L 560.296875 532.078125 L 551.953125 511.988281 L 540.28125 492.503906 L 525.4375 474.109375 L 507.65625 457.269531 L 487.238281 442.417969 L 464.542969 429.921875 L 439.988281 420.097656 L 414.03125 413.191406 L 387.164062 409.382812 L 359.902344 408.765625 L 332.761719 411.367188 L 306.269531 417.121094 L 280.921875 425.890625 L 257.203125 437.464844 L 235.546875 451.558594 L 216.34375 467.828125 L 199.929688 485.871094 L 186.5625 505.242188 L 176.449219 525.460938 L 169.699219 546.023438 L 166.359375 566.410156 L 166.382812 586.109375 L 169.65625 604.617188 L 175.984375 621.453125 L 185.101562 636.183594 L 196.675781 648.40625 L 210.320312 657.785156 L 225.601562 664.050781 L 242.050781 666.992188 L 259.164062 666.484375 L 276.429688 662.480469 L 293.339844 655.007812 L 309.382812 644.175781 L 324.085938 630.167969 L 336.996094 613.25 L 347.710938 593.742188 L 355.882812 572.023438 L 361.226562 548.535156 L 363.523438 523.746094 L 362.632812 498.152344 L 358.488281 472.277344 L 351.105469 446.640625 L 340.582031 421.753906 L 327.082031 398.113281 L 310.859375 376.175781 L 292.21875 356.363281 L 271.535156 339.046875 L 249.230469 324.527344 L 225.769531 313.042969 L 201.648438 304.761719 L 177.382812 299.769531 L 153.484375 298.070312 L 130.476562 299.59375 L 108.855469 304.191406 L 89.082031 311.640625 L 71.585938 321.644531 L 56.746094 333.855469 L 44.875 347.859375 L 36.226562 363.210938 L 30.96875 379.425781 L 29.210938 395.992188 L 30.96875 412.40625 L 36.183594 428.152344 L 44.71875 442.738281 L 56.355469 455.691406 L 70.820312 466.582031 L 87.757812 475.035156 L 106.769531 480.722656 L 127.410156 483.386719 L 149.195312 482.84375 L 171.621094 478.980469 L 194.171875 471.765625 L 216.320312 461.25 L 237.574219 447.5625 L 257.449219 430.902344 L 275.5 411.542969 L 291.332031 389.828125 L 304.605469 366.152344 L 315.039062 340.953125 L 322.429688 314.714844 L 326.648438 287.941406 L 327.632812 261.15625 L 325.421875 234.878906 L 320.109375 209.617188 L 311.886719 185.863281 L 301.007812 164.070312 L 287.785156 144.644531 L 272.601562 127.949219 L 255.886719 114.269531 L 238.105469 103.832031 L 219.753906 96.785156 L 201.339844 93.199219 L 183.386719 93.0625 L 166.390625 96.289062 L 150.847656 102.710938 L 137.210938 112.09375 L 125.890625 124.125 L 117.246094 138.4375 L 111.582031 154.617188 L 109.121094 172.199219 L 110.027344 190.699219 L 114.375 209.605469 L 122.167969 228.398438 L 133.320312 246.574219 L 147.679688 263.632812 L 165.011719 279.117188 L 185.015625 292.601562 L 207.332031 303.710938 L 231.542969 312.136719 L 257.1875 317.632812 L 283.777344 320.023438 L 310.796875 319.207031 L 337.726562 315.175781 L 364.042969 307.980469 L 389.25 297.769531 L 412.863281 284.753906 L 434.453125 269.222656 L 453.621094 251.515625 L 470.039062 232.039062 L 483.445312 211.238281 L 493.640625 189.601562 L 500.507812 167.632812 L 504.007812 145.84375 L 504.183594 124.757812 L 501.148438 104.875 L 495.101562 86.671875 L 486.308594 70.59375 L 475.097656 57.035156 L 461.859375 46.335938 L 447.027344 38.765625 L 431.074219 34.535156 L 414.496094 33.765625 L 397.808594 36.511719 L 381.519531 42.742188 L 366.132812 52.347656 L 352.132812 65.144531 L 339.960938 80.871094 L 330.023438 99.203125 L 322.664062 119.761719 L 318.167969 142.109375 L 316.753906 165.777344 L 318.5625 190.265625 L 323.652344 215.058594 L 332.011719 239.632812 L 343.542969 263.480469 L 358.070312 286.105469 L 375.351562 307.050781 L 395.070312 325.890625 L 416.859375 342.269531 L 440.285156 355.878906 L 464.886719 366.476562 L 490.167969 373.90625 L 515.613281 378.082031 L 540.703125 378.996094 L 564.921875 376.722656 L 587.773438 371.410156 L 608.785156 363.285156 L 627.53125 352.644531 L 643.636719 339.839844 L 656.789062 325.277344 L 666.730469 309.414062 L 673.289062 292.730469 L 676.363281 275.734375 L 675.929688 258.9375 L 672.054688 242.851562 L 664.871094 227.972656 L 654.59375 214.765625 L 641.5 203.664062 L 625.945312 195.046875 L 608.320312 189.234375 L 589.078125 186.492188 L 568.699219 186.996094 L 547.683594 190.859375 L 526.554688 198.113281 L 505.828125 208.710938 L 486 222.515625 L 467.554688 239.332031 L 450.929688 258.882812 L 436.523438 280.824219 L 424.675781 304.769531 L 415.660156 330.265625 L 409.679688 356.832031 L 406.867188 383.972656 L 407.269531 411.15625 L 410.863281 437.867188 L 417.539062 463.59375 L 427.109375 487.84375 L 439.324219 510.167969 L 453.855469 530.152344 L 470.328125 547.445312 L 488.3125 561.753906 L 507.335938 572.851562 L 526.90625 580.59375 L 546.507812 584.90625 L 565.628906 585.804688 L 583.757812 583.375 L 600.410156 577.78125 L 615.125 569.265625 L 627.496094 558.136719 L 637.15625 544.753906 L 643.8125 529.542969 L 647.230469 512.957031 L 647.253906 495.488281 L 643.804688 477.648438 L 636.878906 459.949219 L 626.566406 442.902344 L 613.015625 426.996094 L 596.460938 412.695312 L 577.203125 400.421875 L 555.609375 390.542969 L 532.085938 383.375 L 507.101562 379.160156 L 481.140625 378.070312 L 454.71875 380.199219 L 428.355469 385.566406 L 402.574219 394.105469 L 377.871094 405.675781 L 354.726562 420.0625 L 333.578125 436.976562 L 314.808594 456.070312 L 298.753906 476.9375 L 285.679688 499.132812 L 275.773438 522.171875 L 269.160156 545.542969 L 265.875 568.730469 L 265.875 591.21875 L 269.039062 612.5 L 275.175781 632.097656 L 284.015625 649.566406 L 295.226562 664.515625 L 308.421875 676.601562 L 323.167969 685.550781 L 338.988281 691.160156 L 355.390625 693.296875 L 371.859375 691.914062 L 387.886719 687.042969 L 402.960938 678.789062 L 416.609375 667.335938 L 428.382812 652.949219 L 437.882812 635.949219 L 444.761719 616.714844 L 448.734375 595.679688 L 449.589844 573.3125 L 447.1875 550.121094 L 441.460938 526.609375 L 432.433594 503.304688 L 420.199219 480.714844 L 404.933594 459.335938 L 386.882812 439.617188 L 366.367188 421.984375 L 343.753906 406.796875 L 319.472656 394.359375 L 293.988281 384.910156 L 267.796875 378.601562 L 241.417969 375.527344 L 215.371094 375.683594 L 190.171875 379.003906 L 166.316406 385.328125 L 144.277344 394.433594 L 124.480469 406.023438 L 107.304688 419.742188 L 93.058594 435.179688 L 82.003906 451.882812 L 74.308594 469.367188 L 70.074219 487.128906 L 69.328125 504.648438 L 72.003906 521.421875 L 77.964844 536.945312 L 87 550.753906 L 98.832031 562.421875 L 113.105469 571.5625 L 129.425781 577.855469 L 147.351562 581.046875 L 166.390625 580.945312 L 186.046875 577.449219 L 205.804688 570.523438 L 225.148438 560.21875 L 243.574219 546.660156 L 260.609375 530.0625 L 275.8125 510.691406 L 288.785156 488.890625 L 299.195312 465.058594 L 306.765625 439.632812 L 311.296875 413.101562 L 312.660156 385.96875 L 310.808594 358.75 L 305.765625 331.972656 L 297.648438 306.148438 L 286.640625 281.761719 L 273 259.265625 L 257.046875 239.074219 L 239.164062 221.539062 L 219.789062 206.953125 L 199.382812 195.539062 L 178.445312 187.441406 L 157.492188 182.734375 L 137.042969 181.40625 L 117.601562 183.367188 L 99.65625 188.453125 L 83.667969 196.421875 L 70.046875 206.964844 L 59.15625 219.71875 L 51.289062 234.265625 L 46.6875 250.140625 L 45.496094 266.863281 L 47.804688 283.917969 L 53.605469 300.792969 L 62.820312 316.980469 L 75.296875 331.988281 L 90.796875 345.355469 L 109.019531 356.664062 L 129.609375 365.542969 L 152.144531 371.679688 L 176.171875 374.835938 L 201.195312 374.835938 L 226.703125 371.589844 L 252.179688 365.082031 L 277.105469 355.375 L 300.972656 342.617188 L 323.316406 327.027344 L 343.691406 308.886719 L 361.714844 288.550781 L 377.058594 266.425781 L 389.453125 242.960938 L 398.710938 218.636719 L 404.71875 193.972656 L 407.429688 169.476562 L 406.898438 145.675781 L 403.238281 123.070312 L 396.644531 102.140625 L 387.390625 83.328125 L 375.808594 67.035156 L 362.285156 53.597656 L 347.253906 43.289062 L 331.191406 36.320312 L 314.59375 32.8125 L 297.972656 32.824219 L 281.84375 36.316406 L 266.707031 43.191406 L 253.042969 53.253906 L 241.296875 66.253906 L 231.871094 81.867188 L 225.105469 99.707031 L 221.289062 119.34375 L 220.632812 140.3125 L 223.277344 162.113281 L 229.285156 184.226562 L 238.628906 206.136719 L 251.21875 227.335938 L 266.878906 247.335938 L 285.355469 265.671875 L 306.335938 281.9375 L 329.445312 295.761719 L 354.257812 306.851562 L 380.300781 314.964844 L 407.085938 319.949219 L 434.089844 321.71875 L 460.789062 320.277344 L 486.671875 315.691406 L 511.242188 308.121094 L 534.023438 297.796875 L 554.589844 285.011719 L 572.570312 270.125 L 587.644531 253.546875 L 599.5625 235.734375 L 608.148438 217.167969 L 613.296875 198.359375 L 614.992188 179.824219 L 613.296875 162.070312 L 608.339844 145.597656 L 600.339844 130.875 L 589.574219 118.328125 L 576.394531 108.34375 L 561.195312 101.238281 L 544.421875 97.273438 L 526.558594 96.632812 L 508.105469 99.425781 L 489.578125 105.679688 L 471.492188 115.347656 L 454.34375 128.300781 L 438.609375 144.328125 L 424.730469 163.164062 L 413.09375 184.460938 L 404.042969 207.824219 L 397.84375 232.808594 L 394.699219 258.9375 L 394.734375 285.699219 L 398 312.578125 L 404.457031 339.050781 L 414 364.605469 L 426.433594 388.757812 L 441.507812 411.050781 L 458.894531 431.078125 L 478.203125 448.484375 L 499.011719 462.980469 L 520.84375 474.34375 L 543.199219 482.425781 L 565.5625 487.15625 L 587.421875 488.550781 L 608.257812 486.695312 L 627.589844 481.761719 L 644.957031 473.984375 L 659.945312 463.675781 L 672.195312 451.199219 L 681.402344 436.972656 L 687.339844 421.460938 L 689.847656 405.148438 L 688.847656 388.546875 L 684.34375 372.164062 L 676.40625 356.511719 L 665.199219 342.082031 L 650.953125 329.335938 L 633.96875 318.6875 L 614.605469 310.507812 L 593.28125 305.105469 L 570.449219 302.722656 L 546.605469 303.53125 L 522.253906 307.617188 L 497.921875 315 L 474.125 325.609375 L 451.359375 339.300781 L 430.101562 355.855469 L 410.785156 374.984375 L 393.800781 396.332031 L 379.46875 419.496094 L 368.058594 444.019531 L 359.753906 469.421875 L 354.675781 495.191406 L 352.859375 520.804688 L 354.253906 545.746094 L 358.742188 569.511719 L 366.125 591.613281 L 376.132812 611.617188 L 388.433594 629.117188 L 402.636719 643.777344 L 418.300781 655.324219 L 434.960938 663.550781 L 452.113281 668.324219 L 469.246094 669.601562 L 485.84375 667.40625 L 501.40625 661.847656 L 515.453125 653.109375 L 527.539062 641.453125 L 537.265625 627.195312 L 544.285156 610.722656 L 548.3125 592.460938 L 549.140625 572.886719 L 546.628906 552.488281 L 540.714844 531.785156 L 531.421875 511.292969 L 518.847656 491.519531 L 503.164062 472.953125 L 484.625 456.050781 L 463.546875 441.226562 L 440.304688 428.839844 L 415.324219 419.1875 L 389.078125 412.507812 L 362.054688 408.957031 L 334.78125 408.609375 L 307.773438 411.46875 L 281.554688 417.457031 L 256.613281 426.417969 L 233.425781 438.121094 L 212.414062 452.269531 L 193.960938 468.5 L 178.378906 486.402344 L 165.917969 505.519531 L 156.757812 525.367188 L 150.992188 545.4375 L 148.648438 565.210938 L 149.660156 584.171875 L 153.898438 601.832031 L 161.140625 617.714844 L 171.113281 631.390625 L 183.464844 642.484375 L 197.800781 650.664062 L 213.671875 655.679688 L 230.597656 657.339844 L 248.082031 655.542969 L 265.605469 650.253906 L 282.65625 641.523438 L 298.734375 629.484375 L 313.371094 614.339844 L 326.121094 596.359375 L 336.59375 575.890625 L 344.464844 553.328125 L 349.453125 529.113281 L 351.363281 503.730469 L 350.074219 477.679688 L 345.535156 451.488281 L 337.785156 425.667969 L 326.933594 400.738281 L 313.175781 377.179688 L 296.765625 355.445312 L 278.035156 335.945312 L 257.367188 319.027344 L 235.195312 304.992188 L 211.992188 294.050781 L 188.261719 286.351562 L 164.515625 281.964844 L 141.277344 280.875 L 119.050781 282.992188 L 98.335938 288.148438 L 79.582031 296.105469 L 63.207031 306.554688 L 49.574219 319.121094 L 38.980469 333.394531 L 31.660156 348.914062 L 27.769531 365.183594 L 27.390625 381.699219 L 30.523438 397.949219 L 37.085938 413.425781 L 46.921875 427.632812 L 59.800781 440.117188 L 75.425781 450.457031 L 93.429688 458.285156 L 113.402344 463.292969 L 134.886719 465.242188 L 157.394531 463.964844 L 180.410156 459.363281 L 203.421875 451.433594 L 225.90625 440.238281 L 247.371094 425.929688 L 267.335938 408.722656 L 285.375 388.910156 L 301.105469 366.847656 L 314.191406 342.9375 L 324.378906 317.636719 L 331.476562 291.429688 L 335.375 264.832031 L 336.035156 238.359375 L 333.507812 212.535156 L 327.914062 187.859375 L 319.453125 164.820312 L 308.398438 143.859375 L 295.085938 125.375 L 279.902344 109.703125 L 263.289062 97.125 L 245.722656 87.84375 L 227.695312 81.984375 L 209.726562 79.605469 L 192.328125 80.671875 L 176.003906 85.078125 L 161.234375 92.636719 L 148.464844 103.09375 L 138.09375 116.128906 L 130.464844 131.355469 L 125.867188 148.347656 L 124.511719 166.632812 L 126.53125 185.722656 L 131.992188 205.09375 L 140.867188 224.238281 L 153.0625 242.648438 L 168.398438 259.832031 L 186.628906 275.339844 L 207.433594 288.757812 L 230.4375 299.722656 L 255.214844 307.941406 L 281.292969 313.1875 L 308.179688 315.296875 L 335.355469 314.199219 L 362.296875 309.890625 L 388.488281 302.453125 L 413.433594 292.046875 L 436.664062 278.902344 L 457.746094 263.316406 L 476.3125 245.65625 L 492.046875 226.332031 L 504.691406 205.804688 L 514.078125 184.558594 L 520.105469 163.105469 L 522.753906 141.960938 L 522.082031 121.640625 L 518.226562 102.644531 L 511.40625 85.441406 L 501.898438 70.457031 L 490.050781 58.078125 L 476.261719 48.628906 L 460.980469 42.363281 L 444.679688 39.472656 L 427.863281 40.058594 L 411.050781 44.152344 L 394.75 51.707031 L 379.457031 62.59375 L 365.648438 76.609375 L 353.761719 93.472656 L 344.183594 112.847656 L 337.246094 134.339844 L 333.222656 157.503906 L 332.308594 181.859375 L 334.625 206.902344 L 340.214844 232.109375 L 349.046875 256.96875 L 361 280.964844 L 375.890625 303.613281 L 393.449219 324.464844 L 413.351562 343.113281 L 435.210938 359.203125 L 458.589844 372.445312 L 483.011719 382.625 L 507.980469 389.597656 L 532.980469 393.292969 L 557.484375 393.722656 L 580.984375 390.984375 L 602.988281 385.246094 L 623.042969 376.75 L 640.722656 365.800781 L 655.675781 352.773438 L 667.59375 338.085938 L 676.25 322.195312 L 681.484375 305.597656 L 683.214844 288.796875 L 681.445312 272.304688 L 676.25 256.636719 L 667.789062 242.277344 L 656.289062 229.6875 L 642.054688 219.285156 L 625.445312 211.4375 L 606.871094 206.453125 L 586.789062 204.570312 L 565.691406 205.957031 L 544.082031 210.703125 L 522.484375 218.820312 L 501.410156 230.242188 L 481.359375 244.8125 L 462.800781 262.320312 L 446.164062 282.46875 L 431.835938 304.90625 L 420.140625 329.21875 L 411.335938 354.957031 L 405.605469 381.636719 L 403.066406 408.738281 L 403.75 435.746094 L 407.605469 462.140625 L 414.507812 487.410156 L 424.253906 511.078125 L 436.574219 532.699219 L 451.128906 551.878906 L 467.53125 568.269531 L 485.335938 581.601562 L 504.066406 591.671875 L 523.226562 598.34375 L 542.300781 601.570312 L 560.773438 601.382812 L 578.140625 597.890625 L 593.921875 591.269531 L 607.671875 581.789062 L 618.992188 569.761719 L 627.53125 555.570312 L 633.007812 539.648438 L 635.214844 522.457031 L 634.011719 504.5 L 629.335938 486.28125 L 621.210938 468.320312 L 609.734375 451.125 L 595.085938 435.175781 L 577.511719 420.929688 L 557.328125 408.796875 L 534.914062 399.132812 L 510.699219 392.238281 L 485.144531 388.335938 L 458.757812 387.582031 L 432.042969 390.054688 L 405.535156 395.746094 L 379.738281 404.578125 L 355.160156 416.386719 L 332.261719 430.941406 L 311.472656 447.941406 L 293.164062 467.015625 L 277.65625 487.757812 L 265.195312 509.707031 L 255.953125 532.371094 L 250.035156 555.238281 L 247.453125 577.792969 L 248.152344 599.515625 L 251.988281 619.914062 L 258.753906 638.515625 L 268.160156 654.882812 L 279.863281 668.640625 L 293.460938 679.460938 L 308.515625 687.085938 L 324.535156 691.335938 L 341.027344 692.089844 L 357.476562 689.328125 L 373.371094 683.097656 L 388.210938 673.523438 L 401.523438 660.816406 L 412.875 645.242188 L 421.875 627.148438 L 428.195312 606.929688 L 431.5625 585.023438 L 431.785156 561.910156 L 428.742188 538.101562 L 422.386719 514.105469 L 412.757812 490.449219 L 399.976562 467.632812 L 384.226562 446.148438 L 365.78125 426.441406 L 344.960938 408.921875 L 322.164062 393.933594 L 297.816406 381.765625 L 272.402344 372.640625 L 246.417969 366.695312 L 220.382812 363.996094 L 194.820312 364.53125 L 170.242188 368.203125 L 147.136719 374.84375 L 125.964844 384.207031 L 107.144531 395.988281 L 91.035156 409.808594 L 77.941406 425.25 L 68.089844 441.855469 L 61.644531 459.132812 L 58.683594 476.570312 L 59.207031 493.652344 L 63.132812 509.875 L 70.3125 524.742188 L 80.511719 537.800781 L 93.429688 548.632812 L 108.707031 556.863281 L 125.933594 562.195312 L 144.648438 564.378906 L 164.371094 563.257812 L 184.585938 558.734375 L 204.78125 550.800781 L 224.441406 539.527344 L 243.070312 525.0625 L 260.199219 507.625 L 275.398438 487.511719 L 288.285156 465.074219 L 298.535156 440.722656 L 305.894531 414.910156 L 310.175781 388.128906 L 311.269531 360.882812 L 309.152344 333.699219 L 303.863281 307.09375 L 295.539062 281.578125 L 284.378906 257.632812 L 270.65625 235.695312 L 254.714844 216.171875 L 236.941406 199.394531 L 217.785156 185.640625 L 197.714844 175.117188 L 177.234375 167.953125 L 156.867188 164.195312 L 137.117188 163.816406 L 118.5 166.707031 L 101.488281 172.683594 L 86.535156 181.488281 L 74.035156 192.796875 L 64.339844 206.234375 L 57.726562 221.363281 L 54.414062 237.722656 L 54.539062 254.816406 L 58.160156 272.128906 L 65.253906 289.148438 L 75.722656 305.371094 L 89.394531 320.3125 L 106.015625 333.519531 L 125.265625 344.578125 L 146.777344 353.140625 L 170.117188 358.90625 L 194.820312 361.652344 L 220.386719 361.222656 L 246.300781 357.546875 L 272.042969 350.628906 L 297.097656 340.550781 L 320.96875 327.476562 L 343.1875 311.640625 L 363.332031 293.347656 L 381.023438 272.960938 L 395.949219 250.898438 L 407.867188 227.621094 L 416.597656 203.617188 L 422.042969 179.402344 L 424.1875 155.496094 L 423.09375 132.414062 L 418.902344 110.652344 L 411.828125 90.683594 L 402.152344 72.945312 L 390.21875 57.8125 L 376.4375 45.617188 L 361.25 36.613281 L 345.132812 30.988281 L 328.589844 28.847656 L 312.140625 30.230469 L 296.289062 35.078125 L 281.535156 43.269531 L 268.355469 54.597656 L 257.175781 68.789062 L 248.394531 85.503906 L 242.339844 104.347656 L 239.273438 124.875 L 239.394531 146.613281 L 242.824219 169.058594 L 249.601562 191.6875 L 259.6875 213.988281 L 272.96875 235.453125 L 289.246094 255.597656 L 308.257812 273.972656 L 329.675781 290.175781 L 353.105469 303.859375 L 378.113281 314.734375 L 404.222656 322.589844 L 430.925781 327.28125 L 457.710938 328.742188 L 484.054688 326.996094 L 509.4375 322.136719 L 533.378906 314.335938 L 555.410156 303.835938 L 575.117188 290.953125 L 592.140625 276.054688 L 606.179688 259.566406 L 616.996094 241.953125 L 624.4375 223.699219 L 628.421875 205.320312 L 628.945312 187.328125 L 626.09375 170.238281 L 620.015625 154.53125 L 610.945312 140.675781 L 599.179688 129.085938 L 585.082031 120.128906 L 569.058594 114.113281 L 551.570312 111.277344 L 533.101562 111.785156 L 514.164062 115.734375 L 495.265625 123.125 L 476.921875 133.890625 L 459.632812 147.886719 L 443.859375 164.886719 L 430.035156 184.601562 L 418.539062 206.671875 L 409.6875 230.691406 L 403.742188 256.207031 L 400.882812 282.726562 L 401.21875 309.742188 L 404.777344 336.730469 L 411.503906 363.171875 L 421.273438 388.5625 L 433.875 412.417969 L 449.035156 434.296875 L 466.417969 453.804688 L 485.621094 470.597656 L 506.207031 484.40625 L 527.695312 495.023438 L 549.582031 502.320312 L 571.351562 506.25 L 592.484375 506.839844 L 612.476562 504.199219 L 630.847656 498.519531 L 647.152344 490.050781 L 660.980469 479.117188 L 671.996094 466.101562 L 679.90625 451.433594 L 684.503906 435.578125 L 685.652344 419.035156 L 683.285156 402.308594 L 677.425781 385.917969 L 668.175781 370.367188 L 655.710938 356.136719 L 640.277344 343.683594 L 622.191406 333.410156 L 601.832031 325.671875 L 579.625 320.765625 L 556.035156 318.914062 L 531.5625 320.269531 L 506.71875 324.902344 L 482.03125 332.808594 L 458.003906 343.902344 L 435.140625 358.015625 L 413.90625 374.917969 L 394.71875 394.300781 L 377.957031 415.796875 L 363.929688 438.992188 L 352.886719 463.421875 L 344.996094 488.59375 L 340.359375 513.992188 L 338.988281 539.105469 L 340.820312 563.40625 L 345.710938 586.398438 L 353.453125 607.609375 L 363.753906 626.609375 L 376.269531 643.011719 L 390.59375 656.492188 L 406.285156 666.792969 L 422.859375 673.726562 L 439.816406 677.183594 L 456.636719 677.136719 L 472.816406 673.628906 L 487.851562 666.789062 L 501.273438 656.824219 L 512.648438 644.003906 L 521.582031 628.671875 L 527.75 611.222656 L 530.882812 592.089844 L 530.789062 571.757812 L 527.34375 550.726562 L 520.511719 529.515625 L 510.332031 508.636719 L 496.917969 488.597656 L 480.472656 469.878906 L 461.25 452.925781 L 439.59375 438.148438 L 415.886719 425.886719 L 390.566406 416.425781 L 364.113281 409.980469 L 337.027344 406.6875 L 309.832031 406.613281 L 283.046875 409.734375 L 257.179688 415.953125 L 232.734375 425.101562 L 210.160156 436.925781 L 189.875 451.113281 L 172.242188 467.296875 L 157.566406 485.046875 L 146.074219 503.898438 L 137.929688 523.363281 L 133.203125 542.925781 L 131.90625 562.074219 L 133.953125 580.296875 L 139.191406 597.101562 L 147.386719 612.027344 L 158.242188 624.65625 L 171.398438 634.625 L 186.445312 641.621094 L 202.925781 645.40625 L 220.351562 645.816406 L 238.21875 642.757812 L 256.011719 636.222656 L 273.222656 626.28125 L 289.351562 613.085938 L 303.933594 596.851562 L 316.542969 577.875 L 326.796875 556.511719 L 334.382812 533.167969 L 339.042969 508.300781 L 340.597656 482.398438 L 338.941406 455.96875 L 334.046875 429.53125 L 325.96875 403.613281 L 314.835938 378.714844 L 300.855469 355.3125 L 284.3125 333.855469 L 265.539062 314.738281 L 244.9375 298.296875 L 222.953125 284.804688 L 200.0625 274.464844 L 176.773438 267.410156 L 153.601562 263.679688 L 131.066406 263.25 L 109.671875 266.007812 L 89.902344 271.765625 L 72.207031 280.265625 L 56.988281 291.1875 L 44.589844 304.148438 L 35.296875 318.71875 L 29.324219 334.429688 L 26.8125 350.785156 L 27.816406 367.277344 L 32.316406 383.390625 L 40.21875 398.617188 L 51.34375 412.484375 L 65.445312 424.527344 L 82.203125 434.351562 L 101.246094 441.59375 L 122.144531 445.96875 L 144.433594 447.246094 L 167.617188 445.285156 L 191.183594 440.003906 L 214.609375 431.417969 L 237.386719 419.609375 L 259.011719 404.746094 L 279.03125 387.066406 L 297.015625 366.871094 L 312.59375 344.535156 L 325.457031 320.476562 L 335.363281 295.152344 L 342.136719 269.0625 L 345.683594 242.71875 L 345.992188 216.640625 L 343.128906 191.347656 L 337.230469 167.339844 L 328.519531 145.089844 L 317.28125 125.03125 L 303.863281 107.550781 L 288.667969 92.96875 L 272.148438 81.542969 L 254.78125 73.464844 L 237.074219 68.84375 L 219.535156 67.707031 L 202.683594 70.007812 L 187.015625 75.617188 L 173 84.335938 L 161.074219 95.886719 L 151.628906 109.933594 L 144.988281 126.078125 L 141.421875 143.886719 L 141.125 162.875 L 144.214844 182.546875 L 150.734375 202.386719 L 160.636719 221.875 L 173.8125 240.515625 L 190.058594 257.820312 L 209.109375 273.34375 L 230.640625 286.691406 L 254.253906 297.515625 L 279.511719 305.53125 L 305.941406 310.527344 L 333.039062 312.371094 L 360.28125 310.996094 L 387.148438 306.429688 L 413.125 298.765625 L 437.726562 288.183594 L 460.484375 274.929688 L 480.988281 259.320312 L 498.875 241.734375 L 513.84375 222.59375 L 525.667969 202.359375 L 534.179688 181.535156 L 539.308594 160.625 L 541.050781 140.148438 L 539.484375 120.621094 L 534.769531 102.527344 L 527.132812 86.332031 L 516.875 72.457031 L 504.355469 61.261719 L 489.988281 53.0625 L 474.226562 48.097656 L 457.558594 46.53125 L 440.484375 48.453125 L 423.523438 53.875 L 407.1875 62.722656 L 391.964844 74.855469 L 378.324219 90.042969 L 366.691406 107.996094 L 357.445312 128.363281 L 350.898438 150.730469 L 347.308594 174.648438 L 346.851562 199.628906 L 349.636719 225.15625 L 355.679688 250.714844 L 364.933594 275.789062 L 377.257812 299.867188 L 392.453125 322.476562 L 410.230469 343.167969 L 430.25 361.554688 L 452.117188 377.296875 L 475.378906 390.121094 L 499.558594 399.828125 L 524.152344 406.289062 L 548.636719 409.457031 L 572.492188 409.363281 L 595.214844 406.125 L 616.320312 399.921875 L 635.359375 391.019531 L 651.929688 379.738281 L 665.683594 366.464844 L 676.335938 351.621094 L 683.671875 335.683594 L 687.554688 319.144531 L 687.925781 302.515625 L 684.800781 286.308594 L 678.28125 271.03125 L 668.542969 257.164062 L 655.832031 245.160156 L 640.460938 235.421875 L 622.8125 228.308594 L 603.304688 224.105469 L 582.410156 223.039062 L 560.621094 225.253906 L 538.445312 230.828125 L 516.410156 239.746094 L 495.019531 251.921875 L 474.773438 267.191406 L 456.128906 285.316406 L 439.511719 305.984375 L 425.285156 328.828125 L 413.765625 353.429688 L 405.195312 379.328125 L 399.738281 406.023438 L 397.488281 433.007812 L 398.460938 459.75 L 402.585938 485.738281 L 409.71875 510.472656 L 419.644531 533.476562 L 432.070312 554.320312 L 446.648438 572.613281 L 462.976562 588.039062 L 480.597656 600.332031 L 499.035156 609.3125 L 517.785156 614.863281 L 536.328125 616.957031 L 554.152344 615.640625 L 570.761719 611.046875 L 585.679688 603.371094 L 598.476562 592.894531 L 608.757812 579.949219 L 616.195312 564.933594 L 620.523438 548.285156 L 621.550781 530.480469 L 619.15625 512.019531 L 613.296875 493.414062 L 604.019531 475.183594 L 591.4375 457.832031 L 575.746094 441.832031 L 557.21875 427.632812 L 536.179688 415.628906 L 513.023438 406.167969 L 488.1875 399.53125 L 462.148438 395.925781 L 435.414062 395.484375 L 408.496094 398.269531 L 381.917969 404.257812 L 356.195312 413.347656 L 331.820312 425.363281 L 309.246094 440.046875 L 288.894531 457.089844 L 271.121094 476.109375 L 256.226562 496.679688 L 244.445312 518.339844 L 235.933594 540.585938 L 230.765625 562.90625 L 228.945312 584.789062 L 230.390625 605.714844 L 234.945312 625.195312 L 242.375 642.765625 L 252.386719 658.007812 L 264.613281 670.550781 L 278.648438 680.09375 L 294.035156 686.386719 L 310.285156 689.269531 L 326.894531 688.652344 L 343.347656 684.519531 L 359.136719 676.945312 L 373.769531 666.078125 L 386.777344 652.136719 L 397.738281 635.414062 L 406.277344 616.269531 L 412.074219 595.101562 L 414.878906 572.375 L 414.519531 548.566406 L 410.882812 524.191406 L 403.953125 499.765625 L 393.785156 475.808594 L 380.515625 452.824219 L 364.347656 431.292969 L 345.574219 411.648438 L 324.527344 394.289062 L 301.617188 379.546875 L 277.285156 367.699219 L 252.011719 358.9375 L 226.3125 353.394531 L 200.699219 351.109375 L 175.691406 352.054688 L 151.804688 356.109375 L 129.519531 363.09375 L 109.28125 372.738281 L 91.496094 384.726562 L 76.511719 398.667969 L 64.617188 414.132812 L 56.019531 430.65625 L 50.859375 447.738281 L 49.199219 464.867188 L 51.019531 481.53125 L 56.222656 497.222656 L 64.632812 511.460938 L 76 523.792969 L 90.007812 533.816406 L 106.289062 541.171875 L 124.414062 545.578125 L 143.917969 546.804688 L 164.304688 544.703125 L 185.066406 539.210938 L 205.6875 530.332031 L 225.648438 518.152344 L 244.464844 502.847656 L 261.671875 484.648438 L 276.855469 463.871094 L 289.640625 440.878906 L 299.726562 416.09375 L 306.863281 389.976562 L 310.894531 363.03125 L 311.722656 335.765625 L 309.339844 308.699219 L 303.8125 282.359375 L 295.289062 257.238281 L 283.988281 233.816406 L 270.203125 212.519531 L 254.285156 193.738281 L 236.640625 177.792969 L 217.71875 164.941406 L 198 155.375 L 178 149.199219 L 158.226562 146.445312 L 139.195312 147.0625 L 121.40625 150.925781 L 105.335938 157.832031 L 91.417969 167.507812 L 80.039062 179.613281 L 71.53125 193.753906 L 66.160156 209.496094 L 64.121094 226.355469 L 65.53125 243.835938 L 70.433594 261.425781 L 78.78125 278.613281 L 90.464844 294.886719 L 105.28125 309.777344 L 122.964844 322.839844 L 143.1875 333.675781 L 165.554688 341.945312 L 189.632812 347.367188 L 214.9375 349.734375 L 240.976562 348.914062 L 267.21875 344.847656 L 293.15625 337.558594 L 318.265625 327.15625 L 342.0625 313.8125 L 364.089844 297.785156 L 383.929688 279.390625 L 401.222656 259.011719 L 415.667969 237.070312 L 427.042969 214.039062 L 435.1875 190.410156 L 440.023438 166.703125 L 441.550781 143.4375 L 439.855469 121.125 L 435.089844 100.253906 L 427.492188 81.296875 L 417.359375 64.667969 L 405.050781 50.734375 L 390.980469 39.808594 L 375.605469 32.132812 L 359.410156 27.867188 L 342.898438 27.109375 L 326.589844 29.867188 L 310.988281 36.070312 L 296.59375 45.570312 L 283.859375 58.148438 L 273.21875 73.511719 L 265.046875 91.304688 L 259.652344 111.121094 L 257.292969 132.507812 L 258.140625 154.984375 L 262.300781 178.03125 L 269.789062 201.140625 L 280.554688 223.789062 L 294.457031 245.476562 L 311.285156 265.726562 L 330.761719 284.101562 L 352.53125 300.207031 L 376.203125 313.710938 L 401.324219 324.34375 L 427.410156 331.910156 L 453.953125 336.277344 L 480.433594 337.414062 L 506.335938 335.347656 L 531.144531 330.191406 L 554.375 322.144531 L 575.582031 311.460938 L 594.359375 298.46875 L 610.363281 283.554688 L 623.300781 267.152344 L 632.964844 249.730469 L 639.214844 231.785156 L 641.988281 213.828125 L 641.304688 196.375 L 637.261719 179.933594 L 630.035156 164.984375 L 619.875 151.976562 L 607.09375 141.320312 L 592.066406 133.367188 L 575.214844 128.40625 L 557.003906 126.664062 L 537.929688 128.28125 L 518.5 133.335938 L 499.234375 141.808594 L 480.640625 153.621094 L 463.207031 168.59375 L 447.398438 186.496094 L 433.628906 207.015625 L 422.261719 229.785156 L 413.609375 254.382812 L 407.910156 280.339844 L 405.324219 307.167969 L 405.941406 334.347656 L 409.773438 361.363281 L 416.75 387.6875 L 426.71875 412.824219 L 439.460938 436.304688 L 454.679688 457.6875 L 472.027344 476.597656 L 491.09375 492.707031 L 511.425781 505.757812 L 532.539062 515.5625 L 553.921875 522.015625 L 575.0625 525.082031 L 595.445312 524.820312 L 614.570312 521.347656 L 631.960938 514.878906 L 647.179688 505.679688 L 659.839844 494.089844 L 669.613281 480.507812 L 676.226562 465.367188 L 679.492188 449.144531 L 679.289062 432.34375 L 675.574219 415.472656 L 668.386719 399.050781 L 657.851562 383.570312 L 644.160156 369.515625 L 627.582031 357.324219 L 608.445312 347.398438 L 587.140625 340.070312 L 564.105469 335.621094 L 539.816406 334.261719 L 514.777344 336.117188 L 489.503906 341.25 L 464.519531 349.625 L 440.332031 361.144531 L 417.433594 375.625 L 396.28125 392.8125 L 377.285156 412.382812 L 360.804688 433.960938 L 347.136719 457.117188 L 336.511719 481.378906 L 329.085938 506.253906 L 324.933594 531.21875 L 324.046875 555.753906 L 326.351562 579.351562 L 331.6875 601.511719 L 339.8125 621.773438 L 350.433594 639.71875 L 363.191406 654.972656 L 377.664062 667.230469 L 393.398438 676.246094 L 409.910156 681.855469 L 426.691406 683.96875 L 443.226562 682.574219 L 459.011719 677.742188 L 473.546875 669.617188 L 486.371094 658.421875 L 497.058594 644.449219 L 505.242188 628.046875 L 510.597656 609.628906 L 512.878906 589.644531 L 511.910156 568.578125 L 507.589844 546.933594 L 499.898438 525.238281 L 488.894531 503.996094 L 474.714844 483.71875 L 457.574219 464.871094 L 437.75 447.898438 L 415.59375 433.1875 L 391.503906 421.070312 L 365.933594 411.8125 L 339.363281 405.617188 L 312.300781 402.601562 L 285.269531 402.804688 L 258.789062 406.191406 L 233.371094 412.648438 L 209.496094 421.980469 L 187.617188 433.921875 L 168.132812 448.148438 L 151.398438 464.273438 L 137.695312 481.859375 L 127.234375 500.441406 L 120.160156 519.515625 L 116.527344 538.566406 L 116.324219 557.085938 L 119.445312 574.5625 L 125.71875 590.515625 L 134.894531 604.492188 L 146.664062 616.085938 L 160.644531 624.945312 L 176.421875 630.773438 L 193.527344 633.355469 L 211.464844 632.542969 L 229.730469 628.261719 L 247.804688 620.527344 L 265.183594 609.425781 L 281.371094 595.125 L 295.914062 577.867188 L 308.394531 557.957031 L 318.449219 535.765625 L 325.773438 511.71875 L 330.128906 486.273438 L 331.351562 459.929688 L 329.355469 433.199219 L 324.136719 406.601562 L 315.761719 380.660156 L 304.386719 355.875 L 290.234375 332.710938 L 273.597656 311.609375 L 254.828125 292.945312 L 234.34375 277.046875 L 212.589844 264.167969 L 190.058594 254.496094 L 167.257812 248.136719 L 144.707031 245.121094 L 122.917969 245.398438 L 102.390625 248.839844 L 83.609375 255.242188 L 67.003906 264.324219 L 52.964844 275.753906 L 41.824219 289.136719 L 33.847656 304.035156 L 29.234375 319.964844 L 28.097656 336.433594 L 30.484375 352.925781 L 36.347656 368.929688 L 45.574219 383.941406 L 57.964844 397.492188 L 73.257812 409.132812 L 91.117188 418.472656 L 111.160156 425.171875 L 132.945312 428.949219 L 155.996094 429.605469 L 179.8125 427.007812 L 203.875 421.105469 L 227.667969 411.917969 L 250.679688 399.5625 L 272.421875 384.210938 L 292.441406 366.125 L 310.324219 345.628906 L 325.710938 323.097656 L 338.308594 298.964844 L 347.890625 273.699219 L 354.300781 247.800781 L 357.46875 221.789062 L 357.394531 196.183594 L 354.164062 171.5 L 347.941406 148.230469 L 338.957031 126.839844 L 327.515625 107.75 L 313.976562 91.332031 L 298.761719 77.894531 L 282.320312 67.675781 L 265.144531 60.84375 L 247.738281 57.496094 L 230.617188 57.636719 L 214.296875 61.199219 L 199.261719 68.035156 L 185.980469 77.925781 L 174.875 90.578125 L 166.320312 105.640625 L 160.632812 122.707031 L 158.0625 141.328125 L 158.78125 161.015625 L 162.890625 181.265625 L 170.410156 201.558594 L 181.28125 221.382812 L 195.367188 240.238281 L 212.453125 257.652344 L 232.253906 273.191406 L 254.425781 286.460938 L 278.566406 297.132812 L 304.226562 304.941406 L 330.917969 309.695312 L 358.132812 311.269531 L 385.355469 309.628906 L 412.058594 304.8125 L 437.738281 296.933594 L 461.90625 286.195312 L 484.113281 272.851562 L 503.957031 257.242188 L 521.089844 239.75 L 535.226562 220.808594 L 546.15625 200.898438 L 553.734375 180.511719 L 557.90625 160.167969 L 558.691406 140.378906 L 556.183594 121.652344 L 550.5625 104.480469 L 542.078125 89.304688 L 531.039062 76.535156 L 517.820312 66.527344 L 502.847656 59.574219 L 486.585938 55.890625 L 469.523438 55.632812 L 452.171875 58.867188 L 435.042969 65.578125 L 418.652344 75.6875 L 403.476562 89.015625 L 389.984375 105.332031 L 378.582031 124.320312 L 369.636719 145.621094 L 363.453125 168.800781 L 360.261719 193.40625 L 360.230469 218.941406 L 363.4375 244.886719 L 369.890625 270.726562 L 379.515625 295.941406 L 392.164062 320.03125 L 407.605469 342.527344 L 425.546875 362.996094 L 445.625 381.054688 L 467.4375 396.386719 L 490.527344 408.730469 L 514.402344 417.90625 L 538.554688 423.804688 L 562.464844 426.398438 L 585.617188 425.738281 L 607.507812 421.957031 L 627.664062 415.257812 L 645.640625 405.914062 L 661.058594 394.269531 L 673.574219 380.71875 L 682.929688 365.695312 L 688.925781 349.683594 L 691.441406 333.179688 Z M 693.332031 360 " style=";stroke:#EE2C2C73;stroke-width:0.8;NA"/>
    <animateTransform attributeType="xml" attributeName="transform" type="rotate" from="360 360 360" to="0 360 360" dur="240s" additive="sum" repeatCount="indefinite" begin="second_event_horizon_start.click" end="second_event_horizon_stop.click"/>
  </g>
  <g xmlns="http://www.w3.org/2000/svg" gspiro="path" id="spiro_2.64575131106459_2.23606797749979_0.55_12625" transform=" scale(0.96 0.96) translate(15 15) rotate(1 360 360)">
    <path fill-rule="evenodd" fill="#F2F2F2" d="M 693.332031 360 L 691.574219 343.558594 L 686.332031 327.632812 L 677.726562 312.71875 L 665.957031 299.292969 L 651.285156 287.796875 L 634.046875 278.625 L 614.628906 272.117188 L 593.464844 268.542969 L 571.035156 268.117188 L 547.839844 270.960938 L 524.394531 277.132812 L 501.21875 286.601562 L 478.824219 299.257812 L 457.695312 314.917969 L 438.285156 333.328125 L 421.007812 354.167969 L 406.222656 377.050781 L 394.214844 401.546875 L 385.21875 427.183594 L 379.378906 453.464844 L 376.777344 479.867188 L 377.402344 505.878906 L 381.171875 530.972656 L 387.917969 554.664062 L 397.414062 576.484375 L 409.347656 596.015625 L 423.359375 612.882812 L 439.035156 626.785156 L 455.914062 637.472656 L 473.511719 644.78125 L 491.316406 648.621094 L 508.8125 648.984375 L 525.496094 645.9375 L 540.867188 639.625 L 554.46875 630.273438 L 565.867188 618.171875 L 574.699219 603.675781 L 580.644531 587.183594 L 583.457031 569.15625 L 582.957031 550.070312 L 579.050781 530.433594 L 571.714844 510.765625 L 561.011719 491.578125 L 547.082031 473.371094 L 530.132812 456.613281 L 510.449219 441.746094 L 488.386719 429.148438 L 464.339844 419.15625 L 438.761719 412.03125 L 412.132812 407.96875 L 384.96875 407.082031 L 357.789062 409.417969 L 331.113281 414.929688 L 305.445312 423.496094 L 281.277344 434.929688 L 259.054688 448.953125 L 239.179688 465.246094 L 222.003906 483.414062 L 207.804688 503.019531 L 196.796875 523.589844 L 189.121094 544.628906 L 184.835938 565.613281 L 183.921875 586.035156 L 186.277344 605.378906 L 191.722656 623.167969 L 200.019531 638.945312 L 210.84375 652.300781 L 223.828125 662.890625 L 238.542969 670.414062 L 254.53125 674.65625 L 271.292969 675.46875 L 288.324219 672.777344 L 305.105469 666.597656 L 321.136719 657.015625 L 335.921875 644.203125 L 349.011719 628.394531 L 359.992188 609.90625 L 368.496094 589.101562 L 374.222656 566.40625 L 376.9375 542.28125 L 376.480469 517.21875 L 372.769531 491.738281 L 365.800781 466.351562 L 355.644531 441.585938 L 342.460938 417.933594 L 326.472656 395.867188 L 307.980469 375.816406 L 287.335938 358.160156 L 264.957031 343.222656 L 241.296875 331.257812 L 216.84375 322.449219 L 192.109375 316.898438 L 167.613281 314.640625 L 143.875 315.613281 L 121.394531 319.691406 L 100.648438 326.667969 L 82.070312 336.269531 L 66.058594 348.148438 L 52.941406 361.914062 L 42.980469 377.125 L 36.378906 393.304688 L 33.253906 409.953125 L 33.640625 426.558594 L 37.507812 442.601562 L 44.730469 457.589844 L 55.113281 471.042969 L 68.398438 482.527344 L 84.246094 491.640625 L 102.269531 498.046875 L 122.035156 501.472656 L 143.066406 501.714844 L 164.863281 498.640625 L 186.910156 492.207031 L 208.6875 482.433594 L 229.691406 469.433594 L 249.429688 453.394531 L 267.457031 434.566406 L 283.359375 413.28125 L 296.78125 389.914062 L 307.433594 364.902344 L 315.089844 338.714844 L 319.597656 311.855469 L 320.890625 284.839844 L 318.972656 258.1875 L 313.933594 232.421875 L 305.933594 208.027344 L 295.210938 185.476562 L 282.074219 165.183594 L 266.886719 147.527344 L 250.0625 132.808594 L 232.066406 121.269531 L 213.382812 113.082031 L 194.519531 108.332031 L 176 107.03125 L 158.328125 109.113281 L 141.996094 114.425781 L 127.472656 122.75 L 115.183594 133.792969 L 105.496094 147.207031 L 98.734375 162.582031 L 95.136719 179.46875 L 94.882812 197.382812 L 98.070312 215.816406 L 104.722656 234.261719 L 114.777344 252.199219 L 128.09375 269.136719 L 144.460938 284.597656 L 163.59375 298.152344 L 185.140625 309.410156 L 208.703125 318.050781 L 233.832031 323.808594 L 260.039062 326.488281 L 286.816406 325.976562 L 313.648438 322.234375 L 340.007812 315.308594 L 365.386719 305.320312 L 389.304688 292.464844 L 411.316406 277.007812 L 431.011719 259.285156 L 448.046875 239.691406 L 462.140625 218.65625 L 473.078125 196.660156 L 480.726562 174.203125 L 485.027344 151.804688 L 485.996094 129.980469 L 483.734375 109.234375 L 478.421875 90.058594 L 470.304688 72.902344 L 459.699219 58.175781 L 446.980469 46.230469 L 432.574219 37.355469 L 416.941406 31.78125 L 400.574219 29.644531 L 383.984375 31.023438 L 367.683594 35.90625 L 352.179688 44.199219 L 337.957031 55.742188 L 325.476562 70.289062 L 315.144531 87.53125 L 307.328125 107.101562 L 302.328125 128.582031 L 300.371094 151.503906 L 301.625 175.378906 L 306.167969 199.691406 L 314 223.921875 L 325.046875 247.554688 L 339.15625 270.09375 L 356.09375 291.070312 L 375.566406 310.050781 L 397.210938 326.65625 L 420.617188 340.574219 L 445.328125 351.542969 L 470.851562 359.386719 L 496.679688 364 L 522.285156 365.355469 L 547.15625 363.507812 L 570.785156 358.589844 L 592.699219 350.808594 L 612.457031 340.445312 L 629.671875 327.835938 L 644.007812 313.382812 L 655.199219 297.523438 L 663.050781 280.734375 L 667.441406 263.519531 L 668.332031 246.394531 L 665.761719 229.867188 L 659.847656 214.441406 L 650.789062 200.589844 L 638.84375 188.757812 L 624.347656 179.335938 L 607.691406 172.660156 L 589.304688 169.007812 L 569.660156 168.578125 L 549.265625 171.507812 L 528.628906 177.835938 L 508.269531 187.542969 L 488.691406 200.515625 L 470.382812 216.566406 L 453.792969 235.4375 L 439.332031 256.808594 L 427.347656 280.292969 L 418.136719 305.460938 L 411.917969 331.835938 L 408.84375 358.921875 L 408.976562 386.195312 L 412.3125 413.136719 L 418.761719 439.230469 L 428.15625 463.980469 L 440.257812 486.925781 L 454.761719 507.644531 L 471.296875 525.765625 L 489.449219 540.976562 L 508.757812 553.046875 L 528.730469 561.800781 L 548.855469 567.152344 L 568.617188 569.089844 L 587.507812 567.679688 L 605.027344 563.078125 L 620.71875 555.5 L 634.148438 545.238281 L 644.945312 532.640625 L 652.796875 518.121094 L 657.453125 502.125 L 658.734375 485.140625 L 656.550781 467.664062 L 650.875 450.214844 L 641.769531 433.304688 L 629.371094 417.429688 L 613.898438 403.0625 L 595.636719 390.628906 L 574.925781 380.519531 L 552.175781 373.054688 L 527.828125 368.503906 L 502.378906 367.046875 L 476.324219 368.808594 L 450.191406 373.816406 L 424.5 382.027344 L 399.753906 393.320312 L 376.441406 407.492188 L 355.007812 424.28125 L 335.851562 443.34375 L 319.320312 464.289062 L 305.695312 486.683594 L 295.191406 510.046875 L 287.9375 533.875 L 283.996094 557.648438 L 283.347656 580.855469 L 285.886719 602.980469 L 291.433594 623.542969 L 299.742188 642.082031 L 310.496094 658.195312 L 323.320312 671.523438 L 337.789062 681.78125 L 353.441406 688.742188 L 369.777344 692.253906 L 386.296875 692.253906 L 402.476562 688.75 L 417.816406 681.832031 L 431.828125 671.664062 L 444.058594 658.484375 L 454.09375 642.605469 L 461.570312 624.398438 L 466.195312 604.273438 L 467.726562 582.703125 L 466.015625 560.171875 L 460.976562 537.195312 L 452.605469 514.292969 L 440.988281 491.976562 L 426.273438 470.746094 L 408.695312 451.070312 L 388.550781 433.371094 L 366.199219 418.03125 L 342.058594 405.363281 L 316.585938 395.625 L 290.269531 388.996094 L 263.625 385.574219 L 237.171875 385.382812 L 211.429688 388.371094 L 186.898438 394.402344 L 164.0625 403.265625 L 143.355469 414.6875 L 125.167969 428.316406 L 109.832031 443.761719 L 97.617188 460.578125 L 88.71875 478.285156 L 83.253906 496.382812 L 81.265625 514.355469 L 82.714844 531.691406 L 87.480469 547.890625 L 95.371094 562.472656 L 106.121094 575.003906 L 119.398438 585.082031 L 134.816406 592.375 L 151.941406 596.609375 L 170.296875 597.578125 L 189.390625 595.15625 L 208.699219 589.292969 L 227.714844 580.015625 L 245.929688 567.4375 L 262.859375 551.746094 L 278.058594 533.195312 L 291.113281 512.109375 L 301.679688 488.878906 L 309.460938 463.925781 L 314.246094 437.734375 L 315.878906 410.800781 L 314.300781 383.640625 L 309.519531 356.777344 L 301.621094 330.726562 L 290.78125 305.984375 L 277.238281 283.011719 L 261.296875 262.234375 L 243.328125 244.015625 L 223.753906 228.664062 L 203.035156 216.425781 L 181.664062 207.460938 L 160.152344 201.859375 L 139.015625 199.632812 L 118.769531 200.710938 L 99.902344 204.945312 L 82.890625 212.113281 L 68.148438 221.921875 L 56.058594 234.023438 L 46.9375 248.011719 L 41.023438 263.429688 L 38.503906 279.800781 L 39.472656 296.617188 L 43.949219 313.367188 L 51.875 329.542969 L 63.109375 344.640625 L 77.4375 358.195312 L 94.582031 369.773438 L 114.191406 378.996094 L 135.859375 385.539062 L 159.144531 389.136719 L 183.558594 389.605469 L 208.59375 386.828125 L 233.730469 380.777344 L 258.453125 371.492188 L 282.253906 359.105469 L 304.644531 343.808594 L 325.1875 325.882812 L 343.476562 305.65625 L 359.171875 283.527344 L 371.988281 259.933594 L 381.722656 235.359375 L 388.234375 210.300781 L 391.46875 185.277344 L 391.453125 160.816406 L 388.28125 137.417969 L 382.140625 115.578125 L 373.277344 95.746094 L 362.011719 78.328125 L 348.714844 63.683594 L 333.820312 52.105469 L 317.785156 43.8125 L 301.105469 38.957031 L 284.292969 37.609375 L 267.859375 39.753906 L 252.3125 45.308594 L 238.132812 54.105469 L 225.785156 65.902344 L 215.675781 80.390625 L 208.167969 97.207031 L 203.554688 115.929688 L 202.074219 136.097656 L 203.878906 157.21875 L 209.054688 178.785156 L 217.597656 200.273438 L 229.429688 221.171875 L 244.390625 240.992188 L 262.257812 259.257812 L 282.722656 275.546875 L 305.429688 289.488281 L 329.964844 300.757812 L 355.863281 309.109375 L 382.636719 314.367188 L 409.773438 316.425781 L 436.746094 315.265625 L 463.046875 310.945312 L 488.160156 303.601562 L 511.613281 293.445312 L 532.96875 280.753906 L 551.835938 265.875 L 567.882812 249.203125 L 580.839844 231.191406 L 590.511719 212.3125 L 596.78125 193.074219 L 599.605469 173.988281 L 599.027344 155.566406 L 595.164062 138.316406 L 588.203125 122.714844 L 578.421875 109.199219 L 566.140625 98.160156 L 551.75 89.945312 L 535.683594 84.820312 L 518.417969 82.992188 L 500.445312 84.585938 L 482.285156 89.65625 L 464.449219 98.171875 L 447.4375 110.019531 L 431.738281 125.011719 L 417.796875 142.898438 L 406.015625 163.34375 L 396.75 185.972656 L 390.285156 210.351562 L 386.839844 236.003906 L 386.558594 262.429688 L 389.503906 289.113281 L 395.667969 315.53125 L 404.953125 341.167969 L 417.195312 365.53125 L 432.144531 388.160156 L 449.496094 408.628906 L 468.875 426.574219 L 489.867188 441.6875 L 512 453.730469 L 534.789062 462.535156 L 557.714844 468.015625 L 580.261719 470.164062 L 601.914062 469.046875 L 622.179688 464.8125 L 640.585938 457.691406 L 656.714844 447.96875 L 670.183594 436 L 680.679688 422.1875 L 687.953125 406.988281 L 691.832031 390.882812 L 692.210938 374.375 L 689.070312 357.976562 L 682.472656 342.203125 L 672.558594 327.542969 L 659.535156 314.472656 L 643.691406 303.417969 L 625.371094 294.757812 L 604.976562 288.824219 L 582.957031 285.867188 L 559.792969 286.082031 L 535.996094 289.574219 L 512.078125 296.378906 L 488.566406 306.445312 L 465.957031 319.652344 L 444.738281 335.792969 L 425.347656 354.597656 L 408.191406 375.726562 L 393.609375 398.789062 L 381.878906 423.335938 L 373.207031 448.894531 L 367.730469 474.957031 L 365.5 501.007812 L 366.496094 526.519531 L 370.609375 550.984375 L 377.664062 573.914062 L 387.40625 594.859375 L 399.511719 613.40625 L 413.609375 629.199219 L 429.273438 641.945312 L 446.035156 651.425781 L 463.402344 657.488281 L 480.863281 660.0625 L 497.902344 659.15625 L 514.011719 654.863281 L 528.710938 647.347656 L 541.542969 636.847656 L 552.089844 623.667969 L 560 608.183594 L 564.964844 590.804688 L 566.765625 572 L 565.234375 552.253906 L 560.296875 532.078125 L 551.953125 511.988281 L 540.28125 492.503906 L 525.4375 474.109375 L 507.65625 457.269531 L 487.238281 442.417969 L 464.542969 429.921875 L 439.988281 420.097656 L 414.03125 413.191406 L 387.164062 409.382812 L 359.902344 408.765625 L 332.761719 411.367188 L 306.269531 417.121094 L 280.921875 425.890625 L 257.203125 437.464844 L 235.546875 451.558594 L 216.34375 467.828125 L 199.929688 485.871094 L 186.5625 505.242188 L 176.449219 525.460938 L 169.699219 546.023438 L 166.359375 566.410156 L 166.382812 586.109375 L 169.65625 604.617188 L 175.984375 621.453125 L 185.101562 636.183594 L 196.675781 648.40625 L 210.320312 657.785156 L 225.601562 664.050781 L 242.050781 666.992188 L 259.164062 666.484375 L 276.429688 662.480469 L 293.339844 655.007812 L 309.382812 644.175781 L 324.085938 630.167969 L 336.996094 613.25 L 347.710938 593.742188 L 355.882812 572.023438 L 361.226562 548.535156 L 363.523438 523.746094 L 362.632812 498.152344 L 358.488281 472.277344 L 351.105469 446.640625 L 340.582031 421.753906 L 327.082031 398.113281 L 310.859375 376.175781 L 292.21875 356.363281 L 271.535156 339.046875 L 249.230469 324.527344 L 225.769531 313.042969 L 201.648438 304.761719 L 177.382812 299.769531 L 153.484375 298.070312 L 130.476562 299.59375 L 108.855469 304.191406 L 89.082031 311.640625 L 71.585938 321.644531 L 56.746094 333.855469 L 44.875 347.859375 L 36.226562 363.210938 L 30.96875 379.425781 L 29.210938 395.992188 L 30.96875 412.40625 L 36.183594 428.152344 L 44.71875 442.738281 L 56.355469 455.691406 L 70.820312 466.582031 L 87.757812 475.035156 L 106.769531 480.722656 L 127.410156 483.386719 L 149.195312 482.84375 L 171.621094 478.980469 L 194.171875 471.765625 L 216.320312 461.25 L 237.574219 447.5625 L 257.449219 430.902344 L 275.5 411.542969 L 291.332031 389.828125 L 304.605469 366.152344 L 315.039062 340.953125 L 322.429688 314.714844 L 326.648438 287.941406 L 327.632812 261.15625 L 325.421875 234.878906 L 320.109375 209.617188 L 311.886719 185.863281 L 301.007812 164.070312 L 287.785156 144.644531 L 272.601562 127.949219 L 255.886719 114.269531 L 238.105469 103.832031 L 219.753906 96.785156 L 201.339844 93.199219 L 183.386719 93.0625 L 166.390625 96.289062 L 150.847656 102.710938 L 137.210938 112.09375 L 125.890625 124.125 L 117.246094 138.4375 L 111.582031 154.617188 L 109.121094 172.199219 L 110.027344 190.699219 L 114.375 209.605469 L 122.167969 228.398438 L 133.320312 246.574219 L 147.679688 263.632812 L 165.011719 279.117188 L 185.015625 292.601562 L 207.332031 303.710938 L 231.542969 312.136719 L 257.1875 317.632812 L 283.777344 320.023438 L 310.796875 319.207031 L 337.726562 315.175781 L 364.042969 307.980469 L 389.25 297.769531 L 412.863281 284.753906 L 434.453125 269.222656 L 453.621094 251.515625 L 470.039062 232.039062 L 483.445312 211.238281 L 493.640625 189.601562 L 500.507812 167.632812 L 504.007812 145.84375 L 504.183594 124.757812 L 501.148438 104.875 L 495.101562 86.671875 L 486.308594 70.59375 L 475.097656 57.035156 L 461.859375 46.335938 L 447.027344 38.765625 L 431.074219 34.535156 L 414.496094 33.765625 L 397.808594 36.511719 L 381.519531 42.742188 L 366.132812 52.347656 L 352.132812 65.144531 L 339.960938 80.871094 L 330.023438 99.203125 L 322.664062 119.761719 L 318.167969 142.109375 L 316.753906 165.777344 L 318.5625 190.265625 L 323.652344 215.058594 L 332.011719 239.632812 L 343.542969 263.480469 L 358.070312 286.105469 L 375.351562 307.050781 L 395.070312 325.890625 L 416.859375 342.269531 L 440.285156 355.878906 L 464.886719 366.476562 L 490.167969 373.90625 L 515.613281 378.082031 L 540.703125 378.996094 L 564.921875 376.722656 L 587.773438 371.410156 L 608.785156 363.285156 L 627.53125 352.644531 L 643.636719 339.839844 L 656.789062 325.277344 L 666.730469 309.414062 L 673.289062 292.730469 L 676.363281 275.734375 L 675.929688 258.9375 L 672.054688 242.851562 L 664.871094 227.972656 L 654.59375 214.765625 L 641.5 203.664062 L 625.945312 195.046875 L 608.320312 189.234375 L 589.078125 186.492188 L 568.699219 186.996094 L 547.683594 190.859375 L 526.554688 198.113281 L 505.828125 208.710938 L 486 222.515625 L 467.554688 239.332031 L 450.929688 258.882812 L 436.523438 280.824219 L 424.675781 304.769531 L 415.660156 330.265625 L 409.679688 356.832031 L 406.867188 383.972656 L 407.269531 411.15625 L 410.863281 437.867188 L 417.539062 463.59375 L 427.109375 487.84375 L 439.324219 510.167969 L 453.855469 530.152344 L 470.328125 547.445312 L 488.3125 561.753906 L 507.335938 572.851562 L 526.90625 580.59375 L 546.507812 584.90625 L 565.628906 585.804688 L 583.757812 583.375 L 600.410156 577.78125 L 615.125 569.265625 L 627.496094 558.136719 L 637.15625 544.753906 L 643.8125 529.542969 L 647.230469 512.957031 L 647.253906 495.488281 L 643.804688 477.648438 L 636.878906 459.949219 L 626.566406 442.902344 L 613.015625 426.996094 L 596.460938 412.695312 L 577.203125 400.421875 L 555.609375 390.542969 L 532.085938 383.375 L 507.101562 379.160156 L 481.140625 378.070312 L 454.71875 380.199219 L 428.355469 385.566406 L 402.574219 394.105469 L 377.871094 405.675781 L 354.726562 420.0625 L 333.578125 436.976562 L 314.808594 456.070312 L 298.753906 476.9375 L 285.679688 499.132812 L 275.773438 522.171875 L 269.160156 545.542969 L 265.875 568.730469 L 265.875 591.21875 L 269.039062 612.5 L 275.175781 632.097656 L 284.015625 649.566406 L 295.226562 664.515625 L 308.421875 676.601562 L 323.167969 685.550781 L 338.988281 691.160156 L 355.390625 693.296875 L 371.859375 691.914062 L 387.886719 687.042969 L 402.960938 678.789062 L 416.609375 667.335938 L 428.382812 652.949219 L 437.882812 635.949219 L 444.761719 616.714844 L 448.734375 595.679688 L 449.589844 573.3125 L 447.1875 550.121094 L 441.460938 526.609375 L 432.433594 503.304688 L 420.199219 480.714844 L 404.933594 459.335938 L 386.882812 439.617188 L 366.367188 421.984375 L 343.753906 406.796875 L 319.472656 394.359375 L 293.988281 384.910156 L 267.796875 378.601562 L 241.417969 375.527344 L 215.371094 375.683594 L 190.171875 379.003906 L 166.316406 385.328125 L 144.277344 394.433594 L 124.480469 406.023438 L 107.304688 419.742188 L 93.058594 435.179688 L 82.003906 451.882812 L 74.308594 469.367188 L 70.074219 487.128906 L 69.328125 504.648438 L 72.003906 521.421875 L 77.964844 536.945312 L 87 550.753906 L 98.832031 562.421875 L 113.105469 571.5625 L 129.425781 577.855469 L 147.351562 581.046875 L 166.390625 580.945312 L 186.046875 577.449219 L 205.804688 570.523438 L 225.148438 560.21875 L 243.574219 546.660156 L 260.609375 530.0625 L 275.8125 510.691406 L 288.785156 488.890625 L 299.195312 465.058594 L 306.765625 439.632812 L 311.296875 413.101562 L 312.660156 385.96875 L 310.808594 358.75 L 305.765625 331.972656 L 297.648438 306.148438 L 286.640625 281.761719 L 273 259.265625 L 257.046875 239.074219 L 239.164062 221.539062 L 219.789062 206.953125 L 199.382812 195.539062 L 178.445312 187.441406 L 157.492188 182.734375 L 137.042969 181.40625 L 117.601562 183.367188 L 99.65625 188.453125 L 83.667969 196.421875 L 70.046875 206.964844 L 59.15625 219.71875 L 51.289062 234.265625 L 46.6875 250.140625 L 45.496094 266.863281 L 47.804688 283.917969 L 53.605469 300.792969 L 62.820312 316.980469 L 75.296875 331.988281 L 90.796875 345.355469 L 109.019531 356.664062 L 129.609375 365.542969 L 152.144531 371.679688 L 176.171875 374.835938 L 201.195312 374.835938 L 226.703125 371.589844 L 252.179688 365.082031 L 277.105469 355.375 L 300.972656 342.617188 L 323.316406 327.027344 L 343.691406 308.886719 L 361.714844 288.550781 L 377.058594 266.425781 L 389.453125 242.960938 L 398.710938 218.636719 L 404.71875 193.972656 L 407.429688 169.476562 L 406.898438 145.675781 L 403.238281 123.070312 L 396.644531 102.140625 L 387.390625 83.328125 L 375.808594 67.035156 L 362.285156 53.597656 L 347.253906 43.289062 L 331.191406 36.320312 L 314.59375 32.8125 L 297.972656 32.824219 L 281.84375 36.316406 L 266.707031 43.191406 L 253.042969 53.253906 L 241.296875 66.253906 L 231.871094 81.867188 L 225.105469 99.707031 L 221.289062 119.34375 L 220.632812 140.3125 L 223.277344 162.113281 L 229.285156 184.226562 L 238.628906 206.136719 L 251.21875 227.335938 L 266.878906 247.335938 L 285.355469 265.671875 L 306.335938 281.9375 L 329.445312 295.761719 L 354.257812 306.851562 L 380.300781 314.964844 L 407.085938 319.949219 L 434.089844 321.71875 L 460.789062 320.277344 L 486.671875 315.691406 L 511.242188 308.121094 L 534.023438 297.796875 L 554.589844 285.011719 L 572.570312 270.125 L 587.644531 253.546875 L 599.5625 235.734375 L 608.148438 217.167969 L 613.296875 198.359375 L 614.992188 179.824219 L 613.296875 162.070312 L 608.339844 145.597656 L 600.339844 130.875 L 589.574219 118.328125 L 576.394531 108.34375 L 561.195312 101.238281 L 544.421875 97.273438 L 526.558594 96.632812 L 508.105469 99.425781 L 489.578125 105.679688 L 471.492188 115.347656 L 454.34375 128.300781 L 438.609375 144.328125 L 424.730469 163.164062 L 413.09375 184.460938 L 404.042969 207.824219 L 397.84375 232.808594 L 394.699219 258.9375 L 394.734375 285.699219 L 398 312.578125 L 404.457031 339.050781 L 414 364.605469 L 426.433594 388.757812 L 441.507812 411.050781 L 458.894531 431.078125 L 478.203125 448.484375 L 499.011719 462.980469 L 520.84375 474.34375 L 543.199219 482.425781 L 565.5625 487.15625 L 587.421875 488.550781 L 608.257812 486.695312 L 627.589844 481.761719 L 644.957031 473.984375 L 659.945312 463.675781 L 672.195312 451.199219 L 681.402344 436.972656 L 687.339844 421.460938 L 689.847656 405.148438 L 688.847656 388.546875 L 684.34375 372.164062 L 676.40625 356.511719 L 665.199219 342.082031 L 650.953125 329.335938 L 633.96875 318.6875 L 614.605469 310.507812 L 593.28125 305.105469 L 570.449219 302.722656 L 546.605469 303.53125 L 522.253906 307.617188 L 497.921875 315 L 474.125 325.609375 L 451.359375 339.300781 L 430.101562 355.855469 L 410.785156 374.984375 L 393.800781 396.332031 L 379.46875 419.496094 L 368.058594 444.019531 L 359.753906 469.421875 L 354.675781 495.191406 L 352.859375 520.804688 L 354.253906 545.746094 L 358.742188 569.511719 L 366.125 591.613281 L 376.132812 611.617188 L 388.433594 629.117188 L 402.636719 643.777344 L 418.300781 655.324219 L 434.960938 663.550781 L 452.113281 668.324219 L 469.246094 669.601562 L 485.84375 667.40625 L 501.40625 661.847656 L 515.453125 653.109375 L 527.539062 641.453125 L 537.265625 627.195312 L 544.285156 610.722656 L 548.3125 592.460938 L 549.140625 572.886719 L 546.628906 552.488281 L 540.714844 531.785156 L 531.421875 511.292969 L 518.847656 491.519531 L 503.164062 472.953125 L 484.625 456.050781 L 463.546875 441.226562 L 440.304688 428.839844 L 415.324219 419.1875 L 389.078125 412.507812 L 362.054688 408.957031 L 334.78125 408.609375 L 307.773438 411.46875 L 281.554688 417.457031 L 256.613281 426.417969 L 233.425781 438.121094 L 212.414062 452.269531 L 193.960938 468.5 L 178.378906 486.402344 L 165.917969 505.519531 L 156.757812 525.367188 L 150.992188 545.4375 L 148.648438 565.210938 L 149.660156 584.171875 L 153.898438 601.832031 L 161.140625 617.714844 L 171.113281 631.390625 L 183.464844 642.484375 L 197.800781 650.664062 L 213.671875 655.679688 L 230.597656 657.339844 L 248.082031 655.542969 L 265.605469 650.253906 L 282.65625 641.523438 L 298.734375 629.484375 L 313.371094 614.339844 L 326.121094 596.359375 L 336.59375 575.890625 L 344.464844 553.328125 L 349.453125 529.113281 L 351.363281 503.730469 L 350.074219 477.679688 L 345.535156 451.488281 L 337.785156 425.667969 L 326.933594 400.738281 L 313.175781 377.179688 L 296.765625 355.445312 L 278.035156 335.945312 L 257.367188 319.027344 L 235.195312 304.992188 L 211.992188 294.050781 L 188.261719 286.351562 L 164.515625 281.964844 L 141.277344 280.875 L 119.050781 282.992188 L 98.335938 288.148438 L 79.582031 296.105469 L 63.207031 306.554688 L 49.574219 319.121094 L 38.980469 333.394531 L 31.660156 348.914062 L 27.769531 365.183594 L 27.390625 381.699219 L 30.523438 397.949219 L 37.085938 413.425781 L 46.921875 427.632812 L 59.800781 440.117188 L 75.425781 450.457031 L 93.429688 458.285156 L 113.402344 463.292969 L 134.886719 465.242188 L 157.394531 463.964844 L 180.410156 459.363281 L 203.421875 451.433594 L 225.90625 440.238281 L 247.371094 425.929688 L 267.335938 408.722656 L 285.375 388.910156 L 301.105469 366.847656 L 314.191406 342.9375 L 324.378906 317.636719 L 331.476562 291.429688 L 335.375 264.832031 L 336.035156 238.359375 L 333.507812 212.535156 L 327.914062 187.859375 L 319.453125 164.820312 L 308.398438 143.859375 L 295.085938 125.375 L 279.902344 109.703125 L 263.289062 97.125 L 245.722656 87.84375 L 227.695312 81.984375 L 209.726562 79.605469 L 192.328125 80.671875 L 176.003906 85.078125 L 161.234375 92.636719 L 148.464844 103.09375 L 138.09375 116.128906 L 130.464844 131.355469 L 125.867188 148.347656 L 124.511719 166.632812 L 126.53125 185.722656 L 131.992188 205.09375 L 140.867188 224.238281 L 153.0625 242.648438 L 168.398438 259.832031 L 186.628906 275.339844 L 207.433594 288.757812 L 230.4375 299.722656 L 255.214844 307.941406 L 281.292969 313.1875 L 308.179688 315.296875 L 335.355469 314.199219 L 362.296875 309.890625 L 388.488281 302.453125 L 413.433594 292.046875 L 436.664062 278.902344 L 457.746094 263.316406 L 476.3125 245.65625 L 492.046875 226.332031 L 504.691406 205.804688 L 514.078125 184.558594 L 520.105469 163.105469 L 522.753906 141.960938 L 522.082031 121.640625 L 518.226562 102.644531 L 511.40625 85.441406 L 501.898438 70.457031 L 490.050781 58.078125 L 476.261719 48.628906 L 460.980469 42.363281 L 444.679688 39.472656 L 427.863281 40.058594 L 411.050781 44.152344 L 394.75 51.707031 L 379.457031 62.59375 L 365.648438 76.609375 L 353.761719 93.472656 L 344.183594 112.847656 L 337.246094 134.339844 L 333.222656 157.503906 L 332.308594 181.859375 L 334.625 206.902344 L 340.214844 232.109375 L 349.046875 256.96875 L 361 280.964844 L 375.890625 303.613281 L 393.449219 324.464844 L 413.351562 343.113281 L 435.210938 359.203125 L 458.589844 372.445312 L 483.011719 382.625 L 507.980469 389.597656 L 532.980469 393.292969 L 557.484375 393.722656 L 580.984375 390.984375 L 602.988281 385.246094 L 623.042969 376.75 L 640.722656 365.800781 L 655.675781 352.773438 L 667.59375 338.085938 L 676.25 322.195312 L 681.484375 305.597656 L 683.214844 288.796875 L 681.445312 272.304688 L 676.25 256.636719 L 667.789062 242.277344 L 656.289062 229.6875 L 642.054688 219.285156 L 625.445312 211.4375 L 606.871094 206.453125 L 586.789062 204.570312 L 565.691406 205.957031 L 544.082031 210.703125 L 522.484375 218.820312 L 501.410156 230.242188 L 481.359375 244.8125 L 462.800781 262.320312 L 446.164062 282.46875 L 431.835938 304.90625 L 420.140625 329.21875 L 411.335938 354.957031 L 405.605469 381.636719 L 403.066406 408.738281 L 403.75 435.746094 L 407.605469 462.140625 L 414.507812 487.410156 L 424.253906 511.078125 L 436.574219 532.699219 L 451.128906 551.878906 L 467.53125 568.269531 L 485.335938 581.601562 L 504.066406 591.671875 L 523.226562 598.34375 L 542.300781 601.570312 L 560.773438 601.382812 L 578.140625 597.890625 L 593.921875 591.269531 L 607.671875 581.789062 L 618.992188 569.761719 L 627.53125 555.570312 L 633.007812 539.648438 L 635.214844 522.457031 L 634.011719 504.5 L 629.335938 486.28125 L 621.210938 468.320312 L 609.734375 451.125 L 595.085938 435.175781 L 577.511719 420.929688 L 557.328125 408.796875 L 534.914062 399.132812 L 510.699219 392.238281 L 485.144531 388.335938 L 458.757812 387.582031 L 432.042969 390.054688 L 405.535156 395.746094 L 379.738281 404.578125 L 355.160156 416.386719 L 332.261719 430.941406 L 311.472656 447.941406 L 293.164062 467.015625 L 277.65625 487.757812 L 265.195312 509.707031 L 255.953125 532.371094 L 250.035156 555.238281 L 247.453125 577.792969 L 248.152344 599.515625 L 251.988281 619.914062 L 258.753906 638.515625 L 268.160156 654.882812 L 279.863281 668.640625 L 293.460938 679.460938 L 308.515625 687.085938 L 324.535156 691.335938 L 341.027344 692.089844 L 357.476562 689.328125 L 373.371094 683.097656 L 388.210938 673.523438 L 401.523438 660.816406 L 412.875 645.242188 L 421.875 627.148438 L 428.195312 606.929688 L 431.5625 585.023438 L 431.785156 561.910156 L 428.742188 538.101562 L 422.386719 514.105469 L 412.757812 490.449219 L 399.976562 467.632812 L 384.226562 446.148438 L 365.78125 426.441406 L 344.960938 408.921875 L 322.164062 393.933594 L 297.816406 381.765625 L 272.402344 372.640625 L 246.417969 366.695312 L 220.382812 363.996094 L 194.820312 364.53125 L 170.242188 368.203125 L 147.136719 374.84375 L 125.964844 384.207031 L 107.144531 395.988281 L 91.035156 409.808594 L 77.941406 425.25 L 68.089844 441.855469 L 61.644531 459.132812 L 58.683594 476.570312 L 59.207031 493.652344 L 63.132812 509.875 L 70.3125 524.742188 L 80.511719 537.800781 L 93.429688 548.632812 L 108.707031 556.863281 L 125.933594 562.195312 L 144.648438 564.378906 L 164.371094 563.257812 L 184.585938 558.734375 L 204.78125 550.800781 L 224.441406 539.527344 L 243.070312 525.0625 L 260.199219 507.625 L 275.398438 487.511719 L 288.285156 465.074219 L 298.535156 440.722656 L 305.894531 414.910156 L 310.175781 388.128906 L 311.269531 360.882812 L 309.152344 333.699219 L 303.863281 307.09375 L 295.539062 281.578125 L 284.378906 257.632812 L 270.65625 235.695312 L 254.714844 216.171875 L 236.941406 199.394531 L 217.785156 185.640625 L 197.714844 175.117188 L 177.234375 167.953125 L 156.867188 164.195312 L 137.117188 163.816406 L 118.5 166.707031 L 101.488281 172.683594 L 86.535156 181.488281 L 74.035156 192.796875 L 64.339844 206.234375 L 57.726562 221.363281 L 54.414062 237.722656 L 54.539062 254.816406 L 58.160156 272.128906 L 65.253906 289.148438 L 75.722656 305.371094 L 89.394531 320.3125 L 106.015625 333.519531 L 125.265625 344.578125 L 146.777344 353.140625 L 170.117188 358.90625 L 194.820312 361.652344 L 220.386719 361.222656 L 246.300781 357.546875 L 272.042969 350.628906 L 297.097656 340.550781 L 320.96875 327.476562 L 343.1875 311.640625 L 363.332031 293.347656 L 381.023438 272.960938 L 395.949219 250.898438 L 407.867188 227.621094 L 416.597656 203.617188 L 422.042969 179.402344 L 424.1875 155.496094 L 423.09375 132.414062 L 418.902344 110.652344 L 411.828125 90.683594 L 402.152344 72.945312 L 390.21875 57.8125 L 376.4375 45.617188 L 361.25 36.613281 L 345.132812 30.988281 L 328.589844 28.847656 L 312.140625 30.230469 L 296.289062 35.078125 L 281.535156 43.269531 L 268.355469 54.597656 L 257.175781 68.789062 L 248.394531 85.503906 L 242.339844 104.347656 L 239.273438 124.875 L 239.394531 146.613281 L 242.824219 169.058594 L 249.601562 191.6875 L 259.6875 213.988281 L 272.96875 235.453125 L 289.246094 255.597656 L 308.257812 273.972656 L 329.675781 290.175781 L 353.105469 303.859375 L 378.113281 314.734375 L 404.222656 322.589844 L 430.925781 327.28125 L 457.710938 328.742188 L 484.054688 326.996094 L 509.4375 322.136719 L 533.378906 314.335938 L 555.410156 303.835938 L 575.117188 290.953125 L 592.140625 276.054688 L 606.179688 259.566406 L 616.996094 241.953125 L 624.4375 223.699219 L 628.421875 205.320312 L 628.945312 187.328125 L 626.09375 170.238281 L 620.015625 154.53125 L 610.945312 140.675781 L 599.179688 129.085938 L 585.082031 120.128906 L 569.058594 114.113281 L 551.570312 111.277344 L 533.101562 111.785156 L 514.164062 115.734375 L 495.265625 123.125 L 476.921875 133.890625 L 459.632812 147.886719 L 443.859375 164.886719 L 430.035156 184.601562 L 418.539062 206.671875 L 409.6875 230.691406 L 403.742188 256.207031 L 400.882812 282.726562 L 401.21875 309.742188 L 404.777344 336.730469 L 411.503906 363.171875 L 421.273438 388.5625 L 433.875 412.417969 L 449.035156 434.296875 L 466.417969 453.804688 L 485.621094 470.597656 L 506.207031 484.40625 L 527.695312 495.023438 L 549.582031 502.320312 L 571.351562 506.25 L 592.484375 506.839844 L 612.476562 504.199219 L 630.847656 498.519531 L 647.152344 490.050781 L 660.980469 479.117188 L 671.996094 466.101562 L 679.90625 451.433594 L 684.503906 435.578125 L 685.652344 419.035156 L 683.285156 402.308594 L 677.425781 385.917969 L 668.175781 370.367188 L 655.710938 356.136719 L 640.277344 343.683594 L 622.191406 333.410156 L 601.832031 325.671875 L 579.625 320.765625 L 556.035156 318.914062 L 531.5625 320.269531 L 506.71875 324.902344 L 482.03125 332.808594 L 458.003906 343.902344 L 435.140625 358.015625 L 413.90625 374.917969 L 394.71875 394.300781 L 377.957031 415.796875 L 363.929688 438.992188 L 352.886719 463.421875 L 344.996094 488.59375 L 340.359375 513.992188 L 338.988281 539.105469 L 340.820312 563.40625 L 345.710938 586.398438 L 353.453125 607.609375 L 363.753906 626.609375 L 376.269531 643.011719 L 390.59375 656.492188 L 406.285156 666.792969 L 422.859375 673.726562 L 439.816406 677.183594 L 456.636719 677.136719 L 472.816406 673.628906 L 487.851562 666.789062 L 501.273438 656.824219 L 512.648438 644.003906 L 521.582031 628.671875 L 527.75 611.222656 L 530.882812 592.089844 L 530.789062 571.757812 L 527.34375 550.726562 L 520.511719 529.515625 L 510.332031 508.636719 L 496.917969 488.597656 L 480.472656 469.878906 L 461.25 452.925781 L 439.59375 438.148438 L 415.886719 425.886719 L 390.566406 416.425781 L 364.113281 409.980469 L 337.027344 406.6875 L 309.832031 406.613281 L 283.046875 409.734375 L 257.179688 415.953125 L 232.734375 425.101562 L 210.160156 436.925781 L 189.875 451.113281 L 172.242188 467.296875 L 157.566406 485.046875 L 146.074219 503.898438 L 137.929688 523.363281 L 133.203125 542.925781 L 131.90625 562.074219 L 133.953125 580.296875 L 139.191406 597.101562 L 147.386719 612.027344 L 158.242188 624.65625 L 171.398438 634.625 L 186.445312 641.621094 L 202.925781 645.40625 L 220.351562 645.816406 L 238.21875 642.757812 L 256.011719 636.222656 L 273.222656 626.28125 L 289.351562 613.085938 L 303.933594 596.851562 L 316.542969 577.875 L 326.796875 556.511719 L 334.382812 533.167969 L 339.042969 508.300781 L 340.597656 482.398438 L 338.941406 455.96875 L 334.046875 429.53125 L 325.96875 403.613281 L 314.835938 378.714844 L 300.855469 355.3125 L 284.3125 333.855469 L 265.539062 314.738281 L 244.9375 298.296875 L 222.953125 284.804688 L 200.0625 274.464844 L 176.773438 267.410156 L 153.601562 263.679688 L 131.066406 263.25 L 109.671875 266.007812 L 89.902344 271.765625 L 72.207031 280.265625 L 56.988281 291.1875 L 44.589844 304.148438 L 35.296875 318.71875 L 29.324219 334.429688 L 26.8125 350.785156 L 27.816406 367.277344 L 32.316406 383.390625 L 40.21875 398.617188 L 51.34375 412.484375 L 65.445312 424.527344 L 82.203125 434.351562 L 101.246094 441.59375 L 122.144531 445.96875 L 144.433594 447.246094 L 167.617188 445.285156 L 191.183594 440.003906 L 214.609375 431.417969 L 237.386719 419.609375 L 259.011719 404.746094 L 279.03125 387.066406 L 297.015625 366.871094 L 312.59375 344.535156 L 325.457031 320.476562 L 335.363281 295.152344 L 342.136719 269.0625 L 345.683594 242.71875 L 345.992188 216.640625 L 343.128906 191.347656 L 337.230469 167.339844 L 328.519531 145.089844 L 317.28125 125.03125 L 303.863281 107.550781 L 288.667969 92.96875 L 272.148438 81.542969 L 254.78125 73.464844 L 237.074219 68.84375 L 219.535156 67.707031 L 202.683594 70.007812 L 187.015625 75.617188 L 173 84.335938 L 161.074219 95.886719 L 151.628906 109.933594 L 144.988281 126.078125 L 141.421875 143.886719 L 141.125 162.875 L 144.214844 182.546875 L 150.734375 202.386719 L 160.636719 221.875 L 173.8125 240.515625 L 190.058594 257.820312 L 209.109375 273.34375 L 230.640625 286.691406 L 254.253906 297.515625 L 279.511719 305.53125 L 305.941406 310.527344 L 333.039062 312.371094 L 360.28125 310.996094 L 387.148438 306.429688 L 413.125 298.765625 L 437.726562 288.183594 L 460.484375 274.929688 L 480.988281 259.320312 L 498.875 241.734375 L 513.84375 222.59375 L 525.667969 202.359375 L 534.179688 181.535156 L 539.308594 160.625 L 541.050781 140.148438 L 539.484375 120.621094 L 534.769531 102.527344 L 527.132812 86.332031 L 516.875 72.457031 L 504.355469 61.261719 L 489.988281 53.0625 L 474.226562 48.097656 L 457.558594 46.53125 L 440.484375 48.453125 L 423.523438 53.875 L 407.1875 62.722656 L 391.964844 74.855469 L 378.324219 90.042969 L 366.691406 107.996094 L 357.445312 128.363281 L 350.898438 150.730469 L 347.308594 174.648438 L 346.851562 199.628906 L 349.636719 225.15625 L 355.679688 250.714844 L 364.933594 275.789062 L 377.257812 299.867188 L 392.453125 322.476562 L 410.230469 343.167969 L 430.25 361.554688 L 452.117188 377.296875 L 475.378906 390.121094 L 499.558594 399.828125 L 524.152344 406.289062 L 548.636719 409.457031 L 572.492188 409.363281 L 595.214844 406.125 L 616.320312 399.921875 L 635.359375 391.019531 L 651.929688 379.738281 L 665.683594 366.464844 L 676.335938 351.621094 L 683.671875 335.683594 L 687.554688 319.144531 L 687.925781 302.515625 L 684.800781 286.308594 L 678.28125 271.03125 L 668.542969 257.164062 L 655.832031 245.160156 L 640.460938 235.421875 L 622.8125 228.308594 L 603.304688 224.105469 L 582.410156 223.039062 L 560.621094 225.253906 L 538.445312 230.828125 L 516.410156 239.746094 L 495.019531 251.921875 L 474.773438 267.191406 L 456.128906 285.316406 L 439.511719 305.984375 L 425.285156 328.828125 L 413.765625 353.429688 L 405.195312 379.328125 L 399.738281 406.023438 L 397.488281 433.007812 L 398.460938 459.75 L 402.585938 485.738281 L 409.71875 510.472656 L 419.644531 533.476562 L 432.070312 554.320312 L 446.648438 572.613281 L 462.976562 588.039062 L 480.597656 600.332031 L 499.035156 609.3125 L 517.785156 614.863281 L 536.328125 616.957031 L 554.152344 615.640625 L 570.761719 611.046875 L 585.679688 603.371094 L 598.476562 592.894531 L 608.757812 579.949219 L 616.195312 564.933594 L 620.523438 548.285156 L 621.550781 530.480469 L 619.15625 512.019531 L 613.296875 493.414062 L 604.019531 475.183594 L 591.4375 457.832031 L 575.746094 441.832031 L 557.21875 427.632812 L 536.179688 415.628906 L 513.023438 406.167969 L 488.1875 399.53125 L 462.148438 395.925781 L 435.414062 395.484375 L 408.496094 398.269531 L 381.917969 404.257812 L 356.195312 413.347656 L 331.820312 425.363281 L 309.246094 440.046875 L 288.894531 457.089844 L 271.121094 476.109375 L 256.226562 496.679688 L 244.445312 518.339844 L 235.933594 540.585938 L 230.765625 562.90625 L 228.945312 584.789062 L 230.390625 605.714844 L 234.945312 625.195312 L 242.375 642.765625 L 252.386719 658.007812 L 264.613281 670.550781 L 278.648438 680.09375 L 294.035156 686.386719 L 310.285156 689.269531 L 326.894531 688.652344 L 343.347656 684.519531 L 359.136719 676.945312 L 373.769531 666.078125 L 386.777344 652.136719 L 397.738281 635.414062 L 406.277344 616.269531 L 412.074219 595.101562 L 414.878906 572.375 L 414.519531 548.566406 L 410.882812 524.191406 L 403.953125 499.765625 L 393.785156 475.808594 L 380.515625 452.824219 L 364.347656 431.292969 L 345.574219 411.648438 L 324.527344 394.289062 L 301.617188 379.546875 L 277.285156 367.699219 L 252.011719 358.9375 L 226.3125 353.394531 L 200.699219 351.109375 L 175.691406 352.054688 L 151.804688 356.109375 L 129.519531 363.09375 L 109.28125 372.738281 L 91.496094 384.726562 L 76.511719 398.667969 L 64.617188 414.132812 L 56.019531 430.65625 L 50.859375 447.738281 L 49.199219 464.867188 L 51.019531 481.53125 L 56.222656 497.222656 L 64.632812 511.460938 L 76 523.792969 L 90.007812 533.816406 L 106.289062 541.171875 L 124.414062 545.578125 L 143.917969 546.804688 L 164.304688 544.703125 L 185.066406 539.210938 L 205.6875 530.332031 L 225.648438 518.152344 L 244.464844 502.847656 L 261.671875 484.648438 L 276.855469 463.871094 L 289.640625 440.878906 L 299.726562 416.09375 L 306.863281 389.976562 L 310.894531 363.03125 L 311.722656 335.765625 L 309.339844 308.699219 L 303.8125 282.359375 L 295.289062 257.238281 L 283.988281 233.816406 L 270.203125 212.519531 L 254.285156 193.738281 L 236.640625 177.792969 L 217.71875 164.941406 L 198 155.375 L 178 149.199219 L 158.226562 146.445312 L 139.195312 147.0625 L 121.40625 150.925781 L 105.335938 157.832031 L 91.417969 167.507812 L 80.039062 179.613281 L 71.53125 193.753906 L 66.160156 209.496094 L 64.121094 226.355469 L 65.53125 243.835938 L 70.433594 261.425781 L 78.78125 278.613281 L 90.464844 294.886719 L 105.28125 309.777344 L 122.964844 322.839844 L 143.1875 333.675781 L 165.554688 341.945312 L 189.632812 347.367188 L 214.9375 349.734375 L 240.976562 348.914062 L 267.21875 344.847656 L 293.15625 337.558594 L 318.265625 327.15625 L 342.0625 313.8125 L 364.089844 297.785156 L 383.929688 279.390625 L 401.222656 259.011719 L 415.667969 237.070312 L 427.042969 214.039062 L 435.1875 190.410156 L 440.023438 166.703125 L 441.550781 143.4375 L 439.855469 121.125 L 435.089844 100.253906 L 427.492188 81.296875 L 417.359375 64.667969 L 405.050781 50.734375 L 390.980469 39.808594 L 375.605469 32.132812 L 359.410156 27.867188 L 342.898438 27.109375 L 326.589844 29.867188 L 310.988281 36.070312 L 296.59375 45.570312 L 283.859375 58.148438 L 273.21875 73.511719 L 265.046875 91.304688 L 259.652344 111.121094 L 257.292969 132.507812 L 258.140625 154.984375 L 262.300781 178.03125 L 269.789062 201.140625 L 280.554688 223.789062 L 294.457031 245.476562 L 311.285156 265.726562 L 330.761719 284.101562 L 352.53125 300.207031 L 376.203125 313.710938 L 401.324219 324.34375 L 427.410156 331.910156 L 453.953125 336.277344 L 480.433594 337.414062 L 506.335938 335.347656 L 531.144531 330.191406 L 554.375 322.144531 L 575.582031 311.460938 L 594.359375 298.46875 L 610.363281 283.554688 L 623.300781 267.152344 L 632.964844 249.730469 L 639.214844 231.785156 L 641.988281 213.828125 L 641.304688 196.375 L 637.261719 179.933594 L 630.035156 164.984375 L 619.875 151.976562 L 607.09375 141.320312 L 592.066406 133.367188 L 575.214844 128.40625 L 557.003906 126.664062 L 537.929688 128.28125 L 518.5 133.335938 L 499.234375 141.808594 L 480.640625 153.621094 L 463.207031 168.59375 L 447.398438 186.496094 L 433.628906 207.015625 L 422.261719 229.785156 L 413.609375 254.382812 L 407.910156 280.339844 L 405.324219 307.167969 L 405.941406 334.347656 L 409.773438 361.363281 L 416.75 387.6875 L 426.71875 412.824219 L 439.460938 436.304688 L 454.679688 457.6875 L 472.027344 476.597656 L 491.09375 492.707031 L 511.425781 505.757812 L 532.539062 515.5625 L 553.921875 522.015625 L 575.0625 525.082031 L 595.445312 524.820312 L 614.570312 521.347656 L 631.960938 514.878906 L 647.179688 505.679688 L 659.839844 494.089844 L 669.613281 480.507812 L 676.226562 465.367188 L 679.492188 449.144531 L 679.289062 432.34375 L 675.574219 415.472656 L 668.386719 399.050781 L 657.851562 383.570312 L 644.160156 369.515625 L 627.582031 357.324219 L 608.445312 347.398438 L 587.140625 340.070312 L 564.105469 335.621094 L 539.816406 334.261719 L 514.777344 336.117188 L 489.503906 341.25 L 464.519531 349.625 L 440.332031 361.144531 L 417.433594 375.625 L 396.28125 392.8125 L 377.285156 412.382812 L 360.804688 433.960938 L 347.136719 457.117188 L 336.511719 481.378906 L 329.085938 506.253906 L 324.933594 531.21875 L 324.046875 555.753906 L 326.351562 579.351562 L 331.6875 601.511719 L 339.8125 621.773438 L 350.433594 639.71875 L 363.191406 654.972656 L 377.664062 667.230469 L 393.398438 676.246094 L 409.910156 681.855469 L 426.691406 683.96875 L 443.226562 682.574219 L 459.011719 677.742188 L 473.546875 669.617188 L 486.371094 658.421875 L 497.058594 644.449219 L 505.242188 628.046875 L 510.597656 609.628906 L 512.878906 589.644531 L 511.910156 568.578125 L 507.589844 546.933594 L 499.898438 525.238281 L 488.894531 503.996094 L 474.714844 483.71875 L 457.574219 464.871094 L 437.75 447.898438 L 415.59375 433.1875 L 391.503906 421.070312 L 365.933594 411.8125 L 339.363281 405.617188 L 312.300781 402.601562 L 285.269531 402.804688 L 258.789062 406.191406 L 233.371094 412.648438 L 209.496094 421.980469 L 187.617188 433.921875 L 168.132812 448.148438 L 151.398438 464.273438 L 137.695312 481.859375 L 127.234375 500.441406 L 120.160156 519.515625 L 116.527344 538.566406 L 116.324219 557.085938 L 119.445312 574.5625 L 125.71875 590.515625 L 134.894531 604.492188 L 146.664062 616.085938 L 160.644531 624.945312 L 176.421875 630.773438 L 193.527344 633.355469 L 211.464844 632.542969 L 229.730469 628.261719 L 247.804688 620.527344 L 265.183594 609.425781 L 281.371094 595.125 L 295.914062 577.867188 L 308.394531 557.957031 L 318.449219 535.765625 L 325.773438 511.71875 L 330.128906 486.273438 L 331.351562 459.929688 L 329.355469 433.199219 L 324.136719 406.601562 L 315.761719 380.660156 L 304.386719 355.875 L 290.234375 332.710938 L 273.597656 311.609375 L 254.828125 292.945312 L 234.34375 277.046875 L 212.589844 264.167969 L 190.058594 254.496094 L 167.257812 248.136719 L 144.707031 245.121094 L 122.917969 245.398438 L 102.390625 248.839844 L 83.609375 255.242188 L 67.003906 264.324219 L 52.964844 275.753906 L 41.824219 289.136719 L 33.847656 304.035156 L 29.234375 319.964844 L 28.097656 336.433594 L 30.484375 352.925781 L 36.347656 368.929688 L 45.574219 383.941406 L 57.964844 397.492188 L 73.257812 409.132812 L 91.117188 418.472656 L 111.160156 425.171875 L 132.945312 428.949219 L 155.996094 429.605469 L 179.8125 427.007812 L 203.875 421.105469 L 227.667969 411.917969 L 250.679688 399.5625 L 272.421875 384.210938 L 292.441406 366.125 L 310.324219 345.628906 L 325.710938 323.097656 L 338.308594 298.964844 L 347.890625 273.699219 L 354.300781 247.800781 L 357.46875 221.789062 L 357.394531 196.183594 L 354.164062 171.5 L 347.941406 148.230469 L 338.957031 126.839844 L 327.515625 107.75 L 313.976562 91.332031 L 298.761719 77.894531 L 282.320312 67.675781 L 265.144531 60.84375 L 247.738281 57.496094 L 230.617188 57.636719 L 214.296875 61.199219 L 199.261719 68.035156 L 185.980469 77.925781 L 174.875 90.578125 L 166.320312 105.640625 L 160.632812 122.707031 L 158.0625 141.328125 L 158.78125 161.015625 L 162.890625 181.265625 L 170.410156 201.558594 L 181.28125 221.382812 L 195.367188 240.238281 L 212.453125 257.652344 L 232.253906 273.191406 L 254.425781 286.460938 L 278.566406 297.132812 L 304.226562 304.941406 L 330.917969 309.695312 L 358.132812 311.269531 L 385.355469 309.628906 L 412.058594 304.8125 L 437.738281 296.933594 L 461.90625 286.195312 L 484.113281 272.851562 L 503.957031 257.242188 L 521.089844 239.75 L 535.226562 220.808594 L 546.15625 200.898438 L 553.734375 180.511719 L 557.90625 160.167969 L 558.691406 140.378906 L 556.183594 121.652344 L 550.5625 104.480469 L 542.078125 89.304688 L 531.039062 76.535156 L 517.820312 66.527344 L 502.847656 59.574219 L 486.585938 55.890625 L 469.523438 55.632812 L 452.171875 58.867188 L 435.042969 65.578125 L 418.652344 75.6875 L 403.476562 89.015625 L 389.984375 105.332031 L 378.582031 124.320312 L 369.636719 145.621094 L 363.453125 168.800781 L 360.261719 193.40625 L 360.230469 218.941406 L 363.4375 244.886719 L 369.890625 270.726562 L 379.515625 295.941406 L 392.164062 320.03125 L 407.605469 342.527344 L 425.546875 362.996094 L 445.625 381.054688 L 467.4375 396.386719 L 490.527344 408.730469 L 514.402344 417.90625 L 538.554688 423.804688 L 562.464844 426.398438 L 585.617188 425.738281 L 607.507812 421.957031 L 627.664062 415.257812 L 645.640625 405.914062 L 661.058594 394.269531 L 673.574219 380.71875 L 682.929688 365.695312 L 688.925781 349.683594 L 691.441406 333.179688 Z M 693.332031 360 " style=";stroke:#436EEE73;stroke-width:0.4;NA"/>
    <animateTransform attributeType="xml" attributeName="transform" type="rotate" from="0 360 360" to="360 360 360" dur="480s" additive="sum" repeatCount="indefinite" begin="second_event_horizon_start.click" end="second_event_horizon_stop.click"/>
  </g>
  <g>
    <circle cx="360" cy="360" r="45.72" stroke="NA" stroke-width="1" fill="#282829"/>
  </g>
</svg>
