<?xml version="1.0" encoding="UTF-8"?>
<svg xmlns="http://www.w3.org/2000/svg" xmlns:xlink="http://www.w3.org/1999/xlink" width="100%" height="100%" viewBox="0 0 720 720" id="spiro022.svg">
  <g xmlns="http://www.w3.org/2000/svg" gspiro="path" id="spiro_5_3_10.1538461538462_60380">
    <path fill-rule="evenodd" fill="rgb(25.098039%, 27.058824%, 53.333333%)" fill-opacity="0.14902" d="M 677.226562 462.367188 L 666.511719 485.046875 L 649.773438 505.578125 L 627.277344 523.84375 L 599.414062 539.753906 L 566.710938 553.25 L 529.796875 564.296875 L 489.410156 572.863281 L 446.367188 578.945312 L 401.546875 582.535156 L 355.871094 583.625 L 310.285156 582.21875 L 265.730469 578.308594 L 223.125 571.902344 L 183.332031 562.996094 L 147.160156 551.605469 L 115.320312 537.75 L 88.429688 521.472656 L 66.980469 502.832031 L 51.347656 481.921875 L 41.765625 458.871094 L 38.332031 433.847656 L 41.019531 407.066406 L 49.652344 378.789062 L 63.945312 349.332031 L 83.480469 319.058594 L 107.753906 288.378906 L 136.167969 257.757812 L 168.054688 227.691406 L 202.699219 198.703125 L 239.351562 171.34375 L 277.246094 146.167969 L 315.625 123.730469 L 353.753906 104.566406 L 390.9375 89.175781 L 426.53125 78.007812 L 459.957031 71.453125 L 490.710938 69.820312 L 518.371094 73.335938 L 542.601562 82.121094 L 563.152344 96.191406 L 579.855469 115.441406 L 592.636719 139.65625 L 601.488281 168.503906 L 606.480469 201.527344 L 607.734375 238.179688 L 605.433594 277.804688 L 599.796875 319.664062 L 591.078125 362.949219 L 579.550781 406.808594 L 565.5 450.351562 L 549.214844 492.675781 L 530.988281 532.894531 L 511.09375 570.152344 L 489.800781 603.648438 L 467.359375 632.652344 L 444.003906 656.53125 L 419.960938 674.761719 L 395.4375 686.941406 L 370.628906 692.792969 L 345.734375 692.199219 L 320.9375 685.164062 L 296.441406 671.847656 L 272.441406 652.546875 L 249.148438 627.691406 L 226.796875 597.824219 L 205.625 563.601562 L 185.890625 525.765625 L 167.863281 485.125 L 151.832031 442.550781 L 138.085938 398.929688 L 126.921875 355.15625 L 118.625 312.121094 L 113.46875 270.667969 L 111.707031 231.589844 L 113.550781 195.605469 L 119.175781 163.351562 L 128.695312 135.363281 L 142.171875 112.0625 L 159.582031 93.761719 L 180.832031 80.660156 L 205.738281 72.832031 L 234.035156 70.246094 L 265.371094 72.757812 L 299.304688 80.125 L 335.3125 92.027344 L 372.804688 108.058594 L 411.121094 127.765625 L 449.554688 150.636719 L 487.363281 176.140625 L 523.785156 203.726562 L 558.054688 232.835938 L 589.425781 262.929688 L 617.1875 293.488281 L 640.679688 324.027344 L 659.328125 354.09375 L 672.632812 383.289062 L 680.210938 411.261719 L 681.789062 437.703125 Z M 677.226562 462.367188 "/>
  </g>
</svg>
