<?xml version="1.0" encoding="UTF-8"?>
<svg xmlns="http://www.w3.org/2000/svg" xmlns:xlink="http://www.w3.org/1999/xlink" width="100%" height="100%" viewBox="0 0 720 720" id="spiro029.svg">
  <g xmlns="http://www.w3.org/2000/svg" gspiro="path" id="spiro_5_3_8.53846153846154_12025">
    <path fill-rule="evenodd" fill="rgb(16.862745%, 45.490196%, 55.686275%)" fill-opacity="0.14902" d="M 683.648438 439.773438 L 675.109375 460.550781 L 660.238281 479.644531 L 639.277344 496.992188 L 612.621094 512.542969 L 580.800781 526.269531 L 544.464844 538.152344 L 504.375 548.15625 L 461.375 556.261719 L 416.382812 562.425781 L 370.359375 566.59375 L 324.285156 568.703125 L 279.136719 568.667969 L 235.867188 566.410156 L 195.375 561.828125 L 158.488281 554.832031 L 125.9375 545.339844 L 98.355469 533.289062 L 76.234375 518.628906 L 59.945312 501.363281 L 49.722656 481.53125 L 45.644531 459.214844 L 47.660156 434.574219 L 55.582031 407.820312 L 69.09375 379.226562 L 87.757812 349.152344 L 111.050781 318.007812 L 138.351562 286.269531 L 168.984375 254.46875 L 202.222656 223.191406 L 237.316406 193.042969 L 273.515625 164.660156 L 310.074219 138.679688 L 346.28125 115.730469 L 381.480469 96.40625 L 415.070312 81.261719 L 446.511719 70.773438 L 475.363281 65.351562 L 501.257812 65.304688 L 523.917969 70.820312 L 543.152344 81.988281 L 558.855469 98.753906 L 570.996094 120.9375 L 579.617188 148.230469 L 584.820312 180.195312 L 586.757812 216.269531 L 585.625 255.785156 L 581.644531 297.980469 L 575.050781 342.007812 L 566.089844 386.960938 L 555.015625 431.902344 L 542.054688 475.871094 L 527.433594 517.917969 L 511.351562 557.128906 L 493.992188 592.648438 L 475.507812 623.691406 L 456.046875 649.574219 L 435.730469 669.734375 L 414.671875 683.734375 L 392.976562 691.285156 L 370.753906 692.230469 L 348.125 686.585938 L 325.222656 674.507812 L 302.191406 656.300781 L 279.222656 632.402344 L 256.523438 603.382812 L 234.335938 569.917969 L 212.9375 532.769531 L 192.640625 492.773438 L 173.78125 450.820312 L 156.714844 407.816406 L 141.820312 364.671875 L 129.472656 322.28125 L 120.050781 281.488281 L 113.902344 243.085938 L 111.351562 207.78125 L 112.675781 176.1875 L 118.09375 148.816406 L 127.761719 126.058594 L 141.738281 108.199219 L 160.011719 95.386719 L 182.457031 87.667969 L 208.855469 84.96875 L 238.882812 87.113281 L 272.113281 93.835938 L 308.027344 104.785156 L 346.007812 119.546875 L 385.371094 137.652344 L 425.363281 158.605469 L 465.183594 181.882812 L 503.996094 206.964844 L 540.972656 233.328125 L 575.28125 260.488281 L 606.128906 287.980469 L 632.78125 315.386719 L 654.574219 342.328125 L 670.949219 368.488281 L 681.449219 393.585938 L 685.746094 417.40625 Z M 683.648438 439.773438 "/>
  </g>
</svg>
