<?xml version="1.0" encoding="UTF-8"?>
<svg xmlns="http://www.w3.org/2000/svg" xmlns:xlink="http://www.w3.org/1999/xlink" width="100%" height="100%" viewBox="0 0 720 720" id="spiro015.svg">
  <g xmlns="http://www.w3.org/2000/svg" gspiro="path" id="spiro_5_3_11.7692307692308_54490">
    <path fill-rule="evenodd" fill="rgb(27.45098%, 4.313725%, 36.470588%)" fill-opacity="0.14902" d="M 669.230469 484.453125 L 656.246094 508.230469 L 637.542969 529.4375 L 613.402344 547.914062 L 584.230469 563.550781 L 550.550781 576.273438 L 512.984375 586.039062 L 472.257812 592.832031 L 429.15625 596.671875 L 384.535156 597.585938 L 339.292969 595.621094 L 294.335938 590.832031 L 250.570312 583.292969 L 208.878906 573.078125 L 170.105469 560.273438 L 135.023438 544.984375 L 104.320312 527.320312 L 78.59375 507.410156 L 58.328125 485.402344 L 43.882812 461.472656 L 35.488281 435.816406 L 33.25 408.671875 L 37.132812 380.296875 L 46.972656 351 L 62.488281 321.117188 L 83.277344 291.015625 L 108.835938 261.109375 L 138.578125 231.832031 L 171.839844 203.648438 L 207.898438 177.039062 L 246.007812 152.484375 L 285.386719 130.480469 L 325.261719 111.496094 L 364.882812 95.988281 L 403.527344 84.363281 L 440.515625 76.984375 L 475.238281 74.164062 L 507.152344 76.121094 L 535.796875 83.003906 L 560.792969 94.871094 L 581.859375 111.667969 L 598.789062 133.253906 L 611.46875 159.371094 L 619.875 189.65625 L 624.050781 223.65625 L 624.113281 260.808594 L 620.242188 300.476562 L 612.667969 341.941406 L 601.664062 384.433594 L 587.535156 427.132812 L 570.601562 469.199219 L 551.214844 509.785156 L 529.714844 548.054688 L 506.453125 583.207031 L 481.765625 614.496094 L 455.984375 641.246094 L 429.421875 662.871094 L 402.378906 678.894531 L 375.140625 688.941406 L 347.980469 692.785156 L 321.152344 690.308594 L 294.902344 681.546875 L 269.476562 666.671875 L 245.101562 645.972656 L 222.015625 619.886719 L 200.449219 588.941406 L 180.632812 553.789062 L 162.804688 515.15625 L 147.195312 473.84375 L 134.039062 430.695312 L 123.5625 386.589844 L 115.988281 342.417969 L 111.527344 299.050781 L 110.355469 257.332031 L 112.640625 218.058594 L 118.496094 181.949219 L 128.007812 149.648438 L 141.207031 121.703125 L 158.0625 98.550781 L 178.480469 80.523438 L 202.304688 67.835938 L 229.300781 60.585938 L 259.164062 58.753906 L 291.507812 62.214844 L 325.886719 70.742188 L 361.78125 84.015625 L 398.613281 101.644531 L 435.757812 123.15625 L 472.542969 148.035156 L 508.285156 175.726562 L 542.277344 205.648438 L 573.824219 237.214844 L 602.25 269.84375 L 626.914062 302.957031 L 647.242188 336.023438 L 662.722656 368.527344 L 672.929688 400.011719 L 677.539062 430.0625 L 676.335938 458.3125 Z M 669.230469 484.453125 "/>
  </g>
</svg>
