<?xml version="1.0" encoding="UTF-8"?>
<svg xmlns="http://www.w3.org/2000/svg" xmlns:xlink="http://www.w3.org/1999/xlink" width="100%" height="100%" viewBox="0 0 720 720" id="spiro007.svg">
  <g xmlns="http://www.w3.org/2000/svg" gspiro="path" id="spiro_5_3_2.65714285714286_92687">
    <path fill="none" stroke-width="0.375" stroke-linecap="round" stroke-linejoin="round" stroke="rgb(35.686275%, 47.45098%, 63.137255%)" stroke-opacity="0.4" stroke-miterlimit="10" d="M 360 49.523438 L 358.566406 50.472656 L 357.203125 53.320312 L 355.976562 58.039062 L 354.953125 64.601562 L 354.191406 72.957031 L 353.757812 83.046875 L 353.707031 94.800781 L 354.089844 108.136719 L 354.953125 122.957031 L 356.335938 139.160156 L 358.269531 156.628906 L 360.785156 175.246094 L 363.902344 194.875 L 367.628906 215.386719 L 371.964844 236.636719 L 376.914062 258.476562 L 382.457031 280.757812 L 388.574219 303.328125 L 395.234375 326.035156 L 402.402344 348.726562 L 410.03125 371.253906 L 418.066406 393.464844 L 426.449219 415.214844 L 435.109375 436.371094 L 443.980469 456.789062 L 452.976562 476.347656 L 462.023438 494.925781 L 471.027344 512.414062 L 479.898438 528.707031 L 488.550781 543.714844 L 496.886719 557.355469 L 504.808594 569.558594 L 512.230469 580.269531 L 519.054688 589.4375 L 525.191406 597.027344 L 530.554688 603.019531 L 535.0625 607.402344 L 538.636719 610.179688 L 541.207031 611.363281 L 542.703125 610.980469 L 543.074219 609.066406 L 542.265625 605.671875 L 540.238281 600.851562 L 536.957031 594.675781 L 532.40625 587.21875 L 526.566406 578.570312 L 519.441406 568.816406 L 511.042969 558.0625 L 501.382812 546.410156 L 490.5 533.964844 L 478.433594 520.839844 L 465.234375 507.15625 L 450.964844 493.023438 L 435.703125 478.5625 L 419.527344 463.890625 L 402.53125 449.121094 L 384.8125 434.367188 L 366.484375 419.734375 L 347.660156 405.332031 L 328.457031 391.261719 L 309.007812 377.613281 L 289.4375 364.476562 L 269.882812 351.929688 L 250.484375 340.042969 L 231.375 328.886719 L 212.695312 318.515625 L 194.585938 308.96875 L 177.171875 300.289062 L 160.59375 292.503906 L 144.976562 285.632812 L 130.441406 279.679688 L 117.105469 274.644531 L 105.078125 270.523438 L 94.457031 267.296875 L 85.335938 264.933594 L 77.796875 263.402344 L 71.910156 262.660156 L 67.730469 262.65625 L 65.3125 263.34375 L 64.6875 264.652344 L 65.875 266.523438 L 68.890625 268.890625 L 73.730469 271.675781 L 80.371094 274.808594 L 88.789062 278.210938 L 98.9375 281.808594 L 110.765625 285.53125 L 124.199219 289.296875 L 139.160156 293.039062 L 155.558594 296.683594 L 173.296875 300.171875 L 192.253906 303.433594 L 212.3125 306.421875 L 233.34375 309.078125 L 255.210938 311.363281 L 277.769531 313.238281 L 300.871094 314.671875 L 324.367188 315.640625 L 348.09375 316.128906 L 371.90625 316.128906 L 395.632812 315.640625 L 419.128906 314.671875 L 442.230469 313.238281 L 464.789062 311.363281 L 486.65625 309.078125 L 507.6875 306.421875 L 527.746094 303.433594 L 546.703125 300.171875 L 564.441406 296.683594 L 580.839844 293.039062 L 595.800781 289.296875 L 609.234375 285.53125 L 621.0625 281.808594 L 631.210938 278.210938 L 639.628906 274.808594 L 646.269531 271.675781 L 651.109375 268.890625 L 654.125 266.523438 L 655.3125 264.652344 L 654.6875 263.34375 L 652.269531 262.65625 L 648.089844 262.660156 L 642.203125 263.402344 L 634.664062 264.933594 L 625.542969 267.296875 L 614.921875 270.523438 L 602.894531 274.644531 L 589.558594 279.679688 L 575.023438 285.632812 L 559.40625 292.503906 L 542.828125 300.289062 L 525.414062 308.96875 L 507.304688 318.515625 L 488.625 328.886719 L 469.515625 340.042969 L 450.117188 351.929688 L 430.5625 364.476562 L 410.992188 377.613281 L 391.542969 391.261719 L 372.339844 405.332031 L 353.515625 419.734375 L 335.1875 434.367188 L 317.46875 449.121094 L 300.472656 463.890625 L 284.296875 478.5625 L 269.035156 493.023438 L 254.765625 507.15625 L 241.566406 520.839844 L 229.5 533.964844 L 218.617188 546.410156 L 208.957031 558.0625 L 200.558594 568.816406 L 193.433594 578.570312 L 187.59375 587.21875 L 183.042969 594.675781 L 179.761719 600.851562 L 177.734375 605.671875 L 176.925781 609.066406 L 177.296875 610.980469 L 178.792969 611.363281 L 181.363281 610.179688 L 184.9375 607.402344 L 189.445312 603.019531 L 194.808594 597.027344 L 200.945312 589.4375 L 207.769531 580.269531 L 215.191406 569.558594 L 223.113281 557.355469 L 231.449219 543.714844 L 240.101562 528.707031 L 248.972656 512.414062 L 257.976562 494.925781 L 267.023438 476.347656 L 276.019531 456.789062 L 284.890625 436.371094 L 293.550781 415.214844 L 301.933594 393.464844 L 309.96875 371.253906 L 317.597656 348.726562 L 324.765625 326.035156 L 331.425781 303.328125 L 337.542969 280.757812 L 343.085938 258.476562 L 348.035156 236.636719 L 352.371094 215.386719 L 356.097656 194.875 L 359.214844 175.246094 L 361.730469 156.628906 L 363.664062 139.160156 L 365.046875 122.957031 L 365.910156 108.136719 L 366.292969 94.800781 L 366.242188 83.046875 L 365.808594 72.957031 L 365.046875 64.601562 L 364.023438 58.039062 L 362.796875 53.320312 L 361.433594 50.472656 L 360 49.523438 "/>
  </g>
</svg>
