<?xml version="1.0" encoding="UTF-8"?>
<svg xmlns="http://www.w3.org/2000/svg" xmlns:xlink="http://www.w3.org/1999/xlink" width="100%" height="100%" viewBox="0 0 720 720" id="spiro013.svg">
  <g xmlns="http://www.w3.org/2000/svg" gspiro="path" id="spiro_5_3_2.31428571428571_27940">
    <path fill="none" stroke-width="0.375" stroke-linecap="round" stroke-linejoin="round" stroke="rgb(31.372549%, 48.235294%, 62.352941%)" stroke-opacity="0.4" stroke-miterlimit="10" d="M 360 72.382812 L 357.125 73.285156 L 354.324219 75.996094 L 351.671875 80.488281 L 349.238281 86.734375 L 347.09375 94.683594 L 345.304688 104.28125 L 343.929688 115.460938 L 343.027344 128.136719 L 342.652344 142.21875 L 342.839844 157.609375 L 343.640625 174.191406 L 345.078125 191.847656 L 347.175781 210.453125 L 349.953125 229.878906 L 353.410156 249.984375 L 357.554688 270.625 L 362.367188 291.660156 L 367.839844 312.941406 L 373.933594 334.320312 L 380.621094 355.652344 L 387.855469 376.789062 L 395.585938 397.589844 L 403.75 417.917969 L 412.289062 437.632812 L 421.121094 456.609375 L 430.179688 474.726562 L 439.371094 491.867188 L 448.613281 507.929688 L 457.8125 522.820312 L 466.878906 536.445312 L 475.714844 548.734375 L 484.226562 559.617188 L 492.316406 569.050781 L 499.886719 576.980469 L 506.847656 583.386719 L 513.109375 588.25 L 518.585938 591.5625 L 523.191406 593.332031 L 526.855469 593.574219 L 529.503906 592.320312 L 531.078125 589.609375 L 531.519531 585.496094 L 530.785156 580.039062 L 528.839844 573.308594 L 525.652344 565.382812 L 521.203125 556.351562 L 515.492188 546.304688 L 508.519531 535.34375 L 500.300781 523.578125 L 490.859375 511.109375 L 480.234375 498.054688 L 468.46875 484.527344 L 455.621094 470.648438 L 441.761719 456.523438 L 426.964844 442.277344 L 411.320312 428.019531 L 394.917969 413.863281 L 377.859375 399.910156 L 360.261719 386.265625 L 342.238281 373.027344 L 323.910156 360.285156 L 305.40625 348.121094 L 286.855469 336.617188 L 268.386719 325.832031 L 250.140625 315.835938 L 232.246094 306.671875 L 214.84375 298.382812 L 198.058594 291.003906 L 182.023438 284.554688 L 166.863281 279.050781 L 152.703125 274.492188 L 139.648438 270.875 L 127.8125 268.183594 L 117.296875 266.394531 L 108.1875 265.472656 L 100.570312 265.382812 L 94.507812 266.074219 L 90.070312 267.492188 L 87.300781 269.578125 L 86.238281 272.261719 L 86.90625 275.480469 L 89.316406 279.152344 L 93.464844 283.207031 L 99.339844 287.5625 L 106.914062 292.136719 L 116.148438 296.851562 L 126.988281 301.628906 L 139.375 306.386719 L 153.230469 311.050781 L 168.464844 315.550781 L 184.984375 319.8125 L 202.679688 323.777344 L 221.433594 327.378906 L 241.121094 330.570312 L 261.617188 333.304688 L 282.777344 335.539062 L 304.464844 337.246094 L 326.527344 338.394531 L 348.816406 338.976562 L 371.183594 338.976562 L 393.472656 338.394531 L 415.535156 337.246094 L 437.222656 335.539062 L 458.382812 333.304688 L 478.878906 330.570312 L 498.566406 327.378906 L 517.320312 323.777344 L 535.015625 319.8125 L 551.535156 315.550781 L 566.769531 311.050781 L 580.625 306.386719 L 593.011719 301.628906 L 603.851562 296.851562 L 613.085938 292.136719 L 620.660156 287.5625 L 626.535156 283.207031 L 630.683594 279.152344 L 633.09375 275.480469 L 633.761719 272.261719 L 632.699219 269.578125 L 629.929688 267.492188 L 625.492188 266.074219 L 619.429688 265.382812 L 611.8125 265.472656 L 602.703125 266.394531 L 592.1875 268.183594 L 580.351562 270.875 L 567.296875 274.492188 L 553.136719 279.050781 L 537.976562 284.554688 L 521.941406 291.003906 L 505.15625 298.382812 L 487.753906 306.671875 L 469.859375 315.835938 L 451.613281 325.832031 L 433.144531 336.617188 L 414.59375 348.121094 L 396.089844 360.285156 L 377.761719 373.027344 L 359.738281 386.265625 L 342.140625 399.910156 L 325.082031 413.863281 L 308.679688 428.019531 L 293.035156 442.277344 L 278.238281 456.523438 L 264.378906 470.648438 L 251.53125 484.527344 L 239.765625 498.054688 L 229.140625 511.109375 L 219.699219 523.578125 L 211.480469 535.34375 L 204.507812 546.304688 L 198.796875 556.351562 L 194.347656 565.382812 L 191.160156 573.308594 L 189.214844 580.039062 L 188.480469 585.496094 L 188.921875 589.609375 L 190.496094 592.320312 L 193.144531 593.574219 L 196.808594 593.332031 L 201.414062 591.5625 L 206.890625 588.25 L 213.152344 583.386719 L 220.113281 576.980469 L 227.683594 569.050781 L 235.773438 559.617188 L 244.285156 548.734375 L 253.121094 536.445312 L 262.1875 522.820312 L 271.386719 507.929688 L 280.628906 491.867188 L 289.820312 474.726562 L 298.878906 456.609375 L 307.710938 437.632812 L 316.25 417.917969 L 324.414062 397.589844 L 332.144531 376.789062 L 339.378906 355.652344 L 346.066406 334.320312 L 352.160156 312.941406 L 357.632812 291.660156 L 362.445312 270.625 L 366.589844 249.984375 L 370.046875 229.878906 L 372.824219 210.453125 L 374.921875 191.847656 L 376.359375 174.191406 L 377.160156 157.609375 L 377.347656 142.21875 L 376.972656 128.136719 L 376.070312 115.460938 L 374.695312 104.28125 L 372.90625 94.683594 L 370.761719 86.734375 L 368.328125 80.488281 L 365.675781 75.996094 L 362.875 73.285156 L 360 72.382812 "/>
  </g>
</svg>
