<?xml version="1.0" encoding="UTF-8"?>
<svg xmlns="http://www.w3.org/2000/svg" xmlns:xlink="http://www.w3.org/1999/xlink" width="100%" height="100%" viewBox="0 0 720 720" id="spiro002.svg">
  <g xmlns="http://www.w3.org/2000/svg" gspiro="path" id="spiro_5_3_2.94285714285714_98269">
    <path fill="none" stroke-width="0.375" stroke-linecap="round" stroke-linejoin="round" stroke="rgb(46.27451%, 44.705882%, 63.921569%)" stroke-opacity="0.4" stroke-miterlimit="10" d="M 360 30.476562 L 359.769531 31.464844 L 359.605469 34.425781 L 359.5625 39.332031 L 359.710938 46.15625 L 360.109375 54.851562 L 360.804688 65.351562 L 361.855469 77.585938 L 363.308594 91.46875 L 365.203125 106.902344 L 367.578125 123.785156 L 370.464844 141.996094 L 373.878906 161.410156 L 377.839844 181.894531 L 382.355469 203.3125 L 387.429688 225.511719 L 393.046875 248.351562 L 399.199219 271.667969 L 405.855469 295.316406 L 412.988281 319.128906 L 420.554688 342.953125 L 428.511719 366.636719 L 436.800781 390.023438 L 445.363281 412.964844 L 454.128906 435.316406 L 463.027344 456.9375 L 471.976562 477.699219 L 480.898438 497.472656 L 489.703125 516.148438 L 498.304688 533.613281 L 506.609375 549.769531 L 514.527344 564.539062 L 521.960938 577.84375 L 528.824219 589.617188 L 535.023438 599.8125 L 540.476562 608.394531 L 545.089844 615.328125 L 548.792969 620.601562 L 551.507812 624.21875 L 553.164062 626.1875 L 553.703125 626.53125 L 553.070312 625.28125 L 551.21875 622.484375 L 548.113281 618.195312 L 543.722656 612.480469 L 538.03125 605.417969 L 531.035156 597.085938 L 522.734375 587.578125 L 513.140625 576.996094 L 502.285156 565.433594 L 490.199219 553.007812 L 476.929688 539.828125 L 462.535156 526.011719 L 447.082031 511.671875 L 430.652344 496.929688 L 413.328125 481.902344 L 395.207031 466.703125 L 376.394531 451.453125 L 357.003906 436.253906 L 337.15625 421.222656 L 316.972656 406.457031 L 296.585938 392.050781 L 276.128906 378.101562 L 255.742188 364.6875 L 235.566406 351.886719 L 215.738281 339.765625 L 196.40625 328.382812 L 177.703125 317.789062 L 159.765625 308.027344 L 142.734375 299.128906 L 126.734375 291.117188 L 111.890625 284 L 98.320312 277.789062 L 86.128906 272.476562 L 75.425781 268.046875 L 66.292969 264.480469 L 58.820312 261.75 L 53.074219 259.8125 L 49.113281 258.628906 L 46.988281 258.148438 L 46.726562 258.3125 L 48.351562 259.0625 L 51.871094 260.335938 L 57.285156 262.066406 L 64.566406 264.179688 L 73.683594 266.605469 L 84.597656 269.273438 L 97.242188 272.117188 L 111.550781 275.054688 L 127.4375 278.027344 L 144.808594 280.960938 L 163.554688 283.800781 L 183.566406 286.484375 L 204.710938 288.957031 L 226.859375 291.167969 L 249.871094 293.082031 L 273.59375 294.65625 L 297.875 295.863281 L 322.5625 296.679688 L 347.496094 297.089844 L 372.503906 297.089844 L 397.4375 296.679688 L 422.125 295.863281 L 446.40625 294.65625 L 470.128906 293.082031 L 493.140625 291.167969 L 515.289062 288.957031 L 536.433594 286.484375 L 556.445312 283.800781 L 575.191406 280.960938 L 592.5625 278.027344 L 608.449219 275.054688 L 622.757812 272.117188 L 635.402344 269.273438 L 646.316406 266.605469 L 655.433594 264.179688 L 662.714844 262.066406 L 668.128906 260.335938 L 671.648438 259.0625 L 673.273438 258.3125 L 673.011719 258.148438 L 670.886719 258.628906 L 666.925781 259.8125 L 661.179688 261.75 L 653.707031 264.480469 L 644.574219 268.046875 L 633.871094 272.476562 L 621.679688 277.789062 L 608.109375 284 L 593.265625 291.117188 L 577.265625 299.128906 L 560.234375 308.027344 L 542.296875 317.789062 L 523.59375 328.382812 L 504.261719 339.765625 L 484.433594 351.886719 L 464.257812 364.6875 L 443.871094 378.101562 L 423.414062 392.050781 L 403.027344 406.457031 L 382.84375 421.222656 L 362.996094 436.253906 L 343.605469 451.453125 L 324.792969 466.703125 L 306.671875 481.902344 L 289.347656 496.929688 L 272.917969 511.671875 L 257.464844 526.011719 L 243.070312 539.828125 L 229.800781 553.007812 L 217.714844 565.433594 L 206.859375 576.996094 L 197.265625 587.578125 L 188.964844 597.085938 L 181.96875 605.417969 L 176.277344 612.480469 L 171.886719 618.195312 L 168.78125 622.484375 L 166.929688 625.28125 L 166.296875 626.53125 L 166.835938 626.1875 L 168.492188 624.21875 L 171.207031 620.601562 L 174.910156 615.328125 L 179.523438 608.394531 L 184.976562 599.8125 L 191.175781 589.617188 L 198.039062 577.84375 L 205.472656 564.539062 L 213.390625 549.769531 L 221.695312 533.613281 L 230.296875 516.148438 L 239.101562 497.472656 L 248.023438 477.699219 L 256.972656 456.9375 L 265.871094 435.316406 L 274.636719 412.964844 L 283.199219 390.023438 L 291.488281 366.636719 L 299.445312 342.953125 L 307.011719 319.128906 L 314.144531 295.316406 L 320.800781 271.667969 L 326.953125 248.351562 L 332.570312 225.511719 L 337.644531 203.3125 L 342.160156 181.894531 L 346.121094 161.410156 L 349.535156 141.996094 L 352.421875 123.785156 L 354.796875 106.902344 L 356.691406 91.46875 L 358.144531 77.585938 L 359.195312 65.351562 L 359.890625 54.851562 L 360.289062 46.15625 L 360.4375 39.332031 L 360.394531 34.425781 L 360.230469 31.464844 L 360 30.476562 "/>
  </g>
</svg>
