<?xml version="1.0" encoding="UTF-8"?>
<svg xmlns="http://www.w3.org/2000/svg" xmlns:xlink="http://www.w3.org/1999/xlink" width="100%" height="100%" viewBox="0 0 720 720" version="1.1">
  <g id="spiro_6_1_1_14783">
    <path style=" stroke:none;fill-rule:evenodd;fill:rgb(45.098039%,0%,100%);fill-opacity:0.501961;" d="M 693.332031 360 L 693.300781 360 L 693.203125 359.996094 L 693.035156 359.992188 L 692.804688 359.980469 L 692.511719 359.964844 L 692.148438 359.941406 L 691.722656 359.90625 L 691.234375 359.859375 L 690.679688 359.800781 L 690.058594 359.726563 L 689.378906 359.632813 L 688.632813 359.527344 L 687.828125 359.398438 L 686.960938 359.25 L 686.03125 359.078125 L 685.042969 358.882813 L 683.996094 358.660156 L 682.890625 358.414063 L 681.726563 358.140625 L 680.507813 357.832031 L 679.234375 357.496094 L 677.90625 357.128906 L 676.523438 356.726563 L 675.089844 356.289063 L 673.605469 355.816406 L 672.070313 355.308594 L 670.488281 354.757813 L 668.855469 354.171875 L 667.179688 353.542969 L 665.460938 352.875 L 663.695313 352.164063 L 661.890625 351.40625 L 660.046875 350.609375 L 658.164063 349.761719 L 656.242188 348.875 L 654.285156 347.9375 L 652.292969 346.953125 L 650.273438 345.921875 L 648.21875 344.839844 L 646.132813 343.710938 L 644.023438 342.53125 L 641.886719 341.300781 L 639.726563 340.023438 L 637.542969 338.691406 L 635.339844 337.3125 L 633.117188 335.878906 L 630.875 334.394531 L 628.621094 332.859375 L 626.351563 331.273438 L 624.066406 329.632813 L 621.777344 327.945313 L 619.476563 326.203125 L 617.167969 324.410156 L 614.855469 322.566406 L 612.539063 320.671875 L 610.21875 318.726563 L 607.902344 316.730469 L 605.585938 314.6875 L 603.273438 312.59375 L 600.964844 310.449219 L 598.664063 308.257813 L 596.371094 306.019531 L 594.089844 303.734375 L 591.820313 301.402344 L 589.5625 299.027344 L 587.320313 296.605469 L 585.097656 294.140625 L 582.890625 291.632813 L 580.703125 289.082031 L 578.535156 286.492188 L 576.390625 283.859375 L 574.269531 281.191406 L 572.175781 278.484375 L 570.105469 275.742188 L 568.066406 272.964844 L 566.054688 270.15625 L 564.074219 267.3125 L 562.125 264.4375 L 560.207031 261.53125 L 558.324219 258.597656 L 556.476563 255.640625 L 554.664063 252.652344 L 552.886719 249.644531 L 551.152344 246.613281 L 549.453125 243.5625 L 547.792969 240.488281 L 546.171875 237.402344 L 544.597656 234.296875 L 543.058594 231.175781 L 541.566406 228.042969 L 540.117188 224.902344 L 538.707031 221.75 L 537.347656 218.589844 L 536.027344 215.425781 L 534.753906 212.253906 L 533.527344 209.082031 L 532.34375 205.910156 L 531.207031 202.742188 L 530.113281 199.574219 L 529.070313 196.410156 L 528.070313 193.253906 L 527.117188 190.105469 L 526.210938 186.96875 L 525.347656 183.84375 L 524.53125 180.730469 L 523.761719 177.636719 L 523.039063 174.554688 L 522.359375 171.496094 L 521.722656 168.457031 L 521.132813 165.441406 L 520.585938 162.445313 L 520.082031 159.480469 L 519.621094 156.539063 L 519.199219 153.628906 L 518.824219 150.75 L 518.484375 147.902344 L 518.1875 145.089844 L 517.929688 142.3125 L 517.707031 139.574219 L 517.527344 136.871094 L 517.378906 134.210938 L 517.269531 131.589844 L 517.191406 129.011719 L 517.148438 126.476563 L 517.136719 123.988281 L 517.152344 121.546875 L 517.203125 119.15625 L 517.28125 116.8125 L 517.386719 114.515625 L 517.515625 112.273438 L 517.671875 110.085938 L 517.847656 107.949219 L 518.050781 105.867188 L 518.269531 103.84375 L 518.507813 101.871094 L 518.765625 99.960938 L 519.039063 98.105469 L 519.328125 96.3125 L 519.628906 94.578125 L 519.9375 92.902344 L 520.261719 91.285156 L 520.589844 89.734375 L 520.925781 88.242188 L 521.265625 86.8125 L 521.609375 85.445313 L 521.957031 84.144531 L 522.304688 82.902344 L 522.648438 81.726563 L 522.988281 80.613281 L 523.324219 79.5625 L 523.652344 78.578125 L 523.972656 77.65625 L 524.285156 76.800781 L 524.582031 76.003906 L 524.867188 75.273438 L 525.140625 74.609375 L 525.394531 74.003906 L 525.628906 73.460938 L 525.84375 72.984375 L 526.039063 72.566406 L 526.207031 72.210938 L 526.355469 71.914063 L 526.476563 71.679688 L 526.566406 71.503906 L 526.628906 71.390625 L 526.664063 71.332031 L 526.628906 71.386719 L 526.558594 71.5 L 526.453125 71.667969 L 526.3125 71.890625 L 526.128906 72.164063 L 525.90625 72.488281 L 525.640625 72.867188 L 525.335938 73.292969 L 524.984375 73.765625 L 524.585938 74.289063 L 524.144531 74.855469 L 523.65625 75.46875 L 523.117188 76.125 L 522.53125 76.824219 L 521.890625 77.5625 L 521.203125 78.339844 L 520.460938 79.15625 L 519.667969 80.007813 L 518.820313 80.894531 L 517.921875 81.8125 L 516.964844 82.765625 L 515.953125 83.746094 L 514.886719 84.753906 L 513.761719 85.792969 L 512.582031 86.855469 L 511.34375 87.941406 L 510.050781 89.046875 L 508.695313 90.175781 L 507.285156 91.320313 L 505.816406 92.484375 L 504.289063 93.664063 L 502.703125 94.855469 L 501.058594 96.058594 L 499.359375 97.273438 L 497.597656 98.496094 L 495.777344 99.726563 L 493.902344 100.960938 L 491.96875 102.195313 L 489.976563 103.433594 L 487.929688 104.675781 L 485.824219 105.910156 L 483.664063 107.144531 L 481.445313 108.375 L 479.175781 109.597656 L 476.851563 110.808594 L 474.472656 112.015625 L 472.039063 113.207031 L 469.558594 114.386719 L 467.023438 115.550781 L 464.4375 116.699219 L 461.804688 117.832031 L 459.121094 118.945313 L 456.390625 120.035156 L 453.613281 121.105469 L 450.792969 122.152344 L 447.929688 123.175781 L 445.019531 124.171875 L 442.070313 125.140625 L 439.082031 126.082031 L 436.050781 126.996094 L 432.984375 127.875 L 429.882813 128.726563 L 426.746094 129.542969 L 423.574219 130.324219 L 420.371094 131.074219 L 417.136719 131.789063 L 413.875 132.464844 L 410.585938 133.101563 L 407.273438 133.703125 L 403.933594 134.265625 L 400.574219 134.785156 L 397.191406 135.269531 L 393.792969 135.707031 L 390.375 136.109375 L 386.941406 136.464844 L 383.492188 136.78125 L 380.035156 137.054688 L 376.566406 137.28125 L 373.085938 137.46875 L 369.601563 137.613281 L 366.113281 137.710938 L 362.621094 137.765625 L 359.125 137.777344 L 355.632813 137.742188 L 352.140625 137.667969 L 348.652344 137.546875 L 345.171875 137.382813 L 341.699219 137.171875 L 338.234375 136.921875 L 334.78125 136.628906 L 331.339844 136.292969 L 327.914063 135.914063 L 324.503906 135.492188 L 321.113281 135.03125 L 317.742188 134.53125 L 314.394531 133.988281 L 311.066406 133.40625 L 307.765625 132.789063 L 304.488281 132.128906 L 301.242188 131.433594 L 298.023438 130.703125 L 294.835938 129.9375 L 291.683594 129.136719 L 288.5625 128.304688 L 285.476563 127.441406 L 282.429688 126.542969 L 279.417969 125.617188 L 276.449219 124.660156 L 273.519531 123.675781 L 270.632813 122.667969 L 267.789063 121.632813 L 264.992188 120.574219 L 262.238281 119.492188 L 259.53125 118.390625 L 256.875 117.269531 L 254.261719 116.128906 L 251.703125 114.96875 L 249.195313 113.796875 L 246.738281 112.613281 L 244.332031 111.414063 L 241.980469 110.203125 L 239.679688 108.984375 L 237.4375 107.761719 L 235.25 106.527344 L 233.117188 105.292969 L 231.039063 104.054688 L 229.019531 102.816406 L 227.058594 101.578125 L 225.152344 100.339844 L 223.304688 99.109375 L 221.515625 97.882813 L 219.785156 96.664063 L 218.109375 95.457031 L 216.496094 94.257813 L 214.9375 93.070313 L 213.441406 91.902344 L 212 90.746094 L 210.621094 89.609375 L 209.296875 88.492188 L 208.027344 87.394531 L 206.820313 86.320313 L 205.667969 85.269531 L 204.574219 84.246094 L 203.535156 83.25 L 202.550781 82.285156 L 201.621094 81.347656 L 200.75 80.445313 L 199.929688 79.578125 L 199.160156 78.742188 L 198.445313 77.945313 L 197.78125 77.1875 L 197.171875 76.46875 L 196.609375 75.792969 L 196.09375 75.15625 L 195.628906 74.566406 L 195.207031 74.023438 L 194.835938 73.523438 L 194.503906 73.074219 L 194.21875 72.671875 L 193.976563 72.320313 L 193.773438 72.019531 L 193.613281 71.773438 L 193.488281 71.578125 L 193.402344 71.4375 L 193.351563 71.351563 L 193.332031 71.324219 L 193.347656 71.355469 L 193.398438 71.441406 L 193.476563 71.585938 L 193.582031 71.789063 L 193.714844 72.054688 L 193.875 72.378906 L 194.054688 72.765625 L 194.261719 73.214844 L 194.488281 73.726563 L 194.730469 74.296875 L 194.996094 74.933594 L 195.273438 75.632813 L 195.566406 76.394531 L 195.871094 77.21875 L 196.1875 78.109375 L 196.511719 79.0625 L 196.84375 80.082031 L 197.183594 81.160156 L 197.523438 82.308594 L 197.871094 83.515625 L 198.214844 84.785156 L 198.5625 86.121094 L 198.902344 87.519531 L 199.242188 88.980469 L 199.574219 90.503906 L 199.902344 92.085938 L 200.21875 93.730469 L 200.523438 95.4375 L 200.820313 97.203125 L 201.097656 99.027344 L 201.363281 100.910156 L 201.613281 102.851563 L 201.84375 104.847656 L 202.054688 106.902344 L 202.242188 109.011719 L 202.410156 111.171875 L 202.554688 113.390625 L 202.671875 115.65625 L 202.761719 117.976563 L 202.824219 120.34375 L 202.859375 122.761719 L 202.863281 125.226563 L 202.835938 127.738281 L 202.773438 130.292969 L 202.679688 132.894531 L 202.550781 135.535156 L 202.386719 138.21875 L 202.1875 140.9375 L 201.945313 143.699219 L 201.667969 146.492188 L 201.351563 149.324219 L 200.992188 152.1875 L 200.59375 155.082031 L 200.15625 158.007813 L 199.671875 160.960938 L 199.148438 163.941406 L 198.578125 166.945313 L 197.964844 169.972656 L 197.308594 173.023438 L 196.605469 176.09375 L 195.859375 179.179688 L 195.066406 182.285156 L 194.226563 185.402344 L 193.34375 188.535156 L 192.414063 191.679688 L 191.4375 194.832031 L 190.414063 197.992188 L 189.347656 201.15625 L 188.230469 204.324219 L 187.070313 207.496094 L 185.867188 210.667969 L 184.613281 213.839844 L 183.320313 217.007813 L 181.976563 220.171875 L 180.59375 223.328125 L 179.164063 226.472656 L 177.691406 229.613281 L 176.175781 232.738281 L 174.621094 235.851563 L 173.023438 238.949219 L 171.382813 242.027344 L 169.703125 245.089844 L 167.984375 248.132813 L 166.230469 251.152344 L 164.433594 254.148438 L 162.605469 257.121094 L 160.738281 260.070313 L 158.839844 262.988281 L 156.90625 265.878906 L 154.941406 268.738281 L 152.945313 271.5625 L 150.917969 274.359375 L 148.863281 277.117188 L 146.78125 279.84375 L 144.671875 282.53125 L 142.539063 285.179688 L 140.382813 287.789063 L 138.207031 290.359375 L 136.007813 292.890625 L 133.792969 295.375 L 131.558594 297.820313 L 129.308594 300.21875 L 127.046875 302.574219 L 124.769531 304.882813 L 122.484375 307.144531 L 120.1875 309.359375 L 117.882813 311.527344 L 115.570313 313.644531 L 113.257813 315.714844 L 110.941406 317.734375 L 108.621094 319.707031 L 106.304688 321.625 L 103.988281 323.496094 L 101.679688 325.3125 L 99.375 327.082031 L 97.078125 328.796875 L 94.789063 330.460938 L 92.511719 332.074219 L 90.25 333.632813 L 88 335.144531 L 85.769531 336.601563 L 83.554688 338.007813 L 81.363281 339.363281 L 79.191406 340.667969 L 77.042969 341.921875 L 74.917969 343.125 L 72.820313 344.28125 L 70.75 345.386719 L 68.714844 346.441406 L 66.707031 347.449219 L 64.730469 348.410156 L 62.792969 349.324219 L 60.890625 350.191406 L 59.027344 351.011719 L 57.199219 351.789063 L 55.417969 352.523438 L 53.675781 353.214844 L 51.976563 353.863281 L 50.324219 354.46875 L 48.714844 355.039063 L 47.15625 355.566406 L 45.648438 356.058594 L 44.1875 356.511719 L 42.78125 356.933594 L 41.425781 357.316406 L 40.121094 357.667969 L 38.875 357.988281 L 37.683594 358.28125 L 36.550781 358.542969 L 35.472656 358.777344 L 34.457031 358.984375 L 33.496094 359.167969 L 32.597656 359.328125 L 31.761719 359.464844 L 30.988281 359.582031 L 30.273438 359.683594 L 29.625 359.765625 L 29.035156 359.832031 L 28.515625 359.882813 L 28.054688 359.925781 L 27.660156 359.953125 L 27.332031 359.976563 L 27.070313 359.988281 L 26.871094 359.996094 L 26.742188 360 L 26.675781 360 L 26.742188 360 L 26.871094 360.003906 L 27.070313 360.011719 L 27.332031 360.023438 L 27.660156 360.046875 L 28.054688 360.074219 L 28.515625 360.117188 L 29.035156 360.167969 L 29.625 360.234375 L 30.273438 360.316406 L 30.988281 360.417969 L 31.761719 360.535156 L 32.597656 360.671875 L 33.496094 360.832031 L 34.457031 361.015625 L 35.472656 361.222656 L 36.550781 361.457031 L 37.683594 361.71875 L 38.875 362.011719 L 40.121094 362.332031 L 41.425781 362.683594 L 42.78125 363.066406 L 44.1875 363.488281 L 45.648438 363.941406 L 47.15625 364.433594 L 48.714844 364.960938 L 50.324219 365.53125 L 51.976563 366.136719 L 53.675781 366.785156 L 55.417969 367.476563 L 57.199219 368.210938 L 59.027344 368.988281 L 60.890625 369.808594 L 62.792969 370.675781 L 64.730469 371.589844 L 66.707031 372.550781 L 68.714844 373.558594 L 70.75 374.613281 L 72.820313 375.71875 L 74.917969 376.875 L 77.042969 378.078125 L 79.191406 379.332031 L 81.363281 380.636719 L 83.554688 381.992188 L 85.769531 383.398438 L 88 384.855469 L 90.25 386.367188 L 92.511719 387.925781 L 94.789063 389.539063 L 97.078125 391.203125 L 99.375 392.917969 L 101.679688 394.6875 L 103.988281 396.503906 L 106.304688 398.375 L 108.621094 400.292969 L 110.941406 402.265625 L 113.257813 404.285156 L 115.570313 406.355469 L 117.882813 408.472656 L 120.1875 410.640625 L 122.484375 412.855469 L 124.769531 415.117188 L 127.046875 417.425781 L 129.308594 419.78125 L 131.558594 422.179688 L 133.792969 424.625 L 136.007813 427.109375 L 138.207031 429.640625 L 140.382813 432.210938 L 142.539063 434.820313 L 144.671875 437.46875 L 146.78125 440.15625 L 148.863281 442.882813 L 150.917969 445.640625 L 152.945313 448.4375 L 154.941406 451.261719 L 156.90625 454.121094 L 158.839844 457.011719 L 160.738281 459.929688 L 162.605469 462.878906 L 164.433594 465.851563 L 166.230469 468.847656 L 167.984375 471.867188 L 169.703125 474.910156 L 171.382813 477.972656 L 173.023438 481.050781 L 174.621094 484.148438 L 176.175781 487.261719 L 177.691406 490.386719 L 179.164063 493.527344 L 180.59375 496.671875 L 181.976563 499.828125 L 183.320313 502.992188 L 184.613281 506.160156 L 185.867188 509.332031 L 187.070313 512.503906 L 188.230469 515.675781 L 189.347656 518.84375 L 190.414063 522.007813 L 191.4375 525.167969 L 192.414063 528.320313 L 193.34375 531.464844 L 194.226563 534.597656 L 195.066406 537.714844 L 195.859375 540.820313 L 196.605469 543.90625 L 197.308594 546.976563 L 197.964844 550.027344 L 198.578125 553.054688 L 199.148438 556.058594 L 199.671875 559.039063 L 200.15625 561.992188 L 200.59375 564.917969 L 200.992188 567.8125 L 201.351563 570.675781 L 201.667969 573.507813 L 201.945313 576.300781 L 202.1875 579.0625 L 202.386719 581.78125 L 202.550781 584.464844 L 202.679688 587.105469 L 202.773438 589.707031 L 202.835938 592.261719 L 202.863281 594.773438 L 202.859375 597.238281 L 202.824219 599.65625 L 202.761719 602.023438 L 202.671875 604.34375 L 202.554688 606.609375 L 202.410156 608.828125 L 202.242188 610.988281 L 202.054688 613.097656 L 201.84375 615.152344 L 201.613281 617.148438 L 201.363281 619.089844 L 201.097656 620.972656 L 200.820313 622.796875 L 200.523438 624.5625 L 200.21875 626.269531 L 199.902344 627.914063 L 199.574219 629.496094 L 199.242188 631.019531 L 198.902344 632.480469 L 198.5625 633.878906 L 198.214844 635.214844 L 197.871094 636.484375 L 197.523438 637.691406 L 197.183594 638.839844 L 196.84375 639.917969 L 196.511719 640.9375 L 196.1875 641.890625 L 195.871094 642.78125 L 195.566406 643.605469 L 195.273438 644.367188 L 194.996094 645.066406 L 194.730469 645.703125 L 194.488281 646.273438 L 194.261719 646.785156 L 194.054688 647.234375 L 193.875 647.621094 L 193.714844 647.945313 L 193.582031 648.210938 L 193.476563 648.414063 L 193.398438 648.558594 L 193.347656 648.644531 L 193.332031 648.675781 L 193.351563 648.648438 L 193.402344 648.5625 L 193.488281 648.421875 L 193.613281 648.226563 L 193.773438 647.980469 L 193.976563 647.679688 L 194.21875 647.328125 L 194.503906 646.925781 L 194.835938 646.476563 L 195.207031 645.976563 L 195.628906 645.433594 L 196.09375 644.84375 L 196.609375 644.207031 L 197.171875 643.53125 L 197.78125 642.8125 L 198.445313 642.054688 L 199.160156 641.257813 L 199.929688 640.421875 L 200.75 639.554688 L 201.621094 638.652344 L 202.550781 637.714844 L 203.535156 636.75 L 204.574219 635.753906 L 205.667969 634.730469 L 206.820313 633.679688 L 208.027344 632.605469 L 209.296875 631.507813 L 210.621094 630.390625 L 212 629.253906 L 213.441406 628.097656 L 214.9375 626.929688 L 216.496094 625.742188 L 218.109375 624.542969 L 219.785156 623.335938 L 221.515625 622.117188 L 223.304688 620.890625 L 225.152344 619.660156 L 227.058594 618.421875 L 229.019531 617.183594 L 231.039063 615.945313 L 233.117188 614.707031 L 235.25 613.472656 L 237.4375 612.238281 L 239.679688 611.015625 L 241.980469 609.796875 L 244.332031 608.585938 L 246.738281 607.386719 L 249.195313 606.203125 L 251.703125 605.03125 L 254.261719 603.871094 L 256.875 602.730469 L 259.53125 601.609375 L 262.238281 600.507813 L 264.992188 599.425781 L 267.789063 598.367188 L 270.632813 597.332031 L 273.519531 596.324219 L 276.449219 595.339844 L 279.417969 594.382813 L 282.429688 593.457031 L 285.476563 592.558594 L 288.5625 591.695313 L 291.683594 590.863281 L 294.835938 590.0625 L 298.023438 589.296875 L 301.242188 588.566406 L 304.488281 587.871094 L 307.765625 587.210938 L 311.066406 586.59375 L 314.394531 586.011719 L 317.742188 585.46875 L 321.113281 584.96875 L 324.503906 584.507813 L 327.914063 584.085938 L 331.339844 583.707031 L 334.78125 583.371094 L 338.234375 583.078125 L 341.699219 582.828125 L 345.171875 582.617188 L 348.652344 582.453125 L 352.140625 582.332031 L 355.632813 582.257813 L 359.125 582.222656 L 362.621094 582.234375 L 366.113281 582.289063 L 369.601563 582.386719 L 373.085938 582.53125 L 376.566406 582.71875 L 380.035156 582.945313 L 383.492188 583.21875 L 386.941406 583.535156 L 390.375 583.890625 L 393.792969 584.292969 L 397.191406 584.730469 L 400.574219 585.214844 L 403.933594 585.734375 L 407.273438 586.296875 L 410.585938 586.898438 L 413.875 587.535156 L 417.136719 588.210938 L 420.371094 588.925781 L 423.574219 589.675781 L 426.746094 590.457031 L 429.882813 591.273438 L 432.984375 592.125 L 436.050781 593.003906 L 439.082031 593.917969 L 442.070313 594.859375 L 445.019531 595.828125 L 447.929688 596.824219 L 450.792969 597.847656 L 453.613281 598.894531 L 456.390625 599.964844 L 459.121094 601.054688 L 461.804688 602.167969 L 464.4375 603.300781 L 467.023438 604.449219 L 469.558594 605.613281 L 472.039063 606.792969 L 474.472656 607.984375 L 476.851563 609.191406 L 479.175781 610.402344 L 481.445313 611.625 L 483.664063 612.855469 L 485.824219 614.089844 L 487.929688 615.324219 L 489.976563 616.566406 L 491.96875 617.804688 L 493.902344 619.039063 L 495.777344 620.273438 L 497.597656 621.503906 L 499.359375 622.726563 L 501.058594 623.941406 L 502.703125 625.144531 L 504.289063 626.335938 L 505.816406 627.515625 L 507.285156 628.679688 L 508.695313 629.824219 L 510.050781 630.953125 L 511.34375 632.058594 L 512.582031 633.144531 L 513.761719 634.207031 L 514.886719 635.246094 L 515.953125 636.253906 L 516.964844 637.234375 L 517.921875 638.1875 L 518.820313 639.105469 L 519.667969 639.992188 L 520.460938 640.84375 L 521.203125 641.660156 L 521.890625 642.4375 L 522.53125 643.175781 L 523.117188 643.875 L 523.65625 644.53125 L 524.144531 645.144531 L 524.585938 645.710938 L 524.984375 646.234375 L 525.335938 646.707031 L 525.640625 647.132813 L 525.90625 647.511719 L 526.128906 647.835938 L 526.3125 648.109375 L 526.453125 648.332031 L 526.558594 648.5 L 526.628906 648.613281 L 526.664063 648.667969 L 526.628906 648.609375 L 526.566406 648.496094 L 526.476563 648.320313 L 526.355469 648.085938 L 526.207031 647.789063 L 526.039063 647.433594 L 525.84375 647.015625 L 525.628906 646.539063 L 525.394531 645.996094 L 525.140625 645.390625 L 524.867188 644.726563 L 524.582031 643.996094 L 524.285156 643.199219 L 523.972656 642.34375 L 523.652344 641.421875 L 523.324219 640.4375 L 522.988281 639.386719 L 522.648438 638.273438 L 522.304688 637.097656 L 521.957031 635.855469 L 521.609375 634.554688 L 521.265625 633.1875 L 520.925781 631.757813 L 520.589844 630.265625 L 520.261719 628.714844 L 519.9375 627.097656 L 519.628906 625.421875 L 519.328125 623.6875 L 519.039063 621.894531 L 518.765625 620.039063 L 518.507813 618.128906 L 518.269531 616.15625 L 518.050781 614.132813 L 517.847656 612.050781 L 517.671875 609.914063 L 517.515625 607.726563 L 517.386719 605.484375 L 517.28125 603.1875 L 517.203125 600.84375 L 517.152344 598.453125 L 517.136719 596.011719 L 517.148438 593.523438 L 517.191406 590.988281 L 517.269531 588.410156 L 517.378906 585.789063 L 517.527344 583.128906 L 517.707031 580.425781 L 517.929688 577.6875 L 518.1875 574.910156 L 518.484375 572.097656 L 518.824219 569.25 L 519.199219 566.371094 L 519.621094 563.460938 L 520.082031 560.519531 L 520.585938 557.554688 L 521.132813 554.558594 L 521.722656 551.542969 L 522.359375 548.503906 L 523.039063 545.445313 L 523.761719 542.363281 L 524.53125 539.269531 L 525.347656 536.15625 L 526.210938 533.03125 L 527.117188 529.894531 L 528.070313 526.746094 L 529.070313 523.589844 L 530.113281 520.425781 L 531.207031 517.257813 L 532.34375 514.089844 L 533.527344 510.917969 L 534.753906 507.746094 L 536.027344 504.574219 L 537.347656 501.410156 L 538.707031 498.25 L 540.117188 495.097656 L 541.566406 491.957031 L 543.058594 488.824219 L 544.597656 485.703125 L 546.171875 482.597656 L 547.792969 479.511719 L 549.453125 476.4375 L 551.152344 473.386719 L 552.886719 470.355469 L 554.664063 467.347656 L 556.476563 464.359375 L 558.324219 461.402344 L 560.207031 458.46875 L 562.125 455.5625 L 564.074219 452.6875 L 566.054688 449.84375 L 568.066406 447.035156 L 570.105469 444.257813 L 572.175781 441.515625 L 574.269531 438.808594 L 576.390625 436.140625 L 578.535156 433.507813 L 580.703125 430.917969 L 582.890625 428.367188 L 585.097656 425.859375 L 587.320313 423.394531 L 589.5625 420.972656 L 591.820313 418.597656 L 594.089844 416.265625 L 596.371094 413.980469 L 598.664063 411.742188 L 600.964844 409.550781 L 603.273438 407.40625 L 605.585938 405.3125 L 607.902344 403.269531 L 610.21875 401.273438 L 612.539063 399.328125 L 614.855469 397.433594 L 617.167969 395.589844 L 619.476563 393.796875 L 621.777344 392.054688 L 624.066406 390.367188 L 626.351563 388.726563 L 628.621094 387.140625 L 630.875 385.605469 L 633.117188 384.121094 L 635.339844 382.6875 L 637.542969 381.308594 L 639.726563 379.976563 L 641.886719 378.699219 L 644.023438 377.46875 L 646.132813 376.289063 L 648.21875 375.160156 L 650.273438 374.078125 L 652.292969 373.046875 L 654.285156 372.0625 L 656.242188 371.125 L 658.164063 370.238281 L 660.046875 369.390625 L 661.890625 368.59375 L 663.695313 367.835938 L 665.460938 367.125 L 667.179688 366.457031 L 668.855469 365.828125 L 670.488281 365.242188 L 672.070313 364.691406 L 673.605469 364.183594 L 675.089844 363.710938 L 676.523438 363.273438 L 677.90625 362.871094 L 679.234375 362.503906 L 680.507813 362.167969 L 681.726563 361.859375 L 682.890625 361.585938 L 683.996094 361.339844 L 685.042969 361.117188 L 686.03125 360.921875 L 686.960938 360.75 L 687.828125 360.601563 L 688.632813 360.472656 L 689.378906 360.367188 L 690.058594 360.273438 L 690.679688 360.199219 L 691.234375 360.140625 L 691.722656 360.09375 L 692.148438 360.058594 L 692.511719 360.035156 L 692.804688 360.019531 L 693.035156 360.007813 L 693.203125 360.003906 L 693.300781 360 Z M 693.332031 360 "/>
  </g>
  <g xmlns="http://www.w3.org/2000/svg" id="spiro_3_1_1_96930">
    <path style=" stroke:none;fill-rule:evenodd;fill:rgb(19.607843%,100%,0%);fill-opacity:0.501961;" d="M 693.332031 360 L 693.121094 360 L 693.003906 359.996094 L 692.859375 359.992188 L 692.6875 359.992188 L 692.488281 359.984375 L 692.265625 359.980469 L 692.015625 359.972656 L 691.738281 359.964844 L 691.4375 359.953125 L 691.109375 359.9375 L 690.753906 359.925781 L 690.375 359.90625 L 689.964844 359.886719 L 689.535156 359.863281 L 689.074219 359.839844 L 688.589844 359.8125 L 688.078125 359.78125 L 687.542969 359.746094 L 686.980469 359.707031 L 686.394531 359.664063 L 685.78125 359.621094 L 685.144531 359.570313 L 684.480469 359.515625 L 683.789063 359.460938 L 683.074219 359.398438 L 682.335938 359.332031 L 681.570313 359.261719 L 680.78125 359.183594 L 679.96875 359.101563 L 679.128906 359.015625 L 678.265625 358.925781 L 677.375 358.828125 L 676.460938 358.726563 L 675.523438 358.617188 L 674.5625 358.503906 L 673.578125 358.382813 L 672.566406 358.257813 L 671.535156 358.125 L 670.476563 357.988281 L 669.394531 357.84375 L 668.289063 357.691406 L 667.160156 357.53125 L 666.011719 357.363281 L 664.835938 357.191406 L 663.636719 357.011719 L 662.417969 356.824219 L 661.175781 356.628906 L 659.90625 356.425781 L 658.621094 356.214844 L 657.308594 355.996094 L 655.976563 355.769531 L 654.621094 355.535156 L 653.246094 355.292969 L 651.847656 355.042969 L 650.429688 354.785156 L 648.988281 354.515625 L 647.523438 354.238281 L 646.042969 353.953125 L 644.539063 353.660156 L 643.015625 353.355469 L 641.46875 353.042969 L 639.902344 352.71875 L 638.320313 352.390625 L 636.714844 352.046875 L 635.089844 351.699219 L 633.445313 351.339844 L 631.78125 350.96875 L 630.097656 350.589844 L 628.394531 350.199219 L 626.675781 349.800781 L 624.9375 349.390625 L 623.179688 348.972656 L 621.402344 348.542969 L 619.609375 348.101563 L 617.796875 347.652344 L 615.96875 347.191406 L 614.121094 346.71875 L 612.257813 346.238281 L 610.378906 345.746094 L 608.484375 345.242188 L 606.570313 344.726563 L 604.640625 344.203125 L 602.695313 343.664063 L 600.734375 343.117188 L 598.753906 342.5625 L 596.761719 341.992188 L 594.757813 341.410156 L 592.734375 340.820313 L 590.695313 340.214844 L 588.644531 339.601563 L 586.578125 338.976563 L 584.5 338.339844 L 582.40625 337.691406 L 580.300781 337.03125 L 578.179688 336.359375 L 576.046875 335.679688 L 573.902344 334.984375 L 571.742188 334.277344 L 569.574219 333.5625 L 567.390625 332.832031 L 565.195313 332.089844 L 562.988281 331.339844 L 560.773438 330.574219 L 558.542969 329.800781 L 556.304688 329.011719 L 554.054688 328.214844 L 551.796875 327.402344 L 549.527344 326.582031 L 547.246094 325.746094 L 544.957031 324.902344 L 542.660156 324.046875 L 540.351563 323.175781 L 538.035156 322.296875 L 535.710938 321.402344 L 533.378906 320.5 L 531.035156 319.585938 L 528.6875 318.660156 L 526.332031 317.71875 L 523.96875 316.769531 L 521.597656 315.808594 L 519.21875 314.835938 L 516.835938 313.851563 L 514.445313 312.855469 L 512.050781 311.851563 L 509.648438 310.832031 L 507.242188 309.804688 L 504.832031 308.761719 L 502.414063 307.710938 L 499.992188 306.648438 L 497.566406 305.574219 L 495.136719 304.492188 L 492.703125 303.394531 L 490.265625 302.289063 L 487.824219 301.171875 L 485.382813 300.042969 L 482.9375 298.90625 L 480.488281 297.757813 L 478.035156 296.597656 L 475.582031 295.425781 L 473.128906 294.246094 L 470.671875 293.054688 L 468.214844 291.855469 L 465.753906 290.644531 L 463.292969 289.425781 L 460.835938 288.195313 L 458.375 286.953125 L 455.914063 285.703125 L 453.453125 284.445313 L 450.996094 283.175781 L 448.539063 281.894531 L 446.082031 280.609375 L 443.625 279.3125 L 441.167969 278.003906 L 438.71875 276.691406 L 436.265625 275.367188 L 433.816406 274.035156 L 431.371094 272.691406 L 428.929688 271.34375 L 426.488281 269.984375 L 424.054688 268.621094 L 421.621094 267.246094 L 419.191406 265.863281 L 416.765625 264.472656 L 414.34375 263.074219 L 411.929688 261.671875 L 409.519531 260.257813 L 407.109375 258.835938 L 404.710938 257.410156 L 402.3125 255.976563 L 399.925781 254.535156 L 397.539063 253.089844 L 395.160156 251.632813 L 392.789063 250.175781 L 390.425781 248.707031 L 388.066406 247.234375 L 385.714844 245.757813 L 383.371094 244.273438 L 381.035156 242.78125 L 378.707031 241.289063 L 376.386719 239.785156 L 374.074219 238.28125 L 371.769531 236.769531 L 369.472656 235.257813 L 367.1875 233.738281 L 364.910156 232.210938 L 362.640625 230.683594 L 360.378906 229.152344 L 358.128906 227.617188 L 355.890625 226.078125 L 353.660156 224.535156 L 351.441406 222.988281 L 349.234375 221.4375 L 347.035156 219.886719 L 344.847656 218.332031 L 342.667969 216.773438 L 340.503906 215.214844 L 338.351563 213.652344 L 336.207031 212.085938 L 334.074219 210.519531 L 331.957031 208.953125 L 329.851563 207.386719 L 327.753906 205.816406 L 325.671875 204.246094 L 323.601563 202.671875 L 321.546875 201.101563 L 319.503906 199.53125 L 317.472656 197.957031 L 315.453125 196.386719 L 313.449219 194.8125 L 311.460938 193.242188 L 309.480469 191.671875 L 307.519531 190.101563 L 305.570313 188.53125 L 303.636719 186.964844 L 301.714844 185.398438 L 299.808594 183.835938 L 297.917969 182.273438 L 296.039063 180.714844 L 294.179688 179.15625 L 292.332031 177.601563 L 290.5 176.050781 L 288.683594 174.5 L 286.882813 172.957031 L 285.097656 171.414063 L 283.324219 169.875 L 281.570313 168.339844 L 279.832031 166.8125 L 278.109375 165.285156 L 276.402344 163.765625 L 274.714844 162.246094 L 273.039063 160.738281 L 271.382813 159.230469 L 269.742188 157.730469 L 268.117188 156.234375 L 266.507813 154.746094 L 264.917969 153.265625 L 263.34375 151.789063 L 261.785156 150.320313 L 260.242188 148.855469 L 258.71875 147.402344 L 257.214844 145.953125 L 255.726563 144.511719 L 254.253906 143.078125 L 252.796875 141.652344 L 251.363281 140.238281 L 249.941406 138.828125 L 248.539063 137.429688 L 247.15625 136.039063 L 245.789063 134.65625 L 244.441406 133.28125 L 243.109375 131.921875 L 241.792969 130.566406 L 240.5 129.222656 L 239.222656 127.890625 L 237.960938 126.566406 L 236.71875 125.253906 L 235.496094 123.953125 L 234.289063 122.664063 L 233.101563 121.382813 L 231.929688 120.117188 L 230.777344 118.859375 L 229.644531 117.617188 L 228.53125 116.382813 L 227.433594 115.164063 L 226.351563 113.957031 L 225.292969 112.761719 L 224.246094 111.582031 L 223.222656 110.410156 L 222.214844 109.257813 L 221.226563 108.113281 L 220.257813 106.988281 L 219.304688 105.875 L 218.367188 104.773438 L 217.453125 103.6875 L 216.554688 102.617188 L 215.675781 101.5625 L 214.8125 100.519531 L 213.96875 99.496094 L 213.140625 98.484375 L 212.332031 97.492188 L 211.542969 96.511719 L 210.769531 95.546875 L 210.015625 94.601563 L 209.277344 93.671875 L 208.558594 92.753906 L 207.855469 91.859375 L 207.171875 90.976563 L 206.503906 90.113281 L 205.855469 89.265625 L 205.222656 88.4375 L 204.609375 87.625 L 204.011719 86.832031 L 203.433594 86.058594 L 202.871094 85.300781 L 202.328125 84.558594 L 201.796875 83.839844 L 201.289063 83.136719 L 200.792969 82.453125 L 200.316406 81.785156 L 199.855469 81.140625 L 199.410156 80.515625 L 198.984375 79.90625 L 198.574219 79.320313 L 198.179688 78.75 L 197.800781 78.203125 L 197.4375 77.675781 L 197.09375 77.167969 L 196.761719 76.679688 L 196.152344 75.765625 L 195.867188 75.339844 L 195.601563 74.933594 L 195.351563 74.546875 L 195.113281 74.183594 L 194.894531 73.84375 L 194.6875 73.519531 L 194.5 73.222656 L 194.324219 72.941406 L 194.160156 72.6875 L 194.015625 72.453125 L 193.882813 72.238281 L 193.765625 72.046875 L 193.664063 71.878906 L 193.574219 71.734375 L 193.5 71.609375 L 193.441406 71.507813 L 193.394531 71.425781 L 193.359375 71.371094 L 193.339844 71.335938 L 193.332031 71.324219 L 193.339844 71.335938 L 193.359375 71.371094 L 193.390625 71.429688 L 193.4375 71.507813 L 193.496094 71.613281 L 193.566406 71.738281 L 193.648438 71.890625 L 193.742188 72.0625 L 193.847656 72.257813 L 193.96875 72.480469 L 194.097656 72.722656 L 194.238281 72.992188 L 194.394531 73.28125 L 194.558594 73.597656 L 194.734375 73.933594 L 194.917969 74.296875 L 195.117188 74.683594 L 195.324219 75.09375 L 195.542969 75.527344 L 195.769531 75.984375 L 196.007813 76.464844 L 196.253906 76.972656 L 196.511719 77.5 L 196.78125 78.054688 L 197.058594 78.632813 L 197.34375 79.234375 L 197.636719 79.859375 L 197.941406 80.507813 L 198.253906 81.183594 L 198.574219 81.882813 L 198.902344 82.601563 L 199.238281 83.347656 L 199.585938 84.117188 L 199.9375 84.914063 L 200.296875 85.730469 L 200.667969 86.574219 L 201.042969 87.4375 L 201.421875 88.328125 L 201.8125 89.242188 L 202.207031 90.179688 L 202.609375 91.140625 L 203.019531 92.125 L 203.433594 93.136719 L 203.855469 94.167969 L 204.28125 95.226563 L 204.714844 96.304688 L 205.152344 97.410156 L 205.59375 98.535156 L 206.042969 99.6875 L 206.492188 100.859375 L 206.949219 102.058594 L 207.414063 103.28125 L 207.878906 104.523438 L 208.347656 105.792969 L 208.824219 107.082031 L 209.300781 108.394531 L 209.785156 109.730469 L 210.269531 111.089844 L 210.757813 112.472656 L 211.246094 113.875 L 211.742188 115.304688 L 212.238281 116.753906 L 212.738281 118.226563 L 213.238281 119.71875 L 213.742188 121.234375 L 214.25 122.773438 L 214.757813 124.335938 L 215.265625 125.917969 L 215.777344 127.519531 L 216.289063 129.148438 L 216.800781 130.792969 L 217.316406 132.460938 L 217.828125 134.152344 L 218.34375 135.863281 L 218.859375 137.59375 L 219.375 139.347656 L 219.890625 141.121094 L 220.40625 142.914063 L 220.921875 144.730469 L 221.4375 146.5625 L 221.953125 148.417969 L 222.464844 150.292969 L 222.976563 152.1875 L 223.488281 154.101563 L 224 156.035156 L 224.507813 157.988281 L 225.015625 159.960938 L 225.519531 161.953125 L 226.023438 163.960938 L 226.523438 165.988281 L 227.023438 168.035156 L 227.519531 170.101563 L 228.011719 172.1875 L 228.503906 174.289063 L 228.992188 176.40625 L 229.476563 178.542969 L 229.960938 180.699219 L 230.4375 182.871094 L 230.914063 185.058594 L 231.382813 187.265625 L 231.851563 189.484375 L 232.316406 191.722656 L 232.777344 193.980469 L 233.234375 196.25 L 233.683594 198.535156 L 234.132813 200.835938 L 234.574219 203.15625 L 235.011719 205.488281 L 235.445313 207.835938 L 235.871094 210.199219 L 236.296875 212.574219 L 236.714844 214.964844 L 237.125 217.371094 L 237.53125 219.789063 L 237.933594 222.222656 L 238.328125 224.667969 L 238.71875 227.128906 L 239.105469 229.601563 L 239.480469 232.085938 L 239.851563 234.582031 L 240.21875 237.09375 L 240.578125 239.613281 L 240.929688 242.148438 L 241.277344 244.691406 L 241.617188 247.25 L 241.949219 249.816406 L 242.277344 252.394531 L 242.59375 254.984375 L 242.90625 257.582031 L 243.210938 260.191406 L 243.507813 262.808594 L 243.800781 265.4375 L 244.082031 268.074219 L 244.359375 270.722656 L 244.628906 273.378906 L 244.886719 276.042969 L 245.140625 278.714844 L 245.386719 281.394531 L 245.621094 284.082031 L 245.851563 286.777344 L 246.074219 289.480469 L 246.285156 292.1875 L 246.492188 294.90625 L 246.691406 297.628906 L 246.878906 300.355469 L 247.058594 303.089844 L 247.230469 305.832031 L 247.394531 308.578125 L 247.550781 311.328125 L 247.699219 314.082031 L 247.839844 316.84375 L 247.96875 319.609375 L 248.089844 322.375 L 248.203125 325.148438 L 248.308594 327.921875 L 248.40625 330.703125 L 248.492188 333.484375 L 248.570313 336.269531 L 248.640625 339.054688 L 248.703125 341.84375 L 248.757813 344.632813 L 248.800781 347.425781 L 248.835938 350.21875 L 248.863281 353.011719 L 248.878906 355.808594 L 248.886719 358.601563 L 248.886719 361.398438 L 248.878906 364.191406 L 248.863281 366.988281 L 248.835938 369.78125 L 248.800781 372.574219 L 248.757813 375.367188 L 248.703125 378.15625 L 248.640625 380.945313 L 248.570313 383.730469 L 248.492188 386.515625 L 248.40625 389.296875 L 248.308594 392.078125 L 248.203125 394.851563 L 248.089844 397.625 L 247.96875 400.390625 L 247.839844 403.15625 L 247.699219 405.917969 L 247.550781 408.671875 L 247.394531 411.421875 L 247.230469 414.167969 L 247.058594 416.910156 L 246.878906 419.644531 L 246.691406 422.371094 L 246.492188 425.09375 L 246.285156 427.8125 L 246.074219 430.519531 L 245.851563 433.222656 L 245.621094 435.917969 L 245.386719 438.605469 L 245.140625 441.285156 L 244.886719 443.957031 L 244.628906 446.621094 L 244.359375 449.277344 L 244.082031 451.925781 L 243.800781 454.5625 L 243.507813 457.191406 L 243.210938 459.808594 L 242.90625 462.417969 L 242.59375 465.015625 L 242.277344 467.605469 L 241.949219 470.183594 L 241.617188 472.75 L 241.277344 475.308594 L 240.929688 477.851563 L 240.578125 480.386719 L 240.21875 482.90625 L 239.851563 485.417969 L 239.480469 487.914063 L 239.105469 490.398438 L 238.71875 492.871094 L 238.328125 495.332031 L 237.933594 497.777344 L 237.53125 500.210938 L 237.125 502.628906 L 236.714844 505.035156 L 236.296875 507.425781 L 235.871094 509.800781 L 235.445313 512.164063 L 235.011719 514.511719 L 234.574219 516.84375 L 234.132813 519.164063 L 233.683594 521.464844 L 233.234375 523.75 L 232.777344 526.019531 L 232.316406 528.277344 L 231.851563 530.515625 L 231.382813 532.734375 L 230.914063 534.941406 L 230.4375 537.128906 L 229.960938 539.300781 L 229.476563 541.457031 L 228.992188 543.59375 L 228.503906 545.710938 L 228.011719 547.8125 L 227.519531 549.898438 L 227.023438 551.964844 L 226.523438 554.011719 L 226.023438 556.039063 L 225.519531 558.046875 L 225.015625 560.039063 L 224.507813 562.011719 L 224 563.964844 L 223.488281 565.898438 L 222.976563 567.8125 L 222.464844 569.707031 L 221.953125 571.582031 L 221.4375 573.4375 L 220.921875 575.269531 L 220.40625 577.085938 L 219.890625 578.878906 L 219.375 580.652344 L 218.859375 582.40625 L 218.34375 584.136719 L 217.828125 585.847656 L 217.316406 587.539063 L 216.800781 589.207031 L 216.289063 590.851563 L 215.777344 592.480469 L 215.265625 594.082031 L 214.757813 595.664063 L 214.25 597.226563 L 213.742188 598.765625 L 213.238281 600.28125 L 212.738281 601.773438 L 212.238281 603.246094 L 211.742188 604.695313 L 211.246094 606.125 L 210.757813 607.527344 L 210.269531 608.910156 L 209.785156 610.269531 L 209.300781 611.605469 L 208.824219 612.917969 L 208.347656 614.207031 L 207.878906 615.476563 L 207.414063 616.71875 L 206.949219 617.941406 L 206.492188 619.140625 L 206.042969 620.3125 L 205.59375 621.464844 L 205.152344 622.589844 L 204.714844 623.695313 L 204.28125 624.773438 L 203.855469 625.832031 L 203.433594 626.863281 L 203.019531 627.875 L 202.609375 628.859375 L 202.207031 629.820313 L 201.8125 630.757813 L 201.421875 631.671875 L 201.042969 632.5625 L 200.667969 633.425781 L 200.296875 634.269531 L 199.9375 635.085938 L 199.585938 635.882813 L 199.238281 636.652344 L 198.902344 637.398438 L 198.574219 638.117188 L 198.253906 638.816406 L 197.941406 639.492188 L 197.636719 640.140625 L 197.34375 640.765625 L 197.058594 641.367188 L 196.78125 641.945313 L 196.511719 642.5 L 196.253906 643.027344 L 196.007813 643.535156 L 195.769531 644.015625 L 195.542969 644.472656 L 195.324219 644.90625 L 195.117188 645.316406 L 194.917969 645.703125 L 194.734375 646.066406 L 194.558594 646.402344 L 194.394531 646.71875 L 194.238281 647.007813 L 194.097656 647.277344 L 193.96875 647.519531 L 193.847656 647.742188 L 193.742188 647.9375 L 193.648438 648.109375 L 193.566406 648.261719 L 193.496094 648.386719 L 193.4375 648.492188 L 193.390625 648.570313 L 193.359375 648.628906 L 193.339844 648.664063 L 193.332031 648.675781 L 193.339844 648.664063 L 193.359375 648.628906 L 193.394531 648.574219 L 193.441406 648.492188 L 193.5 648.390625 L 193.574219 648.265625 L 193.664063 648.121094 L 193.765625 647.953125 L 193.882813 647.761719 L 194.015625 647.546875 L 194.160156 647.3125 L 194.324219 647.058594 L 194.5 646.777344 L 194.6875 646.480469 L 194.894531 646.15625 L 195.113281 645.816406 L 195.351563 645.453125 L 195.601563 645.066406 L 195.867188 644.660156 L 196.152344 644.234375 L 196.761719 643.320313 L 197.09375 642.832031 L 197.4375 642.324219 L 197.800781 641.796875 L 198.179688 641.25 L 198.574219 640.679688 L 198.984375 640.09375 L 199.410156 639.484375 L 199.855469 638.859375 L 200.316406 638.214844 L 200.792969 637.546875 L 201.289063 636.863281 L 201.796875 636.160156 L 202.328125 635.441406 L 202.871094 634.699219 L 203.433594 633.941406 L 204.011719 633.167969 L 204.609375 632.375 L 205.222656 631.5625 L 205.855469 630.734375 L 206.503906 629.886719 L 207.171875 629.023438 L 207.855469 628.140625 L 208.558594 627.246094 L 209.277344 626.328125 L 210.015625 625.398438 L 210.769531 624.453125 L 211.542969 623.488281 L 212.332031 622.507813 L 213.140625 621.515625 L 213.96875 620.503906 L 214.8125 619.480469 L 215.675781 618.4375 L 216.554688 617.382813 L 217.453125 616.3125 L 218.367188 615.226563 L 219.304688 614.125 L 220.257813 613.011719 L 221.226563 611.886719 L 222.214844 610.742188 L 223.222656 609.589844 L 224.246094 608.417969 L 225.292969 607.238281 L 226.351563 606.042969 L 227.433594 604.835938 L 228.53125 603.617188 L 229.644531 602.382813 L 230.777344 601.140625 L 231.929688 599.882813 L 233.101563 598.617188 L 234.289063 597.335938 L 235.496094 596.046875 L 236.71875 594.746094 L 237.960938 593.433594 L 239.222656 592.109375 L 240.5 590.777344 L 241.792969 589.433594 L 243.109375 588.078125 L 244.441406 586.71875 L 245.789063 585.34375 L 247.15625 583.960938 L 248.539063 582.570313 L 249.941406 581.171875 L 251.363281 579.761719 L 252.796875 578.347656 L 254.253906 576.921875 L 255.726563 575.488281 L 257.214844 574.046875 L 258.71875 572.597656 L 260.242188 571.144531 L 261.785156 569.679688 L 263.34375 568.210938 L 264.917969 566.734375 L 266.507813 565.253906 L 268.117188 563.765625 L 269.742188 562.269531 L 271.382813 560.769531 L 273.039063 559.261719 L 274.714844 557.753906 L 276.402344 556.234375 L 278.109375 554.714844 L 279.832031 553.1875 L 281.570313 551.660156 L 283.324219 550.125 L 285.097656 548.585938 L 286.882813 547.042969 L 288.683594 545.5 L 290.5 543.949219 L 292.332031 542.398438 L 294.179688 540.84375 L 296.039063 539.285156 L 297.917969 537.726563 L 299.808594 536.164063 L 301.714844 534.601563 L 303.636719 533.035156 L 305.570313 531.46875 L 307.519531 529.898438 L 309.480469 528.328125 L 311.460938 526.757813 L 313.449219 525.1875 L 315.453125 523.613281 L 317.472656 522.042969 L 319.503906 520.46875 L 321.546875 518.898438 L 323.601563 517.328125 L 325.671875 515.753906 L 327.753906 514.183594 L 329.851563 512.613281 L 331.957031 511.046875 L 334.074219 509.480469 L 336.207031 507.914063 L 338.351563 506.347656 L 340.503906 504.785156 L 342.667969 503.226563 L 344.847656 501.667969 L 347.035156 500.113281 L 349.234375 498.5625 L 351.441406 497.011719 L 353.660156 495.464844 L 355.890625 493.921875 L 358.128906 492.382813 L 360.378906 490.847656 L 362.640625 489.316406 L 364.910156 487.789063 L 367.1875 486.261719 L 369.472656 484.742188 L 371.769531 483.230469 L 374.074219 481.71875 L 376.386719 480.214844 L 378.707031 478.710938 L 381.035156 477.21875 L 383.371094 475.726563 L 385.714844 474.242188 L 388.066406 472.765625 L 390.425781 471.292969 L 392.789063 469.824219 L 395.160156 468.367188 L 397.539063 466.910156 L 399.925781 465.464844 L 402.3125 464.023438 L 404.710938 462.589844 L 407.109375 461.164063 L 409.519531 459.742188 L 411.929688 458.328125 L 414.34375 456.925781 L 416.765625 455.527344 L 419.191406 454.136719 L 421.621094 452.753906 L 424.054688 451.378906 L 426.488281 450.015625 L 428.929688 448.65625 L 431.371094 447.308594 L 433.816406 445.964844 L 436.265625 444.632813 L 438.71875 443.308594 L 441.167969 441.996094 L 443.625 440.6875 L 446.082031 439.390625 L 448.539063 438.105469 L 450.996094 436.824219 L 453.453125 435.554688 L 455.914063 434.296875 L 458.375 433.046875 L 460.835938 431.804688 L 463.292969 430.574219 L 465.753906 429.355469 L 468.214844 428.144531 L 470.671875 426.945313 L 473.128906 425.753906 L 475.582031 424.574219 L 478.035156 423.402344 L 480.488281 422.242188 L 482.9375 421.09375 L 485.382813 419.957031 L 487.824219 418.828125 L 490.265625 417.710938 L 492.703125 416.605469 L 495.136719 415.507813 L 497.566406 414.425781 L 499.992188 413.351563 L 502.414063 412.289063 L 504.832031 411.238281 L 507.242188 410.195313 L 509.648438 409.167969 L 512.050781 408.148438 L 514.445313 407.144531 L 516.835938 406.148438 L 519.21875 405.164063 L 521.597656 404.191406 L 523.96875 403.230469 L 526.332031 402.28125 L 528.6875 401.339844 L 531.035156 400.414063 L 533.378906 399.5 L 535.710938 398.597656 L 538.035156 397.703125 L 540.351563 396.824219 L 542.660156 395.953125 L 544.957031 395.097656 L 547.246094 394.253906 L 549.527344 393.417969 L 551.796875 392.597656 L 554.054688 391.785156 L 556.304688 390.988281 L 558.542969 390.199219 L 560.773438 389.425781 L 562.988281 388.660156 L 565.195313 387.910156 L 567.390625 387.167969 L 569.574219 386.4375 L 571.742188 385.722656 L 573.902344 385.015625 L 576.046875 384.320313 L 578.179688 383.640625 L 580.300781 382.96875 L 582.40625 382.308594 L 584.5 381.660156 L 586.578125 381.023438 L 588.644531 380.398438 L 590.695313 379.785156 L 592.734375 379.179688 L 594.757813 378.589844 L 596.761719 378.007813 L 598.753906 377.4375 L 600.734375 376.882813 L 602.695313 376.335938 L 604.640625 375.796875 L 606.570313 375.273438 L 608.484375 374.757813 L 610.378906 374.253906 L 612.257813 373.761719 L 614.121094 373.28125 L 615.96875 372.808594 L 617.796875 372.347656 L 619.609375 371.898438 L 621.402344 371.457031 L 623.179688 371.027344 L 624.9375 370.609375 L 626.675781 370.199219 L 628.394531 369.800781 L 630.097656 369.410156 L 631.78125 369.03125 L 633.445313 368.660156 L 635.089844 368.300781 L 636.714844 367.953125 L 638.320313 367.609375 L 639.902344 367.28125 L 641.46875 366.957031 L 643.015625 366.644531 L 644.539063 366.339844 L 646.042969 366.046875 L 647.523438 365.761719 L 648.988281 365.484375 L 650.429688 365.214844 L 651.847656 364.957031 L 653.246094 364.707031 L 654.621094 364.464844 L 655.976563 364.230469 L 657.308594 364.003906 L 658.621094 363.785156 L 659.90625 363.574219 L 661.175781 363.371094 L 662.417969 363.175781 L 663.636719 362.988281 L 664.835938 362.808594 L 666.011719 362.636719 L 667.160156 362.46875 L 668.289063 362.308594 L 669.394531 362.15625 L 670.476563 362.011719 L 671.535156 361.875 L 672.566406 361.742188 L 673.578125 361.617188 L 674.5625 361.496094 L 675.523438 361.382813 L 676.460938 361.273438 L 677.375 361.171875 L 678.265625 361.074219 L 679.128906 360.984375 L 679.96875 360.898438 L 680.78125 360.816406 L 681.570313 360.738281 L 682.335938 360.667969 L 683.074219 360.601563 L 683.789063 360.539063 L 684.480469 360.484375 L 685.144531 360.429688 L 685.78125 360.378906 L 686.394531 360.335938 L 686.980469 360.292969 L 687.542969 360.253906 L 688.078125 360.21875 L 688.589844 360.1875 L 689.074219 360.160156 L 689.535156 360.136719 L 689.964844 360.113281 L 690.375 360.09375 L 690.753906 360.074219 L 691.109375 360.0625 L 691.4375 360.046875 L 691.738281 360.035156 L 692.015625 360.027344 L 692.265625 360.019531 L 692.488281 360.015625 L 692.6875 360.007813 L 692.859375 360.007813 L 693.003906 360.003906 L 693.121094 360 Z M 693.332031 360 "/>
  </g>
</svg>
