<?xml version="1.0" encoding="UTF-8"?>
<svg xmlns="http://www.w3.org/2000/svg" xmlns:xlink="http://www.w3.org/1999/xlink" width="100%" height="100%" viewBox="0 0 720 720" version="1.1">
  <g id="spiro_3_1_1_49778">
    <path style=" stroke:none;fill-rule:evenodd;fill:rgb(25.490196%,41.176471%,88.235294%);fill-opacity:1;" d="M 693.332031 360 L 693.121094 360 L 693.003906 359.996094 L 692.859375 359.992188 L 692.6875 359.992188 L 692.488281 359.984375 L 692.265625 359.980469 L 692.015625 359.972656 L 691.738281 359.964844 L 691.4375 359.953125 L 691.109375 359.9375 L 690.753906 359.925781 L 690.375 359.90625 L 689.964844 359.886719 L 689.535156 359.863281 L 689.074219 359.839844 L 688.589844 359.8125 L 688.078125 359.78125 L 687.542969 359.746094 L 686.980469 359.707031 L 686.394531 359.664063 L 685.78125 359.621094 L 685.144531 359.570313 L 684.480469 359.515625 L 683.789063 359.460938 L 683.074219 359.398438 L 682.335938 359.332031 L 681.570313 359.261719 L 680.78125 359.183594 L 679.96875 359.101563 L 679.128906 359.015625 L 678.265625 358.925781 L 677.375 358.828125 L 676.460938 358.726563 L 675.523438 358.617188 L 674.5625 358.503906 L 673.578125 358.382813 L 672.566406 358.257813 L 671.535156 358.125 L 670.476563 357.988281 L 669.394531 357.84375 L 668.289063 357.691406 L 667.160156 357.53125 L 666.011719 357.363281 L 664.835938 357.191406 L 663.636719 357.011719 L 662.417969 356.824219 L 661.175781 356.628906 L 659.90625 356.425781 L 658.621094 356.214844 L 657.308594 355.996094 L 655.976563 355.769531 L 654.621094 355.535156 L 653.246094 355.292969 L 651.847656 355.042969 L 650.429688 354.785156 L 648.988281 354.515625 L 647.523438 354.238281 L 646.042969 353.953125 L 644.539063 353.660156 L 643.015625 353.355469 L 641.46875 353.042969 L 639.902344 352.71875 L 638.320313 352.390625 L 636.714844 352.046875 L 635.089844 351.699219 L 633.445313 351.339844 L 631.78125 350.96875 L 630.097656 350.589844 L 628.394531 350.199219 L 626.675781 349.800781 L 624.9375 349.390625 L 623.179688 348.972656 L 621.402344 348.542969 L 619.609375 348.101563 L 617.796875 347.652344 L 615.96875 347.191406 L 614.121094 346.71875 L 612.257813 346.238281 L 610.378906 345.746094 L 608.484375 345.242188 L 606.570313 344.726563 L 604.640625 344.203125 L 602.695313 343.664063 L 600.734375 343.117188 L 598.753906 342.5625 L 596.761719 341.992188 L 594.757813 341.410156 L 592.734375 340.820313 L 590.695313 340.214844 L 588.644531 339.601563 L 586.578125 338.976563 L 584.5 338.339844 L 582.40625 337.691406 L 580.300781 337.03125 L 578.179688 336.359375 L 576.046875 335.679688 L 573.902344 334.984375 L 571.742188 334.277344 L 569.574219 333.5625 L 567.390625 332.832031 L 565.195313 332.089844 L 562.988281 331.339844 L 560.773438 330.574219 L 558.542969 329.800781 L 556.304688 329.011719 L 554.054688 328.214844 L 551.796875 327.402344 L 549.527344 326.582031 L 547.246094 325.746094 L 544.957031 324.902344 L 542.660156 324.046875 L 540.351563 323.175781 L 538.035156 322.296875 L 535.710938 321.402344 L 533.378906 320.5 L 531.035156 319.585938 L 528.6875 318.660156 L 526.332031 317.71875 L 523.96875 316.769531 L 521.597656 315.808594 L 519.21875 314.835938 L 516.835938 313.851563 L 514.445313 312.855469 L 512.050781 311.851563 L 509.648438 310.832031 L 507.242188 309.804688 L 504.832031 308.761719 L 502.414063 307.710938 L 499.992188 306.648438 L 497.566406 305.574219 L 495.136719 304.492188 L 492.703125 303.394531 L 490.265625 302.289063 L 487.824219 301.171875 L 485.382813 300.042969 L 482.9375 298.90625 L 480.488281 297.757813 L 478.035156 296.597656 L 475.582031 295.425781 L 473.128906 294.246094 L 470.671875 293.054688 L 468.214844 291.855469 L 465.753906 290.644531 L 463.292969 289.425781 L 460.835938 288.195313 L 458.375 286.953125 L 455.914063 285.703125 L 453.453125 284.445313 L 450.996094 283.175781 L 448.539063 281.894531 L 446.082031 280.609375 L 443.625 279.3125 L 441.167969 278.003906 L 438.71875 276.691406 L 436.265625 275.367188 L 433.816406 274.035156 L 431.371094 272.691406 L 428.929688 271.34375 L 426.488281 269.984375 L 424.054688 268.621094 L 421.621094 267.246094 L 419.191406 265.863281 L 416.765625 264.472656 L 414.34375 263.074219 L 411.929688 261.671875 L 409.519531 260.257813 L 407.109375 258.835938 L 404.710938 257.410156 L 402.3125 255.976563 L 399.925781 254.535156 L 397.539063 253.089844 L 395.160156 251.632813 L 392.789063 250.175781 L 390.425781 248.707031 L 388.066406 247.234375 L 385.714844 245.757813 L 383.371094 244.273438 L 381.035156 242.78125 L 378.707031 241.289063 L 376.386719 239.785156 L 374.074219 238.28125 L 371.769531 236.769531 L 369.472656 235.257813 L 367.1875 233.738281 L 364.910156 232.210938 L 362.640625 230.683594 L 360.378906 229.152344 L 358.128906 227.617188 L 355.890625 226.078125 L 353.660156 224.535156 L 351.441406 222.988281 L 349.234375 221.4375 L 347.035156 219.886719 L 344.847656 218.332031 L 342.667969 216.773438 L 340.503906 215.214844 L 338.351563 213.652344 L 336.207031 212.085938 L 334.074219 210.519531 L 331.957031 208.953125 L 329.851563 207.386719 L 327.753906 205.816406 L 325.671875 204.246094 L 323.601563 202.671875 L 321.546875 201.101563 L 319.503906 199.53125 L 317.472656 197.957031 L 315.453125 196.386719 L 313.449219 194.8125 L 311.460938 193.242188 L 309.480469 191.671875 L 307.519531 190.101563 L 305.570313 188.53125 L 303.636719 186.964844 L 301.714844 185.398438 L 299.808594 183.835938 L 297.917969 182.273438 L 296.039063 180.714844 L 294.179688 179.15625 L 292.332031 177.601563 L 290.5 176.050781 L 288.683594 174.5 L 286.882813 172.957031 L 285.097656 171.414063 L 283.324219 169.875 L 281.570313 168.339844 L 279.832031 166.8125 L 278.109375 165.285156 L 276.402344 163.765625 L 274.714844 162.246094 L 273.039063 160.738281 L 271.382813 159.230469 L 269.742188 157.730469 L 268.117188 156.234375 L 266.507813 154.746094 L 264.917969 153.265625 L 263.34375 151.789063 L 261.785156 150.320313 L 260.242188 148.855469 L 258.71875 147.402344 L 257.214844 145.953125 L 255.726563 144.511719 L 254.253906 143.078125 L 252.796875 141.652344 L 251.363281 140.238281 L 249.941406 138.828125 L 248.539063 137.429688 L 247.15625 136.039063 L 245.789063 134.65625 L 244.441406 133.28125 L 243.109375 131.921875 L 241.792969 130.566406 L 240.5 129.222656 L 239.222656 127.890625 L 237.960938 126.566406 L 236.71875 125.253906 L 235.496094 123.953125 L 234.289063 122.664063 L 233.101563 121.382813 L 231.929688 120.117188 L 230.777344 118.859375 L 229.644531 117.617188 L 228.53125 116.382813 L 227.433594 115.164063 L 226.351563 113.957031 L 225.292969 112.761719 L 224.246094 111.582031 L 223.222656 110.410156 L 222.214844 109.257813 L 221.226563 108.113281 L 220.257813 106.988281 L 219.304688 105.875 L 218.367188 104.773438 L 217.453125 103.6875 L 216.554688 102.617188 L 215.675781 101.5625 L 214.8125 100.519531 L 213.96875 99.496094 L 213.140625 98.484375 L 212.332031 97.492188 L 211.542969 96.511719 L 210.769531 95.546875 L 210.015625 94.601563 L 209.277344 93.671875 L 208.558594 92.753906 L 207.855469 91.859375 L 207.171875 90.976563 L 206.503906 90.113281 L 205.855469 89.265625 L 205.222656 88.4375 L 204.609375 87.625 L 204.011719 86.832031 L 203.433594 86.058594 L 202.871094 85.300781 L 202.328125 84.558594 L 201.796875 83.839844 L 201.289063 83.136719 L 200.792969 82.453125 L 200.316406 81.785156 L 199.855469 81.140625 L 199.410156 80.515625 L 198.984375 79.90625 L 198.574219 79.320313 L 198.179688 78.75 L 197.800781 78.203125 L 197.4375 77.675781 L 197.09375 77.167969 L 196.761719 76.679688 L 196.152344 75.765625 L 195.867188 75.339844 L 195.601563 74.933594 L 195.351563 74.546875 L 195.113281 74.183594 L 194.894531 73.84375 L 194.6875 73.519531 L 194.5 73.222656 L 194.324219 72.941406 L 194.160156 72.6875 L 194.015625 72.453125 L 193.882813 72.238281 L 193.765625 72.046875 L 193.664063 71.878906 L 193.574219 71.734375 L 193.5 71.609375 L 193.441406 71.507813 L 193.394531 71.425781 L 193.359375 71.371094 L 193.339844 71.335938 L 193.332031 71.324219 L 193.339844 71.335938 L 193.359375 71.371094 L 193.390625 71.429688 L 193.4375 71.507813 L 193.496094 71.613281 L 193.566406 71.738281 L 193.648438 71.890625 L 193.742188 72.0625 L 193.847656 72.257813 L 193.96875 72.480469 L 194.097656 72.722656 L 194.238281 72.992188 L 194.394531 73.28125 L 194.558594 73.597656 L 194.734375 73.933594 L 194.917969 74.296875 L 195.117188 74.683594 L 195.324219 75.09375 L 195.542969 75.527344 L 195.769531 75.984375 L 196.007813 76.464844 L 196.253906 76.972656 L 196.511719 77.5 L 196.78125 78.054688 L 197.058594 78.632813 L 197.34375 79.234375 L 197.636719 79.859375 L 197.941406 80.507813 L 198.253906 81.183594 L 198.574219 81.882813 L 198.902344 82.601563 L 199.238281 83.347656 L 199.585938 84.117188 L 199.9375 84.914063 L 200.296875 85.730469 L 200.667969 86.574219 L 201.042969 87.4375 L 201.421875 88.328125 L 201.8125 89.242188 L 202.207031 90.179688 L 202.609375 91.140625 L 203.019531 92.125 L 203.433594 93.136719 L 203.855469 94.167969 L 204.28125 95.226563 L 204.714844 96.304688 L 205.152344 97.410156 L 205.59375 98.535156 L 206.042969 99.6875 L 206.492188 100.859375 L 206.949219 102.058594 L 207.414063 103.28125 L 207.878906 104.523438 L 208.347656 105.792969 L 208.824219 107.082031 L 209.300781 108.394531 L 209.785156 109.730469 L 210.269531 111.089844 L 210.757813 112.472656 L 211.246094 113.875 L 211.742188 115.304688 L 212.238281 116.753906 L 212.738281 118.226563 L 213.238281 119.71875 L 213.742188 121.234375 L 214.25 122.773438 L 214.757813 124.335938 L 215.265625 125.917969 L 215.777344 127.519531 L 216.289063 129.148438 L 216.800781 130.792969 L 217.316406 132.460938 L 217.828125 134.152344 L 218.34375 135.863281 L 218.859375 137.59375 L 219.375 139.347656 L 219.890625 141.121094 L 220.40625 142.914063 L 220.921875 144.730469 L 221.4375 146.5625 L 221.953125 148.417969 L 222.464844 150.292969 L 222.976563 152.1875 L 223.488281 154.101563 L 224 156.035156 L 224.507813 157.988281 L 225.015625 159.960938 L 225.519531 161.953125 L 226.023438 163.960938 L 226.523438 165.988281 L 227.023438 168.035156 L 227.519531 170.101563 L 228.011719 172.1875 L 228.503906 174.289063 L 228.992188 176.40625 L 229.476563 178.542969 L 229.960938 180.699219 L 230.4375 182.871094 L 230.914063 185.058594 L 231.382813 187.265625 L 231.851563 189.484375 L 232.316406 191.722656 L 232.777344 193.980469 L 233.234375 196.25 L 233.683594 198.535156 L 234.132813 200.835938 L 234.574219 203.15625 L 235.011719 205.488281 L 235.445313 207.835938 L 235.871094 210.199219 L 236.296875 212.574219 L 236.714844 214.964844 L 237.125 217.371094 L 237.53125 219.789063 L 237.933594 222.222656 L 238.328125 224.667969 L 238.71875 227.128906 L 239.105469 229.601563 L 239.480469 232.085938 L 239.851563 234.582031 L 240.21875 237.09375 L 240.578125 239.613281 L 240.929688 242.148438 L 241.277344 244.691406 L 241.617188 247.25 L 241.949219 249.816406 L 242.277344 252.394531 L 242.59375 254.984375 L 242.90625 257.582031 L 243.210938 260.191406 L 243.507813 262.808594 L 243.800781 265.4375 L 244.082031 268.074219 L 244.359375 270.722656 L 244.628906 273.378906 L 244.886719 276.042969 L 245.140625 278.714844 L 245.386719 281.394531 L 245.621094 284.082031 L 245.851563 286.777344 L 246.074219 289.480469 L 246.285156 292.1875 L 246.492188 294.90625 L 246.691406 297.628906 L 246.878906 300.355469 L 247.058594 303.089844 L 247.230469 305.832031 L 247.394531 308.578125 L 247.550781 311.328125 L 247.699219 314.082031 L 247.839844 316.84375 L 247.96875 319.609375 L 248.089844 322.375 L 248.203125 325.148438 L 248.308594 327.921875 L 248.40625 330.703125 L 248.492188 333.484375 L 248.570313 336.269531 L 248.640625 339.054688 L 248.703125 341.84375 L 248.757813 344.632813 L 248.800781 347.425781 L 248.835938 350.21875 L 248.863281 353.011719 L 248.878906 355.808594 L 248.886719 358.601563 L 248.886719 361.398438 L 248.878906 364.191406 L 248.863281 366.988281 L 248.835938 369.78125 L 248.800781 372.574219 L 248.757813 375.367188 L 248.703125 378.15625 L 248.640625 380.945313 L 248.570313 383.730469 L 248.492188 386.515625 L 248.40625 389.296875 L 248.308594 392.078125 L 248.203125 394.851563 L 248.089844 397.625 L 247.96875 400.390625 L 247.839844 403.15625 L 247.699219 405.917969 L 247.550781 408.671875 L 247.394531 411.421875 L 247.230469 414.167969 L 247.058594 416.910156 L 246.878906 419.644531 L 246.691406 422.371094 L 246.492188 425.09375 L 246.285156 427.8125 L 246.074219 430.519531 L 245.851563 433.222656 L 245.621094 435.917969 L 245.386719 438.605469 L 245.140625 441.285156 L 244.886719 443.957031 L 244.628906 446.621094 L 244.359375 449.277344 L 244.082031 451.925781 L 243.800781 454.5625 L 243.507813 457.191406 L 243.210938 459.808594 L 242.90625 462.417969 L 242.59375 465.015625 L 242.277344 467.605469 L 241.949219 470.183594 L 241.617188 472.75 L 241.277344 475.308594 L 240.929688 477.851563 L 240.578125 480.386719 L 240.21875 482.90625 L 239.851563 485.417969 L 239.480469 487.914063 L 239.105469 490.398438 L 238.71875 492.871094 L 238.328125 495.332031 L 237.933594 497.777344 L 237.53125 500.210938 L 237.125 502.628906 L 236.714844 505.035156 L 236.296875 507.425781 L 235.871094 509.800781 L 235.445313 512.164063 L 235.011719 514.511719 L 234.574219 516.84375 L 234.132813 519.164063 L 233.683594 521.464844 L 233.234375 523.75 L 232.777344 526.019531 L 232.316406 528.277344 L 231.851563 530.515625 L 231.382813 532.734375 L 230.914063 534.941406 L 230.4375 537.128906 L 229.960938 539.300781 L 229.476563 541.457031 L 228.992188 543.59375 L 228.503906 545.710938 L 228.011719 547.8125 L 227.519531 549.898438 L 227.023438 551.964844 L 226.523438 554.011719 L 226.023438 556.039063 L 225.519531 558.046875 L 225.015625 560.039063 L 224.507813 562.011719 L 224 563.964844 L 223.488281 565.898438 L 222.976563 567.8125 L 222.464844 569.707031 L 221.953125 571.582031 L 221.4375 573.4375 L 220.921875 575.269531 L 220.40625 577.085938 L 219.890625 578.878906 L 219.375 580.652344 L 218.859375 582.40625 L 218.34375 584.136719 L 217.828125 585.847656 L 217.316406 587.539063 L 216.800781 589.207031 L 216.289063 590.851563 L 215.777344 592.480469 L 215.265625 594.082031 L 214.757813 595.664063 L 214.25 597.226563 L 213.742188 598.765625 L 213.238281 600.28125 L 212.738281 601.773438 L 212.238281 603.246094 L 211.742188 604.695313 L 211.246094 606.125 L 210.757813 607.527344 L 210.269531 608.910156 L 209.785156 610.269531 L 209.300781 611.605469 L 208.824219 612.917969 L 208.347656 614.207031 L 207.878906 615.476563 L 207.414063 616.71875 L 206.949219 617.941406 L 206.492188 619.140625 L 206.042969 620.3125 L 205.59375 621.464844 L 205.152344 622.589844 L 204.714844 623.695313 L 204.28125 624.773438 L 203.855469 625.832031 L 203.433594 626.863281 L 203.019531 627.875 L 202.609375 628.859375 L 202.207031 629.820313 L 201.8125 630.757813 L 201.421875 631.671875 L 201.042969 632.5625 L 200.667969 633.425781 L 200.296875 634.269531 L 199.9375 635.085938 L 199.585938 635.882813 L 199.238281 636.652344 L 198.902344 637.398438 L 198.574219 638.117188 L 198.253906 638.816406 L 197.941406 639.492188 L 197.636719 640.140625 L 197.34375 640.765625 L 197.058594 641.367188 L 196.78125 641.945313 L 196.511719 642.5 L 196.253906 643.027344 L 196.007813 643.535156 L 195.769531 644.015625 L 195.542969 644.472656 L 195.324219 644.90625 L 195.117188 645.316406 L 194.917969 645.703125 L 194.734375 646.066406 L 194.558594 646.402344 L 194.394531 646.71875 L 194.238281 647.007813 L 194.097656 647.277344 L 193.96875 647.519531 L 193.847656 647.742188 L 193.742188 647.9375 L 193.648438 648.109375 L 193.566406 648.261719 L 193.496094 648.386719 L 193.4375 648.492188 L 193.390625 648.570313 L 193.359375 648.628906 L 193.339844 648.664063 L 193.332031 648.675781 L 193.339844 648.664063 L 193.359375 648.628906 L 193.394531 648.574219 L 193.441406 648.492188 L 193.5 648.390625 L 193.574219 648.265625 L 193.664063 648.121094 L 193.765625 647.953125 L 193.882813 647.761719 L 194.015625 647.546875 L 194.160156 647.3125 L 194.324219 647.058594 L 194.5 646.777344 L 194.6875 646.480469 L 194.894531 646.15625 L 195.113281 645.816406 L 195.351563 645.453125 L 195.601563 645.066406 L 195.867188 644.660156 L 196.152344 644.234375 L 196.761719 643.320313 L 197.09375 642.832031 L 197.4375 642.324219 L 197.800781 641.796875 L 198.179688 641.25 L 198.574219 640.679688 L 198.984375 640.09375 L 199.410156 639.484375 L 199.855469 638.859375 L 200.316406 638.214844 L 200.792969 637.546875 L 201.289063 636.863281 L 201.796875 636.160156 L 202.328125 635.441406 L 202.871094 634.699219 L 203.433594 633.941406 L 204.011719 633.167969 L 204.609375 632.375 L 205.222656 631.5625 L 205.855469 630.734375 L 206.503906 629.886719 L 207.171875 629.023438 L 207.855469 628.140625 L 208.558594 627.246094 L 209.277344 626.328125 L 210.015625 625.398438 L 210.769531 624.453125 L 211.542969 623.488281 L 212.332031 622.507813 L 213.140625 621.515625 L 213.96875 620.503906 L 214.8125 619.480469 L 215.675781 618.4375 L 216.554688 617.382813 L 217.453125 616.3125 L 218.367188 615.226563 L 219.304688 614.125 L 220.257813 613.011719 L 221.226563 611.886719 L 222.214844 610.742188 L 223.222656 609.589844 L 224.246094 608.417969 L 225.292969 607.238281 L 226.351563 606.042969 L 227.433594 604.835938 L 228.53125 603.617188 L 229.644531 602.382813 L 230.777344 601.140625 L 231.929688 599.882813 L 233.101563 598.617188 L 234.289063 597.335938 L 235.496094 596.046875 L 236.71875 594.746094 L 237.960938 593.433594 L 239.222656 592.109375 L 240.5 590.777344 L 241.792969 589.433594 L 243.109375 588.078125 L 244.441406 586.71875 L 245.789063 585.34375 L 247.15625 583.960938 L 248.539063 582.570313 L 249.941406 581.171875 L 251.363281 579.761719 L 252.796875 578.347656 L 254.253906 576.921875 L 255.726563 575.488281 L 257.214844 574.046875 L 258.71875 572.597656 L 260.242188 571.144531 L 261.785156 569.679688 L 263.34375 568.210938 L 264.917969 566.734375 L 266.507813 565.253906 L 268.117188 563.765625 L 269.742188 562.269531 L 271.382813 560.769531 L 273.039063 559.261719 L 274.714844 557.753906 L 276.402344 556.234375 L 278.109375 554.714844 L 279.832031 553.1875 L 281.570313 551.660156 L 283.324219 550.125 L 285.097656 548.585938 L 286.882813 547.042969 L 288.683594 545.5 L 290.5 543.949219 L 292.332031 542.398438 L 294.179688 540.84375 L 296.039063 539.285156 L 297.917969 537.726563 L 299.808594 536.164063 L 301.714844 534.601563 L 303.636719 533.035156 L 305.570313 531.46875 L 307.519531 529.898438 L 309.480469 528.328125 L 311.460938 526.757813 L 313.449219 525.1875 L 315.453125 523.613281 L 317.472656 522.042969 L 319.503906 520.46875 L 321.546875 518.898438 L 323.601563 517.328125 L 325.671875 515.753906 L 327.753906 514.183594 L 329.851563 512.613281 L 331.957031 511.046875 L 334.074219 509.480469 L 336.207031 507.914063 L 338.351563 506.347656 L 340.503906 504.785156 L 342.667969 503.226563 L 344.847656 501.667969 L 347.035156 500.113281 L 349.234375 498.5625 L 351.441406 497.011719 L 353.660156 495.464844 L 355.890625 493.921875 L 358.128906 492.382813 L 360.378906 490.847656 L 362.640625 489.316406 L 364.910156 487.789063 L 367.1875 486.261719 L 369.472656 484.742188 L 371.769531 483.230469 L 374.074219 481.71875 L 376.386719 480.214844 L 378.707031 478.710938 L 381.035156 477.21875 L 383.371094 475.726563 L 385.714844 474.242188 L 388.066406 472.765625 L 390.425781 471.292969 L 392.789063 469.824219 L 395.160156 468.367188 L 397.539063 466.910156 L 399.925781 465.464844 L 402.3125 464.023438 L 404.710938 462.589844 L 407.109375 461.164063 L 409.519531 459.742188 L 411.929688 458.328125 L 414.34375 456.925781 L 416.765625 455.527344 L 419.191406 454.136719 L 421.621094 452.753906 L 424.054688 451.378906 L 426.488281 450.015625 L 428.929688 448.65625 L 431.371094 447.308594 L 433.816406 445.964844 L 436.265625 444.632813 L 438.71875 443.308594 L 441.167969 441.996094 L 443.625 440.6875 L 446.082031 439.390625 L 448.539063 438.105469 L 450.996094 436.824219 L 453.453125 435.554688 L 455.914063 434.296875 L 458.375 433.046875 L 460.835938 431.804688 L 463.292969 430.574219 L 465.753906 429.355469 L 468.214844 428.144531 L 470.671875 426.945313 L 473.128906 425.753906 L 475.582031 424.574219 L 478.035156 423.402344 L 480.488281 422.242188 L 482.9375 421.09375 L 485.382813 419.957031 L 487.824219 418.828125 L 490.265625 417.710938 L 492.703125 416.605469 L 495.136719 415.507813 L 497.566406 414.425781 L 499.992188 413.351563 L 502.414063 412.289063 L 504.832031 411.238281 L 507.242188 410.195313 L 509.648438 409.167969 L 512.050781 408.148438 L 514.445313 407.144531 L 516.835938 406.148438 L 519.21875 405.164063 L 521.597656 404.191406 L 523.96875 403.230469 L 526.332031 402.28125 L 528.6875 401.339844 L 531.035156 400.414063 L 533.378906 399.5 L 535.710938 398.597656 L 538.035156 397.703125 L 540.351563 396.824219 L 542.660156 395.953125 L 544.957031 395.097656 L 547.246094 394.253906 L 549.527344 393.417969 L 551.796875 392.597656 L 554.054688 391.785156 L 556.304688 390.988281 L 558.542969 390.199219 L 560.773438 389.425781 L 562.988281 388.660156 L 565.195313 387.910156 L 567.390625 387.167969 L 569.574219 386.4375 L 571.742188 385.722656 L 573.902344 385.015625 L 576.046875 384.320313 L 578.179688 383.640625 L 580.300781 382.96875 L 582.40625 382.308594 L 584.5 381.660156 L 586.578125 381.023438 L 588.644531 380.398438 L 590.695313 379.785156 L 592.734375 379.179688 L 594.757813 378.589844 L 596.761719 378.007813 L 598.753906 377.4375 L 600.734375 376.882813 L 602.695313 376.335938 L 604.640625 375.796875 L 606.570313 375.273438 L 608.484375 374.757813 L 610.378906 374.253906 L 612.257813 373.761719 L 614.121094 373.28125 L 615.96875 372.808594 L 617.796875 372.347656 L 619.609375 371.898438 L 621.402344 371.457031 L 623.179688 371.027344 L 624.9375 370.609375 L 626.675781 370.199219 L 628.394531 369.800781 L 630.097656 369.410156 L 631.78125 369.03125 L 633.445313 368.660156 L 635.089844 368.300781 L 636.714844 367.953125 L 638.320313 367.609375 L 639.902344 367.28125 L 641.46875 366.957031 L 643.015625 366.644531 L 644.539063 366.339844 L 646.042969 366.046875 L 647.523438 365.761719 L 648.988281 365.484375 L 650.429688 365.214844 L 651.847656 364.957031 L 653.246094 364.707031 L 654.621094 364.464844 L 655.976563 364.230469 L 657.308594 364.003906 L 658.621094 363.785156 L 659.90625 363.574219 L 661.175781 363.371094 L 662.417969 363.175781 L 663.636719 362.988281 L 664.835938 362.808594 L 666.011719 362.636719 L 667.160156 362.46875 L 668.289063 362.308594 L 669.394531 362.15625 L 670.476563 362.011719 L 671.535156 361.875 L 672.566406 361.742188 L 673.578125 361.617188 L 674.5625 361.496094 L 675.523438 361.382813 L 676.460938 361.273438 L 677.375 361.171875 L 678.265625 361.074219 L 679.128906 360.984375 L 679.96875 360.898438 L 680.78125 360.816406 L 681.570313 360.738281 L 682.335938 360.667969 L 683.074219 360.601563 L 683.789063 360.539063 L 684.480469 360.484375 L 685.144531 360.429688 L 685.78125 360.378906 L 686.394531 360.335938 L 686.980469 360.292969 L 687.542969 360.253906 L 688.078125 360.21875 L 688.589844 360.1875 L 689.074219 360.160156 L 689.535156 360.136719 L 689.964844 360.113281 L 690.375 360.09375 L 690.753906 360.074219 L 691.109375 360.0625 L 691.4375 360.046875 L 691.738281 360.035156 L 692.015625 360.027344 L 692.265625 360.019531 L 692.488281 360.015625 L 692.6875 360.007813 L 692.859375 360.007813 L 693.003906 360.003906 L 693.121094 360 Z M 693.332031 360 "/>
  </g>
  <g xmlns="http://www.w3.org/2000/svg" id="spiro_3_1_1_28977">
    <path style=" stroke:none;fill-rule:evenodd;fill:rgb(69.803922%,13.333333%,13.333333%);fill-opacity:1;" d="M 26.667969 360 L 26.878906 360 L 26.996094 360.003906 L 27.140625 360.007813 L 27.3125 360.007813 L 27.511719 360.015625 L 27.734375 360.019531 L 27.984375 360.027344 L 28.261719 360.035156 L 28.5625 360.046875 L 28.890625 360.0625 L 29.246094 360.074219 L 29.625 360.09375 L 30.035156 360.113281 L 30.464844 360.136719 L 30.925781 360.160156 L 31.410156 360.1875 L 31.921875 360.21875 L 32.457031 360.253906 L 33.019531 360.292969 L 33.605469 360.335938 L 34.21875 360.378906 L 34.855469 360.429688 L 35.519531 360.484375 L 36.210938 360.539063 L 36.925781 360.601563 L 37.664063 360.667969 L 38.429688 360.738281 L 39.21875 360.816406 L 40.03125 360.898438 L 40.871094 360.984375 L 41.734375 361.074219 L 42.625 361.171875 L 43.539063 361.273438 L 44.476563 361.382813 L 45.4375 361.496094 L 46.421875 361.617188 L 47.433594 361.742188 L 48.464844 361.875 L 49.523438 362.011719 L 50.605469 362.15625 L 51.710938 362.308594 L 52.839844 362.46875 L 53.988281 362.636719 L 55.164063 362.808594 L 56.363281 362.988281 L 57.582031 363.175781 L 58.824219 363.371094 L 60.09375 363.574219 L 61.378906 363.785156 L 62.691406 364.003906 L 64.023438 364.230469 L 65.378906 364.464844 L 66.753906 364.707031 L 68.152344 364.957031 L 69.570313 365.214844 L 71.011719 365.484375 L 72.476563 365.761719 L 73.957031 366.046875 L 75.460938 366.339844 L 76.984375 366.644531 L 78.53125 366.957031 L 80.097656 367.28125 L 81.679688 367.609375 L 83.285156 367.953125 L 84.910156 368.300781 L 86.554688 368.660156 L 88.21875 369.03125 L 89.902344 369.410156 L 91.605469 369.800781 L 93.324219 370.199219 L 95.0625 370.609375 L 96.820313 371.027344 L 98.597656 371.457031 L 100.390625 371.898438 L 102.203125 372.347656 L 104.03125 372.808594 L 105.878906 373.28125 L 107.742188 373.761719 L 109.621094 374.253906 L 111.515625 374.757813 L 113.429688 375.273438 L 115.359375 375.796875 L 117.304688 376.335938 L 119.265625 376.882813 L 121.246094 377.4375 L 123.238281 378.007813 L 125.242188 378.589844 L 127.265625 379.179688 L 129.304688 379.785156 L 131.355469 380.398438 L 133.421875 381.023438 L 135.5 381.660156 L 137.59375 382.308594 L 139.699219 382.96875 L 141.820313 383.640625 L 143.953125 384.320313 L 146.097656 385.015625 L 148.257813 385.722656 L 150.425781 386.4375 L 152.609375 387.167969 L 154.804688 387.910156 L 157.011719 388.660156 L 159.226563 389.425781 L 161.457031 390.199219 L 163.695313 390.988281 L 165.945313 391.785156 L 168.203125 392.597656 L 170.472656 393.417969 L 172.753906 394.253906 L 175.042969 395.097656 L 177.339844 395.953125 L 179.648438 396.824219 L 181.964844 397.703125 L 184.289063 398.597656 L 186.621094 399.5 L 188.964844 400.414063 L 191.3125 401.339844 L 193.667969 402.28125 L 196.03125 403.230469 L 198.402344 404.191406 L 200.78125 405.164063 L 203.164063 406.148438 L 205.554688 407.144531 L 207.949219 408.148438 L 210.351563 409.167969 L 212.757813 410.195313 L 215.167969 411.238281 L 217.585938 412.289063 L 220.007813 413.351563 L 222.433594 414.425781 L 224.863281 415.507813 L 227.296875 416.605469 L 229.734375 417.710938 L 232.175781 418.828125 L 234.617188 419.957031 L 237.0625 421.09375 L 239.511719 422.242188 L 241.964844 423.402344 L 244.417969 424.574219 L 246.871094 425.753906 L 249.328125 426.945313 L 251.785156 428.144531 L 254.246094 429.355469 L 256.707031 430.574219 L 259.164063 431.804688 L 261.625 433.046875 L 264.085938 434.296875 L 266.546875 435.554688 L 269.003906 436.824219 L 271.460938 438.105469 L 273.917969 439.390625 L 276.375 440.6875 L 278.832031 441.996094 L 281.28125 443.308594 L 283.734375 444.632813 L 286.183594 445.964844 L 288.628906 447.308594 L 291.070313 448.65625 L 293.511719 450.015625 L 295.945313 451.378906 L 298.378906 452.753906 L 300.808594 454.136719 L 303.234375 455.527344 L 305.65625 456.925781 L 308.070313 458.328125 L 310.480469 459.742188 L 312.890625 461.164063 L 315.289063 462.589844 L 317.6875 464.023438 L 320.074219 465.464844 L 322.460938 466.910156 L 324.839844 468.367188 L 327.210938 469.824219 L 329.574219 471.292969 L 331.933594 472.765625 L 334.285156 474.242188 L 336.628906 475.726563 L 338.964844 477.21875 L 341.292969 478.710938 L 343.613281 480.214844 L 345.925781 481.71875 L 348.230469 483.230469 L 350.527344 484.742188 L 352.8125 486.261719 L 355.089844 487.789063 L 357.359375 489.316406 L 359.621094 490.847656 L 361.871094 492.382813 L 364.109375 493.921875 L 366.339844 495.464844 L 368.558594 497.011719 L 370.765625 498.5625 L 372.964844 500.113281 L 375.152344 501.667969 L 377.332031 503.226563 L 379.496094 504.785156 L 381.648438 506.347656 L 383.792969 507.914063 L 385.925781 509.480469 L 388.042969 511.046875 L 390.148438 512.613281 L 392.246094 514.183594 L 394.328125 515.753906 L 396.398438 517.328125 L 398.453125 518.898438 L 400.496094 520.46875 L 402.527344 522.042969 L 404.546875 523.613281 L 406.550781 525.1875 L 408.539063 526.757813 L 410.519531 528.328125 L 412.480469 529.898438 L 414.429688 531.46875 L 416.363281 533.035156 L 418.285156 534.601563 L 420.191406 536.164063 L 422.082031 537.726563 L 423.960938 539.285156 L 425.820313 540.84375 L 427.667969 542.398438 L 429.5 543.949219 L 431.316406 545.5 L 433.117188 547.042969 L 434.902344 548.585938 L 436.675781 550.125 L 438.429688 551.660156 L 440.167969 553.1875 L 441.890625 554.714844 L 443.597656 556.234375 L 445.285156 557.753906 L 446.960938 559.261719 L 448.617188 560.769531 L 450.257813 562.269531 L 451.882813 563.765625 L 453.492188 565.253906 L 455.082031 566.734375 L 456.65625 568.210938 L 458.214844 569.679688 L 459.757813 571.144531 L 461.28125 572.597656 L 462.785156 574.046875 L 464.273438 575.488281 L 465.746094 576.921875 L 467.203125 578.347656 L 468.636719 579.761719 L 470.058594 581.171875 L 471.460938 582.570313 L 472.84375 583.960938 L 474.210938 585.34375 L 475.558594 586.71875 L 476.890625 588.078125 L 478.207031 589.433594 L 479.5 590.777344 L 480.777344 592.109375 L 482.039063 593.433594 L 483.28125 594.746094 L 484.503906 596.046875 L 485.710938 597.335938 L 486.898438 598.617188 L 488.070313 599.882813 L 489.222656 601.140625 L 490.355469 602.382813 L 491.46875 603.617188 L 492.566406 604.835938 L 493.648438 606.042969 L 494.707031 607.238281 L 495.753906 608.417969 L 496.777344 609.589844 L 497.785156 610.742188 L 498.773438 611.886719 L 499.742188 613.011719 L 500.695313 614.125 L 501.632813 615.226563 L 502.546875 616.3125 L 503.445313 617.382813 L 504.324219 618.4375 L 505.1875 619.480469 L 506.03125 620.503906 L 506.859375 621.515625 L 507.667969 622.507813 L 508.457031 623.488281 L 509.230469 624.453125 L 509.984375 625.398438 L 510.722656 626.328125 L 511.441406 627.246094 L 512.144531 628.140625 L 512.828125 629.023438 L 513.496094 629.886719 L 514.144531 630.734375 L 514.777344 631.5625 L 515.390625 632.375 L 515.988281 633.167969 L 516.566406 633.941406 L 517.128906 634.699219 L 517.671875 635.441406 L 518.203125 636.160156 L 518.710938 636.863281 L 519.207031 637.546875 L 519.683594 638.214844 L 520.144531 638.859375 L 520.589844 639.484375 L 521.015625 640.09375 L 521.425781 640.679688 L 521.820313 641.25 L 522.199219 641.796875 L 522.5625 642.324219 L 522.90625 642.832031 L 523.238281 643.320313 L 523.847656 644.234375 L 524.132813 644.660156 L 524.398438 645.066406 L 524.648438 645.453125 L 524.886719 645.816406 L 525.105469 646.15625 L 525.3125 646.480469 L 525.5 646.777344 L 525.675781 647.058594 L 525.839844 647.3125 L 525.984375 647.546875 L 526.117188 647.761719 L 526.234375 647.953125 L 526.335938 648.121094 L 526.425781 648.265625 L 526.5 648.390625 L 526.558594 648.492188 L 526.605469 648.574219 L 526.640625 648.628906 L 526.660156 648.664063 L 526.667969 648.675781 L 526.660156 648.664063 L 526.640625 648.628906 L 526.609375 648.570313 L 526.5625 648.492188 L 526.503906 648.386719 L 526.433594 648.261719 L 526.351563 648.109375 L 526.257813 647.9375 L 526.152344 647.742188 L 526.03125 647.519531 L 525.902344 647.277344 L 525.761719 647.007813 L 525.605469 646.71875 L 525.441406 646.402344 L 525.265625 646.066406 L 525.082031 645.703125 L 524.882813 645.316406 L 524.675781 644.90625 L 524.457031 644.472656 L 524.230469 644.015625 L 523.992188 643.535156 L 523.746094 643.027344 L 523.488281 642.5 L 523.21875 641.945313 L 522.941406 641.367188 L 522.65625 640.765625 L 522.363281 640.140625 L 522.058594 639.492188 L 521.746094 638.816406 L 521.425781 638.117188 L 521.097656 637.398438 L 520.761719 636.652344 L 520.414063 635.882813 L 520.0625 635.085938 L 519.703125 634.269531 L 519.332031 633.425781 L 518.957031 632.5625 L 518.578125 631.671875 L 518.1875 630.757813 L 517.792969 629.820313 L 517.390625 628.859375 L 516.980469 627.875 L 516.566406 626.863281 L 516.144531 625.832031 L 515.71875 624.773438 L 515.285156 623.695313 L 514.847656 622.589844 L 514.40625 621.464844 L 513.957031 620.3125 L 513.507813 619.140625 L 513.050781 617.941406 L 512.585938 616.71875 L 512.121094 615.476563 L 511.652344 614.207031 L 511.175781 612.917969 L 510.699219 611.605469 L 510.214844 610.269531 L 509.730469 608.910156 L 509.242188 607.527344 L 508.753906 606.125 L 508.257813 604.695313 L 507.761719 603.246094 L 507.261719 601.773438 L 506.761719 600.28125 L 506.257813 598.765625 L 505.75 597.226563 L 505.242188 595.664063 L 504.734375 594.082031 L 504.222656 592.480469 L 503.710938 590.851563 L 503.199219 589.207031 L 502.683594 587.539063 L 502.171875 585.847656 L 501.65625 584.136719 L 501.140625 582.40625 L 500.625 580.652344 L 500.109375 578.878906 L 499.59375 577.085938 L 499.078125 575.269531 L 498.5625 573.4375 L 498.046875 571.582031 L 497.535156 569.707031 L 497.023438 567.8125 L 496.511719 565.898438 L 496 563.964844 L 495.492188 562.011719 L 494.984375 560.039063 L 494.480469 558.046875 L 493.976563 556.039063 L 493.476563 554.011719 L 492.976563 551.964844 L 492.480469 549.898438 L 491.988281 547.8125 L 491.496094 545.710938 L 491.007813 543.59375 L 490.523438 541.457031 L 490.039063 539.300781 L 489.5625 537.128906 L 489.085938 534.941406 L 488.617188 532.734375 L 488.148438 530.515625 L 487.683594 528.277344 L 487.222656 526.019531 L 486.765625 523.75 L 486.316406 521.464844 L 485.867188 519.164063 L 485.425781 516.84375 L 484.988281 514.511719 L 484.554688 512.164063 L 484.128906 509.800781 L 483.703125 507.425781 L 483.285156 505.035156 L 482.875 502.628906 L 482.46875 500.210938 L 482.066406 497.777344 L 481.671875 495.332031 L 481.28125 492.871094 L 480.894531 490.398438 L 480.519531 487.914063 L 480.148438 485.417969 L 479.78125 482.90625 L 479.421875 480.386719 L 479.070313 477.851563 L 478.722656 475.308594 L 478.382813 472.75 L 478.050781 470.183594 L 477.722656 467.605469 L 477.40625 465.015625 L 477.09375 462.417969 L 476.789063 459.808594 L 476.492188 457.191406 L 476.199219 454.5625 L 475.917969 451.925781 L 475.640625 449.277344 L 475.371094 446.621094 L 475.113281 443.957031 L 474.859375 441.285156 L 474.613281 438.605469 L 474.378906 435.917969 L 474.148438 433.222656 L 473.925781 430.519531 L 473.714844 427.8125 L 473.507813 425.09375 L 473.308594 422.371094 L 473.121094 419.644531 L 472.941406 416.910156 L 472.769531 414.167969 L 472.605469 411.421875 L 472.449219 408.671875 L 472.300781 405.917969 L 472.160156 403.15625 L 472.03125 400.390625 L 471.910156 397.625 L 471.796875 394.851563 L 471.691406 392.078125 L 471.59375 389.296875 L 471.507813 386.515625 L 471.429688 383.730469 L 471.359375 380.945313 L 471.296875 378.15625 L 471.242188 375.367188 L 471.199219 372.574219 L 471.164063 369.78125 L 471.136719 366.988281 L 471.121094 364.191406 L 471.113281 361.398438 L 471.113281 358.601563 L 471.121094 355.808594 L 471.136719 353.011719 L 471.164063 350.21875 L 471.199219 347.425781 L 471.242188 344.632813 L 471.296875 341.84375 L 471.359375 339.054688 L 471.429688 336.269531 L 471.507813 333.484375 L 471.59375 330.703125 L 471.691406 327.921875 L 471.796875 325.148438 L 471.910156 322.375 L 472.03125 319.609375 L 472.160156 316.84375 L 472.300781 314.082031 L 472.449219 311.328125 L 472.605469 308.578125 L 472.769531 305.832031 L 472.941406 303.089844 L 473.121094 300.355469 L 473.308594 297.628906 L 473.507813 294.90625 L 473.714844 292.1875 L 473.925781 289.480469 L 474.148438 286.777344 L 474.378906 284.082031 L 474.613281 281.394531 L 474.859375 278.714844 L 475.113281 276.042969 L 475.371094 273.378906 L 475.640625 270.722656 L 475.917969 268.074219 L 476.199219 265.4375 L 476.492188 262.808594 L 476.789063 260.191406 L 477.09375 257.582031 L 477.40625 254.984375 L 477.722656 252.394531 L 478.050781 249.816406 L 478.382813 247.25 L 478.722656 244.691406 L 479.070313 242.148438 L 479.421875 239.613281 L 479.78125 237.09375 L 480.148438 234.582031 L 480.519531 232.085938 L 480.894531 229.601563 L 481.28125 227.128906 L 481.671875 224.667969 L 482.066406 222.222656 L 482.46875 219.789063 L 482.875 217.371094 L 483.285156 214.964844 L 483.703125 212.574219 L 484.128906 210.199219 L 484.554688 207.835938 L 484.988281 205.488281 L 485.425781 203.15625 L 485.867188 200.835938 L 486.316406 198.535156 L 486.765625 196.25 L 487.222656 193.980469 L 487.683594 191.722656 L 488.148438 189.484375 L 488.617188 187.265625 L 489.085938 185.058594 L 489.5625 182.871094 L 490.039063 180.699219 L 490.523438 178.542969 L 491.007813 176.40625 L 491.496094 174.289063 L 491.988281 172.1875 L 492.480469 170.101563 L 492.976563 168.035156 L 493.476563 165.988281 L 493.976563 163.960938 L 494.480469 161.953125 L 494.984375 159.960938 L 495.492188 157.988281 L 496 156.035156 L 496.511719 154.101563 L 497.023438 152.1875 L 497.535156 150.292969 L 498.046875 148.417969 L 498.5625 146.5625 L 499.078125 144.730469 L 499.59375 142.914063 L 500.109375 141.121094 L 500.625 139.347656 L 501.140625 137.59375 L 501.65625 135.863281 L 502.171875 134.152344 L 502.683594 132.460938 L 503.199219 130.792969 L 503.710938 129.148438 L 504.222656 127.519531 L 504.734375 125.917969 L 505.242188 124.335938 L 505.75 122.773438 L 506.257813 121.234375 L 506.761719 119.71875 L 507.261719 118.226563 L 507.761719 116.753906 L 508.257813 115.304688 L 508.753906 113.875 L 509.242188 112.472656 L 509.730469 111.089844 L 510.214844 109.730469 L 510.699219 108.394531 L 511.175781 107.082031 L 511.652344 105.792969 L 512.121094 104.523438 L 512.585938 103.28125 L 513.050781 102.058594 L 513.507813 100.859375 L 513.957031 99.6875 L 514.40625 98.535156 L 514.847656 97.410156 L 515.285156 96.304688 L 515.71875 95.226563 L 516.144531 94.167969 L 516.566406 93.136719 L 516.980469 92.125 L 517.390625 91.140625 L 517.792969 90.179688 L 518.1875 89.242188 L 518.578125 88.328125 L 518.957031 87.4375 L 519.332031 86.574219 L 519.703125 85.730469 L 520.0625 84.914063 L 520.414063 84.117188 L 520.761719 83.347656 L 521.097656 82.601563 L 521.425781 81.882813 L 521.746094 81.183594 L 522.058594 80.507813 L 522.363281 79.859375 L 522.65625 79.234375 L 522.941406 78.632813 L 523.21875 78.054688 L 523.488281 77.5 L 523.746094 76.972656 L 523.992188 76.464844 L 524.230469 75.984375 L 524.457031 75.527344 L 524.675781 75.09375 L 524.882813 74.683594 L 525.082031 74.296875 L 525.265625 73.933594 L 525.441406 73.597656 L 525.605469 73.28125 L 525.761719 72.992188 L 525.902344 72.722656 L 526.03125 72.480469 L 526.152344 72.257813 L 526.257813 72.0625 L 526.351563 71.890625 L 526.433594 71.738281 L 526.503906 71.613281 L 526.5625 71.507813 L 526.609375 71.429688 L 526.640625 71.371094 L 526.660156 71.335938 L 526.667969 71.324219 L 526.660156 71.335938 L 526.640625 71.371094 L 526.605469 71.425781 L 526.558594 71.507813 L 526.5 71.609375 L 526.425781 71.734375 L 526.335938 71.878906 L 526.234375 72.046875 L 526.117188 72.238281 L 525.984375 72.453125 L 525.839844 72.6875 L 525.675781 72.941406 L 525.5 73.222656 L 525.3125 73.519531 L 525.105469 73.84375 L 524.886719 74.183594 L 524.648438 74.546875 L 524.398438 74.933594 L 524.132813 75.339844 L 523.847656 75.765625 L 523.238281 76.679688 L 522.90625 77.167969 L 522.5625 77.675781 L 522.199219 78.203125 L 521.820313 78.75 L 521.425781 79.320313 L 521.015625 79.90625 L 520.589844 80.515625 L 520.144531 81.140625 L 519.683594 81.785156 L 519.207031 82.453125 L 518.710938 83.136719 L 518.203125 83.839844 L 517.671875 84.558594 L 517.128906 85.300781 L 516.566406 86.058594 L 515.988281 86.832031 L 515.390625 87.625 L 514.777344 88.4375 L 514.144531 89.265625 L 513.496094 90.113281 L 512.828125 90.976563 L 512.144531 91.859375 L 511.441406 92.753906 L 510.722656 93.671875 L 509.984375 94.601563 L 509.230469 95.546875 L 508.457031 96.511719 L 507.667969 97.492188 L 506.859375 98.484375 L 506.03125 99.496094 L 505.1875 100.519531 L 504.324219 101.5625 L 503.445313 102.617188 L 502.546875 103.6875 L 501.632813 104.773438 L 500.695313 105.875 L 499.742188 106.988281 L 498.773438 108.113281 L 497.785156 109.257813 L 496.777344 110.410156 L 495.753906 111.582031 L 494.707031 112.761719 L 493.648438 113.957031 L 492.566406 115.164063 L 491.46875 116.382813 L 490.355469 117.617188 L 489.222656 118.859375 L 488.070313 120.117188 L 486.898438 121.382813 L 485.710938 122.664063 L 484.503906 123.953125 L 483.28125 125.253906 L 482.039063 126.566406 L 480.777344 127.890625 L 479.5 129.222656 L 478.207031 130.566406 L 476.890625 131.921875 L 475.558594 133.28125 L 474.210938 134.65625 L 472.84375 136.039063 L 471.460938 137.429688 L 470.058594 138.828125 L 468.636719 140.238281 L 467.203125 141.652344 L 465.746094 143.078125 L 464.273438 144.511719 L 462.785156 145.953125 L 461.28125 147.402344 L 459.757813 148.855469 L 458.214844 150.320313 L 456.65625 151.789063 L 455.082031 153.265625 L 453.492188 154.746094 L 451.882813 156.234375 L 450.257813 157.730469 L 448.617188 159.230469 L 446.960938 160.738281 L 445.285156 162.246094 L 443.597656 163.765625 L 441.890625 165.285156 L 440.167969 166.8125 L 438.429688 168.339844 L 436.675781 169.875 L 434.902344 171.414063 L 433.117188 172.957031 L 431.316406 174.5 L 429.5 176.050781 L 427.667969 177.601563 L 425.820313 179.15625 L 423.960938 180.714844 L 422.082031 182.273438 L 420.191406 183.835938 L 418.285156 185.398438 L 416.363281 186.964844 L 414.429688 188.53125 L 412.480469 190.101563 L 410.519531 191.671875 L 408.539063 193.242188 L 406.550781 194.8125 L 404.546875 196.386719 L 402.527344 197.957031 L 400.496094 199.53125 L 398.453125 201.101563 L 396.398438 202.671875 L 394.328125 204.246094 L 392.246094 205.816406 L 390.148438 207.386719 L 388.042969 208.953125 L 385.925781 210.519531 L 383.792969 212.085938 L 381.648438 213.652344 L 379.496094 215.214844 L 377.332031 216.773438 L 375.152344 218.332031 L 372.964844 219.886719 L 370.765625 221.4375 L 368.558594 222.988281 L 366.339844 224.535156 L 364.109375 226.078125 L 361.871094 227.617188 L 359.621094 229.152344 L 357.359375 230.683594 L 355.089844 232.210938 L 352.8125 233.738281 L 350.527344 235.257813 L 348.230469 236.769531 L 345.925781 238.28125 L 343.613281 239.785156 L 341.292969 241.289063 L 338.964844 242.78125 L 336.628906 244.273438 L 334.285156 245.757813 L 331.933594 247.234375 L 329.574219 248.707031 L 327.210938 250.175781 L 324.839844 251.632813 L 322.460938 253.089844 L 320.074219 254.535156 L 317.6875 255.976563 L 315.289063 257.410156 L 312.890625 258.835938 L 310.480469 260.257813 L 308.070313 261.671875 L 305.65625 263.074219 L 303.234375 264.472656 L 300.808594 265.863281 L 298.378906 267.246094 L 295.945313 268.621094 L 293.511719 269.984375 L 291.070313 271.34375 L 288.628906 272.691406 L 286.183594 274.035156 L 283.734375 275.367188 L 281.28125 276.691406 L 278.832031 278.003906 L 276.375 279.3125 L 273.917969 280.609375 L 271.460938 281.894531 L 269.003906 283.175781 L 266.546875 284.445313 L 264.085938 285.703125 L 261.625 286.953125 L 259.164063 288.195313 L 256.707031 289.425781 L 254.246094 290.644531 L 251.785156 291.855469 L 249.328125 293.054688 L 246.871094 294.246094 L 244.417969 295.425781 L 241.964844 296.597656 L 239.511719 297.757813 L 237.0625 298.90625 L 234.617188 300.042969 L 232.175781 301.171875 L 229.734375 302.289063 L 227.296875 303.394531 L 224.863281 304.492188 L 222.433594 305.574219 L 220.007813 306.648438 L 217.585938 307.710938 L 215.167969 308.761719 L 212.757813 309.804688 L 210.351563 310.832031 L 207.949219 311.851563 L 205.554688 312.855469 L 203.164063 313.851563 L 200.78125 314.835938 L 198.402344 315.808594 L 196.03125 316.769531 L 193.667969 317.71875 L 191.3125 318.660156 L 188.964844 319.585938 L 186.621094 320.5 L 184.289063 321.402344 L 181.964844 322.296875 L 179.648438 323.175781 L 177.339844 324.046875 L 175.042969 324.902344 L 172.753906 325.746094 L 170.472656 326.582031 L 168.203125 327.402344 L 165.945313 328.214844 L 163.695313 329.011719 L 161.457031 329.800781 L 159.226563 330.574219 L 157.011719 331.339844 L 154.804688 332.089844 L 152.609375 332.832031 L 150.425781 333.5625 L 148.257813 334.277344 L 146.097656 334.984375 L 143.953125 335.679688 L 141.820313 336.359375 L 139.699219 337.03125 L 137.59375 337.691406 L 135.5 338.339844 L 133.421875 338.976563 L 131.355469 339.601563 L 129.304688 340.214844 L 127.265625 340.820313 L 125.242188 341.410156 L 123.238281 341.992188 L 121.246094 342.5625 L 119.265625 343.117188 L 117.304688 343.664063 L 115.359375 344.203125 L 113.429688 344.726563 L 111.515625 345.242188 L 109.621094 345.746094 L 107.742188 346.238281 L 105.878906 346.71875 L 104.03125 347.191406 L 102.203125 347.652344 L 100.390625 348.101563 L 98.597656 348.542969 L 96.820313 348.972656 L 95.0625 349.390625 L 93.324219 349.800781 L 91.605469 350.199219 L 89.902344 350.589844 L 88.21875 350.96875 L 86.554688 351.339844 L 84.910156 351.699219 L 83.285156 352.046875 L 81.679688 352.390625 L 80.097656 352.71875 L 78.53125 353.042969 L 76.984375 353.355469 L 75.460938 353.660156 L 73.957031 353.953125 L 72.476563 354.238281 L 71.011719 354.515625 L 69.570313 354.785156 L 68.152344 355.042969 L 66.753906 355.292969 L 65.378906 355.535156 L 64.023438 355.769531 L 62.691406 355.996094 L 61.378906 356.214844 L 60.09375 356.425781 L 58.824219 356.628906 L 57.582031 356.824219 L 56.363281 357.011719 L 55.164063 357.191406 L 53.988281 357.363281 L 52.839844 357.53125 L 51.710938 357.691406 L 50.605469 357.84375 L 49.523438 357.988281 L 48.464844 358.125 L 47.433594 358.257813 L 46.421875 358.382813 L 45.4375 358.503906 L 44.476563 358.617188 L 43.539063 358.726563 L 42.625 358.828125 L 41.734375 358.925781 L 40.871094 359.015625 L 40.03125 359.101563 L 39.21875 359.183594 L 38.429688 359.261719 L 37.664063 359.332031 L 36.925781 359.398438 L 36.210938 359.460938 L 35.519531 359.515625 L 34.855469 359.570313 L 34.21875 359.621094 L 33.605469 359.664063 L 33.019531 359.707031 L 32.457031 359.746094 L 31.921875 359.78125 L 31.410156 359.8125 L 30.925781 359.839844 L 30.464844 359.863281 L 30.035156 359.886719 L 29.625 359.90625 L 29.246094 359.925781 L 28.890625 359.9375 L 28.5625 359.953125 L 28.261719 359.964844 L 27.984375 359.972656 L 27.734375 359.980469 L 27.511719 359.984375 L 27.3125 359.992188 L 27.140625 359.992188 L 26.996094 359.996094 L 26.878906 360 Z M 26.667969 360 "/>
  </g>
</svg>
