<?xml version="1.0" encoding="UTF-8"?>
<svg xmlns="http://www.w3.org/2000/svg" xmlns:xlink="http://www.w3.org/1999/xlink" width="100%" height="100%" viewBox="0 0 720 720" version="1.1">
  <g id="spiro_3_1_1_87461" transform=" translate(200 -200)">
    <path style=" stroke:none;fill-rule:evenodd;fill:rgb(25.490196%,41.176471%,88.235294%);fill-opacity:1;" d="M 693.332031 360 L 693.121094 360 L 693.003906 359.996094 L 692.859375 359.992188 L 692.6875 359.992188 L 692.488281 359.984375 L 692.265625 359.980469 L 692.015625 359.972656 L 691.738281 359.964844 L 691.4375 359.953125 L 691.109375 359.9375 L 690.753906 359.925781 L 690.375 359.90625 L 689.964844 359.886719 L 689.535156 359.863281 L 689.074219 359.839844 L 688.589844 359.8125 L 688.078125 359.78125 L 687.542969 359.746094 L 686.980469 359.707031 L 686.394531 359.664063 L 685.78125 359.621094 L 685.144531 359.570313 L 684.480469 359.515625 L 683.789063 359.460938 L 683.074219 359.398438 L 682.335938 359.332031 L 681.570313 359.261719 L 680.78125 359.183594 L 679.96875 359.101563 L 679.128906 359.015625 L 678.265625 358.925781 L 677.375 358.828125 L 676.460938 358.726563 L 675.523438 358.617188 L 674.5625 358.503906 L 673.578125 358.382813 L 672.566406 358.257813 L 671.535156 358.125 L 670.476563 357.988281 L 669.394531 357.84375 L 668.289063 357.691406 L 667.160156 357.53125 L 666.011719 357.363281 L 664.835938 357.191406 L 663.636719 357.011719 L 662.417969 356.824219 L 661.175781 356.628906 L 659.90625 356.425781 L 658.621094 356.214844 L 657.308594 355.996094 L 655.976563 355.769531 L 654.621094 355.535156 L 653.246094 355.292969 L 651.847656 355.042969 L 650.429688 354.785156 L 648.988281 354.515625 L 647.523438 354.238281 L 646.042969 353.953125 L 644.539063 353.660156 L 643.015625 353.355469 L 641.46875 353.042969 L 639.902344 352.71875 L 638.320313 352.390625 L 636.714844 352.046875 L 635.089844 351.699219 L 633.445313 351.339844 L 631.78125 350.96875 L 630.097656 350.589844 L 628.394531 350.199219 L 626.675781 349.800781 L 624.9375 349.390625 L 623.179688 348.972656 L 621.402344 348.542969 L 619.609375 348.101563 L 617.796875 347.652344 L 615.96875 347.191406 L 614.121094 346.71875 L 612.257813 346.238281 L 610.378906 345.746094 L 608.484375 345.242188 L 606.570313 344.726563 L 604.640625 344.203125 L 602.695313 343.664063 L 600.734375 343.117188 L 598.753906 342.5625 L 596.761719 341.992188 L 594.757813 341.410156 L 592.734375 340.820313 L 590.695313 340.214844 L 588.644531 339.601563 L 586.578125 338.976563 L 584.5 338.339844 L 582.40625 337.691406 L 580.300781 337.03125 L 578.179688 336.359375 L 576.046875 335.679688 L 573.902344 334.984375 L 571.742188 334.277344 L 569.574219 333.5625 L 567.390625 332.832031 L 565.195313 332.089844 L 562.988281 331.339844 L 560.773438 330.574219 L 558.542969 329.800781 L 556.304688 329.011719 L 554.054688 328.214844 L 551.796875 327.402344 L 549.527344 326.582031 L 547.246094 325.746094 L 544.957031 324.902344 L 542.660156 324.046875 L 540.351563 323.175781 L 538.035156 322.296875 L 535.710938 321.402344 L 533.378906 320.5 L 531.035156 319.585938 L 528.6875 318.660156 L 526.332031 317.71875 L 523.96875 316.769531 L 521.597656 315.808594 L 519.21875 314.835938 L 516.835938 313.851563 L 514.445313 312.855469 L 512.050781 311.851563 L 509.648438 310.832031 L 507.242188 309.804688 L 504.832031 308.761719 L 502.414063 307.710938 L 499.992188 306.648438 L 497.566406 305.574219 L 495.136719 304.492188 L 492.703125 303.394531 L 490.265625 302.289063 L 487.824219 301.171875 L 485.382813 300.042969 L 482.9375 298.90625 L 480.488281 297.757813 L 478.035156 296.597656 L 475.582031 295.425781 L 473.128906 294.246094 L 470.671875 293.054688 L 468.214844 291.855469 L 465.753906 290.644531 L 463.292969 289.425781 L 460.835938 288.195313 L 458.375 286.953125 L 455.914063 285.703125 L 453.453125 284.445313 L 450.996094 283.175781 L 448.539063 281.894531 L 446.082031 280.609375 L 443.625 279.3125 L 441.167969 278.003906 L 438.71875 276.691406 L 436.265625 275.367188 L 433.816406 274.035156 L 431.371094 272.691406 L 428.929688 271.34375 L 426.488281 269.984375 L 424.054688 268.621094 L 421.621094 267.246094 L 419.191406 265.863281 L 416.765625 264.472656 L 414.34375 263.074219 L 411.929688 261.671875 L 409.519531 260.257813 L 407.109375 258.835938 L 404.710938 257.410156 L 402.3125 255.976563 L 399.925781 254.535156 L 397.539063 253.089844 L 395.160156 251.632813 L 392.789063 250.175781 L 390.425781 248.707031 L 388.066406 247.234375 L 385.714844 245.757813 L 383.371094 244.273438 L 381.035156 242.78125 L 378.707031 241.289063 L 376.386719 239.785156 L 374.074219 238.28125 L 371.769531 236.769531 L 369.472656 235.257813 L 367.1875 233.738281 L 364.910156 232.210938 L 362.640625 230.683594 L 360.378906 229.152344 L 358.128906 227.617188 L 355.890625 226.078125 L 353.660156 224.535156 L 351.441406 222.988281 L 349.234375 221.4375 L 347.035156 219.886719 L 344.847656 218.332031 L 342.667969 216.773438 L 340.503906 215.214844 L 338.351563 213.652344 L 336.207031 212.085938 L 334.074219 210.519531 L 331.957031 208.953125 L 329.851563 207.386719 L 327.753906 205.816406 L 325.671875 204.246094 L 323.601563 202.671875 L 321.546875 201.101563 L 319.503906 199.53125 L 317.472656 197.957031 L 315.453125 196.386719 L 313.449219 194.8125 L 311.460938 193.242188 L 309.480469 191.671875 L 307.519531 190.101563 L 305.570313 188.53125 L 303.636719 186.964844 L 301.714844 185.398438 L 299.808594 183.835938 L 297.917969 182.273438 L 296.039063 180.714844 L 294.179688 179.15625 L 292.332031 177.601563 L 290.5 176.050781 L 288.683594 174.5 L 286.882813 172.957031 L 285.097656 171.414063 L 283.324219 169.875 L 281.570313 168.339844 L 279.832031 166.8125 L 278.109375 165.285156 L 276.402344 163.765625 L 274.714844 162.246094 L 273.039063 160.738281 L 271.382813 159.230469 L 269.742188 157.730469 L 268.117188 156.234375 L 266.507813 154.746094 L 264.917969 153.265625 L 263.34375 151.789063 L 261.785156 150.320313 L 260.242188 148.855469 L 258.71875 147.402344 L 257.214844 145.953125 L 255.726563 144.511719 L 254.253906 143.078125 L 252.796875 141.652344 L 251.363281 140.238281 L 249.941406 138.828125 L 248.539063 137.429688 L 247.15625 136.039063 L 245.789063 134.65625 L 244.441406 133.28125 L 243.109375 131.921875 L 241.792969 130.566406 L 240.5 129.222656 L 239.222656 127.890625 L 237.960938 126.566406 L 236.71875 125.253906 L 235.496094 123.953125 L 234.289063 122.664063 L 233.101563 121.382813 L 231.929688 120.117188 L 230.777344 118.859375 L 229.644531 117.617188 L 228.53125 116.382813 L 227.433594 115.164063 L 226.351563 113.957031 L 225.292969 112.761719 L 224.246094 111.582031 L 223.222656 110.410156 L 222.214844 109.257813 L 221.226563 108.113281 L 220.257813 106.988281 L 219.304688 105.875 L 218.367188 104.773438 L 217.453125 103.6875 L 216.554688 102.617188 L 215.675781 101.5625 L 214.8125 100.519531 L 213.96875 99.496094 L 213.140625 98.484375 L 212.332031 97.492188 L 211.542969 96.511719 L 210.769531 95.546875 L 210.015625 94.601563 L 209.277344 93.671875 L 208.558594 92.753906 L 207.855469 91.859375 L 207.171875 90.976563 L 206.503906 90.113281 L 205.855469 89.265625 L 205.222656 88.4375 L 204.609375 87.625 L 204.011719 86.832031 L 203.433594 86.058594 L 202.871094 85.300781 L 202.328125 84.558594 L 201.796875 83.839844 L 201.289063 83.136719 L 200.792969 82.453125 L 200.316406 81.785156 L 199.855469 81.140625 L 199.410156 80.515625 L 198.984375 79.90625 L 198.574219 79.320313 L 198.179688 78.75 L 197.800781 78.203125 L 197.4375 77.675781 L 197.09375 77.167969 L 196.761719 76.679688 L 196.152344 75.765625 L 195.867188 75.339844 L 195.601563 74.933594 L 195.351563 74.546875 L 195.113281 74.183594 L 194.894531 73.84375 L 194.6875 73.519531 L 194.5 73.222656 L 194.324219 72.941406 L 194.160156 72.6875 L 194.015625 72.453125 L 193.882813 72.238281 L 193.765625 72.046875 L 193.664063 71.878906 L 193.574219 71.734375 L 193.5 71.609375 L 193.441406 71.507813 L 193.394531 71.425781 L 193.359375 71.371094 L 193.339844 71.335938 L 193.332031 71.324219 L 193.339844 71.335938 L 193.359375 71.371094 L 193.390625 71.429688 L 193.4375 71.507813 L 193.496094 71.613281 L 193.566406 71.738281 L 193.648438 71.890625 L 193.742188 72.0625 L 193.847656 72.257813 L 193.96875 72.480469 L 194.097656 72.722656 L 194.238281 72.992188 L 194.394531 73.28125 L 194.558594 73.597656 L 194.734375 73.933594 L 194.917969 74.296875 L 195.117188 74.683594 L 195.324219 75.09375 L 195.542969 75.527344 L 195.769531 75.984375 L 196.007813 76.464844 L 196.253906 76.972656 L 196.511719 77.5 L 196.78125 78.054688 L 197.058594 78.632813 L 197.34375 79.234375 L 197.636719 79.859375 L 197.941406 80.507813 L 198.253906 81.183594 L 198.574219 81.882813 L 198.902344 82.601563 L 199.238281 83.347656 L 199.585938 84.117188 L 199.9375 84.914063 L 200.296875 85.730469 L 200.667969 86.574219 L 201.042969 87.4375 L 201.421875 88.328125 L 201.8125 89.242188 L 202.207031 90.179688 L 202.609375 91.140625 L 203.019531 92.125 L 203.433594 93.136719 L 203.855469 94.167969 L 204.28125 95.226563 L 204.714844 96.304688 L 205.152344 97.410156 L 205.59375 98.535156 L 206.042969 99.6875 L 206.492188 100.859375 L 206.949219 102.058594 L 207.414063 103.28125 L 207.878906 104.523438 L 208.347656 105.792969 L 208.824219 107.082031 L 209.300781 108.394531 L 209.785156 109.730469 L 210.269531 111.089844 L 210.757813 112.472656 L 211.246094 113.875 L 211.742188 115.304688 L 212.238281 116.753906 L 212.738281 118.226563 L 213.238281 119.71875 L 213.742188 121.234375 L 214.25 122.773438 L 214.757813 124.335938 L 215.265625 125.917969 L 215.777344 127.519531 L 216.289063 129.148438 L 216.800781 130.792969 L 217.316406 132.460938 L 217.828125 134.152344 L 218.34375 135.863281 L 218.859375 137.59375 L 219.375 139.347656 L 219.890625 141.121094 L 220.40625 142.914063 L 220.921875 144.730469 L 221.4375 146.5625 L 221.953125 148.417969 L 222.464844 150.292969 L 222.976563 152.1875 L 223.488281 154.101563 L 224 156.035156 L 224.507813 157.988281 L 225.015625 159.960938 L 225.519531 161.953125 L 226.023438 163.960938 L 226.523438 165.988281 L 227.023438 168.035156 L 227.519531 170.101563 L 228.011719 172.1875 L 228.503906 174.289063 L 228.992188 176.40625 L 229.476563 178.542969 L 229.960938 180.699219 L 230.4375 182.871094 L 230.914063 185.058594 L 231.382813 187.265625 L 231.851563 189.484375 L 232.316406 191.722656 L 232.777344 193.980469 L 233.234375 196.25 L 233.683594 198.535156 L 234.132813 200.835938 L 234.574219 203.15625 L 235.011719 205.488281 L 235.445313 207.835938 L 235.871094 210.199219 L 236.296875 212.574219 L 236.714844 214.964844 L 237.125 217.371094 L 237.53125 219.789063 L 237.933594 222.222656 L 238.328125 224.667969 L 238.71875 227.128906 L 239.105469 229.601563 L 239.480469 232.085938 L 239.851563 234.582031 L 240.21875 237.09375 L 240.578125 239.613281 L 240.929688 242.148438 L 241.277344 244.691406 L 241.617188 247.25 L 241.949219 249.816406 L 242.277344 252.394531 L 242.59375 254.984375 L 242.90625 257.582031 L 243.210938 260.191406 L 243.507813 262.808594 L 243.800781 265.4375 L 244.082031 268.074219 L 244.359375 270.722656 L 244.628906 273.378906 L 244.886719 276.042969 L 245.140625 278.714844 L 245.386719 281.394531 L 245.621094 284.082031 L 245.851563 286.777344 L 246.074219 289.480469 L 246.285156 292.1875 L 246.492188 294.90625 L 246.691406 297.628906 L 246.878906 300.355469 L 247.058594 303.089844 L 247.230469 305.832031 L 247.394531 308.578125 L 247.550781 311.328125 L 247.699219 314.082031 L 247.839844 316.84375 L 247.96875 319.609375 L 248.089844 322.375 L 248.203125 325.148438 L 248.308594 327.921875 L 248.40625 330.703125 L 248.492188 333.484375 L 248.570313 336.269531 L 248.640625 339.054688 L 248.703125 341.84375 L 248.757813 344.632813 L 248.800781 347.425781 L 248.835938 350.21875 L 248.863281 353.011719 L 248.878906 355.808594 L 248.886719 358.601563 L 248.886719 361.398438 L 248.878906 364.191406 L 248.863281 366.988281 L 248.835938 369.78125 L 248.800781 372.574219 L 248.757813 375.367188 L 248.703125 378.15625 L 248.640625 380.945313 L 248.570313 383.730469 L 248.492188 386.515625 L 248.40625 389.296875 L 248.308594 392.078125 L 248.203125 394.851563 L 248.089844 397.625 L 247.96875 400.390625 L 247.839844 403.15625 L 247.699219 405.917969 L 247.550781 408.671875 L 247.394531 411.421875 L 247.230469 414.167969 L 247.058594 416.910156 L 246.878906 419.644531 L 246.691406 422.371094 L 246.492188 425.09375 L 246.285156 427.8125 L 246.074219 430.519531 L 245.851563 433.222656 L 245.621094 435.917969 L 245.386719 438.605469 L 245.140625 441.285156 L 244.886719 443.957031 L 244.628906 446.621094 L 244.359375 449.277344 L 244.082031 451.925781 L 243.800781 454.5625 L 243.507813 457.191406 L 243.210938 459.808594 L 242.90625 462.417969 L 242.59375 465.015625 L 242.277344 467.605469 L 241.949219 470.183594 L 241.617188 472.75 L 241.277344 475.308594 L 240.929688 477.851563 L 240.578125 480.386719 L 240.21875 482.90625 L 239.851563 485.417969 L 239.480469 487.914063 L 239.105469 490.398438 L 238.71875 492.871094 L 238.328125 495.332031 L 237.933594 497.777344 L 237.53125 500.210938 L 237.125 502.628906 L 236.714844 505.035156 L 236.296875 507.425781 L 235.871094 509.800781 L 235.445313 512.164063 L 235.011719 514.511719 L 234.574219 516.84375 L 234.132813 519.164063 L 233.683594 521.464844 L 233.234375 523.75 L 232.777344 526.019531 L 232.316406 528.277344 L 231.851563 530.515625 L 231.382813 532.734375 L 230.914063 534.941406 L 230.4375 537.128906 L 229.960938 539.300781 L 229.476563 541.457031 L 228.992188 543.59375 L 228.503906 545.710938 L 228.011719 547.8125 L 227.519531 549.898438 L 227.023438 551.964844 L 226.523438 554.011719 L 226.023438 556.039063 L 225.519531 558.046875 L 225.015625 560.039063 L 224.507813 562.011719 L 224 563.964844 L 223.488281 565.898438 L 222.976563 567.8125 L 222.464844 569.707031 L 221.953125 571.582031 L 221.4375 573.4375 L 220.921875 575.269531 L 220.40625 577.085938 L 219.890625 578.878906 L 219.375 580.652344 L 218.859375 582.40625 L 218.34375 584.136719 L 217.828125 585.847656 L 217.316406 587.539063 L 216.800781 589.207031 L 216.289063 590.851563 L 215.777344 592.480469 L 215.265625 594.082031 L 214.757813 595.664063 L 214.25 597.226563 L 213.742188 598.765625 L 213.238281 600.28125 L 212.738281 601.773438 L 212.238281 603.246094 L 211.742188 604.695313 L 211.246094 606.125 L 210.757813 607.527344 L 210.269531 608.910156 L 209.785156 610.269531 L 209.300781 611.605469 L 208.824219 612.917969 L 208.347656 614.207031 L 207.878906 615.476563 L 207.414063 616.71875 L 206.949219 617.941406 L 206.492188 619.140625 L 206.042969 620.3125 L 205.59375 621.464844 L 205.152344 622.589844 L 204.714844 623.695313 L 204.28125 624.773438 L 203.855469 625.832031 L 203.433594 626.863281 L 203.019531 627.875 L 202.609375 628.859375 L 202.207031 629.820313 L 201.8125 630.757813 L 201.421875 631.671875 L 201.042969 632.5625 L 200.667969 633.425781 L 200.296875 634.269531 L 199.9375 635.085938 L 199.585938 635.882813 L 199.238281 636.652344 L 198.902344 637.398438 L 198.574219 638.117188 L 198.253906 638.816406 L 197.941406 639.492188 L 197.636719 640.140625 L 197.34375 640.765625 L 197.058594 641.367188 L 196.78125 641.945313 L 196.511719 642.5 L 196.253906 643.027344 L 196.007813 643.535156 L 195.769531 644.015625 L 195.542969 644.472656 L 195.324219 644.90625 L 195.117188 645.316406 L 194.917969 645.703125 L 194.734375 646.066406 L 194.558594 646.402344 L 194.394531 646.71875 L 194.238281 647.007813 L 194.097656 647.277344 L 193.96875 647.519531 L 193.847656 647.742188 L 193.742188 647.9375 L 193.648438 648.109375 L 193.566406 648.261719 L 193.496094 648.386719 L 193.4375 648.492188 L 193.390625 648.570313 L 193.359375 648.628906 L 193.339844 648.664063 L 193.332031 648.675781 L 193.339844 648.664063 L 193.359375 648.628906 L 193.394531 648.574219 L 193.441406 648.492188 L 193.5 648.390625 L 193.574219 648.265625 L 193.664063 648.121094 L 193.765625 647.953125 L 193.882813 647.761719 L 194.015625 647.546875 L 194.160156 647.3125 L 194.324219 647.058594 L 194.5 646.777344 L 194.6875 646.480469 L 194.894531 646.15625 L 195.113281 645.816406 L 195.351563 645.453125 L 195.601563 645.066406 L 195.867188 644.660156 L 196.152344 644.234375 L 196.761719 643.320313 L 197.09375 642.832031 L 197.4375 642.324219 L 197.800781 641.796875 L 198.179688 641.25 L 198.574219 640.679688 L 198.984375 640.09375 L 199.410156 639.484375 L 199.855469 638.859375 L 200.316406 638.214844 L 200.792969 637.546875 L 201.289063 636.863281 L 201.796875 636.160156 L 202.328125 635.441406 L 202.871094 634.699219 L 203.433594 633.941406 L 204.011719 633.167969 L 204.609375 632.375 L 205.222656 631.5625 L 205.855469 630.734375 L 206.503906 629.886719 L 207.171875 629.023438 L 207.855469 628.140625 L 208.558594 627.246094 L 209.277344 626.328125 L 210.015625 625.398438 L 210.769531 624.453125 L 211.542969 623.488281 L 212.332031 622.507813 L 213.140625 621.515625 L 213.96875 620.503906 L 214.8125 619.480469 L 215.675781 618.4375 L 216.554688 617.382813 L 217.453125 616.3125 L 218.367188 615.226563 L 219.304688 614.125 L 220.257813 613.011719 L 221.226563 611.886719 L 222.214844 610.742188 L 223.222656 609.589844 L 224.246094 608.417969 L 225.292969 607.238281 L 226.351563 606.042969 L 227.433594 604.835938 L 228.53125 603.617188 L 229.644531 602.382813 L 230.777344 601.140625 L 231.929688 599.882813 L 233.101563 598.617188 L 234.289063 597.335938 L 235.496094 596.046875 L 236.71875 594.746094 L 237.960938 593.433594 L 239.222656 592.109375 L 240.5 590.777344 L 241.792969 589.433594 L 243.109375 588.078125 L 244.441406 586.71875 L 245.789063 585.34375 L 247.15625 583.960938 L 248.539063 582.570313 L 249.941406 581.171875 L 251.363281 579.761719 L 252.796875 578.347656 L 254.253906 576.921875 L 255.726563 575.488281 L 257.214844 574.046875 L 258.71875 572.597656 L 260.242188 571.144531 L 261.785156 569.679688 L 263.34375 568.210938 L 264.917969 566.734375 L 266.507813 565.253906 L 268.117188 563.765625 L 269.742188 562.269531 L 271.382813 560.769531 L 273.039063 559.261719 L 274.714844 557.753906 L 276.402344 556.234375 L 278.109375 554.714844 L 279.832031 553.1875 L 281.570313 551.660156 L 283.324219 550.125 L 285.097656 548.585938 L 286.882813 547.042969 L 288.683594 545.5 L 290.5 543.949219 L 292.332031 542.398438 L 294.179688 540.84375 L 296.039063 539.285156 L 297.917969 537.726563 L 299.808594 536.164063 L 301.714844 534.601563 L 303.636719 533.035156 L 305.570313 531.46875 L 307.519531 529.898438 L 309.480469 528.328125 L 311.460938 526.757813 L 313.449219 525.1875 L 315.453125 523.613281 L 317.472656 522.042969 L 319.503906 520.46875 L 321.546875 518.898438 L 323.601563 517.328125 L 325.671875 515.753906 L 327.753906 514.183594 L 329.851563 512.613281 L 331.957031 511.046875 L 334.074219 509.480469 L 336.207031 507.914063 L 338.351563 506.347656 L 340.503906 504.785156 L 342.667969 503.226563 L 344.847656 501.667969 L 347.035156 500.113281 L 349.234375 498.5625 L 351.441406 497.011719 L 353.660156 495.464844 L 355.890625 493.921875 L 358.128906 492.382813 L 360.378906 490.847656 L 362.640625 489.316406 L 364.910156 487.789063 L 367.1875 486.261719 L 369.472656 484.742188 L 371.769531 483.230469 L 374.074219 481.71875 L 376.386719 480.214844 L 378.707031 478.710938 L 381.035156 477.21875 L 383.371094 475.726563 L 385.714844 474.242188 L 388.066406 472.765625 L 390.425781 471.292969 L 392.789063 469.824219 L 395.160156 468.367188 L 397.539063 466.910156 L 399.925781 465.464844 L 402.3125 464.023438 L 404.710938 462.589844 L 407.109375 461.164063 L 409.519531 459.742188 L 411.929688 458.328125 L 414.34375 456.925781 L 416.765625 455.527344 L 419.191406 454.136719 L 421.621094 452.753906 L 424.054688 451.378906 L 426.488281 450.015625 L 428.929688 448.65625 L 431.371094 447.308594 L 433.816406 445.964844 L 436.265625 444.632813 L 438.71875 443.308594 L 441.167969 441.996094 L 443.625 440.6875 L 446.082031 439.390625 L 448.539063 438.105469 L 450.996094 436.824219 L 453.453125 435.554688 L 455.914063 434.296875 L 458.375 433.046875 L 460.835938 431.804688 L 463.292969 430.574219 L 465.753906 429.355469 L 468.214844 428.144531 L 470.671875 426.945313 L 473.128906 425.753906 L 475.582031 424.574219 L 478.035156 423.402344 L 480.488281 422.242188 L 482.9375 421.09375 L 485.382813 419.957031 L 487.824219 418.828125 L 490.265625 417.710938 L 492.703125 416.605469 L 495.136719 415.507813 L 497.566406 414.425781 L 499.992188 413.351563 L 502.414063 412.289063 L 504.832031 411.238281 L 507.242188 410.195313 L 509.648438 409.167969 L 512.050781 408.148438 L 514.445313 407.144531 L 516.835938 406.148438 L 519.21875 405.164063 L 521.597656 404.191406 L 523.96875 403.230469 L 526.332031 402.28125 L 528.6875 401.339844 L 531.035156 400.414063 L 533.378906 399.5 L 535.710938 398.597656 L 538.035156 397.703125 L 540.351563 396.824219 L 542.660156 395.953125 L 544.957031 395.097656 L 547.246094 394.253906 L 549.527344 393.417969 L 551.796875 392.597656 L 554.054688 391.785156 L 556.304688 390.988281 L 558.542969 390.199219 L 560.773438 389.425781 L 562.988281 388.660156 L 565.195313 387.910156 L 567.390625 387.167969 L 569.574219 386.4375 L 571.742188 385.722656 L 573.902344 385.015625 L 576.046875 384.320313 L 578.179688 383.640625 L 580.300781 382.96875 L 582.40625 382.308594 L 584.5 381.660156 L 586.578125 381.023438 L 588.644531 380.398438 L 590.695313 379.785156 L 592.734375 379.179688 L 594.757813 378.589844 L 596.761719 378.007813 L 598.753906 377.4375 L 600.734375 376.882813 L 602.695313 376.335938 L 604.640625 375.796875 L 606.570313 375.273438 L 608.484375 374.757813 L 610.378906 374.253906 L 612.257813 373.761719 L 614.121094 373.28125 L 615.96875 372.808594 L 617.796875 372.347656 L 619.609375 371.898438 L 621.402344 371.457031 L 623.179688 371.027344 L 624.9375 370.609375 L 626.675781 370.199219 L 628.394531 369.800781 L 630.097656 369.410156 L 631.78125 369.03125 L 633.445313 368.660156 L 635.089844 368.300781 L 636.714844 367.953125 L 638.320313 367.609375 L 639.902344 367.28125 L 641.46875 366.957031 L 643.015625 366.644531 L 644.539063 366.339844 L 646.042969 366.046875 L 647.523438 365.761719 L 648.988281 365.484375 L 650.429688 365.214844 L 651.847656 364.957031 L 653.246094 364.707031 L 654.621094 364.464844 L 655.976563 364.230469 L 657.308594 364.003906 L 658.621094 363.785156 L 659.90625 363.574219 L 661.175781 363.371094 L 662.417969 363.175781 L 663.636719 362.988281 L 664.835938 362.808594 L 666.011719 362.636719 L 667.160156 362.46875 L 668.289063 362.308594 L 669.394531 362.15625 L 670.476563 362.011719 L 671.535156 361.875 L 672.566406 361.742188 L 673.578125 361.617188 L 674.5625 361.496094 L 675.523438 361.382813 L 676.460938 361.273438 L 677.375 361.171875 L 678.265625 361.074219 L 679.128906 360.984375 L 679.96875 360.898438 L 680.78125 360.816406 L 681.570313 360.738281 L 682.335938 360.667969 L 683.074219 360.601563 L 683.789063 360.539063 L 684.480469 360.484375 L 685.144531 360.429688 L 685.78125 360.378906 L 686.394531 360.335938 L 686.980469 360.292969 L 687.542969 360.253906 L 688.078125 360.21875 L 688.589844 360.1875 L 689.074219 360.160156 L 689.535156 360.136719 L 689.964844 360.113281 L 690.375 360.09375 L 690.753906 360.074219 L 691.109375 360.0625 L 691.4375 360.046875 L 691.738281 360.035156 L 692.015625 360.027344 L 692.265625 360.019531 L 692.488281 360.015625 L 692.6875 360.007813 L 692.859375 360.007813 L 693.003906 360.003906 L 693.121094 360 Z M 693.332031 360 "/>
  </g>
</svg>
